<svg version="1.1" viewBox="0.0 0.0 864.0 864.0" fill="none" stroke="none" stroke-linecap="square" stroke-miterlimit="10" xmlns:xlink="http://www.w3.org/1999/xlink" xmlns="http://www.w3.org/2000/svg"><clipPath id="p.0"><path d="m0 0l864.0 0l0 864.0l-864.0 0l0 -864.0z" clip-rule="nonzero"/></clipPath><g clip-path="url(#p.0)"><path fill="#d1e8ff" d="m17.103544 242.1194l0 0c0 -38.194 30.962362 -69.15637 69.15637 -69.15637l276.6172 0l0 0c18.3414 0 35.93161 7.2861023 48.90094 20.255432c12.96933 12.969345 20.255432 30.559525 20.255432 48.90094l0 379.76086c0 38.19397 -30.962372 69.15637 -69.15637 69.15637l-276.6172 0c-38.19401 0 -69.15637 -30.962402 -69.15637 -69.15637z" fill-rule="evenodd"/><path stroke="#a6d3ff" stroke-width="40.425196850393704" stroke-linejoin="round" stroke-linecap="butt" d="m17.103544 242.1194l0 0c0 -38.194 30.962362 -69.15637 69.15637 -69.15637l276.6172 0l0 0c18.3414 0 35.93161 7.2861023 48.90094 20.255432c12.96933 12.969345 20.255432 30.559525 20.255432 48.90094l0 379.76086c0 38.19397 -30.962372 69.15637 -69.15637 69.15637l-276.6172 0c-38.19401 0 -69.15637 -30.962402 -69.15637 -69.15637z" fill-rule="evenodd"/><path fill="#d1e8ff" d="m431.96738 242.1194l0 0c0 -38.194 30.962372 -69.15637 69.15637 -69.15637l276.61722 0l0 0c18.34137 0 35.93158 7.2861023 48.90094 20.255432c12.969299 12.969345 20.255432 30.559525 20.255432 48.90094l0 379.76086c0 38.19397 -30.962402 69.15637 -69.15637 69.15637l-276.61722 0c-38.194 0 -69.15637 -30.962402 -69.15637 -69.15637z" fill-rule="evenodd"/><path stroke="#a6d3ff" stroke-width="40.425196850393704" stroke-linejoin="round" stroke-linecap="butt" d="m431.96738 242.1194l0 0c0 -38.194 30.962372 -69.15637 69.15637 -69.15637l276.61722 0l0 0c18.34137 0 35.93158 7.2861023 48.90094 20.255432c12.969299 12.969345 20.255432 30.559525 20.255432 48.90094l0 379.76086c0 38.19397 -30.962402 69.15637 -69.15637 69.15637l-276.61722 0c-38.194 0 -69.15637 -30.962402 -69.15637 -69.15637z" fill-rule="evenodd"/><path fill="#f3f8fe" d="m69.24669 246.89336l0 0c0 -33.388138 27.066437 -60.454575 60.454575 -60.454575l241.81107 0l0 0c16.033539 0 31.4104 6.369293 42.747833 17.706726c11.337433 11.337433 17.706726 26.714294 17.706726 42.74785l0 332.0985c0 33.388184 -27.066437 60.45459 -60.45456 60.45459l-241.81107 0c-33.388138 0 -60.454575 -27.066406 -60.454575 -60.45459z" fill-rule="evenodd"/><path fill="#f3f8fe" d="m431.97623 246.89336l0 0c0 -33.388138 27.066437 -60.454575 60.45456 -60.454575l241.81104 0l0 0c16.03357 0 31.410461 6.369293 42.747864 17.706726c11.337463 11.337433 17.706726 26.714294 17.706726 42.74785l0 332.0985c0 33.388184 -27.066406 60.45459 -60.45459 60.45459l-241.81104 0c-33.388123 0 -60.45456 -27.066406 -60.45456 -60.45459z" fill-rule="evenodd"/><path fill="#d1e8ff" d="m135.02469 277.64804l0 0c0 -5.411133 4.3865814 -9.797699 9.797699 -9.797699l223.39572 0c2.5985107 0 5.0906067 1.0322571 6.9280396 2.86969c1.8374023 1.8374023 2.8696594 4.3294983 2.8696594 6.928009l0 39.189606c0 5.411133 -4.386566 9.797699 -9.797699 9.797699l-223.39572 0l0 0c-5.4111176 0 -9.797699 -4.386566 -9.797699 -9.797699z" fill-rule="evenodd"/><path fill="#d1e8ff" d="m135.02469 385.45404l0 0c0 -5.411133 4.3865814 -9.797699 9.797699 -9.797699l223.39572 0c2.5985107 0 5.0906067 1.0322571 6.9280396 2.8696594c1.8374023 1.8374329 2.8696594 4.329529 2.8696594 6.9280396l0 39.189606c0 5.411133 -4.386566 9.797699 -9.797699 9.797699l-223.39572 0l0 0c-5.4111176 0 -9.797699 -4.386566 -9.797699 -9.797699z" fill-rule="evenodd"/><path fill="#d1e8ff" d="m135.02469 493.26l0 0c0 -5.4111023 4.3865814 -9.797699 9.797699 -9.797699l223.39572 0c2.5985107 0 5.0906067 1.0322571 6.9280396 2.86969c1.8374023 1.8374329 2.8696594 4.3294983 2.8696594 6.928009l0 39.189636c0 5.411133 -4.386566 9.797668 -9.797699 9.797668l-223.39572 0l0 0c-5.4111176 0 -9.797699 -4.3865356 -9.797699 -9.797668z" fill-rule="evenodd"/><path fill="#d1e8ff" d="m485.88785 277.64804l0 0c0 -5.411133 4.386566 -9.797699 9.797668 -9.797699l223.39572 0c2.5985107 0 5.090637 1.0322571 6.9280396 2.86969c1.8374023 1.8374023 2.86969 4.3294983 2.86969 6.928009l0 39.189606c0 5.411133 -4.3865967 9.797699 -9.7977295 9.797699l-223.39572 0l0 0c-5.4111023 0 -9.797668 -4.386566 -9.797668 -9.797699z" fill-rule="evenodd"/><path fill="#d1e8ff" d="m485.88785 385.45404l0 0c0 -5.411133 4.386566 -9.797699 9.797668 -9.797699l223.39572 0c2.5985107 0 5.090637 1.0322571 6.9280396 2.8696594c1.8374023 1.8374329 2.86969 4.329529 2.86969 6.9280396l0 39.189606c0 5.411133 -4.3865967 9.797699 -9.7977295 9.797699l-223.39572 0l0 0c-5.4111023 0 -9.797668 -4.386566 -9.797668 -9.797699z" fill-rule="evenodd"/><path fill="#d1e8ff" d="m485.88785 493.26l0 0c0 -5.4111023 4.386566 -9.797699 9.797668 -9.797699l223.39572 0c2.5985107 0 5.090637 1.0322571 6.9280396 2.86969c1.8374023 1.8374329 2.86969 4.3294983 2.86969 6.928009l0 39.189636c0 5.411133 -4.3865967 9.797668 -9.7977295 9.797668l-223.39572 0l0 0c-5.4111023 0 -9.797668 -4.3865356 -9.797668 -9.797668z" fill-rule="evenodd"/></g></svg>