<svg version="1.1" viewBox="0 0 960 384" fill="none" stroke="none" stroke-linecap="square" stroke-miterlimit="10" xmlns="http://www.w3.org/2000/svg">
  <clipPath id="p.0">
    <path d="M0 0h960v384H0z" clip-rule="nonzero" />
  </clipPath>
  <g clip-path="url(#p.0)">
    <!-- Dark outer shape -->
    <path fill="#3b4652" d="m5.7007875 69.082596c0-33.943726 27.516827-61.46055 61.460545-61.46055h825.67737c16.300354 0 31.933044 6.4752884 43.459167 18.001377 11.526062 11.526089 18.001343 27.158817 18.001343 43.45917v245.83482c0 33.943695-27.516785 61.46054-61.46051 61.46054H67.161333c-33.943718 0-61.460545-27.516846-61.460545-61.46054z" fill-rule="evenodd"/>
    <path stroke="#3b4652" stroke-width="4" stroke-linejoin="round" stroke-linecap="butt" d="m5.7007875 69.082596c0-33.943726 27.516827-61.46055 61.460545-61.46055h825.67737c16.300354 0 31.933044 6.4752884 43.459167 18.001377 11.526062 11.526089 18.001343 27.158817 18.001343 43.45917v245.83482c0 33.943695-27.516785 61.46054-61.46051 61.46054H67.161333c-33.943718 0-61.460545-27.516846-61.460545-61.46054z" fill-rule="evenodd"/>
    <!-- Inner dark fill -->
    <path fill="#161d25" d="m5.7007875 67.74924c0-33.207333 26.91986-60.12719 60.127186-60.12719h828.344c15.946777 0 31.240356 6.3348103 42.516357 17.610846 11.276062 11.276033 17.61084 26.56962 17.61084 42.516342v240.50153c0 33.207336-26.91986 60.127197-60.127197 60.127197h-828.344c-33.207325 0-60.127186-26.91986-60.127186-60.127197z" fill-rule="evenodd"/>
    <path stroke="#3b4652" stroke-width="4" stroke-linejoin="round" stroke-linecap="butt" d="m5.7007875 67.74924c0-33.207333 26.91986-60.12719 60.127186-60.12719h828.344c15.946777 0 31.240356 6.3348103 42.516357 17.610846 11.276062 11.276033 17.61084 26.56962 17.61084 42.516342v240.50153c0 33.207336-26.91986 60.127197-60.127197 60.127197h-828.344c-33.207325 0-60.127186-26.91986-60.127186-60.127197z" fill-rule="evenodd"/>
  </g>
</svg>