<svg version="1.1" viewBox="0.0 0.0 480.0 748.8005249343832" fill="none" stroke="none" stroke-linecap="square" stroke-miterlimit="10" xmlns:xlink="http://www.w3.org/1999/xlink" xmlns="http://www.w3.org/2000/svg"><clipPath id="p.0"><path d="m0 0l480.0 0l0 748.80054l-480.0 0l0 -748.80054z" clip-rule="nonzero"/></clipPath><g clip-path="url(#p.0)"><path fill="#ffffff" d="m0 0l480.0 0l0 748.80054l-480.0 0z" fill-rule="evenodd"/><path fill="#9f9f9f" d="m57.76929 60.721325l0 0c0 -33.53494 27.185436 -60.720375 60.72038 -60.720375l242.87422 0l0 0c16.104034 0 31.548492 6.397307 42.93576 17.784586c11.387299 11.3872795 17.784607 26.831745 17.784607 42.93579l0 243.81908c0 33.534943 -27.185455 60.720398 -60.720367 60.720398l-242.87422 0l0 0c-33.534943 0 -60.72038 -27.185455 -60.72038 -60.720398z" fill-rule="evenodd"/><path fill="#cfcfcf" d="m57.774998 28.295477l0 0c0 -15.6266365 12.667889 -28.294529 28.294529 -28.294529l307.72592 0c7.5041504 0 14.700989 2.9810221 20.007233 8.287275c5.3062744 5.3062534 8.2872925 12.5030775 8.2872925 20.007252l0 113.17472c0 15.626633 -12.667908 28.294525 -28.294525 28.294525l-307.72592 0c-15.62664 0 -28.294529 -12.667892 -28.294529 -28.294525z" fill-rule="evenodd"/><path fill="#ffffff" d="m112.94955 97.54677l0 0c0 -23.402267 18.97129 -42.37355 42.373558 -42.37355l169.48912 0l0 0c11.238159 0 22.016022 4.464344 29.962616 12.410927c7.946594 7.946579 12.410919 18.724464 12.410919 29.962624l0 170.18202c0 23.402283 -18.971283 42.373566 -42.373535 42.373566l-169.48912 0c-23.402267 0 -42.373558 -18.971283 -42.373558 -42.373566z" fill-rule="evenodd"/><path fill="#3c3c3c" d="m6.771654E-5 348.8015l0 0c0 -44.183655 35.817936 -80.00162 80.0016 -80.00162l319.9968 0l0 0c21.217743 0 41.566467 8.428741 56.56967 23.431946c15.003204 15.003204 23.431915 35.35193 23.431915 56.56967l0 319.99677c0 44.183716 -35.817932 80.00165 -80.00159 80.00165l-319.9968 0c-44.183666 0 -80.0016 -35.817932 -80.0016 -80.00165z" fill-rule="evenodd"/><path fill="#656565" d="m6.771654E-5 289.35577l0 0c0 -44.18367 35.817936 -80.00162 80.0016 -80.00162l319.9968 0l0 0c21.217743 0 41.566467 8.428726 56.56967 23.43193c15.003204 15.003204 23.431915 35.351944 23.431915 56.569687l0 319.99677c0 44.183655 -35.817932 80.00165 -80.00159 80.00165l-319.9968 0c-44.183666 0 -80.0016 -35.817993 -80.0016 -80.00165z" fill-rule="evenodd"/><path fill="#3c3c3c" d="m38.273468 314.8942l0 0c0 -37.150208 30.11621 -67.26643 67.26643 -67.26643l269.05768 0l0 0c17.840149 0 34.949646 7.086975 47.564545 19.701889c12.614899 12.614899 19.701874 29.724396 19.701874 47.564545l0 269.0892c0 37.150208 -30.11621 67.26642 -67.26642 67.26642l-269.05768 0l0 0c-37.150223 0 -67.26643 -30.11621 -67.26643 -67.26642z" fill-rule="evenodd"/><path fill="#9f9f9f" d="m76.54687 340.39066l0 0c0 -30.093597 24.395683 -54.48929 54.48928 -54.48929l217.95058 0l0 0c14.451447 0 28.311005 5.740814 38.529724 15.959534c10.2187195 10.2187195 15.959564 24.078278 15.959564 38.529755l0 217.95059c0 30.093567 -24.39569 54.489258 -54.48929 54.489258l-217.95058 0c-30.093597 0 -54.48928 -24.39569 -54.48928 -54.489258z" fill-rule="evenodd"/><path fill="#9f9f9f" d="m6.771654E-5 330.33984l38.047245 0l0 238.2362l-38.047245 0z" fill-rule="evenodd"/><path fill="#9f9f9f" d="m441.8138 330.33984l38.04724 0l0 238.2362l-38.04724 0z" fill-rule="evenodd"/><path fill="#656565" d="m38.273468 347.71066l38.04724 0l0 203.43307l-38.04724 0z" fill-rule="evenodd"/><path fill="#656565" d="m403.5404 347.71066l38.04724 0l0 203.43307l-38.04724 0z" fill-rule="evenodd"/><path fill="#cfcfcf" d="m112.849106 341.27548l0 0c0 -13.371063 10.839386 -24.21045 24.21045 -24.21045l205.81532 0c6.42099 0 12.579041 2.5507202 17.119354 7.0910645c4.540344 4.540344 7.091095 10.698364 7.091095 17.119385l0 96.83893c0 13.371063 -10.839386 24.21045 -24.21045 24.21045l-205.81532 0c-13.371063 0 -24.21045 -10.839386 -24.21045 -24.21045z" fill-rule="evenodd"/><path fill="#656565" d="m184.90604 374.8883l0 0c0 -10.13266 8.214142 -18.346832 18.346817 -18.346832l73.385086 0l0 0c4.8658752 0 9.532471 1.9329834 12.973175 5.3736877c3.4407043 3.4406738 5.373657 8.107269 5.373657 12.973145l0 82.67645c0 10.13266 -8.214142 18.346802 -18.346832 18.346802l-73.385086 0l0 0c-10.132675 0 -18.346817 -8.214142 -18.346817 -18.346802z" fill-rule="evenodd"/><path fill="#656565" d="m209.81503 436.9322l0 0c0 -5.5461426 4.496048 -10.042206 10.042191 -10.042206l40.167587 0l0 0c2.6633606 0 5.217621 1.0580139 7.100891 2.9413147c1.8832703 1.8832703 2.9412842 4.4375305 2.9412842 7.100891l0 89.99432c0 5.5462036 -4.4960327 10.042236 -10.042175 10.042236l-40.167587 0c-5.5461426 0 -10.042191 -4.4960327 -10.042191 -10.042236z" fill-rule="evenodd"/><path fill="#3c3c3c" d="m184.90604 366.4472l0 0c0 -5.470764 4.4349365 -9.905731 9.905701 -9.905731l90.267334 0c2.6271362 0 5.146698 1.0436401 7.0043945 2.9013367c1.857666 1.857666 2.9013062 4.377228 2.9013062 7.0043945l0 39.621643c0 5.470764 -4.4349365 9.905701 -9.905701 9.905701l-90.267334 0c-5.470764 0 -9.905701 -4.4349365 -9.905701 -9.905701z" fill-rule="evenodd"/><path fill="#656565" d="m112.94898 65.081245l0 0c0 -5.470768 4.4349365 -9.905708 9.905708 -9.905708l234.42479 0c2.6271667 0 5.1467285 1.0436363 7.0043945 2.9013176c1.8576965 1.8576813 2.9013367 4.3772354 2.9013367 7.0043907l0 39.62165c0 5.4707794 -4.4349365 9.905716 -9.905731 9.905716l-234.42479 0c-5.470772 0 -9.905708 -4.4349365 -9.905708 -9.905716z" fill-rule="evenodd"/></g></svg>