<svg version="1.1" viewBox="0.0 0.0 864.0 864.0" fill="none" stroke="none" stroke-linecap="square" stroke-miterlimit="10" xmlns:xlink="http://www.w3.org/1999/xlink" xmlns="http://www.w3.org/2000/svg"><clipPath id="g3ab3cf77d77_0_416.0"><path d="m0 0l864.0 0l0 864.0l-864.0 0l0 -864.0z" clip-rule="nonzero"/></clipPath><g clip-path="url(#g3ab3cf77d77_0_416.0)"><path fill="#e7f2ff" d="m1.7847768E-4 357.22903l0 0c0 -20.64804 16.738539 -37.386597 37.386574 -37.386597l149.54181 0l0 0c9.915543 0 19.424957 3.9389343 26.43631 10.950287c7.0113373 7.0113525 10.950272 16.520752 10.950272 26.43631l0 149.54181c0 20.64804 -16.73854 37.386566 -37.38658 37.386566l-149.54181 0c-20.648035 0 -37.386574 -16.738525 -37.386574 -37.386566z" fill-rule="evenodd"/><path fill="#f3f8fe" d="m29.393326 371.37115l0 0c0 -12.225861 9.911041 -22.136902 22.136925 -22.136902l88.54505 0l0 0c5.8710785 0 11.501694 2.3322754 15.653168 6.483734c4.151474 4.1514893 6.4837494 9.7821045 6.4837494 15.653168l0 88.545044c0 12.225891 -9.911041 22.136932 -22.136917 22.136932l-88.54505 0c-12.2258835 0 -22.136925 -9.911041 -22.136925 -22.136932z" fill-rule="evenodd"/><path fill="#e7f2ff" d="m319.84338 357.22903l0 0c0 -20.64804 16.738525 -37.386597 37.386566 -37.386597l149.54181 0l0 0c9.915558 0 19.424957 3.9389343 26.43631 10.950287c7.0113525 7.0113525 10.950256 16.520752 10.950256 26.43631l0 149.54181c0 20.64804 -16.738525 37.386566 -37.386566 37.386566l-149.54181 0c-20.64804 0 -37.386566 -16.738525 -37.386566 -37.386566z" fill-rule="evenodd"/><path fill="#f3f8fe" d="m349.2365 371.37115l0 0c0 -12.225861 9.911041 -22.136902 22.136932 -22.136902l88.545044 0l0 0c5.8710938 0 11.501678 2.3322754 15.653168 6.483734c4.1514893 4.1514893 6.4837646 9.7821045 6.4837646 15.653168l0 88.545044c0 12.225891 -9.911041 22.136932 -22.136932 22.136932l-88.545044 0c-12.225891 0 -22.136932 -9.911041 -22.136932 -22.136932z" fill-rule="evenodd"/><path fill="#e7f2ff" d="m639.6861 357.22903l0 0c0 -20.64804 16.738586 -37.386597 37.386597 -37.386597l149.54181 0l0 0c9.915527 0 19.424988 3.9389343 26.43628 10.950287c7.0113525 7.0113525 10.950317 16.520752 10.950317 26.43631l0 149.54181c0 20.64804 -16.738586 37.386566 -37.386597 37.386566l-149.54181 0c-20.64801 0 -37.386597 -16.738525 -37.386597 -37.386566z" fill-rule="evenodd"/><path fill="#f3f8fe" d="m669.0793 371.37115l0 0c0 -12.225861 9.911011 -22.136902 22.136902 -22.136902l88.545044 0l0 0c5.8710938 0 11.501709 2.3322754 15.653198 6.483734c4.1514893 4.1514893 6.4837646 9.7821045 6.4837646 15.653168l0 88.545044c0 12.225891 -9.911072 22.136932 -22.136963 22.136932l-88.545044 0c-12.225891 0 -22.136902 -9.911041 -22.136902 -22.136932z" fill-rule="evenodd"/></g></svg>