<svg version="1.1" viewBox="0.0 0.0 864.0 864.0" fill="none" stroke="none" stroke-linecap="square" stroke-miterlimit="10" xmlns:xlink="http://www.w3.org/1999/xlink" xmlns="http://www.w3.org/2000/svg"><clipPath id="g3ab3cf77d77_0_11.0"><path d="m0 0l864.0 0l0 864.0l-864.0 0l0 -864.0z" clip-rule="nonzero"/></clipPath><g clip-path="url(#g3ab3cf77d77_0_11.0)"><path fill="#fb5c4e" d="m309.88873 40.702785l0 0c0 -22.480322 18.223907 -40.704224 40.704254 -40.704224l162.81198 0l0 0c10.795471 0 21.148743 4.288469 28.782288 11.921991c7.633484 7.633523 11.921936 17.986801 11.921936 28.782234l0 449.3317c0 22.480347 -18.223877 40.704224 -40.704224 40.704224l-162.81198 0c-22.480347 0 -40.704254 -18.223877 -40.704254 -40.704224z" fill-rule="evenodd"/><path fill="#fb5c4e" d="m309.88873 660.4842l0 0c0 -22.480347 18.223907 -40.704224 40.704254 -40.704224l162.81198 0l0 0c10.795471 0 21.148743 4.288452 28.782288 11.921997c7.633484 7.633484 11.921936 17.986755 11.921936 28.782227l0 162.81201c0 22.480347 -18.223877 40.704224 -40.704224 40.704224l-162.81198 0c-22.480347 0 -40.704254 -18.223877 -40.704254 -40.704224z" fill-rule="evenodd"/><path fill="#f73d35" d="m309.88947 18.139471l0 0c0 -10.019603 8.122498 -18.142096 18.14209 -18.142096l72.56622 0l0 0c4.8115845 0 9.426086 1.9113938 12.8284 5.3136964c3.4022827 3.4023032 5.31369 8.016815 5.31369 12.8284l0 494.456c0 10.019592 -8.122498 18.14209 -18.14209 18.14209l-72.56622 0c-10.019592 0 -18.14209 -8.122498 -18.14209 -18.14209z" fill-rule="evenodd"/><path fill="#f73d35" d="m309.8895 637.92163l0 0c0 -10.019592 8.122498 -18.14209 18.14209 -18.14209l72.56619 0l0 0c4.8115845 0 9.426117 1.911377 12.8284 5.3136597c3.4023132 3.4023438 5.3137207 8.016846 5.3137207 12.82843l0 207.93628c0 10.019592 -8.122498 18.14209 -18.14212 18.14209l-72.56619 0c-10.019592 0 -18.14209 -8.122498 -18.14209 -18.14209z" fill-rule="evenodd"/><path fill="#fc8076" d="m460.7454 669.6354l0 0c0 -6.349182 5.1470947 -11.496277 11.496307 -11.496277l45.983765 0l0 0c3.0490112 0 5.9731445 1.2112427 8.12915 3.3671875c2.1559448 2.1560059 3.3671875 5.080078 3.3671875 8.129089l0 137.00745c0 6.349243 -5.1470947 11.496277 -11.496338 11.496277l-45.983765 0c-6.3492126 0 -11.496307 -5.1470337 -11.496307 -11.496277z" fill-rule="evenodd"/><path fill="#fc8076" d="m460.7454 67.309944l0 0c0 -6.3492317 5.1470947 -11.496296 11.496307 -11.496296l45.983765 0l0 0c3.0490112 0 5.9731445 1.2112122 8.12915 3.3671875c2.1559448 2.1559715 3.3671875 5.080097 3.3671875 8.129108l0 325.85782c0 6.3492126 -5.1470947 11.496277 -11.496338 11.496277l-45.983765 0c-6.3492126 0 -11.496307 -5.147064 -11.496307 -11.496277z" fill-rule="evenodd"/></g></svg>