<svg version="1.1" viewBox="0.0 0.0 864.0 864.0" fill="none" stroke="none" stroke-linecap="square" stroke-miterlimit="10" xmlns:xlink="http://www.w3.org/1999/xlink" xmlns="http://www.w3.org/2000/svg"><clipPath id="g3b0f21604c6_0_235.0"><path d="m0 0l864.0 0l0 864.0l-864.0 0l0 -864.0z" clip-rule="nonzero"/></clipPath><g clip-path="url(#g3b0f21604c6_0_235.0)"><path fill="#ffffff" d="m0 0l864.0 0l0 864.0l-864.0 0z" fill-rule="evenodd"/><path fill="#0c2969" d="m104.41969 273.77026l0 0c0 -53.664 43.50328 -97.1673 97.1673 -97.1673l460.815 0c25.770386 0 50.48529 10.237244 68.7077 28.459656c18.222351 18.222397 28.459595 42.937286 28.459595 68.70764l0 388.65753c0 53.664 -43.503235 97.1673 -97.1673 97.1673l-460.815 0c-53.664017 0 -97.1673 -43.503296 -97.1673 -97.1673z" fill-rule="evenodd"/><path fill="#2563eb" d="m104.41969 201.57257l0 0c0 -53.664017 43.50328 -97.167305 97.1673 -97.167305l460.815 0c25.770386 0 50.48529 10.237244 68.7077 28.459648c18.222351 18.222397 28.459595 42.937286 28.459595 68.70766l0 388.65753c0 53.664 -43.503235 97.1673 -97.1673 97.1673l-460.815 0c-53.664017 0 -97.1673 -43.503296 -97.1673 -97.1673z" fill-rule="evenodd"/><path fill="#0c2969" d="m156.66075 232.58627l0 0c0 -45.120102 36.577072 -81.697174 81.697174 -81.697174l387.5348 0c21.66748 0 42.44745 8.607361 57.768616 23.928558c15.321228 15.321182 23.928589 36.10118 23.928589 57.768616l0 326.7789c0 45.120117 -36.577087 81.69714 -81.697205 81.69714l-387.5348 0c-45.120102 0 -81.697174 -36.577026 -81.697174 -81.69714z" fill-rule="evenodd"/><path fill="#ffffff" d="m208.90181 263.54224l0 0c0 -36.544296 29.625015 -66.1693 66.1693 -66.1693l313.86615 0c17.549194 0 34.379578 6.97139 46.788757 19.380539c12.409119 12.409149 19.380554 29.239563 19.380554 46.788757l0 264.66925c0 36.54431 -29.625061 66.16931 -66.16931 66.16931l-313.86615 0c-36.54428 0 -66.1693 -29.625 -66.1693 -66.16931z" fill-rule="evenodd"/><path fill="#5e8ef7" d="m104.41969 251.3441l51.968506 0l0 289.3228l-51.968506 0z" fill-rule="evenodd"/><path fill="#5e8ef7" d="m707.4709 251.3441l51.968506 0l0 289.3228l-51.968506 0z" fill-rule="evenodd"/><path fill="#2563eb" d="m156.66075 272.44122l51.968506 0l0 247.08661l-51.968506 0z" fill-rule="evenodd"/><path fill="#2563eb" d="m655.22986 272.44122l51.968506 0l0 247.08661l-51.968506 0z" fill-rule="evenodd"/><defs><linearGradient id="g3b0f21604c6_0_235.1" gradientUnits="userSpaceOnUse" gradientTransform="matrix(26.036952099571312 0.0 0.0 26.036952099571312 0.0 0.0)" spreadMethod="pad" x1="8.02332340360787" y1="-3.209411541675337" x2="8.023228898309714" y2="22.82754055772447"><stop offset="0.0" stop-color="#ffffff" stop-opacity="0.0"/><stop offset="0.17" stop-color="#ffffff" stop-opacity="0.0"/><stop offset="1.0" stop-color="#ffffff"/></linearGradient></defs><path fill="url(#g3b0f21604c6_0_235.1)" d="m208.9029 -9.192739l0 0c0 -41.072834 33.296097 -74.368935 74.36893 -74.368935l297.46683 0l0 0c19.723877 0 38.639954 7.8352737 52.586792 21.782154c13.946899 13.946884 21.782166 32.862915 21.782166 52.586784l0 529.1834c0 41.072815 -33.29608 74.3689 -74.36896 74.3689l-297.46683 0c-41.07283 0 -74.36893 -33.29608 -74.36893 -74.3689z" fill-rule="evenodd"/></g></svg>