<svg version="1.1" viewBox="0.0 0.0 864.0 864.0" fill="none" stroke="none" stroke-linecap="square" stroke-miterlimit="10" xmlns:xlink="http://www.w3.org/1999/xlink" xmlns="http://www.w3.org/2000/svg"><clipPath id="g3b0f21604c6_0_248.0"><path d="m0 0l864.0 0l0 864.0l-864.0 0l0 -864.0z" clip-rule="nonzero"/></clipPath><g clip-path="url(#g3b0f21604c6_0_248.0)"><path fill="#161d25" d="m0 0l864.0 0l0 864.0l-864.0 0z" fill-rule="evenodd"/><path fill="#161d25" d="m52.173775 178.68819l0 0c0 -69.951675 56.70703 -126.65871 126.6587 -126.65871l506.61963 0l0 0c33.59198 0 65.808105 13.344357 89.56122 37.09747c23.753113 23.75312 37.097473 55.969254 37.097473 89.56123l0 506.61963c0 69.95166 -56.70703 126.65869 -126.65869 126.65869l-506.61963 0c-69.95167 0 -126.6587 -56.70703 -126.6587 -126.65869z" fill-rule="evenodd"/><path fill="#161d25" d="m52.173775 178.68819l0 0c0 -69.951675 56.70703 -126.65871 126.6587 -126.65871l506.61963 0l0 0c33.59198 0 65.808105 13.344357 89.56122 37.09747c23.753113 23.75312 37.097473 55.969254 37.097473 89.56123l0 506.61963c0 69.95166 -56.70703 126.65869 -126.65869 126.65869l-506.61963 0c-69.95167 0 -126.6587 -56.70703 -126.6587 -126.65869z" fill-rule="evenodd"/><path fill="#0c2969" d="m104.41969 273.77026l0 0c0 -53.664 43.50328 -97.1673 97.1673 -97.1673l460.815 0c25.770386 0 50.48529 10.237244 68.7077 28.459656c18.222351 18.222397 28.459595 42.937286 28.459595 68.70764l0 388.65753c0 53.664 -43.503235 97.1673 -97.1673 97.1673l-460.815 0c-53.664017 0 -97.1673 -43.503296 -97.1673 -97.1673z" fill-rule="evenodd"/><path fill="#2563eb" d="m104.41969 273.77203l0 0c0 -53.664 43.50328 -97.16728 97.1673 -97.16728l460.815 0c25.770386 0 50.48529 10.237228 68.7077 28.45964c18.222351 18.222397 28.459595 42.937286 28.459595 68.70764l0 388.65753c0 53.664 -43.503235 97.1673 -97.1673 97.1673l-460.815 0c-53.664017 0 -97.1673 -43.503296 -97.1673 -97.1673z" fill-rule="evenodd"/><path fill="#0c2969" d="m156.66075 304.78574l0 0c0 -45.120087 36.577072 -81.69716 81.697174 -81.69716l387.5348 0c21.66748 0 42.44745 8.607361 57.768616 23.928543c15.321228 15.3211975 23.928589 36.101196 23.928589 57.768616l0 326.7789c0 45.120117 -36.577087 81.69714 -81.697205 81.69714l-387.5348 0c-45.120102 0 -81.697174 -36.577026 -81.697174 -81.69714z" fill-rule="evenodd"/><path fill="#ffffff" d="m208.90181 335.7417l0 0c0 -36.54428 29.625015 -66.16928 66.1693 -66.16928l313.86615 0c17.549194 0 34.379578 6.9713745 46.788757 19.380524c12.409119 12.409149 19.380554 29.239594 19.380554 46.788757l0 264.6693c0 36.54425 -29.625061 66.16925 -66.16931 66.16925l-313.86615 0c-36.54428 0 -66.1693 -29.625 -66.1693 -66.16925z" fill-rule="evenodd"/><path fill="#5e8ef7" d="m104.41969 323.54358l51.968506 0l0 289.3228l-51.968506 0z" fill-rule="evenodd"/><path fill="#5e8ef7" d="m707.4709 323.54358l51.968506 0l0 289.3228l-51.968506 0z" fill-rule="evenodd"/><path fill="#2563eb" d="m156.66075 344.6407l51.968506 0l0 247.08661l-51.968506 0z" fill-rule="evenodd"/><path fill="#2563eb" d="m655.22986 344.6407l51.968506 0l0 247.08661l-51.968506 0z" fill-rule="evenodd"/><defs><linearGradient id="g3b0f21604c6_0_248.1" gradientUnits="userSpaceOnUse" gradientTransform="matrix(26.036952099571312 0.0 0.0 26.036952099571312 0.0 0.0)" spreadMethod="pad" x1="8.020400039718226" y1="-0.43564323865902665" x2="8.020305534420068" y2="25.60130886074078"><stop offset="0.0" stop-color="#ffffff" stop-opacity="0.0"/><stop offset="0.17" stop-color="#ffffff" stop-opacity="0.0"/><stop offset="1.0" stop-color="#ffffff"/></linearGradient></defs><path fill="url(#g3b0f21604c6_0_248.1)" d="m208.82677 63.027733l0 0c0 -41.07283 33.296112 -74.36894 74.36894 -74.36894l297.46683 0l0 0c19.723877 0 38.639893 7.8352766 52.586792 21.782158c13.946899 13.946881 21.782166 32.86291 21.782166 52.58678l0 529.1834c0 41.072815 -33.29608 74.36896 -74.36896 74.36896l-297.46683 0c-41.07283 0 -74.36894 -33.296143 -74.36894 -74.36896z" fill-rule="evenodd"/></g></svg>