<svg version="1.1" viewBox="0.0 0.0 960.0 540.0" fill="none" stroke="none" stroke-linecap="square" stroke-miterlimit="10" xmlns:xlink="http://www.w3.org/1999/xlink" xmlns="http://www.w3.org/2000/svg"><clipPath id="p.0"><path d="m0 0l960.0 0l0 540.0l-960.0 0l0 -540.0z" clip-rule="nonzero"/></clipPath><g clip-path="url(#p.0)"><path fill="#2563eb" d="m0 0l960.0 0l0 540.0l-960.0 0z" fill-rule="evenodd"/><path fill="#9a4600" d="m290.40692 208.59851l0 0c0 -2.1772919 1.7650452 -3.942337 3.9423523 -3.942337l15.76886 0l0 0c1.0455627 0 2.0483398 0.41534424 2.7876587 1.1546783c0.73931885 0.7393341 1.1546936 1.7420807 1.1546936 2.7876587l0 19.485397c0 2.1772919 -1.7650452 3.942337 -3.9423523 3.942337l-15.76886 0c-2.1773071 0 -3.9423523 -1.7650452 -3.9423523 -3.942337z" fill-rule="evenodd"/><path fill="#f73d35" d="m277.89185 288.12964l0 0c0 -4.482147 3.6335144 -8.115631 8.115662 -8.115631l32.46161 0l0 0c2.1524048 0 4.2166443 0.8550415 5.738617 2.3770142c1.5220032 1.5219727 2.3770447 3.5862122 2.3770447 5.738617l0 38.88681c0 4.482147 -3.6335144 8.115662 -8.115662 8.115662l-32.46161 0c-4.482147 0 -8.115662 -3.6335144 -8.115662 -8.115662z" fill-rule="evenodd"/><path fill="#f73d35" d="m249.18394 283.32886l0 0c0 -4.0791626 3.3068237 -7.385956 7.385971 -7.385956l29.54303 0l0 0c1.9588623 0 3.8375244 0.7781677 5.2226562 2.1632996c1.3851318 1.3851318 2.1632996 3.263794 2.1632996 5.2226562l0 59.023346c0 4.0791626 -3.3067932 7.385956 -7.385956 7.385956l-29.54303 0c-4.0791473 0 -7.385971 -3.3067932 -7.385971 -7.385956z" fill-rule="evenodd"/><path fill="#f73d35" d="m306.52972 283.32886l0 0c0 -4.0791626 3.3067932 -7.385956 7.385956 -7.385956l29.54303 0l0 0c1.9588623 0 3.8375244 0.7781677 5.2226562 2.1632996c1.3851318 1.3851318 2.1632996 3.263794 2.1632996 5.2226562l0 59.023346c0 4.0791626 -3.3067932 7.385956 -7.385956 7.385956l-29.54303 0c-4.0791626 0 -7.385956 -3.3067932 -7.385956 -7.385956z" fill-rule="evenodd"/><path fill="#f73d35" d="m235.8412 235.37395l0 0c0 -5.464966 4.430237 -9.895203 9.895218 -9.895203l112.99698 0c2.6243591 0 5.141266 1.0425262 6.9969788 2.8982391c1.8557129 1.8557129 2.8982239 4.372589 2.8982239 6.9969635l0 39.579666c0 5.464966 -4.430237 9.895203 -9.895203 9.895203l-112.99698 0l0 0c-5.464981 0 -9.895218 -4.430237 -9.895218 -9.895203z" fill-rule="evenodd"/><path fill="#fc8076" d="m257.85434 242.8531l0 0c0 -2.1772919 1.7650452 -3.942337 3.9423218 -3.942337l15.76886 0l0 0c1.0455933 0 2.0483398 0.41534424 2.7876587 1.1546783c0.73934937 0.7393341 1.1546936 1.7420807 1.1546936 2.7876587l0 55.04445c0 2.1773071 -1.7650452 3.9423523 -3.9423523 3.9423523l-15.76886 0c-2.1772766 0 -3.9423218 -1.7650452 -3.9423218 -3.9423523z" fill-rule="evenodd"/><path fill="#e03027" d="m350.8304 266.6649l0 0c0 -1.638031 1.3279114 -2.9659424 2.9659424 -2.9659424l11.863403 0l0 0c0.7866211 0 1.5410156 0.31246948 2.097229 0.8687134c0.5562134 0.5562134 0.8687134 1.3106079 0.8687134 2.097229l0 15.201965c0 1.6380615 -1.3279114 2.9659424 -2.9659424 2.9659424l-11.863403 0c-1.638031 0 -2.9659424 -1.3278809 -2.9659424 -2.9659424z" fill-rule="evenodd"/><path fill="#e03027" d="m329.81235 288.33615l0 0c0 -1.9337463 1.5675964 -3.5013733 3.5013733 -3.5013733l14.005096 0l0 0c0.9286499 0 1.8192139 0.36889648 2.4758606 1.0255432c0.6566467 0.6566162 1.0255432 1.5472107 1.0255432 2.47583l0 57.910645c0 1.9337463 -1.567627 3.5013733 -3.5014038 3.5013733l-14.005096 0c-1.9337769 0 -3.5013733 -1.567627 -3.5013733 -3.5013733z" fill-rule="evenodd"/><path fill="#51de18" d="m290.40817 193.37015l0 0c0 -1.7221222 1.3960571 -3.1181793 3.118164 -3.1181793l67.905396 0c0.82699585 0 1.6201172 0.32852173 2.2048645 0.9132843c0.58477783 0.58477783 0.91329956 1.3778992 0.91329956 2.204895l0 12.472305c0 1.7221222 -1.3960571 3.1181793 -3.118164 3.1181793l-67.905396 0c-1.7221069 0 -3.118164 -1.3960571 -3.118164 -3.1181793z" fill-rule="evenodd"/><path fill="#35ad05" d="m290.40814 202.01843l0 0c0 -1.7221222 1.3960571 -3.118164 3.118164 -3.118164l67.905396 0c0.82699585 0 1.6201172 0.32852173 2.2048645 0.9132843c0.58477783 0.58477783 0.91329956 1.3778839 0.91329956 2.2048798l0 12.472321c0 1.7221222 -1.3960571 3.118164 -3.118164 3.118164l-67.905396 0c-1.7221069 0 -3.118164 -1.3960419 -3.118164 -3.118164z" fill-rule="evenodd"/><path fill="#fc8076" d="m257.85434 310.2237l0 0c0 -1.5249634 1.2362366 -2.7612 2.7612 -2.7612l18.131134 0c0.7322998 0 1.4346313 0.29089355 1.9524536 0.80874634c0.51782227 0.51782227 0.80874634 1.2201233 0.80874634 1.9524536l0 11.044525c0 1.5249634 -1.2362366 2.7612 -2.7612 2.7612l-18.131134 0c-1.5249634 0 -2.7612 -1.2362366 -2.7612 -2.7612z" fill-rule="evenodd"/><path fill="#000000" fill-opacity="0.0" d="m400.6299 195.6693l355.52756 0l0 148.66142l-355.52756 0z" fill-rule="evenodd"/><path fill="#ffffff" d="m435.33304 256.72867q-7.09375 0 -12.453125 -2.609375q-5.359375 -2.625 -8.328125 -7.3125q-2.953125 -4.703125 -2.953125 -10.9375q0 -6.234375 2.953125 -10.921875q2.96875 -4.703125 8.328125 -7.3125q5.359375 -2.609375 12.453125 -2.609375q7.140625 0 12.46875 2.609375q5.34375 2.609375 8.328125 7.3125q2.984375 4.6875 2.984375 10.921875q0 6.234375 -2.984375 10.9375q-2.984375 4.6875 -8.328125 7.3125q-5.328125 2.609375 -12.46875 2.609375zm0 -9.875q3.890625 0 6.71875 -1.328125q2.828125 -1.328125 4.34375 -3.78125q1.53125 -2.453125 1.53125 -5.875q0 -3.40625 -1.53125 -5.859375q-1.515625 -2.453125 -4.34375 -3.78125q-2.828125 -1.34375 -6.71875 -1.34375q-3.84375 0 -6.671875 1.34375q-2.8125 1.328125 -4.359375 3.78125q-1.546875 2.453125 -1.546875 5.859375q0 3.421875 1.546875 5.875q1.546875 2.453125 4.359375 3.78125q2.828125 1.328125 6.671875 1.328125zm41.707825 9.875q-4.265625 0 -7.28125 -1.765625q-3.015625 -1.765625 -4.625 -4.984375q-1.59375 -3.234375 -1.59375 -7.546875l0 -17.015625l10.875 0l0 15.46875q0 3.359375 1.65625 5.171875q1.65625 1.8125 4.75 1.8125q2.296875 0 3.84375 -0.921875q1.546875 -0.9375 2.390625 -2.703125q0.859375 -1.765625 0.859375 -4.21875l3.359375 1.765625q-0.59375 4.859375 -2.640625 8.1875q-2.046875 3.328125 -5.046875 5.046875q-2.984375 1.703125 -6.546875 1.703125zm12.84375 -0.859375l-1.96875 -12.21875l0 -18.234375l10.875 0l0 19.953125l1.984375 10.5l-10.890625 0zm14.029633 -30.453125l11.09375 0l1.8125 10.875l0 19.578125l-10.875 0l0 -20.21875l-2.03125 -10.234375zm27.203125 -0.484375l0 9.28125q-1.609375 -0.3125 -3.03125 -0.4375q-1.40625 -0.140625 -2.578125 -0.140625q-2.34375 0 -4.3125 0.9375q-1.96875 0.921875 -3.171875 3.0625q-1.203125 2.125 -1.203125 5.703125l-2.078125 -2.5625q0.421875 -3.296875 1.265625 -6.203125q0.859375 -2.90625 2.328125 -5.171875q1.46875 -2.28125 3.65625 -3.578125q2.1875 -1.3125 5.328125 -1.3125q0.90625 0 1.859375 0.109375q0.96875 0.109375 1.9375 0.3125z" fill-rule="nonzero"/><path fill="#ffffff" d="m457.78616 303.1193q-0.59375 5.28125 -3.640625 9.265625q-3.03125 3.96875 -7.96875 6.15625q-4.921875 2.1875 -11.328125 2.1875q-6.984375 0 -12.21875 -2.609375q-5.21875 -2.625 -8.125 -7.3125q-2.90625 -4.703125 -2.90625 -10.9375q0 -6.234375 2.90625 -10.921875q2.90625 -4.703125 8.125 -7.3125q5.234375 -2.609375 12.21875 -2.609375q6.40625 0 11.328125 2.1875q4.9375 2.1875 7.96875 6.15625q3.046875 3.96875 3.640625 9.25l-11.09375 0q-0.53125 -2.5625 -2.078125 -4.34375q-1.546875 -1.796875 -4.03125 -2.75q-2.46875 -0.953125 -5.734375 -0.953125q-3.734375 0 -6.453125 1.359375q-2.71875 1.359375 -4.15625 3.890625q-1.4375 2.53125 -1.4375 6.046875q0 3.515625 1.4375 6.0625q1.4375 2.53125 4.15625 3.890625q2.71875 1.359375 6.453125 1.359375q3.265625 0 5.734375 -0.90625q2.484375 -0.90625 4.03125 -2.71875q1.546875 -1.8125 2.078125 -4.4375l11.09375 0zm22.617126 17.609375q-5.875 0 -10.25 -2.0q-4.375 -2.0 -6.828125 -5.65625q-2.453125 -3.65625 -2.453125 -8.40625q0 -4.84375 2.453125 -8.46875q2.453125 -3.625 6.828125 -5.65625q4.375 -2.03125 10.25 -2.03125q5.8125 0 10.203125 2.03125q4.40625 2.03125 6.859375 5.65625q2.453125 3.625 2.453125 8.46875q0 4.75 -2.453125 8.40625q-2.453125 3.65625 -6.859375 5.65625q-4.390625 2.0 -10.203125 2.0zm0 -8.0625q2.65625 0 4.546875 -0.953125q1.90625 -0.96875 2.90625 -2.78125q1.015625 -1.8125 1.015625 -4.265625q0 -2.5625 -1.015625 -4.34375q-1.0 -1.78125 -2.90625 -2.734375q-1.890625 -0.96875 -4.546875 -0.96875q-2.671875 0 -4.59375 0.96875q-1.921875 0.953125 -2.9375 2.734375q-1.015625 1.78125 -1.015625 4.296875q0 2.5 1.015625 4.3125q1.015625 1.8125 2.9375 2.78125q1.921875 0.953125 4.59375 0.953125zm22.444366 -23.25l10.9375 0l1.96875 12.15625l0 18.296875l-10.875 0l0 -19.9375l-2.03125 -10.515625zm23.40625 -0.90625q4.21875 0 7.140625 1.765625q2.9375 1.75 4.484375 4.953125q1.546875 3.203125 1.546875 7.578125l0 17.0625l-10.875 0l0 -15.46875q0 -3.40625 -1.546875 -5.21875q-1.546875 -1.8125 -4.484375 -1.8125q-2.078125 0 -3.59375 0.96875q-1.515625 0.953125 -2.34375 2.71875q-0.828125 1.75 -0.828125 4.140625l-3.359375 -1.75q0.640625 -4.859375 2.609375 -8.1875q1.96875 -3.328125 4.875 -5.03125q2.90625 -1.71875 6.375 -1.71875zm23.625 0q4.21875 0 7.171875 1.765625q2.96875 1.75 4.515625 4.953125q1.546875 3.203125 1.546875 7.578125l0 17.0625l-10.890625 0l0 -15.46875q0 -3.40625 -1.546875 -5.21875q-1.546875 -1.8125 -4.46875 -1.8125q-2.078125 0 -3.609375 0.96875q-1.515625 0.953125 -2.34375 2.71875q-0.828125 1.75 -0.828125 4.140625l-3.359375 -1.75q0.640625 -4.859375 2.578125 -8.1875q1.953125 -3.328125 4.890625 -5.03125q2.9375 -1.71875 6.34375 -1.71875zm18.826538 0.90625l10.9375 0l0 8.75l-0.484375 1.28125l0 8.53125l0.484375 2.5l0 18.1875l-10.9375 0l0 -39.25zm7.46875 15.25q0.6875 -4.953125 2.90625 -8.546875q2.21875 -3.609375 5.625 -5.609375q3.40625 -2.0 7.734375 -2.0q4.484375 0 7.859375 2.03125q3.390625 2.03125 5.28125 5.65625q1.890625 3.625 1.890625 8.46875q0 4.75 -1.890625 8.40625q-1.890625 3.65625 -5.28125 5.65625q-3.375 2.0 -7.859375 2.0q-4.328125 0 -7.734375 -2.0q-3.40625 -2.0 -5.59375 -5.625q-2.1875 -3.640625 -2.9375 -8.4375zm20.3125 0q0 -2.28125 -0.9375 -4.046875q-0.921875 -1.765625 -2.609375 -2.765625q-1.671875 -1.015625 -3.8125 -1.015625q-2.1875 0 -4.15625 1.015625q-1.96875 1.0 -3.46875 2.765625q-1.484375 1.765625 -2.296875 4.046875q0.8125 2.25 2.296875 4.015625q1.5 1.75 3.46875 2.734375q1.96875 0.984375 4.15625 0.984375q2.140625 0 3.8125 -0.984375q1.6875 -0.984375 2.609375 -2.734375q0.9375 -1.765625 0.9375 -4.015625zm43.196716 15.203125l-1.390625 -10.984375l1.453125 -4.21875l-1.453125 -4.203125l1.390625 -11.046875l11.3125 0l-1.921875 15.203125l1.921875 15.25l-11.3125 0zm2.5625 -15.203125q-0.75 4.796875 -2.96875 8.4375q-2.203125 3.625 -5.59375 5.625q-3.375 2.0 -7.703125 2.0q-4.484375 0 -7.875 -2.0q-3.375 -2.0 -5.296875 -5.65625q-1.921875 -3.65625 -1.921875 -8.40625q0 -4.84375 1.921875 -8.46875q1.921875 -3.625 5.296875 -5.65625q3.390625 -2.03125 7.875 -2.03125q4.328125 0 7.703125 2.0q3.390625 2.0 5.625 5.609375q2.25 3.59375 2.9375 8.546875zm-20.3125 0q0 2.25 0.921875 4.015625q0.9375 1.75 2.59375 2.734375q1.65625 0.984375 3.78125 0.984375q2.25 0 4.21875 -0.984375q1.96875 -0.984375 3.453125 -2.734375q1.5 -1.765625 2.25 -4.015625q-0.75 -2.28125 -2.25 -4.046875q-1.484375 -1.765625 -3.453125 -2.765625q-1.96875 -1.015625 -4.21875 -1.015625q-2.125 0 -3.78125 1.015625q-1.65625 1.0 -2.59375 2.765625q-0.921875 1.765625 -0.921875 4.046875zm32.845825 -15.25l10.9375 0l1.96875 12.15625l0 18.296875l-10.875 0l0 -19.9375l-2.03125 -10.515625zm24.109375 -0.90625q4.375 0 7.453125 1.765625q3.09375 1.75 4.71875 4.953125q1.640625 3.203125 1.640625 7.578125l0 17.0625l-10.890625 0l0 -15.46875q0 -3.40625 -1.734375 -5.21875q-1.71875 -1.8125 -4.984375 -1.8125q-2.234375 0 -3.921875 0.96875q-1.671875 0.953125 -2.578125 2.71875q-0.90625 1.75 -0.90625 4.140625l-3.359375 -1.75q0.640625 -4.859375 2.71875 -8.1875q2.078125 -3.328125 5.109375 -5.03125q3.046875 -1.71875 6.734375 -1.71875zm28.155212 41.015625q-3.359375 0 -5.984375 -0.828125q-2.609375 -0.828125 -5.0625 -2.53125l0 -7.578125q2.515625 1.59375 4.703125 2.28125q2.1875 0.703125 4.796875 0.703125q2.1875 0 3.890625 -0.96875q1.703125 -0.953125 2.765625 -3.5l11.6875 -27.6875l11.5625 0l-14.609375 31.046875q-1.546875 3.359375 -3.765625 5.359375q-2.203125 2.0 -4.765625 2.84375q-2.5625 0.859375 -5.21875 0.859375zm0.375 -12.484375l-12.96875 -27.625l12.0 0l11.46875 27.625l-10.5 0z" fill-rule="nonzero"/></g></svg>