<svg version="1.1" viewBox="0.0 0.0 288.0 384.0" fill="none" stroke="none" stroke-linecap="square" stroke-miterlimit="10" xmlns:xlink="http://www.w3.org/1999/xlink" xmlns="http://www.w3.org/2000/svg"><clipPath id="g3b18a6c779a_0_2825.0"><path d="m0 0l288.0 0l0 384.0l-288.0 0l0 -384.0z" clip-rule="nonzero"/></clipPath><g clip-path="url(#g3b18a6c779a_0_2825.0)"><path fill="#161d25" d="m0 0l288.0 0l0 384.0l-288.0 0z" fill-rule="evenodd"/><path fill="#3b4652" d="m5.7007875 34.135216l0 0c0 -9.966135 8.079147 -18.045282 18.04528 -18.045282l240.50787 0c4.7858887 0 9.375793 1.9011936 12.759949 5.2853394c3.3841248 3.3841476 5.2853394 7.9740353 5.2853394 12.759943l0 324.2244c0 9.9661255 -8.079163 18.045288 -18.045288 18.045288l-240.50787 0l0 0c-9.966134 0 -18.04528 -8.079163 -18.04528 -18.045288z" fill-rule="evenodd"/><path stroke="#3b4652" stroke-width="4.0" stroke-linejoin="round" stroke-linecap="butt" d="m5.7007875 34.135216l0 0c0 -9.966135 8.079147 -18.045282 18.04528 -18.045282l240.50787 0c4.7858887 0 9.375793 1.9011936 12.759949 5.2853394c3.3841248 3.3841476 5.2853394 7.9740353 5.2853394 12.759943l0 324.2244c0 9.9661255 -8.079163 18.045288 -18.045288 18.045288l-240.50787 0l0 0c-9.966134 0 -18.04528 -8.079163 -18.04528 -18.045288z" fill-rule="evenodd"/><path fill="#161d25" d="m5.7007875 25.639769l0 0c0 -9.966133 8.079147 -18.04528 18.04528 -18.04528l240.50787 0c4.7858887 0 9.375793 1.9011936 12.759949 5.2853403c3.3841248 3.3841467 5.2853394 7.9740343 5.2853394 12.75994l0 324.2244c0 9.9661255 -8.079163 18.045288 -18.045288 18.045288l-240.50787 0l0 0c-9.966134 0 -18.04528 -8.079163 -18.04528 -18.045288z" fill-rule="evenodd"/><path stroke="#3b4652" stroke-width="4.0" stroke-linejoin="round" stroke-linecap="butt" d="m5.7007875 25.639769l0 0c0 -9.966133 8.079147 -18.04528 18.04528 -18.04528l240.50787 0c4.7858887 0 9.375793 1.9011936 12.759949 5.2853403c3.3841248 3.3841467 5.2853394 7.9740343 5.2853394 12.75994l0 324.2244c0 9.9661255 -8.079163 18.045288 -18.045288 18.045288l-240.50787 0l0 0c-9.966134 0 -18.04528 -8.079163 -18.04528 -18.045288z" fill-rule="evenodd"/><path fill="#000000" fill-opacity="0.0" d="m21.700787 315.7533l266.29922 0l0 38.771637l-266.29922 0z" fill-rule="evenodd"/><path fill="#ffffff" d="m34.15391 337.8164l0 -2.671875l8.28125 0l0 2.671875l-8.28125 0zm6.390625 -9.703125l5.453125 12.0l-3.53125 0l-4.578125 -10.59375l0.953125 0l-4.59375 10.59375l-3.53125 0l5.453125 -12.0l4.375 0zm6.358902 2.859375l3.28125 0l0 2.625l-0.140625 0.390625l0 2.5625l0.140625 0.75l0 5.453125l-3.28125 0l0 -11.78125zm2.25 4.578125q0.203125 -1.484375 0.859375 -2.5625q0.671875 -1.078125 1.6875 -1.671875q1.03125 -0.609375 2.328125 -0.609375q1.34375 0 2.359375 0.609375q1.015625 0.609375 1.578125 1.703125q0.578125 1.078125 0.578125 2.53125q0 1.421875 -0.578125 2.53125q-0.5625 1.09375 -1.578125 1.6875q-1.015625 0.59375 -2.359375 0.59375q-1.296875 0 -2.328125 -0.59375q-1.015625 -0.59375 -1.671875 -1.6875q-0.65625 -1.09375 -0.875 -2.53125zm6.09375 0q0 -0.6875 -0.28125 -1.203125q-0.28125 -0.53125 -0.796875 -0.828125q-0.5 -0.3125 -1.125 -0.3125q-0.65625 0 -1.25 0.3125q-0.59375 0.296875 -1.046875 0.828125q-0.453125 0.515625 -0.6875 1.203125q0.234375 0.671875 0.6875 1.203125q0.453125 0.53125 1.046875 0.828125q0.59375 0.296875 1.25 0.296875q0.625 0 1.125 -0.296875q0.515625 -0.296875 0.796875 -0.828125q0.28125 -0.53125 0.28125 -1.203125zm4.696274 -4.578125l3.28125 0l0 2.625l-0.140625 0.390625l0 2.5625l0.140625 0.75l0 5.453125l-3.28125 0l0 -11.78125zm2.25 4.578125q0.203125 -1.484375 0.859375 -2.5625q0.671875 -1.078125 1.6875038 -1.671875q1.03125 -0.609375 2.328125 -0.609375q1.34375 0 2.359375 0.609375q1.015625 0.609375 1.578125 1.703125q0.578125 1.078125 0.578125 2.53125q0 1.421875 -0.578125 2.53125q-0.5625 1.09375 -1.578125 1.6875q-1.015625 0.59375 -2.359375 0.59375q-1.296875 0 -2.328125 -0.59375q-1.0156288 -0.59375 -1.6718788 -1.6875q-0.65625 -1.09375 -0.875 -2.53125zm6.093754 0q0 -0.6875 -0.28125 -1.203125q-0.28125 -0.53125 -0.796875 -0.828125q-0.5 -0.3125 -1.125 -0.3125q-0.65625 0 -1.25 0.3125q-0.59375 0.296875 -1.0468788 0.828125q-0.453125 0.515625 -0.6875 1.203125q0.234375 0.671875 0.6875 1.203125q0.4531288 0.53125 1.0468788 0.828125q0.59375 0.296875 1.25 0.296875q0.625 0 1.125 -0.296875q0.515625 -0.296875 0.796875 -0.828125q0.28125 -0.53125 0.28125 -1.203125zm4.696274 -7.75l3.28125 0l0 12.3125l-3.28125 0l0 -12.3125zm10.431381 12.5625q-1.65625 0 -2.96875 -0.59375q-1.296875 -0.609375 -2.046875 -1.703125q-0.75 -1.109375 -0.75 -2.5625q0 -1.421875 0.71875 -2.5q0.71875 -1.078125 1.96875 -1.6875q1.265625 -0.609375 2.84375 -0.609375q1.640625 0 2.796875 0.71875q1.171875 0.703125 1.796875 2.0q0.640625 1.296875 0.640625 3.0625l-8.125 0l0 -1.96875l6.28125 0l-1.0625 0.6875q-0.078125 -0.703125 -0.359375 -1.1875q-0.28125 -0.5 -0.765625 -0.75q-0.46875 -0.265625 -1.125 -0.265625q-0.71875 0 -1.234375 0.296875q-0.5 0.28125 -0.796875 0.796875q-0.28125 0.5 -0.28125 1.171875q0 0.859375 0.390625 1.46875q0.390625 0.59375 1.140625 0.921875q0.765625 0.3125 1.875 0.3125q1.0 0 2.0 -0.265625q1.0 -0.265625 1.828125 -0.75l0 2.078125q-0.953125 0.640625 -2.171875 0.984375q-1.203125 0.34375 -2.59375 0.34375z" fill-rule="nonzero"/><path fill="#ffffff" d="m97.29219 336.95703q0 -0.84375 0.171875 -1.765625q0.171875 -0.921875 0.46875 -1.78125q0.3125 -0.875 0.703125 -1.515625l0.859375 0q-0.40625 0.8125 -0.703125 1.703125q-0.296875 0.875 -0.453125 1.75q-0.15625 0.859375 -0.15625 1.609375q0 0.671875 0.140625 1.390625q0.140625 0.703125 0.421875 1.5q0.296875 0.78125 0.75 1.71875l-0.859375 0q-0.671875 -1.125 -1.015625 -2.296875q-0.328125 -1.171875 -0.328125 -2.3125z" fill-rule="nonzero"/><path fill="#ffffff" d="m104.36461 340.22266q-0.546875 0 -0.984375 -0.1875q-0.4375 -0.203125 -0.6875 -0.578125q-0.25 -0.390625 -0.25 -0.96875q0 -0.484375 0.171875 -0.8125q0.171875 -0.328125 0.484375 -0.53125q0.3125 -0.203125 0.703125 -0.296875q0.390625 -0.109375 0.828125 -0.15625q0.5 -0.046875 0.796875 -0.09375q0.3125 -0.046875 0.453125 -0.140625q0.140625 -0.09375 0.140625 -0.28125l0 -0.015625q0 -0.359375 -0.234375 -0.5625q-0.21875 -0.203125 -0.625 -0.203125q-0.421875 0 -0.6875 0.203125q-0.25 0.1875 -0.34375 0.46875l-1.484375 -0.109375q0.109375 -0.53125 0.4375 -0.921875q0.34375 -0.390625 0.859375 -0.59375q0.53125 -0.21875 1.234375 -0.21875q0.484375 0 0.921875 0.125q0.4375 0.109375 0.78125 0.34375q0.359375 0.234375 0.5625 0.609375q0.203125 0.375 0.203125 0.890625l0 3.921875l-1.546875 0l0 -0.8125l-0.03125 0q-0.140625 0.28125 -0.375 0.484375q-0.234375 0.203125 -0.5625 0.328125q-0.328125 0.109375 -0.765625 0.109375zm0.46875 -1.109375q0.34375 0 0.609375 -0.140625q0.28125 -0.15625 0.4375 -0.390625q0.15625 -0.25 0.15625 -0.546875l0 -0.609375q-0.078125 0.03125 -0.21875 0.078125q-0.125 0.046875 -0.28125 0.078125q-0.15625 0.03125 -0.328125 0.0625q-0.15625 0.015625 -0.28125 0.03125q-0.28125 0.046875 -0.5 0.140625q-0.21875 0.078125 -0.34375 0.234375q-0.109375 0.15625 -0.109375 0.390625q0 0.328125 0.234375 0.5q0.25 0.171875 0.625 0.171875z" fill-rule="nonzero"/><path fill="#ffffff" d="m113.35643 338.6914q-0.453125 0 -0.84375 -0.21875q-0.375 -0.234375 -0.609375 -0.609375q-0.21875 -0.390625 -0.21875 -0.84375q0 -0.453125 0.21875 -0.828125q0.234375 -0.390625 0.609375 -0.609375q0.390625 -0.21875 0.84375 -0.21875q0.453125 0 0.828125 0.21875q0.390625 0.21875 0.609375 0.609375q0.21875 0.375 0.21875 0.828125q0 0.453125 -0.21875 0.84375q-0.21875 0.375 -0.609375 0.609375q-0.375 0.21875 -0.828125 0.21875zm5.320801 3.59375l0 -7.984375l0.84375 0l0 0.921875l0.109375 0q0.09375 -0.15625 0.265625 -0.390625q0.1875 -0.234375 0.515625 -0.421875q0.34375 -0.1875 0.90625 -0.1875q0.734375 0 1.28125 0.375q0.5625 0.359375 0.875 1.03125q0.3125 0.671875 0.3125 1.59375q0 0.921875 -0.3125 1.609375q-0.3125 0.671875 -0.875 1.046875q-0.546875 0.359375 -1.28125 0.359375q-0.546875 0 -0.890625 -0.1875q-0.328125 -0.1875 -0.515625 -0.421875q-0.1875 -0.25 -0.28125 -0.40625l-0.078125 0l0 3.0625l-0.875 0zm2.53125 -2.84375q0.5625 0 0.9375 -0.296875q0.375 -0.3125 0.5625 -0.8125q0.1875 -0.5 0.1875 -1.125q0 -0.609375 -0.1875 -1.09375q-0.1875 -0.5 -0.5625 -0.796875q-0.375 -0.296875 -0.9375 -0.296875q-0.546875 0 -0.921875 0.28125q-0.359375 0.265625 -0.546875 0.765625q-0.1875 0.484375 -0.1875 1.140625q0 0.65625 0.1875 1.15625q0.1875 0.5 0.5625 0.796875q0.375 0.28125 0.90625 0.28125zm4.327484 -7.078125l0 7.75l-0.875 0l0 -7.75l0.875 0zm3.3237 9.203125q0.453125 -0.9375 0.734375 -1.71875q0.296875 -0.796875 0.4375 -1.5q0.140625 -0.71875 0.140625 -1.390625q0 -0.75 -0.15625 -1.609375q-0.15625 -0.875 -0.453125 -1.75q-0.296875 -0.890625 -0.703125 -1.703125l0.859375 0q0.40625 0.640625 0.703125 1.515625q0.296875 0.859375 0.46875 1.78125q0.171875 0.921875 0.171875 1.765625q0 1.140625 -0.34375 2.3125q-0.328125 1.171875 -1.0 2.296875l-0.859375 0z" fill-rule="nonzero"/><path fill="#3b4652" d="m140.1527 114.505356l0 0c0 -2.1807785 1.767868 -3.9486465 3.948639 -3.9486465l15.794098 0l0 0c1.0472565 0 2.0516052 0.41601562 2.7921143 1.1565323c0.7405243 0.74050903 1.1565399 1.7448654 1.1565399 2.7921143l0 19.516586c0 2.1807709 -1.767868 3.948639 -3.9486542 3.948639l-15.794098 0c-2.1807709 0 -3.948639 -1.767868 -3.948639 -3.948639z" fill-rule="evenodd"/><path fill="#3b4652" d="m151.67624 113.677216l0 0c0 -1.1208725 0.9086609 -2.0295258 2.0295258 -2.0295258l8.117874 0l0 0c0.53826904 0 1.0544891 0.21382141 1.4351044 0.59443665c0.38059998 0.3806076 0.59443665 0.8968277 0.59443665 1.4350891l0 22.250687c0 1.1208801 -0.9086609 2.0295258 -2.029541 2.0295258l-8.117874 0c-1.1208649 0 -2.0295258 -0.90864563 -2.0295258 -2.0295258z" fill-rule="evenodd"/><path fill="#3b4652" d="m127.617584 194.16374l0 0c0 -4.489319 3.6393127 -8.128632 8.128632 -8.128632l32.513565 0l0 0c2.155838 0 4.2233887 0.85639954 5.7478027 2.3808136c1.5244141 1.5244141 2.3808289 3.5919647 2.3808289 5.747818l0 38.949036c0 4.489319 -3.6393127 8.128632 -8.128632 8.128632l-32.513565 0c-4.489319 0 -8.128632 -3.6393127 -8.128632 -8.128632z" fill-rule="evenodd"/><path fill="#3b4652" d="m98.863754 189.35529l0 0c0 -4.0856934 3.3121033 -7.3977966 7.397789 -7.3977966l29.590279 0l0 0c1.9620209 0 3.8436737 0.77941895 5.2310333 2.1667633c1.3873596 1.3873596 2.1667633 3.2690125 2.1667633 5.2310333l0 59.117767c0 4.085678 -3.3121033 7.3977814 -7.3977966 7.3977814l-29.590279 0c-4.0856857 0 -7.397789 -3.3121033 -7.397789 -7.3977814z" fill-rule="evenodd"/><path fill="#3b4652" d="m156.30127 189.35529l0 0c0 -4.0856934 3.3121033 -7.3977966 7.3977966 -7.3977966l29.590271 0l0 0c1.9620209 0 3.8436737 0.77941895 5.2310333 2.1667633c1.3873596 1.3873596 2.1667633 3.2690125 2.1667633 5.2310333l0 59.117767c0 4.085678 -3.3121033 7.3977814 -7.3977966 7.3977814l-29.590271 0c-4.0856934 0 -7.3977966 -3.3121033 -7.3977966 -7.3977814z" fill-rule="evenodd"/><path fill="#3b4652" d="m85.499664 141.32364l0 0c0 -5.4737244 4.4373245 -9.911041 9.911041 -9.911041l113.17778 0c2.6285706 0 5.149475 1.0441895 7.0081635 2.9028778c1.8586731 1.8586731 2.9028778 4.379593 2.9028778 7.0081635l0 39.64299c0 5.473709 -4.437332 9.911041 -9.911041 9.911041l-113.17778 0l0 0c-5.4737167 0 -9.911041 -4.437332 -9.911041 -9.911041z" fill-rule="evenodd"/><path fill="#3b4652" d="m133.3701 133.70502l0 0c0 -1.2660675 1.0263519 -2.2924194 2.2924347 -2.2924194l50.49527 0c0.60798645 0 1.1910706 0.24151611 1.6209869 0.6714325c0.42990112 0.42991638 0.6714325 1.0130005 0.6714325 1.6209869l0 9.169418c0 1.2660675 -1.0263519 2.2924194 -2.2924194 2.2924194l-50.49527 0c-1.2660828 0 -2.2924347 -1.0263519 -2.2924347 -2.2924194z" fill-rule="evenodd"/><path fill="#3b4652" d="m119.90107 180.21677l0 0c0 -1.5622559 1.2664642 -2.82872 2.8287277 -2.82872l11.314545 0l0 0c0.7502289 0 1.4697266 0.2980194 2.0002136 0.82850647c0.53048706 0.53048706 0.82850647 1.2499847 0.82850647 2.0002136l0 33.050064c0 1.5622559 -1.2664642 2.82872 -2.82872 2.82872l-11.314545 0c-1.5622635 0 -2.8287277 -1.2664642 -2.8287277 -2.82872z" fill-rule="evenodd"/><path fill="#3b4652" d="m110.320564 147.16846l0 0c0 -1.2660675 1.0263519 -2.2924194 2.2924194 -2.2924194l39.801018 0c0.60798645 0 1.1910858 0.24151611 1.6209869 0.6714325c0.42991638 0.42991638 0.6714325 1.0130005 0.6714325 1.6209869l0 9.169418c0 1.2660675 -1.0263519 2.2924194 -2.2924194 2.2924194l-39.801018 0c-1.2660675 0 -2.2924194 -1.0263519 -2.2924194 -2.2924194z" fill-rule="evenodd"/><path fill="#3b4652" d="m119.90079 223.8689l0 0c0 -1.52742 1.2382202 -2.765625 2.7656326 -2.765625l11.4407425 0l0 0c0.73349 0 1.4369354 0.29138184 1.9555817 0.8100281c0.5186615 0.5186615 0.81004333 1.2221069 0.81004333 1.9555969l0 11.06218c0 1.52742 -1.2382202 2.765625 -2.765625 2.765625l-11.4407425 0c-1.5274124 0 -2.7656326 -1.238205 -2.7656326 -2.765625z" fill-rule="evenodd"/><path fill="#3b4652" d="m97.67924 147.61859l0 0c0 -1.5070801 1.2217331 -2.7288208 2.7288208 -2.7288208l10.914963 0l0 0c0.723732 0 1.4178162 0.28749084 1.929573 0.7992554c0.51174927 0.51174927 0.79924774 1.2058411 0.79924774 1.9295654l0 40.537094c0 1.5070801 -1.2217331 2.7288208 -2.7288208 2.7288208l-10.914963 0c-1.5070877 0 -2.7288208 -1.2217407 -2.7288208 -2.7288208z" fill-rule="evenodd"/><path fill="#3b4652" d="m200.67285 172.66464l0 0c0 -1.6406708 1.3300171 -2.9706879 2.9706879 -2.9706879l11.88237 0l0 0c0.7878876 0 1.5434875 0.31298828 2.1006012 0.87008667c0.55711365 0.55711365 0.87008667 1.3127289 0.87008667 2.1006012l0 15.226303c0 1.6406555 -1.3300171 2.9706879 -2.9706879 2.9706879l-11.88237 0c-1.6406708 0 -2.9706879 -1.3300323 -2.9706879 -2.9706879z" fill-rule="evenodd"/><path fill="#3b4652" d="m179.6212 194.36946l0 0c0 -1.9368591 1.5701294 -3.5069885 3.5069885 -3.5069885l14.027512 0l0 0c0.93011475 0 1.8221283 0.36949158 2.4798126 1.0271759c0.6576843 0.6576843 1.0271759 1.5496979 1.0271759 2.4798126l0 50.053574c0 1.9368591 -1.5701294 3.5069885 -3.5069885 3.5069885l-14.027512 0c-1.9368591 0 -3.5069885 -1.5701294 -3.5069885 -3.5069885z" fill-rule="evenodd"/><path fill="#3b4652" d="m140.15373 99.252625l0 0c0 -1.7248764 1.3982849 -3.1231613 3.1231537 -3.1231613l57.067413 0c0.82832336 0 1.6227112 0.32904816 2.2084198 0.91474915c0.58569336 0.5857086 0.91474915 1.3800964 0.91474915 2.2084122l0 12.492271c0 1.7248764 -1.3982849 3.1231613 -3.123169 3.1231613l-57.067413 0c-1.7248688 0 -3.1231537 -1.3982849 -3.1231537 -3.1231613z" fill-rule="evenodd"/><path fill="#3b4652" d="m182.3578 104.98095l0 0c0 -2.0501099 1.6619263 -3.7120438 3.7120361 -3.7120438l24.627121 0c0.9844971 0 1.9286652 0.3910904 2.6248016 1.0872345c0.69615173 0.6961365 1.0872345 1.6403122 1.0872345 2.6248093l0 14.847717c0 2.0501022 -1.6619415 3.7120361 -3.7120361 3.7120361l-24.627121 0c-2.0501099 0 -3.7120361 -1.6619339 -3.7120361 -3.7120361z" fill-rule="evenodd"/><path fill="#3b4652" d="m140.1539 106.481995l0 0c0 -0.92632294 0.7509308 -1.6772537 1.6772461 -1.6772537l59.959244 0c0.44482422 0 0.8714447 0.1767044 1.1859894 0.4912567c0.31454468 0.31454468 0.4912567 0.74115753 0.4912567 1.185997l0 6.708809c0 0.92632294 -0.7509308 1.6772537 -1.6772461 1.6772537l-59.959244 0c-0.9263153 0 -1.6772461 -0.7509308 -1.6772461 -1.6772537z" fill-rule="evenodd"/><path fill="#3b4652" d="m182.3578 107.91476l0 0c0 -1.7248764 1.3982849 -3.1231613 3.1231537 -3.1231613l25.804886 0c0.8283081 0 1.6226959 0.32904816 2.2084045 0.91474915c0.5857086 0.5857086 0.91474915 1.3800964 0.91474915 2.2084122l0 12.492271c0 1.7248764 -1.3982849 3.1231613 -3.1231537 3.1231613l-25.804886 0c-1.7248688 0 -3.1231537 -1.3982849 -3.1231537 -3.1231613z" fill-rule="evenodd"/><path fill="#3b4652" d="m196.02267 113.32231l0 0c0 -0.90309143 0.73210144 -1.6351852 1.6351929 -1.6351852l13.102219 0c0.4336853 0 0.8496094 0.17227173 1.1562653 0.47893524c0.30665588 0.30665588 0.4789276 0.7225723 0.4789276 1.15625l0 6.5405655c0 0.90309143 -0.73210144 1.6351929 -1.6351929 1.6351929l-13.102219 0c-0.90309143 0 -1.6351929 -0.73210144 -1.6351929 -1.6351929z" fill-rule="evenodd"/><path fill="#3b4652" d="m85.499664 163.8708l0 0c0 -1.1063538 0.8968811 -2.0032349 2.0032349 -2.0032349l19.684914 0c0.53128815 0 1.0408249 0.21104431 1.4165039 0.58673096c0.37567902 0.3756714 0.58673096 0.88520813 0.58673096 1.4165039l0 8.012726c0 1.1063538 -0.8968811 2.0032349 -2.0032349 2.0032349l-19.684914 0c-1.1063538 0 -2.0032349 -0.8968811 -2.0032349 -2.0032349z" fill-rule="evenodd"/><path fill="#9a4600" d="m124.152695 98.505356l0 0c0 -2.1807785 1.767868 -3.9486465 3.948639 -3.9486465l15.794098 0l0 0c1.0472565 0 2.0516052 0.41601562 2.7921143 1.1565323c0.7405243 0.74050903 1.1565399 1.7448654 1.1565399 2.7921143l0 19.516579c0 2.1807785 -1.767868 3.9486465 -3.9486542 3.9486465l-15.794098 0c-2.1807709 0 -3.948639 -1.767868 -3.948639 -3.9486465z" fill-rule="evenodd"/><path fill="#5b2900" d="m135.67624 97.677216l0 0c0 -1.1208725 0.9086609 -2.0295258 2.0295258 -2.0295258l8.117874 0l0 0c0.53826904 0 1.0544891 0.21382141 1.4351044 0.59443665c0.38059998 0.3806076 0.59443665 0.8968277 0.59443665 1.4350891l0 22.250687c0 1.1208801 -0.9086609 2.0295334 -2.029541 2.0295334l-8.117874 0c-1.1208649 0 -2.0295258 -0.90865326 -2.0295258 -2.0295334z" fill-rule="evenodd"/><path fill="#f73d35" d="m111.617584 178.16374l0 0c0 -4.489319 3.6393127 -8.128632 8.128639 -8.128632l32.513557 0l0 0c2.155838 0 4.2233887 0.85639954 5.7478027 2.3808136c1.5244141 1.5244141 2.3808289 3.5919647 2.3808289 5.747818l0 38.949036c0 4.489319 -3.6393127 8.128632 -8.128632 8.128632l-32.513557 0c-4.4893265 0 -8.128639 -3.6393127 -8.128639 -8.128632z" fill-rule="evenodd"/><path fill="#f73d35" d="m82.863754 173.35529l0 0c0 -4.0856934 3.3121033 -7.3977966 7.397789 -7.3977966l29.590279 0l0 0c1.9620209 0 3.8436737 0.77941895 5.2310333 2.1667633c1.387352 1.3873596 2.1667633 3.2690125 2.1667633 5.2310333l0 59.117767c0 4.085678 -3.312111 7.3977814 -7.3977966 7.3977814l-29.590279 0c-4.0856857 0 -7.397789 -3.3121033 -7.397789 -7.3977814z" fill-rule="evenodd"/><path fill="#f73d35" d="m140.30127 173.35529l0 0c0 -4.0856934 3.3121033 -7.3977966 7.3977966 -7.3977966l29.590271 0l0 0c1.9620209 0 3.8436737 0.77941895 5.2310333 2.1667633c1.3873596 1.3873596 2.1667633 3.2690125 2.1667633 5.2310333l0 59.117767c0 4.085678 -3.3121033 7.3977814 -7.3977966 7.3977814l-29.590271 0c-4.0856934 0 -7.3977966 -3.3121033 -7.3977966 -7.3977814z" fill-rule="evenodd"/><path fill="#f73d35" d="m69.499664 125.32364l0 0c0 -5.4737167 4.4373245 -9.911041 9.911041 -9.911041l113.17778 0c2.6285706 0 5.149475 1.0441971 7.0081635 2.9028778c1.8586731 1.8586807 2.9028778 4.379593 2.9028778 7.0081635l0 39.64299c0 5.473709 -4.437332 9.911041 -9.911041 9.911041l-113.17778 0l0 0c-5.4737167 0 -9.911041 -4.437332 -9.911041 -9.911041z" fill-rule="evenodd"/><path fill="#e03027" d="m117.37011 117.70502l0 0c0 -1.2660675 1.0263519 -2.2924194 2.2924194 -2.2924194l50.495277 0c0.60798645 0 1.1910706 0.24152374 1.6209869 0.6714325c0.42990112 0.42991638 0.6714325 1.0130005 0.6714325 1.6209869l0 9.169411c0 1.2660751 -1.0263519 2.292427 -2.2924194 2.292427l-50.495277 0c-1.2660675 0 -2.2924194 -1.0263519 -2.2924194 -2.292427z" fill-rule="evenodd"/><path fill="#fb5c4e" d="m103.90107 164.21677l0 0c0 -1.5622559 1.2664642 -2.82872 2.8287277 -2.82872l11.314545 0l0 0c0.7502289 0 1.4697266 0.2980194 2.0002136 0.82850647c0.53048706 0.53048706 0.8285141 1.2499847 0.8285141 2.0002136l0 33.050064c0 1.5622559 -1.2664642 2.82872 -2.8287277 2.82872l-11.314545 0c-1.5622635 0 -2.8287277 -1.2664642 -2.8287277 -2.82872z" fill-rule="evenodd"/><path fill="#fb5c4e" d="m94.320564 131.16846l0 0c0 -1.2660675 1.0263519 -2.2924194 2.2924194 -2.2924194l39.801018 0c0.60798645 0 1.1910858 0.24151611 1.6209869 0.6714325c0.42991638 0.42991638 0.6714325 1.0130005 0.6714325 1.6209869l0 9.169418c0 1.2660675 -1.0263519 2.2924194 -2.2924194 2.2924194l-39.801018 0c-1.2660675 0 -2.2924194 -1.0263519 -2.2924194 -2.2924194z" fill-rule="evenodd"/><path fill="#fb5c4e" d="m103.90079 207.8689l0 0c0 -1.52742 1.2382202 -2.765625 2.7656326 -2.765625l11.440735 0l0 0c0.73349 0 1.436943 0.29138184 1.9555969 0.8100281c0.51865387 0.5186615 0.8100357 1.2221069 0.8100357 1.9555969l0 11.06218c0 1.52742 -1.2382202 2.765625 -2.7656326 2.765625l-11.440735 0c-1.5274124 0 -2.7656326 -1.238205 -2.7656326 -2.765625z" fill-rule="evenodd"/><path fill="#fc8076" d="m81.67924 131.61859l0 0c0 -1.5070801 1.2217331 -2.7288208 2.7288208 -2.7288208l10.914963 0l0 0c0.723732 0 1.4178162 0.28749084 1.929573 0.7992554c0.51174927 0.51174927 0.79924774 1.2058411 0.79924774 1.9295654l0 40.537094c0 1.5070801 -1.2217331 2.7288208 -2.7288208 2.7288208l-10.914963 0c-1.5070877 0 -2.7288208 -1.2217407 -2.7288208 -2.7288208z" fill-rule="evenodd"/><path fill="#e03027" d="m184.67285 156.66464l0 0c0 -1.6406708 1.3300171 -2.9706879 2.9706879 -2.9706879l11.88237 0l0 0c0.7878876 0 1.5434875 0.31298828 2.1006012 0.87008667c0.55711365 0.55711365 0.87008667 1.3127289 0.87008667 2.1006012l0 15.226303c0 1.6406555 -1.3300171 2.9706879 -2.9706879 2.9706879l-11.88237 0c-1.6406708 0 -2.9706879 -1.3300323 -2.9706879 -2.9706879z" fill-rule="evenodd"/><path fill="#e03027" d="m163.6212 178.36946l0 0c0 -1.9368591 1.5701294 -3.5069885 3.5069885 -3.5069885l14.027512 0l0 0c0.93011475 0 1.8221283 0.36949158 2.4798126 1.0271759c0.6576843 0.6576843 1.0271759 1.5496979 1.0271759 2.4798126l0 50.053574c0 1.9368591 -1.5701294 3.5069885 -3.5069885 3.5069885l-14.027512 0c-1.9368591 0 -3.5069885 -1.5701294 -3.5069885 -3.5069885z" fill-rule="evenodd"/><path fill="#51de18" d="m124.153725 83.252625l0 0c0 -1.7248764 1.3982925 -3.1231613 3.1231613 -3.1231613l57.067413 0c0.82832336 0 1.6227112 0.32904816 2.2084198 0.91474915c0.58569336 0.5857086 0.91474915 1.3800964 0.91474915 2.2084122l0 12.492271c0 1.7248764 -1.3982849 3.1231613 -3.123169 3.1231613l-57.067413 0c-1.7248688 0 -3.1231613 -1.3982849 -3.1231613 -3.1231613z" fill-rule="evenodd"/><path fill="#51de18" d="m166.3578 88.98095l0 0c0 -2.0501099 1.6619263 -3.7120438 3.7120361 -3.7120438l24.627121 0c0.9844971 0 1.9286652 0.3910904 2.6248016 1.0872345c0.69615173 0.6961365 1.0872345 1.6403122 1.0872345 2.6248093l0 14.847717c0 2.0501022 -1.6619415 3.7120361 -3.7120361 3.7120361l-24.627121 0c-2.0501099 0 -3.7120361 -1.6619339 -3.7120361 -3.7120361z" fill-rule="evenodd"/><path fill="#35ad05" d="m124.1539 90.481995l0 0c0 -0.92632294 0.7509308 -1.6772537 1.6772537 -1.6772537l59.959236 0c0.44482422 0 0.8714447 0.1767044 1.1859894 0.4912567c0.31454468 0.31454468 0.4912567 0.74115753 0.4912567 1.185997l0 6.708809c0 0.92632294 -0.7509308 1.6772537 -1.6772461 1.6772537l-59.959236 0c-0.92632294 0 -1.6772537 -0.7509308 -1.6772537 -1.6772537z" fill-rule="evenodd"/><path fill="#35ad05" d="m166.3578 91.91476l0 0c0 -1.7248764 1.3982849 -3.1231613 3.1231537 -3.1231613l25.804886 0c0.8283081 0 1.6226959 0.32904816 2.2084045 0.91474915c0.5857086 0.5857086 0.91474915 1.3800964 0.91474915 2.2084122l0 12.492271c0 1.7248764 -1.3982849 3.1231613 -3.1231537 3.1231613l-25.804886 0c-1.7248688 0 -3.1231537 -1.3982849 -3.1231537 -3.1231613z" fill-rule="evenodd"/><path fill="#227600" d="m180.02267 97.32231l0 0c0 -0.90309143 0.73210144 -1.6351852 1.6351929 -1.6351852l13.102219 0c0.4336853 0 0.8496094 0.17227173 1.1562653 0.47893524c0.30665588 0.30665588 0.4789276 0.7225723 0.4789276 1.15625l0 6.5405655c0 0.90309143 -0.73210144 1.6351929 -1.6351929 1.6351929l-13.102219 0c-0.90309143 0 -1.6351929 -0.73210144 -1.6351929 -1.6351929z" fill-rule="evenodd"/><path fill="#fc8076" d="m69.499664 147.8708l0 0c0 -1.1063538 0.8968811 -2.0032349 2.0032349 -2.0032349l19.684914 0c0.53128815 0 1.0408249 0.21104431 1.4165039 0.58673096c0.37567902 0.3756714 0.58673096 0.88520813 0.58673096 1.4165039l0 8.012726c0 1.1063538 -0.8968811 2.0032349 -2.0032349 2.0032349l-19.684914 0c-1.1063538 0 -2.0032349 -0.8968811 -2.0032349 -2.0032349z" fill-rule="evenodd"/></g></svg>