<svg version="1.1" viewBox="0.0 0.0 288.0 384.0" fill="none" stroke="none" stroke-linecap="square" stroke-miterlimit="10" xmlns:xlink="http://www.w3.org/1999/xlink" xmlns="http://www.w3.org/2000/svg"><clipPath id="g3a72db97a13_0_2116.0"><path d="m0 0l288.0 0l0 384.0l-288.0 0l0 -384.0z" clip-rule="nonzero"/></clipPath><g clip-path="url(#g3a72db97a13_0_2116.0)"><path fill="#ffffff" d="m0 0l288.0 0l0 384.0l-288.0 0z" fill-rule="evenodd"/><path fill="#fcb630" d="m5.7007875 34.135216l0 0c0 -9.966135 8.079147 -18.045282 18.04528 -18.045282l240.50787 0c4.7858887 0 9.375793 1.9011936 12.759949 5.2853394c3.3841248 3.3841476 5.2853394 7.9740353 5.2853394 12.759943l0 324.2244c0 9.9661255 -8.079163 18.045288 -18.045288 18.045288l-240.50787 0l0 0c-9.966134 0 -18.04528 -8.079163 -18.04528 -18.045288z" fill-rule="evenodd"/><path stroke="#fcb630" stroke-width="4.0" stroke-linejoin="round" stroke-linecap="butt" d="m5.7007875 34.135216l0 0c0 -9.966135 8.079147 -18.045282 18.04528 -18.045282l240.50787 0c4.7858887 0 9.375793 1.9011936 12.759949 5.2853394c3.3841248 3.3841476 5.2853394 7.9740353 5.2853394 12.759943l0 324.2244c0 9.9661255 -8.079163 18.045288 -18.045288 18.045288l-240.50787 0l0 0c-9.966134 0 -18.04528 -8.079163 -18.04528 -18.045288z" fill-rule="evenodd"/><path fill="#ffe9bf" d="m5.7007875 25.639769l0 0c0 -9.966133 8.079147 -18.04528 18.04528 -18.04528l240.50787 0c4.7858887 0 9.375793 1.9011936 12.759949 5.2853403c3.3841248 3.3841467 5.2853394 7.9740343 5.2853394 12.75994l0 324.2244c0 9.9661255 -8.079163 18.045288 -18.045288 18.045288l-240.50787 0l0 0c-9.966134 0 -18.04528 -8.079163 -18.04528 -18.045288z" fill-rule="evenodd"/><path stroke="#fcb630" stroke-width="4.0" stroke-linejoin="round" stroke-linecap="butt" d="m5.7007875 25.639769l0 0c0 -9.966133 8.079147 -18.04528 18.04528 -18.04528l240.50787 0c4.7858887 0 9.375793 1.9011936 12.759949 5.2853403c3.3841248 3.3841467 5.2853394 7.9740343 5.2853394 12.75994l0 324.2244c0 9.9661255 -8.079163 18.045288 -18.045288 18.045288l-240.50787 0l0 0c-9.966134 0 -18.04528 -8.079163 -18.04528 -18.045288z" fill-rule="evenodd"/><path fill="#000000" fill-opacity="0.0" d="m21.700787 315.7533l266.29922 0l0 38.771637l-266.29922 0z" fill-rule="evenodd"/><path fill="#000000" d="m34.15391 337.8164l0 -2.671875l8.28125 0l0 2.671875l-8.28125 0zm6.390625 -9.703125l5.453125 12.0l-3.53125 0l-4.578125 -10.59375l0.953125 0l-4.59375 10.59375l-3.53125 0l5.453125 -12.0l4.375 0zm5.8730316 2.859375l3.328125 0l0.546875 3.265625l0 5.875l-3.265625 0l0 -6.0625l-0.609375 -3.078125zm8.15625 -0.140625l0 2.78125q-0.484375 -0.09375 -0.90625 -0.125q-0.421875 -0.046875 -0.78125 -0.046875q-0.703125 0 -1.296875 0.28125q-0.578125 0.28125 -0.9375 0.921875q-0.359375 0.640625 -0.359375 1.703125l-0.625 -0.765625q0.125 -0.984375 0.375 -1.859375q0.265625 -0.875 0.703125 -1.546875q0.4375 -0.6875 1.09375 -1.078125q0.65625 -0.390625 1.59375 -0.390625q0.28125 0 0.5625 0.03125q0.296875 0.03125 0.578125 0.09375zm0.69177246 0.140625l3.28125 0l0.59375 3.65625l0 5.484375l-3.265625 0l0 -5.984375l-0.609375 -3.15625zm7.015625 -0.265625q1.265625 0 2.1406288 0.53125q0.890625 0.515625 1.34375 1.484375q0.46875 0.953125 0.46875 2.265625l0 5.125l-3.2656288 0l0 -4.640625q0 -1.015625 -0.46875 -1.5625q-0.453125 -0.546875 -1.328125 -0.546875q-0.625 0 -1.09375 0.296875q-0.453125 0.28125 -0.703125 0.8125q-0.234375 0.515625 -0.234375 1.234375l-1.015625 -0.515625q0.1875 -1.46875 0.78125 -2.46875q0.59375 -1.0 1.46875 -1.5q0.875 -0.515625 1.90625 -0.515625zm7.093754 0q1.265625 0 2.140625 0.53125q0.890625 0.515625 1.359375 1.484375q0.46875 0.953125 0.46875 2.265625l0 5.125l-3.265625 0l0 -4.640625q0 -1.015625 -0.46875 -1.5625q-0.453125 -0.546875 -1.34375 -0.546875q-0.625 0 -1.078125 0.296875q-0.453125 0.28125 -0.703125 0.8125q-0.25 0.515625 -0.25 1.234375l-1.0 -0.515625q0.1875 -1.46875 0.765625 -2.46875q0.59375 -1.0 1.46875 -1.5q0.875 -0.515625 1.90625 -0.515625z" fill-rule="nonzero"/><path fill="#000000" d="m82.50818 336.95703q0 -0.84375 0.171875 -1.765625q0.171875 -0.921875 0.46875 -1.78125q0.3125 -0.875 0.703125 -1.515625l0.859375 0q-0.40625 0.8125 -0.703125 1.703125q-0.296875 0.875 -0.453125 1.75q-0.15625 0.859375 -0.15625 1.609375q0 0.671875 0.140625 1.390625q0.140625 0.703125 0.421875 1.5q0.296875 0.78125 0.75 1.71875l-0.859375 0q-0.671875 -1.125 -1.015625 -2.296875q-0.328125 -1.171875 -0.328125 -2.3125zm7.228668 3.296875q-0.546875 0 -1.0 -0.203125q-0.453125 -0.21875 -0.71875 -0.625q-0.265625 -0.40625 -0.265625 -0.96875q0 -0.5 0.1875 -0.796875q0.203125 -0.3125 0.53125 -0.484375q0.328125 -0.1875 0.71875 -0.28125q0.40625 -0.09375 0.8125 -0.140625q0.53125 -0.0625 0.859375 -0.09375q0.328125 -0.046875 0.484375 -0.125q0.15625 -0.09375 0.15625 -0.3125l0 -0.03125q0 -0.5625 -0.3125 -0.859375q-0.296875 -0.3125 -0.921875 -0.3125q-0.625 0 -1.0 0.28125q-0.359375 0.265625 -0.5 0.59375l-0.859375 -0.3125q0.234375 -0.53125 0.609375 -0.828125q0.390625 -0.296875 0.84375 -0.40625q0.453125 -0.125 0.875 -0.125q0.28125 0 0.640625 0.0625q0.375 0.0625 0.71875 0.28125q0.34375 0.203125 0.5625 0.625q0.234375 0.40625 0.234375 1.09375l0 3.828125l-0.890625 0l0 -0.796875l-0.046875 0q-0.078125 0.1875 -0.296875 0.40625q-0.21875 0.21875 -0.578125 0.375q-0.34375 0.15625 -0.84375 0.15625zm0.140625 -0.8125q0.515625 0 0.875 -0.203125q0.375 -0.203125 0.5625 -0.53125q0.1875 -0.34375 0.1875 -0.703125l0 -0.8125q-0.0625 0.0625 -0.25 0.125q-0.1875 0.046875 -0.4375 0.09375q-0.25 0.03125 -0.484375 0.0625q-0.21875 0.03125 -0.359375 0.046875q-0.359375 0.046875 -0.65625 0.15625q-0.296875 0.09375 -0.484375 0.296875q-0.1875 0.1875 -0.1875 0.53125q0 0.46875 0.34375 0.703125q0.34375 0.234375 0.890625 0.234375zm4.546692 -2.828125l0 3.5l-0.875 0l0 -7.75l0.875 0l0 2.84375l0.09375 0q0.203125 -0.453125 0.609375 -0.71875q0.40625 -0.265625 1.09375 -0.265625q0.59375 0 1.03125 0.234375q0.453125 0.234375 0.703125 0.734375q0.25 0.484375 0.25 1.234375l0 3.6875l-0.890625 0l0 -3.625q0 -0.703125 -0.359375 -1.078125q-0.359375 -0.390625 -1.0 -0.390625q-0.4375 0 -0.78125 0.1875q-0.34375 0.1875 -0.546875 0.546875q-0.203125 0.359375 -0.203125 0.859375zm4.9318237 3.5l0 -5.8125l0.84375 0l0 0.90625l0.09375 0q0.171875 -0.46875 0.578125 -0.71875q0.40625 -0.265625 0.96875 -0.265625q0.578125 0 0.953125 0.265625q0.390625 0.25 0.609375 0.71875l0.0625 0q0.21875 -0.453125 0.65625 -0.71875q0.453125 -0.265625 1.078125 -0.265625q0.78125 0 1.28125 0.484375q0.5 0.484375 0.5 1.515625l0 3.890625l-0.890625 0l0 -3.890625q0 -0.640625 -0.359375 -0.921875q-0.359375 -0.28125 -0.828125 -0.28125q-0.609375 0 -0.953125 0.375q-0.328125 0.375 -0.328125 0.9375l0 3.78125l-0.921875 0l0 -3.984375q0 -0.5 -0.328125 -0.796875q-0.3125 -0.3125 -0.8125 -0.3125q-0.34375 0 -0.65625 0.1875q-0.296875 0.1875 -0.484375 0.515625q-0.1875 0.328125 -0.1875 0.765625l0 3.625l-0.875 0zm10.942108 1.453125q0.453125 -0.9375 0.734375 -1.71875q0.296875 -0.796875 0.4375 -1.5q0.140625 -0.71875 0.140625 -1.390625q0 -0.75 -0.15625 -1.609375q-0.15625 -0.875 -0.453125 -1.75q-0.296875 -0.890625 -0.703125 -1.703125l0.859375 0q0.40625 0.640625 0.703125 1.515625q0.296875 0.859375 0.46875 1.78125q0.171875 0.921875 0.171875 1.765625q0 1.140625 -0.34375 2.3125q-0.328125 1.171875 -1.0 2.296875l-0.859375 0z" fill-rule="nonzero"/><path fill="#fcb630" d="m121.92179 164.63345l0 0c0 -3.2173004 2.6081314 -5.825424 5.825424 -5.825424l48.518562 0c1.5449982 0 3.0267181 0.613739 4.1192017 1.7062225c1.0924683 1.0924835 1.7062225 2.5742035 1.7062225 4.1192017l0 23.30101c0 3.2173004 -2.608139 5.825424 -5.825424 5.825424l-48.518562 0c-3.2172928 0 -5.825424 -2.6081238 -5.825424 -5.825424z" fill-rule="evenodd"/><path fill="#fcb630" d="m121.92211 163.74585l0 0c0 -2.7270813 2.2107315 -4.937805 4.9377975 -4.937805l19.75061 0l0 0c1.3095856 0 2.5655365 0.52023315 3.4915466 1.4462433c0.9260254 0.9260254 1.4462433 2.1819763 1.4462433 3.491562l0 25.076263c0 2.7270813 -2.2107239 4.937805 -4.93779 4.937805l-19.75061 0c-2.727066 0 -4.9377975 -2.2107239 -4.9377975 -4.937805z" fill-rule="evenodd"/><path fill="#fcb630" d="m137.18747 86.55638l0 0c0 -2.727066 2.2107239 -4.9377975 4.93779 -4.9377975l19.75061 0l0 0c1.3095856 0 2.5655365 0.52023315 3.4915466 1.4462509c0.9260254 0.92601776 1.4462585 2.181961 1.4462585 3.4915466l0 30.401932c0 2.7270737 -2.2107391 4.937805 -4.937805 4.937805l-19.75061 0c-2.727066 0 -4.93779 -2.2107315 -4.93779 -4.937805z" fill-rule="evenodd"/><path fill="#fcb630" d="m118.1307 134.58116l0 0c0 -3.2173004 2.6081314 -5.8254395 5.825424 -5.8254395l56.101463 0c1.5449982 0 3.0267181 0.6137543 4.1191864 1.7062378c1.0924835 1.0924835 1.7062378 2.5742035 1.7062378 4.1192017l0 23.30101c0 3.2172852 -2.608139 5.825424 -5.825424 5.825424l-56.101463 0c-3.2172928 0 -5.825424 -2.608139 -5.825424 -5.825424z" fill-rule="evenodd"/><path fill="#fcb630" d="m192.73514 132.35327l0 0c0 -1.9868622 1.610672 -3.5975494 3.5975342 -3.5975494l14.389725 0l0 0c0.9541321 0 1.8691864 0.37902832 2.5438538 1.0536957c0.67466736 0.6746826 1.0536957 1.5897217 1.0536957 2.5438538l0 40.63008c0 1.9868622 -1.610672 3.5975342 -3.5975494 3.5975342l-14.389725 0c-1.9868622 0 -3.5975342 -1.610672 -3.5975342 -3.5975342z" fill-rule="evenodd"/><path fill="#fcb630" d="m89.68077 132.35327l0 0c0 -1.9868622 1.610672 -3.5975494 3.5975418 -3.5975494l14.389725 0l0 0c0.95412445 0 1.8691788 0.37902832 2.5438461 1.0536957c0.67466736 0.6746826 1.0536957 1.5897217 1.0536957 2.5438538l0 40.63008c0 1.9868622 -1.610672 3.5975342 -3.5975418 3.5975342l-14.389725 0c-1.9868698 0 -3.5975418 -1.610672 -3.5975418 -3.5975342z" fill-rule="evenodd"/><path fill="#fcb630" d="m121.922066 204.67361l0 0c0 -2.240097 1.8159561 -4.0560455 4.056053 -4.0560455l16.22371 0l0 0c1.0757294 0 2.1074066 0.4273224 2.8680573 1.1879883c0.7606659 0.76065063 1.1879883 1.7923279 1.1879883 2.8680573l0 61.650574c0 2.2400818 -1.8159485 4.0560303 -4.0560455 4.0560303l-16.22371 0c-2.240097 0 -4.056053 -1.8159485 -4.056053 -4.0560303z" fill-rule="evenodd"/><path fill="#fcb630" d="m157.7459 204.67361l0 0c0 -2.240097 1.8159637 -4.0560455 4.056061 -4.0560455l16.22371 0l0 0c1.0757294 0 2.1074066 0.4273224 2.8680573 1.1879883c0.76065063 0.76065063 1.1879883 1.7923279 1.1879883 2.8680573l0 61.650574c0 2.2400818 -1.8159485 4.0560303 -4.0560455 4.0560303l-16.22371 0c-2.240097 0 -4.056061 -1.8159485 -4.056061 -4.0560303z" fill-rule="evenodd"/><path fill="#fcb630" d="m192.73663 183.23792l0 0c0 -1.1590118 0.93955994 -2.0985718 2.0985718 -2.0985718l17.38768 0c0.55656433 0 1.0903473 0.22109985 1.483902 0.6146698c0.3935547 0.3935547 0.61465454 0.9273224 0.61465454 1.483902l0 8.394012c0 1.1589966 -0.93955994 2.0985565 -2.0985565 2.0985565l-17.38768 0c-1.1590118 0 -2.0985718 -0.93955994 -2.0985718 -2.0985565z" fill-rule="evenodd"/><path fill="#fcb630" d="m89.68077 183.23792l0 0c0 -1.1590118 0.93955994 -2.0985718 2.0985641 -2.0985718l17.38768 0c0.55657196 0 1.0903473 0.22109985 1.4839096 0.6146698c0.3935547 0.3935547 0.61465454 0.9273224 0.61465454 1.483902l0 8.394012c0 1.1589966 -0.93955994 2.0985565 -2.0985641 2.0985565l-17.38768 0c-1.1590042 0 -2.0985641 -0.93955994 -2.0985641 -2.0985565z" fill-rule="evenodd"/><path fill="#fcb630" d="m118.13076 133.69365l0 0c0 -2.7270813 2.2107315 -4.937805 4.937805 -4.937805l19.750603 0l0 0c1.3095856 0 2.5655365 0.52023315 3.4915466 1.4462433c0.9260254 0.9260254 1.4462585 2.181961 1.4462585 3.491562l0 25.076263c0 2.727066 -2.2107391 4.93779 -4.937805 4.93779l-19.750603 0c-2.7270737 0 -4.937805 -2.2107239 -4.937805 -4.93779z" fill-rule="evenodd"/><path fill="#fcb630" d="m121.92224 202.47438l0 0c0 -1.0258942 0.8316574 -1.857544 1.8575516 -1.857544l7.429985 0l0 0c0.49266052 0 0.96513367 0.19569397 1.3134918 0.5440521c0.34835815 0.3483734 0.5440674 0.82084656 0.5440674 1.3134918l0 66.04756c0 1.0258789 -0.8316498 1.857544 -1.8575592 1.857544l-7.429985 0c-1.0258942 0 -1.8575516 -0.83166504 -1.8575516 -1.857544z" fill-rule="evenodd"/><path fill="#fcb630" d="m157.74506 202.47438l0 0c0 -1.0258942 0.8316498 -1.857544 1.8575592 -1.857544l7.4299774 0l0 0c0.49266052 0 0.96513367 0.19569397 1.3134918 0.5440521c0.34835815 0.3483734 0.5440674 0.82084656 0.5440674 1.3134918l0 66.04756c0 1.0258789 -0.8316498 1.857544 -1.8575592 1.857544l-7.4299774 0c-1.0259094 0 -1.8575592 -0.83166504 -1.8575592 -1.857544z" fill-rule="evenodd"/><path fill="#fcb630" d="m137.18715 83.77005l0 0c0 -1.1882172 0.9632416 -2.1514664 2.151474 -2.1514664l8.605621 0l0 0c0.5706024 0 1.1178436 0.22666931 1.5213165 0.63014984c0.4034729 0.40348053 0.6301575 0.9507141 0.6301575 1.5213165l0 35.974594c0 1.1882248 -0.96325684 2.151474 -2.151474 2.151474l-8.605621 0c-1.1882324 0 -2.151474 -0.9632492 -2.151474 -2.151474z" fill-rule="evenodd"/><path fill="#e7f2ff" d="m105.92179 148.63345l0 0c0 -3.2173004 2.6081314 -5.825424 5.825424 -5.825424l48.518562 0c1.5449982 0 3.0267181 0.613739 4.1192017 1.7062225c1.0924683 1.0924835 1.7062225 2.5742035 1.7062225 4.1192017l0 23.30101c0 3.2173004 -2.608139 5.825424 -5.825424 5.825424l-48.518562 0c-3.2172928 0 -5.825424 -2.6081238 -5.825424 -5.825424z" fill-rule="evenodd"/><path fill="#d1e8ff" d="m105.92211 147.74585l0 0c0 -2.7270813 2.2107315 -4.937805 4.9377975 -4.937805l19.75061 0l0 0c1.3095856 0 2.5655365 0.52023315 3.4915466 1.4462433c0.9260254 0.9260254 1.4462433 2.1819763 1.4462433 3.491562l0 25.076263c0 2.7270813 -2.2107239 4.937805 -4.93779 4.937805l-19.75061 0c-2.727066 0 -4.9377975 -2.2107239 -4.9377975 -4.937805z" fill-rule="evenodd"/><path fill="#f3f8fe" d="m121.18746 70.55638l0 0c0 -2.727066 2.2107315 -4.9377975 4.9377975 -4.9377975l19.75061 0l0 0c1.3095856 0 2.5655365 0.52023315 3.4915466 1.4462509c0.9260254 0.92601776 1.4462585 2.181961 1.4462585 3.4915466l0 30.401932c0 2.7270737 -2.2107391 4.937805 -4.937805 4.937805l-19.75061 0c-2.727066 0 -4.9377975 -2.2107315 -4.9377975 -4.937805z" fill-rule="evenodd"/><path fill="#f3f8fe" d="m102.1307 118.581154l0 0c0 -3.2172928 2.6081314 -5.825424 5.825424 -5.825424l56.101463 0c1.5449982 0 3.0267181 0.61374664 4.1191864 1.7062302c1.0924835 1.0924759 1.7062378 2.5741959 1.7062378 4.119194l0 23.301018c0 3.2172852 -2.608139 5.825424 -5.825424 5.825424l-56.101463 0c-3.2172928 0 -5.825424 -2.608139 -5.825424 -5.825424z" fill-rule="evenodd"/><path fill="#2563eb" d="m176.73514 116.35327l0 0c0 -1.9868698 1.610672 -3.5975418 3.5975342 -3.5975418l14.389725 0l0 0c0.9541321 0 1.8691864 0.37902832 2.5438538 1.0536957c0.67466736 0.67466736 1.0536957 1.589714 1.0536957 2.5438461l0 40.63008c0 1.9868622 -1.610672 3.5975342 -3.5975494 3.5975342l-14.389725 0c-1.9868622 0 -3.5975342 -1.610672 -3.5975342 -3.5975342z" fill-rule="evenodd"/><path fill="#2563eb" d="m73.68077 116.35327l0 0c0 -1.9868698 1.610672 -3.5975418 3.5975418 -3.5975418l14.389725 0l0 0c0.95412445 0 1.8691788 0.37902832 2.5438461 1.0536957c0.67466736 0.67466736 1.0536957 1.589714 1.0536957 2.5438461l0 40.63008c0 1.9868622 -1.610672 3.5975342 -3.5975418 3.5975342l-14.389725 0c-1.9868698 0 -3.5975418 -1.610672 -3.5975418 -3.5975342z" fill-rule="evenodd"/><path fill="#d1e8ff" d="m105.922066 188.67361l0 0c0 -2.240097 1.8159561 -4.0560455 4.056053 -4.0560455l16.22371 0l0 0c1.075737 0 2.1074066 0.4273224 2.8680573 1.1879883c0.7606659 0.76065063 1.1879883 1.7923279 1.1879883 2.8680573l0 61.65056c0 2.240097 -1.8159485 4.0560455 -4.0560455 4.0560455l-16.22371 0c-2.240097 0 -4.056053 -1.8159485 -4.056053 -4.0560455z" fill-rule="evenodd"/><path fill="#d1e8ff" d="m141.7459 188.67361l0 0c0 -2.240097 1.8159637 -4.0560455 4.056061 -4.0560455l16.22371 0l0 0c1.0757294 0 2.1074066 0.4273224 2.8680573 1.1879883c0.76065063 0.76065063 1.1879883 1.7923279 1.1879883 2.8680573l0 61.65056c0 2.240097 -1.8159485 4.0560455 -4.0560455 4.0560455l-16.22371 0c-2.240097 0 -4.056061 -1.8159485 -4.056061 -4.0560455z" fill-rule="evenodd"/><path fill="#2563eb" d="m176.73663 167.23792l0 0c0 -1.1590118 0.93955994 -2.0985718 2.0985718 -2.0985718l17.38768 0c0.55656433 0 1.0903473 0.22109985 1.483902 0.6146698c0.3935547 0.3935547 0.61465454 0.9273224 0.61465454 1.483902l0 8.394012c0 1.1589966 -0.93955994 2.0985565 -2.0985565 2.0985565l-17.38768 0c-1.1590118 0 -2.0985718 -0.93955994 -2.0985718 -2.0985565z" fill-rule="evenodd"/><path fill="#2563eb" d="m73.68077 167.23792l0 0c0 -1.1590118 0.93955994 -2.0985718 2.0985641 -2.0985718l17.38768 0c0.55657196 0 1.0903473 0.22109985 1.4839096 0.6146698c0.3935547 0.3935547 0.61465454 0.9273224 0.61465454 1.483902l0 8.394012c0 1.1589966 -0.93955994 2.0985565 -2.0985641 2.0985565l-17.38768 0c-1.1590042 0 -2.0985641 -0.93955994 -2.0985641 -2.0985565z" fill-rule="evenodd"/><path fill="#e7f2ff" d="m102.13076 117.69364l0 0c0 -2.7270737 2.2107315 -4.9377975 4.937805 -4.9377975l19.750603 0l0 0c1.3095856 0 2.5655365 0.5202255 3.4915466 1.4462433c0.9260254 0.92601776 1.4462585 2.1819687 1.4462585 3.4915543l0 25.076271c0 2.727066 -2.2107391 4.93779 -4.937805 4.93779l-19.750603 0c-2.7270737 0 -4.937805 -2.2107239 -4.937805 -4.93779z" fill-rule="evenodd"/><path fill="#a6d3ff" d="m105.92224 186.47438l0 0c0 -1.0258942 0.8316574 -1.857544 1.8575516 -1.857544l7.4299927 0l0 0c0.4926529 0 0.96512604 0.19569397 1.3134842 0.5440521c0.34836578 0.3483734 0.5440674 0.82084656 0.5440674 1.3134918l0 66.04756c0 1.0258942 -0.8316574 1.857544 -1.8575516 1.857544l-7.4299927 0c-1.0258942 0 -1.8575516 -0.8316498 -1.8575516 -1.857544z" fill-rule="evenodd"/><path fill="#a6d3ff" d="m141.74506 186.47438l0 0c0 -1.0258942 0.8316498 -1.857544 1.8575592 -1.857544l7.4299774 0l0 0c0.49266052 0 0.96513367 0.19569397 1.3134918 0.5440521c0.34835815 0.3483734 0.5440674 0.82084656 0.5440674 1.3134918l0 66.04756c0 1.0258942 -0.8316498 1.857544 -1.8575592 1.857544l-7.4299774 0c-1.0259094 0 -1.8575592 -0.8316498 -1.8575592 -1.857544z" fill-rule="evenodd"/><path fill="#e7f2ff" d="m121.18715 67.77005l0 0c0 -1.1882172 0.9632492 -2.1514664 2.151474 -2.1514664l8.605621 0l0 0c0.5706024 0 1.1178436 0.22666931 1.5213165 0.63014984c0.4034729 0.40348053 0.6301575 0.9507141 0.6301575 1.5213165l0 35.974594c0 1.1882248 -0.96325684 2.151474 -2.151474 2.151474l-8.605621 0c-1.1882248 0 -2.151474 -0.9632492 -2.151474 -2.151474z" fill-rule="evenodd"/></g></svg>