<svg version="1.1" viewBox="0.0 0.0 288.0 384.0" fill="none" stroke="none" stroke-linecap="square" stroke-miterlimit="10" xmlns:xlink="http://www.w3.org/1999/xlink" xmlns="http://www.w3.org/2000/svg"><clipPath id="g3b18a6c779a_0_6193.0"><path d="m0 0l288.0 0l0 384.0l-288.0 0l0 -384.0z" clip-rule="nonzero"/></clipPath><g clip-path="url(#g3b18a6c779a_0_6193.0)"><path fill="#161d25" d="m0 0l288.0 0l0 384.0l-288.0 0z" fill-rule="evenodd"/><path fill="#3b4652" d="m5.7007875 34.135216l0 0c0 -9.966135 8.079147 -18.045282 18.04528 -18.045282l240.50787 0c4.7858887 0 9.375793 1.9011936 12.759949 5.2853394c3.3841248 3.3841476 5.2853394 7.9740353 5.2853394 12.759943l0 324.2244c0 9.9661255 -8.079163 18.045288 -18.045288 18.045288l-240.50787 0l0 0c-9.966134 0 -18.04528 -8.079163 -18.04528 -18.045288z" fill-rule="evenodd"/><path stroke="#3b4652" stroke-width="4.0" stroke-linejoin="round" stroke-linecap="butt" d="m5.7007875 34.135216l0 0c0 -9.966135 8.079147 -18.045282 18.04528 -18.045282l240.50787 0c4.7858887 0 9.375793 1.9011936 12.759949 5.2853394c3.3841248 3.3841476 5.2853394 7.9740353 5.2853394 12.759943l0 324.2244c0 9.9661255 -8.079163 18.045288 -18.045288 18.045288l-240.50787 0l0 0c-9.966134 0 -18.04528 -8.079163 -18.04528 -18.045288z" fill-rule="evenodd"/><path fill="#161d25" d="m5.7007875 25.639769l0 0c0 -9.966133 8.079147 -18.04528 18.04528 -18.04528l240.50787 0c4.7858887 0 9.375793 1.9011936 12.759949 5.2853403c3.3841248 3.3841467 5.2853394 7.9740343 5.2853394 12.75994l0 324.2244c0 9.9661255 -8.079163 18.045288 -18.045288 18.045288l-240.50787 0l0 0c-9.966134 0 -18.04528 -8.079163 -18.04528 -18.045288z" fill-rule="evenodd"/><path stroke="#3b4652" stroke-width="4.0" stroke-linejoin="round" stroke-linecap="butt" d="m5.7007875 25.639769l0 0c0 -9.966133 8.079147 -18.04528 18.04528 -18.04528l240.50787 0c4.7858887 0 9.375793 1.9011936 12.759949 5.2853403c3.3841248 3.3841467 5.2853394 7.9740343 5.2853394 12.75994l0 324.2244c0 9.9661255 -8.079163 18.045288 -18.045288 18.045288l-240.50787 0l0 0c-9.966134 0 -18.04528 -8.079163 -18.04528 -18.045288z" fill-rule="evenodd"/><path fill="#000000" fill-opacity="0.0" d="m21.700787 315.7533l266.29922 0l0 38.771637l-266.29922 0z" fill-rule="evenodd"/><path fill="#ffffff" d="m39.950787 334.23828l0.265625 -0.625q1.390625 0.03125 2.296875 0.421875q0.90625 0.390625 1.34375 1.09375q0.453125 0.703125 0.453125 1.609375q0 0.96875 -0.453125 1.734375q-0.4375 0.765625 -1.328125 1.203125q-0.890625 0.4375 -2.21875 0.4375l-8.859375 0l0.9375 -6.15625l-0.9375 -5.84375l8.546875 0q1.65625 0 2.578125 0.78125q0.9375 0.765625 0.9375 2.140625q0 0.765625 -0.359375 1.453125q-0.34375 0.6875 -1.125 1.15625q-0.765625 0.46875 -2.078125 0.59375zm-5.21875 5.109375l-1.28125 -1.546875l5.96875 0q0.71875 0 1.109375 -0.359375q0.40625 -0.359375 0.40625 -0.96875q0 -0.625 -0.4375 -1.0q-0.421875 -0.390625 -1.265625 -0.390625l-4.9375 0l0 -2.265625l4.484375 0q0.578125 0 0.96875 -0.34375q0.390625 -0.34375 0.390625 -0.9375q0 -0.484375 -0.34375 -0.796875q-0.328125 -0.3125 -0.953125 -0.3125l-5.375 0l1.265625 -1.546875l0.8125 5.078125l-0.8125 5.390625zm19.205017 0.765625l-0.421875 -3.296875l0.4375 -1.265625l-0.4375 -1.265625l0.421875 -3.3125l3.390625 0l-0.578125 4.5625l0.578125 4.578125l-3.390625 0zm0.765625 -4.5625q-0.21875 1.4375 -0.890625 2.53125q-0.65625 1.09375 -1.671875 1.6875q-1.015625 0.59375 -2.3125 0.59375q-1.34375 0 -2.375 -0.59375q-1.015625 -0.59375 -1.59375 -1.6875q-0.5625 -1.109375 -0.5625 -2.53125q0 -1.453125 0.5625 -2.53125q0.578125 -1.09375 1.59375 -1.703125q1.03125 -0.609375 2.375 -0.609375q1.296875 0 2.3125 0.609375q1.015625 0.59375 1.6875 1.671875q0.671875 1.078125 0.875 2.5625zm-6.09375 0q0 0.671875 0.28125 1.203125q0.28125 0.53125 0.765625 0.828125q0.5 0.296875 1.140625 0.296875q0.671875 0 1.265625 -0.296875q0.59375 -0.296875 1.03125 -0.828125q0.453125 -0.53125 0.671875 -1.203125q-0.21875 -0.6875 -0.671875 -1.203125q-0.4375 -0.53125 -1.03125 -0.828125q-0.59375 -0.3125 -1.265625 -0.3125q-0.640625 0 -1.140625 0.3125q-0.484375 0.296875 -0.765625 0.828125q-0.28125 0.515625 -0.28125 1.203125zm21.104786 0.703125q-0.140625 1.234375 -0.90625 2.171875q-0.765625 0.921875 -1.984375 1.4375q-1.21875 0.5 -2.75 0.5q-1.6718788 0 -2.9531288 -0.59375q-1.28125 -0.609375 -2.0 -1.703125q-0.71875 -1.09375 -0.71875 -2.515625q0 -1.4375 0.71875 -2.515625q0.71875 -1.09375 2.0 -1.703125q1.28125 -0.625 2.9531288 -0.625q1.53125 0 2.75 0.515625q1.21875 0.515625 1.984375 1.4375q0.765625 0.921875 0.90625 2.171875l-3.25 0q-0.171875 -0.8125 -0.8125 -1.25q-0.640625 -0.4375 -1.578125 -0.4375q-0.7187538 0 -1.2500038 0.28125q-0.53125 0.265625 -0.828125 0.8125q-0.296875 0.53125 -0.296875 1.3125q0 0.765625 0.296875 1.3125q0.296875 0.53125 0.828125 0.8125q0.53125 0.28125 1.2500038 0.28125q0.9375 0 1.578125 -0.46875q0.65625 -0.46875 0.8125 -1.234375l3.25 0zm0.36090088 -2.859375l0 -1.421875l1.859375 -0.75l1.40625 -2.703125l1.859375 0l0 2.453125l3.84375 0l0 2.421875l-3.84375 0l0 2.6875q0 0.984375 0.390625 1.390625q0.40625 0.40625 1.46875 0.40625q0.671875 0 1.1875 -0.125q0.515625 -0.125 0.953125 -0.3125l0 2.46875q-0.484375 0.171875 -1.265625 0.3125q-0.78125 0.140625 -1.609375 0.140625q-1.53125 0 -2.5 -0.453125q-0.96875 -0.46875 -1.4375 -1.34375q-0.453125 -0.875 -0.453125 -2.03125l0 -3.140625l-1.859375 0zm15.516281 6.96875q-1.65625 0 -2.96875 -0.59375q-1.296875 -0.609375 -2.046875 -1.703125q-0.75 -1.109375 -0.75 -2.5625q0 -1.421875 0.71875 -2.5q0.71875 -1.078125 1.96875 -1.6875q1.265625 -0.609375 2.84375 -0.609375q1.640625 0 2.796875 0.71875q1.171875 0.703125 1.796875 2.0q0.640625 1.296875 0.640625 3.0625l-8.125 0l0 -1.96875l6.28125 0l-1.0625 0.6875q-0.078125 -0.703125 -0.359375 -1.1875q-0.28125 -0.5 -0.765625 -0.75q-0.46875 -0.265625 -1.125 -0.265625q-0.71875 0 -1.234375 0.296875q-0.5 0.28125 -0.796875 0.796875q-0.28125 0.5 -0.28125 1.171875q0 0.859375 0.390625 1.46875q0.390625 0.59375 1.140625 0.921875q0.765625 0.3125 1.875 0.3125q1.0 0 2.0 -0.265625q1.0 -0.265625 1.828125 -0.75l0 2.078125q-0.953125 0.640625 -2.171875 0.984375q-1.203125 0.34375 -2.59375 0.34375zm5.9147644 -9.390625l3.328125 0l0.546875 3.265625l0 5.875l-3.265625 0l0 -6.0625l-0.609375 -3.078125zm8.15625 -0.140625l0 2.78125q-0.484375 -0.09375 -0.90625 -0.125q-0.421875 -0.046875 -0.78125 -0.046875q-0.703125 0 -1.296875 0.28125q-0.578125 0.28125 -0.9375 0.921875q-0.359375 0.640625 -0.359375 1.703125l-0.625 -0.765625q0.125 -0.984375 0.375 -1.859375q0.265625 -0.875 0.703125 -1.546875q0.4375 -0.6875 1.09375 -1.078125q0.65625 -0.390625 1.59375 -0.390625q0.28125 0 0.5625 0.03125q0.296875 0.03125 0.578125 0.09375zm1.1136475 0l1.65625 0.328125l1.625 -0.328125l0 9.28125l-3.28125 0l0 -9.28125zm1.640625 -0.75q-0.84375 0 -1.375 -0.421875q-0.53125 -0.421875 -0.53125 -1.15625q0 -0.734375 0.53125 -1.15625q0.53125 -0.4375 1.375 -0.4375q0.875 0 1.390625 0.4375q0.53125 0.421875 0.53125 1.15625q0 0.734375 -0.53125 1.15625q-0.515625 0.421875 -1.390625 0.421875zm11.697006 10.03125l-0.421875 -3.296875l0.4375 -1.265625l-0.4375 -1.265625l0.421875 -3.3125l3.390625 0l-0.578125 4.5625l0.578125 4.578125l-3.390625 0zm0.765625 -4.5625q-0.21875 1.4375 -0.890625 2.53125q-0.65625 1.09375 -1.671875 1.6875q-1.015625 0.59375 -2.3125 0.59375q-1.34375 0 -2.375 -0.59375q-1.015625 -0.59375 -1.59375 -1.6875q-0.5625 -1.109375 -0.5625 -2.53125q0 -1.453125 0.5625 -2.53125q0.578125 -1.09375 1.59375 -1.703125q1.03125 -0.609375 2.375 -0.609375q1.296875 0 2.3125 0.609375q1.015625 0.59375 1.6875 1.671875q0.671875 1.078125 0.875 2.5625zm-6.09375 0q0 0.671875 0.28125 1.203125q0.28125 0.53125 0.765625 0.828125q0.5 0.296875 1.140625 0.296875q0.671875 0 1.265625 -0.296875q0.59375 -0.296875 1.03125 -0.828125q0.453125 -0.53125 0.671875 -1.203125q-0.21875 -0.6875 -0.671875 -1.203125q-0.4375 -0.53125 -1.03125 -0.828125q-0.59375 -0.3125 -1.265625 -0.3125q-0.640625 0 -1.140625 0.3125q-0.484375 0.296875 -0.765625 0.828125q-0.28125 0.515625 -0.28125 1.203125z" fill-rule="nonzero"/><path fill="#ffffff" d="m121.56116 336.95703q0 -0.84375 0.171875 -1.765625q0.171875 -0.921875 0.46875 -1.78125q0.3125 -0.875 0.703125 -1.515625l0.859375 0q-0.40625 0.8125 -0.703125 1.703125q-0.296875 0.875 -0.453125 1.75q-0.15625 0.859375 -0.15625 1.609375q0 0.671875 0.140625 1.390625q0.140625 0.703125 0.421875 1.5q0.296875 0.78125 0.75 1.71875l-0.859375 0q-0.671875 -1.125 -1.015625 -2.296875q-0.328125 -1.171875 -0.328125 -2.3125zm8.166168 3.28125q-0.546875 0 -0.890625 -0.1875q-0.328125 -0.1875 -0.515625 -0.421875q-0.1875 -0.25 -0.28125 -0.40625l-0.109375 0l0 0.890625l-0.84375 0l0 -7.75l0.875 0l0 2.859375l0.078125 0q0.09375 -0.15625 0.265625 -0.390625q0.1875 -0.234375 0.515625 -0.421875q0.34375 -0.1875 0.90625 -0.1875q0.734375 0 1.28125 0.375q0.5625 0.359375 0.875 1.03125q0.3125 0.671875 0.3125 1.59375q0 0.921875 -0.3125 1.609375q-0.3125 0.671875 -0.875 1.046875q-0.546875 0.359375 -1.28125 0.359375zm-0.109375 -0.796875q0.5625 0 0.9375 -0.296875q0.375 -0.3125 0.5625 -0.8125q0.1875 -0.5 0.1875 -1.125q0 -0.609375 -0.1875 -1.09375q-0.1875 -0.5 -0.5625 -0.796875q-0.375 -0.296875 -0.9375 -0.296875q-0.546875 0 -0.921875 0.28125q-0.359375 0.265625 -0.546875 0.765625q-0.1875 0.484375 -0.1875 1.140625q0 0.65625 0.1875 1.15625q0.1875 0.5 0.5625 0.796875q0.375 0.28125 0.90625 0.28125zm5.155609 0.8125q-0.546875 0 -1.0 -0.203125q-0.453125 -0.21875 -0.71875 -0.625q-0.265625 -0.40625 -0.265625 -0.96875q0 -0.5 0.1875 -0.796875q0.203125 -0.3125 0.53125 -0.484375q0.328125 -0.1875 0.71875 -0.28125q0.40625 -0.09375 0.8125 -0.140625q0.53125 -0.0625 0.859375 -0.09375q0.328125 -0.046875 0.484375 -0.125q0.15625 -0.09375 0.15625 -0.3125l0 -0.03125q0 -0.5625 -0.3125 -0.859375q-0.296875 -0.3125 -0.921875 -0.3125q-0.625 0 -1.0 0.28125q-0.359375 0.265625 -0.5 0.59375l-0.859375 -0.3125q0.234375 -0.53125 0.609375 -0.828125q0.390625 -0.296875 0.84375 -0.40625q0.453125 -0.125 0.875 -0.125q0.28125 0 0.640625 0.0625q0.375 0.0625 0.71875 0.28125q0.34375 0.203125 0.5625 0.625q0.234375 0.40625 0.234375 1.09375l0 3.828125l-0.890625 0l0 -0.796875l-0.046875 0q-0.078125 0.1875 -0.296875 0.40625q-0.21875 0.21875 -0.578125 0.375q-0.34375 0.15625 -0.84375 0.15625zm0.140625 -0.8125q0.515625 0 0.875 -0.203125q0.375 -0.203125 0.5625 -0.53125q0.1875 -0.34375 0.1875 -0.703125l0 -0.8125q-0.0625 0.0625 -0.25 0.125q-0.1875 0.046875 -0.4375 0.09375q-0.25 0.03125 -0.484375 0.0625q-0.21875 0.03125 -0.359375 0.046875q-0.359375 0.046875 -0.65625 0.15625q-0.296875 0.09375 -0.484375 0.296875q-0.1875 0.1875 -0.1875 0.53125q0 0.46875 0.34375 0.703125q0.34375 0.234375 0.890625 0.234375zm4.499817 -1.453125l-0.015625 -1.09375l0.1875 0l2.53125 -2.59375l1.109375 0l-2.703125 2.75l-0.09375 0l-1.015625 0.9375zm-0.828125 2.125l0 -7.75l0.875 0l0 7.75l-0.875 0zm3.671875 0l-2.265625 -2.875l0.640625 -0.625l2.78125 3.5l-1.15625 0zm6.294464 -1.421875q-0.453125 0 -0.84375 -0.21875q-0.375 -0.234375 -0.609375 -0.609375q-0.21875 -0.390625 -0.21875 -0.84375q0 -0.453125 0.21875 -0.828125q0.234375 -0.390625 0.609375 -0.609375q0.390625 -0.21875 0.84375 -0.21875q0.453125 0 0.828125 0.21875q0.390625 0.21875 0.609375 0.609375q0.21875 0.375 0.21875 0.828125q0 0.453125 -0.21875 0.84375q-0.21875 0.375 -0.609375 0.609375q-0.375 0.21875 -0.828125 0.21875z" fill-rule="nonzero"/><path fill="#ffffff" d="m156.85739 334.30078l0 1.21875l-3.5 0l0 -1.21875l3.5 0zm-2.703125 -1.390625l1.609375 0l0 5.40625q0 0.296875 0.125 0.4375q0.125 0.140625 0.40625 0.140625q0.09375 0 0.203125 -0.015625q0.125 -0.015625 0.203125 -0.046875l0.265625 1.21875q-0.265625 0.078125 -0.515625 0.109375q-0.25 0.03125 -0.484375 0.03125q-0.875 0 -1.34375 -0.421875q-0.46875 -0.4375 -0.46875 -1.234375l0 -5.625zm5.996292 7.3125q-0.890625 0 -1.546875 -0.359375q-0.65625 -0.359375 -1.0 -1.03125q-0.34375 -0.6875 -0.34375 -1.59375q0 -0.90625 0.34375 -1.578125q0.34375 -0.671875 0.96875 -1.046875q0.640625 -0.390625 1.5 -0.390625q0.578125 0 1.078125 0.1875q0.5 0.1875 0.875 0.5625q0.375 0.359375 0.578125 0.921875q0.203125 0.546875 0.203125 1.28125l0 0.4375l-4.90625 0l0 -0.984375l4.125 0l-0.75 0.25q0 -0.4375 -0.140625 -0.765625q-0.125 -0.328125 -0.390625 -0.5q-0.265625 -0.1875 -0.671875 -0.1875q-0.390625 0 -0.671875 0.1875q-0.265625 0.171875 -0.40625 0.484375q-0.140625 0.3125 -0.140625 0.71875l0 0.703125q0 0.46875 0.15625 0.8125q0.171875 0.328125 0.46875 0.515625q0.296875 0.171875 0.6875 0.171875q0.265625 0 0.484375 -0.078125q0.21875 -0.078125 0.375 -0.21875q0.171875 -0.15625 0.25 -0.375l1.484375 0.109375q-0.109375 0.53125 -0.453125 0.9375q-0.34375 0.390625 -0.890625 0.609375q-0.546875 0.21875 -1.265625 0.21875zm5.999344 0q-0.890625 0 -1.546875 -0.359375q-0.65625 -0.359375 -1.0 -1.03125q-0.34375 -0.6875 -0.34375 -1.59375q0 -0.90625 0.34375 -1.578125q0.34375 -0.671875 0.96875 -1.046875q0.640625 -0.390625 1.5 -0.390625q0.578125 0 1.078125 0.1875q0.5 0.1875 0.875 0.5625q0.375 0.359375 0.578125 0.921875q0.203125 0.546875 0.203125 1.28125l0 0.4375l-4.90625 0l0 -0.984375l4.125 0l-0.75 0.25q0 -0.4375 -0.140625 -0.765625q-0.125 -0.328125 -0.390625 -0.5q-0.265625 -0.1875 -0.671875 -0.1875q-0.390625 0 -0.671875 0.1875q-0.265625 0.171875 -0.40625 0.484375q-0.140625 0.3125 -0.140625 0.71875l0 0.703125q0 0.46875 0.15625 0.8125q0.171875 0.328125 0.46875 0.515625q0.296875 0.171875 0.6875 0.171875q0.265625 0 0.484375 -0.078125q0.21875 -0.078125 0.375 -0.21875q0.171875 -0.15625 0.25 -0.375l1.484375 0.109375q-0.109375 0.53125 -0.453125 0.9375q-0.34375 0.390625 -0.890625 0.609375q-0.546875 0.21875 -1.265625 0.21875zm7.077469 -2.578125l0 -3.34375l1.609375 0l0 5.8125l-1.546875 0l0 -1.0625l-0.0625 0q-0.203125 0.515625 -0.65625 0.828125q-0.453125 0.3125 -1.109375 0.3125q-0.578125 0 -1.03125 -0.265625q-0.4375 -0.265625 -0.6875 -0.75q-0.25 -0.5 -0.25 -1.171875l0 -3.703125l1.609375 0l0 3.421875q0 0.5 0.28125 0.8125q0.28125 0.296875 0.734375 0.28125q0.28125 0 0.53125 -0.125q0.25 -0.140625 0.40625 -0.40625q0.171875 -0.265625 0.171875 -0.640625zm4.155319 -0.890625l0 3.359375l-1.609375 0l0 -7.75l1.5625 0l0 2.96875l0.078125 0q0.1875 -0.515625 0.625 -0.8125q0.4375 -0.296875 1.109375 -0.296875q0.59375 0 1.046875 0.265625q0.453125 0.265625 0.703125 0.75q0.265625 0.484375 0.265625 1.171875l0 3.703125l-1.625 0l0 -3.40625q0 -0.546875 -0.28125 -0.84375q-0.265625 -0.296875 -0.75 -0.296875q-0.34375 0 -0.59375 0.140625q-0.234375 0.140625 -0.390625 0.40625q-0.140625 0.265625 -0.140625 0.640625z" fill-rule="nonzero"/><path fill="#ffffff" d="m186.87927 338.6914q-0.453125 0 -0.84375 -0.21875q-0.375 -0.234375 -0.609375 -0.609375q-0.21875 -0.390625 -0.21875 -0.84375q0 -0.453125 0.21875 -0.828125q0.234375 -0.390625 0.609375 -0.609375q0.390625 -0.21875 0.84375 -0.21875q0.453125 0 0.828125 0.21875q0.390625 0.21875 0.609375 0.609375q0.21875 0.375 0.21875 0.828125q0 0.453125 -0.21875 0.84375q-0.21875 0.375 -0.609375 0.609375q-0.375 0.21875 -0.828125 0.21875zm5.320801 1.421875l0 -5.8125l0.84375 0l0 0.875l0.0625 0q0.171875 -0.421875 0.578125 -0.6875q0.421875 -0.28125 0.9375 -0.28125q0.109375 0 0.25 0.015625q0.140625 0 0.21875 0l0 0.90625q-0.046875 -0.015625 -0.203125 -0.03125q-0.15625 -0.015625 -0.34375 -0.015625q-0.421875 0 -0.75 0.171875q-0.328125 0.171875 -0.53125 0.484375q-0.1875 0.3125 -0.1875 0.703125l0 3.671875l-0.875 0zm5.7101593 0.125q-0.828125 0 -1.4375 -0.375q-0.609375 -0.375 -0.9375 -1.046875q-0.328125 -0.671875 -0.328125 -1.5625q0 -0.890625 0.3125 -1.578125q0.328125 -0.6875 0.90625 -1.0625q0.59375 -0.390625 1.375 -0.390625q0.453125 0 0.890625 0.15625q0.453125 0.140625 0.8125 0.484375q0.375 0.34375 0.59375 0.90625q0.21875 0.546875 0.21875 1.359375l0 0.375l-4.484375 0l0 -0.765625l4.0 0l-0.40625 0.296875q0 -0.578125 -0.1875 -1.03125q-0.171875 -0.453125 -0.546875 -0.71875q-0.359375 -0.265625 -0.890625 -0.265625q-0.53125 0 -0.921875 0.265625q-0.375 0.265625 -0.578125 0.6875q-0.203125 0.421875 -0.203125 0.90625l0 0.515625q0 0.65625 0.21875 1.109375q0.234375 0.453125 0.640625 0.703125q0.421875 0.234375 0.953125 0.234375q0.359375 0 0.640625 -0.09375q0.28125 -0.109375 0.484375 -0.3125q0.21875 -0.21875 0.328125 -0.515625l0.859375 0.25q-0.125 0.4375 -0.453125 0.765625q-0.3125 0.328125 -0.796875 0.515625q-0.46875 0.1875 -1.0625 0.1875zm5.681946 0q-0.828125 0 -1.4375 -0.375q-0.609375 -0.375 -0.9375 -1.046875q-0.328125 -0.671875 -0.328125 -1.5625q0 -0.890625 0.3125 -1.578125q0.328125 -0.6875 0.90625 -1.0625q0.59375 -0.390625 1.375 -0.390625q0.453125 0 0.890625 0.15625q0.453125 0.140625 0.8125 0.484375q0.375 0.34375 0.59375 0.90625q0.21875 0.546875 0.21875 1.359375l0 0.375l-4.484375 0l0 -0.765625l4.0 0l-0.40625 0.296875q0 -0.578125 -0.1875 -1.03125q-0.171875 -0.453125 -0.546875 -0.71875q-0.359375 -0.265625 -0.890625 -0.265625q-0.53125 0 -0.921875 0.265625q-0.375 0.265625 -0.578125 0.6875q-0.203125 0.421875 -0.203125 0.90625l0 0.515625q0 0.65625 0.21875 1.109375q0.234375 0.453125 0.640625 0.703125q0.421875 0.234375 0.953125 0.234375q0.359375 0 0.640625 -0.09375q0.28125 -0.109375 0.484375 -0.3125q0.21875 -0.21875 0.328125 -0.515625l0.859375 0.25q-0.125 0.4375 -0.453125 0.765625q-0.3125 0.328125 -0.796875 0.515625q-0.46875 0.1875 -1.0625 0.1875zm7.9295044 -1.546875q-0.453125 0 -0.84375 -0.21875q-0.375 -0.234375 -0.609375 -0.609375q-0.21875 -0.390625 -0.21875 -0.84375q0 -0.453125 0.21875 -0.828125q0.234375 -0.390625 0.609375 -0.609375q0.390625 -0.21875 0.84375 -0.21875q0.453125 0 0.828125 0.21875q0.390625 0.21875 0.609375 0.609375q0.21875 0.375 0.21875 0.828125q0 0.453125 -0.21875 0.84375q-0.21875 0.375 -0.609375 0.609375q-0.375 0.21875 -0.828125 0.21875zm8.977051 -0.953125l0 -3.4375l0.890625 0l0 5.8125l-0.890625 0l0 -0.984375l-0.0625 0q-0.203125 0.4375 -0.640625 0.75q-0.421875 0.3125 -1.078125 0.3125q-0.546875 0 -0.96875 -0.234375q-0.421875 -0.25 -0.671875 -0.734375q-0.234375 -0.484375 -0.234375 -1.234375l0 -3.6875l0.875 0l0 3.640625q0 0.625 0.359375 1.015625q0.375 0.375 0.921875 0.359375q0.328125 0 0.671875 -0.15625q0.359375 -0.171875 0.59375 -0.515625q0.234375 -0.359375 0.234375 -0.90625zm2.9111023 -1.125l0 3.5l-0.875 0l0 -7.75l0.875 0l0 2.84375l0.09375 0q0.203125 -0.453125 0.609375 -0.71875q0.40625 -0.265625 1.09375 -0.265625q0.59375 0 1.03125 0.234375q0.453125 0.234375 0.703125 0.734375q0.25 0.484375 0.25 1.234375l0 3.6875l-0.890625 0l0 -3.625q0 -0.703125 -0.359375 -1.078125q-0.359375 -0.390625 -1.0 -0.390625q-0.4375 0 -0.78125 0.1875q-0.34375 0.1875 -0.546875 0.546875q-0.203125 0.359375 -0.203125 0.859375zm7.1012573 4.953125q0.453125 -0.9375 0.734375 -1.71875q0.296875 -0.796875 0.4375 -1.5q0.140625 -0.71875 0.140625 -1.390625q0 -0.75 -0.15625 -1.609375q-0.15625 -0.875 -0.453125 -1.75q-0.296875 -0.890625 -0.703125 -1.703125l0.859375 0q0.40625 0.640625 0.703125 1.515625q0.296875 0.859375 0.46875 1.78125q0.171875 0.921875 0.171875 1.765625q0 1.140625 -0.34375 2.3125q-0.328125 1.171875 -1.0 2.296875l-0.859375 0z" fill-rule="nonzero"/><path fill="#3b4652" d="m92.97752 136.65205l0 0c0 -10.866173 8.808769 -19.674934 19.674934 -19.674934l78.69738 0l0 0c5.218109 0 10.222504 2.0728836 13.912277 5.7626495c3.6897583 3.689766 5.7626495 8.69416 5.7626495 13.912285l0 78.69737c0 10.866165 -8.808762 19.674927 -19.674927 19.674927l-78.69738 0c-10.866165 0 -19.674934 -8.808762 -19.674934 -19.674927z" fill-rule="evenodd"/><path fill="#3b4652" d="m102.38627 142.9163l0 0c0 -9.129562 7.400963 -16.530518 16.53051 -16.530518l66.12007 0l0 0c4.3841705 0 8.588776 1.7416077 11.688843 4.841675c3.1000671 3.1000671 4.841675 7.3046722 4.841675 11.688843l0 66.12007c0 9.129547 -7.4009705 16.530518 -16.530518 16.530518l-66.12007 0c-9.129547 0 -16.53051 -7.4009705 -16.53051 -16.530518z" fill-rule="evenodd"/><path fill="#3b4652" d="m108.79 147.19447l0 0c0 -7.9553833 6.449112 -14.404495 14.404488 -14.404495l57.616226 0l0 0c3.8202972 0 7.484146 1.5176239 10.185501 4.218979c2.7013702 2.7013702 4.218979 6.365204 4.218979 10.185516l0 57.616226c0 7.955368 -6.449112 14.40448 -14.40448 14.40448l-57.616226 0c-7.9553757 0 -14.404488 -6.449112 -14.404488 -14.40448z" fill-rule="evenodd"/><path fill="#3b4652" d="m92.97752 146.71861l9.385826 0l0 58.551178l-9.385826 0z" fill-rule="evenodd"/><path fill="#3b4652" d="m201.58852 146.71861l9.385834 0l0 58.551178l-9.385834 0z" fill-rule="evenodd"/><path fill="#3b4652" d="m102.38672 150.98842l6.3622055 0l0 49.984253l-6.3622055 0z" fill-rule="evenodd"/><path fill="#3b4652" d="m195.20094 150.98842l6.362213 0l0 49.984253l-6.362213 0z" fill-rule="evenodd"/><path fill="#3b4652" d="m112.87664 145.98961l0 0c0 -3.081833 2.4983215 -5.5801544 5.580162 -5.5801544l22.319992 0l0 0c1.47995 0 2.899292 0.5879059 3.9457703 1.6343842c1.0464783 1.0464935 1.6343842 2.4658203 1.6343842 3.9457703l0 22.319992c0 3.081833 -2.4983215 5.5801697 -5.5801544 5.5801697l-22.319992 0c-3.0818405 0 -5.580162 -2.4983368 -5.580162 -5.5801697z" fill-rule="evenodd"/><path fill="#3b4652" d="m156.87138 146.81374l0 0c0 -2.3541412 1.9084167 -4.262558 4.262558 -4.262558l17.049698 0l0 0c1.1305084 0 2.2146912 0.44909668 3.0140839 1.2484741c0.79937744 0.7993927 1.2484741 1.8835754 1.2484741 3.0140839l0 17.049698c0 2.3541412 -1.9084167 4.262558 -4.262558 4.262558l-17.049698 0c-2.3541412 0 -4.262558 -1.9084167 -4.262558 -4.262558z" fill-rule="evenodd"/><path fill="#3b4652" d="m166.44882 187.26517l0 0c0 -1.9888458 1.6122742 -3.60112 3.60112 -3.60112l14.404053 0l0 0c0.9550781 0 1.8710327 0.37939453 2.5463867 1.0547333c0.67533875 0.675354 1.0547333 1.5913086 1.0547333 2.5463867l0 14.404053c0 1.9888458 -1.6122742 3.60112 -3.60112 3.60112l-14.404053 0c-1.9888458 0 -3.60112 -1.6122742 -3.60112 -3.60112z" fill-rule="evenodd"/><path fill="#3b4652" d="m121.61944 187.92659l0 0c0 -2.3541412 1.9084091 -4.2625427 4.2625504 -4.2625427l17.049698 0l0 0c1.1305084 0 2.2146912 0.44908142 3.0140839 1.2484741c0.79937744 0.79937744 1.2484741 1.8835754 1.2484741 3.0140686l0 17.049698c0 2.3541412 -1.9084167 4.262558 -4.262558 4.262558l-17.049698 0c-2.3541412 0 -4.2625504 -1.9084167 -4.2625504 -4.262558z" fill-rule="evenodd"/><path fill="#14b065" d="m76.97752 120.652054l0 0c0 -10.866173 8.808769 -19.674934 19.674934 -19.674934l78.69738 0l0 0c5.218109 0 10.222504 2.0728836 13.912277 5.7626495c3.6897583 3.689766 5.7626495 8.694168 5.7626495 13.912285l0 78.69737c0 10.866165 -8.808762 19.674927 -19.674927 19.674927l-78.69738 0c-10.866165 0 -19.674934 -8.808762 -19.674934 -19.674927z" fill-rule="evenodd"/><path fill="#008544" d="m86.38627 126.9163l0 0c0 -9.129547 7.400963 -16.53051 16.53051 -16.53051l66.12007 0l0 0c4.3841705 0 8.588776 1.7416 11.688843 4.841675c3.1000671 3.1000748 4.841675 7.3046722 4.841675 11.688835l0 66.12008c0 9.129547 -7.4009705 16.530518 -16.530518 16.530518l-66.12007 0c-9.129547 0 -16.53051 -7.4009705 -16.53051 -16.530518z" fill-rule="evenodd"/><path fill="#46ef9d" d="m92.79 131.19447l0 0c0 -7.9553757 6.449112 -14.404488 14.404488 -14.404488l57.616226 0l0 0c3.8202972 0 7.484146 1.5176086 10.185501 4.218979c2.7013702 2.7013626 4.218979 6.365204 4.218979 10.185509l0 57.616226c0 7.955368 -6.449112 14.40448 -14.40448 14.40448l-57.616226 0c-7.9553757 0 -14.404488 -6.449112 -14.404488 -14.40448z" fill-rule="evenodd"/><path fill="#46ef9d" d="m76.97752 130.71861l9.385826 0l0 58.551178l-9.385826 0z" fill-rule="evenodd"/><path fill="#46ef9d" d="m185.58852 130.71861l9.385834 0l0 58.551178l-9.385834 0z" fill-rule="evenodd"/><path fill="#14b065" d="m86.38672 134.98842l6.3622055 0l0 49.984253l-6.3622055 0z" fill-rule="evenodd"/><path fill="#14b065" d="m179.20094 134.98842l6.362213 0l0 49.984253l-6.362213 0z" fill-rule="evenodd"/><path fill="#004d28" d="m96.87664 129.98961l0 0c0 -3.081833 2.4983215 -5.580162 5.580162 -5.580162l22.319992 0l0 0c1.47995 0 2.8992844 0.5879135 3.9457703 1.6343918c1.0464783 1.0464859 1.6343842 2.4658203 1.6343842 3.9457703l0 22.319992c0 3.081833 -2.4983215 5.5801697 -5.5801544 5.5801697l-22.319992 0c-3.0818405 0 -5.580162 -2.4983368 -5.580162 -5.5801697z" fill-rule="evenodd"/><path fill="#004d28" d="m140.87138 130.81374l0 0c0 -2.3541412 1.9084167 -4.262558 4.262558 -4.262558l17.049698 0l0 0c1.1305084 0 2.2146912 0.44908905 3.0140839 1.2484741c0.79937744 0.7993927 1.2484741 1.8835754 1.2484741 3.0140839l0 17.049698c0 2.3541412 -1.9084167 4.262558 -4.262558 4.262558l-17.049698 0c-2.3541412 0 -4.262558 -1.9084167 -4.262558 -4.262558z" fill-rule="evenodd"/><path fill="#004d28" d="m150.44882 171.26517l0 0c0 -1.9888458 1.6122742 -3.60112 3.60112 -3.60112l14.404053 0l0 0c0.9550781 0 1.8710327 0.37939453 2.5463867 1.0547333c0.67533875 0.675354 1.0547333 1.5913086 1.0547333 2.5463867l0 14.404053c0 1.9888458 -1.6122742 3.60112 -3.60112 3.60112l-14.404053 0c-1.9888458 0 -3.60112 -1.6122742 -3.60112 -3.60112z" fill-rule="evenodd"/><path fill="#004d28" d="m105.61944 171.92659l0 0c0 -2.3541412 1.9084091 -4.2625427 4.2625504 -4.2625427l17.049698 0l0 0c1.1305084 0 2.2146912 0.44908142 3.0140839 1.2484741c0.79937744 0.79937744 1.2484741 1.8835754 1.2484741 3.0140686l0 17.049698c0 2.3541412 -1.9084167 4.262558 -4.262558 4.262558l-17.049698 0c-2.3541412 0 -4.2625504 -1.9084167 -4.2625504 -4.262558z" fill-rule="evenodd"/></g></svg>