<svg version="1.1" viewBox="0.0 0.0 288.0 384.0" fill="none" stroke="none" stroke-linecap="square" stroke-miterlimit="10" xmlns:xlink="http://www.w3.org/1999/xlink" xmlns="http://www.w3.org/2000/svg"><clipPath id="g3ae486ae86a_0_369.0"><path d="m0 0l288.0 0l0 384.0l-288.0 0l0 -384.0z" clip-rule="nonzero"/></clipPath><g clip-path="url(#g3ae486ae86a_0_369.0)"><path fill="#161d25" d="m0 0l288.0 0l0 384.0l-288.0 0z" fill-rule="evenodd"/><path fill="#3b4652" d="m5.7007875 34.135216l0 0c0 -9.966135 8.079147 -18.045282 18.04528 -18.045282l240.50787 0c4.7858887 0 9.375793 1.9011936 12.759949 5.2853394c3.3841248 3.3841476 5.2853394 7.9740353 5.2853394 12.759943l0 324.2244c0 9.9661255 -8.079163 18.045288 -18.045288 18.045288l-240.50787 0l0 0c-9.966134 0 -18.04528 -8.079163 -18.04528 -18.045288z" fill-rule="evenodd"/><path stroke="#3b4652" stroke-width="4.0" stroke-linejoin="round" stroke-linecap="butt" d="m5.7007875 34.135216l0 0c0 -9.966135 8.079147 -18.045282 18.04528 -18.045282l240.50787 0c4.7858887 0 9.375793 1.9011936 12.759949 5.2853394c3.3841248 3.3841476 5.2853394 7.9740353 5.2853394 12.759943l0 324.2244c0 9.9661255 -8.079163 18.045288 -18.045288 18.045288l-240.50787 0l0 0c-9.966134 0 -18.04528 -8.079163 -18.04528 -18.045288z" fill-rule="evenodd"/><path fill="#161d25" d="m5.7007875 25.639769l0 0c0 -9.966133 8.079147 -18.04528 18.04528 -18.04528l240.50787 0c4.7858887 0 9.375793 1.9011936 12.759949 5.2853403c3.3841248 3.3841467 5.2853394 7.9740343 5.2853394 12.75994l0 324.2244c0 9.9661255 -8.079163 18.045288 -18.045288 18.045288l-240.50787 0l0 0c-9.966134 0 -18.04528 -8.079163 -18.04528 -18.045288z" fill-rule="evenodd"/><path stroke="#3b4652" stroke-width="4.0" stroke-linejoin="round" stroke-linecap="butt" d="m5.7007875 25.639769l0 0c0 -9.966133 8.079147 -18.04528 18.04528 -18.04528l240.50787 0c4.7858887 0 9.375793 1.9011936 12.759949 5.2853403c3.3841248 3.3841467 5.2853394 7.9740343 5.2853394 12.75994l0 324.2244c0 9.9661255 -8.079163 18.045288 -18.045288 18.045288l-240.50787 0l0 0c-9.966134 0 -18.04528 -8.079163 -18.04528 -18.045288z" fill-rule="evenodd"/><path fill="#3b4652" d="m145.97409 215.72108l0 0c0 -3.1899414 2.585968 -5.775894 5.7759094 -5.775894l23.102936 0l0 0c1.5318756 0 3.0009918 0.6085205 4.0841827 1.6917114c1.0831909 1.0832062 1.6917267 2.5523224 1.6917267 4.0841827l0 24.20372c0 3.1899414 -2.5859528 5.7759094 -5.7759094 5.7759094l-23.102936 0c-3.1899414 0 -5.7759094 -2.585968 -5.7759094 -5.7759094z" fill-rule="evenodd"/><path fill="#3b4652" d="m136.24403 134.43246l0 0c0 -2.8425446 2.3043365 -5.146881 5.146881 -5.146881l20.586899 0l0 0c1.365036 0 2.674179 0.5422516 3.6394043 1.5074921c0.9652252 0.9652252 1.5074768 2.274353 1.5074768 3.639389l0 90.289536c0 2.8425446 -2.3043365 5.146881 -5.146881 5.146881l-20.586899 0c-2.8425446 0 -5.146881 -2.3043365 -5.146881 -5.146881z" fill-rule="evenodd"/><path fill="#3b4652" d="m159.47824 138.18681l0 0c0 -0.7038574 0.57058716 -1.2744293 1.2744446 -1.2744293l5.09758 0l0 0c0.33799744 0 0.66215515 0.13426208 0.90115356 0.37327576c0.23901367 0.23899841 0.37327576 0.5631561 0.37327576 0.90115356l0 55.35974c0 0.7038574 -0.5705719 1.2744446 -1.2744293 1.2744446l-5.09758 0c-0.7038574 0 -1.2744446 -0.57058716 -1.2744446 -1.2744446z" fill-rule="evenodd"/><path fill="#3b4652" d="m148.2248 112.058266l0 0c0 -3.6911469 2.9922638 -6.6834106 6.6834106 -6.6834106l26.732834 0l0 0c1.7725525 0 3.4725037 0.7041397 4.725876 1.9575272c1.2533875 1.2533798 1.9575348 2.953331 1.9575348 4.7258835l0 27.027687c0 3.6911469 -2.9922638 6.6834106 -6.6834106 6.6834106l-26.732834 0c-3.6911469 0 -6.6834106 -2.9922638 -6.6834106 -6.6834106z" fill-rule="evenodd"/><path fill="#3b4652" d="m115.67494 106.67069l0 0c0 -3.6911469 2.9922638 -6.6834106 6.6834106 -6.6834106l26.732834 0l0 0c1.7725525 0 3.4725037 0.7041397 4.725891 1.9575272c1.2533722 1.2533798 1.9575195 2.953331 1.9575195 4.7258835l0 27.027687c0 3.6911469 -2.9922638 6.6834106 -6.6834106 6.6834106l-26.732834 0c-3.6911469 0 -6.6834106 -2.9922638 -6.6834106 -6.6834106z" fill-rule="evenodd"/><path fill="#3b4652" d="m121.67515 109.30459l0 0c0 -0.8866043 0.71873474 -1.6053314 1.6053314 -1.6053314l6.4211197 0l0 0c0.425766 0 0.8340759 0.16913605 1.1351471 0.47019196c0.3010559 0.3010559 0.47018433 0.7093811 0.47018433 1.1351395l0 9.920013c0 0.8865967 -0.71873474 1.6053238 -1.6053314 1.6053238l-6.4211197 0c-0.8865967 0 -1.6053314 -0.7187271 -1.6053314 -1.6053238z" fill-rule="evenodd"/><path fill="#3b4652" d="m140.58488 152.48541l0 0c0 -0.70384216 0.57058716 -1.2744293 1.2744446 -1.2744293l5.09758 0l0 0c0.33799744 0 0.66215515 0.13427734 0.90115356 0.37327576c0.23901367 0.23899841 0.37327576 0.5631561 0.37327576 0.90115356l0 34.62195c0 0.70384216 -0.57058716 1.2744293 -1.2744293 1.2744293l-5.09758 0c-0.7038574 0 -1.2744446 -0.57058716 -1.2744446 -1.2744293z" fill-rule="evenodd"/><path fill="#3b4652" d="m115.67494 222.03416l0 0c0 -3.1899414 2.5859604 -5.7759094 5.7759094 -5.7759094l23.102936 0l0 0c1.5318604 0 3.0009918 0.60853577 4.0841827 1.6917267c1.0831909 1.0831909 1.6917267 2.5523224 1.6917267 4.0841827l0 24.203705c0 3.1899567 -2.585968 5.7759094 -5.7759094 5.7759094l-23.102936 0c-3.189949 0 -5.7759094 -2.5859528 -5.7759094 -5.7759094z" fill-rule="evenodd"/><path fill="#3b4652" d="m150.03157 218.59743l0 0c0 -0.52835083 0.42829895 -0.9566498 0.9566345 -0.9566498l3.826477 0l0 0c0.2537079 0 0.4970398 0.1007843 0.6764374 0.28019714c0.17941284 0.17939758 0.28019714 0.4227295 0.28019714 0.67645264l0 26.156464c0 0.5283356 -0.42829895 0.9566498 -0.9566345 0.9566498l-3.826477 0c-0.5283356 0 -0.9566345 -0.4283142 -0.9566345 -0.9566498z" fill-rule="evenodd"/><path fill="#3b4652" d="m120.230385 221.26091l0 0c0 -0.5518646 0.44737244 -0.99923706 0.99922943 -0.99923706l14.021744 0c0.26501465 0 0.51916504 0.105270386 0.7065582 0.29266357c0.18739319 0.18739319 0.29266357 0.44155884 0.29266357 0.7065735l0 3.996811c0 0.5518646 -0.44737244 0.99923706 -0.9992218 0.99923706l-14.021744 0l0 0c-0.551857 0 -0.99922943 -0.44737244 -0.99922943 -0.99923706z" fill-rule="evenodd"/><path fill="#3b4652" d="m154.11688 224.70084l0 0c0 -0.76174927 0.6175232 -1.3792725 1.3792725 -1.3792725l6.87323 0c0.3658142 0 0.716629 0.14530945 0.975296 0.40397644c0.258667 0.258667 0.40397644 0.6094971 0.40397644 0.975296l0 5.516922c0 0.76174927 -0.6175232 1.3792725 -1.3792725 1.3792725l-6.87323 0l0 0c-0.76174927 0 -1.3792725 -0.6175232 -1.3792725 -1.3792725z" fill-rule="evenodd"/><path fill="#fdf0d9" d="m129.97409 199.72108l0 0c0 -3.1899414 2.585968 -5.775894 5.7759094 -5.775894l23.102936 0l0 0c1.5318756 0 3.0009918 0.6085205 4.0841827 1.6917114c1.0831909 1.0832062 1.6917267 2.5523224 1.6917267 4.0841827l0 24.20372c0 3.1899414 -2.5859528 5.7759094 -5.7759094 5.7759094l-23.102936 0c-3.1899414 0 -5.7759094 -2.585968 -5.7759094 -5.7759094z" fill-rule="evenodd"/><path fill="#fdf0d9" d="m120.24403 118.432465l0 0c0 -2.8425446 2.3043365 -5.146881 5.146881 -5.146881l20.586899 0l0 0c1.365036 0 2.674179 0.5422592 3.6394043 1.5074844c0.9652252 0.9652252 1.5074768 2.2743607 1.5074768 3.6393967l0 90.289536c0 2.8425446 -2.3043365 5.146881 -5.146881 5.146881l-20.586899 0c-2.8425446 0 -5.146881 -2.3043365 -5.146881 -5.146881z" fill-rule="evenodd"/><path fill="#f1dfc6" d="m143.47824 122.18681l0 0c0 -0.7038498 0.57058716 -1.274437 1.2744446 -1.274437l5.09758 0l0 0c0.33799744 0 0.66215515 0.13426971 0.90115356 0.37327576c0.23901367 0.23900604 0.37327576 0.56316376 0.37327576 0.9011612l0 55.35974c0 0.7038574 -0.5705719 1.2744446 -1.2744293 1.2744446l-5.09758 0c-0.7038574 0 -1.2744446 -0.57058716 -1.2744446 -1.2744446z" fill-rule="evenodd"/><path fill="#f1dfc6" d="m132.2248 96.058266l0 0c0 -3.6911469 2.9922638 -6.6834106 6.6834106 -6.6834106l26.732834 0l0 0c1.7725525 0 3.4725037 0.7041397 4.725876 1.9575272c1.2533875 1.2533798 1.9575348 2.953331 1.9575348 4.7258835l0 27.02768c0 3.6911469 -2.9922638 6.6834183 -6.6834106 6.6834183l-26.732834 0c-3.6911469 0 -6.6834106 -2.9922714 -6.6834106 -6.6834183z" fill-rule="evenodd"/><path fill="#fdf0d9" d="m99.67494 90.67069l0 0c0 -3.6911469 2.9922638 -6.6834106 6.6834106 -6.6834106l26.732834 0l0 0c1.7725525 0 3.4725037 0.7041397 4.725891 1.9575272c1.2533722 1.2533798 1.9575195 2.953331 1.9575195 4.7258835l0 27.027687c0 3.6911392 -2.9922638 6.683403 -6.6834106 6.683403l-26.732834 0c-3.6911469 0 -6.6834106 -2.9922638 -6.6834106 -6.683403z" fill-rule="evenodd"/><path fill="#fff8eb" d="m105.67515 93.30459l0 0c0 -0.8866043 0.71873474 -1.6053314 1.6053314 -1.6053314l6.4211197 0l0 0c0.42575836 0 0.83408356 0.16913605 1.1351395 0.47019196c0.3010559 0.3010559 0.47019196 0.7093811 0.47019196 1.1351395l0 9.920013c0 0.8865967 -0.71873474 1.6053238 -1.6053314 1.6053238l-6.4211197 0c-0.8865967 0 -1.6053314 -0.7187271 -1.6053314 -1.6053238z" fill-rule="evenodd"/><path fill="#fff8eb" d="m124.584885 136.48541l0 0c0 -0.70384216 0.57058716 -1.2744293 1.274437 -1.2744293l5.0975876 0l0 0c0.33799744 0 0.66215515 0.13427734 0.90115356 0.37327576c0.23901367 0.23899841 0.37327576 0.5631561 0.37327576 0.90115356l0 34.62195c0 0.70384216 -0.57058716 1.2744293 -1.2744293 1.2744293l-5.0975876 0c-0.7038498 0 -1.274437 -0.57058716 -1.274437 -1.2744293z" fill-rule="evenodd"/><path fill="#fdf0d9" d="m99.67494 206.03416l0 0c0 -3.1899414 2.5859604 -5.7759094 5.7759094 -5.7759094l23.102936 0l0 0c1.5318604 0 3.0009918 0.60853577 4.0841827 1.6917267c1.0831909 1.0831909 1.6917267 2.5523224 1.6917267 4.0841827l0 24.203705c0 3.1899567 -2.585968 5.7759094 -5.7759094 5.7759094l-23.102936 0c-3.189949 0 -5.7759094 -2.5859528 -5.7759094 -5.7759094z" fill-rule="evenodd"/><path fill="#f1dfc6" d="m134.03157 202.59743l0 0c0 -0.52835083 0.42829895 -0.9566498 0.9566345 -0.9566498l3.826477 0l0 0c0.2537079 0 0.4970398 0.1007843 0.6764374 0.28019714c0.17941284 0.17939758 0.28019714 0.4227295 0.28019714 0.67645264l0 26.156464c0 0.5283356 -0.42829895 0.9566498 -0.9566345 0.9566498l-3.826477 0c-0.5283356 0 -0.9566345 -0.4283142 -0.9566345 -0.9566498z" fill-rule="evenodd"/><path fill="#fff8eb" d="m104.230385 205.26091l0 0c0 -0.5518646 0.44737244 -0.99923706 0.99922943 -0.99923706l14.021736 0c0.26501465 0 0.51917267 0.105270386 0.70656586 0.29266357c0.18739319 0.18739319 0.2926712 0.44155884 0.2926712 0.7065735l0 3.996811c0 0.5518646 -0.44737244 0.99923706 -0.99923706 0.99923706l-14.021736 0l0 0c-0.551857 0 -0.99922943 -0.44737244 -0.99922943 -0.99923706z" fill-rule="evenodd"/><path fill="#f1dfc6" d="m138.11688 208.70084l0 0c0 -0.76174927 0.6175232 -1.3792725 1.3792725 -1.3792725l6.87323 0c0.3658142 0 0.716629 0.14530945 0.975296 0.40397644c0.258667 0.258667 0.40397644 0.6094971 0.40397644 0.975296l0 5.516922c0 0.76174927 -0.6175232 1.3792725 -1.3792725 1.3792725l-6.87323 0l0 0c-0.76174927 0 -1.3792725 -0.6175232 -1.3792725 -1.3792725z" fill-rule="evenodd"/><path fill="#000000" fill-opacity="0.0" d="m21.700787 315.7533l203.30708 0l0 38.771637l-203.30708 0z" fill-rule="evenodd"/><path fill="#ffffff" d="m39.950787 334.23828l0.265625 -0.625q1.390625 0.03125 2.296875 0.421875q0.90625 0.390625 1.34375 1.09375q0.453125 0.703125 0.453125 1.609375q0 0.96875 -0.453125 1.734375q-0.4375 0.765625 -1.328125 1.203125q-0.890625 0.4375 -2.21875 0.4375l-8.859375 0l0.9375 -6.15625l-0.9375 -5.84375l8.546875 0q1.65625 0 2.578125 0.78125q0.9375 0.765625 0.9375 2.140625q0 0.765625 -0.359375 1.453125q-0.34375 0.6875 -1.125 1.15625q-0.765625 0.46875 -2.078125 0.59375zm-5.21875 5.109375l-1.28125 -1.546875l5.96875 0q0.71875 0 1.109375 -0.359375q0.40625 -0.359375 0.40625 -0.96875q0 -0.625 -0.4375 -1.0q-0.421875 -0.390625 -1.265625 -0.390625l-4.9375 0l0 -2.265625l4.484375 0q0.578125 0 0.96875 -0.34375q0.390625 -0.34375 0.390625 -0.9375q0 -0.484375 -0.34375 -0.796875q-0.328125 -0.3125 -0.953125 -0.3125l-5.375 0l1.265625 -1.546875l0.8125 5.078125l-0.8125 5.390625zm16.392517 1.015625q-1.765625 0 -3.078125 -0.59375q-1.3125 -0.59375 -2.046875 -1.6875q-0.734375 -1.109375 -0.734375 -2.53125q0 -1.453125 0.734375 -2.53125q0.734375 -1.09375 2.046875 -1.703125q1.3125 -0.609375 3.078125 -0.609375q1.734375 0 3.046875 0.609375q1.328125 0.609375 2.0625 1.703125q0.734375 1.078125 0.734375 2.53125q0 1.421875 -0.734375 2.53125q-0.734375 1.09375 -2.0625 1.6875q-1.3125 0.59375 -3.046875 0.59375zm0 -2.40625q0.796875 0 1.359375 -0.28125q0.5625 -0.296875 0.859375 -0.84375q0.3125 -0.546875 0.3125 -1.28125q0 -0.765625 -0.3125 -1.296875q-0.296875 -0.546875 -0.859375 -0.828125q-0.5625 -0.28125 -1.359375 -0.28125q-0.8125 0 -1.390625 0.28125q-0.5625 0.28125 -0.875 0.828125q-0.296875 0.53125 -0.296875 1.28125q0 0.75 0.296875 1.296875q0.3125 0.546875 0.875 0.84375q0.578125 0.28125 1.390625 0.28125zm6.733032 -6.984375l3.28125 0l0.59375 3.65625l0 5.484375l-3.265625 0l0 -5.984375l-0.609375 -3.15625zm7.234379 -0.265625q1.3125 0 2.234375 0.53125q0.921875 0.515625 1.40625 1.484375q0.5 0.953125 0.5 2.265625l0 5.125l-3.265625 0l0 -4.640625q0 -1.015625 -0.53125 -1.5625q-0.515625 -0.546875 -1.4843788 -0.546875q-0.671875 0 -1.1875 0.296875q-0.5 0.28125 -0.765625 0.8125q-0.265625 0.515625 -0.265625 1.234375l-1.015625 -0.515625q0.1875 -1.46875 0.8125 -2.46875q0.625 -1.0 1.53125 -1.5q0.921875 -0.515625 2.0312538 -0.515625zm11.170898 9.65625q-1.65625 0 -2.96875 -0.59375q-1.296875 -0.609375 -2.046875 -1.703125q-0.75 -1.109375 -0.75 -2.5625q0 -1.421875 0.71875 -2.5q0.71875 -1.078125 1.96875 -1.6875q1.265625 -0.609375 2.84375 -0.609375q1.640625 0 2.796875 0.71875q1.171875 0.703125 1.796875 2.0q0.640625 1.296875 0.640625 3.0625l-8.125 0l0 -1.96875l6.28125 0l-1.0625 0.6875q-0.078125 -0.703125 -0.359375 -1.1875q-0.28125 -0.5 -0.765625 -0.75q-0.46875 -0.265625 -1.125 -0.265625q-0.71875 0 -1.234375 0.296875q-0.5 0.28125 -0.796875 0.796875q-0.28125 0.5 -0.28125 1.171875q0 0.859375 0.390625 1.46875q0.390625 0.59375 1.140625 0.921875q0.765625 0.3125 1.875 0.3125q1.0 0 2.0 -0.265625q1.0 -0.265625 1.828125 -0.75l0 2.078125q-0.953125 0.640625 -2.171875 0.984375q-1.203125 0.34375 -2.59375 0.34375z" fill-rule="nonzero"/><path fill="#ffffff" d="m90.14018 336.95703q0 -0.84375 0.171875 -1.765625q0.171875 -0.921875 0.46875 -1.78125q0.3125 -0.875 0.703125 -1.515625l0.859375 0q-0.40625 0.8125 -0.703125 1.703125q-0.296875 0.875 -0.453125 1.75q-0.15625 0.859375 -0.15625 1.609375q0 0.671875 0.140625 1.390625q0.140625 0.703125 0.421875 1.5q0.296875 0.78125 0.75 1.71875l-0.859375 0q-0.671875 -1.125 -1.015625 -2.296875q-0.328125 -1.171875 -0.328125 -2.3125zm8.166168 3.28125q-0.546875 0 -0.890625 -0.1875q-0.328125 -0.1875 -0.515625 -0.421875q-0.1875 -0.25 -0.28125 -0.40625l-0.109375 0l0 0.890625l-0.84375 0l0 -7.75l0.875 0l0 2.859375l0.078125 0q0.09375 -0.15625 0.265625 -0.390625q0.1875 -0.234375 0.515625 -0.421875q0.34375 -0.1875 0.90625 -0.1875q0.734375 0 1.28125 0.375q0.5625 0.359375 0.875 1.03125q0.3125 0.671875 0.3125 1.59375q0 0.921875 -0.3125 1.609375q-0.3125 0.671875 -0.875 1.046875q-0.546875 0.359375 -1.28125 0.359375zm-0.109375 -0.796875q0.5625 0 0.9375 -0.296875q0.375 -0.3125 0.5625 -0.8125q0.1875 -0.5 0.1875 -1.125q0 -0.609375 -0.1875 -1.09375q-0.1875 -0.5 -0.5625 -0.796875q-0.375 -0.296875 -0.9375 -0.296875q-0.546875 0 -0.921875 0.28125q-0.359375 0.265625 -0.546875 0.765625q-0.1875 0.484375 -0.1875 1.140625q0 0.65625 0.1875 1.15625q0.1875 0.5 0.5625 0.796875q0.375 0.28125 0.90625 0.28125zm5.796234 0.796875q-0.78125 0 -1.375 -0.375q-0.59375 -0.375 -0.921875 -1.046875q-0.328125 -0.6875 -0.328125 -1.578125q0 -0.90625 0.328125 -1.578125q0.328125 -0.6875 0.921875 -1.0625q0.59375 -0.375 1.375 -0.375q0.796875 0 1.390625 0.375q0.59375 0.375 0.921875 1.0625q0.328125 0.671875 0.328125 1.578125q0 0.890625 -0.328125 1.578125q-0.328125 0.671875 -0.921875 1.046875q-0.59375 0.375 -1.390625 0.375zm0 -0.796875q0.609375 0 0.984375 -0.3125q0.390625 -0.3125 0.578125 -0.8125q0.1875 -0.5 0.1875 -1.078125q0 -0.578125 -0.1875 -1.078125q-0.1875 -0.515625 -0.578125 -0.828125q-0.375 -0.3125 -0.984375 -0.3125q-0.59375 0 -0.984375 0.3125q-0.375 0.3125 -0.5625 0.828125q-0.1875 0.5 -0.1875 1.078125q0 0.578125 0.1875 1.078125q0.1875 0.5 0.5625 0.8125q0.390625 0.3125 0.984375 0.3125zm4.634903 0.671875l-1.78125 -5.8125l0.9375 0l1.265625 4.453125l0.0625 0l1.234375 -4.453125l0.953125 0l1.21875 4.4375l0.0625 0l1.265625 -4.4375l0.9375 0l-1.765625 5.8125l-0.875 0l-1.28125 -4.46875l-0.09375 0l-1.28125 4.46875l-0.859375 0zm7.7211914 -3.5l0 3.5l-0.875 0l0 -5.8125l0.84375 0l0 0.90625l0.09375 0q0.203125 -0.4375 0.609375 -0.703125q0.421875 -0.28125 1.078125 -0.28125q0.59375 0 1.03125 0.25q0.4375 0.234375 0.6875 0.71875q0.25 0.484375 0.25 1.234375l0 3.6875l-0.890625 0l0 -3.625q0 -0.6875 -0.359375 -1.078125q-0.359375 -0.390625 -0.96875 -0.390625q-0.421875 0 -0.765625 0.1875q-0.34375 0.1875 -0.546875 0.546875q-0.1875 0.359375 -0.1875 0.859375zm7.0388184 4.953125q0.453125 -0.9375 0.734375 -1.71875q0.296875 -0.796875 0.4375 -1.5q0.140625 -0.71875 0.140625 -1.390625q0 -0.75 -0.15625 -1.609375q-0.15625 -0.875 -0.453125 -1.75q-0.296875 -0.890625 -0.703125 -1.703125l0.859375 0q0.40625 0.640625 0.703125 1.515625q0.296875 0.859375 0.46875 1.78125q0.171875 0.921875 0.171875 1.765625q0 1.140625 -0.34375 2.3125q-0.328125 1.171875 -1.0 2.296875l-0.859375 0z" fill-rule="nonzero"/></g></svg>