<svg version="1.1" viewBox="0.0 0.0 288.0 384.0" fill="none" stroke="none" stroke-linecap="square" stroke-miterlimit="10" xmlns:xlink="http://www.w3.org/1999/xlink" xmlns="http://www.w3.org/2000/svg"><clipPath id="g3a72db97a13_0_4203.0"><path d="m0 0l288.0 0l0 384.0l-288.0 0l0 -384.0z" clip-rule="nonzero"/></clipPath><g clip-path="url(#g3a72db97a13_0_4203.0)"><path fill="#ffffff" d="m0 0l288.0 0l0 384.0l-288.0 0z" fill-rule="evenodd"/><path fill="#d0d1d2" d="m5.7007875 34.135216l0 0c0 -9.966135 8.079147 -18.045282 18.04528 -18.045282l240.50787 0c4.7858887 0 9.375793 1.9011936 12.759949 5.2853394c3.3841248 3.3841476 5.2853394 7.9740353 5.2853394 12.759943l0 324.2244c0 9.9661255 -8.079163 18.045288 -18.045288 18.045288l-240.50787 0l0 0c-9.966134 0 -18.04528 -8.079163 -18.04528 -18.045288z" fill-rule="evenodd"/><path stroke="#d0d1d2" stroke-width="4.0" stroke-linejoin="round" stroke-linecap="butt" d="m5.7007875 34.135216l0 0c0 -9.966135 8.079147 -18.045282 18.04528 -18.045282l240.50787 0c4.7858887 0 9.375793 1.9011936 12.759949 5.2853394c3.3841248 3.3841476 5.2853394 7.9740353 5.2853394 12.759943l0 324.2244c0 9.9661255 -8.079163 18.045288 -18.045288 18.045288l-240.50787 0l0 0c-9.966134 0 -18.04528 -8.079163 -18.04528 -18.045288z" fill-rule="evenodd"/><path fill="#ffffff" d="m5.7007875 25.639769l0 0c0 -9.966133 8.079147 -18.04528 18.04528 -18.04528l240.50787 0c4.7858887 0 9.375793 1.9011936 12.759949 5.2853403c3.3841248 3.3841467 5.2853394 7.9740343 5.2853394 12.75994l0 324.2244c0 9.9661255 -8.079163 18.045288 -18.045288 18.045288l-240.50787 0l0 0c-9.966134 0 -18.04528 -8.079163 -18.04528 -18.045288z" fill-rule="evenodd"/><path stroke="#d0d1d2" stroke-width="4.0" stroke-linejoin="round" stroke-linecap="butt" d="m5.7007875 25.639769l0 0c0 -9.966133 8.079147 -18.04528 18.04528 -18.04528l240.50787 0c4.7858887 0 9.375793 1.9011936 12.759949 5.2853403c3.3841248 3.3841467 5.2853394 7.9740343 5.2853394 12.75994l0 324.2244c0 9.9661255 -8.079163 18.045288 -18.045288 18.045288l-240.50787 0l0 0c-9.966134 0 -18.04528 -8.079163 -18.04528 -18.045288z" fill-rule="evenodd"/><path fill="#000000" fill-opacity="0.0" d="m21.700787 315.7533l266.29922 0l0 38.771637l-266.29922 0z" fill-rule="evenodd"/><path fill="#000000" d="m39.950787 334.23828l0.265625 -0.625q1.390625 0.03125 2.296875 0.421875q0.90625 0.390625 1.34375 1.09375q0.453125 0.703125 0.453125 1.609375q0 0.96875 -0.453125 1.734375q-0.4375 0.765625 -1.328125 1.203125q-0.890625 0.4375 -2.21875 0.4375l-8.859375 0l0.9375 -6.15625l-0.9375 -5.84375l8.546875 0q1.65625 0 2.578125 0.78125q0.9375 0.765625 0.9375 2.140625q0 0.765625 -0.359375 1.453125q-0.34375 0.6875 -1.125 1.15625q-0.765625 0.46875 -2.078125 0.59375zm-5.21875 5.109375l-1.28125 -1.546875l5.96875 0q0.71875 0 1.109375 -0.359375q0.40625 -0.359375 0.40625 -0.96875q0 -0.625 -0.4375 -1.0q-0.421875 -0.390625 -1.265625 -0.390625l-4.9375 0l0 -2.265625l4.484375 0q0.578125 0 0.96875 -0.34375q0.390625 -0.34375 0.390625 -0.9375q0 -0.484375 -0.34375 -0.796875q-0.328125 -0.3125 -0.953125 -0.3125l-5.375 0l1.265625 -1.546875l0.8125 5.078125l-0.8125 5.390625zm16.392517 1.015625q-1.765625 0 -3.078125 -0.59375q-1.3125 -0.59375 -2.046875 -1.6875q-0.734375 -1.109375 -0.734375 -2.53125q0 -1.453125 0.734375 -2.53125q0.734375 -1.09375 2.046875 -1.703125q1.3125 -0.609375 3.078125 -0.609375q1.734375 0 3.046875 0.609375q1.328125 0.609375 2.0625 1.703125q0.734375 1.078125 0.734375 2.53125q0 1.421875 -0.734375 2.53125q-0.734375 1.09375 -2.0625 1.6875q-1.3125 0.59375 -3.046875 0.59375zm0 -2.40625q0.796875 0 1.359375 -0.28125q0.5625 -0.296875 0.859375 -0.84375q0.3125 -0.546875 0.3125 -1.28125q0 -0.765625 -0.3125 -1.296875q-0.296875 -0.546875 -0.859375 -0.828125q-0.5625 -0.28125 -1.359375 -0.28125q-0.8125 0 -1.390625 0.28125q-0.5625 0.28125 -0.875 0.828125q-0.296875 0.53125 -0.296875 1.28125q0 0.75 0.296875 1.296875q0.3125 0.546875 0.875 0.84375q0.578125 0.28125 1.390625 0.28125zm12.672028 2.40625q-1.765625 0 -3.078125 -0.59375q-1.3125 -0.59375 -2.046875 -1.6875q-0.734375 -1.109375 -0.734375 -2.53125q0 -1.453125 0.734375 -2.53125q0.734375 -1.09375 2.046875 -1.703125q1.3125 -0.609375 3.078125 -0.609375q1.7343788 0 3.0468788 0.609375q1.328125 0.609375 2.0625 1.703125q0.734375 1.078125 0.734375 2.53125q0 1.421875 -0.734375 2.53125q-0.734375 1.09375 -2.0625 1.6875q-1.3125 0.59375 -3.0468788 0.59375zm0 -2.40625q0.7968788 0 1.3593788 -0.28125q0.5625 -0.296875 0.859375 -0.84375q0.3125 -0.546875 0.3125 -1.28125q0 -0.765625 -0.3125 -1.296875q-0.296875 -0.546875 -0.859375 -0.828125q-0.5625 -0.28125 -1.3593788 -0.28125q-0.8125 0 -1.390625 0.28125q-0.5625 0.28125 -0.875 0.828125q-0.296875 0.53125 -0.296875 1.28125q0 0.75 0.296875 1.296875q0.3125 0.546875 0.875 0.84375q0.578125 0.28125 1.390625 0.28125zm10.500156 -0.453125l-0.890625 -0.296875l5.0625 -6.234375l3.4375 0l-7.953125 9.140625l-2.9375 0l0 -12.3125l3.28125 0l0 9.703125zm1.5625 -1.859375l2.453125 -1.71875l3.828125 6.1875l-3.671875 0l-2.609375 -4.46875z" fill-rule="nonzero"/><path fill="#000000" d="m90.396194 336.95703q0 -0.84375 0.171875 -1.765625q0.171875 -0.921875 0.46875 -1.78125q0.3125 -0.875 0.703125 -1.515625l0.859375 0q-0.40625 0.8125 -0.703125 1.703125q-0.296875 0.875 -0.453125 1.75q-0.15625 0.859375 -0.15625 1.609375q0 0.671875 0.140625 1.390625q0.140625 0.703125 0.421875 1.5q0.296875 0.78125 0.75 1.71875l-0.859375 0q-0.671875 -1.125 -1.015625 -2.296875q-0.328125 -1.171875 -0.328125 -2.3125zm8.166168 3.28125q-0.546875 0 -0.890625 -0.1875q-0.328125 -0.1875 -0.515625 -0.421875q-0.1875 -0.25 -0.28125 -0.40625l-0.109375 0l0 0.890625l-0.84375 0l0 -7.75l0.875 0l0 2.859375l0.078125 0q0.09375 -0.15625 0.265625 -0.390625q0.1875 -0.234375 0.515625 -0.421875q0.34375 -0.1875 0.90625 -0.1875q0.734375 0 1.28125 0.375q0.5625 0.359375 0.875 1.03125q0.3125 0.671875 0.3125 1.59375q0 0.921875 -0.3125 1.609375q-0.3125 0.671875 -0.875 1.046875q-0.546875 0.359375 -1.28125 0.359375zm-0.109375 -0.796875q0.5625 0 0.9375 -0.296875q0.375 -0.3125 0.5625 -0.8125q0.1875 -0.5 0.1875 -1.125q0 -0.609375 -0.1875 -1.09375q-0.1875 -0.5 -0.5625 -0.796875q-0.375 -0.296875 -0.9375 -0.296875q-0.546875 0 -0.921875 0.28125q-0.359375 0.265625 -0.546875 0.765625q-0.1875 0.484375 -0.1875 1.140625q0 0.65625 0.1875 1.15625q0.1875 0.5 0.5625 0.796875q0.375 0.28125 0.90625 0.28125zm7.108734 -1.703125l0 -3.4375l0.890625 0l0 5.8125l-0.890625 0l0 -0.984375l-0.0625 0q-0.203125 0.4375 -0.640625 0.75q-0.421875 0.3125 -1.078125 0.3125q-0.546875 0 -0.96875 -0.234375q-0.421875 -0.25 -0.671875 -0.734375q-0.234375 -0.484375 -0.234375 -1.234375l0 -3.6875l0.875 0l0 3.640625q0 0.625 0.359375 1.015625q0.375 0.375 0.921875 0.359375q0.328125 0 0.671875 -0.15625q0.359375 -0.171875 0.59375 -0.515625q0.234375 -0.359375 0.234375 -0.90625zm2.8642273 0.25l-0.015625 -1.09375l0.1875 0l2.53125 -2.59375l1.109375 0l-2.703125 2.75l-0.09375 0l-1.015625 0.9375zm-0.828125 2.125l0 -7.75l0.875 0l0 7.75l-0.875 0zm3.671875 0l-2.265625 -2.875l0.640625 -0.625l2.78125 3.5l-1.15625 0z" fill-rule="nonzero"/><path fill="#000000" d="m114.68953 341.5664q0.453125 -0.9375 0.734375 -1.71875q0.296875 -0.796875 0.4375 -1.5q0.140625 -0.71875 0.140625 -1.390625q0 -0.75 -0.15625 -1.609375q-0.15625 -0.875 -0.453125 -1.75q-0.296875 -0.890625 -0.703125 -1.703125l0.859375 0q0.40625 0.640625 0.703125 1.515625q0.296875 0.859375 0.46875 1.78125q0.171875 0.921875 0.171875 1.765625q0 1.140625 -0.34375 2.3125q-0.328125 1.171875 -1.0 2.296875l-0.859375 0z" fill-rule="nonzero"/><path fill="#d0d1d2" d="m164.50017 98.604645l0 0c0 -1.7189178 1.3934479 -3.112381 3.1123657 -3.112381l12.449142 0l0 0c0.8254547 0 1.617096 0.32791138 2.2007904 0.9115982c0.5836792 0.5836792 0.9115906 1.3753281 0.9115906 2.2007828l0 26.514915c0 1.7189178 -1.3934631 3.1123734 -3.112381 3.1123734l-12.449142 0c-1.7189178 0 -3.1123657 -1.3934555 -3.1123657 -3.1123734z" fill-rule="evenodd"/><path fill="#d0d1d2" d="m100.76609 172.86124l0 0c0 -9.239105 7.4897766 -16.728882 16.728882 -16.728882l69.01157 0l0 0c4.4367676 0 8.691818 1.762497 11.829102 4.8997803c3.137268 3.137268 4.899765 7.3923187 4.899765 11.829102l0 66.9135c0 9.239105 -7.4897766 16.728867 -16.728867 16.728867l-69.01157 0c-9.239105 0 -16.728882 -7.4897614 -16.728882 -16.728867z" fill-rule="evenodd"/><path fill="#d0d1d2" d="m100.76609 156.03389l0 0c0 -9.43222 7.646332 -17.078552 17.078568 -17.078552l68.3122 0l0 0c4.5295105 0 8.873505 1.7993317 12.076355 5.002182c3.2028503 3.2028656 5.0021973 7.5468597 5.0021973 12.07637l0 75.15143c0 9.43222 -7.646332 17.078552 -17.078552 17.078552l-68.3122 0l0 0c-9.432236 0 -17.078568 -7.646332 -17.078568 -17.078552z" fill-rule="evenodd"/><path fill="#d0d1d2" d="m100.76609 156.03389l0 0c0 -9.43222 7.646332 -17.078552 17.078568 -17.078552l68.3122 0l0 0c4.5295105 0 8.873505 1.7993317 12.076355 5.002182c3.2028503 3.2028656 5.0021973 7.5468597 5.0021973 12.07637l0 71.13876c0 9.432236 -7.646332 17.078568 -17.078552 17.078568l-68.3122 0l0 0c-9.432236 0 -17.078568 -7.646332 -17.078568 -17.078568z" fill-rule="evenodd"/><path fill="#d0d1d2" d="m100.76609 141.44159l0 0c0 -1.3731232 1.1131363 -2.4862518 2.4862595 -2.4862518l9.944717 0l0 0c0.6593933 0 1.2917862 0.26193237 1.758049 0.7281952c0.46626282 0.46626282 0.7282028 1.0986633 0.7282028 1.7580566l0 112.58023c0 1.3731232 -1.1131287 2.4862366 -2.4862518 2.4862366l-9.944717 0c-1.3731232 0 -2.4862595 -1.1131134 -2.4862595 -2.4862366z" fill-rule="evenodd"/><path fill="#d0d1d2" d="m100.76609 131.04123l0 0c0 -9.432228 7.646332 -17.07856 17.078568 -17.07856l68.3122 0l0 0c4.5295105 0 8.873505 1.7993393 12.076355 5.0021896c3.2028503 3.202858 5.0021973 7.546852 5.0021973 12.07637l0 91.22031c0 9.432236 -7.646332 17.078568 -17.078552 17.078568l-68.3122 0c-9.432236 0 -17.078568 -7.646332 -17.078568 -17.078568z" fill-rule="evenodd"/><path fill="#d0d1d2" d="m109.41918 136.19125l0 0c0 -7.839203 6.3549347 -14.194145 14.194138 -14.194145l56.774864 0l0 0c3.7645264 0 7.3748627 1.4954529 10.036774 4.1573715c2.6619263 2.661911 4.157379 6.2722473 4.157379 10.036774l0 80.92026c0 7.839203 -6.3549347 14.194138 -14.194153 14.194138l-56.774864 0c-7.839203 0 -14.194138 -6.3549347 -14.194138 -14.194138z" fill-rule="evenodd"/><path fill="#d0d1d2" d="m116.20306 141.48102l0 0c0 -6.590317 5.342499 -11.932816 11.932808 -11.932816l47.729782 0l0 0c3.1647797 0 6.199936 1.2572021 8.437775 3.495041c2.2378387 2.2378387 3.495041 5.272995 3.495041 8.437775l0 70.34073c0 6.590317 -5.342499 11.932816 -11.932816 11.932816l-47.729782 0c-6.590309 0 -11.932808 -5.342499 -11.932808 -11.932816z" fill-rule="evenodd"/><path fill="#d0d1d2" d="m187.79846 161.41222l0 0c0 -0.6244507 0.5062103 -1.1306763 1.130661 -1.1306763l4.522537 0l0 0c0.29986572 0 0.5874634 0.119125366 0.7994995 0.33117676c0.21205139 0.21203613 0.33117676 0.4996338 0.33117676 0.7994995l0 30.478333c0 0.6244507 -0.5062256 1.130661 -1.1306763 1.130661l-4.522537 0c-0.6244507 0 -1.130661 -0.5062103 -1.130661 -1.130661z" fill-rule="evenodd"/><path fill="#d0d1d2" d="m194.58234 154.74568l0 0c0 -0.79566956 0.6450043 -1.4406891 1.4406891 -1.4406891l5.7625885 0l0 0c0.38209534 0 0.74853516 0.15177917 1.0187225 0.42196655c0.27017212 0.27017212 0.42196655 0.6366272 0.42196655 1.0187225l0 43.8114c0 0.79566956 -0.64501953 1.4406891 -1.4406891 1.4406891l-5.7625885 0c-0.7956848 0 -1.4406891 -0.64501953 -1.4406891 -1.4406891z" fill-rule="evenodd"/><path fill="#d0d1d2" d="m100.77521 154.74568l0 0c0 -0.79566956 0.64501953 -1.4406891 1.4406967 -1.4406891l5.7625885 0l0 0c0.3820877 0 0.74853516 0.15177917 1.0187149 0.42196655c0.27018738 0.27017212 0.42197418 0.6366272 0.42197418 1.0187225l0 43.8114c0 0.79566956 -0.64501953 1.4406891 -1.4406891 1.4406891l-5.7625885 0c-0.7956772 0 -1.4406967 -0.64501953 -1.4406967 -1.4406891z" fill-rule="evenodd"/><path fill="#d0d1d2" d="m109.41918 159.99106l0 0c0 -0.6244507 0.50621796 -1.130661 1.1306686 -1.130661l4.522537 0l0 0c0.29986572 0 0.58745575 0.119125366 0.7994995 0.3311615c0.21204376 0.21205139 0.33116913 0.4996338 0.33116913 0.7994995l0 30.478333c0 0.6244507 -0.50621796 1.1306763 -1.1306686 1.1306763l-4.522537 0c-0.6244507 0 -1.1306686 -0.5062256 -1.1306686 -1.1306763z" fill-rule="evenodd"/><path fill="#d0d1d2" d="m122.58573 139.72845l0 0c0 -1.8434601 1.4944153 -3.3378754 3.3378677 -3.3378754l52.154312 0c0.8852539 0 1.7342529 0.3516693 2.3602295 0.9776459c0.62597656 0.6259613 0.9776306 1.4749603 0.9776306 2.3602295l0 13.351074c0 1.8434601 -1.4944153 3.3378754 -3.33786 3.3378754l-52.154312 0c-1.8434525 0 -3.3378677 -1.4944153 -3.3378677 -3.3378754z" fill-rule="evenodd"/><path fill="#d0d1d2" d="m122.58573 172.73936l0 0c0 -4.734558 3.8381195 -8.572662 8.57267 -8.572662l41.684708 0c2.2736053 0 4.4541016 0.903183 6.061783 2.5108795c1.6076965 1.6076813 2.5108795 3.7881775 2.5108795 6.061783l0 34.289673c0 4.734558 -3.8381042 8.572678 -8.572662 8.572678l-41.684708 0c-4.7345505 0 -8.57267 -3.8381195 -8.57267 -8.572678z" fill-rule="evenodd"/><path fill="#d0d1d2" d="m170.44518 101.6874l0 0c0 -0.6244507 0.5062103 -1.1306686 1.130661 -1.1306686l4.522537 0l0 0c0.29988098 0 0.5874634 0.11911774 0.7995148 0.3311615c0.21203613 0.21204376 0.3311615 0.4996338 0.3311615 0.79950714l0 11.1446c0 0.6244507 -0.5062256 1.1306686 -1.1306763 1.1306686l-4.522537 0c-0.6244507 0 -1.130661 -0.50621796 -1.130661 -1.1306686z" fill-rule="evenodd"/><path fill="#f73d35" d="m148.50017 82.604645l0 0c0 -1.7189178 1.3934479 -3.112381 3.1123657 -3.112381l12.449142 0l0 0c0.8254547 0 1.617096 0.32791138 2.2007904 0.9115982c0.5836792 0.5836792 0.9115906 1.3753281 0.9115906 2.2007828l0 26.514915c0 1.7189178 -1.3934631 3.1123734 -3.112381 3.1123734l-12.449142 0c-1.7189178 0 -3.1123657 -1.3934555 -3.1123657 -3.1123734z" fill-rule="evenodd"/><path fill="#c16a22" d="m84.76609 156.86124l0 0c0 -9.239105 7.4897766 -16.728882 16.728882 -16.728882l69.01157 0l0 0c4.4367676 0 8.691818 1.762497 11.829102 4.8997803c3.137268 3.137268 4.899765 7.3923187 4.899765 11.829102l0 66.9135c0 9.239105 -7.4897766 16.728867 -16.728867 16.728867l-69.01157 0c-9.239105 0 -16.728882 -7.4897614 -16.728882 -16.728867z" fill-rule="evenodd"/><path fill="#f3f8fe" d="m84.76609 140.03389l0 0c0 -9.43222 7.646332 -17.07856 17.078568 -17.07856l68.3122 0l0 0c4.5295105 0 8.873505 1.7993469 12.076355 5.0021973c3.2028503 3.202858 5.0021973 7.546852 5.0021973 12.076363l0 75.15143c0 9.43222 -7.646332 17.078552 -17.078552 17.078552l-68.3122 0l0 0c-9.432236 0 -17.078568 -7.646332 -17.078568 -17.078552z" fill-rule="evenodd"/><path fill="#e7f2ff" d="m84.76609 140.03389l0 0c0 -9.43222 7.646332 -17.07856 17.078568 -17.07856l68.3122 0l0 0c4.5295105 0 8.873505 1.7993469 12.076355 5.0021973c3.2028503 3.202858 5.0021973 7.546852 5.0021973 12.076363l0 71.13876c0 9.432236 -7.646332 17.078568 -17.078552 17.078568l-68.3122 0l0 0c-9.432236 0 -17.078568 -7.646332 -17.078568 -17.078568z" fill-rule="evenodd"/><path fill="#e09300" d="m84.76609 125.44158l0 0c0 -1.3731155 1.1131363 -2.4862518 2.4862595 -2.4862518l9.944717 0l0 0c0.6593933 0 1.2917862 0.26194763 1.758049 0.72821045c0.46626282 0.46626282 0.7282028 1.0986481 0.7282028 1.7580414l0 112.58024c0 1.3731232 -1.1131287 2.4862518 -2.4862518 2.4862518l-9.944717 0c-1.3731232 0 -2.4862595 -1.1131287 -2.4862595 -2.4862518z" fill-rule="evenodd"/><path fill="#fcb630" d="m84.76609 115.04123l0 0c0 -9.432228 7.646332 -17.07856 17.078568 -17.07856l68.3122 0l0 0c4.5295105 0 8.873505 1.7993393 12.076355 5.0021896c3.2028503 3.202858 5.0021973 7.546852 5.0021973 12.07637l0 91.22031c0 9.432236 -7.646332 17.078568 -17.078552 17.078568l-68.3122 0c-9.432236 0 -17.078568 -7.646332 -17.078568 -17.078568z" fill-rule="evenodd"/><path fill="#e09300" d="m93.41918 120.19125l0 0c0 -7.8392105 6.3549347 -14.194145 14.194138 -14.194145l56.774864 0l0 0c3.7645264 0 7.3748627 1.4954529 10.036774 4.1573715c2.6619263 2.6619186 4.157379 6.2722473 4.157379 10.036774l0 80.92026c0 7.839203 -6.3549347 14.194138 -14.194153 14.194138l-56.774864 0c-7.839203 0 -14.194138 -6.3549347 -14.194138 -14.194138z" fill-rule="evenodd"/><path fill="#ffd992" d="m100.20306 125.48101l0 0c0 -6.5903015 5.342499 -11.9328 11.9328 -11.9328l47.72979 0l0 0c3.1647797 0 6.199936 1.2572021 8.437775 3.4950333c2.2378387 2.2378387 3.495041 5.272995 3.495041 8.437767l0 70.34074c0 6.590317 -5.342499 11.932816 -11.932816 11.932816l-47.72979 0c-6.5903015 0 -11.9328 -5.342499 -11.9328 -11.932816z" fill-rule="evenodd"/><path fill="#fcb630" d="m171.79846 145.41222l0 0c0 -0.6244507 0.5062103 -1.1306763 1.130661 -1.1306763l4.522537 0l0 0c0.29986572 0 0.5874634 0.119125366 0.7994995 0.33117676c0.21205139 0.21203613 0.33117676 0.4996338 0.33117676 0.7994995l0 30.478333c0 0.6244507 -0.5062256 1.130661 -1.1306763 1.130661l-4.522537 0c-0.6244507 0 -1.130661 -0.5062103 -1.130661 -1.130661z" fill-rule="evenodd"/><path fill="#ffc860" d="m178.58234 138.74568l0 0c0 -0.79566956 0.6450043 -1.4406891 1.4406891 -1.4406891l5.7625885 0l0 0c0.38209534 0 0.74853516 0.15177917 1.0187225 0.42196655c0.27017212 0.27017212 0.42196655 0.6366272 0.42196655 1.0187225l0 43.8114c0 0.79566956 -0.64501953 1.4406891 -1.4406891 1.4406891l-5.7625885 0c-0.7956848 0 -1.4406891 -0.64501953 -1.4406891 -1.4406891z" fill-rule="evenodd"/><path fill="#ffc860" d="m84.77521 138.74568l0 0c0 -0.79566956 0.64501953 -1.4406891 1.4406967 -1.4406891l5.7625885 0l0 0c0.3820877 0 0.74853516 0.15177917 1.0187149 0.42196655c0.27018738 0.27017212 0.42197418 0.6366272 0.42197418 1.0187225l0 43.8114c0 0.79566956 -0.64501953 1.4406891 -1.4406891 1.4406891l-5.7625885 0c-0.7956772 0 -1.4406967 -0.64501953 -1.4406967 -1.4406891z" fill-rule="evenodd"/><path fill="#fcb630" d="m93.41918 143.99106l0 0c0 -0.6244507 0.50621796 -1.130661 1.1306686 -1.130661l4.522537 0l0 0c0.29986572 0 0.58745575 0.119125366 0.7994995 0.3311615c0.21204376 0.21205139 0.33116913 0.4996338 0.33116913 0.7994995l0 30.478333c0 0.6244507 -0.50621796 1.1306763 -1.1306686 1.1306763l-4.522537 0c-0.6244507 0 -1.1306686 -0.5062256 -1.1306686 -1.1306763z" fill-rule="evenodd"/><path fill="#ffe9bf" d="m106.58573 123.72845l0 0c0 -1.8434525 1.4944153 -3.3378677 3.3378677 -3.3378677l52.154312 0c0.8852539 0 1.7342529 0.3516693 2.3602295 0.97763824c0.62597656 0.62597656 0.9776306 1.4749756 0.9776306 2.3602295l0 13.351082c0 1.8434601 -1.4944153 3.3378754 -3.33786 3.3378754l-52.154312 0c-1.8434525 0 -3.3378677 -1.4944153 -3.3378677 -3.3378754z" fill-rule="evenodd"/><path fill="#ffe9bf" d="m106.58573 156.73936l0 0c0 -4.734558 3.8381195 -8.572662 8.572678 -8.572662l41.6847 0c2.2736053 0 4.4541016 0.903183 6.061783 2.5108795c1.6076965 1.6076813 2.5108795 3.7881775 2.5108795 6.061783l0 34.289673c0 4.734558 -3.8381042 8.572678 -8.572662 8.572678l-41.6847 0c-4.734558 0 -8.572678 -3.8381195 -8.572678 -8.572678z" fill-rule="evenodd"/><path fill="#e03027" d="m154.44518 85.6874l0 0c0 -0.6244507 0.5062103 -1.1306686 1.130661 -1.1306686l4.522537 0l0 0c0.29988098 0 0.5874634 0.11911774 0.7995148 0.3311615c0.21203613 0.21204376 0.3311615 0.4996338 0.3311615 0.79950714l0 11.1446c0 0.6244507 -0.5062256 1.1306686 -1.1306763 1.1306686l-4.522537 0c-0.6244507 0 -1.130661 -0.50621796 -1.130661 -1.1306686z" fill-rule="evenodd"/></g></svg>