<svg version="1.1" viewBox="0.0 0.0 864.0 384.0" fill="none" stroke="none" stroke-linecap="square" stroke-miterlimit="10" xmlns:xlink="http://www.w3.org/1999/xlink" xmlns="http://www.w3.org/2000/svg"><clipPath id="p.0"><path d="m0 0l864.0 0l0 384.0l-864.0 0l0 -384.0z" clip-rule="nonzero"/></clipPath><g clip-path="url(#p.0)"><g filter="url(#shadowFilter-p.1)"><use xlink:href="#p.1" transform="matrix(1.0 0.0 0.0 1.0 0.0 7.0)"/></g><defs><filter id="shadowFilter-p.1" filterUnits="userSpaceOnUse"><feGaussianBlur in="SourceAlpha" stdDeviation="10.0" result="blur"/><feComponentTransfer in="blur" color-interpolation-filters="sRGB"><feFuncR type="linear" slope="0" intercept="1.0"/><feFuncG type="linear" slope="0" intercept="1.0"/><feFuncB type="linear" slope="0" intercept="1.0"/><feFuncA type="linear" slope="0.2" intercept="0"/></feComponentTransfer></filter></defs><g id="p.1"><path fill="#000000" d="m14.792767 70.27827l0 0c0 -23.47256 19.02827 -42.50083 42.50083 -42.50083l749.4127 0c11.271912 0 22.082153 4.4777527 30.052612 12.448208c7.970459 7.9704514 12.448181 18.780704 12.448181 30.052624l0 243.44373c0 23.472565 -19.02826 42.500824 -42.500793 42.500824l-749.4127 0c-23.47256 0 -42.50083 -19.02826 -42.50083 -42.500824z" fill-rule="evenodd"/></g><g filter="url(#shadowFilter-p.2)"><use xlink:href="#p.2" transform="matrix(1.0 0.0 0.0 1.0 0.0 12.882433858267703)"/></g><defs><filter id="shadowFilter-p.2" filterUnits="userSpaceOnUse"><feGaussianBlur in="SourceAlpha" stdDeviation="17.76166" result="blur"/><feComponentTransfer in="blur" color-interpolation-filters="sRGB"><feFuncR type="linear" slope="0" intercept="1.0"/><feFuncG type="linear" slope="0" intercept="1.0"/><feFuncB type="linear" slope="0" intercept="1.0"/><feFuncA type="linear" slope="0.4" intercept="0"/></feComponentTransfer></filter></defs><g id="p.2"><path fill="#cfcfcf" d="m23.927767 75.58684l0 0c0 -20.456936 16.583628 -37.04056 37.040565 -37.04056l741.66895 0c9.8237915 0 19.245178 3.9024773 26.19165 10.84893c6.946472 6.946453 10.848938 16.367863 10.848938 26.191631l0 212.16743c0 20.45694 -16.583618 37.040558 -37.04059 37.040558l-741.66895 0c-20.456936 0 -37.040565 -16.583618 -37.040565 -37.040558z" fill-rule="evenodd"/></g><defs><linearGradient id="p.3" gradientUnits="userSpaceOnUse" gradientTransform="matrix(16.58467123853637 0.0 0.0 16.58467123853637 0.0 0.0)" spreadMethod="pad" x1="1.8427500026739878" y1="2.64768817808637" x2="1.8393724732620778" y2="19.232359072699577"><stop offset="0.0" stop-color="#434343"/><stop offset="1.0" stop-color="#000000"/></linearGradient></defs><path fill="url(#p.3)" d="m30.561369 79.64497l0 0c0 -19.645039 15.925451 -35.570488 35.570496 -35.570488l731.42236 0c9.433899 0 18.481384 3.747593 25.1521 10.418354c6.6707764 6.670761 10.418396 15.718258 10.418396 25.152134l0 203.7469c0 19.64505 -15.925476 35.570496 -35.570496 35.570496l-731.42236 0c-19.645046 0 -35.570496 -15.925446 -35.570496 -35.570496z" fill-rule="evenodd"/><defs><linearGradient id="p.4" gradientUnits="userSpaceOnUse" gradientTransform="matrix(-15.743626583744925 0.01640362823106339 -0.01640362823106339 -15.743626583744925 0.0 0.0)" spreadMethod="pad" x1="-52.16969438454143" y1="-19.438149190434427" x2="-52.172903613793" y2="-3.6945229337790804"><stop offset="0.0" stop-color="#434343"/><stop offset="1.0" stop-color="#000000"/></linearGradient></defs><path fill="url(#p.4)" d="m821.43427 272.95996l0 0c0 17.70227 -14.350525 32.06778 -32.052856 32.086212l-714.7217 0.74468994c-8.500931 0.008850098 -16.653687 -3.3596497 -22.664753 -9.364441c-6.0110664 -6.004822 -9.38805 -14.154053 -9.38805 -22.654999l0 -183.59775c0 -17.702286 14.350529 -32.067772 32.052803 -32.086216l714.7217 -0.7446823c17.702332 -0.018444061 32.052856 14.3171425 32.052856 32.01942z" fill-rule="evenodd"/><g filter="url(#shadowFilter-p.5)"><use xlink:href="#p.5" transform="matrix(1.0 0.0 0.0 1.0 0.0 3.5523320209973854)"/></g><defs><filter id="shadowFilter-p.5" filterUnits="userSpaceOnUse"><feGaussianBlur in="SourceAlpha" stdDeviation="79.92747" result="blur"/><feComponentTransfer in="blur" color-interpolation-filters="sRGB"><feFuncR type="linear" slope="0" intercept="0.0"/><feFuncG type="linear" slope="0" intercept="0.0"/><feFuncB type="linear" slope="0" intercept="0.0"/><feFuncA type="linear" slope="0.4" intercept="0"/></feComponentTransfer></filter></defs><g id="p.5"><path fill="#434343" d="m58.476273 98.696754l0 0c0 -11.932671 9.67334 -21.60601 21.60601 -21.60601l703.96716 0c5.7302856 0 11.225891 2.2763367 15.277771 6.3282547c4.051941 4.0519104 6.328247 9.547485 6.328247 15.277756l0 86.421455c0 11.932663 -9.67334 21.606003 -21.606018 21.606003l-703.96716 0c-11.932671 0 -21.60601 -9.67334 -21.60601 -21.606003z" fill-rule="evenodd"/></g><g filter="url(#shadowFilter-p.6)"><use xlink:href="#p.6" transform="matrix(1.0 0.0 0.0 1.0 0.0 3.5523320209973757)"/></g><defs><filter id="shadowFilter-p.6" filterUnits="userSpaceOnUse"><feGaussianBlur in="SourceAlpha" stdDeviation="79.92747" result="blur"/><feComponentTransfer in="blur" color-interpolation-filters="sRGB"><feFuncR type="linear" slope="0" intercept="0.0"/><feFuncG type="linear" slope="0" intercept="0.0"/><feFuncB type="linear" slope="0" intercept="0.0"/><feFuncA type="linear" slope="0.4" intercept="0"/></feComponentTransfer></filter></defs><g id="p.6"><defs><linearGradient id="p.7" gradientUnits="userSpaceOnUse" gradientTransform="matrix(16.7442446876014 0.0 0.0 16.7442446876014 0.0 0.0)" spreadMethod="pad" x1="34.17371277152261" y1="2.3024329760503113" x2="17.429468084360117" y2="2.3023117391881587"><stop offset="0.0" stop-color="#ffffff" stop-opacity="0.0"/><stop offset="0.27" stop-color="#ffffff"/><stop offset="0.75" stop-color="#ffffff"/><stop offset="1.0" stop-color="#ffffff" stop-opacity="0.0"/></linearGradient></defs><path fill="url(#p.7)" d="m291.8433 38.5525l280.36972 0l0 5.4774704l-280.36972 0z" fill-rule="evenodd"/></g><g filter="url(#shadowFilter-p.8)"><use xlink:href="#p.8" transform="matrix(1.0 0.0 0.0 1.0 0.0 3.5523320209973854)"/></g><defs><filter id="shadowFilter-p.8" filterUnits="userSpaceOnUse"><feGaussianBlur in="SourceAlpha" stdDeviation="79.92747" result="blur"/><feComponentTransfer in="blur" color-interpolation-filters="sRGB"><feFuncR type="linear" slope="0" intercept="0.0"/><feFuncG type="linear" slope="0" intercept="0.0"/><feFuncB type="linear" slope="0" intercept="0.0"/><feFuncA type="linear" slope="0.4" intercept="0"/></feComponentTransfer></filter></defs><g id="p.8"><defs><linearGradient id="p.9" gradientUnits="userSpaceOnUse" gradientTransform="matrix(16.744245912216126 0.0 0.0 16.744245912216126 0.0 0.0)" spreadMethod="pad" x1="34.173712721407895" y1="19.05109789458412" x2="17.429466809630675" y2="19.050976657730835"><stop offset="0.0" stop-color="#ffffff" stop-opacity="0.0"/><stop offset="0.27" stop-color="#ffffff"/><stop offset="0.75" stop-color="#ffffff"/><stop offset="1.0" stop-color="#ffffff" stop-opacity="0.0"/></linearGradient></defs><path fill="url(#p.9)" d="m291.8433 318.99628l280.36972 0l0 5.477478l-280.36972 0z" fill-rule="evenodd"/></g><g filter="url(#shadowFilter-p.10)"><use xlink:href="#p.10" transform="matrix(1.0 0.0 0.0 1.0 0.0 3.5523320209973854)"/></g><defs><filter id="shadowFilter-p.10" filterUnits="userSpaceOnUse"><feGaussianBlur in="SourceAlpha" stdDeviation="79.92747" result="blur"/><feComponentTransfer in="blur" color-interpolation-filters="sRGB"><feFuncR type="linear" slope="0" intercept="0.0"/><feFuncG type="linear" slope="0" intercept="0.0"/><feFuncB type="linear" slope="0" intercept="0.0"/><feFuncA type="linear" slope="0.4" intercept="0"/></feComponentTransfer></filter></defs><g id="p.10"><defs><linearGradient id="p.11" gradientUnits="userSpaceOnUse" gradientTransform="matrix(0.0 14.042400699096232 -14.042400699096232 0.0 0.0 0.0)" spreadMethod="pad" x1="19.94815870392356" y1="-59.806623818214845" x2="5.905758005220915" y2="-59.80672895536229"><stop offset="0.0" stop-color="#ffffff" stop-opacity="0.0"/><stop offset="0.27" stop-color="#ffffff"/><stop offset="0.75" stop-color="#ffffff"/><stop offset="1.0" stop-color="#ffffff" stop-opacity="0.0"/></linearGradient></defs><path fill="url(#p.11)" d="m839.8286 82.93102l0 197.18893l-6.694763 0l0 -197.18893z" fill-rule="evenodd"/></g><g filter="url(#shadowFilter-p.12)"><use xlink:href="#p.12" transform="matrix(1.0 0.0 0.0 1.0 0.0 3.5523320209973854)"/></g><defs><filter id="shadowFilter-p.12" filterUnits="userSpaceOnUse"><feGaussianBlur in="SourceAlpha" stdDeviation="79.92747" result="blur"/><feComponentTransfer in="blur" color-interpolation-filters="sRGB"><feFuncR type="linear" slope="0" intercept="0.0"/><feFuncG type="linear" slope="0" intercept="0.0"/><feFuncB type="linear" slope="0" intercept="0.0"/><feFuncA type="linear" slope="0.4" intercept="0"/></feComponentTransfer></filter></defs><g id="p.12"><defs><linearGradient id="p.13" gradientUnits="userSpaceOnUse" gradientTransform="matrix(0.0 14.042399968964363 -14.042399968964363 0.0 0.0 0.0)" spreadMethod="pad" x1="19.948158280885977" y1="-2.1779429544016065" x2="5.9057583122896595" y2="-2.1780446234887085"><stop offset="0.0" stop-color="#ffffff" stop-opacity="0.0"/><stop offset="0.27" stop-color="#ffffff"/><stop offset="0.75" stop-color="#ffffff"/><stop offset="1.0" stop-color="#ffffff" stop-opacity="0.0"/></linearGradient></defs><path fill="url(#p.13)" d="m30.583546 82.93102l0 197.18893l-6.69479 0l0 -197.18893z" fill-rule="evenodd"/></g></g></svg>