<svg version="1.1" viewBox="0.0 0.0 288.0 384.0" fill="none" stroke="none" stroke-linecap="square" stroke-miterlimit="10" xmlns:xlink="http://www.w3.org/1999/xlink" xmlns="http://www.w3.org/2000/svg"><clipPath id="g3af56054db1_0_695.0"><path d="m0 0l288.0 0l0 384.0l-288.0 0l0 -384.0z" clip-rule="nonzero"/></clipPath><g clip-path="url(#g3af56054db1_0_695.0)"><path fill="#ffffff" d="m0 0l288.0 0l0 384.0l-288.0 0z" fill-rule="evenodd"/><path fill="#d0d1d2" d="m5.7007875 34.135216l0 0c0 -9.966135 8.079147 -18.045282 18.04528 -18.045282l240.50787 0c4.7858887 0 9.375793 1.9011936 12.759949 5.2853394c3.3841248 3.3841476 5.2853394 7.9740353 5.2853394 12.759943l0 324.2244c0 9.9661255 -8.079163 18.045288 -18.045288 18.045288l-240.50787 0l0 0c-9.966134 0 -18.04528 -8.079163 -18.04528 -18.045288z" fill-rule="evenodd"/><path stroke="#d0d1d2" stroke-width="4.0" stroke-linejoin="round" stroke-linecap="butt" d="m5.7007875 34.135216l0 0c0 -9.966135 8.079147 -18.045282 18.04528 -18.045282l240.50787 0c4.7858887 0 9.375793 1.9011936 12.759949 5.2853394c3.3841248 3.3841476 5.2853394 7.9740353 5.2853394 12.759943l0 324.2244c0 9.9661255 -8.079163 18.045288 -18.045288 18.045288l-240.50787 0l0 0c-9.966134 0 -18.04528 -8.079163 -18.04528 -18.045288z" fill-rule="evenodd"/><path fill="#ffffff" d="m5.7007875 25.639769l0 0c0 -9.966133 8.079147 -18.04528 18.04528 -18.04528l240.50787 0c4.7858887 0 9.375793 1.9011936 12.759949 5.2853403c3.3841248 3.3841467 5.2853394 7.9740343 5.2853394 12.75994l0 324.2244c0 9.9661255 -8.079163 18.045288 -18.045288 18.045288l-240.50787 0l0 0c-9.966134 0 -18.04528 -8.079163 -18.04528 -18.045288z" fill-rule="evenodd"/><path stroke="#d0d1d2" stroke-width="4.0" stroke-linejoin="round" stroke-linecap="butt" d="m5.7007875 25.639769l0 0c0 -9.966133 8.079147 -18.04528 18.04528 -18.04528l240.50787 0c4.7858887 0 9.375793 1.9011936 12.759949 5.2853403c3.3841248 3.3841467 5.2853394 7.9740343 5.2853394 12.75994l0 324.2244c0 9.9661255 -8.079163 18.045288 -18.045288 18.045288l-240.50787 0l0 0c-9.966134 0 -18.04528 -8.079163 -18.04528 -18.045288z" fill-rule="evenodd"/><path fill="#000000" fill-opacity="0.0" d="m21.700787 315.7533l203.30708 0l0 38.771637l-203.30708 0z" fill-rule="evenodd"/><path fill="#000000" d="m39.950787 334.23828l0.265625 -0.625q1.390625 0.03125 2.296875 0.421875q0.90625 0.390625 1.34375 1.09375q0.453125 0.703125 0.453125 1.609375q0 0.96875 -0.453125 1.734375q-0.4375 0.765625 -1.328125 1.203125q-0.890625 0.4375 -2.21875 0.4375l-8.859375 0l0.9375 -6.15625l-0.9375 -5.84375l8.546875 0q1.65625 0 2.578125 0.78125q0.9375 0.765625 0.9375 2.140625q0 0.765625 -0.359375 1.453125q-0.34375 0.6875 -1.125 1.15625q-0.765625 0.46875 -2.078125 0.59375zm-5.21875 5.109375l-1.28125 -1.546875l5.96875 0q0.71875 0 1.109375 -0.359375q0.40625 -0.359375 0.40625 -0.96875q0 -0.625 -0.4375 -1.0q-0.421875 -0.390625 -1.265625 -0.390625l-4.9375 0l0 -2.265625l4.484375 0q0.578125 0 0.96875 -0.34375q0.390625 -0.34375 0.390625 -0.9375q0 -0.484375 -0.34375 -0.796875q-0.328125 -0.3125 -0.953125 -0.3125l-5.375 0l1.265625 -1.546875l0.8125 5.078125l-0.8125 5.390625zm10.485519 -8.375l3.328125 0l0.546875 3.265625l0 5.875l-3.265625 0l0 -6.0625l-0.609375 -3.078125zm8.15625 -0.140625l0 2.78125q-0.484375 -0.09375 -0.90625 -0.125q-0.421875 -0.046875 -0.78125 -0.046875q-0.703125 0 -1.296875 0.28125q-0.578125 0.28125 -0.9375 0.921875q-0.359375 0.640625 -0.359375 1.703125l-0.625 -0.765625q0.125 -0.984375 0.375 -1.859375q0.265625 -0.875 0.703125 -1.546875q0.4375 -0.6875 1.09375 -1.078125q0.65625 -0.390625 1.59375 -0.390625q0.28125 0 0.5625 0.03125q0.296875 0.03125 0.578125 0.09375zm9.155273 9.28125l-0.421875 -3.296875l0.4375 -1.265625l-0.4375 -1.265625l0.421875 -3.3125l3.3906288 0l-0.578125 4.5625l0.578125 4.578125l-3.3906288 0zm0.765625 -4.5625q-0.21875 1.4375 -0.890625 2.53125q-0.65625 1.09375 -1.671875 1.6875q-1.015625 0.59375 -2.3125 0.59375q-1.34375 0 -2.375 -0.59375q-1.015625 -0.59375 -1.59375 -1.6875q-0.5625 -1.109375 -0.5625 -2.53125q0 -1.453125 0.5625 -2.53125q0.578125 -1.09375 1.59375 -1.703125q1.03125 -0.609375 2.375 -0.609375q1.296875 0 2.3125 0.609375q1.015625 0.59375 1.6875 1.671875q0.671875 1.078125 0.875 2.5625zm-6.09375 0q0 0.671875 0.28125 1.203125q0.28125 0.53125 0.765625 0.828125q0.5 0.296875 1.140625 0.296875q0.671875 0 1.265625 -0.296875q0.59375 -0.296875 1.03125 -0.828125q0.453125 -0.53125 0.671875 -1.203125q-0.21875 -0.6875 -0.671875 -1.203125q-0.4375 -0.53125 -1.03125 -0.828125q-0.59375 -0.3125 -1.265625 -0.3125q-0.640625 0 -1.140625 0.3125q-0.484375 0.296875 -0.765625 0.828125q-0.28125 0.515625 -0.28125 1.203125zm10.278538 -4.71875l1.65625 0.328125l1.625 -0.328125l0 9.28125l-3.28125 0l0 -9.28125zm1.640625 -0.75q-0.84375 0 -1.375 -0.421875q-0.53125 -0.421875 -0.53125 -1.15625q0 -0.734375 0.53125 -1.15625q0.53125 -0.4375 1.375 -0.4375q0.875 0 1.390625 0.4375q0.53125 0.421875 0.53125 1.15625q0 0.734375 -0.53125 1.15625q-0.515625 0.421875 -1.390625 0.421875zm3.0095062 0.890625l3.28125 0l0.59375 3.65625l0 5.484375l-3.265625 0l0 -5.984375l-0.609375 -3.15625zm7.234375 -0.265625q1.3125 0 2.234375 0.53125q0.921875 0.515625 1.40625 1.484375q0.5 0.953125 0.5 2.265625l0 5.125l-3.265625 0l0 -4.640625q0 -1.015625 -0.53125 -1.5625q-0.515625 -0.546875 -1.484375 -0.546875q-0.671875 0 -1.1875 0.296875q-0.5 0.28125 -0.765625 0.8125q-0.265625 0.515625 -0.265625 1.234375l-1.015625 -0.515625q0.1875 -1.46875 0.8125 -2.46875q0.625 -1.0 1.53125 -1.5q0.921875 -0.515625 2.03125 -0.515625z" fill-rule="nonzero"/><path fill="#000000" d="m92.6682 336.95703q0 -0.84375 0.171875 -1.765625q0.171875 -0.921875 0.46875 -1.78125q0.3125 -0.875 0.703125 -1.515625l0.859375 0q-0.40625 0.8125 -0.703125 1.703125q-0.296875 0.875 -0.453125 1.75q-0.15625 0.859375 -0.15625 1.609375q0 0.671875 0.140625 1.390625q0.140625 0.703125 0.421875 1.5q0.296875 0.78125 0.75 1.71875l-0.859375 0q-0.671875 -1.125 -1.015625 -2.296875q-0.328125 -1.171875 -0.328125 -2.3125zm8.166168 3.28125q-0.546875 0 -0.890625 -0.1875q-0.328125 -0.1875 -0.515625 -0.421875q-0.1875 -0.25 -0.28125 -0.40625l-0.109375 0l0 0.890625l-0.84375 0l0 -7.75l0.875 0l0 2.859375l0.078125 0q0.09375 -0.15625 0.265625 -0.390625q0.1875 -0.234375 0.515625 -0.421875q0.34375 -0.1875 0.90625 -0.1875q0.734375 0 1.28125 0.375q0.5625 0.359375 0.875 1.03125q0.3125 0.671875 0.3125 1.59375q0 0.921875 -0.3125 1.609375q-0.3125 0.671875 -0.875 1.046875q-0.546875 0.359375 -1.28125 0.359375zm-0.109375 -0.796875q0.5625 0 0.9375 -0.296875q0.375 -0.3125 0.5625 -0.8125q0.1875 -0.5 0.1875 -1.125q0 -0.609375 -0.1875 -1.09375q-0.1875 -0.5 -0.5625 -0.796875q-0.375 -0.296875 -0.9375 -0.296875q-0.546875 0 -0.921875 0.28125q-0.359375 0.265625 -0.546875 0.765625q-0.1875 0.484375 -0.1875 1.140625q0 0.65625 0.1875 1.15625q0.1875 0.5 0.5625 0.796875q0.375 0.28125 0.90625 0.28125zm3.4524841 0.671875l0 -5.8125l0.84375 0l0 0.875l0.0625 0q0.171875 -0.421875 0.578125 -0.6875q0.421875 -0.28125 0.9375 -0.28125q0.109375 0 0.25 0.015625q0.140625 0 0.21875 0l0 0.90625q-0.046875 -0.015625 -0.203125 -0.03125q-0.15625 -0.015625 -0.34375 -0.015625q-0.421875 0 -0.75 0.171875q-0.328125 0.171875 -0.53125 0.484375q-0.1875 0.3125 -0.1875 0.703125l0 3.671875l-0.875 0zm5.1684875 0.140625q-0.546875 0 -1.0 -0.203125q-0.453125 -0.21875 -0.71875 -0.625q-0.265625 -0.40625 -0.265625 -0.96875q0 -0.5 0.1875 -0.796875q0.203125 -0.3125 0.53125 -0.484375q0.328125 -0.1875 0.71875 -0.28125q0.40625 -0.09375 0.8125 -0.140625q0.53125 -0.0625 0.859375 -0.09375q0.328125 -0.046875 0.484375 -0.125q0.15625 -0.09375 0.15625 -0.3125l0 -0.03125q0 -0.5625 -0.3125 -0.859375q-0.296875 -0.3125 -0.921875 -0.3125q-0.625 0 -1.0 0.28125q-0.359375 0.265625 -0.5 0.59375l-0.859375 -0.3125q0.234375 -0.53125 0.609375 -0.828125q0.390625 -0.296875 0.84375 -0.40625q0.453125 -0.125 0.875 -0.125q0.28125 0 0.640625 0.0625q0.375 0.0625 0.71875 0.28125q0.34375 0.203125 0.5625 0.625q0.234375 0.40625 0.234375 1.09375l0 3.828125l-0.890625 0l0 -0.796875l-0.046875 0q-0.078125 0.1875 -0.296875 0.40625q-0.21875 0.21875 -0.578125 0.375q-0.34375 0.15625 -0.84375 0.15625zm0.140625 -0.8125q0.515625 0 0.875 -0.203125q0.375 -0.203125 0.5625 -0.53125q0.1875 -0.34375 0.1875 -0.703125l0 -0.8125q-0.0625 0.0625 -0.25 0.125q-0.1875 0.046875 -0.4375 0.09375q-0.25 0.03125 -0.484375 0.0625q-0.21875 0.03125 -0.359375 0.046875q-0.359375 0.046875 -0.65625 0.15625q-0.296875 0.09375 -0.484375 0.296875q-0.1875 0.1875 -0.1875 0.53125q0 0.46875 0.34375 0.703125q0.34375 0.234375 0.890625 0.234375zm4.0258636 2.84375q-0.21875 0.015625 -0.40625 -0.03125q-0.171875 -0.03125 -0.25 -0.0625l0.234375 -0.78125l0.09375 0.015625q0.4375 0.109375 0.734375 -0.046875q0.3125 -0.140625 0.546875 -0.78125l0.171875 -0.453125l-2.15625 -5.84375l0.96875 0l1.609375 4.640625l0.0625 0l1.59375 -4.640625l0.96875 0l-2.46875 6.65625q-0.15625 0.453125 -0.40625 0.75q-0.234375 0.296875 -0.5625 0.4375q-0.328125 0.140625 -0.734375 0.140625zm5.74469 -5.671875l0 3.5l-0.875 0l0 -5.8125l0.84375 0l0 0.90625l0.09375 0q0.203125 -0.4375 0.609375 -0.703125q0.421875 -0.28125 1.078125 -0.28125q0.59375 0 1.03125 0.25q0.4375 0.234375 0.6875 0.71875q0.25 0.484375 0.25 1.234375l0 3.6875l-0.890625 0l0 -3.625q0 -0.6875 -0.359375 -1.078125q-0.359375 -0.390625 -0.96875 -0.390625q-0.421875 0 -0.765625 0.1875q-0.34375 0.1875 -0.546875 0.546875q-0.1875 0.359375 -0.1875 0.859375zm7.0388184 4.953125q0.453125 -0.9375 0.734375 -1.71875q0.296875 -0.796875 0.4375 -1.5q0.140625 -0.71875 0.140625 -1.390625q0 -0.75 -0.15625 -1.609375q-0.15625 -0.875 -0.453125 -1.75q-0.296875 -0.890625 -0.703125 -1.703125l0.859375 0q0.40625 0.640625 0.703125 1.515625q0.296875 0.859375 0.46875 1.78125q0.171875 0.921875 0.171875 1.765625q0 1.140625 -0.34375 2.3125q-0.328125 1.171875 -1.0 2.296875l-0.859375 0z" fill-rule="nonzero"/><path fill="#d0d1d2" d="m107.15129 129.2962l0 0c0 -3.2244797 2.6139526 -5.8384323 5.8384323 -5.8384323l81.65957 0c1.5484467 0 3.0334778 0.61511993 4.1284027 1.7100372c1.0949097 1.0949173 1.7100372 2.5799484 1.7100372 4.128395l0 23.353058c0 3.224472 -2.613968 5.8384247 -5.83844 5.8384247l-81.65957 0l0 0c-3.2244797 0 -5.8384323 -2.6139526 -5.8384323 -5.8384247z" fill-rule="evenodd"/><path fill="#d0d1d2" d="m166.65456 137.38731l0 0c0 -1.2917175 1.0471344 -2.3388672 2.338852 -2.3388672l19.498154 0c0.62031555 0 1.21521 0.24641418 1.6538239 0.68504333c0.43862915 0.4386139 0.68504333 1.0335083 0.68504333 1.6538239l0 9.355164c0 1.2917175 -1.0471497 2.338852 -2.3388672 2.338852l-19.498154 0c-1.2917175 0 -2.338852 -1.0471344 -2.338852 -2.338852z" fill-rule="evenodd"/><path fill="#d0d1d2" d="m116.92893 133.73582l0 0c0 -0.62371826 0.50562286 -1.1293335 1.1293411 -1.1293335l25.827988 0c0.29953003 0 0.58677673 0.11897278 0.7985687 0.33078003c0.21179199 0.21179199 0.33078003 0.4990387 0.33078003 0.79855347l0 4.5172577c0 0.62371826 -0.5056305 1.1293488 -1.1293488 1.1293488l-25.827988 0c-0.62371826 0 -1.1293411 -0.5056305 -1.1293411 -1.1293488z" fill-rule="evenodd"/><path fill="#d0d1d2" d="m126.1836 135.87247l0 0c0 -0.729599 0.5914612 -1.3210602 1.3210526 -1.3210602l5.284073 0l0 0c0.35035706 0 0.68637085 0.13919067 0.9341278 0.38693237c0.2477417 0.2477417 0.3869171 0.5837555 0.3869171 0.9341278l0 11.390778c0 0.729599 -0.5914459 1.3210449 -1.3210449 1.3210449l-5.284073 0c-0.72959137 0 -1.3210526 -0.5914459 -1.3210526 -1.3210449z" fill-rule="evenodd"/><path fill="#d0d1d2" d="m120.89769 175.49388l0 0c0 -5.8598785 4.7503815 -10.61026 10.610275 -10.61026l53.440247 0c2.8140106 0 5.5127716 1.1178589 7.502594 3.107666c1.9898071 1.9898224 3.107666 4.6885834 3.107666 7.502594l0 42.43982c0 5.8598785 -4.7503815 10.61026 -10.61026 10.61026l-53.440247 0c-5.859894 0 -10.610275 -4.7503815 -10.610275 -10.61026z" fill-rule="evenodd"/><path fill="#d0d1d2" d="m88.23027 150.64702l0 0c0 -3.4362488 2.785614 -6.221863 6.221855 -6.221863l121.54835 0c1.6501465 0 3.2326965 0.6555176 4.399521 1.8223419c1.1668243 1.1668243 1.8223419 2.7493744 1.8223419 4.399521l0 24.886673c0 3.4362335 -2.7856293 6.221863 -6.221863 6.221863l-121.54835 0c-3.4362411 0 -6.221855 -2.7856293 -6.221855 -6.221863z" fill-rule="evenodd"/><path fill="#d0d1d2" d="m81.776306 181.46033l0 0c0 -4.2139587 3.416092 -7.6300507 7.6300583 -7.6300507l40.223106 0c2.0236206 0 3.9643555 0.8038788 5.3952637 2.234787c1.4309082 1.4309235 2.234787 3.371643 2.234787 5.3952637l0 30.519302c0 4.2139587 -3.416092 7.6300507 -7.6300507 7.6300507l-40.223106 0c-4.2139664 0 -7.6300583 -3.416092 -7.6300583 -7.6300507z" fill-rule="evenodd"/><path fill="#d0d1d2" d="m97.83286 208.1798l0 0c0 -1.26091 1.0221786 -2.283081 2.2830963 -2.283081l34.855553 0c0.6055145 0 1.1862183 0.24053955 1.6143799 0.6687012c0.42816162 0.42816162 0.6687012 1.0088654 0.6687012 1.6143799l0 9.132095c0 1.26091 -1.022171 2.283081 -2.283081 2.283081l-34.855553 0c-1.2609177 0 -2.2830963 -1.022171 -2.2830963 -2.283081z" fill-rule="evenodd"/><path fill="#d0d1d2" d="m120.89769 188.3758l0 0c0 -1.5054016 1.2203674 -2.725769 2.7257614 -2.725769l10.902733 0l0 0c0.7229309 0 1.4162292 0.28718567 1.927414 0.7983551c0.5111847 0.5111847 0.7983551 1.2044983 0.7983551 1.927414l0 28.49089c0 1.5054016 -1.2203674 2.725769 -2.725769 2.725769l-10.902733 0c-1.505394 0 -2.7257614 -1.2203674 -2.7257614 -2.725769z" fill-rule="evenodd"/><path fill="#d0d1d2" d="m88.23027 175.29425l0 0c0 -0.8085327 0.65543365 -1.463974 1.4639664 -1.463974l18.34098 0c0.38826752 0 0.76062775 0.15423584 1.0351791 0.42878723c0.27454376 0.2745514 0.42878723 0.6469116 0.42878723 1.0351868l0 5.8556824c0 0.8085327 -0.6554413 1.4639587 -1.4639664 1.4639587l-18.34098 0c-0.8085327 0 -1.4639664 -0.655426 -1.4639664 -1.4639587z" fill-rule="evenodd"/><path fill="#d0d1d2" d="m155.02922 170.05559l0 0c0 -1.2917175 1.0471344 -2.3388672 2.338852 -2.3388672l40.767075 0c0.6203003 0 1.2151947 0.24641418 1.6538239 0.68504333c0.4386139 0.4386139 0.6850281 1.0335236 0.6850281 1.6538239l0 9.355164c0 1.2917175 -1.0471344 2.338852 -2.338852 2.338852l-40.767075 0c-1.2917175 0 -2.338852 -1.0471344 -2.338852 -2.338852z" fill-rule="evenodd"/><path fill="#d0d1d2" d="m200.47597 155.33253l0 0c0 -0.729599 0.5914612 -1.3210602 1.3210602 -1.3210602l5.2840576 0l0 0c0.3503723 0 0.6863861 0.13919067 0.9341278 0.38693237c0.24775696 0.2477417 0.38693237 0.5837555 0.38693237 0.9341278l0 11.056152c0 0.729599 -0.5914612 1.3210602 -1.3210602 1.3210602l-5.2840576 0c-0.729599 0 -1.3210602 -0.5914612 -1.3210602 -1.3210602z" fill-rule="evenodd"/><path fill="#d0d1d2" d="m100.02633 156.24078l0 0c0 -0.62371826 0.50562286 -1.1293335 1.1293411 -1.1293335l29.801529 0c0.29953003 0 0.58677673 0.11897278 0.7985687 0.33076477c0.21179199 0.21179199 0.33078003 0.49905396 0.33078003 0.7985687l0 4.5172577c0 0.62371826 -0.5056305 1.1293335 -1.1293488 1.1293335l-29.801529 0l0 0c-0.62371826 0 -1.1293411 -0.50561523 -1.1293411 -1.1293335z" fill-rule="evenodd"/><path fill="#d0d1d2" d="m126.1836 168.70692l0 0c0 -0.56596375 0.4588089 -1.0247803 1.0247803 -1.0247803l19.219353 0c0.27178955 0 0.53245544 0.10797119 0.72462463 0.30015564c0.19218445 0.19218445 0.30015564 0.45283508 0.30015564 0.72462463l0 4.098984c0 0.56596375 -0.45880127 1.0247803 -1.0247803 1.0247803l-19.219353 0c-0.5659714 0 -1.0247803 -0.45881653 -1.0247803 -1.0247803z" fill-rule="evenodd"/><path fill="#d0d1d2" d="m147.44827 188.3758l0 0c0 -1.5054016 1.2203674 -2.725769 2.725769 -2.725769l10.9027405 0l0 0c0.72291565 0 1.4162292 0.28718567 1.9273987 0.7983551c0.5111847 0.5111847 0.7983551 1.2044983 0.7983551 1.927414l0 21.568558c0 1.5054016 -1.2203674 2.725769 -2.7257538 2.725769l-10.9027405 0c-1.5054016 0 -2.725769 -1.2203674 -2.725769 -2.725769z" fill-rule="evenodd"/><path fill="#d0d1d2" d="m163.31898 214.62349l0 0c0 -1.0780334 0.8739166 -1.9519501 1.9519501 -1.9519501l12.450363 0c0.51768494 0 1.0141754 0.2056427 1.3802338 0.57170105c0.36605835 0.3660736 0.5717163 0.8625641 0.5717163 1.380249l0 7.8075867c0 1.0780334 -0.8739166 1.9519501 -1.9519501 1.9519501l-12.450363 0c-1.0780334 0 -1.9519501 -0.8739166 -1.9519501 -1.9519501z" fill-rule="evenodd"/><path fill="#f73d35" d="m91.15129 113.2962l0 0c0 -3.2244797 2.6139526 -5.8384323 5.8384323 -5.8384323l81.65957 0c1.5484467 0 3.0334778 0.61511993 4.1284027 1.7100372c1.0949097 1.0949173 1.7100372 2.5799484 1.7100372 4.128395l0 23.353058c0 3.224472 -2.613968 5.8384247 -5.83844 5.8384247l-81.65957 0l0 0c-3.2244797 0 -5.8384323 -2.6139526 -5.8384323 -5.8384247z" fill-rule="evenodd"/><path fill="#e03027" d="m150.65456 121.38731l0 0c0 -1.2917099 1.0471344 -2.3388596 2.338852 -2.3388596l19.498154 0c0.62031555 0 1.21521 0.24641418 1.6538239 0.6850357c0.43862915 0.43862152 0.68504333 1.0335236 0.68504333 1.6538239l0 9.355171c0 1.2917175 -1.0471497 2.338852 -2.3388672 2.338852l-19.498154 0c-1.2917175 0 -2.338852 -1.0471344 -2.338852 -2.338852z" fill-rule="evenodd"/><path fill="#e03027" d="m100.92893 117.73583l0 0c0 -0.62371826 0.50562286 -1.1293488 1.1293411 -1.1293488l25.827988 0c0.29953003 0 0.58677673 0.11898804 0.7985687 0.33078003c0.21179199 0.21179199 0.33078003 0.49904633 0.33078003 0.7985687l0 4.5172424c0 0.6237259 -0.5056305 1.1293488 -1.1293488 1.1293488l-25.827988 0c-0.62371826 0 -1.1293411 -0.50562286 -1.1293411 -1.1293488z" fill-rule="evenodd"/><path fill="#e03027" d="m110.1836 119.87247l0 0c0 -0.729599 0.5914612 -1.3210526 1.3210526 -1.3210526l5.2840652 0l0 0c0.35036469 0 0.6863785 0.13918304 0.9341278 0.38692474c0.24774933 0.24774933 0.38692474 0.5837631 0.38692474 0.9341278l0 11.390778c0 0.729599 -0.59145355 1.3210449 -1.3210526 1.3210449l-5.2840652 0c-0.72959137 0 -1.3210526 -0.5914459 -1.3210526 -1.3210449z" fill-rule="evenodd"/><path fill="#e03027" d="m104.89769 159.49388l0 0c0 -5.8598785 4.7503815 -10.61026 10.610268 -10.61026l53.440254 0c2.8140106 0 5.5127716 1.1178589 7.502594 3.107666c1.9898071 1.9898224 3.107666 4.6885834 3.107666 7.502594l0 42.43982c0 5.8598785 -4.7503815 10.61026 -10.61026 10.61026l-53.440254 0c-5.859886 0 -10.610268 -4.7503815 -10.610268 -10.61026z" fill-rule="evenodd"/><path fill="#fb5c4e" d="m72.23027 134.64702l0 0c0 -3.4362488 2.785614 -6.221863 6.221855 -6.221863l121.54835 0c1.6501465 0 3.2326965 0.6555176 4.399521 1.8223419c1.1668243 1.1668243 1.8223419 2.7493744 1.8223419 4.399521l0 24.886673c0 3.4362335 -2.7856293 6.221863 -6.221863 6.221863l-121.54835 0c-3.4362411 0 -6.221855 -2.7856293 -6.221855 -6.221863z" fill-rule="evenodd"/><path fill="#fb5c4e" d="m65.776306 165.46033l0 0c0 -4.2139587 3.416092 -7.6300507 7.6300583 -7.6300507l40.223106 0c2.023613 0 3.9643478 0.8038788 5.3952637 2.234787c1.4309082 1.4309235 2.234787 3.371643 2.234787 5.3952637l0 30.519302c0 4.2139587 -3.416092 7.6300507 -7.6300507 7.6300507l-40.223106 0c-4.2139664 0 -7.6300583 -3.416092 -7.6300583 -7.6300507z" fill-rule="evenodd"/><path fill="#f73d35" d="m81.83286 192.1798l0 0c0 -1.26091 1.0221786 -2.283081 2.2830963 -2.283081l34.855553 0c0.6055069 0 1.1862259 0.24053955 1.6143875 0.6687012c0.42816162 0.42816162 0.6687012 1.0088654 0.6687012 1.6143799l0 9.132095c0 1.26091 -1.0221786 2.283081 -2.2830887 2.283081l-34.855553 0c-1.2609177 0 -2.2830963 -1.022171 -2.2830963 -2.283081z" fill-rule="evenodd"/><path fill="#f73d35" d="m104.89769 172.3758l0 0c0 -1.5054016 1.2203674 -2.725769 2.7257614 -2.725769l10.9027405 0l0 0c0.72291565 0 1.4162292 0.28718567 1.9274063 0.7983551c0.51117706 0.5111847 0.7983551 1.2044983 0.7983551 1.927414l0 28.49089c0 1.5054016 -1.2203674 2.725769 -2.7257614 2.725769l-10.9027405 0c-1.505394 0 -2.7257614 -1.2203674 -2.7257614 -2.725769z" fill-rule="evenodd"/><path fill="#fc8076" d="m72.23027 159.29425l0 0c0 -0.8085327 0.65543365 -1.463974 1.4639664 -1.463974l18.34098 0c0.38826752 0 0.76062775 0.15423584 1.0351791 0.42878723c0.27454376 0.2745514 0.42878723 0.6469116 0.42878723 1.0351868l0 5.8556824c0 0.8085327 -0.6554413 1.4639587 -1.4639664 1.4639587l-18.34098 0c-0.8085327 0 -1.4639664 -0.655426 -1.4639664 -1.4639587z" fill-rule="evenodd"/><path fill="#f73d35" d="m139.02922 154.05559l0 0c0 -1.2917175 1.0471344 -2.3388672 2.338852 -2.3388672l40.767075 0c0.6203003 0 1.2151947 0.24641418 1.6538239 0.68504333c0.4386139 0.4386139 0.6850281 1.0335236 0.6850281 1.6538239l0 9.355164c0 1.2917175 -1.0471344 2.338852 -2.338852 2.338852l-40.767075 0c-1.2917175 0 -2.338852 -1.0471344 -2.338852 -2.338852z" fill-rule="evenodd"/><path fill="#f73d35" d="m184.47597 139.33253l0 0c0 -0.729599 0.5914612 -1.3210602 1.3210602 -1.3210602l5.2840576 0l0 0c0.3503723 0 0.6863861 0.13919067 0.9341278 0.38693237c0.24775696 0.2477417 0.38693237 0.5837555 0.38693237 0.9341278l0 11.056152c0 0.729599 -0.5914612 1.3210602 -1.3210602 1.3210602l-5.2840576 0c-0.729599 0 -1.3210602 -0.5914612 -1.3210602 -1.3210602z" fill-rule="evenodd"/><path fill="#f73d35" d="m84.02633 140.24078l0 0c0 -0.62371826 0.50562286 -1.1293335 1.1293411 -1.1293335l29.801529 0c0.2995224 0 0.58677673 0.11897278 0.7985687 0.33076477c0.21179199 0.21179199 0.33078003 0.49905396 0.33078003 0.7985687l0 4.5172577c0 0.62371826 -0.50562286 1.1293335 -1.1293488 1.1293335l-29.801529 0l0 0c-0.62371826 0 -1.1293411 -0.50561523 -1.1293411 -1.1293335z" fill-rule="evenodd"/><path fill="#fc8076" d="m110.1836 152.70692l0 0c0 -0.56596375 0.4588089 -1.0247803 1.0247803 -1.0247803l19.219353 0c0.27178955 0 0.53245544 0.10797119 0.72462463 0.30015564c0.19218445 0.19218445 0.30015564 0.45283508 0.30015564 0.72462463l0 4.098984c0 0.56596375 -0.45880127 1.0247803 -1.0247803 1.0247803l-19.219353 0c-0.5659714 0 -1.0247803 -0.45881653 -1.0247803 -1.0247803z" fill-rule="evenodd"/><path fill="#f73d35" d="m131.44827 172.3758l0 0c0 -1.5054016 1.2203674 -2.725769 2.725769 -2.725769l10.9027405 0l0 0c0.72291565 0 1.4162292 0.28718567 1.9273987 0.7983551c0.5111847 0.5111847 0.7983551 1.2044983 0.7983551 1.927414l0 21.568558c0 1.5054016 -1.2203674 2.725769 -2.7257538 2.725769l-10.9027405 0c-1.5054016 0 -2.725769 -1.2203674 -2.725769 -2.725769z" fill-rule="evenodd"/><path fill="#f73d35" d="m147.31898 198.62349l0 0c0 -1.0780334 0.8739166 -1.9519501 1.9519501 -1.9519501l12.450363 0c0.51768494 0 1.0141754 0.2056427 1.3802338 0.57170105c0.36605835 0.3660736 0.5717163 0.8625641 0.5717163 1.380249l0 7.8075867c0 1.0780334 -0.8739166 1.9519501 -1.9519501 1.9519501l-12.450363 0c-1.0780334 0 -1.9519501 -0.8739166 -1.9519501 -1.9519501z" fill-rule="evenodd"/></g></svg>