<svg version="1.1" viewBox="0.0 0.0 288.0 384.0" fill="none" stroke="none" stroke-linecap="square" stroke-miterlimit="10" xmlns:xlink="http://www.w3.org/1999/xlink" xmlns="http://www.w3.org/2000/svg"><clipPath id="g3b18a6c779a_0_3602.0"><path d="m0 0l288.0 0l0 384.0l-288.0 0l0 -384.0z" clip-rule="nonzero"/></clipPath><g clip-path="url(#g3b18a6c779a_0_3602.0)"><path fill="#ffffff" d="m0 0l288.0 0l0 384.0l-288.0 0z" fill-rule="evenodd"/><path fill="#d0d1d2" d="m5.7007875 34.135216l0 0c0 -9.966135 8.079147 -18.045282 18.04528 -18.045282l240.50787 0c4.7858887 0 9.375793 1.9011936 12.759949 5.2853394c3.3841248 3.3841476 5.2853394 7.9740353 5.2853394 12.759943l0 324.2244c0 9.9661255 -8.079163 18.045288 -18.045288 18.045288l-240.50787 0l0 0c-9.966134 0 -18.04528 -8.079163 -18.04528 -18.045288z" fill-rule="evenodd"/><path stroke="#d0d1d2" stroke-width="4.0" stroke-linejoin="round" stroke-linecap="butt" d="m5.7007875 34.135216l0 0c0 -9.966135 8.079147 -18.045282 18.04528 -18.045282l240.50787 0c4.7858887 0 9.375793 1.9011936 12.759949 5.2853394c3.3841248 3.3841476 5.2853394 7.9740353 5.2853394 12.759943l0 324.2244c0 9.9661255 -8.079163 18.045288 -18.045288 18.045288l-240.50787 0l0 0c-9.966134 0 -18.04528 -8.079163 -18.04528 -18.045288z" fill-rule="evenodd"/><path fill="#f9f9f9" d="m5.7007875 25.639769l0 0c0 -9.966133 8.079147 -18.04528 18.04528 -18.04528l240.50787 0c4.7858887 0 9.375793 1.9011936 12.759949 5.2853403c3.3841248 3.3841467 5.2853394 7.9740343 5.2853394 12.75994l0 324.2244c0 9.9661255 -8.079163 18.045288 -18.045288 18.045288l-240.50787 0l0 0c-9.966134 0 -18.04528 -8.079163 -18.04528 -18.045288z" fill-rule="evenodd"/><path stroke="#d0d1d2" stroke-width="4.0" stroke-linejoin="round" stroke-linecap="butt" d="m5.7007875 25.639769l0 0c0 -9.966133 8.079147 -18.04528 18.04528 -18.04528l240.50787 0c4.7858887 0 9.375793 1.9011936 12.759949 5.2853403c3.3841248 3.3841467 5.2853394 7.9740343 5.2853394 12.75994l0 324.2244c0 9.9661255 -8.079163 18.045288 -18.045288 18.045288l-240.50787 0l0 0c-9.966134 0 -18.04528 -8.079163 -18.04528 -18.045288z" fill-rule="evenodd"/><path fill="#d0d1d2" d="m209.21324 171.66798l0 0c0 -4.006363 3.2477875 -7.2541504 7.2541504 -7.2541504l29.015732 0l0 0c1.9239197 0 3.769043 0.76426697 5.1294556 2.1246948c1.3604126 1.3604126 2.1246948 3.205536 2.1246948 5.1294556l0 38.078537c0 4.0063477 -3.2478027 7.2541504 -7.2541504 7.2541504l-29.015732 0c-4.006363 0 -7.2541504 -3.2478027 -7.2541504 -7.2541504z" fill-rule="evenodd"/><path fill="#d0d1d2" d="m176.85492 155.65437l0 0c0 -4.804947 3.8951874 -8.700134 8.70015 -8.700134l34.79953 0l0 0c2.3074188 0 4.5203247 0.9166107 6.1519165 2.5482025c1.6315918 1.631607 2.5482178 3.844513 2.5482178 6.151932l0 54.84413c0 4.804947 -3.8951874 8.700134 -8.700134 8.700134l-34.79953 0c-4.804962 0 -8.70015 -3.8951874 -8.70015 -8.700134z" fill-rule="evenodd"/><path fill="#d0d1d2" d="m51.26294 171.66798l0 0c0 -4.006363 3.247795 -7.2541504 7.2541504 -7.2541504l29.015732 0l0 0c1.9239197 0 3.769043 0.76426697 5.1294556 2.1246948c1.3604202 1.3604126 2.1246948 3.205536 2.1246948 5.1294556l0 38.078537c0 4.0063477 -3.247795 7.2541504 -7.2541504 7.2541504l-29.015732 0c-4.0063553 0 -7.2541504 -3.2478027 -7.2541504 -7.2541504z" fill-rule="evenodd"/><path fill="#d0d1d2" d="m74.947235 155.65437l0 0c0 -4.804947 3.8951874 -8.700134 8.700142 -8.700134l34.799522 0l0 0c2.3074265 0 4.52034 0.9166107 6.151932 2.5482025c1.6315918 1.631607 2.5482101 3.844513 2.5482101 6.151932l0 54.84413c0 4.804947 -3.8951797 8.700134 -8.700142 8.700134l-34.799522 0c-4.8049545 0 -8.700142 -3.8951874 -8.700142 -8.700134z" fill-rule="evenodd"/><path fill="#d0d1d2" d="m107.30555 145.48929l0 0c0 -8.229431 6.6712723 -14.900711 14.900703 -14.900711l59.601044 0l0 0c3.9519196 0 7.741974 1.5698853 10.536392 4.364319c2.7944183 2.7944183 4.364319 6.5844727 4.364319 10.536392l0 61.020126c0 8.229431 -6.67128 14.900711 -14.900711 14.900711l-59.601044 0l0 0c-8.229431 0 -14.900703 -6.67128 -14.900703 -14.900711z" fill-rule="evenodd"/><path fill="#d0d1d2" d="m55.67342 171.18144l0 0c0 -1.3018036 1.0553207 -2.357132 2.3571281 -2.357132l9.42823 0l0 0c0.6251526 0 1.2246933 0.24833679 1.6667404 0.6903839c0.44204712 0.44204712 0.69039154 1.0415955 0.69039154 1.666748l0 26.634659c0 1.3018036 -1.0553284 2.3571167 -2.357132 2.3571167l-9.42823 0c-1.3018074 0 -2.3571281 -1.0553131 -2.3571281 -2.3571167z" fill-rule="evenodd"/><path fill="#d0d1d2" d="m79.35804 157.29782l0 0c0 -2.058838 1.6690216 -3.7278595 3.7278671 -3.7278595l14.911011 0l0 0c0.98869324 0 1.9368896 0.39274597 2.6360016 1.0918579c0.6991043 0.69911194 1.0918655 1.6473083 1.0918655 2.6360016l0 27.473145c0 2.0588531 -1.6690216 3.7278748 -3.7278671 3.7278748l-14.911011 0c-2.0588455 0 -3.7278671 -1.6690216 -3.7278671 -3.7278748z" fill-rule="evenodd"/><path fill="#d0d1d2" d="m117.51274 144.83852l0 0c0 -2.9791565 2.4150848 -5.3942566 5.394249 -5.3942566l21.576347 0l0 0c1.4306488 0 2.8027039 0.56832886 3.8143158 1.5799408c1.0116119 1.0116272 1.5799408 2.383667 1.5799408 3.8143158l0 24.14038c0 2.9791565 -2.4150848 5.3942566 -5.3942566 5.3942566l-21.576347 0l0 0c-2.9791641 0 -5.394249 -2.4151 -5.394249 -5.3942566z" fill-rule="evenodd"/><path fill="#9a4600" d="m193.21324 155.66798l0 0c0 -4.006363 3.2477875 -7.2541504 7.2541504 -7.2541504l29.015732 0l0 0c1.9239197 0 3.769043 0.76426697 5.1294556 2.1246948c1.3604126 1.3604126 2.1246948 3.205536 2.1246948 5.1294556l0 38.078537c0 4.0063477 -3.2478027 7.2541504 -7.2541504 7.2541504l-29.015732 0c-4.006363 0 -7.2541504 -3.2478027 -7.2541504 -7.2541504z" fill-rule="evenodd"/><path fill="#c16a22" d="m160.85492 139.65437l0 0c0 -4.804947 3.8951874 -8.700134 8.70015 -8.700134l34.79953 0l0 0c2.3074188 0 4.5203247 0.9166107 6.1519165 2.5482025c1.6315918 1.631607 2.5482178 3.844513 2.5482178 6.151932l0 54.84413c0 4.804947 -3.8951874 8.700134 -8.700134 8.700134l-34.79953 0c-4.804962 0 -8.70015 -3.8951874 -8.70015 -8.700134z" fill-rule="evenodd"/><path fill="#9a4600" d="m35.26294 155.66798l0 0c0 -4.006363 3.247795 -7.2541504 7.2541504 -7.2541504l29.015732 0l0 0c1.9239197 0 3.769043 0.76426697 5.1294556 2.1246948c1.3604202 1.3604126 2.1246948 3.205536 2.1246948 5.1294556l0 38.078537c0 4.0063477 -3.247795 7.2541504 -7.2541504 7.2541504l-29.015732 0c-4.0063553 0 -7.2541504 -3.2478027 -7.2541504 -7.2541504z" fill-rule="evenodd"/><path fill="#c16a22" d="m58.947235 139.65437l0 0c0 -4.804947 3.8951836 -8.700134 8.700142 -8.700134l34.799522 0l0 0c2.3074265 0 4.52034 0.9166107 6.151932 2.5482025c1.6315918 1.631607 2.5482101 3.844513 2.5482101 6.151932l0 54.84413c0 4.804947 -3.8951797 8.700134 -8.700142 8.700134l-34.799522 0c-4.8049583 0 -8.700142 -3.8951874 -8.700142 -8.700134z" fill-rule="evenodd"/><path fill="#e18437" d="m91.30555 129.48929l0 0c0 -8.229439 6.6712723 -14.900711 14.900703 -14.900711l59.601044 0l0 0c3.9519196 0 7.741974 1.5698929 10.536392 4.364319c2.7944183 2.794426 4.364319 6.5844727 4.364319 10.536392l0 61.020126c0 8.229431 -6.67128 14.900711 -14.900711 14.900711l-59.601044 0l0 0c-8.229431 0 -14.900703 -6.67128 -14.900703 -14.900711z" fill-rule="evenodd"/><path fill="#c16a22" d="m39.67342 155.18144l0 0c0 -1.3018036 1.0553207 -2.357132 2.3571281 -2.357132l9.42823 0l0 0c0.6251488 0 1.2246933 0.24833679 1.6667404 0.6903839c0.44205093 0.44204712 0.6903877 1.0415955 0.6903877 1.666748l0 26.634659c0 1.3018036 -1.0553207 2.3571167 -2.3571281 2.3571167l-9.42823 0c-1.3018074 0 -2.3571281 -1.0553131 -2.3571281 -2.3571167z" fill-rule="evenodd"/><path fill="#e18437" d="m63.35804 141.29782l0 0c0 -2.058838 1.6690216 -3.7278595 3.7278671 -3.7278595l14.911011 0l0 0c0.98869324 0 1.9368896 0.39274597 2.6360016 1.0918579c0.6991043 0.69911194 1.0918655 1.6473083 1.0918655 2.6360016l0 27.473145c0 2.0588531 -1.6690216 3.7278748 -3.7278671 3.7278748l-14.911011 0c-2.0588455 0 -3.7278671 -1.6690216 -3.7278671 -3.7278748z" fill-rule="evenodd"/><path fill="#e59b5e" d="m101.51274 128.83852l0 0c0 -2.9791641 2.4150848 -5.394249 5.394249 -5.394249l21.576347 0l0 0c1.4306488 0 2.8027039 0.5683212 3.8143158 1.5799408c1.0116119 1.0116119 1.5799408 2.3836594 1.5799408 3.8143082l0 24.14038c0 2.9791565 -2.4150848 5.3942566 -5.3942566 5.3942566l-21.576347 0l0 0c-2.9791641 0 -5.394249 -2.4151 -5.394249 -5.3942566z" fill-rule="evenodd"/><path fill="#000000" fill-opacity="0.0" d="m21.700787 315.7533l266.29922 0l0 38.771637l-266.29922 0z" fill-rule="evenodd"/><path fill="#000000" d="m39.950787 334.23828l0.265625 -0.625q1.390625 0.03125 2.296875 0.421875q0.90625 0.390625 1.34375 1.09375q0.453125 0.703125 0.453125 1.609375q0 0.96875 -0.453125 1.734375q-0.4375 0.765625 -1.328125 1.203125q-0.890625 0.4375 -2.21875 0.4375l-8.859375 0l0.9375 -6.15625l-0.9375 -5.84375l8.546875 0q1.65625 0 2.578125 0.78125q0.9375 0.765625 0.9375 2.140625q0 0.765625 -0.359375 1.453125q-0.34375 0.6875 -1.125 1.15625q-0.765625 0.46875 -2.078125 0.59375zm-5.21875 5.109375l-1.28125 -1.546875l5.96875 0q0.71875 0 1.109375 -0.359375q0.40625 -0.359375 0.40625 -0.96875q0 -0.625 -0.4375 -1.0q-0.421875 -0.390625 -1.265625 -0.390625l-4.9375 0l0 -2.265625l4.484375 0q0.578125 0 0.96875 -0.34375q0.390625 -0.34375 0.390625 -0.9375q0 -0.484375 -0.34375 -0.796875q-0.328125 -0.3125 -0.953125 -0.3125l-5.375 0l1.265625 -1.546875l0.8125 5.078125l-0.8125 5.390625zm10.485519 -8.375l3.328125 0l0.546875 3.265625l0 5.875l-3.265625 0l0 -6.0625l-0.609375 -3.078125zm8.15625 -0.140625l0 2.78125q-0.484375 -0.09375 -0.90625 -0.125q-0.421875 -0.046875 -0.78125 -0.046875q-0.703125 0 -1.296875 0.28125q-0.578125 0.28125 -0.9375 0.921875q-0.359375 0.640625 -0.359375 1.703125l-0.625 -0.765625q0.125 -0.984375 0.375 -1.859375q0.265625 -0.875 0.703125 -1.546875q0.4375 -0.6875 1.09375 -1.078125q0.65625 -0.390625 1.59375 -0.390625q0.28125 0 0.5625 0.03125q0.296875 0.03125 0.578125 0.09375zm6.233017 9.53125q-1.65625 0 -2.96875 -0.59375q-1.296875 -0.609375 -2.046875 -1.703125q-0.75 -1.109375 -0.75 -2.5625q0 -1.421875 0.71875 -2.5q0.71875 -1.078125 1.96875 -1.6875q1.265625 -0.609375 2.84375 -0.609375q1.640625 0 2.796875 0.71875q1.171875 0.703125 1.796875 2.0q0.6406288 1.296875 0.6406288 3.0625l-8.125004 0l0 -1.96875l6.28125 0l-1.0625 0.6875q-0.078125 -0.703125 -0.359375 -1.1875q-0.28125 -0.5 -0.765625 -0.75q-0.46875 -0.265625 -1.125 -0.265625q-0.71875 0 -1.234375 0.296875q-0.5 0.28125 -0.796875 0.796875q-0.28125 0.5 -0.28125 1.171875q0 0.859375 0.390625 1.46875q0.390625 0.59375 1.140625 0.921875q0.765625 0.3125 1.875 0.3125q1.0 0 2.0 -0.265625q1.0 -0.265625 1.8281288 -0.75l0 2.078125q-0.9531288 0.640625 -2.1718788 0.984375q-1.203125 0.34375 -2.59375 0.34375zm14.650272 -0.25l-0.421875 -3.296875l0.4375 -1.265625l-0.4375 -1.265625l0.421875 -3.3125l3.390625 0l-0.578125 4.5625l0.578125 4.578125l-3.390625 0zm0.765625 -4.5625q-0.21875 1.4375 -0.890625 2.53125q-0.65625 1.09375 -1.671875 1.6875q-1.015625 0.59375 -2.3125 0.59375q-1.34375 0 -2.375 -0.59375q-1.015625 -0.59375 -1.59375 -1.6875q-0.5625 -1.109375 -0.5625 -2.53125q0 -1.453125 0.5625 -2.53125q0.578125 -1.09375 1.59375 -1.703125q1.03125 -0.609375 2.375 -0.609375q1.296875 0 2.3125 0.609375q1.015625 0.59375 1.6875 1.671875q0.671875 1.078125 0.875 2.5625zm-6.09375 0q0 0.671875 0.28125 1.203125q0.28125 0.53125 0.765625 0.828125q0.5 0.296875 1.140625 0.296875q0.671875 0 1.265625 -0.296875q0.59375 -0.296875 1.03125 -0.828125q0.453125 -0.53125 0.671875 -1.203125q-0.21875 -0.6875 -0.671875 -1.203125q-0.4375 -0.53125 -1.03125 -0.828125q-0.59375 -0.3125 -1.265625 -0.3125q-0.640625 0 -1.140625 0.3125q-0.484375 0.296875 -0.765625 0.828125q-0.28125 0.515625 -0.28125 1.203125zm18.542664 4.5625l-0.4375 -3.421875l0.5625 -1.125l-0.546875 -1.40625l0.765625 -6.359375l3.390625 0l-0.9375 7.5l0.578125 4.8125l-3.375 0zm0.703125 -4.5625q-0.21875 1.4375 -0.890625 2.53125q-0.65625 1.09375 -1.671875 1.6875q-1.015625 0.59375 -2.3125 0.59375q-1.34375 0 -2.375 -0.59375q-1.015625 -0.59375 -1.59375 -1.6875q-0.5625 -1.109375 -0.5625 -2.53125q0 -1.453125 0.5625 -2.53125q0.578125 -1.09375 1.59375 -1.703125q1.03125 -0.609375 2.375 -0.609375q1.296875 0 2.3125 0.609375q1.015625 0.59375 1.6875 1.671875q0.671875 1.078125 0.875 2.5625zm-6.09375 0q0 0.671875 0.28125 1.203125q0.28125 0.53125 0.765625 0.828125q0.5 0.296875 1.140625 0.296875q0.671875 0 1.265625 -0.296875q0.59375 -0.296875 1.03125 -0.828125q0.453125 -0.53125 0.671875 -1.203125q-0.21875 -0.6875 -0.671875 -1.203125q-0.4375 -0.53125 -1.03125 -0.828125q-0.59375 -0.3125 -1.265625 -0.3125q-0.640625 0 -1.140625 0.3125q-0.484375 0.296875 -0.765625 0.828125q-0.28125 0.515625 -0.28125 1.203125z" fill-rule="nonzero"/><path fill="#000000" d="m99.88422 336.95703q0 -0.84375 0.171875 -1.765625q0.171875 -0.921875 0.46875 -1.78125q0.3125 -0.875 0.703125 -1.515625l0.859375 0q-0.40625 0.8125 -0.703125 1.703125q-0.296875 0.875 -0.453125 1.75q-0.15625 0.859375 -0.15625 1.609375q0 0.671875 0.140625 1.390625q0.140625 0.703125 0.421875 1.5q0.296875 0.78125 0.75 1.71875l-0.859375 0q-0.671875 -1.125 -1.015625 -2.296875q-0.328125 -1.171875 -0.328125 -2.3125zm8.166168 3.28125q-0.546875 0 -0.890625 -0.1875q-0.328125 -0.1875 -0.515625 -0.421875q-0.1875 -0.25 -0.28125 -0.40625l-0.109375 0l0 0.890625l-0.84375 0l0 -7.75l0.875 0l0 2.859375l0.078125 0q0.09375 -0.15625 0.265625 -0.390625q0.1875 -0.234375 0.515625 -0.421875q0.34375 -0.1875 0.90625 -0.1875q0.734375 0 1.28125 0.375q0.5625 0.359375 0.875 1.03125q0.3125 0.671875 0.3125 1.59375q0 0.921875 -0.3125 1.609375q-0.3125 0.671875 -0.875 1.046875q-0.546875 0.359375 -1.28125 0.359375zm-0.109375 -0.796875q0.5625 0 0.9375 -0.296875q0.375 -0.3125 0.5625 -0.8125q0.1875 -0.5 0.1875 -1.125q0 -0.609375 -0.1875 -1.09375q-0.1875 -0.5 -0.5625 -0.796875q-0.375 -0.296875 -0.9375 -0.296875q-0.546875 0 -0.921875 0.28125q-0.359375 0.265625 -0.546875 0.765625q-0.1875 0.484375 -0.1875 1.140625q0 0.65625 0.1875 1.15625q0.1875 0.5 0.5625 0.796875q0.375 0.28125 0.90625 0.28125zm3.4524841 0.671875l0 -5.8125l0.84375 0l0 0.875l0.0625 0q0.171875 -0.421875 0.578125 -0.6875q0.421875 -0.28125 0.9375 -0.28125q0.109375 0 0.25 0.015625q0.140625 0 0.21875 0l0 0.90625q-0.046875 -0.015625 -0.203125 -0.03125q-0.15625 -0.015625 -0.34375 -0.015625q-0.421875 0 -0.75 0.171875q-0.328125 0.171875 -0.53125 0.484375q-0.1875 0.3125 -0.1875 0.703125l0 3.671875l-0.875 0zm5.7101593 0.125q-0.828125 0 -1.4375 -0.375q-0.609375 -0.375 -0.9375 -1.046875q-0.328125 -0.671875 -0.328125 -1.5625q0 -0.890625 0.3125 -1.578125q0.328125 -0.6875 0.90625 -1.0625q0.59375 -0.390625 1.375 -0.390625q0.453125 0 0.890625 0.15625q0.453125 0.140625 0.8125 0.484375q0.375 0.34375 0.59375 0.90625q0.21875 0.546875 0.21875 1.359375l0 0.375l-4.484375 0l0 -0.765625l4.0 0l-0.40625 0.296875q0 -0.578125 -0.1875 -1.03125q-0.171875 -0.453125 -0.546875 -0.71875q-0.359375 -0.265625 -0.890625 -0.265625q-0.53125 0 -0.921875 0.265625q-0.375 0.265625 -0.578125 0.6875q-0.203125 0.421875 -0.203125 0.90625l0 0.515625q0 0.65625 0.21875 1.109375q0.234375 0.453125 0.640625 0.703125q0.421875 0.234375 0.953125 0.234375q0.359375 0 0.640625 -0.09375q0.28125 -0.109375 0.484375 -0.3125q0.21875 -0.21875 0.328125 -0.515625l0.859375 0.25q-0.125 0.4375 -0.453125 0.765625q-0.3125 0.328125 -0.796875 0.515625q-0.46875 0.1875 -1.0625 0.1875zm5.431946 0q-0.71875 0 -1.28125 -0.359375q-0.546875 -0.375 -0.859375 -1.046875q-0.3125 -0.6875 -0.3125 -1.609375q0 -0.921875 0.3125 -1.59375q0.3125 -0.671875 0.859375 -1.03125q0.5625 -0.375 1.296875 -0.375q0.578125 0 0.90625 0.1875q0.328125 0.1875 0.5 0.421875q0.1875 0.234375 0.28125 0.390625l0.078125 0l0 -2.859375l0.875 0l0 7.75l-0.84375 0l0 -0.890625l-0.109375 0q-0.09375 0.15625 -0.28125 0.40625q-0.1875 0.234375 -0.53125 0.421875q-0.328125 0.1875 -0.890625 0.1875zm0.125 -0.796875q0.53125 0 0.90625 -0.28125q0.375 -0.296875 0.5625 -0.796875q0.1875 -0.5 0.1875 -1.15625q0 -0.65625 -0.1875 -1.140625q-0.1875 -0.5 -0.5625 -0.765625q-0.359375 -0.28125 -0.90625 -0.28125q-0.5625 0 -0.9375 0.296875q-0.375 0.296875 -0.5625 0.796875q-0.1875 0.484375 -0.1875 1.09375q0 0.625 0.1875 1.125q0.1875 0.5 0.5625 0.8125q0.375 0.296875 0.9375 0.296875zm5.8562927 2.125q0.453125 -0.9375 0.734375 -1.71875q0.296875 -0.796875 0.4375 -1.5q0.140625 -0.71875 0.140625 -1.390625q0 -0.75 -0.15625 -1.609375q-0.15625 -0.875 -0.453125 -1.75q-0.296875 -0.890625 -0.703125 -1.703125l0.859375 0q0.40625 0.640625 0.703125 1.515625q0.296875 0.859375 0.46875 1.78125q0.171875 0.921875 0.171875 1.765625q0 1.140625 -0.34375 2.3125q-0.328125 1.171875 -1.0 2.296875l-0.859375 0z" fill-rule="nonzero"/></g></svg>