<svg version="1.1" viewBox="0.0 0.0 288.0 384.0" fill="none" stroke="none" stroke-linecap="square" stroke-miterlimit="10" xmlns:xlink="http://www.w3.org/1999/xlink" xmlns="http://www.w3.org/2000/svg"><clipPath id="g3b18a6c779a_0_1601.0"><path d="m0 0l288.0 0l0 384.0l-288.0 0l0 -384.0z" clip-rule="nonzero"/></clipPath><g clip-path="url(#g3b18a6c779a_0_1601.0)"><path fill="#ffffff" d="m0 0l288.0 0l0 384.0l-288.0 0z" fill-rule="evenodd"/><path fill="#2563eb" d="m5.7007875 34.135216l0 0c0 -9.966135 8.079147 -18.045282 18.04528 -18.045282l240.50787 0c4.7858887 0 9.375793 1.9011936 12.759949 5.2853394c3.3841248 3.3841476 5.2853394 7.9740353 5.2853394 12.759943l0 324.2244c0 9.9661255 -8.079163 18.045288 -18.045288 18.045288l-240.50787 0l0 0c-9.966134 0 -18.04528 -8.079163 -18.04528 -18.045288z" fill-rule="evenodd"/><path stroke="#2563eb" stroke-width="4.0" stroke-linejoin="round" stroke-linecap="butt" d="m5.7007875 34.135216l0 0c0 -9.966135 8.079147 -18.045282 18.04528 -18.045282l240.50787 0c4.7858887 0 9.375793 1.9011936 12.759949 5.2853394c3.3841248 3.3841476 5.2853394 7.9740353 5.2853394 12.759943l0 324.2244c0 9.9661255 -8.079163 18.045288 -18.045288 18.045288l-240.50787 0l0 0c-9.966134 0 -18.04528 -8.079163 -18.04528 -18.045288z" fill-rule="evenodd"/><path fill="#a8c3ff" d="m5.7007875 25.639769l0 0c0 -9.966133 8.079147 -18.04528 18.04528 -18.04528l240.50787 0c4.7858887 0 9.375793 1.9011936 12.759949 5.2853403c3.3841248 3.3841467 5.2853394 7.9740343 5.2853394 12.75994l0 324.2244c0 9.9661255 -8.079163 18.045288 -18.045288 18.045288l-240.50787 0l0 0c-9.966134 0 -18.04528 -8.079163 -18.04528 -18.045288z" fill-rule="evenodd"/><path stroke="#2563eb" stroke-width="4.0" stroke-linejoin="round" stroke-linecap="butt" d="m5.7007875 25.639769l0 0c0 -9.966133 8.079147 -18.04528 18.04528 -18.04528l240.50787 0c4.7858887 0 9.375793 1.9011936 12.759949 5.2853403c3.3841248 3.3841467 5.2853394 7.9740343 5.2853394 12.75994l0 324.2244c0 9.9661255 -8.079163 18.045288 -18.045288 18.045288l-240.50787 0l0 0c-9.966134 0 -18.04528 -8.079163 -18.04528 -18.045288z" fill-rule="evenodd"/><path fill="#2563eb" d="m63.606064 142.70476l0 0c0 -4.5685425 3.7035294 -8.272079 8.272072 -8.272079l101.392204 0c2.1938934 0 4.297928 0.871521 5.849243 2.4228363c1.5513153 1.5513153 2.4228363 3.6553497 2.4228363 5.849243l0 33.087296c0 4.5685425 -3.703537 8.272064 -8.272079 8.272064l-101.392204 0c-4.5685425 0 -8.272072 -3.7035217 -8.272072 -8.272064z" fill-rule="evenodd"/><path fill="#2563eb" d="m63.606064 138.07535l0 0c0 -2.011795 1.6308746 -3.6426697 3.6426697 -3.6426697l110.65102 0c0.966095 0 1.8926239 0.3837738 2.5757446 1.0669098c0.683136 0.683136 1.066925 1.6096649 1.066925 2.57576l0 14.570251c0 2.011795 -1.6308899 3.6426697 -3.6426697 3.6426697l-110.65102 0c-2.011795 0 -3.6426697 -1.6308746 -3.6426697 -3.6426697z" fill-rule="evenodd"/><path fill="#2563eb" d="m63.606064 175.3914l0 0c0 -0.95822144 0.7767868 -1.7350006 1.734993 -1.7350006l114.46636 0c0.46014404 0 0.90145874 0.1828003 1.2268219 0.50816345c0.32537842 0.32537842 0.5081787 0.76667786 0.5081787 1.2268372l0 6.9397736c0 0.95822144 -0.77679443 1.7350006 -1.7350006 1.7350006l-114.46636 0c-0.9582062 0 -1.734993 -0.7767792 -1.734993 -1.7350006z" fill-rule="evenodd"/><path fill="#2563eb" d="m136.24426 162.31662l0 0c0 -4.5685425 3.703537 -8.272079 8.272079 -8.272079l101.3922 0c2.1938934 0 4.297928 0.871521 5.849243 2.4228363c1.5513153 1.5513153 2.4228363 3.6553497 2.4228363 5.849243l0 33.087296c0 4.5685425 -3.703537 8.272064 -8.272079 8.272064l-101.3922 0c-4.5685425 0 -8.272079 -3.7035217 -8.272079 -8.272064z" fill-rule="evenodd"/><path fill="#2563eb" d="m136.24426 157.68721l0 0c0 -2.011795 1.6308746 -3.6426697 3.6426697 -3.6426697l110.65102 0c0.966095 0 1.8926239 0.3837738 2.57576 1.0669098c0.683136 0.683136 1.0669098 1.6096649 1.0669098 2.57576l0 14.570251c0 2.011795 -1.6308746 3.6426697 -3.6426697 3.6426697l-110.65102 0c-2.011795 0 -3.6426697 -1.6308746 -3.6426697 -3.6426697z" fill-rule="evenodd"/><path fill="#2563eb" d="m136.24426 195.00327l0 0c0 -0.95822144 0.77679443 -1.7350006 1.7350006 -1.7350006l114.466354 0c0.4601593 0 0.90145874 0.1828003 1.2268372 0.50816345c0.32536316 0.32537842 0.50816345 0.76667786 0.50816345 1.2268372l0 6.9397736c0 0.95822144 -0.7767792 1.7350006 -1.7350006 1.7350006l-114.466354 0c-0.9582062 0 -1.7350006 -0.7767792 -1.7350006 -1.7350006z" fill-rule="evenodd"/><path fill="#2563eb" d="m49.818863 176.20557l0 0c0 -4.5685425 3.7035332 -8.272079 8.272076 -8.272079l101.3922 0c2.1938934 0 4.297928 0.871521 5.849243 2.4228363c1.5513153 1.5513153 2.4228363 3.6553497 2.4228363 5.849243l0 33.087296c0 4.5685425 -3.703537 8.272079 -8.272079 8.272079l-101.3922 0c-4.5685425 0 -8.272076 -3.703537 -8.272076 -8.272079z" fill-rule="evenodd"/><path fill="#2563eb" d="m49.818863 171.57617l0 0c0 -2.011795 1.6308823 -3.642685 3.6426735 -3.642685l110.65102 0c0.966095 0 1.8926239 0.38378906 2.57576 1.066925c0.6831207 0.683136 1.0669098 1.6096497 1.0669098 2.57576l0 14.570251c0 2.0117798 -1.6308746 3.6426697 -3.6426697 3.6426697l-110.65102 0c-2.0117912 0 -3.6426735 -1.6308899 -3.6426735 -3.6426697z" fill-rule="evenodd"/><path fill="#2563eb" d="m67.314445 175.3914l0 0c0 -0.95822144 0.7767792 -1.7350006 1.734993 -1.7350006l13.735741 0c0.46015167 0 0.9014511 0.1828003 1.2268295 0.50816345c0.3253708 0.32537842 0.50816345 0.76667786 0.50816345 1.2268372l0 6.9397736c0 0.95822144 -0.7767792 1.7350006 -1.734993 1.7350006l-13.735741 0c-0.9582138 0 -1.734993 -0.7767792 -1.734993 -1.7350006z" fill-rule="evenodd"/><path fill="#2563eb" d="m67.314445 174.4869l0 0c0 -0.45866394 0.37182617 -0.8304901 0.8304901 -0.8304901l15.544739 0c0.22026825 0 0.4315033 0.0874939 0.58724976 0.24324036c0.15575409 0.15576172 0.24324799 0.36698914 0.24324799 0.58724976l0 3.3218994c0 0.45866394 -0.37182617 0.8304901 -0.83049774 0.8304901l-15.544739 0c-0.45866394 0 -0.8304901 -0.37182617 -0.8304901 -0.8304901z" fill-rule="evenodd"/><path fill="#2563eb" d="m100.18417 175.3914l0 0c0 -0.95822144 0.7767868 -1.7350006 1.7350006 -1.7350006l13.735733 0c0.46015167 0 0.90145874 0.1828003 1.2268295 0.50816345c0.32537842 0.32537842 0.5081711 0.76667786 0.5081711 1.2268372l0 6.9397736c0 0.95822144 -0.7767868 1.7350006 -1.7350006 1.7350006l-13.735733 0c-0.9582138 0 -1.7350006 -0.7767792 -1.7350006 -1.7350006z" fill-rule="evenodd"/><path fill="#2563eb" d="m100.18417 174.4869l0 0c0 -0.45866394 0.37182617 -0.8304901 0.83049774 -0.8304901l15.544739 0c0.22026062 0 0.4315033 0.0874939 0.58724976 0.24324036c0.15574646 0.15576172 0.24324799 0.36698914 0.24324799 0.58724976l0 3.3218994c0 0.45866394 -0.37182617 0.8304901 -0.83049774 0.8304901l-15.544739 0c-0.45867157 0 -0.83049774 -0.37182617 -0.83049774 -0.8304901z" fill-rule="evenodd"/><path fill="#2563eb" d="m133.05391 175.3914l0 0c0 -0.95822144 0.7767792 -1.7350006 1.7350006 -1.7350006l13.735733 0c0.46014404 0 0.90145874 0.1828003 1.2268219 0.50816345c0.32537842 0.32537842 0.5081787 0.76667786 0.5081787 1.2268372l0 6.9397736c0 0.95822144 -0.77679443 1.7350006 -1.7350006 1.7350006l-13.735733 0c-0.95822144 0 -1.7350006 -0.7767792 -1.7350006 -1.7350006z" fill-rule="evenodd"/><path fill="#2563eb" d="m133.05391 174.4869l0 0c0 -0.45866394 0.37182617 -0.8304901 0.8304901 -0.8304901l15.544739 0c0.22026062 0 0.4315033 0.0874939 0.58724976 0.24324036c0.15574646 0.15576172 0.24325562 0.36698914 0.24325562 0.58724976l0 3.3218994c0 0.45866394 -0.37182617 0.8304901 -0.8305054 0.8304901l-15.544739 0c-0.45866394 0 -0.8304901 -0.37182617 -0.8304901 -0.8304901z" fill-rule="evenodd"/><path fill="#2563eb" d="m49.818863 208.89221l0 0c0 -0.9582062 0.7767868 -1.7350006 1.7350006 -1.7350006l114.466354 0c0.46014404 0 0.90145874 0.1828003 1.2268372 0.5081787c0.32536316 0.32537842 0.50816345 0.76667786 0.50816345 1.2268219l0 6.939789c0 0.9582062 -0.7767792 1.7350006 -1.7350006 1.7350006l-114.466354 0c-0.9582138 0 -1.7350006 -0.77679443 -1.7350006 -1.7350006z" fill-rule="evenodd"/><path fill="#e03027" d="m47.606064 126.70475l0 0c0 -4.568535 3.7035332 -8.272072 8.272072 -8.272072l101.392204 0c2.1938934 0 4.297928 0.871521 5.849243 2.4228363c1.5513153 1.5513153 2.4228363 3.6553497 2.4228363 5.8492355l0 33.087303c0 4.5685425 -3.703537 8.272064 -8.272079 8.272064l-101.392204 0c-4.5685387 0 -8.272072 -3.7035217 -8.272072 -8.272064z" fill-rule="evenodd"/><path fill="#e03027" d="m47.606064 122.07535l0 0c0 -2.0117874 1.6308784 -3.6426697 3.6426697 -3.6426697l110.65102 0c0.966095 0 1.8926239 0.38378143 2.5757446 1.0669174c0.683136 0.68312836 1.066925 1.6096573 1.066925 2.5757523l0 14.570251c0 2.011795 -1.6308899 3.6426697 -3.6426697 3.6426697l-110.65102 0c-2.0117912 0 -3.6426697 -1.6308746 -3.6426697 -3.6426697z" fill-rule="evenodd"/><path fill="#e03027" d="m47.606064 159.3914l0 0c0 -0.95822144 0.776783 -1.7350006 1.7349968 -1.7350006l114.466354 0c0.46014404 0 0.90145874 0.1828003 1.2268219 0.50816345c0.32537842 0.32537842 0.5081787 0.76667786 0.5081787 1.2268372l0 6.9397736c0 0.95822144 -0.77679443 1.7350006 -1.7350006 1.7350006l-114.466354 0c-0.9582138 0 -1.7349968 -0.7767792 -1.7349968 -1.7350006z" fill-rule="evenodd"/><path fill="#f73d35" d="m120.24426 146.31662l0 0c0 -4.5685425 3.703537 -8.272079 8.272079 -8.272079l101.3922 0c2.1938934 0 4.297928 0.871521 5.849243 2.4228363c1.5513153 1.5513153 2.4228363 3.6553497 2.4228363 5.849243l0 33.087296c0 4.5685425 -3.703537 8.272064 -8.272079 8.272064l-101.3922 0c-4.5685425 0 -8.272079 -3.7035217 -8.272079 -8.272064z" fill-rule="evenodd"/><path fill="#f73d35" d="m120.24426 141.68721l0 0c0 -2.011795 1.6308823 -3.6426697 3.6426773 -3.6426697l110.65101 0c0.966095 0 1.8926239 0.3837738 2.57576 1.0669098c0.683136 0.683136 1.0669098 1.6096649 1.0669098 2.57576l0 14.570251c0 2.011795 -1.6308746 3.6426697 -3.6426697 3.6426697l-110.65101 0c-2.011795 0 -3.6426773 -1.6308746 -3.6426773 -3.6426697z" fill-rule="evenodd"/><path fill="#f73d35" d="m120.24426 179.00327l0 0c0 -0.95822144 0.7767868 -1.7350006 1.7350006 -1.7350006l114.466354 0c0.4601593 0 0.90145874 0.1828003 1.2268372 0.50816345c0.32536316 0.32537842 0.50816345 0.76667786 0.50816345 1.2268372l0 6.9397736c0 0.95822144 -0.7767792 1.7350006 -1.7350006 1.7350006l-114.466354 0c-0.9582138 0 -1.7350006 -0.7767792 -1.7350006 -1.7350006z" fill-rule="evenodd"/><path fill="#f73d35" d="m33.818863 160.20557l0 0c0 -4.5685425 3.7035332 -8.272079 8.272076 -8.272079l101.3922 0c2.1938934 0 4.297928 0.871521 5.849243 2.4228363c1.5513153 1.5513153 2.4228363 3.6553497 2.4228363 5.849243l0 33.087296c0 4.5685425 -3.703537 8.272079 -8.272079 8.272079l-101.3922 0c-4.5685425 0 -8.272076 -3.703537 -8.272076 -8.272079z" fill-rule="evenodd"/><path fill="#fc8076" d="m33.818863 155.57617l0 0c0 -2.011795 1.6308823 -3.642685 3.6426735 -3.642685l110.65102 0c0.966095 0 1.8926239 0.38378906 2.57576 1.066925c0.6831207 0.683136 1.0669098 1.6096497 1.0669098 2.57576l0 14.570251c0 2.0117798 -1.6308746 3.6426697 -3.6426697 3.6426697l-110.65102 0c-2.0117912 0 -3.6426735 -1.6308899 -3.6426735 -3.6426697z" fill-rule="evenodd"/><path fill="#e03027" d="m51.31444 159.3914l0 0c0 -0.95822144 0.7767868 -1.7350006 1.7349968 -1.7350006l13.735741 0c0.46015167 0 0.9014511 0.1828003 1.2268295 0.50816345c0.3253708 0.32537842 0.50816345 0.76667786 0.50816345 1.2268372l0 6.9397736c0 0.95822144 -0.7767792 1.7350006 -1.734993 1.7350006l-13.735741 0c-0.95821 0 -1.7349968 -0.7767792 -1.7349968 -1.7350006z" fill-rule="evenodd"/><path fill="#ffaaa7" d="m51.31444 158.4869l0 0c0 -0.45866394 0.37182617 -0.8304901 0.83049774 -0.8304901l15.544735 0c0.22026825 0 0.4315033 0.0874939 0.58724976 0.24324036c0.15575409 0.15576172 0.24324799 0.36698914 0.24324799 0.58724976l0 3.3218994c0 0.45866394 -0.37182617 0.8304901 -0.83049774 0.8304901l-15.544735 0c-0.45867157 0 -0.83049774 -0.37182617 -0.83049774 -0.8304901z" fill-rule="evenodd"/><path fill="#e03027" d="m84.18417 159.3914l0 0c0 -0.95822144 0.7767868 -1.7350006 1.7350006 -1.7350006l13.735733 0c0.46015167 0 0.90145874 0.1828003 1.2268295 0.50816345c0.32537842 0.32537842 0.5081711 0.76667786 0.5081711 1.2268372l0 6.9397736c0 0.95822144 -0.7767868 1.7350006 -1.7350006 1.7350006l-13.735733 0c-0.9582138 0 -1.7350006 -0.7767792 -1.7350006 -1.7350006z" fill-rule="evenodd"/><path fill="#ffaaa7" d="m84.18417 158.4869l0 0c0 -0.45866394 0.37182617 -0.8304901 0.83049774 -0.8304901l15.544739 0c0.22026062 0 0.4315033 0.0874939 0.58724976 0.24324036c0.15574646 0.15576172 0.24324799 0.36698914 0.24324799 0.58724976l0 3.3218994c0 0.45866394 -0.37182617 0.8304901 -0.83049774 0.8304901l-15.544739 0c-0.45867157 0 -0.83049774 -0.37182617 -0.83049774 -0.8304901z" fill-rule="evenodd"/><path fill="#e03027" d="m117.05391 159.3914l0 0c0 -0.95822144 0.7767792 -1.7350006 1.734993 -1.7350006l13.735741 0c0.46014404 0 0.90145874 0.1828003 1.2268219 0.50816345c0.32537842 0.32537842 0.5081787 0.76667786 0.5081787 1.2268372l0 6.9397736c0 0.95822144 -0.77679443 1.7350006 -1.7350006 1.7350006l-13.735741 0c-0.9582138 0 -1.734993 -0.7767792 -1.734993 -1.7350006z" fill-rule="evenodd"/><path fill="#ffaaa7" d="m117.05391 158.4869l0 0c0 -0.45866394 0.37182617 -0.8304901 0.8304901 -0.8304901l15.544739 0c0.22026062 0 0.4315033 0.0874939 0.58724976 0.24324036c0.15574646 0.15576172 0.24325562 0.36698914 0.24325562 0.58724976l0 3.3218994c0 0.45866394 -0.37182617 0.8304901 -0.8305054 0.8304901l-15.544739 0c-0.45866394 0 -0.8304901 -0.37182617 -0.8304901 -0.8304901z" fill-rule="evenodd"/><path fill="#e03027" d="m33.818863 192.89221l0 0c0 -0.9582062 0.7767868 -1.7350006 1.7350006 -1.7350006l114.466354 0c0.46014404 0 0.90145874 0.1828003 1.2268372 0.5081787c0.32536316 0.32537842 0.50816345 0.76667786 0.50816345 1.2268219l0 6.939789c0 0.9582062 -0.7767792 1.7350006 -1.7350006 1.7350006l-114.466354 0c-0.9582138 0 -1.7350006 -0.77679443 -1.7350006 -1.7350006z" fill-rule="evenodd"/><path fill="#000000" fill-opacity="0.0" d="m21.700787 315.7533l266.29922 0l0 38.771637l-266.29922 0z" fill-rule="evenodd"/><path fill="#000000" d="m39.950787 334.23828l0.265625 -0.625q1.390625 0.03125 2.296875 0.421875q0.90625 0.390625 1.34375 1.09375q0.453125 0.703125 0.453125 1.609375q0 0.96875 -0.453125 1.734375q-0.4375 0.765625 -1.328125 1.203125q-0.890625 0.4375 -2.21875 0.4375l-8.859375 0l0.9375 -6.15625l-0.9375 -5.84375l8.546875 0q1.65625 0 2.578125 0.78125q0.9375 0.765625 0.9375 2.140625q0 0.765625 -0.359375 1.453125q-0.34375 0.6875 -1.125 1.15625q-0.765625 0.46875 -2.078125 0.59375zm-5.21875 5.109375l-1.28125 -1.546875l5.96875 0q0.71875 0 1.109375 -0.359375q0.40625 -0.359375 0.40625 -0.96875q0 -0.625 -0.4375 -1.0q-0.421875 -0.390625 -1.265625 -0.390625l-4.9375 0l0 -2.265625l4.484375 0q0.578125 0 0.96875 -0.34375q0.390625 -0.34375 0.390625 -0.9375q0 -0.484375 -0.34375 -0.796875q-0.328125 -0.3125 -0.953125 -0.3125l-5.375 0l1.265625 -1.546875l0.8125 5.078125l-0.8125 5.390625zm10.485519 -8.375l3.328125 0l0.546875 3.265625l0 5.875l-3.265625 0l0 -6.0625l-0.609375 -3.078125zm8.15625 -0.140625l0 2.78125q-0.484375 -0.09375 -0.90625 -0.125q-0.421875 -0.046875 -0.78125 -0.046875q-0.703125 0 -1.296875 0.28125q-0.578125 0.28125 -0.9375 0.921875q-0.359375 0.640625 -0.359375 1.703125l-0.625 -0.765625q0.125 -0.984375 0.375 -1.859375q0.265625 -0.875 0.703125 -1.546875q0.4375 -0.6875 1.09375 -1.078125q0.65625 -0.390625 1.59375 -0.390625q0.28125 0 0.5625 0.03125q0.296875 0.03125 0.578125 0.09375zm1.1136475 0l1.65625 0.328125l1.625 -0.328125l0 9.28125l-3.28125 0l0 -9.28125zm1.640625 -0.75q-0.84375 0 -1.375 -0.421875q-0.53125 -0.421875 -0.53125 -1.15625q0 -0.734375 0.53125 -1.15625q0.53125 -0.4375 1.375 -0.4375q0.875 0 1.390625 0.4375q0.53125 0.421875 0.53125 1.15625q0 0.734375 -0.53125 1.15625q-0.515625 0.421875 -1.390625 0.421875zm14.337635 6.171875q-0.140625 1.234375 -0.90625 2.171875q-0.765625 0.921875 -1.984375 1.4375q-1.21875 0.5 -2.75 0.5q-1.6718788 0 -2.9531288 -0.59375q-1.28125 -0.609375 -2.0 -1.703125q-0.71875 -1.09375 -0.71875 -2.515625q0 -1.4375 0.71875 -2.515625q0.71875 -1.09375 2.0 -1.703125q1.28125 -0.625 2.9531288 -0.625q1.53125 0 2.75 0.515625q1.21875 0.515625 1.984375 1.4375q0.765625 0.921875 0.90625 2.171875l-3.25 0q-0.171875 -0.8125 -0.8125 -1.25q-0.640625 -0.4375 -1.578125 -0.4375q-0.71875 0 -1.2500038 0.28125q-0.53125 0.265625 -0.828125 0.8125q-0.296875 0.53125 -0.296875 1.3125q0 0.765625 0.296875 1.3125q0.296875 0.53125 0.828125 0.8125q0.5312538 0.28125 1.2500038 0.28125q0.9375 0 1.578125 -0.46875q0.65625 -0.46875 0.8125 -1.234375l3.25 0zm4.567032 1.25l-0.890625 -0.296875l5.0625 -6.234375l3.4375 0l-7.953125 9.140625l-2.9375 0l0 -12.3125l3.28125 0l0 9.703125zm1.5625 -1.859375l2.453125 -1.71875l3.828125 6.1875l-3.671875 0l-2.609375 -4.46875z" fill-rule="nonzero"/><path fill="#000000" d="m91.1322 336.95703q0 -0.84375 0.171875 -1.765625q0.171875 -0.921875 0.46875 -1.78125q0.3125 -0.875 0.703125 -1.515625l0.859375 0q-0.40625 0.8125 -0.703125 1.703125q-0.296875 0.875 -0.453125 1.75q-0.15625 0.859375 -0.15625 1.609375q0 0.671875 0.140625 1.390625q0.140625 0.703125 0.421875 1.5q0.296875 0.78125 0.75 1.71875l-0.859375 0q-0.671875 -1.125 -1.015625 -2.296875q-0.328125 -1.171875 -0.328125 -2.3125zm8.166168 3.28125q-0.546875 0 -0.890625 -0.1875q-0.328125 -0.1875 -0.515625 -0.421875q-0.1875 -0.25 -0.28125 -0.40625l-0.109375 0l0 0.890625l-0.84375 0l0 -7.75l0.875 0l0 2.859375l0.078125 0q0.09375 -0.15625 0.265625 -0.390625q0.1875 -0.234375 0.515625 -0.421875q0.34375 -0.1875 0.90625 -0.1875q0.734375 0 1.28125 0.375q0.5625 0.359375 0.875 1.03125q0.3125 0.671875 0.3125 1.59375q0 0.921875 -0.3125 1.609375q-0.3125 0.671875 -0.875 1.046875q-0.546875 0.359375 -1.28125 0.359375zm-0.109375 -0.796875q0.5625 0 0.9375 -0.296875q0.375 -0.3125 0.5625 -0.8125q0.1875 -0.5 0.1875 -1.125q0 -0.609375 -0.1875 -1.09375q-0.1875 -0.5 -0.5625 -0.796875q-0.375 -0.296875 -0.9375 -0.296875q-0.546875 0 -0.921875 0.28125q-0.359375 0.265625 -0.546875 0.765625q-0.1875 0.484375 -0.1875 1.140625q0 0.65625 0.1875 1.15625q0.1875 0.5 0.5625 0.796875q0.375 0.28125 0.90625 0.28125zm3.4524841 0.671875l0 -5.8125l0.84375 0l0 0.875l0.0625 0q0.171875 -0.421875 0.578125 -0.6875q0.421875 -0.28125 0.9375 -0.28125q0.109375 0 0.25 0.015625q0.140625 0 0.21875 0l0 0.90625q-0.046875 -0.015625 -0.203125 -0.03125q-0.15625 -0.015625 -0.34375 -0.015625q-0.421875 0 -0.75 0.171875q-0.328125 0.171875 -0.53125 0.484375q-0.1875 0.3125 -0.1875 0.703125l0 3.671875l-0.875 0zm3.4653625 0l0 -5.8125l0.875 0l0 5.8125l-0.875 0zm0.4375 -6.78125q-0.25 0 -0.4375 -0.171875q-0.1875 -0.1875 -0.1875 -0.4375q0 -0.25 0.1875 -0.421875q0.1875 -0.1875 0.4375 -0.1875q0.265625 0 0.453125 0.1875q0.1875 0.171875 0.1875 0.421875q0 0.25 -0.1875 0.4375q-0.1875 0.171875 -0.453125 0.171875zm2.4198914 4.65625l-0.015625 -1.09375l0.1875 0l2.53125 -2.59375l1.109375 0l-2.703125 2.75l-0.09375 0l-1.015625 0.9375zm-0.828125 2.125l0 -7.75l0.875 0l0 7.75l-0.875 0zm3.671875 0l-2.265625 -2.875l0.640625 -0.625l2.78125 3.5l-1.15625 0zm3.794464 1.453125q0.453125 -0.9375 0.734375 -1.71875q0.296875 -0.796875 0.4375 -1.5q0.140625 -0.71875 0.140625 -1.390625q0 -0.75 -0.15625 -1.609375q-0.15625 -0.875 -0.453125 -1.75q-0.296875 -0.890625 -0.703125 -1.703125l0.859375 0q0.40625 0.640625 0.703125 1.515625q0.296875 0.859375 0.46875 1.78125q0.171875 0.921875 0.171875 1.765625q0 1.140625 -0.34375 2.3125q-0.328125 1.171875 -1.0 2.296875l-0.859375 0z" fill-rule="nonzero"/></g></svg>