<svg version="1.1" viewBox="0.0 0.0 288.0 384.0" fill="none" stroke="none" stroke-linecap="square" stroke-miterlimit="10" xmlns:xlink="http://www.w3.org/1999/xlink" xmlns="http://www.w3.org/2000/svg"><clipPath id="g3b18a6c779a_0_3647.0"><path d="m0 0l288.0 0l0 384.0l-288.0 0l0 -384.0z" clip-rule="nonzero"/></clipPath><g clip-path="url(#g3b18a6c779a_0_3647.0)"><path fill="#ffffff" d="m0 0l288.0 0l0 384.0l-288.0 0z" fill-rule="evenodd"/><path fill="#2563eb" d="m5.7007875 34.135216l0 0c0 -9.966135 8.079147 -18.045282 18.04528 -18.045282l240.50787 0c4.7858887 0 9.375793 1.9011936 12.759949 5.2853394c3.3841248 3.3841476 5.2853394 7.9740353 5.2853394 12.759943l0 324.2244c0 9.9661255 -8.079163 18.045288 -18.045288 18.045288l-240.50787 0l0 0c-9.966134 0 -18.04528 -8.079163 -18.04528 -18.045288z" fill-rule="evenodd"/><path stroke="#2563eb" stroke-width="4.0" stroke-linejoin="round" stroke-linecap="butt" d="m5.7007875 34.135216l0 0c0 -9.966135 8.079147 -18.045282 18.04528 -18.045282l240.50787 0c4.7858887 0 9.375793 1.9011936 12.759949 5.2853394c3.3841248 3.3841476 5.2853394 7.9740353 5.2853394 12.759943l0 324.2244c0 9.9661255 -8.079163 18.045288 -18.045288 18.045288l-240.50787 0l0 0c-9.966134 0 -18.04528 -8.079163 -18.04528 -18.045288z" fill-rule="evenodd"/><path fill="#a8c3ff" d="m5.7007875 25.639769l0 0c0 -9.966133 8.079147 -18.04528 18.04528 -18.04528l240.50787 0c4.7858887 0 9.375793 1.9011936 12.759949 5.2853403c3.3841248 3.3841467 5.2853394 7.9740343 5.2853394 12.75994l0 324.2244c0 9.9661255 -8.079163 18.045288 -18.045288 18.045288l-240.50787 0l0 0c-9.966134 0 -18.04528 -8.079163 -18.04528 -18.045288z" fill-rule="evenodd"/><path stroke="#2563eb" stroke-width="4.0" stroke-linejoin="round" stroke-linecap="butt" d="m5.7007875 25.639769l0 0c0 -9.966133 8.079147 -18.04528 18.04528 -18.04528l240.50787 0c4.7858887 0 9.375793 1.9011936 12.759949 5.2853403c3.3841248 3.3841467 5.2853394 7.9740343 5.2853394 12.75994l0 324.2244c0 9.9661255 -8.079163 18.045288 -18.045288 18.045288l-240.50787 0l0 0c-9.966134 0 -18.04528 -8.079163 -18.04528 -18.045288z" fill-rule="evenodd"/><path fill="#000000" fill-opacity="0.0" d="m21.700787 315.7533l266.29922 0l0 38.771637l-266.29922 0z" fill-rule="evenodd"/><path fill="#000000" d="m45.15391 335.08203q-0.1875 1.59375 -1.09375 2.78125q-0.90625 1.1875 -2.390625 1.84375q-1.484375 0.65625 -3.40625 0.65625q-2.09375 0 -3.65625 -0.78125q-1.5625 -0.78125 -2.4375 -2.1875q-0.875 -1.40625 -0.875 -3.28125q0 -1.875 0.875 -3.28125q0.875 -1.40625 2.4375 -2.1875q1.5625 -0.78125 3.65625 -0.78125q1.921875 0 3.40625 0.65625q1.484375 0.65625 2.390625 1.84375q0.90625 1.1875 1.09375 2.78125l-3.328125 0q-0.171875 -0.78125 -0.640625 -1.3125q-0.453125 -0.53125 -1.203125 -0.8125q-0.734375 -0.296875 -1.71875 -0.296875q-1.109375 0 -1.9375 0.40625q-0.8125 0.40625 -1.25 1.171875q-0.421875 0.75 -0.421875 1.8125q0 1.0625 0.421875 1.828125q0.4375 0.75 1.25 1.15625q0.828125 0.40625 1.9375 0.40625q0.984375 0 1.71875 -0.265625q0.75 -0.28125 1.203125 -0.8125q0.46875 -0.546875 0.640625 -1.34375l3.328125 0zm9.599152 5.03125l-0.421875 -3.296875l0.4375 -1.265625l-0.4375 -1.265625l0.421875 -3.3125l3.390625 0l-0.578125 4.5625l0.578125 4.578125l-3.390625 0zm0.765625 -4.5625q-0.21875 1.4375 -0.890625 2.53125q-0.65625 1.09375 -1.671875 1.6875q-1.015625 0.59375 -2.3125 0.59375q-1.34375 0 -2.375 -0.59375q-1.015625 -0.59375 -1.59375 -1.6875q-0.5625 -1.109375 -0.5625 -2.53125q0 -1.453125 0.5625 -2.53125q0.578125 -1.09375 1.59375 -1.703125q1.03125 -0.609375 2.375 -0.609375q1.296875 0 2.3125 0.609375q1.015625 0.59375 1.6875 1.671875q0.671875 1.078125 0.875 2.5625zm-6.09375 0q0 0.671875 0.28125 1.203125q0.28125 0.53125 0.765625 0.828125q0.5 0.296875 1.140625 0.296875q0.671875 0 1.265625 -0.296875q0.59375 -0.296875 1.03125 -0.828125q0.453125 -0.53125 0.671875 -1.203125q-0.21875 -0.6875 -0.671875 -1.203125q-0.4375 -0.53125 -1.03125 -0.828125q-0.59375 -0.3125 -1.265625 -0.3125q-0.640625 0 -1.140625 0.3125q-0.484375 0.296875 -0.765625 0.828125q-0.28125 0.515625 -0.28125 1.203125zm9.856659 -4.578125l3.28125 0l0.59375 3.65625l0 5.484375l-3.265625 0l0 -5.984375l-0.609375 -3.15625zm7.234379 -0.265625q1.3125 0 2.234375 0.53125q0.921875 0.515625 1.40625 1.484375q0.5 0.953125 0.5 2.265625l0 5.125l-3.265625 0l0 -4.640625q0 -1.015625 -0.53125 -1.5625q-0.515625 -0.546875 -1.484375 -0.546875q-0.671875 0 -1.1875 0.296875q-0.5000038 0.28125 -0.7656288 0.8125q-0.265625 0.515625 -0.265625 1.234375l-1.015625 -0.515625q0.1875 -1.46875 0.8125 -2.46875q0.625 -1.0 1.5312538 -1.5q0.921875 -0.515625 2.03125 -0.515625zm14.139648 9.40625l-0.4375 -3.421875l0.5625 -1.125l-0.546875 -1.40625l0.765625 -6.359375l3.390625 0l-0.9375 7.5l0.578125 4.8125l-3.375 0zm0.703125 -4.5625q-0.21875 1.4375 -0.890625 2.53125q-0.65625 1.09375 -1.671875 1.6875q-1.015625 0.59375 -2.3125 0.59375q-1.34375 0 -2.375 -0.59375q-1.015625 -0.59375 -1.59375 -1.6875q-0.5625 -1.109375 -0.5625 -2.53125q0 -1.453125 0.5625 -2.53125q0.578125 -1.09375 1.59375 -1.703125q1.03125 -0.609375 2.375 -0.609375q1.296875 0 2.3125 0.609375q1.015625 0.59375 1.6875 1.671875q0.671875 1.078125 0.875 2.5625zm-6.09375 0q0 0.671875 0.28125 1.203125q0.28125 0.53125 0.765625 0.828125q0.5 0.296875 1.140625 0.296875q0.671875 0 1.265625 -0.296875q0.59375 -0.296875 1.03125 -0.828125q0.453125 -0.53125 0.671875 -1.203125q-0.21875 -0.6875 -0.671875 -1.203125q-0.4375 -0.53125 -1.03125 -0.828125q-0.59375 -0.3125 -1.265625 -0.3125q-0.640625 0 -1.140625 0.3125q-0.484375 0.296875 -0.765625 0.828125q-0.28125 0.515625 -0.28125 1.203125zm13.326157 7.453125q-1.015625 0 -1.796875 -0.25q-0.78125 -0.234375 -1.515625 -0.75l0 -2.28125q0.75 0.484375 1.40625 0.6875q0.65625 0.21875 1.4375 0.21875q0.65625 0 1.171875 -0.296875q0.515625 -0.28125 0.828125 -1.046875l3.5 -8.3125l3.484375 0l-4.390625 9.3125q-0.46875 1.015625 -1.140625 1.609375q-0.65625 0.609375 -1.421875 0.859375q-0.765625 0.25 -1.5625 0.25zm0.109375 -3.734375l-3.890625 -8.296875l3.609375 0l3.4375 8.296875l-3.15625 0z" fill-rule="nonzero"/><path fill="#000000" d="m105.50023 336.95703q0 -0.84375 0.171875 -1.765625q0.171875 -0.921875 0.46875 -1.78125q0.3125 -0.875 0.703125 -1.515625l0.859375 0q-0.40625 0.8125 -0.703125 1.703125q-0.296875 0.875 -0.453125 1.75q-0.15625 0.859375 -0.15625 1.609375q0 0.671875 0.140625 1.390625q0.140625 0.703125 0.421875 1.5q0.296875 0.78125 0.75 1.71875l-0.859375 0q-0.671875 -1.125 -1.015625 -2.296875q-0.328125 -1.171875 -0.328125 -2.3125z" fill-rule="nonzero"/><path fill="#000000" d="m112.38515 338.4414l0 -1.9375l0.234375 0l1.859375 -2.203125l1.84375 0l-2.5 2.921875l-0.390625 0l-1.046875 1.21875zm-1.46875 1.671875l0 -7.75l1.609375 0l0 7.75l-1.609375 0zm3.625 0l-1.703125 -2.53125l1.078125 -1.140625l2.515625 3.671875l-1.890625 0zm3.8796997 0.109375q-0.546875 0 -0.984375 -0.1875q-0.4375 -0.203125 -0.6875 -0.578125q-0.25 -0.390625 -0.25 -0.96875q0 -0.484375 0.171875 -0.8125q0.171875 -0.328125 0.484375 -0.53125q0.3125 -0.203125 0.703125 -0.296875q0.390625 -0.109375 0.828125 -0.15625q0.5 -0.046875 0.796875 -0.09375q0.3125 -0.046875 0.453125 -0.140625q0.140625 -0.09375 0.140625 -0.28125l0 -0.015625q0 -0.359375 -0.234375 -0.5625q-0.21875 -0.203125 -0.625 -0.203125q-0.421875 0 -0.6875 0.203125q-0.25 0.1875 -0.34375 0.46875l-1.484375 -0.109375q0.109375 -0.53125 0.4375 -0.921875q0.34375 -0.390625 0.859375 -0.59375q0.53125 -0.21875 1.234375 -0.21875q0.484375 0 0.921875 0.125q0.4375 0.109375 0.78125 0.34375q0.359375 0.234375 0.5625 0.609375q0.203125 0.375 0.203125 0.890625l0 3.921875l-1.546875 0l0 -0.8125l-0.03125 0q-0.140625 0.28125 -0.375 0.484375q-0.234375 0.203125 -0.5625 0.328125q-0.328125 0.109375 -0.765625 0.109375zm0.46875 -1.109375q0.34375 0 0.609375 -0.140625q0.28125 -0.15625 0.4375 -0.390625q0.15625 -0.25 0.15625 -0.546875l0 -0.609375q-0.078125 0.03125 -0.21875 0.078125q-0.125 0.046875 -0.28125 0.078125q-0.15625 0.03125 -0.328125 0.0625q-0.15625 0.015625 -0.28125 0.03125q-0.28125 0.046875 -0.5 0.140625q-0.21875 0.078125 -0.34375 0.234375q-0.109375 0.15625 -0.109375 0.390625q0 0.328125 0.234375 0.5q0.25 0.171875 0.625 0.171875zm5.3536377 -2.359375l0 3.359375l-1.609375 0l0 -5.8125l1.59375 0l0 1.03125l0.046875 0q0.203125 -0.515625 0.625 -0.8125q0.4375 -0.296875 1.09375 -0.296875q0.59375 0 1.046875 0.265625q0.453125 0.265625 0.703125 0.765625q0.25 0.484375 0.25 1.15625l0 3.703125l-1.609375 0l0 -3.40625q0 -0.53125 -0.28125 -0.828125q-0.265625 -0.3125 -0.75 -0.3125q-0.328125 0 -0.578125 0.140625q-0.25 0.140625 -0.390625 0.40625q-0.140625 0.265625 -0.140625 0.640625z" fill-rule="nonzero"/><path fill="#000000" d="m133.71405 338.6914q-0.453125 0 -0.84375 -0.21875q-0.375 -0.234375 -0.609375 -0.609375q-0.21875 -0.390625 -0.21875 -0.84375q0 -0.453125 0.21875 -0.828125q0.234375 -0.390625 0.609375 -0.609375q0.390625 -0.21875 0.84375 -0.21875q0.453125 0 0.828125 0.21875q0.390625 0.21875 0.609375 0.609375q0.21875 0.375 0.21875 0.828125q0 0.453125 -0.21875 0.84375q-0.21875 0.375 -0.609375 0.609375q-0.375 0.21875 -0.828125 0.21875zm7.492676 1.546875q-0.71875 0 -1.28125 -0.359375q-0.546875 -0.375 -0.859375 -1.046875q-0.3125 -0.6875 -0.3125 -1.609375q0 -0.921875 0.3125 -1.59375q0.3125 -0.671875 0.859375 -1.03125q0.5625 -0.375 1.296875 -0.375q0.578125 0 0.90625 0.1875q0.328125 0.1875 0.5 0.421875q0.1875 0.234375 0.28125 0.390625l0.078125 0l0 -2.859375l0.875 0l0 7.75l-0.84375 0l0 -0.890625l-0.109375 0q-0.09375 0.15625 -0.28125 0.40625q-0.1875 0.234375 -0.53125 0.421875q-0.328125 0.1875 -0.890625 0.1875zm0.125 -0.796875q0.53125 0 0.90625 -0.28125q0.375 -0.296875 0.5625 -0.796875q0.1875 -0.5 0.1875 -1.15625q0 -0.65625 -0.1875 -1.140625q-0.1875 -0.5 -0.5625 -0.765625q-0.359375 -0.28125 -0.90625 -0.28125q-0.5625 0 -0.9375 0.296875q-0.375 0.296875 -0.5625 0.796875q-0.1875 0.484375 -0.1875 1.09375q0 0.625 0.1875 1.125q0.1875 0.5 0.5625 0.8125q0.375 0.296875 0.9375 0.296875zm6.108734 0.796875q-0.828125 0 -1.4375 -0.375q-0.609375 -0.375 -0.9375 -1.046875q-0.328125 -0.671875 -0.328125 -1.5625q0 -0.890625 0.3125 -1.578125q0.328125 -0.6875 0.90625 -1.0625q0.59375 -0.390625 1.375 -0.390625q0.453125 0 0.890625 0.15625q0.453125 0.140625 0.8125 0.484375q0.375 0.34375 0.59375 0.90625q0.21875 0.546875 0.21875 1.359375l0 0.375l-4.484375 0l0 -0.765625l4.0 0l-0.40625 0.296875q0 -0.578125 -0.1875 -1.03125q-0.171875 -0.453125 -0.546875 -0.71875q-0.359375 -0.265625 -0.890625 -0.265625q-0.53125 0 -0.921875 0.265625q-0.375 0.265625 -0.578125 0.6875q-0.203125 0.421875 -0.203125 0.90625l0 0.515625q0 0.65625 0.21875 1.109375q0.234375 0.453125 0.640625 0.703125q0.421875 0.234375 0.953125 0.234375q0.359375 0 0.640625 -0.09375q0.28125 -0.109375 0.484375 -0.3125q0.21875 -0.21875 0.328125 -0.515625l0.859375 0.25q-0.125 0.4375 -0.453125 0.765625q-0.3125 0.328125 -0.796875 0.515625q-0.46875 0.1875 -1.0625 0.1875zm5.681946 0q-0.828125 0 -1.4375 -0.375q-0.609375 -0.375 -0.9375 -1.046875q-0.328125 -0.671875 -0.328125 -1.5625q0 -0.890625 0.3125 -1.578125q0.328125 -0.6875 0.90625 -1.0625q0.59375 -0.390625 1.375 -0.390625q0.453125 0 0.890625 0.15625q0.453125 0.140625 0.8125 0.484375q0.375 0.34375 0.59375 0.90625q0.21875 0.546875 0.21875 1.359375l0 0.375l-4.484375 0l0 -0.765625l4.0 0l-0.40625 0.296875q0 -0.578125 -0.1875 -1.03125q-0.171875 -0.453125 -0.546875 -0.71875q-0.359375 -0.265625 -0.890625 -0.265625q-0.53125 0 -0.921875 0.265625q-0.375 0.265625 -0.578125 0.6875q-0.203125 0.421875 -0.203125 0.90625l0 0.515625q0 0.65625 0.21875 1.109375q0.234375 0.453125 0.640625 0.703125q0.421875 0.234375 0.953125 0.234375q0.359375 0 0.640625 -0.09375q0.28125 -0.109375 0.484375 -0.3125q0.21875 -0.21875 0.328125 -0.515625l0.859375 0.25q-0.125 0.4375 -0.453125 0.765625q-0.3125 0.328125 -0.796875 0.515625q-0.46875 0.1875 -1.0625 0.1875zm5.4295044 1.328125q0.453125 -0.9375 0.734375 -1.71875q0.296875 -0.796875 0.4375 -1.5q0.140625 -0.71875 0.140625 -1.390625q0 -0.75 -0.15625 -1.609375q-0.15625 -0.875 -0.453125 -1.75q-0.296875 -0.890625 -0.703125 -1.703125l0.859375 0q0.40625 0.640625 0.703125 1.515625q0.296875 0.859375 0.46875 1.78125q0.171875 0.921875 0.171875 1.765625q0 1.140625 -0.34375 2.3125q-0.328125 1.171875 -1.0 2.296875l-0.859375 0z" fill-rule="nonzero"/><path fill="#2563eb" d="m145.41641 159.23927l0 0c0 -1.2121735 0.982666 -2.1948242 2.1948395 -2.1948242l8.779022 0l0 0c0.58210754 0 1.1403809 0.23123169 1.5519867 0.6428375c0.41160583 0.4116211 0.6428528 0.96987915 0.6428528 1.5519867l0 120.45448c0 1.2121887 -0.982666 2.1948242 -2.1948395 2.1948242l-8.779022 0c-1.2121735 0 -2.1948395 -0.9826355 -2.1948395 -2.1948242z" fill-rule="evenodd"/><path fill="#2563eb" d="m145.41641 158.25476l0 0c0 -0.6684418 0.5418854 -1.2103119 1.2103271 -1.2103119l4.84111 0l0 0c0.32099915 0 0.6288452 0.12750244 0.8558197 0.3544922c0.22697449 0.22697449 0.3544922 0.53482056 0.3544922 0.8558197l0 122.42352c0 0.6684265 -0.5418701 1.2102966 -1.2103119 1.2102966l-4.84111 0c-0.6684418 0 -1.2103271 -0.5418701 -1.2103271 -1.2102966z" fill-rule="evenodd"/><path fill="#2563eb" d="m101.22743 87.03316l0 0c0 -9.346153 7.5765533 -16.922707 16.922707 -16.922707l67.7006 0l0 0c4.4881897 0 8.7925415 1.7829208 11.966156 4.956543c3.1736298 3.1736221 4.956558 7.4779816 4.956558 11.966164l0 67.6888c0 9.346161 -7.5765533 16.922714 -16.922714 16.922714l-67.7006 0c-9.346153 0 -16.922707 -7.5765533 -16.922707 -16.922714z" fill-rule="evenodd"/><path fill="#2563eb" d="m109.32177 92.42525l0 0c0 -7.854294 6.3671646 -14.221458 14.221458 -14.221458l56.89406 0l0 0c3.771759 0 7.3890533 1.4983215 10.056091 4.165367c2.667038 2.667038 4.1653748 6.2843246 4.1653748 10.056091l0 56.88414c0 7.854294 -6.3671722 14.221451 -14.221466 14.221451l-56.89406 0c-7.854294 0 -14.221458 -6.367157 -14.221458 -14.221451z" fill-rule="evenodd"/><path fill="#2563eb" d="m114.8309 96.10138l0 0c0 -6.8420944 5.5466156 -12.388702 12.388702 -12.388702l49.56195 0l0 0c3.2856903 0 6.436798 1.3052368 8.760132 3.628563c2.3233337 2.3233337 3.6285706 5.474449 3.6285706 8.760139l0 49.553314c0 6.842087 -5.5466156 12.388687 -12.388702 12.388687l-49.56195 0c-6.842087 0 -12.388702 -5.5466003 -12.388702 -12.388687z" fill-rule="evenodd"/><path fill="#2563eb" d="m101.22743 95.694084l8.0662 0l0 50.3648l-8.0662 0z" fill-rule="evenodd"/><path fill="#2563eb" d="m194.66547 95.694084l8.066208 0l0 50.3648l-8.066208 0z" fill-rule="evenodd"/><path fill="#2563eb" d="m109.32216 99.36697l5.460495 0l0 43.00837l-5.460495 0z" fill-rule="evenodd"/><path fill="#2563eb" d="m189.17024 99.36697l5.460495 0l0 43.00837l-5.460495 0z" fill-rule="evenodd"/><path fill="#2563eb" d="m118.98962 93.3898l0 0c0 -3.0383759 2.4630966 -5.5014725 5.50148 -5.5014725l22.009087 0l0 0c1.4590759 0 2.8583984 0.57962036 3.8901215 1.6113434c1.0317383 1.0317307 1.6113434 2.4310532 1.6113434 3.890129l0 22.005249c0 3.0383835 -2.463089 5.50148 -5.501465 5.50148l-22.009087 0c-3.0383835 0 -5.50148 -2.4630966 -5.50148 -5.50148z" fill-rule="evenodd"/><path fill="#2563eb" d="m151.99214 126.38749l0 0c0 -3.0383835 2.4631042 -5.50148 5.50148 -5.50148l22.009079 0l0 0c1.4590912 0 2.8584137 0.57962036 3.8901367 1.6113434c1.031723 1.0317307 1.6113434 2.4310532 1.6113434 3.8901367l0 22.005241c0 3.038391 -2.463089 5.50148 -5.50148 5.50148l-22.009079 0c-3.0383759 0 -5.50148 -2.463089 -5.50148 -5.50148z" fill-rule="evenodd"/><path fill="#f3f8fe" d="m129.41641 143.23927l0 0c0 -1.2121735 0.982666 -2.1948242 2.1948395 -2.1948242l8.779022 0l0 0c0.58210754 0 1.1403809 0.23123169 1.5519867 0.6428375c0.41160583 0.4116211 0.6428528 0.96987915 0.6428528 1.5519867l0 120.45448c0 1.2121887 -0.982666 2.1948242 -2.1948395 2.1948242l-8.779022 0c-1.2121735 0 -2.1948395 -0.9826355 -2.1948395 -2.1948242z" fill-rule="evenodd"/><path fill="#e7f2ff" d="m129.41641 142.25476l0 0c0 -0.6684418 0.5418854 -1.2103119 1.2103271 -1.2103119l4.84111 0l0 0c0.32099915 0 0.6288452 0.12750244 0.8558197 0.3544922c0.22697449 0.22697449 0.3544922 0.53482056 0.3544922 0.8558197l0 122.42352c0 0.6684265 -0.5418701 1.2102966 -1.2103119 1.2102966l-4.84111 0c-0.6684418 0 -1.2103271 -0.5418701 -1.2103271 -1.2102966z" fill-rule="evenodd"/><path fill="#f73d35" d="m85.22743 71.03316l0 0c0 -9.346157 7.5765533 -16.92271 16.922707 -16.92271l67.7006 0l0 0c4.4881897 0 8.7925415 1.7829247 11.966156 4.956547c3.1736298 3.1736221 4.956558 7.4779816 4.956558 11.966164l0 67.6888c0 9.346161 -7.5765533 16.922714 -16.922714 16.922714l-67.7006 0c-9.346153 0 -16.922707 -7.5765533 -16.922707 -16.922714z" fill-rule="evenodd"/><path fill="#e03027" d="m93.32177 76.42525l0 0c0 -7.854294 6.3671646 -14.221462 14.221458 -14.221462l56.89406 0l0 0c3.771759 0 7.3890533 1.4983292 10.056091 4.165371c2.667038 2.667038 4.1653748 6.2843246 4.1653748 10.056091l0 56.88414c0 7.854294 -6.3671722 14.221451 -14.221466 14.221451l-56.89406 0c-7.854294 0 -14.221458 -6.367157 -14.221458 -14.221451z" fill-rule="evenodd"/><path fill="#fc8076" d="m98.8309 80.10138l0 0c0 -6.8420944 5.5466156 -12.388702 12.388702 -12.388702l49.56195 0l0 0c3.2856903 0 6.436798 1.3052368 8.760132 3.628563c2.3233337 2.3233337 3.6285706 5.474449 3.6285706 8.760139l0 49.553314c0 6.842087 -5.5466156 12.388687 -12.388702 12.388687l-49.56195 0c-6.842087 0 -12.388702 -5.5466003 -12.388702 -12.388687z" fill-rule="evenodd"/><path fill="#fc8076" d="m85.22743 79.694084l8.0662 0l0 50.3648l-8.0662 0z" fill-rule="evenodd"/><path fill="#fc8076" d="m178.66547 79.694084l8.066208 0l0 50.3648l-8.066208 0z" fill-rule="evenodd"/><path fill="#f73d35" d="m93.32216 83.36697l5.460495 0l0 43.00836l-5.460495 0z" fill-rule="evenodd"/><path fill="#f73d35" d="m173.17024 83.36697l5.460495 0l0 43.00836l-5.460495 0z" fill-rule="evenodd"/><path fill="#ffaaa7" d="m102.98962 77.3898l0 0c0 -3.0383759 2.4630966 -5.5014725 5.50148 -5.5014725l22.009087 0l0 0c1.4590759 0 2.8583984 0.57962036 3.8901215 1.6113434c1.0317383 1.0317307 1.6113434 2.4310532 1.6113434 3.890129l0 22.005249c0 3.0383835 -2.463089 5.50148 -5.501465 5.50148l-22.009087 0c-3.0383835 0 -5.50148 -2.4630966 -5.50148 -5.50148z" fill-rule="evenodd"/><path fill="#ffaaa7" d="m135.99214 110.38749l0 0c0 -3.0383835 2.4631042 -5.50148 5.50148 -5.50148l22.009079 0l0 0c1.4590912 0 2.8584137 0.57962036 3.8901367 1.6113434c1.031723 1.0317307 1.6113434 2.4310532 1.6113434 3.8901367l0 22.005241c0 3.038391 -2.463089 5.50148 -5.50148 5.50148l-22.009079 0c-3.0383759 0 -5.50148 -2.463089 -5.50148 -5.50148z" fill-rule="evenodd"/></g></svg>