<svg version="1.1" viewBox="0.0 0.0 288.0 384.0" fill="none" stroke="none" stroke-linecap="square" stroke-miterlimit="10" xmlns:xlink="http://www.w3.org/1999/xlink" xmlns="http://www.w3.org/2000/svg"><clipPath id="g3b18a6c779a_0_4847.0"><path d="m0 0l288.0 0l0 384.0l-288.0 0l0 -384.0z" clip-rule="nonzero"/></clipPath><g clip-path="url(#g3b18a6c779a_0_4847.0)"><path fill="#161d25" d="m0 0l288.0 0l0 384.0l-288.0 0z" fill-rule="evenodd"/><path fill="#51de18" d="m5.7007875 34.135216l0 0c0 -9.966135 8.079147 -18.045282 18.04528 -18.045282l240.50787 0c4.7858887 0 9.375793 1.9011936 12.759949 5.2853394c3.3841248 3.3841476 5.2853394 7.9740353 5.2853394 12.759943l0 324.2244c0 9.9661255 -8.079163 18.045288 -18.045288 18.045288l-240.50787 0l0 0c-9.966134 0 -18.04528 -8.079163 -18.04528 -18.045288z" fill-rule="evenodd"/><path stroke="#51de18" stroke-width="4.0" stroke-linejoin="round" stroke-linecap="butt" d="m5.7007875 34.135216l0 0c0 -9.966135 8.079147 -18.045282 18.04528 -18.045282l240.50787 0c4.7858887 0 9.375793 1.9011936 12.759949 5.2853394c3.3841248 3.3841476 5.2853394 7.9740353 5.2853394 12.759943l0 324.2244c0 9.9661255 -8.079163 18.045288 -18.045288 18.045288l-240.50787 0l0 0c-9.966134 0 -18.04528 -8.079163 -18.04528 -18.045288z" fill-rule="evenodd"/><path fill="#1f5d07" d="m5.7007875 25.639769l0 0c0 -9.966133 8.079147 -18.04528 18.04528 -18.04528l240.50787 0c4.7858887 0 9.375793 1.9011936 12.759949 5.2853403c3.3841248 3.3841467 5.2853394 7.9740343 5.2853394 12.75994l0 324.2244c0 9.9661255 -8.079163 18.045288 -18.045288 18.045288l-240.50787 0l0 0c-9.966134 0 -18.04528 -8.079163 -18.04528 -18.045288z" fill-rule="evenodd"/><path stroke="#51de18" stroke-width="4.0" stroke-linejoin="round" stroke-linecap="butt" d="m5.7007875 25.639769l0 0c0 -9.966133 8.079147 -18.04528 18.04528 -18.04528l240.50787 0c4.7858887 0 9.375793 1.9011936 12.759949 5.2853403c3.3841248 3.3841467 5.2853394 7.9740343 5.2853394 12.75994l0 324.2244c0 9.9661255 -8.079163 18.045288 -18.045288 18.045288l-240.50787 0l0 0c-9.966134 0 -18.04528 -8.079163 -18.04528 -18.045288z" fill-rule="evenodd"/><path fill="#51de18" d="m124.54692 178.2197l0 0c0 -0.73902893 0.5990982 -1.3381348 1.3381271 -1.3381348l127.53893 0c0.35488892 0 0.69525146 0.14099121 0.9461975 0.39193726c0.25094604 0.25094604 0.391922 0.5913086 0.391922 0.9461975l0 5.352356c0 0.7390137 -0.5990906 1.3381195 -1.3381195 1.3381195l-127.53893 0l0 0c-0.73902893 0 -1.3381271 -0.59910583 -1.3381271 -1.3381195z" fill-rule="evenodd"/><path fill="#51de18" d="m124.54692 168.9338l0 0c0 -1.0129395 0.82115936 -1.8341064 1.8340988 -1.8341064l126.54699 0c0.48641968 0 0.9529419 0.1932373 1.2969055 0.5372009c0.34394836 0.34396362 0.53718567 0.8104706 0.53718567 1.2969055l0 7.3361816c0 1.0129395 -0.82115173 1.8340912 -1.8340912 1.8340912l-126.54699 0c-1.0129395 0 -1.8340988 -0.82115173 -1.8340988 -1.8340912z" fill-rule="evenodd"/><path fill="#51de18" d="m124.54692 171.42113l0 0c0 -0.73902893 0.5990982 -1.3381195 1.3381271 -1.3381195l127.53893 0c0.35488892 0 0.69525146 0.14097595 0.9461975 0.391922c0.25094604 0.25094604 0.391922 0.5913086 0.391922 0.9461975l0 5.352356c0 0.73902893 -0.5990906 1.3381195 -1.3381195 1.3381195l-127.53893 0l0 0c-0.73902893 0 -1.3381271 -0.5990906 -1.3381271 -1.3381195z" fill-rule="evenodd"/><path fill="#51de18" d="m49.238808 178.2147l0 0c0 -0.73902893 0.599102 -1.3381348 1.3381271 -1.3381348l127.538925 0c0.35488892 0 0.69525146 0.14099121 0.9461975 0.39193726c0.25094604 0.25094604 0.39193726 0.59129333 0.39193726 0.9461975l0 5.3523407c0 0.73902893 -0.59910583 1.3381348 -1.3381348 1.3381348l-127.538925 0l0 0c-0.7390251 0 -1.3381271 -0.59910583 -1.3381271 -1.3381348z" fill-rule="evenodd"/><path fill="#51de18" d="m49.238808 168.92882l0 0c0 -1.0129547 0.82115555 -1.8341064 1.8341026 -1.8341064l126.54698 0c0.48643494 0 0.9529419 0.1932373 1.2969055 0.5372009c0.34396362 0.34396362 0.5372009 0.8104706 0.5372009 1.2969055l0 7.3361816c0 1.0129395 -0.82115173 1.8340912 -1.8341064 1.8340912l-126.54698 0c-1.0129471 0 -1.8341026 -0.82115173 -1.8341026 -1.8340912z" fill-rule="evenodd"/><path fill="#51de18" d="m49.238808 171.41614l0 0c0 -0.73902893 0.599102 -1.3381348 1.3381271 -1.3381348l127.538925 0c0.35488892 0 0.69525146 0.14099121 0.9461975 0.39193726c0.25094604 0.25094604 0.39193726 0.5913086 0.39193726 0.9461975l0 5.3523407c0 0.73902893 -0.59910583 1.3381348 -1.3381348 1.3381348l-127.538925 0l0 0c-0.7390251 0 -1.3381271 -0.59910583 -1.3381271 -1.3381348z" fill-rule="evenodd"/><path fill="#51de18" d="m199.85349 161.10016l0 0c0 -5.0536957 4.0968323 -9.150528 9.150528 -9.150528l36.60103 0l0 0c2.4268646 0 4.7543335 0.9640808 6.470398 2.68013c1.7160645 1.7160645 2.68013 4.0435333 2.68013 6.470398l0 36.60103c0 5.0536957 -4.0968323 9.150528 -9.150528 9.150528l-36.60103 0c-5.0536957 0 -9.150528 -4.0968323 -9.150528 -9.150528z" fill-rule="evenodd"/><path fill="#51de18" d="m199.85349 154.30159l0 0c0 -5.0536957 4.0968323 -9.150528 9.150528 -9.150528l36.60103 0l0 0c2.4268646 0 4.7543335 0.9640808 6.470398 2.68013c1.7160645 1.7160645 2.68013 4.0435333 2.68013 6.470398l0 36.60103c0 5.0536957 -4.0968323 9.150528 -9.150528 9.150528l-36.60103 0c-5.0536957 0 -9.150528 -4.0968323 -9.150528 -9.150528z" fill-rule="evenodd"/><path fill="#51de18" d="m204.23065 157.22083l0 0c0 -4.248474 3.4440918 -7.692566 7.692581 -7.692566l30.769348 0l0 0c2.0401917 0 3.9968262 0.8104706 5.4394684 2.2531128c1.442627 1.442627 2.2530975 3.3992615 2.2530975 5.439453l0 30.769363c0 4.2484894 -3.4440765 7.692566 -7.692566 7.692566l-30.769348 0c-4.2484894 0 -7.692581 -3.4440765 -7.692581 -7.692566z" fill-rule="evenodd"/><path fill="#51de18" d="m208.60782 160.13673l0 0c0 -3.4414368 2.7898407 -6.2312775 6.2312775 -6.2312775l24.924377 0l0 0c1.6526489 0 3.2375946 0.6565094 4.406189 1.8251038c1.1685944 1.1685944 1.8250885 2.75354 1.8250885 4.4061737l0 24.924377c0 3.4414368 -2.7898254 6.2312775 -6.2312775 6.2312775l-24.924377 0c-3.4414368 0 -6.2312775 -2.7898407 -6.2312775 -6.2312775z" fill-rule="evenodd"/><path fill="#51de18" d="m199.85349 158.9877l4.353821 0l0 27.241333l-4.353821 0z" fill-rule="evenodd"/><path fill="#51de18" d="m250.38185 158.9877l4.3538055 0l0 27.241333l-4.3538055 0z" fill-rule="evenodd"/><path fill="#51de18" d="m204.23065 160.97433l4.353821 0l0 23.266983l-4.353821 0z" fill-rule="evenodd"/><path fill="#51de18" d="m246.00468 160.97433l4.353821 0l0 23.266983l-4.353821 0z" fill-rule="evenodd"/><path fill="#51de18" d="m212.75955 160.23898l0 0c0 -1.529541 1.2399292 -2.7694702 2.769455 -2.7694702l23.53981 0c0.7345123 0 1.4389343 0.29179382 1.958313 0.8111572c0.5193634 0.51937866 0.8111572 1.2238007 0.8111572 1.958313l0 11.077499c0 1.5295258 -1.2399292 2.769455 -2.7694702 2.769455l-23.53981 0c-1.5295258 0 -2.769455 -1.2399292 -2.769455 -2.769455z" fill-rule="evenodd"/><path fill="#51de18" d="m49.23921 161.09517l0 0c0 -5.0536957 4.0968323 -9.150528 9.150532 -9.150528l36.601013 0l0 0c2.4268723 0 4.7543488 0.96406555 6.4704056 2.68013c1.7160568 1.7160492 2.68013 4.0435333 2.68013 6.470398l0 36.601013c0 5.053711 -4.0968323 9.150528 -9.150536 9.150528l-36.601013 0c-5.0536995 0 -9.150532 -4.096817 -9.150532 -9.150528z" fill-rule="evenodd"/><path fill="#51de18" d="m49.23921 154.2966l0 0c0 -5.0536957 4.0968323 -9.150528 9.150532 -9.150528l36.601013 0l0 0c2.4268723 0 4.7543488 0.9640808 6.4704056 2.68013c1.7160568 1.7160645 2.68013 4.0435333 2.68013 6.470398l0 36.60103c0 5.0536957 -4.0968323 9.150528 -9.150536 9.150528l-36.601013 0c-5.0536995 0 -9.150532 -4.0968323 -9.150532 -9.150528z" fill-rule="evenodd"/><path fill="#51de18" d="m53.616375 157.21584l0 0c0 -4.2484894 3.4440804 -7.692566 7.6925697 -7.692566l30.769356 0l0 0c2.0401917 0 3.9968262 0.8104706 5.4394608 2.2530975c1.4426422 1.4426422 2.2531052 3.3992767 2.2531052 5.4394684l0 30.769363c0 4.2484894 -3.4440842 7.692566 -7.692566 7.692566l-30.769356 0c-4.2484894 0 -7.6925697 -3.4440765 -7.6925697 -7.692566z" fill-rule="evenodd"/><path fill="#51de18" d="m57.99354 160.13174l0 0c0 -3.4414368 2.789837 -6.2312775 6.2312813 -6.2312775l24.92437 0l0 0c1.6526413 0 3.2375946 0.6565094 4.4061813 1.8251038c1.1685944 1.1685791 1.8251038 2.75354 1.8251038 4.4061737l0 24.924377c0 3.4414368 -2.7898407 6.2312775 -6.231285 6.2312775l-24.92437 0c-3.4414444 0 -6.2312813 -2.7898407 -6.2312813 -6.2312775z" fill-rule="evenodd"/><path fill="#51de18" d="m49.23921 158.98271l4.353821 0l0 27.241333l-4.353821 0z" fill-rule="evenodd"/><path fill="#51de18" d="m99.76756 158.98271l4.353821 0l0 27.241333l-4.353821 0z" fill-rule="evenodd"/><path fill="#51de18" d="m53.616375 160.96935l4.353821 0l0 23.266968l-4.353821 0z" fill-rule="evenodd"/><path fill="#51de18" d="m95.390396 160.96935l4.353821 0l0 23.266968l-4.353821 0z" fill-rule="evenodd"/><path fill="#51de18" d="m62.14527 160.23398l0 0c0 -1.5295258 1.2399292 -2.769455 2.7694626 -2.769455l23.53981 0c0.7345047 0 1.4389267 0.29177856 1.9582977 0.8111572c0.51937866 0.51937866 0.8111572 1.2238007 0.8111572 1.9582977l0 11.077499c0 1.529541 -1.2399292 2.7694702 -2.769455 2.7694702l-23.53981 0c-1.5295334 0 -2.7694626 -1.2399292 -2.7694626 -2.7694702z" fill-rule="evenodd"/><path fill="#51de18" d="m124.54538 161.09517l0 0c0 -5.0536957 4.0968323 -9.150528 9.150528 -9.150528l36.601013 0l0 0c2.42688 0 4.7543488 0.96406555 6.470413 2.68013c1.7160492 1.7160492 2.6801147 4.0435333 2.6801147 6.470398l0 36.601013c0 5.053711 -4.0968323 9.150528 -9.150528 9.150528l-36.601013 0c-5.0536957 0 -9.150528 -4.096817 -9.150528 -9.150528z" fill-rule="evenodd"/><path fill="#51de18" d="m124.54538 154.2966l0 0c0 -5.0536957 4.0968323 -9.150528 9.150528 -9.150528l36.601013 0l0 0c2.42688 0 4.7543488 0.9640808 6.470413 2.68013c1.7160492 1.7160645 2.6801147 4.0435333 2.6801147 6.470398l0 36.60103c0 5.0536957 -4.0968323 9.150528 -9.150528 9.150528l-36.601013 0c-5.0536957 0 -9.150528 -4.0968323 -9.150528 -9.150528z" fill-rule="evenodd"/><path fill="#51de18" d="m128.92255 157.21584l0 0c0 -4.2484894 3.4440765 -7.692566 7.692566 -7.692566l30.769348 0l0 0c2.040207 0 3.9968414 0.8104706 5.4394684 2.2530975c1.4426422 1.4426422 2.2531128 3.3992767 2.2531128 5.4394684l0 30.769363c0 4.2484894 -3.4440918 7.692566 -7.692581 7.692566l-30.769348 0c-4.2484894 0 -7.692566 -3.4440765 -7.692566 -7.692566z" fill-rule="evenodd"/><path fill="#51de18" d="m133.29971 160.13174l0 0c0 -3.4414368 2.7898407 -6.2312775 6.2312775 -6.2312775l24.924377 0l0 0c1.6526337 0 3.2375793 0.6565094 4.4061737 1.8251038c1.1685944 1.1685791 1.8251038 2.75354 1.8251038 4.4061737l0 24.924377c0 3.4414368 -2.7898407 6.2312775 -6.2312775 6.2312775l-24.924377 0c-3.4414368 0 -6.2312775 -2.7898407 -6.2312775 -6.2312775z" fill-rule="evenodd"/><path fill="#51de18" d="m124.54538 158.98271l4.353821 0l0 27.241333l-4.353821 0z" fill-rule="evenodd"/><path fill="#51de18" d="m175.07373 158.98271l4.353821 0l0 27.241333l-4.353821 0z" fill-rule="evenodd"/><path fill="#51de18" d="m128.92255 160.96935l4.353821 0l0 23.266968l-4.353821 0z" fill-rule="evenodd"/><path fill="#51de18" d="m170.69656 160.96935l4.353821 0l0 23.266968l-4.353821 0z" fill-rule="evenodd"/><path fill="#51de18" d="m137.45145 160.23398l0 0c0 -1.5295258 1.2399292 -2.769455 2.769455 -2.769455l23.53981 0c0.7345123 0 1.4389343 0.29177856 1.9582977 0.8111572c0.51937866 0.51937866 0.8111572 1.2238007 0.8111572 1.9582977l0 11.077499c0 1.529541 -1.2399292 2.7694702 -2.769455 2.7694702l-23.53981 0c-1.5295258 0 -2.769455 -1.2399292 -2.769455 -2.7694702z" fill-rule="evenodd"/><path fill="#e03027" d="m108.54692 162.2197l0 0c0 -0.73902893 0.5990982 -1.3381348 1.3381271 -1.3381348l127.53893 0c0.35488892 0 0.69525146 0.14099121 0.9461975 0.39193726c0.25094604 0.25094604 0.391922 0.5913086 0.391922 0.9461975l0 5.352356c0 0.7390137 -0.5990906 1.3381195 -1.3381195 1.3381195l-127.53893 0l0 0c-0.73902893 0 -1.3381271 -0.59910583 -1.3381271 -1.3381195z" fill-rule="evenodd"/><path fill="#ffaaa7" d="m108.54692 152.9338l0 0c0 -1.0129395 0.82115936 -1.8341064 1.8340988 -1.8341064l126.54699 0c0.48641968 0 0.9529419 0.1932373 1.2969055 0.5372009c0.34394836 0.34396362 0.53718567 0.8104706 0.53718567 1.2969055l0 7.3361816c0 1.0129395 -0.82115173 1.8340912 -1.8340912 1.8340912l-126.54699 0c-1.0129395 0 -1.8340988 -0.82115173 -1.8340988 -1.8340912z" fill-rule="evenodd"/><path fill="#f73d35" d="m108.54692 155.42113l0 0c0 -0.73902893 0.5990982 -1.3381195 1.3381271 -1.3381195l127.53893 0c0.35488892 0 0.69525146 0.14097595 0.9461975 0.391922c0.25094604 0.25094604 0.391922 0.5913086 0.391922 0.9461975l0 5.352356c0 0.73902893 -0.5990906 1.3381195 -1.3381195 1.3381195l-127.53893 0l0 0c-0.73902893 0 -1.3381271 -0.5990906 -1.3381271 -1.3381195z" fill-rule="evenodd"/><path fill="#e03027" d="m33.238808 162.2147l0 0c0 -0.73902893 0.599102 -1.3381348 1.3381271 -1.3381348l127.538925 0c0.35488892 0 0.69525146 0.14099121 0.9461975 0.39193726c0.25094604 0.25094604 0.39193726 0.59129333 0.39193726 0.9461975l0 5.3523407c0 0.73902893 -0.59910583 1.3381348 -1.3381348 1.3381348l-127.538925 0l0 0c-0.7390251 0 -1.3381271 -0.59910583 -1.3381271 -1.3381348z" fill-rule="evenodd"/><path fill="#ffaaa7" d="m33.238808 152.92882l0 0c0 -1.0129547 0.82115555 -1.8341064 1.8341026 -1.8341064l126.54698 0c0.48643494 0 0.9529419 0.1932373 1.2969055 0.5372009c0.34396362 0.34396362 0.5372009 0.8104706 0.5372009 1.2969055l0 7.3361816c0 1.0129395 -0.82115173 1.8340912 -1.8341064 1.8340912l-126.54698 0c-1.0129471 0 -1.8341026 -0.82115173 -1.8341026 -1.8340912z" fill-rule="evenodd"/><path fill="#f73d35" d="m33.238808 155.41614l0 0c0 -0.73902893 0.599102 -1.3381348 1.3381271 -1.3381348l127.538925 0c0.35488892 0 0.69525146 0.14099121 0.9461975 0.39193726c0.25094604 0.25094604 0.39193726 0.5913086 0.39193726 0.9461975l0 5.3523407c0 0.73902893 -0.59910583 1.3381348 -1.3381348 1.3381348l-127.538925 0l0 0c-0.7390251 0 -1.3381271 -0.59910583 -1.3381271 -1.3381348z" fill-rule="evenodd"/><path fill="#e03027" d="m183.85349 145.10016l0 0c0 -5.0536957 4.0968323 -9.150528 9.150528 -9.150528l36.60103 0l0 0c2.4268646 0 4.7543335 0.9640808 6.470398 2.68013c1.7160645 1.7160645 2.68013 4.0435333 2.68013 6.470398l0 36.60103c0 5.0536957 -4.0968323 9.150528 -9.150528 9.150528l-36.60103 0c-5.0536957 0 -9.150528 -4.0968323 -9.150528 -9.150528z" fill-rule="evenodd"/><path fill="#f73d35" d="m183.85349 138.30159l0 0c0 -5.0536957 4.0968323 -9.150528 9.150528 -9.150528l36.60103 0l0 0c2.4268646 0 4.7543335 0.9640808 6.470398 2.68013c1.7160645 1.7160645 2.68013 4.0435333 2.68013 6.470398l0 36.60103c0 5.0536957 -4.0968323 9.150528 -9.150528 9.150528l-36.60103 0c-5.0536957 0 -9.150528 -4.0968323 -9.150528 -9.150528z" fill-rule="evenodd"/><path fill="#e03027" d="m188.23065 141.22083l0 0c0 -4.248474 3.4440918 -7.692566 7.692581 -7.692566l30.769348 0l0 0c2.0401917 0 3.9968262 0.8104706 5.4394684 2.2531128c1.442627 1.442627 2.2530975 3.3992615 2.2530975 5.439453l0 30.769363c0 4.2484894 -3.4440765 7.692566 -7.692566 7.692566l-30.769348 0c-4.2484894 0 -7.692581 -3.4440765 -7.692581 -7.692566z" fill-rule="evenodd"/><path fill="#fc8076" d="m192.60782 144.13673l0 0c0 -3.4414368 2.7898407 -6.2312775 6.2312775 -6.2312775l24.924377 0l0 0c1.6526489 0 3.2375946 0.6565094 4.406189 1.8251038c1.1685944 1.1685944 1.8250885 2.75354 1.8250885 4.4061737l0 24.924377c0 3.4414368 -2.7898254 6.2312775 -6.2312775 6.2312775l-24.924377 0c-3.4414368 0 -6.2312775 -2.7898407 -6.2312775 -6.2312775z" fill-rule="evenodd"/><path fill="#fc8076" d="m183.85349 142.9877l4.353821 0l0 27.241333l-4.353821 0z" fill-rule="evenodd"/><path fill="#fc8076" d="m234.38185 142.9877l4.3538055 0l0 27.241333l-4.3538055 0z" fill-rule="evenodd"/><path fill="#f73d35" d="m188.23065 144.97433l4.353821 0l0 23.266983l-4.353821 0z" fill-rule="evenodd"/><path fill="#f73d35" d="m230.00468 144.97433l4.353821 0l0 23.266983l-4.353821 0z" fill-rule="evenodd"/><path fill="#ffaaa7" d="m196.75955 144.23898l0 0c0 -1.529541 1.2399292 -2.7694702 2.769455 -2.7694702l23.53981 0c0.7345123 0 1.4389343 0.29179382 1.958313 0.8111572c0.5193634 0.51937866 0.8111572 1.2238007 0.8111572 1.958313l0 11.077499c0 1.5295258 -1.2399292 2.769455 -2.7694702 2.769455l-23.53981 0c-1.5295258 0 -2.769455 -1.2399292 -2.769455 -2.769455z" fill-rule="evenodd"/><path fill="#e03027" d="m33.23921 145.09517l0 0c0 -5.0536957 4.0968323 -9.150528 9.150532 -9.150528l36.601013 0l0 0c2.4268723 0 4.7543488 0.96406555 6.4704056 2.68013c1.7160568 1.7160492 2.68013 4.0435333 2.68013 6.470398l0 36.601013c0 5.053711 -4.0968323 9.150528 -9.150536 9.150528l-36.601013 0c-5.0536995 0 -9.150532 -4.096817 -9.150532 -9.150528z" fill-rule="evenodd"/><path fill="#f73d35" d="m33.23921 138.2966l0 0c0 -5.0536957 4.0968323 -9.150528 9.150532 -9.150528l36.601013 0l0 0c2.4268723 0 4.7543488 0.9640808 6.4704056 2.68013c1.7160568 1.7160645 2.68013 4.0435333 2.68013 6.470398l0 36.60103c0 5.0536957 -4.0968323 9.150528 -9.150536 9.150528l-36.601013 0c-5.0536995 0 -9.150532 -4.0968323 -9.150532 -9.150528z" fill-rule="evenodd"/><path fill="#e03027" d="m37.616375 141.21584l0 0c0 -4.2484894 3.4440804 -7.692566 7.6925697 -7.692566l30.769356 0l0 0c2.0401917 0 3.9968262 0.8104706 5.4394608 2.2530975c1.4426422 1.4426422 2.2531052 3.3992767 2.2531052 5.4394684l0 30.769363c0 4.2484894 -3.4440842 7.692566 -7.692566 7.692566l-30.769356 0c-4.2484894 0 -7.6925697 -3.4440765 -7.6925697 -7.692566z" fill-rule="evenodd"/><path fill="#fc8076" d="m41.99354 144.13174l0 0c0 -3.4414368 2.789837 -6.2312775 6.2312775 -6.2312775l24.924374 0l0 0c1.6526413 0 3.2375946 0.6565094 4.4061813 1.8251038c1.1685944 1.1685791 1.8251038 2.75354 1.8251038 4.4061737l0 24.924377c0 3.4414368 -2.7898407 6.2312775 -6.231285 6.2312775l-24.924374 0c-3.4414406 0 -6.2312775 -2.7898407 -6.2312775 -6.2312775z" fill-rule="evenodd"/><path fill="#fc8076" d="m33.23921 142.98271l4.353821 0l0 27.241333l-4.353821 0z" fill-rule="evenodd"/><path fill="#fc8076" d="m83.76756 142.98271l4.353821 0l0 27.241333l-4.353821 0z" fill-rule="evenodd"/><path fill="#f73d35" d="m37.616375 144.96935l4.353821 0l0 23.266968l-4.353821 0z" fill-rule="evenodd"/><path fill="#f73d35" d="m79.390396 144.96935l4.353821 0l0 23.266968l-4.353821 0z" fill-rule="evenodd"/><path fill="#ffaaa7" d="m46.14527 144.23398l0 0c0 -1.5295258 1.2399292 -2.769455 2.7694588 -2.769455l23.539814 0c0.7345047 0 1.4389267 0.29177856 1.9582977 0.8111572c0.51937866 0.51937866 0.8111572 1.2238007 0.8111572 1.9582977l0 11.077499c0 1.529541 -1.2399292 2.7694702 -2.769455 2.7694702l-23.539814 0c-1.5295296 0 -2.7694588 -1.2399292 -2.7694588 -2.7694702z" fill-rule="evenodd"/><path fill="#3b4652" d="m108.54538 145.09517l0 0c0 -5.0536957 4.0968323 -9.150528 9.150528 -9.150528l36.601013 0l0 0c2.42688 0 4.7543488 0.96406555 6.470413 2.68013c1.7160492 1.7160492 2.6801147 4.0435333 2.6801147 6.470398l0 36.601013c0 5.053711 -4.0968323 9.150528 -9.150528 9.150528l-36.601013 0c-5.0536957 0 -9.150528 -4.096817 -9.150528 -9.150528z" fill-rule="evenodd"/><path fill="#83909f" d="m108.54538 138.2966l0 0c0 -5.0536957 4.0968323 -9.150528 9.150528 -9.150528l36.601013 0l0 0c2.42688 0 4.7543488 0.9640808 6.470413 2.68013c1.7160492 1.7160645 2.6801147 4.0435333 2.6801147 6.470398l0 36.60103c0 5.0536957 -4.0968323 9.150528 -9.150528 9.150528l-36.601013 0c-5.0536957 0 -9.150528 -4.0968323 -9.150528 -9.150528z" fill-rule="evenodd"/><path fill="#3b4652" d="m112.92255 141.21584l0 0c0 -4.2484894 3.4440765 -7.692566 7.692566 -7.692566l30.769348 0l0 0c2.040207 0 3.9968414 0.8104706 5.4394684 2.2530975c1.4426422 1.4426422 2.2531128 3.3992767 2.2531128 5.4394684l0 30.769363c0 4.2484894 -3.4440918 7.692566 -7.692581 7.692566l-30.769348 0c-4.2484894 0 -7.692566 -3.4440765 -7.692566 -7.692566z" fill-rule="evenodd"/><path fill="#e7f2ff" d="m117.29971 144.13174l0 0c0 -3.4414368 2.789833 -6.2312775 6.2312775 -6.2312775l24.924377 0l0 0c1.6526337 0 3.2375793 0.6565094 4.4061737 1.8251038c1.1685944 1.1685791 1.8251038 2.75354 1.8251038 4.4061737l0 24.924377c0 3.4414368 -2.7898407 6.2312775 -6.2312775 6.2312775l-24.924377 0c-3.4414444 0 -6.2312775 -2.7898407 -6.2312775 -6.2312775z" fill-rule="evenodd"/><path fill="#e7f2ff" d="m108.54538 142.98271l4.353821 0l0 27.241333l-4.353821 0z" fill-rule="evenodd"/><path fill="#e7f2ff" d="m159.07373 142.98271l4.353821 0l0 27.241333l-4.353821 0z" fill-rule="evenodd"/><path fill="#83909f" d="m112.92255 144.96935l4.353821 0l0 23.266968l-4.353821 0z" fill-rule="evenodd"/><path fill="#83909f" d="m154.69656 144.96935l4.353821 0l0 23.266968l-4.353821 0z" fill-rule="evenodd"/><path fill="#f3f8fe" d="m121.45144 144.23398l0 0c0 -1.5295258 1.2399292 -2.769455 2.7694626 -2.769455l23.53981 0c0.7345123 0 1.4389343 0.29177856 1.9582977 0.8111572c0.51937866 0.51937866 0.8111572 1.2238007 0.8111572 1.9582977l0 11.077499c0 1.529541 -1.2399292 2.7694702 -2.769455 2.7694702l-23.53981 0c-1.5295334 0 -2.7694626 -1.2399292 -2.7694626 -2.7694702z" fill-rule="evenodd"/><path fill="#000000" fill-opacity="0.0" d="m21.700787 315.7533l266.29922 0l0 51.716522l-266.29922 0z" fill-rule="evenodd"/><path fill="#ffffff" d="m45.15391 335.08203q-0.1875 1.59375 -1.09375 2.78125q-0.90625 1.1875 -2.390625 1.84375q-1.484375 0.65625 -3.40625 0.65625q-2.09375 0 -3.65625 -0.78125q-1.5625 -0.78125 -2.4375 -2.1875q-0.875 -1.40625 -0.875 -3.28125q0 -1.875 0.875 -3.28125q0.875 -1.40625 2.4375 -2.1875q1.5625 -0.78125 3.65625 -0.78125q1.921875 0 3.40625 0.65625q1.484375 0.65625 2.390625 1.84375q0.90625 1.1875 1.09375 2.78125l-3.328125 0q-0.171875 -0.78125 -0.640625 -1.3125q-0.453125 -0.53125 -1.203125 -0.8125q-0.734375 -0.296875 -1.71875 -0.296875q-1.109375 0 -1.9375 0.40625q-0.8125 0.40625 -1.25 1.171875q-0.421875 0.75 -0.421875 1.8125q0 1.0625 0.421875 1.828125q0.4375 0.75 1.25 1.15625q0.828125 0.40625 1.9375 0.40625q0.984375 0 1.71875 -0.265625q0.75 -0.28125 1.203125 -0.8125q0.46875 -0.546875 0.640625 -1.34375l3.328125 0zm9.599152 5.03125l-0.421875 -3.296875l0.4375 -1.265625l-0.4375 -1.265625l0.421875 -3.3125l3.390625 0l-0.578125 4.5625l0.578125 4.578125l-3.390625 0zm0.765625 -4.5625q-0.21875 1.4375 -0.890625 2.53125q-0.65625 1.09375 -1.671875 1.6875q-1.015625 0.59375 -2.3125 0.59375q-1.34375 0 -2.375 -0.59375q-1.015625 -0.59375 -1.59375 -1.6875q-0.5625 -1.109375 -0.5625 -2.53125q0 -1.453125 0.5625 -2.53125q0.578125 -1.09375 1.59375 -1.703125q1.03125 -0.609375 2.375 -0.609375q1.296875 0 2.3125 0.609375q1.015625 0.59375 1.6875 1.671875q0.671875 1.078125 0.875 2.5625zm-6.09375 0q0 0.671875 0.28125 1.203125q0.28125 0.53125 0.765625 0.828125q0.5 0.296875 1.140625 0.296875q0.671875 0 1.265625 -0.296875q0.59375 -0.296875 1.03125 -0.828125q0.453125 -0.53125 0.671875 -1.203125q-0.21875 -0.6875 -0.671875 -1.203125q-0.4375 -0.53125 -1.03125 -0.828125q-0.59375 -0.3125 -1.265625 -0.3125q-0.640625 0 -1.140625 0.3125q-0.484375 0.296875 -0.765625 0.828125q-0.28125 0.515625 -0.28125 1.203125zm9.856659 -4.578125l3.328125 0l0.546875 3.265625l0 5.875l-3.265625 0l0 -6.0625l-0.609375 -3.078125zm8.156254 -0.140625l0 2.78125q-0.484375 -0.09375 -0.90625 -0.125q-0.421875 -0.046875 -0.78125 -0.046875q-0.703125 0 -1.296875 0.28125q-0.5781288 0.28125 -0.9375038 0.921875q-0.359375 0.640625 -0.359375 1.703125l-0.625 -0.765625q0.125 -0.984375 0.375 -1.859375q0.265625 -0.875 0.703125 -1.546875q0.4375038 -0.6875 1.0937538 -1.078125q0.65625 -0.390625 1.59375 -0.390625q0.28125 0 0.5625 0.03125q0.296875 0.03125 0.578125 0.09375zm1.1136475 -3.03125l3.28125 0l0 5.828125l-0.421875 0.84375l0 2.296875l0.421875 0.796875l0 2.546875l-3.28125 0l0 -12.3125zm2.234375 7.75q0.21875 -1.484375 0.875 -2.5625q0.65625 -1.078125 1.6875 -1.671875q1.03125 -0.609375 2.3125 -0.609375q1.34375 0 2.359375 0.609375q1.015625 0.609375 1.578125 1.703125q0.578125 1.078125 0.578125 2.53125q0 1.421875 -0.578125 2.53125q-0.5625 1.09375 -1.578125 1.6875q-1.015625 0.59375 -2.359375 0.59375q-1.296875 0 -2.328125 -0.59375q-1.015625 -0.59375 -1.671875 -1.6875q-0.65625 -1.09375 -0.875 -2.53125zm6.09375 0q0 -0.6875 -0.28125 -1.203125q-0.28125 -0.53125 -0.78125 -0.828125q-0.5 -0.3125 -1.140625 -0.3125q-0.65625 0 -1.25 0.3125q-0.59375 0.296875 -1.046875 0.828125q-0.453125 0.515625 -0.6875 1.203125q0.234375 0.671875 0.6875 1.203125q0.453125 0.53125 1.046875 0.828125q0.59375 0.296875 1.25 0.296875q0.640625 0 1.140625 -0.296875q0.5 -0.296875 0.78125 -0.828125q0.28125 -0.53125 0.28125 -1.203125zm10.149033 4.8125q-1.765625 0 -3.078125 -0.59375q-1.3125 -0.59375 -2.046875 -1.6875q-0.734375 -1.109375 -0.734375 -2.53125q0 -1.453125 0.734375 -2.53125q0.734375 -1.09375 2.046875 -1.703125q1.3125 -0.609375 3.078125 -0.609375q1.734375 0 3.046875 0.609375q1.328125 0.609375 2.0625 1.703125q0.734375 1.078125 0.734375 2.53125q0 1.421875 -0.734375 2.53125q-0.734375 1.09375 -2.0625 1.6875q-1.3125 0.59375 -3.046875 0.59375zm0 -2.40625q0.796875 0 1.359375 -0.28125q0.5625 -0.296875 0.859375 -0.84375q0.3125 -0.546875 0.3125 -1.28125q0 -0.765625 -0.3125 -1.296875q-0.296875 -0.546875 -0.859375 -0.828125q-0.5625 -0.28125 -1.359375 -0.28125q-0.8125 0 -1.390625 0.28125q-0.5625 0.28125 -0.875 0.828125q-0.296875 0.53125 -0.296875 1.28125q0 0.75 0.296875 1.296875q0.3125 0.546875 0.875 0.84375q0.578125 0.28125 1.390625 0.28125zm6.733032 -6.984375l3.28125 0l0.59375 3.65625l0 5.484375l-3.265625 0l0 -5.984375l-0.609375 -3.15625zm7.234375 -0.265625q1.3125 0 2.234375 0.53125q0.921875 0.515625 1.40625 1.484375q0.5 0.953125 0.5 2.265625l0 5.125l-3.265625 0l0 -4.640625q0 -1.015625 -0.53125 -1.5625q-0.515625 -0.546875 -1.484375 -0.546875q-0.671875 0 -1.1875 0.296875q-0.5 0.28125 -0.765625 0.8125q-0.265625 0.515625 -0.265625 1.234375l-1.015625 -0.515625q0.1875 -1.46875 0.8125 -2.46875q0.625 -1.0 1.53125 -1.5q0.921875 -0.515625 2.03125 -0.515625zm15.998276 -2.59375q2.125 0 3.734375 0.75q1.609375 0.734375 2.484375 2.09375q0.890625 1.34375 0.890625 3.15625q0 1.8125 -0.890625 3.171875q-0.875 1.34375 -2.484375 2.09375q-1.609375 0.734375 -3.734375 0.734375l-5.984375 0l0 -12.0l5.984375 0zm-2.6875 10.609375l-1.59375 -1.546875l4.53125 0q1.078125 0 1.859375 -0.375q0.796875 -0.390625 1.21875 -1.078125q0.4375 -0.6875 0.4375 -1.609375q0 -0.9375 -0.4375 -1.609375q-0.421875 -0.6875 -1.21875 -1.0625q-0.78125 -0.390625 -1.859375 -0.390625l-4.53125 0l1.59375 -1.546875l0 9.21875zm11.220779 -7.890625l1.65625 0.328125l1.625 -0.328125l0 9.28125l-3.28125 0l0 -9.28125zm1.640625 -0.75q-0.84375 0 -1.375 -0.421875q-0.53125 -0.421875 -0.53125 -1.15625q0 -0.734375 0.53125 -1.15625q0.53125 -0.4375 1.375 -0.4375q0.875 0 1.390625 0.4375q0.53125 0.421875 0.53125 1.15625q0 0.734375 -0.53125 1.15625q-0.515625 0.421875 -1.390625 0.421875zm8.884506 10.28125q-1.765625 0 -3.078125 -0.59375q-1.3125 -0.59375 -2.046875 -1.6875q-0.734375 -1.109375 -0.734375 -2.53125q0 -1.453125 0.734375 -2.53125q0.734375 -1.09375 2.046875 -1.703125q1.3125 -0.609375 3.078125 -0.609375q1.734375 0 3.046875 0.609375q1.328125 0.609375 2.0625 1.703125q0.734375 1.078125 0.734375 2.53125q0 1.421875 -0.734375 2.53125q-0.734375 1.09375 -2.0625 1.6875q-1.3125 0.59375 -3.046875 0.59375zm0 -2.40625q0.796875 0 1.359375 -0.28125q0.5625 -0.296875 0.859375 -0.84375q0.3125 -0.546875 0.3125 -1.28125q0 -0.765625 -0.3125 -1.296875q-0.296875 -0.546875 -0.859375 -0.828125q-0.5625 -0.28125 -1.359375 -0.28125q-0.8125 0 -1.390625 0.28125q-0.5625 0.28125 -0.875 0.828125q-0.296875 0.53125 -0.296875 1.28125q0 0.75 0.296875 1.296875q0.3125 0.546875 0.875 0.84375q0.578125 0.28125 1.390625 0.28125zm5.452774 2.15625l4.234375 -5.125l-0.015625 0.96875l-3.984375 -4.984375l3.640625 0l2.5625 3.15625l-0.953125 0l2.578125 -3.15625l3.578125 0l-4.125 5.015625l-0.15625 -1.296875l4.546875 5.421875l-3.71875 0l-2.796875 -3.375l1.015625 0l-2.765625 3.375l-3.640625 0zm12.582153 -9.28125l1.65625 0.328125l1.625 -0.328125l0 9.28125l-3.28125 0l0 -9.28125zm1.640625 -0.75q-0.84375 0 -1.375 -0.421875q-0.53125 -0.421875 -0.53125 -1.15625q0 -0.734375 0.53125 -1.15625q0.53125 -0.4375 1.375 -0.4375q0.875 0 1.390625 0.4375q0.53125 0.421875 0.53125 1.15625q0 0.734375 -0.53125 1.15625q-0.515625 0.421875 -1.390625 0.421875zm11.759506 10.03125l-0.4375 -3.421875l0.5625 -1.125l-0.546875 -1.40625l0.765625 -6.359375l3.390625 0l-0.9375 7.5l0.578125 4.8125l-3.375 0zm0.703125 -4.5625q-0.21875 1.4375 -0.890625 2.53125q-0.65625 1.09375 -1.671875 1.6875q-1.015625 0.59375 -2.3125 0.59375q-1.34375 0 -2.375 -0.59375q-1.015625 -0.59375 -1.59375 -1.6875q-0.5625 -1.109375 -0.5625 -2.53125q0 -1.453125 0.5625 -2.53125q0.578125 -1.09375 1.59375 -1.703125q1.03125 -0.609375 2.375 -0.609375q1.296875 0 2.3125 0.609375q1.015625 0.59375 1.6875 1.671875q0.671875 1.078125 0.875 2.5625zm-6.09375 0q0 0.671875 0.28125 1.203125q0.28125 0.53125 0.765625 0.828125q0.5 0.296875 1.140625 0.296875q0.671875 0 1.265625 -0.296875q0.59375 -0.296875 1.03125 -0.828125q0.453125 -0.53125 0.671875 -1.203125q-0.21875 -0.6875 -0.671875 -1.203125q-0.4375 -0.53125 -1.03125 -0.828125q-0.59375 -0.3125 -1.265625 -0.3125q-0.640625 0 -1.140625 0.3125q-0.484375 0.296875 -0.765625 0.828125q-0.28125 0.515625 -0.28125 1.203125zm15.605911 4.8125q-1.65625 0 -2.96875 -0.59375q-1.296875 -0.609375 -2.046875 -1.703125q-0.75 -1.109375 -0.75 -2.5625q0 -1.421875 0.71875 -2.5q0.71875 -1.078125 1.96875 -1.6875q1.265625 -0.609375 2.84375 -0.609375q1.640625 0 2.796875 0.71875q1.171875 0.703125 1.796875 2.0q0.640625 1.296875 0.640625 3.0625l-8.125 0l0 -1.96875l6.28125 0l-1.0625 0.6875q-0.078125 -0.703125 -0.359375 -1.1875q-0.28125 -0.5 -0.765625 -0.75q-0.46875 -0.265625 -1.125 -0.265625q-0.71875 0 -1.234375 0.296875q-0.5 0.28125 -0.796875 0.796875q-0.28125 0.5 -0.28125 1.171875q0 0.859375 0.390625 1.46875q0.390625 0.59375 1.140625 0.921875q0.765625 0.3125 1.875 0.3125q1.0 0 2.0 -0.265625q1.0 -0.265625 1.828125 -0.75l0 2.078125q-0.953125 0.640625 -2.171875 0.984375q-1.203125 0.34375 -2.59375 0.34375z" fill-rule="nonzero"/><path fill="#ffffff" d="m31.591412 351.03705q0 -0.84375 0.171875 -1.765625q0.171875 -0.921875 0.46875 -1.78125q0.3125 -0.875 0.703125 -1.515625l0.859375 0q-0.40625 0.8125 -0.703125 1.703125q-0.296875 0.875 -0.453125 1.75q-0.15625 0.859375 -0.15625 1.609375q0 0.671875 0.140625 1.390625q0.140625 0.703125 0.421875 1.5q0.296875 0.78125 0.75 1.71875l-0.859375 0q-0.671875 -1.125 -1.015625 -2.296875q-0.328125 -1.171875 -0.328125 -2.3125z" fill-rule="nonzero"/><path fill="#ffffff" d="m38.47633 352.52142l0 -1.9375l0.234375 0l1.859375 -2.203125l1.84375 0l-2.5 2.921875l-0.390625 0l-1.046875 1.21875zm-1.46875 1.671875l0 -7.75l1.609375 0l0 7.75l-1.609375 0zm3.625 0l-1.703125 -2.53125l1.078125 -1.140625l2.515625 3.671875l-1.890625 0zm3.8796997 0.109375q-0.546875 0 -0.984375 -0.1875q-0.4375 -0.203125 -0.6875 -0.578125q-0.25 -0.390625 -0.25 -0.96875q0 -0.484375 0.171875 -0.8125q0.171875 -0.328125 0.484375 -0.53125q0.3125 -0.203125 0.703125 -0.296875q0.390625 -0.109375 0.828125 -0.15625q0.5 -0.046875 0.796875 -0.09375q0.3125 -0.046875 0.453125 -0.140625q0.140625 -0.09375 0.140625 -0.28125l0 -0.015625q0 -0.359375 -0.234375 -0.5625q-0.21875 -0.203125 -0.625 -0.203125q-0.421875 0 -0.6875 0.203125q-0.25 0.1875 -0.34375 0.46875l-1.484375 -0.109375q0.109375 -0.53125 0.4375 -0.921875q0.34375 -0.390625 0.859375 -0.59375q0.53125 -0.21875 1.234375 -0.21875q0.484375 0 0.921875 0.125q0.4375 0.109375 0.78125 0.34375q0.359375 0.234375 0.5625 0.609375q0.203125 0.375 0.203125 0.890625l0 3.921875l-1.546875 0l0 -0.8125l-0.03125 0q-0.140625 0.28125 -0.375 0.484375q-0.234375 0.203125 -0.5625 0.328125q-0.328125 0.109375 -0.765625 0.109375zm0.46875 -1.109375q0.34375 0 0.609375 -0.140625q0.28125 -0.15625 0.4375 -0.390625q0.15625 -0.25 0.15625 -0.546875l0 -0.609375q-0.078125 0.03125 -0.21875 0.078125q-0.125 0.046875 -0.28125 0.078125q-0.15625 0.03125 -0.328125 0.0625q-0.15625 0.015625 -0.28125 0.03125q-0.28125 0.046875 -0.5 0.140625q-0.21875 0.078125 -0.34375 0.234375q-0.109375 0.15625 -0.109375 0.390625q0 0.328125 0.234375 0.5q0.25 0.171875 0.625 0.171875zm5.4005127 1.109375q-0.546875 0 -0.984375 -0.1875q-0.4375 -0.203125 -0.6875 -0.578125q-0.25 -0.390625 -0.25 -0.96875q0 -0.484375 0.171875 -0.8125q0.171875 -0.328125 0.484375 -0.53125q0.3125 -0.203125 0.703125 -0.296875q0.390625 -0.109375 0.828125 -0.15625q0.5 -0.046875 0.796875 -0.09375q0.3125 -0.046875 0.453125 -0.140625q0.140625 -0.09375 0.140625 -0.28125l0 -0.015625q0 -0.359375 -0.234375 -0.5625q-0.21875 -0.203125 -0.625 -0.203125q-0.421875 0 -0.6875 0.203125q-0.25 0.1875 -0.34375 0.46875l-1.484375 -0.109375q0.109375 -0.53125 0.4375 -0.921875q0.34375 -0.390625 0.859375 -0.59375q0.53125 -0.21875 1.234375 -0.21875q0.484375 0 0.921875 0.125q0.4375 0.109375 0.78125 0.34375q0.359375 0.234375 0.5625 0.609375q0.203125 0.375 0.203125 0.890625l0 3.921875l-1.546875 0l0 -0.8125l-0.03125 0q-0.140625 0.28125 -0.375 0.484375q-0.234375 0.203125 -0.5625 0.328125q-0.328125 0.109375 -0.765625 0.109375zm0.46875 -1.109375q0.34375 0 0.609375 -0.140625q0.28125 -0.15625 0.4375 -0.390625q0.15625 -0.25 0.15625 -0.546875l0 -0.609375q-0.078125 0.03125 -0.21875 0.078125q-0.125 0.046875 -0.28125 0.078125q-0.15625 0.03125 -0.328125 0.0625q-0.15625 0.015625 -0.28125 0.03125q-0.28125 0.046875 -0.5 0.140625q-0.21875 0.078125 -0.34375 0.234375q-0.109375 0.15625 -0.109375 0.390625q0 0.328125 0.234375 0.5q0.25 0.171875 0.625 0.171875z" fill-rule="nonzero"/><path fill="#ffffff" d="m59.373363 352.77142q-0.453125 0 -0.84375 -0.21875q-0.375 -0.234375 -0.609375 -0.609375q-0.21875 -0.390625 -0.21875 -0.84375q0 -0.453125 0.21875 -0.828125q0.234375 -0.390625 0.609375 -0.609375q0.390625 -0.21875 0.84375 -0.21875q0.453125 0 0.828125 0.21875q0.390625 0.21875 0.609375 0.609375q0.21875 0.375 0.21875 0.828125q0 0.453125 -0.21875 0.84375q-0.21875 0.375 -0.609375 0.609375q-0.375 0.21875 -0.828125 0.21875zm7.9614296 1.546875q-0.546875 0 -0.890625 -0.1875q-0.328125 -0.1875 -0.515625 -0.421875q-0.1875 -0.25 -0.28125 -0.40625l-0.109375 0l0 0.890625l-0.84375 0l0 -7.75l0.875 0l0 2.859375l0.078125 0q0.09375 -0.15625 0.265625 -0.390625q0.1875 -0.234375 0.515625 -0.421875q0.34375 -0.1875 0.90625 -0.1875q0.734375 0 1.28125 0.375q0.5625 0.359375 0.875 1.03125q0.3125 0.671875 0.3125 1.59375q0 0.921875 -0.3125 1.609375q-0.3125 0.671875 -0.875 1.046875q-0.546875 0.359375 -1.28125 0.359375zm-0.109375 -0.796875q0.5625 0 0.9375 -0.296875q0.375 -0.3125 0.5625 -0.8125q0.1875 -0.5 0.1875 -1.125q0 -0.609375 -0.1875 -1.09375q-0.1875 -0.5 -0.5625 -0.796875q-0.375 -0.296875 -0.9375 -0.296875q-0.546875 0 -0.921875 0.28125q-0.359375 0.265625 -0.546875 0.765625q-0.1875 0.484375 -0.1875 1.140625q0 0.65625 0.1875 1.15625q0.1875 0.5 0.5625 0.796875q0.375 0.28125 0.90625 0.28125zm7.108734 -1.703125l0 -3.4375l0.890625 0l0 5.8125l-0.890625 0l0 -0.984375l-0.0625 0q-0.203125 0.4375 -0.640625 0.75q-0.421875 0.3125 -1.078125 0.3125q-0.546875 0 -0.96875 -0.234375q-0.421875 -0.25 -0.671875 -0.734375q-0.234375 -0.484375 -0.234375 -1.234375l0 -3.6875l0.875 0l0 3.640625q0 0.625 0.359375 1.015625q0.375 0.375 0.921875 0.359375q0.328125 0 0.671875 -0.15625q0.359375 -0.171875 0.59375 -0.515625q0.234375 -0.359375 0.234375 -0.90625zm2.9111023 -1.125l0 3.5l-0.875 0l0 -7.75l0.875 0l0 2.84375l0.09375 0q0.203125 -0.453125 0.609375 -0.71875q0.40625 -0.265625 1.09375 -0.265625q0.59375 0 1.03125 0.234375q0.453125 0.234375 0.703125 0.734375q0.25 0.484375 0.25 1.234375l0 3.6875l-0.890625 0l0 -3.625q0 -0.703125 -0.359375 -1.078125q-0.359375 -0.390625 -1.0 -0.390625q-0.4375 0 -0.78125 0.1875q-0.34375 0.1875 -0.546875 0.546875q-0.203125 0.359375 -0.203125 0.859375zm5.8068237 0l0 3.5l-0.875 0l0 -5.8125l0.84375 0l0 0.90625l0.09375 0q0.203125 -0.4375 0.609375 -0.703125q0.421875 -0.28125 1.078125 -0.28125q0.59375 0 1.03125 0.25q0.4375 0.234375 0.6875 0.71875q0.25 0.484375 0.25 1.234375l0 3.6875l-0.890625 0l0 -3.625q0 -0.6875 -0.359375 -1.078125q-0.359375 -0.390625 -0.96875 -0.390625q-0.421875 0 -0.765625 0.1875q-0.34375 0.1875 -0.546875 0.546875q-0.1875 0.359375 -0.1875 0.859375zm9.538818 2.078125q-0.453125 0 -0.84375 -0.21875q-0.375 -0.234375 -0.609375 -0.609375q-0.21875 -0.390625 -0.21875 -0.84375q0 -0.453125 0.21875 -0.828125q0.234375 -0.390625 0.609375 -0.609375q0.390625 -0.21875 0.84375 -0.21875q0.453125 0 0.828125 0.21875q0.390625 0.21875 0.609375 0.609375q0.21875 0.375 0.21875 0.828125q0 0.453125 -0.21875 0.84375q-0.21875 0.375 -0.609375 0.609375q-0.375 0.21875 -0.828125 0.21875zm7.492676 1.546875q-0.71875 0 -1.28125 -0.359375q-0.546875 -0.375 -0.859375 -1.046875q-0.3125 -0.6875 -0.3125 -1.609375q0 -0.921875 0.3125 -1.59375q0.3125 -0.671875 0.859375 -1.03125q0.5625 -0.375 1.296875 -0.375q0.578125 0 0.90625 0.1875q0.328125 0.1875 0.5 0.421875q0.1875 0.234375 0.28125 0.390625l0.078125 0l0 -2.859375l0.875 0l0 7.75l-0.84375 0l0 -0.890625l-0.109375 0q-0.09375 0.15625 -0.28125 0.40625q-0.1875 0.234375 -0.53125 0.421875q-0.328125 0.1875 -0.890625 0.1875zm0.125 -0.796875q0.53125 0 0.90625 -0.28125q0.375 -0.296875 0.5625 -0.796875q0.1875 -0.5 0.1875 -1.15625q0 -0.65625 -0.1875 -1.140625q-0.1875 -0.5 -0.5625 -0.765625q-0.359375 -0.28125 -0.90625 -0.28125q-0.5625 0 -0.9375 0.296875q-0.375 0.296875 -0.5625 0.796875q-0.1875 0.484375 -0.1875 1.09375q0 0.625 0.1875 1.125q0.1875 0.5 0.5625 0.8125q0.375 0.296875 0.9375 0.296875zm5.389984 0.8125q-0.546875 0 -1.0 -0.203125q-0.453125 -0.21875 -0.71875 -0.625q-0.265625 -0.40625 -0.265625 -0.96875q0 -0.5 0.1875 -0.796875q0.203125 -0.3125 0.53125 -0.484375q0.328125 -0.1875 0.71875 -0.28125q0.40625 -0.09375 0.8125 -0.140625q0.53125 -0.0625 0.859375 -0.09375q0.328125 -0.046875 0.484375 -0.125q0.15625 -0.09375 0.15625 -0.3125l0 -0.03125q0 -0.5625 -0.3125 -0.859375q-0.296875 -0.3125 -0.921875 -0.3125q-0.625 0 -1.0 0.28125q-0.359375 0.265625 -0.5 0.59375l-0.859375 -0.3125q0.234375 -0.53125 0.609375 -0.828125q0.390625 -0.296875 0.84375 -0.40625q0.453125 -0.125 0.875 -0.125q0.28125 0 0.640625 0.0625q0.375 0.0625 0.71875 0.28125q0.34375 0.203125 0.5625 0.625q0.234375 0.40625 0.234375 1.09375l0 3.828125l-0.890625 0l0 -0.796875l-0.046875 0q-0.078125 0.1875 -0.296875 0.40625q-0.21875 0.21875 -0.578125 0.375q-0.34375 0.15625 -0.84375 0.15625zm0.140625 -0.8125q0.515625 0 0.875 -0.203125q0.375 -0.203125 0.5625 -0.53125q0.1875 -0.34375 0.1875 -0.703125l0 -0.8125q-0.0625 0.0625 -0.25 0.125q-0.1875 0.046875 -0.4375 0.09375q-0.25 0.03125 -0.484375 0.0625q-0.21875 0.03125 -0.359375 0.046875q-0.359375 0.046875 -0.65625 0.15625q-0.296875 0.09375 -0.484375 0.296875q-0.1875 0.1875 -0.1875 0.53125q0 0.46875 0.34375 0.703125q0.34375 0.234375 0.890625 0.234375zm3.671692 0.671875l0 -5.8125l0.875 0l0 5.8125l-0.875 0zm0.4375 -6.78125q-0.25 0 -0.4375 -0.171875q-0.1875 -0.1875 -0.1875 -0.4375q0 -0.25 0.1875 -0.421875q0.1875 -0.1875 0.4375 -0.1875q0.265625 0 0.453125 0.1875q0.1875 0.171875 0.1875 0.421875q0 0.25 -0.1875 0.4375q-0.1875 0.171875 -0.453125 0.171875zm6.2612 5.359375q-0.453125 0 -0.84375 -0.21875q-0.375 -0.234375 -0.609375 -0.609375q-0.21875 -0.390625 -0.21875 -0.84375q0 -0.453125 0.21875 -0.828125q0.234375 -0.390625 0.609375 -0.609375q0.390625 -0.21875 0.84375 -0.21875q0.453125 0 0.828125 0.21875q0.390625 0.21875 0.609375 0.609375q0.21875 0.375 0.21875 0.828125q0 0.453125 -0.21875 0.84375q-0.21875 0.375 -0.609375 0.609375q-0.375 0.21875 -0.828125 0.21875z" fill-rule="nonzero"/><path fill="#ffffff" d="m123.946 354.30267q-0.875 0 -1.53125 -0.375q-0.640625 -0.375 -0.984375 -1.046875q-0.34375 -0.671875 -0.34375 -1.5625q0 -0.90625 0.34375 -1.578125q0.34375 -0.6875 0.984375 -1.0625q0.65625 -0.375 1.53125 -0.375q0.875 0 1.515625 0.375q0.65625 0.375 1.0 1.0625q0.34375 0.671875 0.34375 1.578125q0 0.890625 -0.34375 1.5625q-0.34375 0.671875 -1.0 1.046875q-0.640625 0.375 -1.515625 0.375zm0 -1.25q0.40625 0 0.671875 -0.21875q0.28125 -0.234375 0.40625 -0.625q0.140625 -0.40625 0.140625 -0.90625q0 -0.515625 -0.140625 -0.90625q-0.125 -0.390625 -0.40625 -0.609375q-0.265625 -0.21875 -0.671875 -0.21875q-0.40625 0 -0.671875 0.21875q-0.265625 0.21875 -0.40625 0.609375q-0.140625 0.390625 -0.140625 0.90625q0 0.5 0.140625 0.90625q0.140625 0.390625 0.40625 0.625q0.265625 0.21875 0.671875 0.21875zm5.035614 -0.53125l0 -1.9375l0.234375 0l1.859375 -2.203125l1.84375 0l-2.5 2.921875l-0.390625 0l-1.046875 1.21875zm-1.46875 1.671875l0 -7.75l1.609375 0l0 7.75l-1.609375 0zm3.625 0l-1.703125 -2.53125l1.078125 -1.140625l2.515625 3.671875l-1.890625 0z" fill-rule="nonzero"/><path fill="#ffffff" d="m138.14012 352.77142q-0.453125 0 -0.84375 -0.21875q-0.375 -0.234375 -0.609375 -0.609375q-0.21875 -0.390625 -0.21875 -0.84375q0 -0.453125 0.21875 -0.828125q0.234375 -0.390625 0.609375 -0.609375q0.390625 -0.21875 0.84375 -0.21875q0.453125 0 0.828125 0.21875q0.390625 0.21875 0.609375 0.609375q0.21875 0.375 0.21875 0.828125q0 0.453125 -0.21875 0.84375q-0.21875 0.375 -0.609375 0.609375q-0.375 0.21875 -0.828125 0.21875zm9.430176 -3.078125l-0.8125 0.21875q-0.109375 -0.296875 -0.390625 -0.5625q-0.28125 -0.28125 -0.859375 -0.28125q-0.53125 0 -0.890625 0.25q-0.34375 0.25 -0.34375 0.625q0 0.328125 0.234375 0.53125q0.25 0.1875 0.765625 0.3125l0.859375 0.21875q0.765625 0.1875 1.140625 0.578125q0.390625 0.375 0.390625 0.984375q0 0.5 -0.28125 0.90625q-0.28125 0.390625 -0.796875 0.625q-0.515625 0.21875 -1.1875 0.21875q-0.890625 0 -1.46875 -0.390625q-0.578125 -0.390625 -0.734375 -1.125l0.84375 -0.21875q0.125 0.46875 0.453125 0.703125q0.34375 0.234375 0.90625 0.234375q0.609375 0 0.984375 -0.265625q0.375 -0.265625 0.375 -0.640625q0 -0.609375 -0.875 -0.8125l-0.953125 -0.234375q-0.8125 -0.1875 -1.1875 -0.578125q-0.375 -0.40625 -0.375 -1.0q0 -0.5 0.28125 -0.875q0.28125 -0.375 0.765625 -0.59375q0.484375 -0.21875 1.09375 -0.21875q0.859375 0 1.34375 0.390625q0.5 0.375 0.71875 1.0zm0.95858765 4.5l0 -5.8125l0.875 0l0 5.8125l-0.875 0zm0.4375 -6.78125q-0.25 0 -0.4375 -0.171875q-0.1875 -0.1875 -0.1875 -0.4375q0 -0.25 0.1875 -0.421875q0.1875 -0.1875 0.4375 -0.1875q0.265625 0 0.453125 0.1875q0.1875 0.171875 0.1875 0.421875q0 0.25 -0.1875 0.4375q-0.1875 0.171875 -0.453125 0.171875zm3.7636414 6.90625q-0.71875 0 -1.28125 -0.359375q-0.546875 -0.375 -0.859375 -1.046875q-0.3125 -0.6875 -0.3125 -1.609375q0 -0.921875 0.3125 -1.59375q0.3125 -0.671875 0.859375 -1.03125q0.5625 -0.375 1.296875 -0.375q0.578125 0 0.90625 0.1875q0.328125 0.1875 0.5 0.421875q0.1875 0.234375 0.28125 0.390625l0.078125 0l0 -2.859375l0.875 0l0 7.75l-0.84375 0l0 -0.890625l-0.109375 0q-0.09375 0.15625 -0.28125 0.40625q-0.1875 0.234375 -0.53125 0.421875q-0.328125 0.1875 -0.890625 0.1875zm0.125 -0.796875q0.53125 0 0.90625 -0.28125q0.375 -0.296875 0.5625 -0.796875q0.1875 -0.5 0.1875 -1.15625q0 -0.65625 -0.1875 -1.140625q-0.1875 -0.5 -0.5625 -0.765625q-0.359375 -0.28125 -0.90625 -0.28125q-0.5625 0 -0.9375 0.296875q-0.375 0.296875 -0.5625 0.796875q-0.1875 0.484375 -0.1875 1.09375q0 0.625 0.1875 1.125q0.1875 0.5 0.5625 0.8125q0.375 0.296875 0.9375 0.296875zm6.108734 0.796875q-0.828125 0 -1.4375 -0.375q-0.609375 -0.375 -0.9375 -1.046875q-0.328125 -0.671875 -0.328125 -1.5625q0 -0.890625 0.3125 -1.578125q0.328125 -0.6875 0.90625 -1.0625q0.59375 -0.390625 1.375 -0.390625q0.453125 0 0.890625 0.15625q0.453125 0.140625 0.8125 0.484375q0.375 0.34375 0.59375 0.90625q0.21875 0.546875 0.21875 1.359375l0 0.375l-4.484375 0l0 -0.765625l4.0 0l-0.40625 0.296875q0 -0.578125 -0.1875 -1.03125q-0.171875 -0.453125 -0.546875 -0.71875q-0.359375 -0.265625 -0.890625 -0.265625q-0.53125 0 -0.921875 0.265625q-0.375 0.265625 -0.578125 0.6875q-0.203125 0.421875 -0.203125 0.90625l0 0.515625q0 0.65625 0.21875 1.109375q0.234375 0.453125 0.640625 0.703125q0.421875 0.234375 0.953125 0.234375q0.359375 0 0.640625 -0.09375q0.28125 -0.109375 0.484375 -0.3125q0.21875 -0.21875 0.328125 -0.515625l0.859375 0.25q-0.125 0.4375 -0.453125 0.765625q-0.3125 0.328125 -0.796875 0.515625q-0.46875 0.1875 -1.0625 0.1875zm5.4295044 1.328125q0.453125 -0.9375 0.734375 -1.71875q0.296875 -0.796875 0.4375 -1.5q0.140625 -0.71875 0.140625 -1.390625q0 -0.75 -0.15625 -1.609375q-0.15625 -0.875 -0.453125 -1.75q-0.296875 -0.890625 -0.703125 -1.703125l0.859375 0q0.40625 0.640625 0.703125 1.515625q0.296875 0.859375 0.46875 1.78125q0.171875 0.921875 0.171875 1.765625q0 1.140625 -0.34375 2.3125q-0.328125 1.171875 -1.0 2.296875l-0.859375 0z" fill-rule="nonzero"/></g></svg>