<svg version="1.1" viewBox="0.0 0.0 288.0 384.0" fill="none" stroke="none" stroke-linecap="square" stroke-miterlimit="10" xmlns:xlink="http://www.w3.org/1999/xlink" xmlns="http://www.w3.org/2000/svg"><clipPath id="g3b18a6c779a_0_3542.0"><path d="m0 0l288.0 0l0 384.0l-288.0 0l0 -384.0z" clip-rule="nonzero"/></clipPath><g clip-path="url(#g3b18a6c779a_0_3542.0)"><path fill="#161d25" d="m0 0l288.0 0l0 384.0l-288.0 0z" fill-rule="evenodd"/><path fill="#2563eb" d="m5.7007875 34.135216l0 0c0 -9.966135 8.079147 -18.045282 18.04528 -18.045282l240.50787 0c4.7858887 0 9.375793 1.9011936 12.759949 5.2853394c3.3841248 3.3841476 5.2853394 7.9740353 5.2853394 12.759943l0 324.2244c0 9.9661255 -8.079163 18.045288 -18.045288 18.045288l-240.50787 0l0 0c-9.966134 0 -18.04528 -8.079163 -18.04528 -18.045288z" fill-rule="evenodd"/><path stroke="#2563eb" stroke-width="4.0" stroke-linejoin="round" stroke-linecap="butt" d="m5.7007875 34.135216l0 0c0 -9.966135 8.079147 -18.045282 18.04528 -18.045282l240.50787 0c4.7858887 0 9.375793 1.9011936 12.759949 5.2853394c3.3841248 3.3841476 5.2853394 7.9740353 5.2853394 12.759943l0 324.2244c0 9.9661255 -8.079163 18.045288 -18.045288 18.045288l-240.50787 0l0 0c-9.966134 0 -18.04528 -8.079163 -18.04528 -18.045288z" fill-rule="evenodd"/><path fill="#0c2969" d="m5.7007875 25.639769l0 0c0 -9.966133 8.079147 -18.04528 18.04528 -18.04528l240.50787 0c4.7858887 0 9.375793 1.9011936 12.759949 5.2853403c3.3841248 3.3841467 5.2853394 7.9740343 5.2853394 12.75994l0 324.2244c0 9.9661255 -8.079163 18.045288 -18.045288 18.045288l-240.50787 0l0 0c-9.966134 0 -18.04528 -8.079163 -18.04528 -18.045288z" fill-rule="evenodd"/><path stroke="#2563eb" stroke-width="4.0" stroke-linejoin="round" stroke-linecap="butt" d="m5.7007875 25.639769l0 0c0 -9.966133 8.079147 -18.04528 18.04528 -18.04528l240.50787 0c4.7858887 0 9.375793 1.9011936 12.759949 5.2853403c3.3841248 3.3841467 5.2853394 7.9740343 5.2853394 12.75994l0 324.2244c0 9.9661255 -8.079163 18.045288 -18.045288 18.045288l-240.50787 0l0 0c-9.966134 0 -18.04528 -8.079163 -18.04528 -18.045288z" fill-rule="evenodd"/><path fill="#2563eb" d="m141.47705 199.85632l0 0c0 -1.704834 1.3820343 -3.0868683 3.0868683 -3.0868683l12.347122 0l0 0c0.81869507 0 1.6038513 0.32522583 2.1827545 0.904129c0.5789032 0.5789032 0.904129 1.3640594 0.904129 2.1827393l0 24.041946c0 1.704834 -1.3820496 3.0868683 -3.0868835 3.0868683l-12.347122 0c-1.704834 0 -3.0868683 -1.3820343 -3.0868683 -3.0868683z" fill-rule="evenodd"/><path fill="#2563eb" d="m146.0447 243.15897l0 0c0 -2.416504 1.9589539 -4.375458 4.3754425 -4.375458l17.501282 0l0 0c1.1604309 0 2.273346 0.46098328 3.0939026 1.2815399c0.82055664 0.82055664 1.2815399 1.9334717 1.2815399 3.0939178l0 18.357574c0 2.416504 -1.9589539 4.375458 -4.3754425 4.375458l-17.501282 0l0 0c-2.4164886 0 -4.3754425 -1.9589539 -4.3754425 -4.375458z" fill-rule="evenodd"/><path fill="#2563eb" d="m138.66989 181.54617l0 0c0 -2.1529999 1.7453461 -3.898346 3.898346 -3.898346l15.592941 0l0 0c1.033905 0 2.025467 0.41070557 2.756546 1.1417999c0.7310791 0.7310791 1.1417999 1.722641 1.1417999 2.756546l0 68.43979c0 2.1529999 -1.7453461 3.8983612 -3.898346 3.8983612l-15.592941 0c-2.1529999 0 -3.898346 -1.7453613 -3.898346 -3.8983612z" fill-rule="evenodd"/><path fill="#2563eb" d="m123.07977 247.94394l0 0c0 -2.4164886 1.9589539 -4.375458 4.37545 -4.375458l17.501274 0l0 0c1.1604309 0 2.273346 0.46098328 3.0939026 1.2815399c0.82055664 0.82055664 1.2815399 1.9334717 1.2815399 3.0939178l0 18.357574c0 2.416504 -1.9589539 4.375458 -4.3754425 4.375458l-17.501274 0l0 0c-2.4164963 0 -4.37545 -1.9589539 -4.37545 -4.375458z" fill-rule="evenodd"/><path fill="#2563eb" d="m149.12001 245.34221l0 0c0 -0.4008789 0.32496643 -0.72584534 0.7258301 -0.72584534l2.9032898 0l0 0c0.19250488 0 0.37713623 0.07647705 0.5132599 0.21260071c0.1361084 0.13612366 0.21258545 0.32073975 0.21258545 0.5132446l0 19.809402c0 0.4008484 -0.32496643 0.7258301 -0.72584534 0.7258301l-2.9032898 0c-0.40086365 0 -0.7258301 -0.3249817 -0.7258301 -0.7258301z" fill-rule="evenodd"/><path fill="#2563eb" d="m126.53252 247.35725l0 0c0 -0.41664124 0.3377533 -0.75439453 0.7543869 -0.75439453l10.626427 0c0.2000885 0 0.39196777 0.07948303 0.53344727 0.22096252c0.14146423 0.14146423 0.22094727 0.33335876 0.22094727 0.533432l0 3.017456c0 0.41664124 -0.3377533 0.75439453 -0.75439453 0.75439453l-10.626427 0l0 0c-0.4166336 0 -0.7543869 -0.3377533 -0.7543869 -0.75439453z" fill-rule="evenodd"/><path fill="#2563eb" d="m152.21643 249.966l0 0c0 -0.5765381 0.46736145 -1.0438995 1.0438995 -1.0438995l5.2030945 0c0.27687073 0 0.5423889 0.10997009 0.7381592 0.30575562c0.19577026 0.19577026 0.30575562 0.46128845 0.30575562 0.7381439l0 4.175522c0 0.5765381 -0.4673767 1.0438995 -1.0439148 1.0438995l-5.2030945 0c-0.5765381 0 -1.0438995 -0.46736145 -1.0438995 -1.0438995z" fill-rule="evenodd"/><path fill="#2563eb" d="m117.115906 157.49948l0 0c0 -6.1211853 4.962204 -11.083389 11.083389 -11.083389l44.3322 0l0 0c2.939499 0 5.758606 1.1677094 7.837143 3.2462463c2.078537 2.0785522 3.2462463 4.897644 3.2462463 7.837143l0 44.3322c0 6.1211853 -4.962204 11.083389 -11.083389 11.083389l-44.3322 0c-6.1211853 0 -11.083389 -4.962204 -11.083389 -11.083389z" fill-rule="evenodd"/><path fill="#2563eb" d="m93.532585 95.09867l0 0c0 -8.384537 6.7970123 -15.181549 15.181549 -15.181549l85.16602 0c4.0263977 0 7.8878937 1.5994797 10.734985 4.4465714c2.8470917 2.8470917 4.4465637 6.70858 4.4465637 10.734978l0 60.724358c0 8.384537 -6.7970123 15.181549 -15.181549 15.181549l-85.16602 0l0 0c-8.384537 0 -15.181549 -6.7970123 -15.181549 -15.181549z" fill-rule="evenodd"/><path fill="#2563eb" d="m166.73325 94.46838l0 0c0 -0.6711197 0.5440521 -1.2151718 1.2151794 -1.2151718l4.86055 0l0 0c0.32229614 0 0.6313782 0.12802887 0.8592682 0.35591888c0.22789001 0.22788239 0.35591125 0.53697205 0.35591125 0.8592529l0 36.22615c0 0.6711273 -0.5440521 1.2151794 -1.2151794 1.2151794l-4.86055 0c-0.6711273 0 -1.2151794 -0.5440521 -1.2151794 -1.2151794z" fill-rule="evenodd"/><path fill="#2563eb" d="m179.16205 94.46838l0 0c0 -0.6711197 0.5440521 -1.2151718 1.2151794 -1.2151718l4.86055 0l0 0c0.32228088 0 0.6313782 0.12802887 0.8592682 0.35591888c0.22787476 0.22788239 0.35591125 0.53697205 0.35591125 0.8592529l0 36.22615c0 0.6711273 -0.5440521 1.2151794 -1.2151794 1.2151794l-4.86055 0c-0.6711273 0 -1.2151794 -0.5440521 -1.2151794 -1.2151794z" fill-rule="evenodd"/><path fill="#2563eb" d="m158.48003 110.01252l0 0c-0.6711273 0 -1.2151794 -0.5440521 -1.2151794 -1.2151794l0 -4.8605576l0 0c0 -0.32228088 0.12802124 -0.63137054 0.35591125 -0.85926056c0.22789001 -0.22789001 0.5369873 -0.35591125 0.8592682 -0.35591125l36.22615 0c0.6711273 0 1.2151794 0.5440521 1.2151794 1.2151718l0 4.8605576c0 0.6711273 -0.5440521 1.2151794 -1.2151794 1.2151794z" fill-rule="evenodd"/><path fill="#2563eb" d="m102.77467 93.92815l0 0c0 -2.1529999 1.7453537 -3.8983536 3.898346 -3.8983536l15.592934 0l0 0c1.033905 0 2.025467 0.41072083 2.7565536 1.1418076c0.7310791 0.7310791 1.1417999 1.722641 1.1417999 2.756546l0 53.882446c0 2.1529999 -1.7453537 3.898346 -3.8983536 3.898346l-15.592934 0c-2.1529922 0 -3.898346 -1.7453461 -3.898346 -3.898346z" fill-rule="evenodd"/><path fill="#2563eb" d="m124.5108 181.22537l0 0c0 -2.1349792 1.7307434 -3.8657227 3.8657227 -3.8657227l18.520721 0c1.0252533 0 2.0085144 0.4072876 2.7334747 1.1322479c0.7249756 0.7249603 1.1322479 1.7082214 1.1322479 2.7334747l0 15.462448c0 2.1349945 -1.7307434 3.865738 -3.8657227 3.865738l-18.520721 0l0 0c-2.1349792 0 -3.8657227 -1.7307434 -3.8657227 -3.865738z" fill-rule="evenodd"/><path fill="#fdf0d9" d="m126.883675 185.26273l0 0c0 -1.704834 1.3820419 -3.0868683 3.086876 -3.0868683l12.347122 0l0 0c0.81869507 0 1.6038513 0.32522583 2.1827545 0.90411377c0.5789032 0.5789032 0.90411377 1.3640594 0.90411377 2.1827545l0 24.041946c0 1.704834 -1.3820343 3.0868683 -3.0868683 3.0868683l-12.347122 0c-1.704834 0 -3.086876 -1.3820343 -3.086876 -3.0868683z" fill-rule="evenodd"/><path fill="#fdf0d9" d="m131.45131 228.56535l0 0c0 -2.4164886 1.9589691 -4.3754425 4.375458 -4.3754425l17.501266 0l0 0c1.1604462 0 2.2733612 0.46098328 3.0939178 1.2815399c0.82055664 0.82055664 1.2815399 1.9334717 1.2815399 3.0939026l0 18.35759c0 2.416504 -1.9589539 4.375458 -4.375458 4.375458l-17.501266 0l0 0c-2.4164886 0 -4.375458 -1.9589539 -4.375458 -4.375458z" fill-rule="evenodd"/><path fill="#fdf0d9" d="m124.07652 166.95258l0 0c0 -2.1529999 1.7453461 -3.8983612 3.898346 -3.8983612l15.592941 0l0 0c1.033905 0 2.025467 0.41072083 2.756546 1.1417999c0.7310791 0.73109436 1.1417999 1.722641 1.1417999 2.7565613l0 68.43979c0 2.1529999 -1.7453613 3.898346 -3.898346 3.898346l-15.592941 0c-2.1529999 0 -3.898346 -1.7453461 -3.898346 -3.898346z" fill-rule="evenodd"/><path fill="#fdf0d9" d="m108.4864 233.35034l0 0c0 -2.416504 1.9589615 -4.375458 4.37545 -4.375458l17.501282 0l0 0c1.1604309 0 2.273346 0.46098328 3.0939026 1.2815399c0.82055664 0.82055664 1.2815399 1.9334717 1.2815399 3.0939178l0 18.357574c0 2.416504 -1.9589539 4.375458 -4.3754425 4.375458l-17.501282 0l0 0c-2.4164886 0 -4.37545 -1.9589539 -4.37545 -4.375458z" fill-rule="evenodd"/><path fill="#f1dfc6" d="m134.52663 230.74861l0 0c0 -0.4008789 0.3249817 -0.72584534 0.72584534 -0.72584534l2.9032898 0l0 0c0.19250488 0 0.37712097 0.07647705 0.5132446 0.21258545c0.13612366 0.13612366 0.21260071 0.320755 0.21260071 0.5132599l0 19.809387c0 0.40086365 -0.32496643 0.72584534 -0.72584534 0.72584534l-2.9032898 0c-0.40086365 0 -0.72584534 -0.3249817 -0.72584534 -0.72584534z" fill-rule="evenodd"/><path fill="#fff8eb" d="m111.93915 232.76364l0 0c0 -0.41662598 0.33774567 -0.7543793 0.7543869 -0.7543793l10.626427 0c0.20008087 0 0.39196014 0.07948303 0.533432 0.22094727c0.14147949 0.14147949 0.22096252 0.33335876 0.22096252 0.533432l0 3.0174713c0 0.41664124 -0.3377533 0.7543793 -0.75439453 0.7543793l-10.626427 0l0 0c-0.41664124 0 -0.7543869 -0.33773804 -0.7543869 -0.7543793z" fill-rule="evenodd"/><path fill="#f1dfc6" d="m137.62305 235.3724l0 0c0 -0.5765381 0.4673767 -1.0439148 1.0439148 -1.0439148l5.2030945 0c0.27685547 0 0.5423889 0.10998535 0.7381592 0.30575562c0.19577026 0.19577026 0.30574036 0.4613037 0.30574036 0.7381592l0 4.1755066c0 0.5765381 -0.46736145 1.0439148 -1.0438995 1.0439148l-5.2030945 0c-0.5765381 0 -1.0439148 -0.4673767 -1.0439148 -1.0439148z" fill-rule="evenodd"/><path fill="#9a4600" d="m102.52254 142.90588l0 0c0 -6.1211853 4.9621964 -11.083389 11.083382 -11.083389l44.332207 0l0 0c2.939499 0 5.758606 1.1677094 7.837143 3.2462463c2.078537 2.078537 3.2462463 4.897644 3.2462463 7.837143l0 44.3322c0 6.1211853 -4.962204 11.083389 -11.083389 11.083389l-44.332207 0c-6.1211853 0 -11.083382 -4.962204 -11.083382 -11.083389z" fill-rule="evenodd"/><path fill="#c16a22" d="m78.93922 80.505066l0 0c0 -8.384537 6.7970047 -15.181541 15.181541 -15.181541l85.16603 0c4.0263977 0 7.8878784 1.5994797 10.73497 4.4465714c2.8470917 2.8470917 4.446579 6.7085724 4.446579 10.73497l0 60.724365c0 8.3845215 -6.7970123 15.181534 -15.181549 15.181534l-85.16603 0l0 0c-8.384537 0 -15.181541 -6.7970123 -15.181541 -15.181534z" fill-rule="evenodd"/><path fill="#9a4600" d="m152.13988 79.87479l0 0c0 -0.6711273 0.5440521 -1.2151794 1.2151642 -1.2151794l4.860565 0l0 0c0.32228088 0 0.6313629 0.12802887 0.8592529 0.35591888c0.22789001 0.22789001 0.3559265 0.53697205 0.3559265 0.85926056l0 36.22615c0 0.6711197 -0.5440521 1.2151794 -1.2151794 1.2151794l-4.860565 0c-0.67111206 0 -1.2151642 -0.54405975 -1.2151642 -1.2151794z" fill-rule="evenodd"/><path fill="#9a4600" d="m164.56866 79.87479l0 0c0 -0.6711273 0.5440674 -1.2151794 1.2151794 -1.2151794l4.860565 0l0 0c0.32228088 0 0.6313629 0.12802887 0.8592529 0.35591888c0.22789001 0.22789001 0.3559265 0.53697205 0.3559265 0.85926056l0 36.22615c0 0.6711197 -0.5440521 1.2151794 -1.2151794 1.2151794l-4.860565 0c-0.67111206 0 -1.2151794 -0.54405975 -1.2151794 -1.2151794z" fill-rule="evenodd"/><path fill="#9a4600" d="m143.88666 95.418915l0 0c-0.6711273 0 -1.2151794 -0.5440521 -1.2151794 -1.2151718l0 -4.8605576l0 0c0 -0.3222885 0.12802124 -0.63137054 0.35591125 -0.85926056c0.22789001 -0.22789001 0.53697205 -0.35591888 0.8592682 -0.35591888l36.22615 0c0.67111206 0 1.2151642 0.5440521 1.2151642 1.2151794l0 4.8605576c0 0.6711197 -0.5440521 1.2151718 -1.2151642 1.2151718z" fill-rule="evenodd"/><path fill="#e18437" d="m88.1813 79.33454l0 0c0 -2.1529922 1.7453537 -3.898346 3.8983536 -3.898346l15.592934 0l0 0c1.033905 0 2.025467 0.41072083 2.756546 1.1417999c0.73108673 0.7310791 1.1417999 1.722641 1.1417999 2.756546l0 53.882454c0 2.1529846 -1.7453461 3.898346 -3.898346 3.898346l-15.592934 0c-2.1529999 0 -3.8983536 -1.7453613 -3.8983536 -3.898346z" fill-rule="evenodd"/><path fill="#c16a22" d="m109.91743 166.63177l0 0c0 -2.1349792 1.7307434 -3.8657227 3.8657303 -3.8657227l18.520706 0c1.0252686 0 2.0085297 0.40727234 2.73349 1.1322479c0.7249603 0.7249603 1.1322479 1.7082214 1.1322479 2.7334747l0 15.462448c0 2.1349792 -1.7307434 3.8657227 -3.865738 3.8657227l-18.520706 0l0 0c-2.1349869 0 -3.8657303 -1.7307434 -3.8657303 -3.8657227z" fill-rule="evenodd"/><path fill="#000000" fill-opacity="0.0" d="m21.700787 315.7533l266.29922 0l0 38.771637l-266.29922 0z" fill-rule="evenodd"/><path fill="#ffffff" d="m45.15391 335.08203q-0.1875 1.59375 -1.09375 2.78125q-0.90625 1.1875 -2.390625 1.84375q-1.484375 0.65625 -3.40625 0.65625q-2.09375 0 -3.65625 -0.78125q-1.5625 -0.78125 -2.4375 -2.1875q-0.875 -1.40625 -0.875 -3.28125q0 -1.875 0.875 -3.28125q0.875 -1.40625 2.4375 -2.1875q1.5625 -0.78125 3.65625 -0.78125q1.921875 0 3.40625 0.65625q1.484375 0.65625 2.390625 1.84375q0.90625 1.1875 1.09375 2.78125l-3.328125 0q-0.171875 -0.78125 -0.640625 -1.3125q-0.453125 -0.53125 -1.203125 -0.8125q-0.734375 -0.296875 -1.71875 -0.296875q-1.109375 0 -1.9375 0.40625q-0.8125 0.40625 -1.25 1.171875q-0.421875 0.75 -0.421875 1.8125q0 1.0625 0.421875 1.828125q0.4375 0.75 1.25 1.15625q0.828125 0.40625 1.9375 0.40625q0.984375 0 1.71875 -0.265625q0.75 -0.28125 1.203125 -0.8125q0.46875 -0.546875 0.640625 -1.34375l3.328125 0zm1.3335266 -7.28125l3.28125 0l0 12.3125l-3.28125 0l0 -12.3125zm6.625 2.90625q1.328125 0 2.25 0.53125q0.921875 0.515625 1.421875 1.484375q0.5 0.953125 0.5 2.265625l0 5.125l-3.28125 0l0 -4.640625q0 -1.015625 -0.53125 -1.5625q-0.515625 -0.546875 -1.484375 -0.546875q-0.671875 0 -1.1875 0.296875q-0.5 0.28125 -0.765625 0.8125q-0.265625 0.515625 -0.265625 1.234375l-1.015625 -0.515625q0.1875 -1.46875 0.8125 -2.46875q0.625 -1.0 1.546875 -1.5q0.921875 -0.515625 2.0 -0.515625zm5.83902 0.125l1.65625 0.328125l1.625 -0.328125l0 9.28125l-3.28125 0l0 -9.28125zm1.640625 -0.75q-0.84375 0 -1.375 -0.421875q-0.53125 -0.421875 -0.53125 -1.15625q0 -0.734375 0.53125 -1.15625q0.53125 -0.4375 1.375 -0.4375q0.875 0 1.390625 0.4375q0.53125 0.421875 0.53125 1.15625q0 0.734375 -0.53125 1.15625q-0.515625 0.421875 -1.390625 0.421875zm14.337635 6.171875q-0.140625 1.234375 -0.90625 2.171875q-0.765625 0.921875 -1.984375 1.4375q-1.21875 0.5 -2.75 0.5q-1.671875 0 -2.953125 -0.59375q-1.28125 -0.609375 -2.0 -1.703125q-0.7187538 -1.09375 -0.7187538 -2.515625q0 -1.4375 0.7187538 -2.515625q0.71875 -1.09375 2.0 -1.703125q1.28125 -0.625 2.953125 -0.625q1.53125 0 2.75 0.515625q1.21875 0.515625 1.984375 1.4375q0.765625 0.921875 0.90625 2.171875l-3.25 0q-0.171875 -0.8125 -0.8125 -1.25q-0.640625 -0.4375 -1.578125 -0.4375q-0.71875 0 -1.25 0.28125q-0.53125 0.265625 -0.828125 0.8125q-0.296875 0.53125 -0.296875 1.3125q0 0.765625 0.296875 1.3125q0.296875 0.53125 0.828125 0.8125q0.53125 0.28125 1.25 0.28125q0.9375 0 1.578125 -0.46875q0.65625 -0.46875 0.8125 -1.234375l3.25 0zm4.567032 1.25l-0.890625 -0.296875l5.0625 -6.234375l3.4375 0l-7.953125 9.140625l-2.9375 0l0 -12.3125l3.28125 0l0 9.703125zm1.5625 -1.859375l2.453125 -1.71875l3.828125 6.1875l-3.671875 0l-2.609375 -4.46875zm11.827652 4.71875q-1.65625 0 -2.96875 -0.59375q-1.296875 -0.609375 -2.046875 -1.703125q-0.75 -1.109375 -0.75 -2.5625q0 -1.421875 0.71875 -2.5q0.71875 -1.078125 1.96875 -1.6875q1.265625 -0.609375 2.84375 -0.609375q1.640625 0 2.796875 0.71875q1.171875 0.703125 1.796875 2.0q0.640625 1.296875 0.640625 3.0625l-8.125 0l0 -1.96875l6.28125 0l-1.0625 0.6875q-0.078125 -0.703125 -0.359375 -1.1875q-0.28125 -0.5 -0.765625 -0.75q-0.46875 -0.265625 -1.125 -0.265625q-0.71875 0 -1.234375 0.296875q-0.5 0.28125 -0.796875 0.796875q-0.28125 0.5 -0.28125 1.171875q0 0.859375 0.390625 1.46875q0.390625 0.59375 1.140625 0.921875q0.765625 0.3125 1.875 0.3125q1.0 0 2.0 -0.265625q1.0 -0.265625 1.828125 -0.75l0 2.078125q-0.953125 0.640625 -2.171875 0.984375q-1.203125 0.34375 -2.59375 0.34375zm5.9147644 -9.390625l3.28125 0l0.59375 3.65625l0 5.484375l-3.265625 0l0 -5.984375l-0.609375 -3.15625zm7.234375 -0.265625q1.3125 0 2.234375 0.53125q0.921875 0.515625 1.40625 1.484375q0.5 0.953125 0.5 2.265625l0 5.125l-3.265625 0l0 -4.640625q0 -1.015625 -0.53125 -1.5625q-0.515625 -0.546875 -1.484375 -0.546875q-0.671875 0 -1.1875 0.296875q-0.5 0.28125 -0.765625 0.8125q-0.265625 0.515625 -0.265625 1.234375l-1.015625 -0.515625q0.1875 -1.46875 0.8125 -2.46875q0.625 -1.0 1.53125 -1.5q0.921875 -0.515625 2.03125 -0.515625z" fill-rule="nonzero"/><path fill="#ffffff" d="m119.34024 336.95703q0 -0.84375 0.171875 -1.765625q0.171875 -0.921875 0.46875 -1.78125q0.3125 -0.875 0.703125 -1.515625l0.859375 0q-0.40625 0.8125 -0.703125 1.703125q-0.296875 0.875 -0.453125 1.75q-0.15625 0.859375 -0.15625 1.609375q0 0.671875 0.140625 1.390625q0.140625 0.703125 0.421875 1.5q0.296875 0.78125 0.75 1.71875l-0.859375 0q-0.671875 -1.125 -1.015625 -2.296875q-0.328125 -1.171875 -0.328125 -2.3125z" fill-rule="nonzero"/><path fill="#ffffff" d="m127.38141 340.22266q-0.890625 0 -1.53125 -0.375q-0.640625 -0.390625 -0.984375 -1.0625q-0.34375 -0.671875 -0.34375 -1.546875q0 -0.90625 0.34375 -1.578125q0.34375 -0.671875 0.984375 -1.046875q0.640625 -0.390625 1.53125 -0.390625q0.75 0 1.3125 0.28125q0.578125 0.265625 0.90625 0.765625q0.34375 0.5 0.375 1.1875l-1.515625 0q-0.046875 -0.296875 -0.1875 -0.515625q-0.125 -0.21875 -0.359375 -0.328125q-0.21875 -0.125 -0.515625 -0.125q-0.375 0 -0.65625 0.203125q-0.265625 0.1875 -0.421875 0.578125q-0.15625 0.390625 -0.15625 0.9375q0 0.546875 0.15625 0.953125q0.15625 0.390625 0.421875 0.609375q0.28125 0.203125 0.65625 0.203125q0.421875 0 0.703125 -0.265625q0.28125 -0.265625 0.359375 -0.734375l1.515625 0q-0.03125 0.671875 -0.359375 1.1875q-0.328125 0.5 -0.890625 0.78125q-0.5625 0.28125 -1.34375 0.28125zm4.8952637 -3.46875l0 3.359375l-1.609375 0l0 -7.75l1.5625 0l0 2.96875l0.078125 0q0.1875 -0.515625 0.625 -0.8125q0.4375 -0.296875 1.109375 -0.296875q0.59375 0 1.046875 0.265625q0.453125 0.265625 0.703125 0.75q0.265625 0.484375 0.265625 1.171875l0 3.703125l-1.625 0l0 -3.40625q0 -0.546875 -0.28125 -0.84375q-0.265625 -0.296875 -0.75 -0.296875q-0.34375 0 -0.59375 0.140625q-0.234375 0.140625 -0.390625 0.40625q-0.140625 0.265625 -0.140625 0.640625zm4.7177734 3.359375l0 -5.8125l1.609375 0l0 5.8125l-1.609375 0zm0.8125 -6.5625q-0.359375 0 -0.625 -0.234375q-0.25 -0.25 -0.25 -0.578125q0 -0.34375 0.25 -0.578125q0.265625 -0.234375 0.625 -0.234375q0.359375 0 0.609375 0.234375q0.265625 0.234375 0.265625 0.578125q0 0.328125 -0.265625 0.578125q-0.25 0.234375 -0.609375 0.234375z" fill-rule="nonzero"/><path fill="#ffffff" d="m144.32805 338.6914q-0.453125 0 -0.84375 -0.21875q-0.375 -0.234375 -0.609375 -0.609375q-0.21875 -0.390625 -0.21875 -0.84375q0 -0.453125 0.21875 -0.828125q0.234375 -0.390625 0.609375 -0.609375q0.390625 -0.21875 0.84375 -0.21875q0.453125 0 0.828125 0.21875q0.390625 0.21875 0.609375 0.609375q0.21875 0.375 0.21875 0.828125q0 0.453125 -0.21875 0.84375q-0.21875 0.375 -0.609375 0.609375q-0.375 0.21875 -0.828125 0.21875zm6.148926 -0.703125l-0.015625 -1.09375l0.1875 0l2.53125 -2.59375l1.109375 0l-2.703125 2.75l-0.09375 0l-1.015625 0.9375zm-0.828125 2.125l0 -7.75l0.875 0l0 7.75l-0.875 0zm3.671875 0l-2.265625 -2.875l0.640625 -0.625l2.78125 3.5l-1.15625 0zm2.5000305 -3.5l0 3.5l-0.875 0l0 -5.8125l0.84375 0l0 0.90625l0.09375 0q0.203125 -0.4375 0.609375 -0.703125q0.421875 -0.28125 1.078125 -0.28125q0.59375 0 1.03125 0.25q0.4375 0.234375 0.6875 0.71875q0.25 0.484375 0.25 1.234375l0 3.6875l-0.890625 0l0 -3.625q0 -0.6875 -0.359375 -1.078125q-0.359375 -0.390625 -0.96875 -0.390625q-0.421875 0 -0.765625 0.1875q-0.34375 0.1875 -0.546875 0.546875q-0.1875 0.359375 -0.1875 0.859375zm7.0388184 4.953125q0.453125 -0.9375 0.734375 -1.71875q0.296875 -0.796875 0.4375 -1.5q0.140625 -0.71875 0.140625 -1.390625q0 -0.75 -0.15625 -1.609375q-0.15625 -0.875 -0.453125 -1.75q-0.296875 -0.890625 -0.703125 -1.703125l0.859375 0q0.40625 0.640625 0.703125 1.515625q0.296875 0.859375 0.46875 1.78125q0.171875 0.921875 0.171875 1.765625q0 1.140625 -0.34375 2.3125q-0.328125 1.171875 -1.0 2.296875l-0.859375 0z" fill-rule="nonzero"/></g></svg>