<svg version="1.1" viewBox="0.0 0.0 288.0 384.0" fill="none" stroke="none" stroke-linecap="square" stroke-miterlimit="10" xmlns:xlink="http://www.w3.org/1999/xlink" xmlns="http://www.w3.org/2000/svg"><clipPath id="g3b18a6c779a_0_467.0"><path d="m0 0l288.0 0l0 384.0l-288.0 0l0 -384.0z" clip-rule="nonzero"/></clipPath><g clip-path="url(#g3b18a6c779a_0_467.0)"><path fill="#161d25" d="m0 0l288.0 0l0 384.0l-288.0 0z" fill-rule="evenodd"/><path fill="#2563eb" d="m5.7007875 34.135216l0 0c0 -9.966135 8.079147 -18.045282 18.04528 -18.045282l240.50787 0c4.7858887 0 9.375793 1.9011936 12.759949 5.2853394c3.3841248 3.3841476 5.2853394 7.9740353 5.2853394 12.759943l0 324.2244c0 9.9661255 -8.079163 18.045288 -18.045288 18.045288l-240.50787 0l0 0c-9.966134 0 -18.04528 -8.079163 -18.04528 -18.045288z" fill-rule="evenodd"/><path stroke="#2563eb" stroke-width="4.0" stroke-linejoin="round" stroke-linecap="butt" d="m5.7007875 34.135216l0 0c0 -9.966135 8.079147 -18.045282 18.04528 -18.045282l240.50787 0c4.7858887 0 9.375793 1.9011936 12.759949 5.2853394c3.3841248 3.3841476 5.2853394 7.9740353 5.2853394 12.759943l0 324.2244c0 9.9661255 -8.079163 18.045288 -18.045288 18.045288l-240.50787 0l0 0c-9.966134 0 -18.04528 -8.079163 -18.04528 -18.045288z" fill-rule="evenodd"/><path fill="#0c2969" d="m5.7007875 25.639769l0 0c0 -9.966133 8.079147 -18.04528 18.04528 -18.04528l240.50787 0c4.7858887 0 9.375793 1.9011936 12.759949 5.2853403c3.3841248 3.3841467 5.2853394 7.9740343 5.2853394 12.75994l0 324.2244c0 9.9661255 -8.079163 18.045288 -18.045288 18.045288l-240.50787 0l0 0c-9.966134 0 -18.04528 -8.079163 -18.04528 -18.045288z" fill-rule="evenodd"/><path stroke="#2563eb" stroke-width="4.0" stroke-linejoin="round" stroke-linecap="butt" d="m5.7007875 25.639769l0 0c0 -9.966133 8.079147 -18.04528 18.04528 -18.04528l240.50787 0c4.7858887 0 9.375793 1.9011936 12.759949 5.2853403c3.3841248 3.3841467 5.2853394 7.9740343 5.2853394 12.75994l0 324.2244c0 9.9661255 -8.079163 18.045288 -18.045288 18.045288l-240.50787 0l0 0c-9.966134 0 -18.04528 -8.079163 -18.04528 -18.045288z" fill-rule="evenodd"/><path fill="#000000" fill-opacity="0.0" d="m21.700787 315.7533l266.29922 0l0 38.771637l-266.29922 0z" fill-rule="evenodd"/><path fill="#ffffff" d="m45.15391 335.08203q-0.1875 1.59375 -1.09375 2.78125q-0.90625 1.1875 -2.390625 1.84375q-1.484375 0.65625 -3.40625 0.65625q-2.09375 0 -3.65625 -0.78125q-1.5625 -0.78125 -2.4375 -2.1875q-0.875 -1.40625 -0.875 -3.28125q0 -1.875 0.875 -3.28125q0.875 -1.40625 2.4375 -2.1875q1.5625 -0.78125 3.65625 -0.78125q1.921875 0 3.40625 0.65625q1.484375 0.65625 2.390625 1.84375q0.90625 1.1875 1.09375 2.78125l-3.328125 0q-0.171875 -0.78125 -0.640625 -1.3125q-0.453125 -0.53125 -1.203125 -0.8125q-0.734375 -0.296875 -1.71875 -0.296875q-1.109375 0 -1.9375 0.40625q-0.8125 0.40625 -1.25 1.171875q-0.421875 0.75 -0.421875 1.8125q0 1.0625 0.421875 1.828125q0.4375 0.75 1.25 1.15625q0.828125 0.40625 1.9375 0.40625q0.984375 0 1.71875 -0.265625q0.75 -0.28125 1.203125 -0.8125q0.46875 -0.546875 0.640625 -1.34375l3.328125 0zm6.7866516 5.28125q-1.765625 0 -3.078125 -0.59375q-1.3125 -0.59375 -2.046875 -1.6875q-0.734375 -1.109375 -0.734375 -2.53125q0 -1.453125 0.734375 -2.53125q0.734375 -1.09375 2.046875 -1.703125q1.3125 -0.609375 3.078125 -0.609375q1.734375 0 3.046875 0.609375q1.328125 0.609375 2.0625 1.703125q0.734375 1.078125 0.734375 2.53125q0 1.421875 -0.734375 2.53125q-0.734375 1.09375 -2.0625 1.6875q-1.3125 0.59375 -3.046875 0.59375zm0 -2.40625q0.796875 0 1.359375 -0.28125q0.5625 -0.296875 0.859375 -0.84375q0.3125 -0.546875 0.3125 -1.28125q0 -0.765625 -0.3125 -1.296875q-0.296875 -0.546875 -0.859375 -0.828125q-0.5625 -0.28125 -1.359375 -0.28125q-0.8125 0 -1.390625 0.28125q-0.5625 0.28125 -0.875 0.828125q-0.296875 0.53125 -0.296875 1.28125q0 0.75 0.296875 1.296875q0.3125 0.546875 0.875 0.84375q0.578125 0.28125 1.390625 0.28125zm13.513905 -7.984375q-0.953125 0 -1.359375 0.34375q-0.4062538 0.328125 -0.4062538 1.078125l0 8.71875l-3.28125 0l0 -8.4375q0 -1.328125 0.53125 -2.25q0.53125 -0.921875 1.5625 -1.40625q1.03125 -0.484375 2.5625038 -0.484375q0.609375 0 1.109375 0.09375q0.515625 0.09375 1.0 0.28125l0 2.390625q-0.390625 -0.171875 -0.8125 -0.25q-0.421875 -0.078125 -0.90625 -0.078125zm-6.890629 4.171875l0 -2.421875l8.484379 0l0 2.421875l-8.484379 0zm14.765629 -4.171875q-0.953125 0 -1.375 0.34375q-0.40625 0.328125 -0.40625 1.078125l0 8.71875l-3.265625 0l0 -8.4375q0 -1.328125 0.53125 -2.25q0.53125 -0.921875 1.5625 -1.40625q1.03125 -0.484375 2.546875 -0.484375q0.625 0 1.125 0.09375q0.5 0.09375 1.0 0.28125l0 2.390625q-0.390625 -0.171875 -0.828125 -0.25q-0.421875 -0.078125 -0.890625 -0.078125zm-6.90625 4.171875l0 -2.421875l8.5 0l0 2.421875l-8.5 0zm14.703659 6.21875q-1.65625 0 -2.96875 -0.59375q-1.296875 -0.609375 -2.046875 -1.703125q-0.75 -1.109375 -0.75 -2.5625q0 -1.421875 0.71875 -2.5q0.71875 -1.078125 1.96875 -1.6875q1.265625 -0.609375 2.84375 -0.609375q1.640625 0 2.796875 0.71875q1.171875 0.703125 1.796875 2.0q0.640625 1.296875 0.640625 3.0625l-8.125 0l0 -1.96875l6.28125 0l-1.0625 0.6875q-0.078125 -0.703125 -0.359375 -1.1875q-0.28125 -0.5 -0.765625 -0.75q-0.46875 -0.265625 -1.125 -0.265625q-0.71875 0 -1.234375 0.296875q-0.5 0.28125 -0.796875 0.796875q-0.28125 0.5 -0.28125 1.171875q0 0.859375 0.390625 1.46875q0.390625 0.59375 1.140625 0.921875q0.765625 0.3125 1.875 0.3125q1.0 0 2.0 -0.265625q1.0 -0.265625 1.828125 -0.75l0 2.078125q-0.953125 0.640625 -2.171875 0.984375q-1.203125 0.34375 -2.59375 0.34375zm11.744019 0q-1.65625 0 -2.96875 -0.59375q-1.296875 -0.609375 -2.046875 -1.703125q-0.75 -1.109375 -0.75 -2.5625q0 -1.421875 0.71875 -2.5q0.71875 -1.078125 1.96875 -1.6875q1.265625 -0.609375 2.84375 -0.609375q1.640625 0 2.796875 0.71875q1.171875 0.703125 1.796875 2.0q0.640625 1.296875 0.640625 3.0625l-8.125 0l0 -1.96875l6.28125 0l-1.0625 0.6875q-0.078125 -0.703125 -0.359375 -1.1875q-0.28125 -0.5 -0.765625 -0.75q-0.46875 -0.265625 -1.125 -0.265625q-0.71875 0 -1.234375 0.296875q-0.5 0.28125 -0.796875 0.796875q-0.28125 0.5 -0.28125 1.171875q0 0.859375 0.390625 1.46875q0.390625 0.59375 1.140625 0.921875q0.765625 0.3125 1.875 0.3125q1.0 0 2.0 -0.265625q1.0 -0.265625 1.828125 -0.75l0 2.078125q-0.953125 0.640625 -2.171875 0.984375q-1.203125 0.34375 -2.59375 0.34375z" fill-rule="nonzero"/><path fill="#ffffff" d="m106.748215 336.95703q0 -0.84375 0.171875 -1.765625q0.171875 -0.921875 0.46875 -1.78125q0.3125 -0.875 0.703125 -1.515625l0.859375 0q-0.40625 0.8125 -0.703125 1.703125q-0.296875 0.875 -0.453125 1.75q-0.15625 0.859375 -0.15625 1.609375q0 0.671875 0.140625 1.390625q0.140625 0.703125 0.421875 1.5q0.296875 0.78125 0.75 1.71875l-0.859375 0q-0.671875 -1.125 -1.015625 -2.296875q-0.328125 -1.171875 -0.328125 -2.3125z" fill-rule="nonzero"/><path fill="#ffffff" d="m113.63313 338.4414l0 -1.9375l0.234375 0l1.859375 -2.203125l1.84375 0l-2.5 2.921875l-0.390625 0l-1.046875 1.21875zm-1.46875 1.671875l0 -7.75l1.609375 0l0 7.75l-1.609375 0zm3.625 0l-1.703125 -2.53125l1.078125 -1.140625l2.515625 3.671875l-1.890625 0zm4.6088715 0.109375q-0.875 0 -1.53125 -0.375q-0.640625 -0.375 -0.984375 -1.046875q-0.34375 -0.671875 -0.34375 -1.5625q0 -0.90625 0.34375 -1.578125q0.34375 -0.6875 0.984375 -1.0625q0.65625 -0.375 1.53125 -0.375q0.875 0 1.515625 0.375q0.65625 0.375 1.0 1.0625q0.34375 0.671875 0.34375 1.578125q0 0.890625 -0.34375 1.5625q-0.34375 0.671875 -1.0 1.046875q-0.640625 0.375 -1.515625 0.375zm0 -1.25q0.40625 0 0.671875 -0.21875q0.28125 -0.234375 0.40625 -0.625q0.140625 -0.40625 0.140625 -0.90625q0 -0.515625 -0.140625 -0.90625q-0.125 -0.390625 -0.40625 -0.609375q-0.265625 -0.21875 -0.671875 -0.21875q-0.40625 0 -0.671875 0.21875q-0.265625 0.21875 -0.40625 0.609375q-0.140625 0.390625 -0.140625 0.90625q0 0.5 0.140625 0.90625q0.140625 0.390625 0.40625 0.625q0.265625 0.21875 0.671875 0.21875z" fill-rule="nonzero"/><path fill="#ffffff" d="m128.74393 338.6914q-0.453125 0 -0.84375 -0.21875q-0.375 -0.234375 -0.609375 -0.609375q-0.21875 -0.390625 -0.21875 -0.84375q0 -0.453125 0.21875 -0.828125q0.234375 -0.390625 0.609375 -0.609375q0.390625 -0.21875 0.84375 -0.21875q0.453125 0 0.828125 0.21875q0.390625 0.21875 0.609375 0.609375q0.21875 0.375 0.21875 0.828125q0 0.453125 -0.21875 0.84375q-0.21875 0.375 -0.609375 0.609375q-0.375 0.21875 -0.828125 0.21875zm7.898926 -4.390625l0 0.75l-3.140625 0l0 -0.75l3.140625 0zm-2.203125 5.8125l0 -6.625q0 -0.5 0.234375 -0.828125q0.25 -0.328125 0.625 -0.484375q0.375 -0.171875 0.78125 -0.171875q0.328125 0 0.53125 0.0625q0.21875 0.046875 0.3125 0.078125l-0.25 0.78125q-0.078125 -0.03125 -0.203125 -0.0625q-0.109375 -0.03125 -0.296875 -0.03125q-0.4375 0 -0.640625 0.234375q-0.203125 0.21875 -0.203125 0.640625l0 6.40625l-0.890625 0zm5.1477814 0.125q-0.828125 0 -1.4375 -0.375q-0.609375 -0.375 -0.9375 -1.046875q-0.328125 -0.671875 -0.328125 -1.5625q0 -0.890625 0.3125 -1.578125q0.328125 -0.6875 0.90625 -1.0625q0.59375 -0.390625 1.375 -0.390625q0.453125 0 0.890625 0.15625q0.453125 0.140625 0.8125 0.484375q0.375 0.34375 0.59375 0.90625q0.21875 0.546875 0.21875 1.359375l0 0.375l-4.484375 0l0 -0.765625l4.0 0l-0.40625 0.296875q0 -0.578125 -0.1875 -1.03125q-0.171875 -0.453125 -0.546875 -0.71875q-0.359375 -0.265625 -0.890625 -0.265625q-0.53125 0 -0.921875 0.265625q-0.375 0.265625 -0.578125 0.6875q-0.203125 0.421875 -0.203125 0.90625l0 0.515625q0 0.65625 0.21875 1.109375q0.234375 0.453125 0.640625 0.703125q0.421875 0.234375 0.953125 0.234375q0.359375 0 0.640625 -0.09375q0.28125 -0.109375 0.484375 -0.3125q0.21875 -0.21875 0.328125 -0.515625l0.859375 0.25q-0.125 0.4375 -0.453125 0.765625q-0.3125 0.328125 -0.796875 0.515625q-0.46875 0.1875 -1.0625 0.1875zm5.681946 0q-0.828125 0 -1.4375 -0.375q-0.609375 -0.375 -0.9375 -1.046875q-0.328125 -0.671875 -0.328125 -1.5625q0 -0.890625 0.3125 -1.578125q0.328125 -0.6875 0.90625 -1.0625q0.59375 -0.390625 1.375 -0.390625q0.453125 0 0.890625 0.15625q0.453125 0.140625 0.8125 0.484375q0.375 0.34375 0.59375 0.90625q0.21875 0.546875 0.21875 1.359375l0 0.375l-4.484375 0l0 -0.765625l4.0 0l-0.40625 0.296875q0 -0.578125 -0.1875 -1.03125q-0.171875 -0.453125 -0.546875 -0.71875q-0.359375 -0.265625 -0.890625 -0.265625q-0.53125 0 -0.921875 0.265625q-0.375 0.265625 -0.578125 0.6875q-0.203125 0.421875 -0.203125 0.90625l0 0.515625q0 0.65625 0.21875 1.109375q0.234375 0.453125 0.640625 0.703125q0.421875 0.234375 0.953125 0.234375q0.359375 0 0.640625 -0.09375q0.28125 -0.109375 0.484375 -0.3125q0.21875 -0.21875 0.328125 -0.515625l0.859375 0.25q-0.125 0.4375 -0.453125 0.765625q-0.3125 0.328125 -0.796875 0.515625q-0.46875 0.1875 -1.0625 0.1875z" fill-rule="nonzero"/><path fill="#ffffff" d="m150.32433 341.5664q0.453125 -0.9375 0.734375 -1.71875q0.296875 -0.796875 0.4375 -1.5q0.140625 -0.71875 0.140625 -1.390625q0 -0.75 -0.15625 -1.609375q-0.15625 -0.875 -0.453125 -1.75q-0.296875 -0.890625 -0.703125 -1.703125l0.859375 0q0.40625 0.640625 0.703125 1.515625q0.296875 0.859375 0.46875 1.78125q0.171875 0.921875 0.171875 1.765625q0 1.140625 -0.34375 2.3125q-0.328125 1.171875 -1.0 2.296875l-0.859375 0z" fill-rule="nonzero"/><path fill="#2563eb" d="m106.27768 196.21065l0 0c0 -7.04628 5.7121277 -12.758392 12.758392 -12.758392l65.92549 0c3.383728 0 6.6288757 1.3441772 9.021545 3.736847c2.3926544 2.3926544 3.736847 5.637802 3.736847 9.021545l0 51.03203c0 7.0462646 -5.7121277 12.758392 -12.758392 12.758392l-65.92549 0c-7.0462646 0 -12.758392 -5.7121277 -12.758392 -12.758392z" fill-rule="evenodd"/><path fill="#2563eb" d="m106.27768 190.58936l0 0c0 -3.9417114 3.1953888 -7.1371 7.1371 -7.1371l28.547546 0l0 0c1.8928833 0 3.7082214 0.75193787 5.046692 2.0904083c1.3384705 1.3384552 2.0904083 3.1538086 2.0904083 5.046692l0 62.274612c0 3.9417267 -3.1953888 7.1371 -7.1371 7.1371l-28.547546 0c-3.9417114 0 -7.1371 -3.1953735 -7.1371 -7.1371z" fill-rule="evenodd"/><path fill="#2563eb" d="m98.01938 117.48217l0 0c0 -8.678383 7.0352173 -15.7136 15.7136 -15.7136l76.53167 0c4.167511 0 8.164322 1.6555405 11.111191 4.6024094c2.9468842 2.946869 4.602417 6.9436874 4.602417 11.111191l0 62.8525c0 8.6783905 -7.0352173 15.713608 -15.713608 15.713608l-76.53167 0c-8.678383 0 -15.7136 -7.0352173 -15.7136 -15.713608z" fill-rule="evenodd"/><path fill="#2563eb" d="m98.01938 111.18352l0 0c0 -5.19973 4.21521 -9.4149475 9.41494 -9.4149475l37.658638 0l0 0c2.496994 0 4.8917236 0.9919281 6.657379 2.757576c1.7656403 1.7656403 2.7575684 4.16037 2.7575684 6.6573715l0 75.449814c0 5.1997375 -4.21521 9.4149475 -9.4149475 9.4149475l-37.658638 0c-5.19973 0 -9.41494 -4.21521 -9.41494 -9.4149475z" fill-rule="evenodd"/><path fill="#2563eb" d="m176.99779 95.09942l0 0c0 -1.7119522 1.3878021 -3.099762 3.099762 -3.099762l28.828552 0c0.82211304 0 1.6105499 0.32657623 2.191864 0.90789795c0.58132935 0.5813217 0.9079132 1.3697586 0.9079132 2.191864l0 12.398689c0 1.7119522 -1.3878174 3.099762 -3.0997772 3.099762l-28.828552 0c-1.7119598 0 -3.099762 -1.3878098 -3.099762 -3.099762z" fill-rule="evenodd"/><path fill="#2563eb" d="m176.99779 95.06018l0 0c0 -1.6902771 1.3702393 -3.060524 3.0605316 -3.060524l12.24173 0l0 0c0.81170654 0 1.5901642 0.32244873 2.1641235 0.8964081c0.57395935 0.57395935 0.8964081 1.352417 0.8964081 2.164116l0 12.477165c0 1.6902847 -1.3702393 3.060524 -3.0605316 3.060524l-12.24173 0l0 0c-1.6902924 0 -3.0605316 -1.3702393 -3.0605316 -3.060524z" fill-rule="evenodd"/><path fill="#2563eb" d="m85.411995 106.88184l0 0c0 -2.8239822 2.2892838 -5.1132736 5.113266 -5.1132736l122.947105 0c1.3561249 0 2.6567078 0.5387192 3.615631 1.4976425c0.95892334 0.95892334 1.4976349 2.2595062 1.4976349 3.615631l0 20.452461c0 2.8239899 -2.2892914 5.113266 -5.113266 5.113266l-122.947105 0c-2.8239822 0 -5.113266 -2.2892761 -5.113266 -5.113266z" fill-rule="evenodd"/><path fill="#2563eb" d="m85.411995 106.88184l0 0c0 -2.8239822 2.2892838 -5.1132736 5.113266 -5.1132736l70.95635 0c1.3561249 0 2.6567078 0.5387192 3.615631 1.4976425c0.95892334 0.95892334 1.4976349 2.2595062 1.4976349 3.615631l0 20.452461c0 2.8239899 -2.2892761 5.113266 -5.113266 5.113266l-70.95635 0l0 0c-2.8239822 0 -5.113266 -2.2892761 -5.113266 -5.113266z" fill-rule="evenodd"/><path fill="#2563eb" d="m81.96742 116.94913l0 0c0 -1.7119522 1.3878098 -3.0997696 3.099762 -3.0997696l133.86327 0c0.8220978 0 1.6105347 0.32658386 2.191864 0.9079056c0.5813141 0.5813141 0.90789795 1.369751 0.90789795 2.191864l0 12.398682c0 1.7119598 -1.3878174 3.099762 -3.099762 3.099762l-133.86327 0c-1.7119522 0 -3.099762 -1.3878021 -3.099762 -3.099762z" fill-rule="evenodd"/><path fill="#2563eb" d="m98.64613 109.60772l0 0c0 -1.5579834 1.2629929 -2.8209763 2.8209763 -2.8209763l34.05738 0c0.74816895 0 1.4656982 0.2972107 1.9947205 0.82624817c0.5290375 0.52902985 0.82624817 1.2465591 0.82624817 1.9947281l0 11.283546c0 1.5579834 -1.2629852 2.8209763 -2.8209686 2.8209763l-34.05738 0c-1.5579834 0 -2.8209763 -1.2629929 -2.8209763 -2.8209763z" fill-rule="evenodd"/><path fill="#2563eb" d="m92.35173 109.60772l0 0c0 -1.5579834 1.2629929 -2.8209763 2.8209763 -2.8209763l11.531357 0l0 0c0.74816895 0 1.4656982 0.2972107 1.9947281 0.82624817c0.5290375 0.52902985 0.82624817 1.2465591 0.82624817 1.9947281l0 11.283546c0 1.5579834 -1.2629929 2.8209763 -2.8209763 2.8209763l-11.531357 0c-1.5579834 0 -2.8209763 -1.2629929 -2.8209763 -2.8209763z" fill-rule="evenodd"/><path fill="#2563eb" d="m81.96742 116.94913l0 0c0 -1.7119522 1.3878098 -3.0997696 3.099762 -3.0997696l87.46065 0c0.82211304 0 1.6105499 0.32658386 2.191864 0.9079056c0.5813141 0.5813141 0.90789795 1.369751 0.90789795 2.191864l0 12.398682c0 1.7119598 -1.3878174 3.099762 -3.099762 3.099762l-87.46065 0l0 0c-1.7119522 0 -3.099762 -1.3878021 -3.099762 -3.099762z" fill-rule="evenodd"/><path fill="#2563eb" d="m95.49893 115.41888l0 0c0 -1.2910919 1.0466385 -2.3377304 2.3377304 -2.3377304l35.023872 0c0.6199951 0 1.2146149 0.24629211 1.6530151 0.68470764c0.43841553 0.4384079 0.68470764 1.03302 0.68470764 1.6530228l0 9.350639c0 1.2910919 -1.0466309 2.3377304 -2.3377228 2.3377304l-35.023872 0c-1.2910919 0 -2.3377304 -1.0466385 -2.3377304 -2.3377304z" fill-rule="evenodd"/><path fill="#2563eb" d="m89.20454 115.41888l0 0c0 -1.2910919 1.0466385 -2.3377304 2.3377304 -2.3377304l12.497841 0c0.62000275 0 1.2146149 0.24629211 1.6530228 0.68470764c0.4384079 0.4384079 0.68470764 1.03302 0.68470764 1.6530228l0 9.350639c0 1.2910919 -1.0466385 2.3377304 -2.3377304 2.3377304l-12.497841 0l0 0c-1.2910919 0 -2.3377304 -1.0466385 -2.3377304 -2.3377304z" fill-rule="evenodd"/><path fill="#2563eb" d="m104.94054 142.67606l0 0c0 -2.1727295 1.7613449 -3.934082 3.9340744 -3.934082l15.735847 0l0 0c1.0433807 0 2.0440292 0.41448975 2.7818146 1.1522675c0.7377777 0.7377777 1.1522675 1.7384338 1.1522675 2.7818146l0 40.975388c0 2.1727448 -1.7613525 3.934082 -3.934082 3.934082l-15.735847 0c-2.1727295 0 -3.9340744 -1.7613373 -3.9340744 -3.934082z" fill-rule="evenodd"/><path fill="#2563eb" d="m112.9882 206.09296l0 0c0 -2.071228 1.6790619 -3.7502747 3.7502823 -3.7502747l16.10344 0l0 0c0.9946289 0 1.9485321 0.39511108 2.6518402 1.0984192c0.70332336 0.70332336 1.0984344 1.6572266 1.0984344 2.6518555l0 15.000671c0 2.071228 -1.6790619 3.75029 -3.7502747 3.75029l-16.10344 0c-2.0712204 0 -3.7502823 -1.6790619 -3.7502823 -3.75029z" fill-rule="evenodd"/><path fill="#c16a22" d="m90.27768 180.21065l0 0c0 -7.04628 5.7121277 -12.758392 12.758392 -12.758392l65.92549 0c3.383728 0 6.6288757 1.3441772 9.021545 3.736847c2.3926544 2.3926544 3.736847 5.637802 3.736847 9.021545l0 51.03203c0 7.0462646 -5.7121277 12.758392 -12.758392 12.758392l-65.92549 0c-7.0462646 0 -12.758392 -5.7121277 -12.758392 -12.758392z" fill-rule="evenodd"/><path fill="#f69b50" d="m90.27768 174.58936l0 0c0 -3.9417114 3.1953888 -7.1371 7.1371 -7.1371l28.547546 0l0 0c1.8928757 0 3.7082214 0.75193787 5.046692 2.0904083c1.3384705 1.3384552 2.0904083 3.1538086 2.0904083 5.046692l0 62.274612c0 3.9417114 -3.1953888 7.1371 -7.1371 7.1371l-28.547546 0c-3.9417114 0 -7.1371 -3.1953888 -7.1371 -7.1371z" fill-rule="evenodd"/><path fill="#9a4600" d="m82.01938 101.48217l0 0c0 -8.678383 7.0352173 -15.7136 15.7136 -15.7136l76.53167 0c4.167511 0 8.164322 1.6555405 11.111191 4.6024094c2.9468842 2.946869 4.602417 6.9436874 4.602417 11.111191l0 62.8525c0 8.6783905 -7.0352173 15.713608 -15.713608 15.713608l-76.53167 0c-8.678383 0 -15.7136 -7.0352173 -15.7136 -15.713608z" fill-rule="evenodd"/><path fill="#c16a22" d="m82.01938 95.18352l0 0c0 -5.19973 4.21521 -9.4149475 9.41494 -9.4149475l37.658638 0l0 0c2.496994 0 4.8917236 0.9919281 6.657379 2.757576c1.7656403 1.7656403 2.7575684 4.16037 2.7575684 6.6573715l0 75.449814c0 5.1997375 -4.21521 9.4149475 -9.4149475 9.4149475l-37.658638 0c-5.19973 0 -9.41494 -4.21521 -9.41494 -9.4149475z" fill-rule="evenodd"/><path fill="#656565" d="m160.99779 79.09942l0 0c0 -1.7119522 1.3878021 -3.099762 3.099762 -3.099762l28.828552 0c0.82211304 0 1.6105499 0.32657623 2.191864 0.90789795c0.58132935 0.5813217 0.9079132 1.3697586 0.9079132 2.191864l0 12.398689c0 1.7119522 -1.3878174 3.099762 -3.0997772 3.099762l-28.828552 0c-1.7119598 0 -3.099762 -1.3878098 -3.099762 -3.099762z" fill-rule="evenodd"/><path fill="#9f9f9f" d="m160.99779 79.06018l0 0c0 -1.6902771 1.3702393 -3.060524 3.0605316 -3.060524l12.24173 0l0 0c0.81170654 0 1.5901642 0.32244873 2.1641235 0.8964081c0.57395935 0.57395935 0.8964081 1.352417 0.8964081 2.164116l0 12.477165c0 1.6902847 -1.3702393 3.060524 -3.0605316 3.060524l-12.24173 0l0 0c-1.6902924 0 -3.0605316 -1.3702393 -3.0605316 -3.060524z" fill-rule="evenodd"/><path fill="#3c3c3c" d="m69.411995 90.88184l0 0c0 -2.8239822 2.2892838 -5.1132736 5.113266 -5.1132736l122.947105 0c1.3561249 0 2.6567078 0.5387192 3.615631 1.4976425c0.95892334 0.95892334 1.4976349 2.2595062 1.4976349 3.615631l0 20.452461c0 2.8239822 -2.2892914 5.1132736 -5.113266 5.1132736l-122.947105 0c-2.8239822 0 -5.113266 -2.2892914 -5.113266 -5.1132736z" fill-rule="evenodd"/><path fill="#656565" d="m69.411995 90.88184l0 0c0 -2.8239822 2.2892838 -5.1132736 5.113266 -5.1132736l70.95635 0c1.3561249 0 2.6567078 0.5387192 3.615631 1.4976425c0.95892334 0.95892334 1.4976349 2.2595062 1.4976349 3.615631l0 20.452461c0 2.8239822 -2.2892761 5.1132736 -5.113266 5.1132736l-70.95635 0l0 0c-2.8239822 0 -5.113266 -2.2892914 -5.113266 -5.1132736z" fill-rule="evenodd"/><path fill="#3c3c3c" d="m65.96742 100.94913l0 0c0 -1.7119522 1.3878098 -3.0997696 3.099762 -3.0997696l133.86327 0c0.8220978 0 1.6105347 0.32658386 2.191864 0.9079056c0.5813141 0.5813141 0.90789795 1.369751 0.90789795 2.191864l0 12.398682c0 1.7119598 -1.3878174 3.0997696 -3.099762 3.0997696l-133.86327 0c-1.7119522 0 -3.099762 -1.3878098 -3.099762 -3.0997696z" fill-rule="evenodd"/><path fill="#9f9f9f" d="m82.64613 93.60772l0 0c0 -1.5579834 1.2629929 -2.8209763 2.8209763 -2.8209763l34.05738 0c0.74816895 0 1.4656906 0.2972107 1.9947281 0.82624817c0.52902985 0.52902985 0.82624054 1.2465591 0.82624054 1.9947281l0 11.283546c0 1.5579834 -1.2629929 2.8209763 -2.8209686 2.8209763l-34.05738 0c-1.5579834 0 -2.8209763 -1.2629929 -2.8209763 -2.8209763z" fill-rule="evenodd"/><path fill="#cfcfcf" d="m76.35173 93.60772l0 0c0 -1.5579834 1.2629929 -2.8209763 2.8209763 -2.8209763l11.531357 0l0 0c0.74816895 0 1.4656982 0.2972107 1.9947281 0.82624817c0.5290375 0.52902985 0.82624817 1.2465591 0.82624817 1.9947281l0 11.283546c0 1.5579834 -1.2629929 2.8209763 -2.8209763 2.8209763l-11.531357 0c-1.5579834 0 -2.8209763 -1.2629929 -2.8209763 -2.8209763z" fill-rule="evenodd"/><path fill="#656565" d="m65.96742 100.94913l0 0c0 -1.7119522 1.3878098 -3.0997696 3.099762 -3.0997696l87.46065 0c0.82211304 0 1.6105499 0.32658386 2.191864 0.9079056c0.5813141 0.5813141 0.90789795 1.369751 0.90789795 2.191864l0 12.398682c0 1.7119598 -1.3878174 3.0997696 -3.099762 3.0997696l-87.46065 0l0 0c-1.7119522 0 -3.099762 -1.3878098 -3.099762 -3.0997696z" fill-rule="evenodd"/><path fill="#9f9f9f" d="m79.49893 99.41888l0 0c0 -1.2910919 1.0466385 -2.3377304 2.3377304 -2.3377304l35.023865 0c0.6200104 0 1.2146149 0.24629211 1.6530304 0.68470764c0.4384079 0.4384079 0.6847 1.03302 0.6847 1.6530228l0 9.350639c0 1.2910919 -1.0466385 2.3377304 -2.3377304 2.3377304l-35.023865 0c-1.2910919 0 -2.3377304 -1.0466385 -2.3377304 -2.3377304z" fill-rule="evenodd"/><path fill="#cfcfcf" d="m73.20454 99.41888l0 0c0 -1.2910919 1.0466385 -2.3377304 2.3377304 -2.3377304l12.497841 0c0.62000275 0 1.2146149 0.24629211 1.6530228 0.68470764c0.4384079 0.4384079 0.68470764 1.03302 0.68470764 1.6530228l0 9.350639c0 1.2910919 -1.0466385 2.3377304 -2.3377304 2.3377304l-12.497841 0l0 0c-1.2910919 0 -2.3377304 -1.0466385 -2.3377304 -2.3377304z" fill-rule="evenodd"/><path fill="#f69b50" d="m88.94054 126.676056l0 0c0 -2.1727295 1.7613449 -3.934082 3.9340744 -3.934082l15.735847 0l0 0c1.0433807 0 2.0440292 0.41448212 2.7818146 1.1522675c0.7377777 0.73778534 1.1522598 1.7384338 1.1522598 2.7818146l0 40.975388c0 2.1727448 -1.7613449 3.934082 -3.9340744 3.934082l-15.735847 0c-2.1727295 0 -3.9340744 -1.7613373 -3.9340744 -3.934082z" fill-rule="evenodd"/><path fill="#f9ac6d" d="m96.9882 190.09296l0 0c0 -2.071228 1.6790619 -3.7502747 3.7502823 -3.7502747l16.10344 0l0 0c0.99463654 0 1.9485321 0.39511108 2.6518478 1.0984192c0.70331573 0.70332336 1.0984268 1.6572266 1.0984268 2.6518555l0 15.000671c0 2.071228 -1.6790543 3.75029 -3.7502747 3.75029l-16.10344 0c-2.0712204 0 -3.7502823 -1.6790619 -3.7502823 -3.75029z" fill-rule="evenodd"/></g></svg>