<svg version="1.1" viewBox="0.0 0.0 288.0 384.0" fill="none" stroke="none" stroke-linecap="square" stroke-miterlimit="10" xmlns:xlink="http://www.w3.org/1999/xlink" xmlns="http://www.w3.org/2000/svg"><clipPath id="g3b18a6c779a_0_512.0"><path d="m0 0l288.0 0l0 384.0l-288.0 0l0 -384.0z" clip-rule="nonzero"/></clipPath><g clip-path="url(#g3b18a6c779a_0_512.0)"><path fill="#ffffff" d="m0 0l288.0 0l0 384.0l-288.0 0z" fill-rule="evenodd"/><path fill="#51de18" d="m5.7007875 34.135216l0 0c0 -9.966135 8.079147 -18.045282 18.04528 -18.045282l240.50787 0c4.7858887 0 9.375793 1.9011936 12.759949 5.2853394c3.3841248 3.3841476 5.2853394 7.9740353 5.2853394 12.759943l0 324.2244c0 9.9661255 -8.079163 18.045288 -18.045288 18.045288l-240.50787 0l0 0c-9.966134 0 -18.04528 -8.079163 -18.04528 -18.045288z" fill-rule="evenodd"/><path stroke="#51de18" stroke-width="4.0" stroke-linejoin="round" stroke-linecap="butt" d="m5.7007875 34.135216l0 0c0 -9.966135 8.079147 -18.045282 18.04528 -18.045282l240.50787 0c4.7858887 0 9.375793 1.9011936 12.759949 5.2853394c3.3841248 3.3841476 5.2853394 7.9740353 5.2853394 12.759943l0 324.2244c0 9.9661255 -8.079163 18.045288 -18.045288 18.045288l-240.50787 0l0 0c-9.966134 0 -18.04528 -8.079163 -18.04528 -18.045288z" fill-rule="evenodd"/><path fill="#caffb5" d="m5.7007875 25.639769l0 0c0 -9.966133 8.079147 -18.04528 18.04528 -18.04528l240.50787 0c4.7858887 0 9.375793 1.9011936 12.759949 5.2853403c3.3841248 3.3841467 5.2853394 7.9740343 5.2853394 12.75994l0 324.2244c0 9.9661255 -8.079163 18.045288 -18.045288 18.045288l-240.50787 0l0 0c-9.966134 0 -18.04528 -8.079163 -18.04528 -18.045288z" fill-rule="evenodd"/><path stroke="#51de18" stroke-width="4.0" stroke-linejoin="round" stroke-linecap="butt" d="m5.7007875 25.639769l0 0c0 -9.966133 8.079147 -18.04528 18.04528 -18.04528l240.50787 0c4.7858887 0 9.375793 1.9011936 12.759949 5.2853403c3.3841248 3.3841467 5.2853394 7.9740343 5.2853394 12.75994l0 324.2244c0 9.9661255 -8.079163 18.045288 -18.045288 18.045288l-240.50787 0l0 0c-9.966134 0 -18.04528 -8.079163 -18.04528 -18.045288z" fill-rule="evenodd"/><path fill="#51de18" d="m179.04903 111.09256l0 0c0 -2.6929855 2.1830902 -4.8760757 4.8760834 -4.8760757l36.203735 0c1.2932129 0 2.5334625 0.5137253 3.4479065 1.4281693c0.91444397 0.91444397 1.4281616 2.1546936 1.4281616 3.4479065l0 19.503723c0 2.692978 -2.1830902 4.8760834 -4.876068 4.8760834l-36.203735 0c-2.6929932 0 -4.8760834 -2.1831055 -4.8760834 -4.8760834z" fill-rule="evenodd"/><path fill="#51de18" d="m83.47072 111.09256l0 0c0 -2.6929855 2.1830978 -4.8760757 4.8760757 -4.8760757l36.203735 0c1.2932129 0 2.5334625 0.5137253 3.4479065 1.4281693c0.91443634 0.91444397 1.4281693 2.1546936 1.4281693 3.4479065l0 19.503723c0 2.692978 -2.1830902 4.8760834 -4.8760757 4.8760834l-36.203735 0c-2.692978 0 -4.8760757 -2.1831055 -4.8760757 -4.8760834z" fill-rule="evenodd"/><path fill="#51de18" d="m70.03312 194.12834l0 0c0 -5.7057495 4.6254196 -10.331177 10.331169 -10.331177l45.326508 0c2.7399902 0 5.3677673 1.0884552 7.305237 3.0259247c1.9374695 1.9374847 3.0259247 4.5652466 3.0259247 7.305252l0 41.32344c0 5.7057495 -4.625412 10.3311615 -10.3311615 10.3311615l-45.326508 0c-5.7057495 0 -10.331169 -4.625412 -10.331169 -10.3311615z" fill-rule="evenodd"/><path fill="#51de18" d="m167.97447 194.12834l0 0c0 -5.7057495 4.6254272 -10.331177 10.331177 -10.331177l45.326492 0c2.7400055 0 5.3677826 1.0884552 7.305252 3.0259247c1.9374695 1.9374847 3.0259247 4.5652466 3.0259247 7.305252l0 41.32344c0 5.7057495 -4.6254272 10.3311615 -10.331177 10.3311615l-45.326492 0c-5.7057495 0 -10.331177 -4.625412 -10.331177 -10.3311615z" fill-rule="evenodd"/><path fill="#51de18" d="m70.03312 141.68002l0 0c0 -7.2170105 5.8505325 -13.067535 13.067535 -13.067535l137.7966 0c3.4657288 0 6.789505 1.3767548 9.240143 3.8273926c2.4506378 2.4506378 3.8273926 5.774414 3.8273926 9.240143l0 52.268555c0 7.2170105 -5.850525 13.067535 -13.067535 13.067535l-137.7966 0c-7.217003 0 -13.067535 -5.850525 -13.067535 -13.067535z" fill-rule="evenodd"/><path fill="#51de18" d="m70.03312 185.16994l0 0c0 -5.7057495 4.6254196 -10.331177 10.331169 -10.331177l45.326508 0c2.7399902 0 5.3677673 1.0884705 7.305237 3.02594c1.9374695 1.9374695 3.0259247 4.5652466 3.0259247 7.305237l0 41.32344c0 5.7057495 -4.625412 10.3311615 -10.3311615 10.3311615l-45.326508 0c-5.7057495 0 -10.331169 -4.625412 -10.331169 -10.3311615z" fill-rule="evenodd"/><path fill="#51de18" d="m167.97447 185.16994l0 0c0 -5.7057495 4.6254272 -10.331177 10.331177 -10.331177l45.326492 0c2.7400055 0 5.3677826 1.0884705 7.305252 3.02594c1.9374695 1.9374695 3.0259247 4.5652466 3.0259247 7.305237l0 41.32344c0 5.7057495 -4.6254272 10.3311615 -10.331177 10.3311615l-45.326492 0c-5.7057495 0 -10.331177 -4.625412 -10.331177 -10.3311615z" fill-rule="evenodd"/><path fill="#51de18" d="m70.03312 132.72162l0 0c0 -7.217003 5.8505325 -13.067535 13.067535 -13.067535l137.7966 0c3.4657288 0 6.789505 1.3767548 9.240143 3.8273926c2.4506378 2.4506378 3.8273926 5.774414 3.8273926 9.240143l0 52.26857c0 7.2169952 -5.850525 13.067535 -13.067535 13.067535l-137.7966 0c-7.217003 0 -13.067535 -5.85054 -13.067535 -13.067535z" fill-rule="evenodd"/><path fill="#51de18" d="m115.010284 123.16639l0 0c0 -1.9397964 1.5725098 -3.5123062 3.5123062 -3.5123062l66.95272 0c0.9315338 0 1.8248901 0.3700409 2.4835815 1.0287323c0.6586914 0.6586838 1.0287323 1.5520477 1.0287323 2.483574l0 14.04879c0 1.9397888 -1.5725098 3.5122986 -3.5123138 3.5122986l-66.95272 0c-1.9397964 0 -3.5123062 -1.5725098 -3.5123062 -3.5122986z" fill-rule="evenodd"/><path fill="#51de18" d="m194.28683 161.32921l0 0c0 -1.2742615 1.0329895 -2.307251 2.307251 -2.307251l9.228699 0l0 0c0.6119232 0 1.1987762 0.24308777 1.6314697 0.67578125c0.43269348 0.43269348 0.67578125 1.0195465 0.67578125 1.6314697l0 9.228699c0 1.2742615 -1.0329895 2.307251 -2.307251 2.307251l-9.228699 0c-1.2742615 0 -2.307251 -1.0329895 -2.307251 -2.307251z" fill-rule="evenodd"/><path fill="#51de18" d="m180.44363 175.17241l0 0c0 -1.2742615 1.0329895 -2.307251 2.307251 -2.307251l9.228699 0l0 0c0.6119232 0 1.1987762 0.24308777 1.6314697 0.67578125c0.43269348 0.43269348 0.67578125 1.0195465 0.67578125 1.6314697l0 9.228699c0 1.2742615 -1.0329895 2.307251 -2.307251 2.307251l-9.228699 0c-1.2742615 0 -2.307251 -1.0329895 -2.307251 -2.307251z" fill-rule="evenodd"/><path fill="#51de18" d="m208.13004 175.17241l0 0c0 -1.2742615 1.0329895 -2.307251 2.3072357 -2.307251l9.228714 0l0 0c0.6119232 0 1.1987762 0.24308777 1.6314697 0.67578125c0.43269348 0.43269348 0.675766 1.0195465 0.675766 1.6314697l0 9.228699c0 1.2742615 -1.0329895 2.307251 -2.3072357 2.307251l-9.228714 0c-1.2742462 0 -2.3072357 -1.0329895 -2.3072357 -2.307251z" fill-rule="evenodd"/><path fill="#51de18" d="m194.28683 189.0156l0 0c0 -1.2742462 1.0329895 -2.3072357 2.307251 -2.3072357l9.228699 0l0 0c0.6119232 0 1.1987762 0.24307251 1.6314697 0.675766c0.43269348 0.43269348 0.67578125 1.0195618 0.67578125 1.6314697l0 9.228714c0 1.2742462 -1.0329895 2.3072357 -2.307251 2.3072357l-9.228699 0c-1.2742615 0 -2.307251 -1.0329895 -2.307251 -2.3072357z" fill-rule="evenodd"/><path fill="#51de18" d="m180.44363 170.6932l0 0c0 -1.2742615 1.0329895 -2.307251 2.307251 -2.307251l9.228699 0l0 0c0.6119232 0 1.1987762 0.24308777 1.6314697 0.67578125c0.43269348 0.43269348 0.67578125 1.0195465 0.67578125 1.6314697l0 9.228699c0 1.2742615 -1.0329895 2.307251 -2.307251 2.307251l-9.228699 0c-1.2742615 0 -2.307251 -1.0329895 -2.307251 -2.307251z" fill-rule="evenodd"/><path fill="#51de18" d="m194.28683 156.85l0 0c0 -1.2742615 1.0329895 -2.307251 2.307251 -2.307251l9.228699 0l0 0c0.6119232 0 1.1987762 0.24308777 1.6314697 0.67578125c0.43269348 0.43269348 0.67578125 1.0195465 0.67578125 1.6314697l0 9.228699c0 1.2742615 -1.0329895 2.307251 -2.307251 2.307251l-9.228699 0c-1.2742615 0 -2.307251 -1.0329895 -2.307251 -2.307251z" fill-rule="evenodd"/><path fill="#51de18" d="m208.13004 170.6932l0 0c0 -1.2742615 1.0329895 -2.307251 2.3072357 -2.307251l9.228714 0l0 0c0.6119232 0 1.1987762 0.24308777 1.6314697 0.67578125c0.43269348 0.43269348 0.675766 1.0195465 0.675766 1.6314697l0 9.228699c0 1.2742615 -1.0329895 2.307251 -2.3072357 2.307251l-9.228714 0c-1.2742462 0 -2.3072357 -1.0329895 -2.3072357 -2.307251z" fill-rule="evenodd"/><path fill="#51de18" d="m194.28683 184.53639l0 0c0 -1.2742462 1.0329895 -2.3072357 2.307251 -2.3072357l9.228699 0l0 0c0.6119232 0 1.1987762 0.24308777 1.6314697 0.675766c0.43269348 0.43269348 0.67578125 1.0195618 0.67578125 1.6314697l0 9.228714c0 1.2742615 -1.0329895 2.307251 -2.307251 2.307251l-9.228699 0c-1.2742615 0 -2.307251 -1.0329895 -2.307251 -2.307251z" fill-rule="evenodd"/><path fill="#51de18" d="m115.010284 134.76994l0 0c0 -0.9268799 0.7513809 -1.6782532 1.6782608 -1.6782532l70.62081 0c0.44509888 0 0.87197876 0.17680359 1.1867065 0.49154663c0.31474304 0.31472778 0.4915619 0.74160767 0.4915619 1.1867065l0 6.71286c0 0.9268799 -0.75138855 1.6782684 -1.6782684 1.6782684l-70.62081 0c-0.9268799 0 -1.6782608 -0.75138855 -1.6782608 -1.6782684z" fill-rule="evenodd"/><path fill="#51de18" d="m81.482414 162.64012l0 0c0 -3.498108 2.835785 -6.333893 6.3339005 -6.333893l25.334854 0l0 0c1.6798553 0 3.2909088 0.6673126 4.478752 1.8551483c1.1878357 1.1878357 1.855156 2.7988892 1.855156 4.4787445l0 25.334854c0 3.4981232 -2.835785 6.333908 -6.333908 6.333908l-25.334854 0c-3.4981155 0 -6.3339005 -2.835785 -6.3339005 -6.333908z" fill-rule="evenodd"/><path fill="#51de18" d="m84.40095 164.5858l0 0c0 -2.9608154 2.4002228 -5.361038 5.361038 -5.361038l21.44352 0l0 0c1.4218292 0 2.785431 0.56481934 3.790825 1.5702057c1.0053864 1.0053864 1.5702133 2.368988 1.5702133 3.7908325l0 21.443512c0 2.9608154 -2.4002228 5.361038 -5.361038 5.361038l-21.44352 0c-2.9608154 0 -5.361038 -2.4002228 -5.361038 -5.361038z" fill-rule="evenodd"/><path fill="#51de18" d="m91.64879 169.41765l0 0c0 -1.6265106 1.3185425 -2.945053 2.9450455 -2.945053l11.779823 0l0 0c0.7810745 0 1.530159 0.31028748 2.0824585 0.86257935c0.5523071 0.5523071 0.862587 1.3013916 0.862587 2.0824738l0 11.779816c0 1.6265106 -1.3185425 2.945053 -2.9450455 2.945053l-11.779823 0c-1.626503 0 -2.9450455 -1.3185425 -2.9450455 -2.945053z" fill-rule="evenodd"/><path fill="#51de18" d="m131.71912 156.1373l0 0c0 -2.0274506 1.64357 -3.6710205 3.6710205 -3.6710205l33.217636 0c0.97361755 0 1.9073639 0.38676453 2.59581 1.0752258c0.68844604 0.68844604 1.0752106 1.6221771 1.0752106 2.5957947l0 14.68364c0 2.0274506 -1.64357 3.6710205 -3.6710205 3.6710205l-33.217636 0l0 0c-2.0274506 0 -3.6710205 -1.64357 -3.6710205 -3.6710205z" fill-rule="evenodd"/><path fill="#51de18" d="m131.71912 180.82281l0 0c0 -0.81811523 0.663208 -1.4813385 1.4813385 -1.4813385l37.597 0c0.3928833 0 0.7696686 0.1560669 1.0474701 0.43388367c0.2778015 0.2778015 0.4338684 0.6545868 0.4338684 1.0474548l0 5.925186c0 0.81811523 -0.66322327 1.4813385 -1.4813385 1.4813385l-37.597 0c-0.8181305 0 -1.4813385 -0.66322327 -1.4813385 -1.4813385z" fill-rule="evenodd"/><path fill="#d7e2ed" d="m163.04903 95.09256l0 0c0 -2.6929855 2.1830902 -4.8760757 4.8760834 -4.8760757l36.203735 0c1.2932129 0 2.5334625 0.5137253 3.4479065 1.4281693c0.91444397 0.91444397 1.4281616 2.1546936 1.4281616 3.4479065l0 19.503723c0 2.6929855 -2.1830902 4.8760757 -4.876068 4.8760757l-36.203735 0c-2.6929932 0 -4.8760834 -2.1830902 -4.8760834 -4.8760757z" fill-rule="evenodd"/><path fill="#d7e2ed" d="m67.47072 95.09256l0 0c0 -2.6929855 2.1830978 -4.8760757 4.8760757 -4.8760757l36.203735 0c1.2932129 0 2.5334625 0.5137253 3.4479065 1.4281693c0.91444397 0.91444397 1.4281693 2.1546936 1.4281693 3.4479065l0 19.503723c0 2.6929855 -2.1830902 4.8760757 -4.8760757 4.8760757l-36.203735 0c-2.692978 0 -4.8760757 -2.1830902 -4.8760757 -4.8760757z" fill-rule="evenodd"/><path fill="#e7f2ff" d="m54.03312 178.12834l0 0c0 -5.7057495 4.6254234 -10.331177 10.331169 -10.331177l45.326508 0c2.7399979 0 5.3677673 1.0884552 7.305237 3.0259247c1.9374695 1.9374847 3.0259323 4.5652466 3.0259323 7.305252l0 41.32344c0 5.7057495 -4.6254196 10.3311615 -10.331169 10.3311615l-45.326508 0c-5.7057457 0 -10.331169 -4.625412 -10.331169 -10.3311615z" fill-rule="evenodd"/><path fill="#e7f2ff" d="m151.97447 178.12834l0 0c0 -5.7057495 4.6254272 -10.331177 10.331177 -10.331177l45.326492 0c2.7400055 0 5.3677826 1.0884552 7.305252 3.0259247c1.9374695 1.9374847 3.0259247 4.5652466 3.0259247 7.305252l0 41.32344c0 5.7057495 -4.6254272 10.3311615 -10.331177 10.3311615l-45.326492 0c-5.7057495 0 -10.331177 -4.625412 -10.331177 -10.3311615z" fill-rule="evenodd"/><path fill="#e7f2ff" d="m54.03312 125.680016l0 0c0 -7.2169952 5.8505363 -13.067535 13.067535 -13.067535l137.7966 0c3.4657288 0 6.789505 1.3767548 9.240143 3.8273926c2.4506378 2.4506378 3.8273926 5.7744217 3.8273926 9.240143l0 52.268562c0 7.2170105 -5.850525 13.067535 -13.067535 13.067535l-137.7966 0c-7.216999 0 -13.067535 -5.850525 -13.067535 -13.067535z" fill-rule="evenodd"/><path fill="#f3f8fe" d="m54.03312 169.16994l0 0c0 -5.7057495 4.6254234 -10.331177 10.331169 -10.331177l45.326508 0c2.7399979 0 5.3677673 1.0884705 7.305237 3.02594c1.9374695 1.9374695 3.0259323 4.5652466 3.0259323 7.305237l0 41.32344c0 5.7057495 -4.6254196 10.3311615 -10.331169 10.3311615l-45.326508 0c-5.7057457 0 -10.331169 -4.625412 -10.331169 -10.3311615z" fill-rule="evenodd"/><path fill="#f3f8fe" d="m151.97447 169.16994l0 0c0 -5.7057495 4.6254272 -10.331177 10.331177 -10.331177l45.326492 0c2.7400055 0 5.3677826 1.0884705 7.305252 3.02594c1.9374695 1.9374695 3.0259247 4.5652466 3.0259247 7.305237l0 41.32344c0 5.7057495 -4.6254272 10.3311615 -10.331177 10.3311615l-45.326492 0c-5.7057495 0 -10.331177 -4.625412 -10.331177 -10.3311615z" fill-rule="evenodd"/><path fill="#f3f8fe" d="m54.03312 116.72162l0 0c0 -7.217003 5.8505363 -13.067535 13.067535 -13.067535l137.7966 0c3.4657288 0 6.789505 1.3767548 9.240143 3.8273926c2.4506378 2.4506378 3.8273926 5.774414 3.8273926 9.240143l0 52.26857c0 7.2169952 -5.850525 13.067535 -13.067535 13.067535l-137.7966 0c-7.216999 0 -13.067535 -5.85054 -13.067535 -13.067535z" fill-rule="evenodd"/><path fill="#e7f2ff" d="m99.010284 107.16639l0 0c0 -1.9397964 1.5725098 -3.5123062 3.5123062 -3.5123062l66.95272 0c0.9315338 0 1.8248901 0.3700409 2.4835815 1.0287323c0.6586914 0.6586838 1.0287323 1.5520477 1.0287323 2.483574l0 14.04879c0 1.9397964 -1.5725098 3.5123062 -3.5123138 3.5123062l-66.95272 0c-1.9397964 0 -3.5123062 -1.5725098 -3.5123062 -3.5123062z" fill-rule="evenodd"/><path fill="#e09300" d="m178.28683 145.32921l0 0c0 -1.2742615 1.0329895 -2.307251 2.307251 -2.307251l9.228699 0l0 0c0.6119232 0 1.1987762 0.24308777 1.6314697 0.67578125c0.43269348 0.43269348 0.67578125 1.0195465 0.67578125 1.6314697l0 9.228699c0 1.2742615 -1.0329895 2.307251 -2.307251 2.307251l-9.228699 0c-1.2742615 0 -2.307251 -1.0329895 -2.307251 -2.307251z" fill-rule="evenodd"/><path fill="#e03027" d="m164.44363 159.17241l0 0c0 -1.2742615 1.0329895 -2.307251 2.307251 -2.307251l9.228699 0l0 0c0.6119232 0 1.1987762 0.24308777 1.6314697 0.67578125c0.43269348 0.43269348 0.67578125 1.0195465 0.67578125 1.6314697l0 9.228699c0 1.2742615 -1.0329895 2.307251 -2.307251 2.307251l-9.228699 0c-1.2742615 0 -2.307251 -1.0329895 -2.307251 -2.307251z" fill-rule="evenodd"/><path fill="#227600" d="m192.13004 159.17241l0 0c0 -1.2742615 1.0329895 -2.307251 2.3072357 -2.307251l9.228714 0l0 0c0.6119232 0 1.1987762 0.24308777 1.6314697 0.67578125c0.43269348 0.43269348 0.675766 1.0195465 0.675766 1.6314697l0 9.228699c0 1.2742615 -1.0329895 2.307251 -2.3072357 2.307251l-9.228714 0c-1.2742462 0 -2.3072357 -1.0329895 -2.3072357 -2.307251z" fill-rule="evenodd"/><path fill="#0c2969" d="m178.28683 173.0156l0 0c0 -1.2742462 1.0329895 -2.3072357 2.307251 -2.3072357l9.228699 0l0 0c0.6119232 0 1.1987762 0.24307251 1.6314697 0.675766c0.43269348 0.43269348 0.67578125 1.0195618 0.67578125 1.6314697l0 9.228714c0 1.2742462 -1.0329895 2.3072357 -2.307251 2.3072357l-9.228699 0c-1.2742615 0 -2.307251 -1.0329895 -2.307251 -2.3072357z" fill-rule="evenodd"/><path fill="#f73d35" d="m164.44363 154.6932l0 0c0 -1.2742615 1.0329895 -2.307251 2.307251 -2.307251l9.228699 0l0 0c0.6119232 0 1.1987762 0.24308777 1.6314697 0.67578125c0.43269348 0.43269348 0.67578125 1.0195465 0.67578125 1.6314697l0 9.228699c0 1.2742615 -1.0329895 2.307251 -2.307251 2.307251l-9.228699 0c-1.2742615 0 -2.307251 -1.0329895 -2.307251 -2.307251z" fill-rule="evenodd"/><path fill="#fcb630" d="m178.28683 140.85l0 0c0 -1.2742615 1.0329895 -2.307251 2.307251 -2.307251l9.228699 0l0 0c0.6119232 0 1.1987762 0.24308777 1.6314697 0.67578125c0.43269348 0.43269348 0.67578125 1.0195465 0.67578125 1.6314697l0 9.228699c0 1.2742615 -1.0329895 2.307251 -2.307251 2.307251l-9.228699 0c-1.2742615 0 -2.307251 -1.0329895 -2.307251 -2.307251z" fill-rule="evenodd"/><path fill="#51de18" d="m192.13004 154.6932l0 0c0 -1.2742615 1.0329895 -2.307251 2.3072357 -2.307251l9.228714 0l0 0c0.6119232 0 1.1987762 0.24308777 1.6314697 0.67578125c0.43269348 0.43269348 0.675766 1.0195465 0.675766 1.6314697l0 9.228699c0 1.2742615 -1.0329895 2.307251 -2.3072357 2.307251l-9.228714 0c-1.2742462 0 -2.3072357 -1.0329895 -2.3072357 -2.307251z" fill-rule="evenodd"/><path fill="#2563eb" d="m178.28683 168.53639l0 0c0 -1.2742462 1.0329895 -2.3072357 2.307251 -2.3072357l9.228699 0l0 0c0.6119232 0 1.1987762 0.24308777 1.6314697 0.675766c0.43269348 0.43269348 0.67578125 1.0195618 0.67578125 1.6314697l0 9.228714c0 1.2742615 -1.0329895 2.307251 -2.307251 2.307251l-9.228699 0c-1.2742615 0 -2.307251 -1.0329895 -2.307251 -2.307251z" fill-rule="evenodd"/><path fill="#ffffff" d="m99.010284 118.76994l0 0c0 -0.9268799 0.7513809 -1.6782608 1.6782608 -1.6782608l70.62081 0c0.44509888 0 0.87197876 0.17681885 1.1867065 0.49155426c0.31474304 0.3147354 0.4915619 0.74160767 0.4915619 1.1867065l0 6.71286c0 0.9268799 -0.75138855 1.6782608 -1.6782684 1.6782608l-70.62081 0c-0.9268799 0 -1.6782608 -0.7513809 -1.6782608 -1.6782608z" fill-rule="evenodd"/><path fill="#3b4652" d="m65.482414 146.64012l0 0c0 -3.498108 2.835785 -6.333893 6.3339005 -6.333893l25.334854 0l0 0c1.6798553 0 3.2909088 0.6673126 4.478752 1.8551483c1.1878357 1.1878357 1.855156 2.7988892 1.855156 4.4787445l0 25.334854c0 3.4981232 -2.835785 6.333908 -6.333908 6.333908l-25.334854 0c-3.4981155 0 -6.3339005 -2.835785 -6.3339005 -6.333908z" fill-rule="evenodd"/><path fill="#83909f" d="m68.40095 148.5858l0 0c0 -2.9608154 2.4002228 -5.361038 5.361038 -5.361038l21.44352 0l0 0c1.4218292 0 2.785431 0.56481934 3.790825 1.5702057c1.0053864 1.0053864 1.5702133 2.368988 1.5702133 3.7908325l0 21.443512c0 2.9608154 -2.4002228 5.361038 -5.361038 5.361038l-21.44352 0c-2.9608154 0 -5.361038 -2.4002228 -5.361038 -5.361038z" fill-rule="evenodd"/><path fill="#3b4652" d="m75.64879 153.41765l0 0c0 -1.6265106 1.3185425 -2.945053 2.9450455 -2.945053l11.779823 0l0 0c0.7810745 0 1.530159 0.31028748 2.0824585 0.86257935c0.5523071 0.5523071 0.862587 1.3013916 0.862587 2.0824738l0 11.779816c0 1.6265106 -1.3185425 2.945053 -2.9450455 2.945053l-11.779823 0c-1.626503 0 -2.9450455 -1.3185425 -2.9450455 -2.945053z" fill-rule="evenodd"/><path fill="#3b4652" d="m115.71911 140.1373l0 0c0 -2.0274506 1.64357 -3.6710205 3.6710205 -3.6710205l33.217644 0c0.97361755 0 1.9073639 0.38676453 2.59581 1.0752258c0.68844604 0.68844604 1.0752106 1.6221771 1.0752106 2.5957947l0 14.68364c0 2.0274506 -1.64357 3.6710205 -3.6710205 3.6710205l-33.217644 0l0 0c-2.0274506 0 -3.6710205 -1.64357 -3.6710205 -3.6710205z" fill-rule="evenodd"/><path fill="#f73d35" d="m115.71911 164.82281l0 0c0 -0.81811523 0.66322327 -1.4813385 1.4813385 -1.4813385l37.597008 0c0.3928833 0 0.7696686 0.1560669 1.0474701 0.43388367c0.2778015 0.2778015 0.4338684 0.6545868 0.4338684 1.0474548l0 5.925186c0 0.81811523 -0.66322327 1.4813385 -1.4813385 1.4813385l-37.597008 0c-0.81811523 0 -1.4813385 -0.66322327 -1.4813385 -1.4813385z" fill-rule="evenodd"/><path fill="#000000" fill-opacity="0.0" d="m21.700787 315.7533l266.29922 0l0 38.771637l-266.29922 0z" fill-rule="evenodd"/><path fill="#000000" d="m45.15391 335.08203q-0.1875 1.59375 -1.09375 2.78125q-0.90625 1.1875 -2.390625 1.84375q-1.484375 0.65625 -3.40625 0.65625q-2.09375 0 -3.65625 -0.78125q-1.5625 -0.78125 -2.4375 -2.1875q-0.875 -1.40625 -0.875 -3.28125q0 -1.875 0.875 -3.28125q0.875 -1.40625 2.4375 -2.1875q1.5625 -0.78125 3.65625 -0.78125q1.921875 0 3.40625 0.65625q1.484375 0.65625 2.390625 1.84375q0.90625 1.1875 1.09375 2.78125l-3.328125 0q-0.171875 -0.78125 -0.640625 -1.3125q-0.453125 -0.53125 -1.203125 -0.8125q-0.734375 -0.296875 -1.71875 -0.296875q-1.109375 0 -1.9375 0.40625q-0.8125 0.40625 -1.25 1.171875q-0.421875 0.75 -0.421875 1.8125q0 1.0625 0.421875 1.828125q0.4375 0.75 1.25 1.15625q0.828125 0.40625 1.9375 0.40625q0.984375 0 1.71875 -0.265625q0.75 -0.28125 1.203125 -0.8125q0.46875 -0.546875 0.640625 -1.34375l3.328125 0zm6.7866516 5.28125q-1.765625 0 -3.078125 -0.59375q-1.3125 -0.59375 -2.046875 -1.6875q-0.734375 -1.109375 -0.734375 -2.53125q0 -1.453125 0.734375 -2.53125q0.734375 -1.09375 2.046875 -1.703125q1.3125 -0.609375 3.078125 -0.609375q1.734375 0 3.046875 0.609375q1.328125 0.609375 2.0625 1.703125q0.734375 1.078125 0.734375 2.53125q0 1.421875 -0.734375 2.53125q-0.734375 1.09375 -2.0625 1.6875q-1.3125 0.59375 -3.046875 0.59375zm0 -2.40625q0.796875 0 1.359375 -0.28125q0.5625 -0.296875 0.859375 -0.84375q0.3125 -0.546875 0.3125 -1.28125q0 -0.765625 -0.3125 -1.296875q-0.296875 -0.546875 -0.859375 -0.828125q-0.5625 -0.28125 -1.359375 -0.28125q-0.8125 0 -1.390625 0.28125q-0.5625 0.28125 -0.875 0.828125q-0.296875 0.53125 -0.296875 1.28125q0 0.75 0.296875 1.296875q0.3125 0.546875 0.875 0.84375q0.578125 0.28125 1.390625 0.28125zm6.733032 -6.984375l3.28125 0l0.59375 3.65625l0 5.484375l-3.265625 0l0 -5.984375l-0.609375 -3.15625zm7.234379 -0.265625q1.3125 0 2.234375 0.53125q0.921875 0.515625 1.40625 1.484375q0.5 0.953125 0.5 2.265625l0 5.125l-3.265625 0l0 -4.640625q0 -1.015625 -0.53125 -1.5625q-0.515625 -0.546875 -1.484375 -0.546875q-0.671875 0 -1.1875038 0.296875q-0.5 0.28125 -0.765625 0.8125q-0.265625 0.515625 -0.265625 1.234375l-1.015625 -0.515625q0.1875 -1.46875 0.8125 -2.46875q0.625 -1.0 1.53125 -1.5q0.9218788 -0.515625 2.0312538 -0.515625zm16.405273 6.4375q0 1.046875 -0.640625 1.765625q-0.640625 0.71875 -1.828125 1.09375q-1.171875 0.359375 -2.84375 0.359375q-1.703125 0 -3.0 -0.40625q-1.28125 -0.421875 -2.0 -1.171875q-0.71875 -0.75 -0.765625 -1.75l3.3125 0q0.109375 0.375 0.4375 0.640625q0.328125 0.265625 0.859375 0.40625q0.546875 0.125 1.296875 0.125q0.984375 0 1.484375 -0.1875q0.5 -0.1875 0.5 -0.578125q0 -0.296875 -0.390625 -0.453125q-0.375 -0.15625 -1.296875 -0.234375l-1.625 -0.125q-1.609375 -0.109375 -2.5625 -0.484375q-0.953125 -0.390625 -1.375 -0.984375q-0.40625 -0.59375 -0.40625 -1.359375q0 -1.046875 0.640625 -1.71875q0.65625 -0.6875 1.8125 -1.03125q1.15625 -0.34375 2.71875 -0.34375q1.53125 0 2.734375 0.40625q1.203125 0.390625 1.921875 1.109375q0.71875 0.703125 0.828125 1.671875l-3.3125 0q-0.078125 -0.3125 -0.359375 -0.5625q-0.265625 -0.25 -0.75 -0.40625q-0.46875 -0.15625 -1.234375 -0.15625q-0.875 0 -1.328125 0.203125q-0.453125 0.1875 -0.453125 0.53125q0 0.265625 0.28125 0.4375q0.28125 0.15625 1.046875 0.21875l2.125 0.15625q1.578125 0.09375 2.484375 0.46875q0.921875 0.359375 1.296875 0.953125q0.390625 0.578125 0.390625 1.40625zm6.8273926 3.21875q-1.765625 0 -3.078125 -0.59375q-1.3125 -0.59375 -2.046875 -1.6875q-0.734375 -1.109375 -0.734375 -2.53125q0 -1.453125 0.734375 -2.53125q0.734375 -1.09375 2.046875 -1.703125q1.3125 -0.609375 3.078125 -0.609375q1.734375 0 3.046875 0.609375q1.328125 0.609375 2.0625 1.703125q0.734375 1.078125 0.734375 2.53125q0 1.421875 -0.734375 2.53125q-0.734375 1.09375 -2.0625 1.6875q-1.3125 0.59375 -3.046875 0.59375zm0 -2.40625q0.796875 0 1.359375 -0.28125q0.5625 -0.296875 0.859375 -0.84375q0.3125 -0.546875 0.3125 -1.28125q0 -0.765625 -0.3125 -1.296875q-0.296875 -0.546875 -0.859375 -0.828125q-0.5625 -0.28125 -1.359375 -0.28125q-0.8125 0 -1.390625 0.28125q-0.5625 0.28125 -0.875 0.828125q-0.296875 0.53125 -0.296875 1.28125q0 0.75 0.296875 1.296875q0.3125 0.546875 0.875 0.84375q0.578125 0.28125 1.390625 0.28125zm7.2189026 -10.15625l3.28125 0l0 12.3125l-3.28125 0l0 -12.3125zm10.431381 12.5625q-1.65625 0 -2.96875 -0.59375q-1.296875 -0.609375 -2.046875 -1.703125q-0.75 -1.109375 -0.75 -2.5625q0 -1.421875 0.71875 -2.5q0.71875 -1.078125 1.96875 -1.6875q1.265625 -0.609375 2.84375 -0.609375q1.640625 0 2.796875 0.71875q1.171875 0.703125 1.796875 2.0q0.640625 1.296875 0.640625 3.0625l-8.125 0l0 -1.96875l6.28125 0l-1.0625 0.6875q-0.078125 -0.703125 -0.359375 -1.1875q-0.28125 -0.5 -0.765625 -0.75q-0.46875 -0.265625 -1.125 -0.265625q-0.71875 0 -1.234375 0.296875q-0.5 0.28125 -0.796875 0.796875q-0.28125 0.5 -0.28125 1.171875q0 0.859375 0.390625 1.46875q0.390625 0.59375 1.140625 0.921875q0.765625 0.3125 1.875 0.3125q1.0 0 2.0 -0.265625q1.0 -0.265625 1.828125 -0.75l0 2.078125q-0.953125 0.640625 -2.171875 0.984375q-1.203125 0.34375 -2.59375 0.34375z" fill-rule="nonzero"/><path fill="#000000" d="m120.66824 336.95703q0 -0.84375 0.171875 -1.765625q0.171875 -0.921875 0.46875 -1.78125q0.3125 -0.875 0.703125 -1.515625l0.859375 0q-0.40625 0.8125 -0.703125 1.703125q-0.296875 0.875 -0.453125 1.75q-0.15625 0.859375 -0.15625 1.609375q0 0.671875 0.140625 1.390625q0.140625 0.703125 0.421875 1.5q0.296875 0.78125 0.75 1.71875l-0.859375 0q-0.671875 -1.125 -1.015625 -2.296875q-0.328125 -1.171875 -0.328125 -2.3125z" fill-rule="nonzero"/><path fill="#000000" d="m127.55316 338.4414l0 -1.9375l0.234375 0l1.859375 -2.203125l1.84375 0l-2.5 2.921875l-0.390625 0l-1.046875 1.21875zm-1.46875 1.671875l0 -7.75l1.609375 0l0 7.75l-1.609375 0zm3.625 0l-1.703125 -2.53125l1.078125 -1.140625l2.515625 3.671875l-1.890625 0zm5.9578247 -2.46875l0 -3.34375l1.609375 0l0 5.8125l-1.546875 0l0 -1.0625l-0.0625 0q-0.203125 0.515625 -0.65625 0.828125q-0.453125 0.3125 -1.109375 0.3125q-0.578125 0 -1.03125 -0.265625q-0.4375 -0.265625 -0.6875 -0.75q-0.25 -0.5 -0.25 -1.171875l0 -3.703125l1.609375 0l0 3.421875q0 0.5 0.28125 0.8125q0.28125 0.296875 0.734375 0.28125q0.28125 0 0.53125 -0.125q0.25 -0.140625 0.40625 -0.40625q0.171875 -0.265625 0.171875 -0.640625zm4.155319 -0.890625l0 3.359375l-1.609375 0l0 -5.8125l1.59375 0l0 1.03125l0.046875 0q0.203125 -0.515625 0.625 -0.8125q0.4375 -0.296875 1.09375 -0.296875q0.59375 0 1.046875 0.265625q0.453125 0.265625 0.703125 0.765625q0.25 0.484375 0.25 1.15625l0 3.703125l-1.609375 0l0 -3.40625q0 -0.53125 -0.28125 -0.828125q-0.265625 -0.3125 -0.75 -0.3125q-0.328125 0 -0.578125 0.140625q-0.25 0.140625 -0.390625 0.40625q-0.140625 0.265625 -0.140625 0.640625z" fill-rule="nonzero"/><path fill="#000000" d="m149.29312 338.6914q-0.453125 0 -0.84375 -0.21875q-0.375 -0.234375 -0.609375 -0.609375q-0.21875 -0.390625 -0.21875 -0.84375q0 -0.453125 0.21875 -0.828125q0.234375 -0.390625 0.609375 -0.609375q0.390625 -0.21875 0.84375 -0.21875q0.453125 0 0.828125 0.21875q0.390625 0.21875 0.609375 0.609375q0.21875 0.375 0.21875 0.828125q0 0.453125 -0.21875 0.84375q-0.21875 0.375 -0.609375 0.609375q-0.375 0.21875 -0.828125 0.21875zm9.430176 -3.078125l-0.8125 0.21875q-0.109375 -0.296875 -0.390625 -0.5625q-0.28125 -0.28125 -0.859375 -0.28125q-0.53125 0 -0.890625 0.25q-0.34375 0.25 -0.34375 0.625q0 0.328125 0.234375 0.53125q0.25 0.1875 0.765625 0.3125l0.859375 0.21875q0.765625 0.1875 1.140625 0.578125q0.390625 0.375 0.390625 0.984375q0 0.5 -0.28125 0.90625q-0.28125 0.390625 -0.796875 0.625q-0.515625 0.21875 -1.1875 0.21875q-0.890625 0 -1.46875 -0.390625q-0.578125 -0.390625 -0.734375 -1.125l0.84375 -0.21875q0.125 0.46875 0.453125 0.703125q0.34375 0.234375 0.90625 0.234375q0.609375 0 0.984375 -0.265625q0.375 -0.265625 0.375 -0.640625q0 -0.609375 -0.875 -0.8125l-0.953125 -0.234375q-0.8125 -0.1875 -1.1875 -0.578125q-0.375 -0.40625 -0.375 -1.0q0 -0.5 0.28125 -0.875q0.28125 -0.375 0.765625 -0.59375q0.484375 -0.21875 1.09375 -0.21875q0.859375 0 1.34375 0.390625q0.5 0.375 0.71875 1.0zm3.3023376 4.625q-0.78125 0 -1.375 -0.375q-0.59375 -0.375 -0.921875 -1.046875q-0.328125 -0.6875 -0.328125 -1.578125q0 -0.90625 0.328125 -1.578125q0.328125 -0.6875 0.921875 -1.0625q0.59375 -0.375 1.375 -0.375q0.796875 0 1.390625 0.375q0.59375 0.375 0.921875 1.0625q0.328125 0.671875 0.328125 1.578125q0 0.890625 -0.328125 1.578125q-0.328125 0.671875 -0.921875 1.046875q-0.59375 0.375 -1.390625 0.375zm0 -0.796875q0.609375 0 0.984375 -0.3125q0.390625 -0.3125 0.578125 -0.8125q0.1875 -0.5 0.1875 -1.078125q0 -0.578125 -0.1875 -1.078125q-0.1875 -0.515625 -0.578125 -0.828125q-0.375 -0.3125 -0.984375 -0.3125q-0.59375 0 -0.984375 0.3125q-0.375 0.3125 -0.5625 0.828125q-0.1875 0.5 -0.1875 1.078125q0 0.578125 0.1875 1.078125q0.1875 0.5 0.5625 0.8125q0.390625 0.3125 0.984375 0.3125zm4.390106 -7.078125l0 7.75l-0.875 0l0 -7.75l0.875 0z" fill-rule="nonzero"/><path fill="#000000" d="m169.3648 341.5664q0.453125 -0.9375 0.734375 -1.71875q0.296875 -0.796875 0.4375 -1.5q0.140625 -0.71875 0.140625 -1.390625q0 -0.75 -0.15625 -1.609375q-0.15625 -0.875 -0.453125 -1.75q-0.296875 -0.890625 -0.703125 -1.703125l0.859375 0q0.40625 0.640625 0.703125 1.515625q0.296875 0.859375 0.46875 1.78125q0.171875 0.921875 0.171875 1.765625q0 1.140625 -0.34375 2.3125q-0.328125 1.171875 -1.0 2.296875l-0.859375 0z" fill-rule="nonzero"/></g></svg>