<svg version="1.1" viewBox="0.0 0.0 192.0 192.0" fill="none" stroke="none" stroke-linecap="square" stroke-miterlimit="10" xmlns:xlink="http://www.w3.org/1999/xlink" xmlns="http://www.w3.org/2000/svg"><clipPath id="p.0"><path d="m0 0l192.0 0l0 192.0l-192.0 0l0 -192.0z" clip-rule="nonzero"/></clipPath><g clip-path="url(#p.0)"><path fill="none" d="m0 0l192.0 0l0 192.0l-192.0 0z" fill-rule="evenodd"/><path fill="#161d25" d="m5.7007875 19.153603l0 0c0 -6.368702 5.1628532 -11.531555 11.531554 -11.531555l157.53531 0c3.0583649 0 5.991455 1.2149277 8.154037 3.377514c2.1625977 2.1625862 3.3775177 5.095682 3.3775177 8.154041l0 153.69281c0 6.368698 -5.162857 11.531555 -11.531555 11.531555l-157.53531 0l0 0c-6.368701 0 -11.531554 -5.162857 -11.531554 -11.531555z" fill-rule="evenodd"/><path stroke="#3b4652" stroke-width="4.0" stroke-linejoin="round" stroke-linecap="butt" d="m5.7007875 19.153603l0 0c0 -6.368702 5.1628532 -11.531555 11.531554 -11.531555l157.53531 0c3.0583649 0 5.991455 1.2149277 8.154037 3.377514c2.1625977 2.1625862 3.3775177 5.095682 3.3775177 8.154041l0 153.69281c0 6.368698 -5.162857 11.531555 -11.531555 11.531555l-157.53531 0l0 0c-6.368701 0 -11.531554 -5.162857 -11.531554 -11.531555z" fill-rule="evenodd"/><path fill="#000000" d="m97.85084 98.20459l0 0.703125l-3.890625 0q-0.015625 -0.265625 0.078125 -0.5q0.15625 -0.40625 0.484375 -0.78125q0.328125 -0.390625 0.9375 -0.890625q0.96875 -0.796875 1.296875 -1.25q0.34375 -0.46875 0.34375 -0.875q0 -0.4375 -0.3125 -0.71875q-0.296875 -0.296875 -0.796875 -0.296875q-0.515625 0 -0.828125 0.3125q-0.3125 0.3125 -0.328125 0.859375l-0.734375 -0.078125q0.078125 -0.828125 0.5625 -1.265625q0.5 -0.4375 1.34375 -0.4375q0.84375 0 1.34375 0.46875q0.5 0.46875 0.5 1.171875q0 0.359375 -0.15625 0.703125q-0.140625 0.328125 -0.484375 0.71875q-0.328125 0.375 -1.109375 1.03125q-0.640625 0.546875 -0.828125 0.75q-0.1875 0.1875 -0.3125 0.375l2.890625 0z" fill-rule="nonzero"/></g></svg>