<svg version="1.1" viewBox="0.0 0.0 768.0 96.0" fill="none" stroke="none" stroke-linecap="square" stroke-miterlimit="10" xmlns:xlink="http://www.w3.org/1999/xlink" xmlns="http://www.w3.org/2000/svg"><clipPath id="g3b25f17da62_0_5.0"><path d="m0 0l768.0 0l0 96.0l-768.0 0l0 -96.0z" clip-rule="nonzero"/></clipPath><g clip-path="url(#g3b25f17da62_0_5.0)"><path fill="#ffffff" d="m0 0l768.0 0l0 96.0l-768.0 0z" fill-rule="evenodd"/><path fill="#d0d1d2" d="m7.4015746 27.722761l0 0c0 -2.282156 1.8500533 -4.13221 4.1322093 -4.13221l744.9324 0c1.0959473 0 2.1469727 0.43535614 2.921936 1.2102966c0.7749634 0.7749386 1.2103271 1.825983 1.2103271 2.9219131l0 55.074165c0 2.2821503 -1.8500977 4.132202 -4.132263 4.132202l-744.9324 0c-2.282156 0 -4.1322093 -1.8500519 -4.1322093 -4.132202z" fill-rule="evenodd"/><path stroke="#d0d1d2" stroke-width="4.0" stroke-linejoin="round" stroke-linecap="butt" d="m7.4015746 27.722761l0 0c0 -2.282156 1.8500533 -4.13221 4.1322093 -4.13221l744.9324 0c1.0959473 0 2.1469727 0.43535614 2.921936 1.2102966c0.7749634 0.7749386 1.2103271 1.825983 1.2103271 2.9219131l0 55.074165c0 2.2821503 -1.8500977 4.132202 -4.132263 4.132202l-744.9324 0c-2.282156 0 -4.1322093 -1.8500519 -4.1322093 -4.132202z" fill-rule="evenodd"/><path fill="#f9f9f9" d="m7.4015746 16.18981l0 0c0 -2.4183369 1.9604497 -4.378786 4.3787856 -4.378786l744.43933 0c1.1613159 0 2.2750854 0.46133518 3.0962524 1.2825165c0.821167 0.8211813 1.2825317 1.9349432 1.2825317 3.0962696l0 58.360535c0 2.418335 -1.9604492 4.378784 -4.378784 4.378784l-744.43933 0c-2.418336 0 -4.3787856 -1.9604492 -4.3787856 -4.378784z" fill-rule="evenodd"/><path stroke="#d0d1d2" stroke-width="4.0" stroke-linejoin="round" stroke-linecap="butt" d="m7.4015746 16.18981l0 0c0 -2.4183369 1.9604497 -4.378786 4.3787856 -4.378786l744.43933 0c1.1613159 0 2.2750854 0.46133518 3.0962524 1.2825165c0.821167 0.8211813 1.2825317 1.9349432 1.2825317 3.0962696l0 58.360535c0 2.418335 -1.9604492 4.378784 -4.378784 4.378784l-744.43933 0c-2.418336 0 -4.3787856 -1.9604492 -4.3787856 -4.378784z" fill-rule="evenodd"/><path fill="#000000" d="m281.81702 46.08695q-0.21875 1.875 -1.296875 3.28125q-1.078125 1.40625 -2.828125 2.1875q-1.734375 0.765625 -4.015625 0.765625q-2.46875 0 -4.328125 -0.921875q-1.84375 -0.921875 -2.875 -2.578125q-1.03125 -1.671875 -1.03125 -3.890625q0 -2.203125 1.03125 -3.859375q1.03125 -1.671875 2.875 -2.59375q1.859375 -0.9375 4.328125 -0.9375q2.28125 0 4.015625 0.78125q1.75 0.765625 2.828125 2.1875q1.078125 1.40625 1.296875 3.265625l-3.9375 0q-0.1875 -0.90625 -0.734375 -1.53125q-0.546875 -0.640625 -1.4375 -0.96875q-0.875 -0.34375 -2.03125 -0.34375q-1.3125 0 -2.28125 0.484375q-0.96875 0.46875 -1.484375 1.375q-0.5 0.890625 -0.5 2.140625q0 1.25 0.5 2.15625q0.515625 0.890625 1.484375 1.375q0.96875 0.484375 2.28125 0.484375q1.15625 0 2.03125 -0.3125q0.890625 -0.328125 1.4375 -0.96875q0.546875 -0.65625 0.734375 -1.578125l3.9375 0zm1.0516357 -4.859375l3.9375 0l0.640625 3.859375l0 6.9375l-3.859375 0l0 -7.171875l-0.71875 -3.625zm9.640625 -0.171875l0 3.296875q-0.5625 -0.125 -1.0625 -0.171875q-0.5 -0.046875 -0.921875 -0.046875q-0.828125 0 -1.53125 0.34375q-0.703125 0.328125 -1.125 1.09375q-0.421875 0.75 -0.421875 2.015625l-0.734375 -0.90625q0.140625 -1.171875 0.4375 -2.203125q0.3125 -1.03125 0.828125 -1.828125q0.53125 -0.8125 1.296875 -1.265625q0.78125 -0.46875 1.890625 -0.46875q0.328125 0 0.65625 0.03125q0.34375 0.03125 0.6875 0.109375zm7.374695 11.265625q-1.96875 0 -3.515625 -0.71875q-1.53125 -0.71875 -2.421875 -2.0q-0.890625 -1.296875 -0.890625 -3.015625q0 -1.6875 0.84375 -2.96875q0.859375 -1.28125 2.34375 -1.984375q1.484375 -0.71875 3.359375 -0.71875q1.953125 0 3.3125 0.84375q1.375 0.828125 2.125 2.359375q0.75 1.53125 0.75 3.609375l-9.609375 0l0 -2.328125l7.421875 0l-1.265625 0.828125q-0.0625 -0.84375 -0.40625 -1.421875q-0.34375 -0.578125 -0.90625 -0.875q-0.546875 -0.296875 -1.328125 -0.296875q-0.84375 0 -1.453125 0.34375q-0.609375 0.328125 -0.953125 0.9375q-0.328125 0.59375 -0.328125 1.375q0 1.03125 0.453125 1.734375q0.46875 0.703125 1.359375 1.09375q0.90625 0.375 2.203125 0.375q1.203125 0 2.375 -0.3125q1.1875 -0.3125 2.140625 -0.875l0 2.453125q-1.109375 0.75 -2.546875 1.15625q-1.421875 0.40625 -3.0625 0.40625zm17.299133 -0.296875l-0.484375 -3.890625l0.5 -1.5l-0.5 -1.484375l0.484375 -3.921875l4.015625 0l-0.6875 5.390625l0.6875 5.40625l-4.015625 0zm0.90625 -5.390625q-0.265625 1.703125 -1.046875 3.0q-0.78125 1.28125 -1.984375 1.984375q-1.203125 0.703125 -2.734375 0.703125q-1.578125 0 -2.78125 -0.703125q-1.203125 -0.703125 -1.890625 -2.0q-0.671875 -1.296875 -0.671875 -2.984375q0 -1.71875 0.671875 -3.0q0.6875 -1.296875 1.890625 -2.0q1.203125 -0.71875 2.78125 -0.71875q1.53125 0 2.734375 0.703125q1.203125 0.703125 1.984375 1.984375q0.796875 1.28125 1.046875 3.03125zm-7.203125 0q0 0.796875 0.328125 1.421875q0.34375 0.625 0.921875 0.984375q0.59375 0.34375 1.34375 0.34375q0.796875 0 1.484375 -0.34375q0.703125 -0.359375 1.234375 -0.984375q0.53125 -0.625 0.796875 -1.421875q-0.265625 -0.8125 -0.796875 -1.4375q-0.53125 -0.625 -1.234375 -0.984375q-0.6875 -0.359375 -1.484375 -0.359375q-0.75 0 -1.34375 0.359375q-0.578125 0.359375 -0.921875 0.984375q-0.328125 0.625 -0.328125 1.4375zm11.210388 -2.546875l0 -1.6875l2.203125 -0.890625l1.65625 -3.1875l2.1875 0l0 2.90625l4.546875 0l0 2.859375l-4.546875 0l0 3.171875q0 1.171875 0.46875 1.65625q0.484375 0.46875 1.734375 0.46875q0.796875 0 1.40625 -0.140625q0.609375 -0.15625 1.125 -0.375l0 2.90625q-0.5625 0.21875 -1.5 0.375q-0.921875 0.171875 -1.90625 0.171875q-1.796875 0 -2.9375 -0.546875q-1.140625 -0.546875 -1.6875 -1.578125q-0.546875 -1.03125 -0.546875 -2.40625l0 -3.703125l-2.203125 0zm18.3414 8.234375q-1.96875 0 -3.515625 -0.71875q-1.53125 -0.71875 -2.421875 -2.0q-0.890625 -1.296875 -0.890625 -3.015625q0 -1.6875 0.84375 -2.96875q0.859375 -1.28125 2.34375 -1.984375q1.484375 -0.71875 3.359375 -0.71875q1.953125 0 3.3125 0.84375q1.375 0.828125 2.125 2.359375q0.75 1.53125 0.75 3.609375l-9.609375 0l0 -2.328125l7.421875 0l-1.265625 0.828125q-0.0625 -0.84375 -0.40625 -1.421875q-0.34375 -0.578125 -0.90625 -0.875q-0.546875 -0.296875 -1.328125 -0.296875q-0.84375 0 -1.453125 0.34375q-0.609375 0.328125 -0.953125 0.9375q-0.328125 0.59375 -0.328125 1.375q0 1.03125 0.453125 1.734375q0.46875 0.703125 1.359375 1.09375q0.90625 0.375 2.203125 0.375q1.203125 0 2.375 -0.3125q1.1875 -0.3125 2.140625 -0.875l0 2.453125q-1.109375 0.75 -2.546875 1.15625q-1.421875 0.40625 -3.0625 0.40625zm21.987915 -0.296875l-0.484375 -3.890625l0.5 -1.5l-0.5 -1.484375l0.484375 -3.921875l4.015625 0l-0.6875 5.390625l0.6875 5.40625l-4.015625 0zm0.90625 -5.390625q-0.265625 1.703125 -1.046875 3.0q-0.78125 1.28125 -1.984375 1.984375q-1.203125 0.703125 -2.734375 0.703125q-1.578125 0 -2.78125 -0.703125q-1.203125 -0.703125 -1.890625 -2.0q-0.671875 -1.296875 -0.671875 -2.984375q0 -1.71875 0.671875 -3.0q0.6875 -1.296875 1.890625 -2.0q1.203125 -0.71875 2.78125 -0.71875q1.53125 0 2.734375 0.703125q1.203125 0.703125 1.984375 1.984375q0.796875 1.28125 1.046875 3.03125zm-7.203125 0q0 0.796875 0.328125 1.421875q0.34375 0.625 0.921875 0.984375q0.59375 0.34375 1.34375 0.34375q0.796875 0 1.484375 -0.34375q0.703125 -0.359375 1.234375 -0.984375q0.53125 -0.625 0.796875 -1.421875q-0.265625 -0.8125 -0.796875 -1.4375q-0.53125 -0.625 -1.234375 -0.984375q-0.6875 -0.359375 -1.484375 -0.359375q-0.75 0 -1.34375 0.359375q-0.578125 0.359375 -0.921875 0.984375q-0.328125 0.625 -0.328125 1.4375zm24.5242 -6.59375q-1.265625 0 -1.765625 0.453125q-0.5 0.4375 -0.5 1.421875l0 10.109375l-3.859375 0l0 -9.921875q0 -1.578125 0.640625 -2.671875q0.640625 -1.109375 1.890625 -1.6875q1.265625 -0.578125 3.125 -0.578125q0.828125 0 1.484375 0.109375q0.65625 0.109375 1.390625 0.328125l0 2.828125q-0.578125 -0.203125 -1.171875 -0.296875q-0.59375 -0.09375 -1.234375 -0.09375zm-8.3125 4.9375l0 -2.859375l10.453125 0l0 2.859375l-10.453125 0zm11.260834 -3.75l3.9375 0l0.640625 3.859375l0 6.9375l-3.859375 0l0 -7.171875l-0.71875 -3.625zm9.640625 -0.171875l0 3.296875q-0.5625 -0.125 -1.0625 -0.171875q-0.5 -0.046875 -0.921875 -0.046875q-0.828125 0 -1.53125 0.34375q-0.703125 0.328125 -1.125 1.09375q-0.421875 0.75 -0.421875 2.015625l-0.734375 -0.90625q0.140625 -1.171875 0.4375 -2.203125q0.3125 -1.03125 0.828125 -1.828125q0.53125 -0.8125 1.296875 -1.265625q0.78125 -0.46875 1.890625 -0.46875q0.328125 0 0.65625 0.03125q0.34375 0.03125 0.6875 0.109375zm7.3746643 11.265625q-1.96875 0 -3.515625 -0.71875q-1.53125 -0.71875 -2.421875 -2.0q-0.890625 -1.296875 -0.890625 -3.015625q0 -1.6875 0.84375 -2.96875q0.859375 -1.28125 2.34375 -1.984375q1.484375 -0.71875 3.359375 -0.71875q1.953125 0 3.3125 0.84375q1.375 0.828125 2.125 2.359375q0.75 1.53125 0.75 3.609375l-9.609375 0l0 -2.328125l7.421875 0l-1.265625 0.828125q-0.0625 -0.84375 -0.40625 -1.421875q-0.34375 -0.578125 -0.90625 -0.875q-0.546875 -0.296875 -1.328125 -0.296875q-0.84375 0 -1.453125 0.34375q-0.609375 0.328125 -0.953125 0.9375q-0.328125 0.59375 -0.328125 1.375q0 1.03125 0.453125 1.734375q0.46875 0.703125 1.359375 1.09375q0.90625 0.375 2.203125 0.375q1.203125 0 2.375 -0.3125q1.1875 -0.3125 2.140625 -0.875l0 2.453125q-1.109375 0.75 -2.546875 1.15625q-1.421875 0.40625 -3.0625 0.40625zm13.877258 0q-1.96875 0 -3.515625 -0.71875q-1.53125 -0.71875 -2.421875 -2.0q-0.890625 -1.296875 -0.890625 -3.015625q0 -1.6875 0.84375 -2.96875q0.859375 -1.28125 2.34375 -1.984375q1.484375 -0.71875 3.359375 -0.71875q1.953125 0 3.3125 0.84375q1.375 0.828125 2.125 2.359375q0.75 1.53125 0.75 3.609375l-9.609375 0l0 -2.328125l7.421875 0l-1.265625 0.828125q-0.0625 -0.84375 -0.40625 -1.421875q-0.34375 -0.578125 -0.90625 -0.875q-0.546875 -0.296875 -1.328125 -0.296875q-0.84375 0 -1.453125 0.34375q-0.609375 0.328125 -0.953125 0.9375q-0.328125 0.59375 -0.328125 1.375q0 1.03125 0.453125 1.734375q0.46875 0.703125 1.359375 1.09375q0.90625 0.375 2.203125 0.375q1.203125 0 2.375 -0.3125q1.1875 -0.3125 2.140625 -0.875l0 2.453125q-1.109375 0.75 -2.546875 1.15625q-1.421875 0.40625 -3.0625 0.40625zm12.237915 -11.09375l3.875 0l0 3.109375l-0.171875 0.453125l0 3.015625l0.171875 0.890625l0 6.453125l-3.875 0l0 -13.921875zm2.640625 5.40625q0.25 -1.75 1.03125 -3.03125q0.78125 -1.28125 1.984375 -1.984375q1.21875 -0.703125 2.75 -0.703125q1.59375 0 2.796875 0.71875q1.203125 0.703125 1.859375 2.0q0.671875 1.28125 0.671875 3.0q0 1.6875 -0.671875 2.984375q-0.65625 1.296875 -1.859375 2.0q-1.203125 0.703125 -2.796875 0.703125q-1.53125 0 -2.75 -0.703125q-1.203125 -0.703125 -1.984375 -1.984375q-0.765625 -1.296875 -1.03125 -3.0zm7.203125 0q0 -0.8125 -0.328125 -1.4375q-0.328125 -0.625 -0.921875 -0.984375q-0.59375 -0.359375 -1.359375 -0.359375q-0.765625 0 -1.46875 0.359375q-0.703125 0.359375 -1.234375 0.984375q-0.53125 0.625 -0.8125 1.4375q0.28125 0.796875 0.8125 1.421875q0.53125 0.625 1.234375 0.984375q0.703125 0.34375 1.46875 0.34375q0.765625 0 1.359375 -0.34375q0.59375 -0.359375 0.921875 -0.984375q0.328125 -0.625 0.328125 -1.421875zm4.992584 -5.40625l3.9375 0l0.640625 3.859375l0 6.9375l-3.859375 0l0 -7.171875l-0.71875 -3.625zm9.640625 -0.171875l0 3.296875q-0.5625 -0.125 -1.0625 -0.171875q-0.5 -0.046875 -0.921875 -0.046875q-0.828125 0 -1.53125 0.34375q-0.703125 0.328125 -1.125 1.09375q-0.421875 0.75 -0.421875 2.015625l-0.734375 -0.90625q0.140625 -1.171875 0.4375 -2.203125q0.3125 -1.03125 0.828125 -1.828125q0.53125 -0.8125 1.296875 -1.265625q0.78125 -0.46875 1.890625 -0.46875q0.328125 0 0.65625 0.03125q0.34375 0.03125 0.6875 0.109375zm7.4684143 11.265625q-2.078125 0 -3.625 -0.703125q-1.546875 -0.703125 -2.421875 -2.0q-0.875 -1.296875 -0.875 -2.984375q0 -1.71875 0.875 -3.0q0.875 -1.296875 2.421875 -2.0q1.546875 -0.71875 3.625 -0.71875q2.0625 0 3.625 0.71875q1.5625 0.703125 2.421875 2.0q0.875 1.28125 0.875 3.0q0 1.6875 -0.875 2.984375q-0.859375 1.296875 -2.421875 2.0q-1.5625 0.703125 -3.625 0.703125zm0 -2.84375q0.953125 0 1.625 -0.34375q0.671875 -0.34375 1.03125 -0.984375q0.359375 -0.640625 0.359375 -1.515625q0 -0.90625 -0.359375 -1.53125q-0.359375 -0.640625 -1.03125 -0.984375q-0.671875 -0.34375 -1.625 -0.34375q-0.9375 0 -1.625 0.34375q-0.671875 0.34375 -1.03125 0.984375q-0.359375 0.625 -0.359375 1.515625q0 0.890625 0.359375 1.53125q0.359375 0.640625 1.03125 0.984375q0.6875 0.34375 1.625 0.34375zm16.066772 -9.4375q-1.09375 0 -1.59375 0.40625q-0.484375 0.390625 -0.484375 1.28125l0 10.296875l-3.859375 0l0 -9.96875q0 -1.5625 0.625 -2.65625q0.625 -1.09375 1.84375 -1.65625q1.21875 -0.578125 3.015625 -0.578125q0.75 0 1.328125 0.109375q0.59375 0.109375 1.1875 0.328125l0 2.828125q-0.484375 -0.203125 -0.984375 -0.296875q-0.5 -0.09375 -1.078125 -0.09375zm-8.125 4.9375l0 -2.859375l10.015625 0l0 2.859375l-10.015625 0zm11.84375 -3.921875l1.921875 0.375l1.921875 -0.375l0 10.96875l-3.84375 0l0 -10.96875zm1.921875 -0.890625q-1.0 0 -1.625 -0.5q-0.625 -0.5 -0.625 -1.359375q0 -0.859375 0.625 -1.359375q0.625 -0.515625 1.625 -0.515625q1.015625 0 1.625 0.515625q0.625 0.5 0.625 1.359375q0 0.859375 -0.625 1.359375q-0.609375 0.5 -1.625 0.5zm4.0682373 -2.703125l3.875 0l0 14.5625l-3.875 0l0 -14.5625zm12.321442 14.859375q-1.96875 0 -3.515625 -0.71875q-1.53125 -0.71875 -2.421875 -2.0q-0.890625 -1.296875 -0.890625 -3.015625q0 -1.6875 0.84375 -2.96875q0.859375 -1.28125 2.34375 -1.984375q1.484375 -0.71875 3.359375 -0.71875q1.953125 0 3.3125 0.84375q1.375 0.828125 2.125 2.359375q0.75 1.53125 0.75 3.609375l-9.609375 0l0 -2.328125l7.421875 0l-1.265625 0.828125q-0.0625 -0.84375 -0.40625 -1.421875q-0.34375 -0.578125 -0.90625 -0.875q-0.546875 -0.296875 -1.328125 -0.296875q-0.84375 0 -1.453125 0.34375q-0.609375 0.328125 -0.953125 0.9375q-0.328125 0.59375 -0.328125 1.375q0 1.03125 0.453125 1.734375q0.46875 0.703125 1.359375 1.09375q0.90625 0.375 2.203125 0.375q1.203125 0 2.375 -0.3125q1.1875 -0.3125 2.140625 -0.875l0 2.453125q-1.109375 0.75 -2.546875 1.15625q-1.421875 0.40625 -3.0625 0.40625z" fill-rule="nonzero"/></g></svg>