<svg version="1.1" viewBox="0.0 0.0 288.0 384.0" fill="none" stroke="none" stroke-linecap="square" stroke-miterlimit="10" xmlns:xlink="http://www.w3.org/1999/xlink" xmlns="http://www.w3.org/2000/svg"><clipPath id="g3a72db97a13_0_3069.0"><path d="m0 0l288.0 0l0 384.0l-288.0 0l0 -384.0z" clip-rule="nonzero"/></clipPath><g clip-path="url(#g3a72db97a13_0_3069.0)"><path fill="#ffffff" d="m0 0l288.0 0l0 384.0l-288.0 0z" fill-rule="evenodd"/><path fill="#d0d1d2" d="m5.7007875 34.135216l0 0c0 -9.966135 8.079147 -18.045282 18.04528 -18.045282l240.50787 0c4.7858887 0 9.375793 1.9011936 12.759949 5.2853394c3.3841248 3.3841476 5.2853394 7.9740353 5.2853394 12.759943l0 324.2244c0 9.9661255 -8.079163 18.045288 -18.045288 18.045288l-240.50787 0l0 0c-9.966134 0 -18.04528 -8.079163 -18.04528 -18.045288z" fill-rule="evenodd"/><path stroke="#d0d1d2" stroke-width="4.0" stroke-linejoin="round" stroke-linecap="butt" d="m5.7007875 34.135216l0 0c0 -9.966135 8.079147 -18.045282 18.04528 -18.045282l240.50787 0c4.7858887 0 9.375793 1.9011936 12.759949 5.2853394c3.3841248 3.3841476 5.2853394 7.9740353 5.2853394 12.759943l0 324.2244c0 9.9661255 -8.079163 18.045288 -18.045288 18.045288l-240.50787 0l0 0c-9.966134 0 -18.04528 -8.079163 -18.04528 -18.045288z" fill-rule="evenodd"/><path fill="#ffffff" d="m5.7007875 25.639769l0 0c0 -9.966133 8.079147 -18.04528 18.04528 -18.04528l240.50787 0c4.7858887 0 9.375793 1.9011936 12.759949 5.2853403c3.3841248 3.3841467 5.2853394 7.9740343 5.2853394 12.75994l0 324.2244c0 9.9661255 -8.079163 18.045288 -18.045288 18.045288l-240.50787 0l0 0c-9.966134 0 -18.04528 -8.079163 -18.04528 -18.045288z" fill-rule="evenodd"/><path stroke="#d0d1d2" stroke-width="4.0" stroke-linejoin="round" stroke-linecap="butt" d="m5.7007875 25.639769l0 0c0 -9.966133 8.079147 -18.04528 18.04528 -18.04528l240.50787 0c4.7858887 0 9.375793 1.9011936 12.759949 5.2853403c3.3841248 3.3841467 5.2853394 7.9740343 5.2853394 12.75994l0 324.2244c0 9.9661255 -8.079163 18.045288 -18.045288 18.045288l-240.50787 0l0 0c-9.966134 0 -18.04528 -8.079163 -18.04528 -18.045288z" fill-rule="evenodd"/><path fill="#d0d1d2" d="m136.53206 134.69522l0 0c0 -3.178238 2.5764618 -5.7546997 5.7546844 -5.7546997l23.018082 0l0 0c1.5262451 0 2.9899597 0.6062927 4.0691833 1.6855164c1.0792084 1.0792084 1.6855011 2.5429382 1.6855011 4.0691833l0 98.28842c0 3.178238 -2.5764618 5.7546997 -5.7546844 5.7546997l-23.018082 0c-3.1782227 0 -5.7546844 -2.5764618 -5.7546844 -5.7546997z" fill-rule="evenodd"/><path fill="#d0d1d2" d="m136.53206 216.92828l0 0c0 -2.4072723 1.951477 -4.3587494 4.3587494 -4.3587494l25.809952 0c1.1560211 0 2.264679 0.45921326 3.0821075 1.2766418c0.8174286 0.8174286 1.2766418 1.9260864 1.2766418 3.0821075l0 17.434479c0 2.4072723 -1.951477 4.3587494 -4.3587494 4.3587494l-25.809952 0l0 0c-2.4072723 0 -4.3587494 -1.951477 -4.3587494 -4.3587494z" fill-rule="evenodd"/><path fill="#d0d1d2" d="m157.868 191.10825l0 0c0 -1.2116394 0.9822235 -2.1938782 2.193863 -2.1938782l8.775223 0l0 0c0.58184814 0 1.1398773 0.23114014 1.5513 0.6425781c0.411438 0.41142273 0.6425781 0.9694519 0.6425781 1.5513l0 45.40988c0 1.2116394 -0.98223877 2.1938782 -2.1938782 2.1938782l-8.775223 0c-1.2116394 0 -2.193863 -0.98223877 -2.193863 -2.1938782z" fill-rule="evenodd"/><path fill="#d0d1d2" d="m136.53206 191.10825l0 0c0 -1.2116394 0.9822235 -2.1938782 2.193863 -2.1938782l8.775223 0l0 0c0.58184814 0 1.1398773 0.23114014 1.5513 0.6425781c0.411438 0.41142273 0.6425781 0.9694519 0.6425781 1.5513l0 45.40988c0 1.2116394 -0.98223877 2.1938782 -2.1938782 2.1938782l-8.775223 0c-1.2116394 0 -2.193863 -0.98223877 -2.193863 -2.1938782z" fill-rule="evenodd"/><path fill="#d0d1d2" d="m157.868 214.25713l0 0c0 -0.93203735 0.7555542 -1.6875916 1.6875916 -1.6875916l6.750168 0l0 0c0.4475708 0 0.8768158 0.17779541 1.1933136 0.49427795c0.31648254 0.31648254 0.49427795 0.74572754 0.49427795 1.1933136l0 15.71347c0 0.93203735 -0.7555542 1.6876068 -1.6875916 1.6876068l-6.750168 0c-0.93203735 0 -1.6875916 -0.75556946 -1.6875916 -1.6876068z" fill-rule="evenodd"/><path fill="#d0d1d2" d="m136.53206 149.66743l0 0c0 -1.4518127 1.1769257 -2.6287537 2.6287537 -2.6287537l29.269943 0c0.69718933 0 1.3658295 0.27696228 1.8588104 0.76994324c0.49299622 0.49299622 0.76994324 1.1616211 0.76994324 1.8588104l0 10.514694c0 1.451828 -1.1769257 2.6287537 -2.6287537 2.6287537l-29.269943 0l0 0c-1.451828 0 -2.6287537 -1.1769257 -2.6287537 -2.6287537z" fill-rule="evenodd"/><path fill="#d0d1d2" d="m123.35824 127.57727l0 0c0 -2.1485977 1.7417831 -3.8903809 3.8903809 -3.8903809l53.07261 0c1.0317993 0 2.0213318 0.40987396 2.7509155 1.1394653c0.729599 0.72959137 1.1394806 1.7191238 1.1394806 2.7509155l0 15.561081c0 2.14859 -1.7417908 3.8903809 -3.890396 3.8903809l-53.07261 0l0 0c-2.1485977 0 -3.8903809 -1.7417908 -3.8903809 -3.8903809z" fill-rule="evenodd"/><path fill="#d0d1d2" d="m136.53206 135.97505l0 0c0 -1.2234497 0.9917908 -2.2152405 2.2152405 -2.2152405l30.09697 0c0.5875244 0 1.1509857 0.23338318 1.5664215 0.64881897c0.4154358 0.4154358 0.64881897 0.9788971 0.64881897 1.5664215l0 8.860687c0 1.2234497 -0.9917908 2.2152405 -2.2152405 2.2152405l-30.09697 0l0 0c-1.2234497 0 -2.2152405 -0.9917908 -2.2152405 -2.2152405z" fill-rule="evenodd"/><path fill="#d0d1d2" d="m80.28653 122.69295l0 0c0 -5.208374 4.222229 -9.430595 9.430603 -9.430595l41.992188 0c2.5011444 0 4.8998566 0.99357605 6.6684265 2.7621536c1.7685852 1.7685852 2.7621613 4.1672897 2.7621613 6.668442l0 37.721268c0 5.208374 -4.2222137 9.430588 -9.430588 9.430588l-41.992188 0l0 0c-5.208374 0 -9.430603 -4.2222137 -9.430603 -9.430588z" fill-rule="evenodd"/><path fill="#d0d1d2" d="m162.86073 124.41762l0 0c0 -4.732979 3.8368378 -8.569817 8.569824 -8.569817l43.713745 0c2.2728577 0 4.4526215 0.90288544 6.0597687 2.5100403c1.6071625 1.6071548 2.5100555 3.7869186 2.5100555 6.0597763l0 34.278244c0 4.7329865 -3.836853 8.569824 -8.569824 8.569824l-43.713745 0c-4.7329865 0 -8.569824 -3.8368378 -8.569824 -8.569824z" fill-rule="evenodd"/><path fill="#d0d1d2" d="m80.296875 158.79596l0 0c0 -1.2234344 0.9917984 -2.2152405 2.2152405 -2.2152405l56.422897 0c0.58750916 0 1.1509705 0.23339844 1.5664062 0.6488342c0.4154358 0.4154358 0.6488342 0.9788971 0.6488342 1.5664062l0 8.8607025c0 1.2234497 -0.9917908 2.2152405 -2.2152405 2.2152405l-56.422897 0c-1.2234421 0 -2.2152405 -0.9917908 -2.2152405 -2.2152405z" fill-rule="evenodd"/><path fill="#d0d1d2" d="m162.86073 158.36136l0 0c0 -0.9834137 0.79722595 -1.7806396 1.7806396 -1.7806396l57.292114 0c0.47225952 0 0.9251709 0.18760681 1.2590942 0.52153015c0.3339386 0.3339386 0.5215454 0.78685 0.5215454 1.2591095l0 7.1223145c0 0.9834137 -0.79722595 1.7806244 -1.7806396 1.7806244l-57.292114 0c-0.9834137 0 -1.7806396 -0.7972107 -1.7806396 -1.7806244z" fill-rule="evenodd"/><path fill="#d0d1d2" d="m80.28653 118.40171l0 0c0 -2.8383942 2.300972 -5.1393585 5.1393585 -5.1393585l32.77935 0c1.3630447 0 2.6702652 0.54146576 3.634079 1.5052795c0.9638138 0.9638214 1.5052872 2.2710342 1.5052872 3.634079l0 20.556816c0 2.8383942 -2.300972 5.1393585 -5.139366 5.1393585l-32.77935 0l0 0c-2.8383865 0 -5.1393585 -2.3009644 -5.1393585 -5.1393585z" fill-rule="evenodd"/><path fill="#d0d1d2" d="m162.86073 119.73818l0 0c0 -2.1485977 1.7417908 -3.8903809 3.890396 -3.8903809l30.088043 0c1.0317993 0 2.0213318 0.40987396 2.7509308 1.1394653c0.72958374 0.72959137 1.1394653 1.7191238 1.1394653 2.7509155l0 15.561073c0 2.1486053 -1.7417908 3.890396 -3.890396 3.890396l-30.088043 0c-2.1486053 0 -3.890396 -1.7417908 -3.890396 -3.890396z" fill-rule="evenodd"/><path fill="#d0d1d2" d="m106.93749 133.44579l0 0c0 -1.7570953 1.424408 -3.1815033 3.181511 -3.1815033l15.305244 0c0.84378815 0 1.6530151 0.33518982 2.2496643 0.931839c0.59664154 0.59664917 0.9318466 1.4058685 0.9318466 2.2496643l0 12.725647c0 1.7570953 -1.4244156 3.1815186 -3.181511 3.1815186l-15.305244 0l0 0c-1.757103 0 -3.181511 -1.4244232 -3.181511 -3.1815186z" fill-rule="evenodd"/><path fill="#d0d1d2" d="m184.30698 128.54376l0 0c0 -1.7570953 1.424408 -3.1815033 3.1815033 -3.1815033l15.305252 0c0.8437805 0 1.6530151 0.33519745 2.2496643 0.9318466c0.59664917 0.59664917 0.931839 1.4058762 0.931839 2.2496567l0 12.725662c0 1.7570953 -1.424408 3.1815033 -3.1815033 3.1815033l-15.305252 0l0 0c-1.7570953 0 -3.1815033 -1.424408 -3.1815033 -3.1815033z" fill-rule="evenodd"/><path fill="#fb5c4e" d="m120.53206 118.69521l0 0c0 -3.1782227 2.5764618 -5.754692 5.754692 -5.754692l23.018074 0l0 0c1.5262451 0 2.9899597 0.60630035 4.0691833 1.6855164c1.0792084 1.0792084 1.6855011 2.5429382 1.6855011 4.0691757l0 98.28843c0 3.178238 -2.5764618 5.7546997 -5.7546844 5.7546997l-23.018074 0c-3.1782303 0 -5.754692 -2.5764618 -5.754692 -5.7546997z" fill-rule="evenodd"/><path fill="#fc8076" d="m120.53206 200.92828l0 0c0 -2.4072723 1.951477 -4.3587494 4.3587494 -4.3587494l25.809952 0c1.1560211 0 2.264679 0.45921326 3.0821075 1.2766418c0.8174286 0.8174286 1.2766418 1.9260864 1.2766418 3.0821075l0 17.434479c0 2.4072723 -1.951477 4.3587494 -4.3587494 4.3587494l-25.809952 0l0 0c-2.4072723 0 -4.3587494 -1.951477 -4.3587494 -4.3587494z" fill-rule="evenodd"/><path fill="#fc8076" d="m141.868 175.10825l0 0c0 -1.2116394 0.9822235 -2.1938782 2.193863 -2.1938782l8.775223 0l0 0c0.58184814 0 1.1398773 0.23114014 1.5513 0.6425781c0.411438 0.41142273 0.6425781 0.9694519 0.6425781 1.5513l0 45.40988c0 1.2116394 -0.98223877 2.1938782 -2.1938782 2.1938782l-8.775223 0c-1.2116394 0 -2.193863 -0.98223877 -2.193863 -2.1938782z" fill-rule="evenodd"/><path fill="#fc8076" d="m120.53206 175.10825l0 0c0 -1.2116394 0.98223114 -2.1938782 2.1938705 -2.1938782l8.775215 0l0 0c0.58184814 0 1.1398773 0.23114014 1.5513 0.6425781c0.411438 0.41142273 0.6425781 0.9694519 0.6425781 1.5513l0 45.40988c0 1.2116394 -0.98223877 2.1938782 -2.1938782 2.1938782l-8.775215 0c-1.2116394 0 -2.1938705 -0.98223877 -2.1938705 -2.1938782z" fill-rule="evenodd"/><path fill="#fb5c4e" d="m141.868 198.25713l0 0c0 -0.93203735 0.7555542 -1.6875916 1.6875916 -1.6875916l6.750168 0l0 0c0.4475708 0 0.8768158 0.17779541 1.1933136 0.49427795c0.31648254 0.31648254 0.49427795 0.74572754 0.49427795 1.1933136l0 15.71347c0 0.93203735 -0.7555542 1.6876068 -1.6875916 1.6876068l-6.750168 0c-0.93203735 0 -1.6875916 -0.75556946 -1.6875916 -1.6876068z" fill-rule="evenodd"/><path fill="#f73d35" d="m120.53206 133.66743l0 0c0 -1.4518127 1.1769333 -2.6287537 2.6287537 -2.6287537l29.269943 0c0.69718933 0 1.3658295 0.27696228 1.8588104 0.76994324c0.49299622 0.49299622 0.76994324 1.1616211 0.76994324 1.8588104l0 10.514694c0 1.451828 -1.1769257 2.6287537 -2.6287537 2.6287537l-29.269943 0l0 0c-1.4518204 0 -2.6287537 -1.1769257 -2.6287537 -2.6287537z" fill-rule="evenodd"/><path fill="#fb5c4e" d="m107.35824 111.57727l0 0c0 -2.1485977 1.7417831 -3.8903809 3.8903809 -3.8903809l53.07261 0c1.0317993 0 2.0213318 0.40987396 2.7509155 1.1394653c0.729599 0.72959137 1.1394806 1.7191238 1.1394806 2.7509155l0 15.561081c0 2.14859 -1.7417908 3.8903809 -3.890396 3.8903809l-53.07261 0l0 0c-2.1485977 0 -3.8903809 -1.7417908 -3.8903809 -3.8903809z" fill-rule="evenodd"/><path fill="#fc8076" d="m120.53206 119.975044l0 0c0 -1.2234421 0.9917984 -2.2152405 2.2152405 -2.2152405l30.09697 0c0.5875244 0 1.1509857 0.23339081 1.5664215 0.6488342c0.4154358 0.4154358 0.64881897 0.97888947 0.64881897 1.5664062l0 8.860695c0 1.2234497 -0.9917908 2.2152405 -2.2152405 2.2152405l-30.09697 0l0 0c-1.2234421 0 -2.2152405 -0.9917908 -2.2152405 -2.2152405z" fill-rule="evenodd"/><path fill="#fb5c4e" d="m64.28653 106.69295l0 0c0 -5.208374 4.222229 -9.430595 9.430603 -9.430595l41.99218 0c2.501152 0 4.899864 0.99357605 6.668442 2.7621536c1.7685776 1.7685852 2.7621613 4.1672897 2.7621613 6.668442l0 37.721268c0 5.208374 -4.222229 9.430588 -9.430603 9.430588l-41.99218 0l0 0c-5.208374 0 -9.430603 -4.2222137 -9.430603 -9.430588z" fill-rule="evenodd"/><path fill="#fb5c4e" d="m146.86073 108.41762l0 0c0 -4.732979 3.8368378 -8.569817 8.569824 -8.569817l43.713745 0c2.2728577 0 4.4526215 0.90288544 6.0597687 2.5100403c1.6071625 1.6071548 2.5100555 3.7869186 2.5100555 6.0597763l0 34.278244c0 4.7329865 -3.836853 8.569824 -8.569824 8.569824l-43.713745 0c-4.7329865 0 -8.569824 -3.8368378 -8.569824 -8.569824z" fill-rule="evenodd"/><path fill="#fc8076" d="m64.296875 142.79596l0 0c0 -1.2234344 0.9917984 -2.2152405 2.2152405 -2.2152405l56.422897 0c0.5875168 0 1.1509705 0.23339844 1.5664139 0.6488342c0.4154358 0.4154358 0.6488266 0.9788971 0.6488266 1.5664062l0 8.8607025c0 1.2234497 -0.9917984 2.2152405 -2.2152405 2.2152405l-56.422897 0c-1.2234421 0 -2.2152405 -0.9917908 -2.2152405 -2.2152405z" fill-rule="evenodd"/><path fill="#fc8076" d="m146.86073 142.36136l0 0c0 -0.9834137 0.79722595 -1.7806396 1.7806396 -1.7806396l57.292114 0c0.47225952 0 0.9251709 0.18760681 1.2590942 0.52153015c0.3339386 0.3339386 0.5215454 0.78685 0.5215454 1.2591095l0 7.1223145c0 0.9834137 -0.79722595 1.7806244 -1.7806396 1.7806244l-57.292114 0c-0.9834137 0 -1.7806396 -0.7972107 -1.7806396 -1.7806244z" fill-rule="evenodd"/><path fill="#f73d35" d="m64.28653 102.40171l0 0c0 -2.8383942 2.300972 -5.1393585 5.1393585 -5.1393585l32.77935 0c1.3630447 0 2.6702652 0.54146576 3.634079 1.5052795c0.9638138 0.9638214 1.5052872 2.2710342 1.5052872 3.634079l0 20.556816c0 2.8383942 -2.300972 5.1393585 -5.139366 5.1393585l-32.77935 0l0 0c-2.8383865 0 -5.1393585 -2.3009644 -5.1393585 -5.1393585z" fill-rule="evenodd"/><path fill="#f73d35" d="m146.86073 103.73818l0 0c0 -2.1485977 1.7417908 -3.8903809 3.890396 -3.8903809l30.088043 0c1.0317993 0 2.0213318 0.40987396 2.7509308 1.1394653c0.72958374 0.72959137 1.1394653 1.7191238 1.1394653 2.7509155l0 15.561081c0 2.1485977 -1.7417908 3.8903809 -3.890396 3.8903809l-30.088043 0c-2.1486053 0 -3.890396 -1.7417831 -3.890396 -3.8903809z" fill-rule="evenodd"/><path fill="#fb5c4e" d="m90.93749 117.445786l0 0c0 -1.757103 1.424408 -3.181511 3.181511 -3.181511l15.305244 0c0.84378815 0 1.6530151 0.33519745 2.2496643 0.9318466c0.59664917 0.59664917 0.931839 1.4058762 0.931839 2.2496643l0 12.725647c0 1.7570953 -1.424408 3.1815186 -3.1815033 3.1815186l-15.305244 0l0 0c-1.757103 0 -3.181511 -1.4244232 -3.181511 -3.1815186z" fill-rule="evenodd"/><path fill="#fb5c4e" d="m168.30698 112.54377l0 0c0 -1.757103 1.424408 -3.181511 3.1815033 -3.181511l15.305252 0c0.8437805 0 1.6530151 0.33519745 2.2496643 0.9318466c0.59664917 0.59664917 0.931839 1.4058762 0.931839 2.2496643l0 12.725647c0 1.757103 -1.424408 3.181511 -3.1815033 3.181511l-15.305252 0l0 0c-1.7570953 0 -3.1815033 -1.424408 -3.1815033 -3.181511z" fill-rule="evenodd"/><path fill="#000000" fill-opacity="0.0" d="m21.700787 315.7533l266.29922 0l0 38.771637l-266.29922 0z" fill-rule="evenodd"/><path fill="#000000" d="m37.81016 328.11328q2.125 0 3.734375 0.75q1.609375 0.734375 2.484375 2.09375q0.890625 1.34375 0.890625 3.15625q0 1.8125 -0.890625 3.171875q-0.875 1.34375 -2.484375 2.09375q-1.609375 0.734375 -3.734375 0.734375l-5.984375 0l0 -12.0l5.984375 0zm-2.6875 10.609375l-1.59375 -1.546875l4.53125 0q1.078125 0 1.859375 -0.375q0.796875 -0.390625 1.21875 -1.078125q0.4375 -0.6875 0.4375 -1.609375q0 -0.9375 -0.4375 -1.609375q-0.421875 -0.6875 -1.21875 -1.0625q-0.78125 -0.390625 -1.859375 -0.390625l-4.53125 0l1.59375 -1.546875l0 9.21875zm11.220779 -7.890625l1.65625 0.328125l1.625 -0.328125l0 9.28125l-3.28125 0l0 -9.28125zm1.640625 -0.75q-0.84375 0 -1.375 -0.421875q-0.53125 -0.421875 -0.53125 -1.15625q0 -0.734375 0.53125 -1.15625q0.53125 -0.4375 1.375 -0.4375q0.875 0 1.390625 0.4375q0.53125 0.421875 0.53125 1.15625q0 0.734375 -0.53125 1.15625q-0.515625 0.421875 -1.390625 0.421875zm11.697006 10.03125l-0.421875 -3.296875l0.4375 -1.265625l-0.4375 -1.265625l0.421875 -3.3125l3.390625 0l-0.578125 4.5625l0.578125 4.578125l-3.390625 0zm0.765625 -4.5625q-0.21875 1.4375 -0.890625 2.53125q-0.65625 1.09375 -1.671875 1.6875q-1.015625 0.59375 -2.3125 0.59375q-1.34375 0 -2.375 -0.59375q-1.015625 -0.59375 -1.59375 -1.6875q-0.5625 -1.109375 -0.5625 -2.53125q0 -1.453125 0.5625 -2.53125q0.578125 -1.09375 1.59375 -1.703125q1.03125 -0.609375 2.375 -0.609375q1.296875 0 2.3125 0.609375q1.015625 0.59375 1.6875 1.671875q0.671875 1.078125 0.875 2.5625zm-6.09375 0q0 0.671875 0.28125 1.203125q0.28125 0.53125 0.765625 0.828125q0.5 0.296875 1.140625 0.296875q0.671875 0 1.265625 -0.296875q0.59375 -0.296875 1.03125 -0.828125q0.453125 -0.53125 0.671875 -1.203125q-0.21875 -0.6875 -0.671875 -1.203125q-0.4375 -0.53125 -1.03125 -0.828125q-0.59375 -0.3125 -1.265625 -0.3125q-0.640625 0 -1.140625 0.3125q-0.484375 0.296875 -0.765625 0.828125q-0.28125 0.515625 -0.28125 1.203125zm10.278538 -4.578125l3.28125 0l0 2.625l-0.140625 0.390625l0 2.5625l0.140625 0.75l0 5.453125l-3.28125 0l0 -11.78125zm2.25 4.578125q0.203125 -1.484375 0.859375 -2.5625q0.671875 -1.078125 1.6875 -1.671875q1.03125 -0.609375 2.328125 -0.609375q1.34375 0 2.359375 0.609375q1.015625 0.609375 1.578125 1.703125q0.578125 1.078125 0.578125 2.53125q0 1.421875 -0.578125 2.53125q-0.5625 1.09375 -1.578125 1.6875q-1.015625 0.59375 -2.359375 0.59375q-1.296875 0 -2.328125 -0.59375q-1.015625 -0.59375 -1.671875 -1.6875q-0.65625 -1.09375 -0.875 -2.53125zm6.09375 0q0 -0.6875 -0.28125 -1.203125q-0.28125 -0.53125 -0.796875 -0.828125q-0.5 -0.3125 -1.125 -0.3125q-0.65625 0 -1.25 0.3125q-0.59375 0.296875 -1.046875 0.828125q-0.453125 0.515625 -0.6875 1.203125q0.234375 0.671875 0.6875 1.203125q0.453125 0.53125 1.046875 0.828125q0.59375 0.296875 1.25 0.296875q0.625 0 1.125 -0.296875q0.515625 -0.296875 0.796875 -0.828125q0.28125 -0.53125 0.28125 -1.203125zm4.696274 -7.75l3.28125 0l0 12.3125l-3.28125 0l0 -12.3125zm6.625 2.90625q1.328125 0 2.25 0.53125q0.921875 0.515625 1.421875 1.484375q0.5 0.953125 0.5 2.265625l0 5.125l-3.28125 0l0 -4.640625q0 -1.015625 -0.53125 -1.5625q-0.515625 -0.546875 -1.484375 -0.546875q-0.671875 0 -1.1875 0.296875q-0.5 0.28125 -0.765625 0.8125q-0.265625 0.515625 -0.265625 1.234375l-1.015625 -0.515625q0.1875 -1.46875 0.8125 -2.46875q0.625 -1.0 1.546875 -1.5q0.921875 -0.515625 2.0 -0.515625zm5.385147 0.265625l3.328125 0l0.546875 3.265625l0 5.875l-3.265625 0l0 -6.0625l-0.609375 -3.078125zm8.15625 -0.140625l0 2.78125q-0.484375 -0.09375 -0.90625 -0.125q-0.421875 -0.046875 -0.78125 -0.046875q-0.703125 0 -1.296875 0.28125q-0.578125 0.28125 -0.9375 0.921875q-0.359375 0.640625 -0.359375 1.703125l-0.625 -0.765625q0.125 -0.984375 0.375 -1.859375q0.265625 -0.875 0.703125 -1.546875q0.4375 -0.6875 1.09375 -1.078125q0.65625 -0.390625 1.59375 -0.390625q0.28125 0 0.5625 0.03125q0.296875 0.03125 0.578125 0.09375zm9.155273 9.28125l-0.421875 -3.296875l0.4375 -1.265625l-0.4375 -1.265625l0.421875 -3.3125l3.390625 0l-0.578125 4.5625l0.578125 4.578125l-3.390625 0zm0.765625 -4.5625q-0.21875 1.4375 -0.890625 2.53125q-0.65625 1.09375 -1.671875 1.6875q-1.015625 0.59375 -2.3125 0.59375q-1.34375 0 -2.375 -0.59375q-1.015625 -0.59375 -1.59375 -1.6875q-0.5625 -1.109375 -0.5625 -2.53125q0 -1.453125 0.5625 -2.53125q0.578125 -1.09375 1.59375 -1.703125q1.03125 -0.609375 2.375 -0.609375q1.296875 0 2.3125 0.609375q1.015625 0.59375 1.6875 1.671875q0.671875 1.078125 0.875 2.5625zm-6.09375 0q0 0.671875 0.28125 1.203125q0.28125 0.53125 0.765625 0.828125q0.5 0.296875 1.140625 0.296875q0.671875 0 1.265625 -0.296875q0.59375 -0.296875 1.03125 -0.828125q0.453125 -0.53125 0.671875 -1.203125q-0.21875 -0.6875 -0.671875 -1.203125q-0.4375 -0.53125 -1.03125 -0.828125q-0.59375 -0.3125 -1.265625 -0.3125q-0.640625 0 -1.140625 0.3125q-0.484375 0.296875 -0.765625 0.828125q-0.28125 0.515625 -0.28125 1.203125zm18.198914 2.265625l0 -1.5625l0.109375 -0.375l0 -2.25l-0.109375 -0.328125l0 -2.328125l3.265625 0l0 6.703125q0 1.6875 -0.78125 2.875q-0.78125 1.203125 -2.1875 1.828125q-1.390625 0.625 -3.296875 0.625q-1.265625 0 -2.34375 -0.328125q-1.078125 -0.328125 -2.15625 -0.96875l0 -2.453125q1.0 0.734375 2.09375 1.0625q1.09375 0.328125 2.1875 0.328125q1.578125 0 2.390625 -0.671875q0.828125 -0.671875 0.828125 -2.15625zm-3.921875 1.34375q-1.296875 0 -2.3125 -0.53125q-1.0 -0.53125 -1.578125 -1.484375q-0.578125 -0.953125 -0.578125 -2.21875q0 -1.28125 0.578125 -2.21875q0.578125 -0.953125 1.578125 -1.46875q1.015625 -0.53125 2.3125 -0.53125q0.96875 0 1.765625 0.296875q0.796875 0.296875 1.421875 0.78125q0.625 0.484375 1.046875 1.0625q0.421875 0.5625 0.640625 1.125q0.234375 0.5625 0.234375 0.984375q0 0.59375 -0.34375 1.3125q-0.34375 0.71875 -1.0 1.375q-0.65625 0.65625 -1.609375 1.09375q-0.953125 0.421875 -2.15625 0.421875zm1.109375 -2.234375q0.953125 0 1.6875 -0.484375q0.734375 -0.5 1.234375 -1.515625q-0.515625 -1.015625 -1.265625 -1.5q-0.734375 -0.5 -1.65625 -0.5q-0.703125 0 -1.234375 0.25q-0.515625 0.234375 -0.78125 0.6875q-0.265625 0.453125 -0.265625 1.0625q0 0.59375 0.265625 1.046875q0.265625 0.453125 0.78125 0.703125q0.515625 0.25 1.234375 0.25zm7.414276 -5.953125l3.28125 0l0.59375 3.65625l0 5.484375l-3.265625 0l0 -5.984375l-0.609375 -3.15625zm7.015625 -0.265625q1.265625 0 2.140625 0.53125q0.890625 0.515625 1.34375 1.484375q0.46875 0.953125 0.46875 2.265625l0 5.125l-3.265625 0l0 -4.640625q0 -1.015625 -0.46875 -1.5625q-0.453125 -0.546875 -1.328125 -0.546875q-0.625 0 -1.09375 0.296875q-0.453125 0.28125 -0.703125 0.8125q-0.234375 0.515625 -0.234375 1.234375l-1.015625 -0.515625q0.1875 -1.46875 0.78125 -2.46875q0.59375 -1.0 1.46875 -1.5q0.875 -0.515625 1.90625 -0.515625zm7.09375 0q1.265625 0 2.140625 0.53125q0.890625 0.515625 1.359375 1.484375q0.46875 0.953125 0.46875 2.265625l0 5.125l-3.265625 0l0 -4.640625q0 -1.015625 -0.46875 -1.5625q-0.453125 -0.546875 -1.34375 -0.546875q-0.625 0 -1.078125 0.296875q-0.453125 0.28125 -0.703125 0.8125q-0.25 0.515625 -0.25 1.234375l-1.0 -0.515625q0.1875 -1.46875 0.765625 -2.46875q0.59375 -1.0 1.46875 -1.5q0.875 -0.515625 1.90625 -0.515625z" fill-rule="nonzero"/><path fill="#000000" d="m151.70833 336.95703q0 -0.84375 0.171875 -1.765625q0.171875 -0.921875 0.46875 -1.78125q0.3125 -0.875 0.703125 -1.515625l0.859375 0q-0.40625 0.8125 -0.703125 1.703125q-0.296875 0.875 -0.453125 1.75q-0.15625 0.859375 -0.15625 1.609375q0 0.671875 0.140625 1.390625q0.140625 0.703125 0.421875 1.5q0.296875 0.78125 0.75 1.71875l-0.859375 0q-0.671875 -1.125 -1.015625 -2.296875q-0.328125 -1.171875 -0.328125 -2.3125z" fill-rule="nonzero"/><path fill="#000000" d="m159.2495 340.20703q-0.65625 0 -1.203125 -0.34375q-0.53125 -0.34375 -0.84375 -1.015625q-0.3125 -0.671875 -0.3125 -1.625q0 -1.0 0.3125 -1.671875q0.328125 -0.671875 0.859375 -1.0q0.546875 -0.328125 1.1875 -0.328125q0.484375 0 0.8125 0.171875q0.328125 0.15625 0.53125 0.40625q0.203125 0.234375 0.296875 0.484375l0.046875 0l0 -2.921875l1.625 0l0 7.75l-1.59375 0l0 -0.9375l-0.078125 0q-0.109375 0.25 -0.3125 0.484375q-0.203125 0.234375 -0.53125 0.390625q-0.328125 0.15625 -0.796875 0.15625zm0.5 -1.28125q0.390625 0 0.65625 -0.21875q0.28125 -0.21875 0.421875 -0.59375q0.15625 -0.390625 0.15625 -0.90625q0 -0.515625 -0.140625 -0.890625q-0.140625 -0.390625 -0.421875 -0.59375q-0.28125 -0.21875 -0.671875 -0.21875q-0.390625 0 -0.65625 0.21875q-0.265625 0.21875 -0.40625 0.609375q-0.140625 0.375 -0.140625 0.875q0 0.5 0.140625 0.890625q0.140625 0.390625 0.40625 0.609375q0.265625 0.21875 0.65625 0.21875zm5.4000244 1.296875q-0.546875 0 -0.984375 -0.1875q-0.4375 -0.203125 -0.6875 -0.578125q-0.25 -0.390625 -0.25 -0.96875q0 -0.484375 0.171875 -0.8125q0.171875 -0.328125 0.484375 -0.53125q0.3125 -0.203125 0.703125 -0.296875q0.390625 -0.109375 0.828125 -0.15625q0.5 -0.046875 0.796875 -0.09375q0.3125 -0.046875 0.453125 -0.140625q0.140625 -0.09375 0.140625 -0.28125l0 -0.015625q0 -0.359375 -0.234375 -0.5625q-0.21875 -0.203125 -0.625 -0.203125q-0.421875 0 -0.6875 0.203125q-0.25 0.1875 -0.34375 0.46875l-1.484375 -0.109375q0.109375 -0.53125 0.4375 -0.921875q0.34375 -0.390625 0.859375 -0.59375q0.53125 -0.21875 1.234375 -0.21875q0.484375 0 0.921875 0.125q0.4375 0.109375 0.78125 0.34375q0.359375 0.234375 0.5625 0.609375q0.203125 0.375 0.203125 0.890625l0 3.921875l-1.546875 0l0 -0.8125l-0.03125 0q-0.140625 0.28125 -0.375 0.484375q-0.234375 0.203125 -0.5625 0.328125q-0.328125 0.109375 -0.765625 0.109375zm0.46875 -1.109375q0.34375 0 0.609375 -0.140625q0.28125 -0.15625 0.4375 -0.390625q0.15625 -0.25 0.15625 -0.546875l0 -0.609375q-0.078125 0.03125 -0.21875 0.078125q-0.125 0.046875 -0.28125 0.078125q-0.15625 0.03125 -0.328125 0.0625q-0.15625 0.015625 -0.28125 0.03125q-0.28125 0.046875 -0.5 0.140625q-0.21875 0.078125 -0.34375 0.234375q-0.109375 0.15625 -0.109375 0.390625q0 0.328125 0.234375 0.5q0.25 0.171875 0.625 0.171875zm3.7442627 1.0l0 -5.8125l1.609375 0l0 5.8125l-1.609375 0zm0.8125 -6.5625q-0.359375 0 -0.625 -0.234375q-0.25 -0.25 -0.25 -0.578125q0 -0.34375 0.25 -0.578125q0.265625 -0.234375 0.625 -0.234375q0.359375 0 0.609375 0.234375q0.265625 0.234375 0.265625 0.578125q0 0.328125 -0.265625 0.578125q-0.25 0.234375 -0.609375 0.234375z" fill-rule="nonzero"/><path fill="#000000" d="m176.69614 338.6914q-0.453125 0 -0.84375 -0.21875q-0.375 -0.234375 -0.609375 -0.609375q-0.21875 -0.390625 -0.21875 -0.84375q0 -0.453125 0.21875 -0.828125q0.234375 -0.390625 0.609375 -0.609375q0.390625 -0.21875 0.84375 -0.21875q0.453125 0 0.828125 0.21875q0.390625 0.21875 0.609375 0.609375q0.21875 0.375 0.21875 0.828125q0 0.453125 -0.21875 0.84375q-0.21875 0.375 -0.609375 0.609375q-0.375 0.21875 -0.828125 0.21875zm8.977051 -0.953125l0 -3.4375l0.890625 0l0 5.8125l-0.890625 0l0 -0.984375l-0.0625 0q-0.203125 0.4375 -0.640625 0.75q-0.421875 0.3125 -1.078125 0.3125q-0.546875 0 -0.96875 -0.234375q-0.421875 -0.25 -0.671875 -0.734375q-0.234375 -0.484375 -0.234375 -1.234375l0 -3.6875l0.875 0l0 3.640625q0 0.625 0.359375 1.015625q0.375 0.375 0.921875 0.359375q0.328125 0 0.671875 -0.15625q0.359375 -0.171875 0.59375 -0.515625q0.234375 -0.359375 0.234375 -0.90625zm2.9111023 -1.125l0 3.5l-0.875 0l0 -7.75l0.875 0l0 2.84375l0.09375 0q0.203125 -0.453125 0.609375 -0.71875q0.40625 -0.265625 1.09375 -0.265625q0.59375 0 1.03125 0.234375q0.453125 0.234375 0.703125 0.734375q0.25 0.484375 0.25 1.234375l0 3.6875l-0.890625 0l0 -3.625q0 -0.703125 -0.359375 -1.078125q-0.359375 -0.390625 -1.0 -0.390625q-0.4375 0 -0.78125 0.1875q-0.34375 0.1875 -0.546875 0.546875q-0.203125 0.359375 -0.203125 0.859375zm9.601257 2.078125q-0.453125 0 -0.84375 -0.21875q-0.375 -0.234375 -0.609375 -0.609375q-0.21875 -0.390625 -0.21875 -0.84375q0 -0.453125 0.21875 -0.828125q0.234375 -0.390625 0.609375 -0.609375q0.390625 -0.21875 0.84375 -0.21875q0.453125 0 0.828125 0.21875q0.390625 0.21875 0.609375 0.609375q0.21875 0.375 0.21875 0.828125q0 0.453125 -0.21875 0.84375q-0.21875 0.375 -0.609375 0.609375q-0.375 0.21875 -0.828125 0.21875zm7.898926 -4.390625l0 0.75l-3.140625 0l0 -0.75l3.140625 0zm-2.203125 5.8125l0 -6.625q0 -0.5 0.234375 -0.828125q0.25 -0.328125 0.625 -0.484375q0.375 -0.171875 0.78125 -0.171875q0.328125 0 0.53125 0.0625q0.21875 0.046875 0.3125 0.078125l-0.25 0.78125q-0.078125 -0.03125 -0.203125 -0.0625q-0.109375 -0.03125 -0.296875 -0.03125q-0.4375 0 -0.640625 0.234375q-0.203125 0.21875 -0.203125 0.640625l0 6.40625l-0.890625 0zm2.9654846 0l0 -5.8125l0.84375 0l0 0.875l0.0625 0q0.171875 -0.421875 0.578125 -0.6875q0.421875 -0.28125 0.9375 -0.28125q0.109375 0 0.25 0.015625q0.140625 0 0.21875 0l0 0.90625q-0.046875 -0.015625 -0.203125 -0.03125q-0.15625 -0.015625 -0.34375 -0.015625q-0.421875 0 -0.75 0.171875q-0.328125 0.171875 -0.53125 0.484375q-0.1875 0.3125 -0.1875 0.703125l0 3.671875l-0.875 0zm5.1684875 0.140625q-0.546875 0 -1.0 -0.203125q-0.453125 -0.21875 -0.71875 -0.625q-0.265625 -0.40625 -0.265625 -0.96875q0 -0.5 0.1875 -0.796875q0.203125 -0.3125 0.53125 -0.484375q0.328125 -0.1875 0.71875 -0.28125q0.40625 -0.09375 0.8125 -0.140625q0.53125 -0.0625 0.859375 -0.09375q0.328125 -0.046875 0.484375 -0.125q0.15625 -0.09375 0.15625 -0.3125l0 -0.03125q0 -0.5625 -0.3125 -0.859375q-0.296875 -0.3125 -0.921875 -0.3125q-0.625 0 -1.0 0.28125q-0.359375 0.265625 -0.5 0.59375l-0.859375 -0.3125q0.234375 -0.53125 0.609375 -0.828125q0.390625 -0.296875 0.84375 -0.40625q0.453125 -0.125 0.875 -0.125q0.28125 0 0.640625 0.0625q0.375 0.0625 0.71875 0.28125q0.34375 0.203125 0.5625 0.625q0.234375 0.40625 0.234375 1.09375l0 3.828125l-0.890625 0l0 -0.796875l-0.046875 0q-0.078125 0.1875 -0.296875 0.40625q-0.21875 0.21875 -0.578125 0.375q-0.34375 0.15625 -0.84375 0.15625zm0.140625 -0.8125q0.515625 0 0.875 -0.203125q0.375 -0.203125 0.5625 -0.53125q0.1875 -0.34375 0.1875 -0.703125l0 -0.8125q-0.0625 0.0625 -0.25 0.125q-0.1875 0.046875 -0.4375 0.09375q-0.25 0.03125 -0.484375 0.0625q-0.21875 0.03125 -0.359375 0.046875q-0.359375 0.046875 -0.65625 0.15625q-0.296875 0.09375 -0.484375 0.296875q-0.1875 0.1875 -0.1875 0.53125q0 0.46875 0.34375 0.703125q0.34375 0.234375 0.890625 0.234375zm3.671692 0.671875l0 -5.8125l0.84375 0l0 0.90625l0.09375 0q0.171875 -0.46875 0.578125 -0.71875q0.40625 -0.265625 0.96875 -0.265625q0.578125 0 0.953125 0.265625q0.390625 0.25 0.609375 0.71875l0.0625 0q0.21875 -0.453125 0.65625 -0.71875q0.453125 -0.265625 1.078125 -0.265625q0.78125 0 1.28125 0.484375q0.5 0.484375 0.5 1.515625l0 3.890625l-0.890625 0l0 -3.890625q0 -0.640625 -0.359375 -0.921875q-0.359375 -0.28125 -0.828125 -0.28125q-0.609375 0 -0.953125 0.375q-0.328125 0.375 -0.328125 0.9375l0 3.78125l-0.921875 0l0 -3.984375q0 -0.5 -0.328125 -0.796875q-0.3125 -0.3125 -0.8125 -0.3125q-0.34375 0 -0.65625 0.1875q-0.296875 0.1875 -0.484375 0.515625q-0.1875 0.328125 -0.1875 0.765625l0 3.625l-0.875 0zm10.942108 1.453125q0.453125 -0.9375 0.734375 -1.71875q0.296875 -0.796875 0.4375 -1.5q0.140625 -0.71875 0.140625 -1.390625q0 -0.75 -0.15625 -1.609375q-0.15625 -0.875 -0.453125 -1.75q-0.296875 -0.890625 -0.703125 -1.703125l0.859375 0q0.40625 0.640625 0.703125 1.515625q0.296875 0.859375 0.46875 1.78125q0.171875 0.921875 0.171875 1.765625q0 1.140625 -0.34375 2.3125q-0.328125 1.171875 -1.0 2.296875l-0.859375 0z" fill-rule="nonzero"/></g></svg>