<svg version="1.1" viewBox="0.0 0.0 288.0 384.0" fill="none" stroke="none" stroke-linecap="square" stroke-miterlimit="10" xmlns:xlink="http://www.w3.org/1999/xlink" xmlns="http://www.w3.org/2000/svg"><clipPath id="g3b18a6c779a_0_2790.0"><path d="m0 0l288.0 0l0 384.0l-288.0 0l0 -384.0z" clip-rule="nonzero"/></clipPath><g clip-path="url(#g3b18a6c779a_0_2790.0)"><path fill="#161d25" d="m0 0l288.0 0l0 384.0l-288.0 0z" fill-rule="evenodd"/><path fill="#3b4652" d="m5.7007875 34.135216l0 0c0 -9.966135 8.079147 -18.045282 18.04528 -18.045282l240.50787 0c4.7858887 0 9.375793 1.9011936 12.759949 5.2853394c3.3841248 3.3841476 5.2853394 7.9740353 5.2853394 12.759943l0 324.2244c0 9.9661255 -8.079163 18.045288 -18.045288 18.045288l-240.50787 0l0 0c-9.966134 0 -18.04528 -8.079163 -18.04528 -18.045288z" fill-rule="evenodd"/><path stroke="#3b4652" stroke-width="4.0" stroke-linejoin="round" stroke-linecap="butt" d="m5.7007875 34.135216l0 0c0 -9.966135 8.079147 -18.045282 18.04528 -18.045282l240.50787 0c4.7858887 0 9.375793 1.9011936 12.759949 5.2853394c3.3841248 3.3841476 5.2853394 7.9740353 5.2853394 12.759943l0 324.2244c0 9.9661255 -8.079163 18.045288 -18.045288 18.045288l-240.50787 0l0 0c-9.966134 0 -18.04528 -8.079163 -18.04528 -18.045288z" fill-rule="evenodd"/><path fill="#161d25" d="m5.7007875 25.639769l0 0c0 -9.966133 8.079147 -18.04528 18.04528 -18.04528l240.50787 0c4.7858887 0 9.375793 1.9011936 12.759949 5.2853403c3.3841248 3.3841467 5.2853394 7.9740343 5.2853394 12.75994l0 324.2244c0 9.9661255 -8.079163 18.045288 -18.045288 18.045288l-240.50787 0l0 0c-9.966134 0 -18.04528 -8.079163 -18.04528 -18.045288z" fill-rule="evenodd"/><path stroke="#3b4652" stroke-width="4.0" stroke-linejoin="round" stroke-linecap="butt" d="m5.7007875 25.639769l0 0c0 -9.966133 8.079147 -18.04528 18.04528 -18.04528l240.50787 0c4.7858887 0 9.375793 1.9011936 12.759949 5.2853403c3.3841248 3.3841467 5.2853394 7.9740343 5.2853394 12.75994l0 324.2244c0 9.9661255 -8.079163 18.045288 -18.045288 18.045288l-240.50787 0l0 0c-9.966134 0 -18.04528 -8.079163 -18.04528 -18.045288z" fill-rule="evenodd"/><path fill="#000000" fill-opacity="0.0" d="m21.700787 315.7533l266.29922 0l0 38.771637l-266.29922 0z" fill-rule="evenodd"/><path fill="#ffffff" d="m42.075787 332.91016l0 2.40625l-8.78125 0l0 -2.40625l8.78125 0zm-6.53125 1.203125l-0.78125 4.8125l-1.34375 -1.5l9.1875 0l0 2.6875l-11.15625 0l0.90625 -6.0l-0.90625 -6.0l11.078125 0l0 2.6875l-9.109375 0l1.34375 -1.5l0.78125 4.8125zm11.446518 8.890625q-1.015625 0 -1.796875 -0.25q-0.78125 -0.234375 -1.515625 -0.75l0 -2.28125q0.75 0.484375 1.40625 0.6875q0.65625 0.21875 1.4375 0.21875q0.65625 0 1.171875 -0.296875q0.515625 -0.28125 0.828125 -1.046875l3.5 -8.3125l3.484375 0l-4.390625 9.3125q-0.46875 1.015625 -1.140625 1.609375q-0.65625 0.609375 -1.421875 0.859375q-0.765625 0.25 -1.5625 0.25zm0.109375 -3.734375l-3.890625 -8.296875l3.609375 0l3.4375 8.296875l-3.15625 0zm14.122391 1.09375q-1.65625 0 -2.96875 -0.59375q-1.296875 -0.609375 -2.046875 -1.703125q-0.75 -1.109375 -0.75 -2.5625q0 -1.421875 0.71875 -2.5q0.71875 -1.078125 1.96875 -1.6875q1.265625 -0.609375 2.84375 -0.609375q1.640625 0 2.796875 0.71875q1.1718788 0.703125 1.7968788 2.0q0.640625 1.296875 0.640625 3.0625l-8.125004 0l0 -1.96875l6.281254 0l-1.0625038 0.6875q-0.078125 -0.703125 -0.359375 -1.1875q-0.28125 -0.5 -0.765625 -0.75q-0.46875 -0.265625 -1.125 -0.265625q-0.71875 0 -1.234375 0.296875q-0.5 0.28125 -0.796875 0.796875q-0.28125 0.5 -0.28125 1.171875q0 0.859375 0.390625 1.46875q0.390625 0.59375 1.140625 0.921875q0.765625 0.3125 1.875 0.3125q1.0 0 2.0000038 -0.265625q1.0 -0.265625 1.828125 -0.75l0 2.078125q-0.953125 0.640625 -2.1718788 0.984375q-1.203125 0.34375 -2.59375 0.34375z" fill-rule="nonzero"/><path fill="#ffffff" d="m75.10014 336.95703q0 -0.84375 0.171875 -1.765625q0.171875 -0.921875 0.46875 -1.78125q0.3125 -0.875 0.703125 -1.515625l0.859375 0q-0.40625 0.8125 -0.703125 1.703125q-0.296875 0.875 -0.453125 1.75q-0.15625 0.859375 -0.15625 1.609375q0 0.671875 0.140625 1.390625q0.140625 0.703125 0.421875 1.5q0.296875 0.78125 0.75 1.71875l-0.859375 0q-0.671875 -1.125 -1.015625 -2.296875q-0.328125 -1.171875 -0.328125 -2.3125zm7.228668 3.296875q-0.546875 0 -1.0 -0.203125q-0.453125 -0.21875 -0.71875 -0.625q-0.265625 -0.40625 -0.265625 -0.96875q0 -0.5 0.1875 -0.796875q0.203125 -0.3125 0.53125 -0.484375q0.328125 -0.1875 0.71875 -0.28125q0.40625 -0.09375 0.8125 -0.140625q0.53125 -0.0625 0.859375 -0.09375q0.328125 -0.046875 0.484375 -0.125q0.15625 -0.09375 0.15625 -0.3125l0 -0.03125q0 -0.5625 -0.3125 -0.859375q-0.296875 -0.3125 -0.921875 -0.3125q-0.625 0 -1.0 0.28125q-0.359375 0.265625 -0.5 0.59375l-0.859375 -0.3125q0.234375 -0.53125 0.609375 -0.828125q0.390625 -0.296875 0.84375 -0.40625q0.453125 -0.125 0.875 -0.125q0.28125 0 0.640625 0.0625q0.375 0.0625 0.71875 0.28125q0.34375 0.203125 0.5625 0.625q0.234375 0.40625 0.234375 1.09375l0 3.828125l-0.890625 0l0 -0.796875l-0.046875 0q-0.078125 0.1875 -0.296875 0.40625q-0.21875 0.21875 -0.578125 0.375q-0.34375 0.15625 -0.84375 0.15625zm0.140625 -0.8125q0.515625 0 0.875 -0.203125q0.375 -0.203125 0.5625 -0.53125q0.1875 -0.34375 0.1875 -0.703125l0 -0.8125q-0.0625 0.0625 -0.25 0.125q-0.1875 0.046875 -0.4375 0.09375q-0.25 0.03125 -0.484375 0.0625q-0.21875 0.03125 -0.359375 0.046875q-0.359375 0.046875 -0.65625 0.15625q-0.296875 0.09375 -0.484375 0.296875q-0.1875 0.1875 -0.1875 0.53125q0 0.46875 0.34375 0.703125q0.34375 0.234375 0.890625 0.234375zm3.671692 0.671875l0 -5.8125l0.875 0l0 5.8125l-0.875 0zm0.4375 -6.78125q-0.25 0 -0.4375 -0.171875q-0.1875 -0.1875 -0.1875 -0.4375q0 -0.25 0.1875 -0.421875q0.1875 -0.1875 0.4375 -0.1875q0.265625 0 0.453125 0.1875q0.1875 0.171875 0.1875 0.421875q0 0.25 -0.1875 0.4375q-0.1875 0.171875 -0.453125 0.171875zm3.7612 8.234375q0.453125 -0.9375 0.734375 -1.71875q0.296875 -0.796875 0.4375 -1.5q0.140625 -0.71875 0.140625 -1.390625q0 -0.75 -0.15625 -1.609375q-0.15625 -0.875 -0.453125 -1.75q-0.296875 -0.890625 -0.703125 -1.703125l0.859375 0q0.40625 0.640625 0.703125 1.515625q0.296875 0.859375 0.46875 1.78125q0.171875 0.921875 0.171875 1.765625q0 1.140625 -0.34375 2.3125q-0.328125 1.171875 -1.0 2.296875l-0.859375 0z" fill-rule="nonzero"/><path fill="#3b4652" d="m75.757385 125.91538l0 0c0 -13.831329 11.212502 -25.043839 25.04383 -25.043839l102.39666 0l0 0c6.642029 0 13.012024 2.6385422 17.708664 7.3351746c4.6966248 4.6966248 7.3351593 11.06662 7.3351593 17.708664l0 100.172325c0 13.831329 -11.212509 25.043839 -25.043823 25.043839l-102.39666 0c-13.831329 0 -25.04383 -11.212509 -25.04383 -25.043839z" fill-rule="evenodd"/><path fill="#3b4652" d="m78.76258 125.27971l0 0c0 -13.482819 10.929985 -24.412804 24.412811 -24.412804l97.64831 0l0 0c6.4746704 0 12.684174 2.572052 17.262451 7.150345c4.578293 4.578285 7.15036 10.787781 7.15036 17.262459l0 101.43439c0 13.482819 -10.929993 24.412811 -24.412811 24.412811l-97.64831 0c-13.482826 0 -24.412811 -10.929993 -24.412811 -24.412811z" fill-rule="evenodd"/><path fill="#3b4652" d="m117.097435 154.72409l0 0c0 -5.8745117 4.7622223 -10.636734 10.636726 -10.636734l48.532364 0c2.821045 0 5.526535 1.1206512 7.5213165 3.1154327c1.9947662 1.9947662 3.1154175 4.7002563 3.1154175 7.5213013l0 42.545624c0 5.8745117 -4.7622223 10.636734 -10.636734 10.636734l-48.532364 0c-5.874504 0 -10.636726 -4.7622223 -10.636726 -10.636734z" fill-rule="evenodd"/><path fill="#3b4652" d="m124.40849 160.30458l0 0c0 -5.258072 4.262512 -9.520599 9.520599 -9.520599l43.45276 0c2.5250244 0 4.9466248 1.003067 6.732086 2.7885284c1.7854614 1.7854462 2.7885132 4.207062 2.7885132 6.732071l0 38.08127c0 5.258087 -4.262512 9.520599 -9.520599 9.520599l-43.45276 0c-5.258087 0 -9.520599 -4.262512 -9.520599 -9.520599z" fill-rule="evenodd"/><path fill="#3b4652" d="m120.74073 156.95824l0 0c0 -5.258072 4.26252 -9.520599 9.520607 -9.520599l43.45276 0c2.5250092 0 4.9466248 1.003067 6.732071 2.7885284c1.7854614 1.7854614 2.7885284 4.207062 2.7885284 6.732071l0 38.08127c0 5.258087 -4.2625275 9.520599 -9.520599 9.520599l-43.45276 0c-5.258087 0 -9.520607 -4.262512 -9.520607 -9.520599z" fill-rule="evenodd"/><path fill="#3b4652" d="m141.5405 169.02625l0 0c0 -1.9254913 1.5609283 -3.4864197 3.4864197 -3.4864197l13.945251 0l0 0c0.9246521 0 1.8114471 0.36732483 2.465271 1.0211487c0.65382385 0.6538391 1.0211487 1.5406189 1.0211487 2.465271l0 13.945251c0 1.9254913 -1.5609283 3.4864197 -3.4864197 3.4864197l-13.945251 0c-1.9254913 0 -3.4864197 -1.5609283 -3.4864197 -3.4864197z" fill-rule="evenodd"/><path fill="#3b4652" d="m128.63431 156.32317l0 0c0 -2.0387573 1.6527405 -3.6914978 3.6914978 -3.6914978l14.765564 0l0 0c0.9790497 0 1.9179993 0.38893127 2.6102905 1.0812225c0.69229126 0.69229126 1.0812073 1.6312408 1.0812073 2.6102753l0 14.765564c0 2.0387573 -1.6527405 3.6914978 -3.6914978 3.6914978l-14.765564 0c-2.0387573 0 -3.6914978 -1.6527405 -3.6914978 -3.6914978z" fill-rule="evenodd"/><path fill="#3b4652" d="m150.78287 176.5471l0 0c0 -0.9758148 0.7910614 -1.7668762 1.7668762 -1.7668762l7.067276 0l0 0c0.4685974 0 0.9180145 0.18615723 1.2493744 0.51750183c0.3313446 0.33135986 0.51750183 0.780777 0.51750183 1.2493744l0 7.067276c0 0.9758148 -0.7910614 1.7668762 -1.7668762 1.7668762l-7.067276 0c-0.9758148 0 -1.7668762 -0.7910614 -1.7668762 -1.7668762z" fill-rule="evenodd"/><path fill="#e7f2ff" d="m59.75738 109.91538l0 0c0 -13.831329 11.212505 -25.043839 25.043835 -25.043839l102.39666 0l0 0c6.642029 0 13.012024 2.6385422 17.708664 7.3351746c4.6966248 4.6966248 7.3351593 11.06662 7.3351593 17.708664l0 100.172325c0 13.831329 -11.212509 25.043839 -25.043823 25.043839l-102.39666 0c-13.831329 0 -25.043835 -11.212509 -25.043835 -25.043839z" fill-rule="evenodd"/><path fill="#f3f8fe" d="m62.76258 109.27971l0 0c0 -13.482819 10.929985 -24.412804 24.412811 -24.412804l97.64831 0l0 0c6.4746704 0 12.684174 2.572052 17.262451 7.150345c4.578293 4.578285 7.15036 10.787781 7.15036 17.262459l0 101.43439c0 13.482819 -10.929993 24.412811 -24.412811 24.412811l-97.64831 0c-13.482826 0 -24.412811 -10.929993 -24.412811 -24.412811z" fill-rule="evenodd"/><path fill="#3b4652" d="m101.097435 138.72409l0 0c0 -5.8745117 4.7622223 -10.636734 10.636726 -10.636734l48.532364 0c2.821045 0 5.526535 1.1206512 7.5213165 3.1154327c1.9947662 1.9947662 3.1154175 4.7002563 3.1154175 7.5213013l0 42.545624c0 5.8745117 -4.7622223 10.636734 -10.636734 10.636734l-48.532364 0c-5.874504 0 -10.636726 -4.7622223 -10.636726 -10.636734z" fill-rule="evenodd"/><path fill="#262424" d="m108.40849 144.30458l0 0c0 -5.258072 4.26252 -9.520599 9.520599 -9.520599l43.45276 0c2.5250244 0 4.9466248 1.003067 6.732086 2.7885284c1.7854614 1.7854462 2.7885132 4.207062 2.7885132 6.732071l0 38.08127c0 5.258087 -4.262512 9.520599 -9.520599 9.520599l-43.45276 0c-5.2580795 0 -9.520599 -4.262512 -9.520599 -9.520599z" fill-rule="evenodd"/><path fill="#3c3c3c" d="m104.74073 140.95824l0 0c0 -5.258072 4.26252 -9.520599 9.520599 -9.520599l43.452766 0c2.5250092 0 4.9466248 1.003067 6.732071 2.7885284c1.7854614 1.7854614 2.7885284 4.207062 2.7885284 6.732071l0 38.08127c0 5.258087 -4.2625275 9.520599 -9.520599 9.520599l-43.452766 0c-5.2580795 0 -9.520599 -4.262512 -9.520599 -9.520599z" fill-rule="evenodd"/><path fill="#262424" d="m125.5405 153.02625l0 0c0 -1.9254913 1.5609283 -3.4864197 3.4864197 -3.4864197l13.945251 0l0 0c0.9246521 0 1.8114471 0.36732483 2.465271 1.0211487c0.65382385 0.6538391 1.0211487 1.5406189 1.0211487 2.465271l0 13.945251c0 1.9254913 -1.5609283 3.4864197 -3.4864197 3.4864197l-13.945251 0c-1.9254913 0 -3.4864197 -1.5609283 -3.4864197 -3.4864197z" fill-rule="evenodd"/><path fill="#f3f8fe" d="m112.63431 140.32317l0 0c0 -2.0387573 1.6527405 -3.6914978 3.6915054 -3.6914978l14.765556 0l0 0c0.9790497 0 1.9179993 0.38893127 2.6102905 1.0812225c0.69229126 0.69229126 1.0812073 1.6312408 1.0812073 2.6102753l0 14.765564c0 2.0387573 -1.6527405 3.6914978 -3.6914978 3.6914978l-14.765556 0c-2.038765 0 -3.6915054 -1.6527405 -3.6915054 -3.6914978z" fill-rule="evenodd"/><path fill="#f3f8fe" d="m134.78287 160.5471l0 0c0 -0.9758148 0.7910614 -1.7668762 1.7668762 -1.7668762l7.067276 0l0 0c0.4685974 0 0.9180145 0.18615723 1.2493744 0.51750183c0.3313446 0.33135986 0.51750183 0.780777 0.51750183 1.2493744l0 7.067276c0 0.9758148 -0.7910614 1.7668762 -1.7668762 1.7668762l-7.067276 0c-0.9758148 0 -1.7668762 -0.7910614 -1.7668762 -1.7668762z" fill-rule="evenodd"/></g></svg>