<svg version="1.1" viewBox="0.0 0.0 288.0 384.0" fill="none" stroke="none" stroke-linecap="square" stroke-miterlimit="10" xmlns:xlink="http://www.w3.org/1999/xlink" xmlns="http://www.w3.org/2000/svg"><clipPath id="g3b18a6c779a_0_6795.0"><path d="m0 0l288.0 0l0 384.0l-288.0 0l0 -384.0z" clip-rule="nonzero"/></clipPath><g clip-path="url(#g3b18a6c779a_0_6795.0)"><path fill="#ffffff" d="m0 0l288.0 0l0 384.0l-288.0 0z" fill-rule="evenodd"/><path fill="#51de18" d="m5.7007875 34.135216l0 0c0 -9.966135 8.079147 -18.045282 18.04528 -18.045282l240.50787 0c4.7858887 0 9.375793 1.9011936 12.759949 5.2853394c3.3841248 3.3841476 5.2853394 7.9740353 5.2853394 12.759943l0 324.2244c0 9.9661255 -8.079163 18.045288 -18.045288 18.045288l-240.50787 0l0 0c-9.966134 0 -18.04528 -8.079163 -18.04528 -18.045288z" fill-rule="evenodd"/><path stroke="#51de18" stroke-width="4.0" stroke-linejoin="round" stroke-linecap="butt" d="m5.7007875 34.135216l0 0c0 -9.966135 8.079147 -18.045282 18.04528 -18.045282l240.50787 0c4.7858887 0 9.375793 1.9011936 12.759949 5.2853394c3.3841248 3.3841476 5.2853394 7.9740353 5.2853394 12.759943l0 324.2244c0 9.9661255 -8.079163 18.045288 -18.045288 18.045288l-240.50787 0l0 0c-9.966134 0 -18.04528 -8.079163 -18.04528 -18.045288z" fill-rule="evenodd"/><path fill="#caffb5" d="m5.7007875 25.639769l0 0c0 -9.966133 8.079147 -18.04528 18.04528 -18.04528l240.50787 0c4.7858887 0 9.375793 1.9011936 12.759949 5.2853403c3.3841248 3.3841467 5.2853394 7.9740343 5.2853394 12.75994l0 324.2244c0 9.9661255 -8.079163 18.045288 -18.045288 18.045288l-240.50787 0l0 0c-9.966134 0 -18.04528 -8.079163 -18.04528 -18.045288z" fill-rule="evenodd"/><path stroke="#51de18" stroke-width="4.0" stroke-linejoin="round" stroke-linecap="butt" d="m5.7007875 25.639769l0 0c0 -9.966133 8.079147 -18.04528 18.04528 -18.04528l240.50787 0c4.7858887 0 9.375793 1.9011936 12.759949 5.2853403c3.3841248 3.3841467 5.2853394 7.9740343 5.2853394 12.75994l0 324.2244c0 9.9661255 -8.079163 18.045288 -18.045288 18.045288l-240.50787 0l0 0c-9.966134 0 -18.04528 -8.079163 -18.04528 -18.045288z" fill-rule="evenodd"/><path fill="#51de18" d="m139.47298 188.70952l0 0c0 -3.7109375 3.008316 -6.7192535 6.7192535 -6.7192535l26.876205 0l0 0c1.7820587 0 3.4911194 0.70791626 4.7512207 1.9680176c1.2601166 1.2601166 1.9680328 2.9691772 1.9680328 4.751236l0 40.006134c0 3.7109375 -3.008316 6.7192535 -6.7192535 6.7192535l-26.876205 0c-3.7109375 0 -6.7192535 -3.008316 -6.7192535 -6.7192535z" fill-rule="evenodd"/><path fill="#51de18" d="m84.57561 149.65321l0 0c0 -4.9195404 3.9880753 -8.907608 8.907616 -8.907608l115.67571 0c2.362442 0 4.628128 0.93847656 6.2986298 2.6089783c1.6705017 1.6705017 2.6089935 3.9361877 2.6089935 6.2986298l0 35.62941c0 4.9195404 -3.988083 8.907608 -8.907623 8.907608l-115.67571 0l0 0c-4.9195404 0 -8.907616 -3.9880676 -8.907616 -8.907608z" fill-rule="evenodd"/><path fill="#51de18" d="m84.57561 149.65321l0 0c0 -4.9195404 3.9880753 -8.907608 8.907616 -8.907608l58.048805 0c2.362442 0 4.628128 0.93847656 6.2986298 2.6089783c1.6705017 1.6705017 2.6089783 3.9361877 2.6089783 6.2986298l0 35.62941c0 4.9195404 -3.9880676 8.907608 -8.907608 8.907608l-58.048805 0c-4.9195404 0 -8.907616 -3.9880676 -8.907616 -8.907608z" fill-rule="evenodd"/><path fill="#51de18" d="m66.38875 104.67206l0 0c0 -6.848114 5.5514984 -12.399612 12.399612 -12.399612l145.06543 0c3.2885895 0 6.4424744 1.3063812 8.767853 3.6317596c2.3253784 2.3253784 3.631775 5.479271 3.631775 8.767853l0 49.596985c0 6.8481293 -5.5514984 12.399628 -12.399628 12.399628l-145.06543 0c-6.848114 0 -12.399612 -5.5514984 -12.399612 -12.399628z" fill-rule="evenodd"/><path fill="#51de18" d="m66.38875 119.99366l0 0c0 -6.8481216 5.5514984 -12.39962 12.399612 -12.39962l145.06543 0c3.2885895 0 6.4424744 1.3063889 8.767853 3.6317673c2.3253784 2.3253784 3.631775 5.479271 3.631775 8.767853l0 49.596992c0 6.848114 -5.5514984 12.399612 -12.399628 12.399612l-145.06543 0c-6.848114 0 -12.399612 -5.5514984 -12.399612 -12.399612z" fill-rule="evenodd"/><path fill="#51de18" d="m66.38875 109.77926l0 0c0 -6.848114 5.5514984 -12.399612 12.399612 -12.399612l145.06543 0c3.2885895 0 6.4424744 1.3063812 8.767853 3.6317596c2.3253784 2.3253784 3.631775 5.479271 3.631775 8.767853l0 49.596992c0 6.848114 -5.5514984 12.399612 -12.399628 12.399612l-145.06543 0c-6.848114 0 -12.399612 -5.5514984 -12.399612 -12.399612z" fill-rule="evenodd"/><path fill="#51de18" d="m191.28726 136.30872l0 0c0 -1.9766998 1.6024323 -3.579132 3.579132 -3.579132l22.157867 0c0.94924927 0 1.8596191 0.3770752 2.530838 1.0482941c0.6712036 0.6712189 1.0482941 1.5815887 1.0482941 2.530838l0 14.316101c0 1.9766998 -1.6024323 3.579132 -3.579132 3.579132l-22.157867 0c-1.9766998 0 -3.579132 -1.6024323 -3.579132 -3.579132z" fill-rule="evenodd"/><path fill="#51de18" d="m82.253235 121.632256l0 0c0 -3.1964035 2.5912018 -5.7876053 5.7876053 -5.7876053l35.817192 0c1.5349731 0 3.0070724 0.6097641 4.092453 1.6951523c1.0853882 1.0853882 1.6951599 2.5574875 1.6951599 4.092453l0 23.149727c0 3.1964111 -2.5912018 5.787613 -5.787613 5.787613l-35.817192 0c-3.1964035 0 -5.7876053 -2.5912018 -5.7876053 -5.787613z" fill-rule="evenodd"/><path fill="#51de18" d="m84.793434 110.58336l0 0c0 -1.6509552 1.338356 -2.9893188 2.9893112 -2.9893188l33.310623 0c0.79280853 0 1.553154 0.31494904 2.113762 0.8755493c0.5606003 0.5606079 0.8755493 1.3209534 0.8755493 2.1137695l0 11.956894c0 1.6509476 -1.3383636 2.9893112 -2.9893112 2.9893112l-33.310623 0c-1.6509552 0 -2.9893112 -1.3383636 -2.9893112 -2.9893112z" fill-rule="evenodd"/><path fill="#51de18" d="m84.793434 115.30515l0 0c0 -1.130867 0.91674805 -2.047615 2.0476074 -2.047615l35.194023 0c0.5430603 0 1.0638809 0.21572876 1.4478836 0.59973145c0.3840027 0.3840027 0.59973145 0.9048233 0.59973145 1.4478836l0 8.190201c0 1.130867 -0.91674805 2.047615 -2.047615 2.047615l-35.194023 0c-1.1308594 0 -2.0476074 -0.91674805 -2.0476074 -2.047615z" fill-rule="evenodd"/><path fill="#51de18" d="m143.82616 108.84076l0 0c0 -2.1321716 1.7284698 -3.8606339 3.8606415 -3.8606339l23.88707 0c1.0238953 0 2.0058746 0.40673828 2.7298737 1.1307526c0.7240143 0.72400665 1.1307678 1.7059784 1.1307678 2.7298813l0 15.442085c0 2.1321716 -1.7284698 3.8606339 -3.8606415 3.8606339l-23.88707 0c-2.1321716 0 -3.8606415 -1.7284622 -3.8606415 -3.8606339z" fill-rule="evenodd"/><path fill="#51de18" d="m163.75899 123.485405l0 0c0 -1.6509552 1.3383636 -2.9893112 2.9893188 -2.9893112l33.310608 0c0.79281616 0 1.5531616 0.3149414 2.1137695 0.8755493c0.5606079 0.5606003 0.8755493 1.3209457 0.8755493 2.113762l0 11.956886c0 1.6509552 -1.3383636 2.9893188 -2.9893188 2.9893188l-33.310608 0c-1.6509552 0 -2.9893188 -1.3383636 -2.9893188 -2.9893188z" fill-rule="evenodd"/><path fill="#51de18" d="m163.75899 128.2072l0 0c0 -1.130867 0.91674805 -2.047615 2.0476074 -2.047615l35.19403 0c0.5430603 0 1.0638733 0.21572876 1.447876 0.59973145c0.3840027 0.3840027 0.59973145 0.9048233 0.59973145 1.4478836l0 8.190201c0 1.1308746 -0.91674805 2.0476227 -2.0476074 2.0476227l-35.19403 0c-1.1308594 0 -2.0476074 -0.91674805 -2.0476074 -2.0476227z" fill-rule="evenodd"/><path fill="#51de18" d="m138.41232 143.17722l0 0c0 -2.6134033 2.118576 -4.731964 4.731964 -4.731964l29.28244 0c1.2549896 0 2.4585876 0.49853516 3.345993 1.3859558c0.88742065 0.88742065 1.3859711 2.0910034 1.3859711 3.3460083l0 18.927277c0 2.613388 -2.118576 4.731964 -4.731964 4.731964l-29.28244 0c-2.613388 0 -4.731964 -2.118576 -4.731964 -4.731964z" fill-rule="evenodd"/><path fill="#51de18" d="m112.53619 141.43433l0 0c0 -1.6509552 1.338356 -2.9893036 2.9893112 -2.9893036l33.310623 0c0.79281616 0 1.5531616 0.3149414 2.1137543 0.8755493c0.5606079 0.56059265 0.8755493 1.3209381 0.8755493 2.1137543l0 11.956894c0 1.6509552 -1.3383484 2.9893188 -2.9893036 2.9893188l-33.310623 0c-1.6509552 0 -2.9893112 -1.3383636 -2.9893112 -2.9893188z" fill-rule="evenodd"/><path fill="#51de18" d="m112.53619 146.15613l0 0c0 -1.1308746 0.91674805 -2.0476227 2.0476074 -2.0476227l35.194023 0c0.5430603 0 1.0638885 0.21574402 1.447876 0.5997467c0.3840027 0.38398743 0.59973145 0.9048157 0.59973145 1.447876l0 8.190201c0 1.1308594 -0.9167328 2.0476074 -2.0476074 2.0476074l-35.194023 0c-1.1308594 0 -2.0476074 -0.91674805 -2.0476074 -2.0476074z" fill-rule="evenodd"/><path fill="#51de18" d="m139.47298 187.60864l0 0c0 -1.9304199 1.5649261 -3.495346 3.495346 -3.495346l13.980988 0l0 0c0.9270325 0 1.8160858 0.36825562 2.4715881 1.0237579c0.6555176 0.6555176 1.0237732 1.5445709 1.0237732 2.4715881l0 44.322586c0 1.9304352 -1.5649261 3.495346 -3.4953613 3.495346l-13.980988 0c-1.9304199 0 -3.495346 -1.5649109 -3.495346 -3.495346z" fill-rule="evenodd"/><path fill="#51de18" d="m128.21419 211.46736l0 0c0 -2.5820923 2.0931854 -4.6752777 4.6752625 -4.6752777l30.481277 0c1.2399597 0 2.4291382 0.49256897 3.3059235 1.3693542c0.87677 0.8767853 1.3693542 2.0659637 1.3693542 3.3059235l0 18.7005c0 2.5820923 -2.0932007 4.6752777 -4.6752777 4.6752777l-30.481277 0c-2.582077 0 -4.6752625 -2.0931854 -4.6752625 -4.6752777z" fill-rule="evenodd"/><path fill="#51de18" d="m132.96622 213.91798l0 0c0 -1.7213745 1.395462 -3.1168365 3.1168518 -3.1168365l12.4670105 0l0 0c0.82662964 0 1.6194153 0.3283844 2.2039337 0.91290283c0.5845337 0.58451843 0.91290283 1.3773041 0.91290283 2.2039337l0 16.483948c0 1.7213898 -1.3954468 3.1168518 -3.1168365 3.1168518l-12.4670105 0c-1.7213898 0 -3.1168518 -1.395462 -3.1168518 -3.1168518z" fill-rule="evenodd"/><path fill="#51de18" d="m111.535934 229.9529l0 0c0 -2.6659698 2.1612015 -4.8271637 4.8271713 -4.8271637l32.405357 0c1.2802429 0 2.5080566 0.50857544 3.41333 1.4138336c0.9052582 0.90527344 1.4138489 2.1330872 1.4138489 3.41333l0 19.30812c0 2.6659698 -2.161209 4.8271637 -4.827179 4.8271637l-32.405357 0c-2.6659698 0 -4.8271713 -2.1611938 -4.8271713 -4.8271637z" fill-rule="evenodd"/><path fill="#51de18" d="m117.02305 231.47362l0 0c0 -0.87312317 0.7078018 -1.5809326 1.580925 -1.5809326l6.323517 0l0 0c0.41928864 0 0.8214035 0.16656494 1.1178818 0.4630432c0.2964859 0.29647827 0.4630432 0.69859314 0.4630432 1.1178894l0 12.146378c0 0.87312317 -0.7078018 1.5809326 -1.580925 1.5809326l-6.323517 0c-0.87312317 0 -1.580925 -0.70780945 -1.580925 -1.5809326z" fill-rule="evenodd"/><path fill="#51de18" d="m140.64098 221.78792l0 0c0 -4.040909 3.2758026 -7.3167114 7.3167114 -7.3167114l35.83145 0c1.9405212 0 3.8015594 0.770874 5.173706 2.1430206c1.3721466 1.3721466 2.1430054 3.2331848 2.1430054 5.173691l0 29.26596c0 4.040909 -3.2758026 7.3167267 -7.3167114 7.3167267l-35.83145 0c-4.040909 0 -7.3167114 -3.2758179 -7.3167114 -7.3167267z" fill-rule="evenodd"/><path fill="#51de18" d="m149.30284 224.92603l0 0c0 -1.496109 1.2128448 -2.7089539 2.7089539 -2.7089539l13.282791 0c0.7184601 0 1.407486 0.28541565 1.9155121 0.7934418c0.5080261 0.5080261 0.7934418 1.197052 0.7934418 1.9155121l0 10.835495c0 1.4961243 -1.2128448 2.7089539 -2.7089539 2.7089539l-13.282791 0c-1.496109 0 -2.7089539 -1.2128296 -2.7089539 -2.7089539z" fill-rule="evenodd"/><path fill="#fff8eb" d="m124.82996 174.06648l0 0c0 -3.7109375 3.008316 -6.7192535 6.719261 -6.7192535l26.876205 0l0 0c1.7820435 0 3.4911194 0.70791626 4.7512207 1.9680176c1.2601013 1.2601013 1.9680176 2.9691772 1.9680176 4.751236l0 40.006134c0 3.7109375 -3.0083008 6.7192535 -6.7192383 6.7192535l-26.876205 0c-3.7109451 0 -6.719261 -3.008316 -6.719261 -6.7192535z" fill-rule="evenodd"/><path fill="#fff8eb" d="m69.932594 135.01018l0 0c0 -4.9195404 3.9880753 -8.907608 8.907616 -8.907608l115.67572 0c2.362442 0 4.628128 0.93847656 6.2986298 2.6089783c1.6705017 1.6705017 2.6089783 3.9361877 2.6089783 6.2986298l0 35.62941c0 4.9195404 -3.9880676 8.907608 -8.907608 8.907608l-115.67572 0l0 0c-4.9195404 0 -8.907616 -3.9880676 -8.907616 -8.907608z" fill-rule="evenodd"/><path fill="#ffe7bc" d="m69.932594 135.01018l0 0c0 -4.9195404 3.9880753 -8.907608 8.907616 -8.907608l58.048798 0c2.3624573 0 4.6281433 0.93847656 6.298645 2.6089783c1.6705017 1.6705017 2.6089783 3.9361877 2.6089783 6.2986298l0 35.62941c0 4.9195404 -3.9880676 8.907608 -8.907623 8.907608l-58.048798 0c-4.9195404 0 -8.907616 -3.9880676 -8.907616 -8.907608z" fill-rule="evenodd"/><path fill="#fc8076" d="m51.745735 90.02902l0 0c0 -6.848114 5.5514984 -12.399612 12.39962 -12.399612l145.06543 0c3.2885895 0 6.4424744 1.3063812 8.767853 3.6317596c2.3253784 2.3253784 3.6317596 5.479271 3.6317596 8.767853l0 49.596985c0 6.8481293 -5.5514984 12.399628 -12.399612 12.399628l-145.06543 0c-6.8481216 0 -12.39962 -5.5514984 -12.39962 -12.399628z" fill-rule="evenodd"/><path fill="#e03027" d="m51.745735 105.350624l0 0c0 -6.8481216 5.5514984 -12.39962 12.39962 -12.39962l145.06543 0c3.2885895 0 6.4424744 1.3063889 8.767853 3.6317673c2.3253784 2.3253784 3.6317596 5.479271 3.6317596 8.767853l0 49.596992c0 6.848114 -5.5514984 12.399612 -12.399612 12.399612l-145.06543 0c-6.8481216 0 -12.39962 -5.5514984 -12.39962 -12.399612z" fill-rule="evenodd"/><path fill="#f73d35" d="m51.745735 95.13622l0 0c0 -6.8481216 5.5514984 -12.399612 12.39962 -12.399612l145.06543 0c3.2885895 0 6.4424744 1.3063812 8.767853 3.6317596c2.3253784 2.3253784 3.6317596 5.479271 3.6317596 8.767853l0 49.596992c0 6.848114 -5.5514984 12.399612 -12.399612 12.399612l-145.06543 0c-6.8481216 0 -12.39962 -5.5514984 -12.39962 -12.399612z" fill-rule="evenodd"/><path fill="#fb5c4e" d="m176.64426 121.66567l0 0c0 -1.9766998 1.6024323 -3.579132 3.579132 -3.579132l22.157867 0c0.94924927 0 1.8596039 0.37708282 2.5308228 1.0483017c0.6712189 0.6712189 1.0483093 1.5815887 1.0483093 2.5308304l0 14.316109c0 1.9766998 -1.6024323 3.579132 -3.579132 3.579132l-22.157867 0c-1.9766998 0 -3.579132 -1.6024323 -3.579132 -3.579132z" fill-rule="evenodd"/><path fill="#fb5c4e" d="m67.61023 106.98922l0 0c0 -3.1964035 2.5911942 -5.7876053 5.7876053 -5.7876053l35.817192 0c1.5349655 0 3.0070648 0.6097641 4.092453 1.6951523c1.0853882 1.0853882 1.6951523 2.5574875 1.6951523 4.092453l0 23.149727c0 3.1964111 -2.5912018 5.787613 -5.7876053 5.787613l-35.817192 0c-3.1964111 0 -5.7876053 -2.5912018 -5.7876053 -5.787613z" fill-rule="evenodd"/><path fill="#ffaaa7" d="m70.15042 95.94032l0 0c0 -1.6509552 1.3383636 -2.9893188 2.9893112 -2.9893188l33.310623 0c0.79281616 0 1.5531616 0.31494904 2.113762 0.8755493c0.5606079 0.5606079 0.8755493 1.3209534 0.8755493 2.1137695l0 11.956894c0 1.6509476 -1.338356 2.9893112 -2.9893112 2.9893112l-33.310623 0c-1.6509476 0 -2.9893112 -1.3383636 -2.9893112 -2.9893112z" fill-rule="evenodd"/><path fill="#e03027" d="m70.15042 100.66212l0 0c0 -1.130867 0.91674805 -2.047615 2.047615 -2.047615l35.194023 0c0.5430603 0 1.0638733 0.21572876 1.447876 0.59973145c0.3840027 0.3840027 0.59973145 0.9048233 0.59973145 1.4478836l0 8.190201c0 1.130867 -0.91674805 2.047615 -2.0476074 2.047615l-35.194023 0c-1.130867 0 -2.047615 -0.91674805 -2.047615 -2.047615z" fill-rule="evenodd"/><path fill="#fb5c4e" d="m129.18315 94.19772l0 0c0 -2.1321716 1.7284698 -3.8606415 3.8606415 -3.8606415l23.887054 0c1.0239105 0 2.0058746 0.4067459 2.729889 1.1307602c0.7240143 0.72400665 1.1307526 1.7059784 1.1307526 2.7298813l0 15.442085c0 2.1321716 -1.7284698 3.8606415 -3.8606415 3.8606415l-23.887054 0c-2.1321716 0 -3.8606415 -1.7284698 -3.8606415 -3.8606415z" fill-rule="evenodd"/><path fill="#ffaaa7" d="m149.11598 108.84237l0 0c0 -1.6509552 1.3383484 -2.9893112 2.9893036 -2.9893112l33.310623 0c0.79281616 0 1.5531616 0.3149414 2.1137695 0.8755493c0.5606079 0.5606003 0.8755493 1.3209457 0.8755493 2.113762l0 11.956894c0 1.6509476 -1.3383636 2.9893112 -2.9893188 2.9893112l-33.310623 0c-1.6509552 0 -2.9893036 -1.3383636 -2.9893036 -2.9893112z" fill-rule="evenodd"/><path fill="#e03027" d="m149.11598 113.56416l0 0c0 -1.130867 0.91674805 -2.047615 2.0476074 -2.047615l35.194016 0c0.5430603 0 1.0638885 0.21572876 1.4478912 0.59973145c0.3840027 0.3840027 0.59973145 0.9048233 0.59973145 1.4478836l0 8.190201c0 1.130867 -0.91674805 2.047615 -2.0476227 2.047615l-35.194016 0c-1.1308594 0 -2.0476074 -0.91674805 -2.0476074 -2.047615z" fill-rule="evenodd"/><path fill="#fb5c4e" d="m123.76932 128.53418l0 0c0 -2.6133957 2.118576 -4.7319717 4.731964 -4.7319717l29.282425 0c1.2550049 0 2.4585876 0.49855042 3.3460083 1.3859634c0.88742065 0.887413 1.3859558 2.0910034 1.3859558 3.3460083l0 18.927277c0 2.613388 -2.1185608 4.731964 -4.731964 4.731964l-29.282425 0c-2.613388 0 -4.731964 -2.118576 -4.731964 -4.731964z" fill-rule="evenodd"/><path fill="#ffaaa7" d="m97.89317 126.79129l0 0c0 -1.6509476 1.3383636 -2.9893112 2.9893112 -2.9893112l33.31063 0c0.7928009 0 1.5531464 0.31494904 2.1137543 0.8755493c0.5606079 0.5606079 0.8755493 1.3209534 0.8755493 2.113762l0 11.956894c0 1.6509552 -1.3383636 2.9893188 -2.9893036 2.9893188l-33.31063 0c-1.6509476 0 -2.9893112 -1.3383636 -2.9893112 -2.9893188z" fill-rule="evenodd"/><path fill="#e03027" d="m97.89317 131.51309l0 0c0 -1.1308746 0.91674805 -2.0476227 2.047615 -2.0476227l35.194023 0c0.5430603 0 1.0638733 0.21574402 1.447876 0.59973145c0.3840027 0.3840027 0.59973145 0.90483093 0.59973145 1.4478912l0 8.190201c0 1.1308594 -0.91674805 2.0476074 -2.0476074 2.0476074l-35.194023 0c-1.130867 0 -2.047615 -0.91674805 -2.047615 -2.0476074z" fill-rule="evenodd"/><path fill="#ffe7bc" d="m124.82996 172.9656l0 0c0 -1.9304199 1.5649261 -3.495346 3.4953537 -3.495346l13.980988 0l0 0c0.9270325 0 1.8160858 0.36825562 2.4715881 1.0237579c0.6555023 0.6555176 1.0237732 1.5445709 1.0237732 2.4715881l0 44.322586c0 1.9304352 -1.5649261 3.495346 -3.4953613 3.495346l-13.980988 0c-1.9304276 0 -3.4953537 -1.5649109 -3.4953537 -3.495346z" fill-rule="evenodd"/><path fill="#227600" d="m113.57117 196.82433l0 0c0 -2.5820923 2.093193 -4.6752777 4.67527 -4.6752777l30.481285 0c1.2399597 0 2.429123 0.49256897 3.3059082 1.3693542c0.8767853 0.8767853 1.3693542 2.0659637 1.3693542 3.3059235l0 18.7005c0 2.5820923 -2.0931854 4.6752777 -4.6752625 4.6752777l-30.481285 0c-2.582077 0 -4.67527 -2.0931854 -4.67527 -4.6752777z" fill-rule="evenodd"/><path fill="#3fbe0c" d="m118.32321 199.27495l0 0c0 -1.7213745 1.3954544 -3.1168365 3.1168442 -3.1168365l12.467003 0l0 0c0.8266449 0 1.6194305 0.32836914 2.203949 0.91290283c0.58451843 0.58451843 0.91290283 1.3773041 0.91290283 2.2039337l0 16.483948c0 1.7213898 -1.395462 3.1168518 -3.1168518 3.1168518l-12.467003 0c-1.7213898 0 -3.1168442 -1.395462 -3.1168442 -3.1168518z" fill-rule="evenodd"/><path fill="#35ad05" d="m96.89293 215.30986l0 0c0 -2.6659698 2.1611938 -4.8271637 4.8271713 -4.8271637l32.405357 0c1.2802429 0 2.5080566 0.50857544 3.4133148 1.4138336c0.90527344 0.90527344 1.4138489 2.1330872 1.4138489 3.41333l0 19.30812c0 2.6659698 -2.1611938 4.8271637 -4.8271637 4.8271637l-32.405357 0c-2.6659775 0 -4.8271713 -2.1611938 -4.8271713 -4.8271637z" fill-rule="evenodd"/><path fill="#51de18" d="m102.380035 216.83058l0 0c0 -0.87312317 0.7078018 -1.5809326 1.580925 -1.5809326l6.323517 0l0 0c0.41928864 0 0.8214035 0.16656494 1.1178894 0.4630432c0.29647827 0.29647827 0.4630432 0.69859314 0.4630432 1.1178894l0 12.146378c0 0.87312317 -0.70780945 1.5809326 -1.5809326 1.5809326l-6.323517 0c-0.87312317 0 -1.580925 -0.70780945 -1.580925 -1.5809326z" fill-rule="evenodd"/><path fill="#3fbe0c" d="m125.99796 207.14488l0 0c0 -4.040909 3.275795 -7.3167114 7.316704 -7.3167114l35.831467 0c1.9405212 0 3.8015442 0.770874 5.173691 2.1430206c1.3721619 1.3721466 2.1430206 3.2331848 2.1430206 5.173691l0 29.26596c0 4.040909 -3.2758026 7.3167114 -7.3167114 7.3167114l-35.831467 0c-4.040909 0 -7.316704 -3.2758026 -7.316704 -7.3167114z" fill-rule="evenodd"/><path fill="#60e62a" d="m134.65982 210.28299l0 0c0 -1.496109 1.2128448 -2.7089539 2.708969 -2.7089539l13.282776 0c0.7184601 0 1.4075012 0.28541565 1.9155273 0.7934418c0.5080261 0.5080261 0.7934418 1.197052 0.7934418 1.9155121l0 10.835495c0 1.4961243 -1.2128448 2.7089539 -2.708969 2.7089539l-13.282776 0c-1.4961243 0 -2.708969 -1.2128296 -2.708969 -2.7089539z" fill-rule="evenodd"/><path fill="#000000" fill-opacity="0.0" d="m21.700787 315.7533l266.29922 0l0 38.771637l-266.29922 0z" fill-rule="evenodd"/><path fill="#000000" d="m33.43516 333.01953l8.703125 0l0 2.8125l-8.703125 0l0 -2.8125zm9.015625 -4.90625l0 2.796875l-8.90625 0l1.59375 -1.578125l0 10.78125l-3.3125 0l0 -12.0l10.625 0zm5.286148 12.25q-1.28125 0 -2.1875 -0.515625q-0.890625 -0.53125 -1.375 -1.5q-0.484375 -0.96875 -0.484375 -2.265625l0 -5.109375l3.265625 0l0 4.640625q0 1.015625 0.5 1.5625q0.5 0.53125 1.421875 0.53125q0.6875 0 1.140625 -0.265625q0.46875 -0.28125 0.71875 -0.8125q0.265625 -0.53125 0.265625 -1.265625l1.015625 0.53125q-0.1875 1.453125 -0.796875 2.453125q-0.609375 1.0 -1.515625 1.515625q-0.890625 0.5 -1.96875 0.5zm3.859375 -0.25l-0.59375 -3.65625l0 -5.484375l3.265625 0l0 5.984375l0.59375 3.15625l-3.265625 0zm4.213272 -9.140625l3.28125 0l0.59375 3.65625l0 5.484375l-3.265625 0l0 -5.984375l-0.609375 -3.15625zm7.234375 -0.265625q1.3125038 0 2.2343788 0.53125q0.921875 0.515625 1.40625 1.484375q0.5 0.953125 0.5 2.265625l0 5.125l-3.2656288 0l0 -4.640625q0 -1.015625 -0.53125 -1.5625q-0.515625 -0.546875 -1.484375 -0.546875q-0.671875 0 -1.1875 0.296875q-0.5 0.28125 -0.765625 0.8125q-0.265625 0.515625 -0.265625 1.234375l-1.015625 -0.515625q0.1875 -1.46875 0.8125 -2.46875q0.625 -1.0 1.53125 -1.5q0.921875 -0.515625 2.03125 -0.515625zm13.795902 7.109375l0 -1.5625l0.109375 -0.375l0 -2.25l-0.109375 -0.328125l0 -2.328125l3.265625 0l0 6.703125q0 1.6875 -0.78125 2.875q-0.78125 1.203125 -2.1875 1.828125q-1.390625 0.625 -3.296875 0.625q-1.265625 0 -2.34375 -0.328125q-1.078125 -0.328125 -2.15625 -0.96875l0 -2.453125q1.0 0.734375 2.09375 1.0625q1.09375 0.328125 2.1875 0.328125q1.578125 0 2.390625 -0.671875q0.828125 -0.671875 0.828125 -2.15625zm-3.921875 1.34375q-1.296875 0 -2.3125 -0.53125q-1.0 -0.53125 -1.578125 -1.484375q-0.578125 -0.953125 -0.578125 -2.21875q0 -1.28125 0.578125 -2.21875q0.578125 -0.953125 1.578125 -1.46875q1.015625 -0.53125 2.3125 -0.53125q0.96875 0 1.765625 0.296875q0.796875 0.296875 1.421875 0.78125q0.625 0.484375 1.046875 1.0625q0.421875 0.5625 0.640625 1.125q0.234375 0.5625 0.234375 0.984375q0 0.59375 -0.34375 1.3125q-0.34375 0.71875 -1.0 1.375q-0.65625 0.65625 -1.609375 1.09375q-0.953125 0.421875 -2.15625 0.421875zm1.109375 -2.234375q0.953125 0 1.6875 -0.484375q0.734375 -0.5 1.234375 -1.515625q-0.515625 -1.015625 -1.265625 -1.5q-0.734375 -0.5 -1.65625 -0.5q-0.703125 0 -1.234375 0.25q-0.515625 0.234375 -0.78125 0.6875q-0.265625 0.453125 -0.265625 1.0625q0 0.59375 0.265625 1.046875q0.265625 0.453125 0.78125 0.703125q0.515625 0.25 1.234375 0.25zm11.773651 3.4375q-1.28125 0 -2.1875 -0.515625q-0.890625 -0.53125 -1.375 -1.5q-0.484375 -0.96875 -0.484375 -2.265625l0 -5.109375l3.265625 0l0 4.640625q0 1.015625 0.5 1.5625q0.5 0.53125 1.421875 0.53125q0.6875 0 1.140625 -0.265625q0.46875 -0.28125 0.71875 -0.8125q0.265625 -0.53125 0.265625 -1.265625l1.015625 0.53125q-0.1875 1.453125 -0.796875 2.453125q-0.609375 1.0 -1.515625 1.515625q-0.890625 0.5 -1.96875 0.5zm3.859375 -0.25l-0.59375 -3.65625l0 -5.484375l3.265625 0l0 5.984375l0.59375 3.15625l-3.265625 0zm15.228897 -2.96875q0 1.046875 -0.640625 1.765625q-0.640625 0.71875 -1.828125 1.09375q-1.171875 0.359375 -2.84375 0.359375q-1.703125 0 -3.0 -0.40625q-1.28125 -0.421875 -2.0 -1.171875q-0.71875 -0.75 -0.765625 -1.75l3.3125 0q0.109375 0.375 0.4375 0.640625q0.328125 0.265625 0.859375 0.40625q0.546875 0.125 1.296875 0.125q0.984375 0 1.484375 -0.1875q0.5 -0.1875 0.5 -0.578125q0 -0.296875 -0.390625 -0.453125q-0.375 -0.15625 -1.296875 -0.234375l-1.625 -0.125q-1.609375 -0.109375 -2.5625 -0.484375q-0.953125 -0.390625 -1.375 -0.984375q-0.40625 -0.59375 -0.40625 -1.359375q0 -1.046875 0.640625 -1.71875q0.65625 -0.6875 1.8125 -1.03125q1.15625 -0.34375 2.71875 -0.34375q1.53125 0 2.734375 0.40625q1.203125 0.390625 1.921875 1.109375q0.71875 0.703125 0.828125 1.671875l-3.3125 0q-0.078125 -0.3125 -0.359375 -0.5625q-0.265625 -0.25 -0.75 -0.40625q-0.46875 -0.15625 -1.234375 -0.15625q-0.875 0 -1.328125 0.203125q-0.453125 0.1875 -0.453125 0.53125q0 0.265625 0.28125 0.4375q0.28125 0.15625 1.046875 0.21875l2.125 0.15625q1.578125 0.09375 2.484375 0.46875q0.921875 0.359375 1.296875 0.953125q0.390625 0.578125 0.390625 1.40625z" fill-rule="nonzero"/><path fill="#000000" d="m108.76111 336.95703q0 -0.84375 0.171875 -1.765625q0.171875 -0.921875 0.46875 -1.78125q0.3125 -0.875 0.703125 -1.515625l0.859375 0q-0.40625 0.8125 -0.703125 1.703125q-0.296875 0.875 -0.453125 1.75q-0.15625 0.859375 -0.15625 1.609375q0 0.671875 0.140625 1.390625q0.140625 0.703125 0.421875 1.5q0.296875 0.78125 0.75 1.71875l-0.859375 0q-0.671875 -1.125 -1.015625 -2.296875q-0.328125 -1.171875 -0.328125 -2.3125z" fill-rule="nonzero"/><path fill="#000000" d="m117.3179 334.30078l0 1.21875l-3.578125 0l0 -1.21875l3.578125 0zm-2.75 5.8125l0 -6.234375q0 -0.640625 0.234375 -1.046875q0.25 -0.421875 0.671875 -0.625q0.4375 -0.203125 0.984375 -0.203125q0.375 0 0.6875 0.0625q0.3125 0.046875 0.453125 0.09375l-0.28125 1.203125q-0.09375 -0.03125 -0.234375 -0.046875q-0.140625 -0.03125 -0.28125 -0.03125q-0.359375 0 -0.5 0.171875q-0.140625 0.15625 -0.140625 0.453125l0 6.203125l-1.59375 0zm7.1265106 -2.46875l0 -3.34375l1.609375 0l0 5.8125l-1.546875 0l0 -1.0625l-0.0625 0q-0.203125 0.515625 -0.65625 0.828125q-0.453125 0.3125 -1.109375 0.3125q-0.578125 0 -1.03125 -0.265625q-0.4375 -0.265625 -0.6875 -0.75q-0.25 -0.5 -0.25 -1.171875l0 -3.703125l1.609375 0l0 3.421875q0 0.5 0.28125 0.8125q0.28125 0.296875 0.734375 0.28125q0.28125 0 0.53125 -0.125q0.25 -0.140625 0.40625 -0.40625q0.171875 -0.265625 0.171875 -0.640625zm4.155319 -0.890625l0 3.359375l-1.609375 0l0 -7.75l1.5625 0l0 2.96875l0.078125 0q0.1875 -0.515625 0.625 -0.8125q0.4375 -0.296875 1.109375 -0.296875q0.59375 0 1.046875 0.265625q0.453125 0.265625 0.703125 0.75q0.265625 0.484375 0.265625 1.171875l0 3.703125l-1.625 0l0 -3.40625q0 -0.546875 -0.28125 -0.84375q-0.265625 -0.296875 -0.75 -0.296875q-0.34375 0 -0.59375 0.140625q-0.234375 0.140625 -0.390625 0.40625q-0.140625 0.265625 -0.140625 0.640625zm6.3271484 0l0 3.359375l-1.609375 0l0 -5.8125l1.59375 0l0 1.03125l0.046875 0q0.203125 -0.515625 0.625 -0.8125q0.4375 -0.296875 1.09375 -0.296875q0.59375 0 1.046875 0.265625q0.453125 0.265625 0.703125 0.765625q0.25 0.484375 0.25 1.15625l0 3.703125l-1.609375 0l0 -3.40625q0 -0.53125 -0.28125 -0.828125q-0.265625 -0.3125 -0.75 -0.3125q-0.328125 0 -0.578125 0.140625q-0.25 0.140625 -0.390625 0.40625q-0.140625 0.265625 -0.140625 0.640625zm7.301132 5.65625q-1.171875 0 -1.84375 -0.46875q-0.671875 -0.453125 -0.8125 -1.15625l1.484375 -0.1875q0.078125 0.171875 0.21875 0.3125q0.140625 0.15625 0.375 0.25q0.25 0.09375 0.609375 0.09375q0.53125 0 0.875 -0.25q0.34375 -0.25 0.34375 -0.859375l0 -1.0625l-0.078125 0q-0.09375 0.234375 -0.3125 0.453125q-0.21875 0.21875 -0.546875 0.359375q-0.328125 0.140625 -0.796875 0.140625q-0.65625 0 -1.1875 -0.296875q-0.53125 -0.3125 -0.859375 -0.9375q-0.3125 -0.640625 -0.3125 -1.59375q0 -1.0 0.328125 -1.65625q0.328125 -0.671875 0.859375 -1.0q0.53125 -0.328125 1.171875 -0.328125q0.484375 0 0.8125 0.171875q0.34375 0.15625 0.546875 0.40625q0.203125 0.234375 0.3125 0.484375l0.0625 0l0 -0.984375l1.59375 0l0 5.875q0 0.734375 -0.375 1.234375q-0.359375 0.5 -1.0 0.75q-0.640625 0.25 -1.46875 0.25zm0.03125 -3.59375q0.578125 0 0.890625 -0.421875q0.328125 -0.4375 0.328125 -1.203125q0 -0.515625 -0.140625 -0.890625q-0.140625 -0.375 -0.421875 -0.578125q-0.265625 -0.21875 -0.65625 -0.21875q-0.40625 0 -0.671875 0.21875q-0.265625 0.21875 -0.40625 0.59375q-0.140625 0.375 -0.140625 0.875q0 0.5 0.140625 0.875q0.140625 0.359375 0.40625 0.5625q0.265625 0.1875 0.671875 0.1875z" fill-rule="nonzero"/><path fill="#000000" d="m148.03703 338.6914q-0.453125 0 -0.84375 -0.21875q-0.375 -0.234375 -0.609375 -0.609375q-0.21875 -0.390625 -0.21875 -0.84375q0 -0.453125 0.21875 -0.828125q0.234375 -0.390625 0.609375 -0.609375q0.390625 -0.21875 0.84375 -0.21875q0.453125 0 0.828125 0.21875q0.390625 0.21875 0.609375 0.609375q0.21875 0.375 0.21875 0.828125q0 0.453125 -0.21875 0.84375q-0.21875 0.375 -0.609375 0.609375q-0.375 0.21875 -0.828125 0.21875zm7.648926 3.71875q-0.96875 0 -1.53125 -0.359375q-0.5625 -0.34375 -0.828125 -0.796875l0.703125 -0.5q0.125 0.15625 0.3125 0.359375q0.1875 0.203125 0.5 0.359375q0.328125 0.15625 0.84375 0.15625q0.703125 0 1.15625 -0.34375q0.46875 -0.34375 0.46875 -1.0625l0 -1.1875l-0.078125 0q-0.09375 0.15625 -0.28125 0.390625q-0.171875 0.234375 -0.515625 0.421875q-0.328125 0.171875 -0.90625 0.171875q-0.6875 0 -1.25 -0.328125q-0.5625 -0.34375 -0.890625 -0.96875q-0.3125 -0.640625 -0.3125 -1.546875q0 -0.890625 0.3125 -1.546875q0.3125 -0.671875 0.875 -1.03125q0.5625 -0.375 1.296875 -0.375q0.5625 0 0.890625 0.1875q0.34375 0.1875 0.515625 0.421875q0.1875 0.234375 0.28125 0.390625l0.09375 0l0 -0.921875l0.859375 0l0 5.984375q0 0.75 -0.34375 1.21875q-0.328125 0.46875 -0.90625 0.6875q-0.5625 0.21875 -1.265625 0.21875zm-0.03125 -3.1875q0.8125 0 1.234375 -0.546875q0.4375 -0.546875 0.4375 -1.515625q0 -0.625 -0.1875 -1.109375q-0.1875 -0.484375 -0.5625 -0.75q-0.375 -0.28125 -0.921875 -0.28125q-0.5625 0 -0.9375 0.296875q-0.375 0.28125 -0.5625 0.765625q-0.1875 0.484375 -0.1875 1.078125q0 0.59375 0.1875 1.0625q0.1875 0.46875 0.5625 0.734375q0.390625 0.265625 0.9375 0.265625zm7.3535156 -1.484375l0 -3.4375l0.890625 0l0 5.8125l-0.890625 0l0 -0.984375l-0.0625 0q-0.203125 0.4375 -0.640625 0.75q-0.421875 0.3125 -1.078125 0.3125q-0.546875 0 -0.96875 -0.234375q-0.421875 -0.25 -0.671875 -0.734375q-0.234375 -0.484375 -0.234375 -1.234375l0 -3.6875l0.875 0l0 3.640625q0 0.625 0.359375 1.015625q0.375 0.375 0.921875 0.359375q0.328125 0 0.671875 -0.15625q0.359375 -0.171875 0.59375 -0.515625q0.234375 -0.359375 0.234375 -0.90625zm2.9111023 -1.125l0 3.5l-0.875 0l0 -7.75l0.875 0l0 2.84375l0.09375 0q0.203125 -0.453125 0.609375 -0.71875q0.40625 -0.265625 1.09375 -0.265625q0.59375 0 1.03125 0.234375q0.453125 0.234375 0.703125 0.734375q0.25 0.484375 0.25 1.234375l0 3.6875l-0.890625 0l0 -3.625q0 -0.703125 -0.359375 -1.078125q-0.359375 -0.390625 -1.0 -0.390625q-0.4375 0 -0.78125 0.1875q-0.34375 0.1875 -0.546875 0.546875q-0.203125 0.359375 -0.203125 0.859375zm9.041199 -1.0l-0.8125 0.21875q-0.109375 -0.296875 -0.390625 -0.5625q-0.28125 -0.28125 -0.859375 -0.28125q-0.53125 0 -0.890625 0.25q-0.34375 0.25 -0.34375 0.625q0 0.328125 0.234375 0.53125q0.25 0.1875 0.765625 0.3125l0.859375 0.21875q0.765625 0.1875 1.140625 0.578125q0.390625 0.375 0.390625 0.984375q0 0.5 -0.28125 0.90625q-0.28125 0.390625 -0.796875 0.625q-0.515625 0.21875 -1.1875 0.21875q-0.890625 0 -1.46875 -0.390625q-0.578125 -0.390625 -0.734375 -1.125l0.84375 -0.21875q0.125 0.46875 0.453125 0.703125q0.34375 0.234375 0.90625 0.234375q0.609375 0 0.984375 -0.265625q0.375 -0.265625 0.375 -0.640625q0 -0.609375 -0.875 -0.8125l-0.953125 -0.234375q-0.8125 -0.1875 -1.1875 -0.578125q-0.375 -0.40625 -0.375 -1.0q0 -0.5 0.28125 -0.875q0.28125 -0.375 0.765625 -0.59375q0.484375 -0.21875 1.09375 -0.21875q0.859375 0 1.34375 0.390625q0.5 0.375 0.71875 1.0zm3.1280212 5.953125q0.453125 -0.9375 0.734375 -1.71875q0.296875 -0.796875 0.4375 -1.5q0.140625 -0.71875 0.140625 -1.390625q0 -0.75 -0.15625 -1.609375q-0.15625 -0.875 -0.453125 -1.75q-0.296875 -0.890625 -0.703125 -1.703125l0.859375 0q0.40625 0.640625 0.703125 1.515625q0.296875 0.859375 0.46875 1.78125q0.171875 0.921875 0.171875 1.765625q0 1.140625 -0.34375 2.3125q-0.328125 1.171875 -1.0 2.296875l-0.859375 0z" fill-rule="nonzero"/></g></svg>