<svg version="1.1" viewBox="0.0 0.0 480.0 96.0" fill="none" stroke="none" stroke-linecap="square" stroke-miterlimit="10" xmlns:xlink="http://www.w3.org/1999/xlink" xmlns="http://www.w3.org/2000/svg"><clipPath id="g3b6cfa48ab7_0_43.0"><path d="m0 0l480.0 0l0 96.0l-480.0 0l0 -96.0z" clip-rule="nonzero"/></clipPath><g clip-path="url(#g3b6cfa48ab7_0_43.0)"><path fill="#2563eb" d="m5.7007875 21.008144l0 0c0 -7.4538193 6.042514 -13.496333 13.496333 -13.496333l342.61365 0c3.5794373 0 7.0122986 1.4219303 9.543335 3.9529839c2.531067 2.5310535 3.953003 5.9638987 3.953003 9.543349l0 53.983715c0 7.4538193 -6.042511 13.49633 -13.496338 13.49633l-342.61365 0c-7.4538193 0 -13.496333 -6.042511 -13.496333 -13.49633z" fill-rule="evenodd"/><path stroke="#2563eb" stroke-width="4.0" stroke-linejoin="round" stroke-linecap="butt" d="m5.7007875 21.008144l0 0c0 -7.4538193 6.042514 -13.496333 13.496333 -13.496333l342.61365 0c3.5794373 0 7.0122986 1.4219303 9.543335 3.9529839c2.531067 2.5310535 3.953003 5.9638987 3.953003 9.543349l0 53.983715c0 7.4538193 -6.042511 13.49633 -13.496338 13.49633l-342.61365 0c-7.4538193 0 -13.496333 -6.042511 -13.496333 -13.49633z" fill-rule="evenodd"/><path fill="#a8c3ff" d="m5.7007875 19.86376l0 0c0 -6.69713 5.429096 -12.126227 12.126227 -12.126227l345.35382 0c3.216095 0 6.3004456 1.2775812 8.574554 3.55169c2.274109 2.274108 3.5516968 5.3584614 3.5516968 8.574537l0 48.50345c0 6.6971283 -5.4291077 12.126228 -12.126251 12.126228l-345.35382 0l0 0c-6.697131 0 -12.126227 -5.4291 -12.126227 -12.126228z" fill-rule="evenodd"/><path stroke="#2563eb" stroke-width="4.0" stroke-linejoin="round" stroke-linecap="butt" d="m5.7007875 19.86376l0 0c0 -6.69713 5.429096 -12.126227 12.126227 -12.126227l345.35382 0c3.216095 0 6.3004456 1.2775812 8.574554 3.55169c2.274109 2.274108 3.5516968 5.3584614 3.5516968 8.574537l0 48.50345c0 6.6971283 -5.4291077 12.126228 -12.126251 12.126228l-345.35382 0l0 0c-6.697131 0 -12.126227 -5.4291 -12.126227 -12.126228z" fill-rule="evenodd"/><path fill="#2563eb" d="m128.5369 44.657986q-0.0625 1.453125 -0.5937424 2.765625q-0.515625 1.3125 -1.515625 2.34375q-0.984375 1.015625 -2.46875 1.59375q-1.484375 0.578125 -3.4375 0.578125q-1.875 0 -3.53125 -0.546875q-1.640625 -0.546875 -2.890625 -1.609375q-1.234375 -1.0625 -1.9375 -2.625q-0.6875 -1.5625 -0.6875 -3.5625q0 -2.0 0.703125 -3.546875q0.703125 -1.5625 1.96875 -2.625q1.265625 -1.078125 2.9375 -1.625q1.6875 -0.546875 3.671875 -0.546875q2.640625 0 4.5625 0.8125q1.921875 0.8125 3.0937424 2.21875q1.171875 1.40625 1.515625 3.265625l-4.4687424 0q-0.203125 -0.8125 -0.859375 -1.390625q-0.65625 -0.59375 -1.625 -0.890625q-0.96875 -0.3125 -2.203125 -0.3125q-1.5 0 -2.59375 0.515625q-1.078125 0.515625 -1.671875 1.5625q-0.59375 1.03125 -0.59375 2.5625q0 1.5625 0.640625 2.625q0.640625 1.0625 1.8125 1.609375q1.1875 0.53125 2.796875 0.53125q1.546875 0 2.734375 -0.4375q1.203125 -0.4375 1.921875 -1.296875q0.71875 -0.859375 0.8125 -2.046875l1.9062424 0.078125zm-6.9531174 1.78125l0 -3.125l8.484367 0l0 8.28125l-3.1406174 0l-0.609375 -6.328125l0.828125 1.171875l-5.5625 0zm17.896935 5.5q-2.21875 0 -3.96875 -0.8125q-1.734375 -0.8125 -2.734375 -2.265625q-1.0 -1.46875 -1.0 -3.40625q0 -1.90625 0.953125 -3.34375q0.96875 -1.4375 2.640625 -2.25q1.671875 -0.8125 3.78125 -0.8125q2.203125 0 3.75 0.953125q1.546875 0.953125 2.390625 2.6875q0.84375 1.71875 0.84375 4.0625l-10.84375 0l0 -2.625l8.390625 0l-1.4375 0.921875q-0.078125 -0.9375 -0.46875 -1.578125q-0.375 -0.65625 -1.015625 -1.0q-0.625 -0.34375 -1.5 -0.34375q-0.953125 0 -1.640625 0.390625q-0.6875 0.375 -1.078125 1.046875q-0.375 0.671875 -0.375 1.5625q0 1.15625 0.515625 1.953125q0.53125 0.796875 1.546875 1.234375q1.015625 0.421875 2.484375 0.421875q1.34375 0 2.671875 -0.34375q1.34375 -0.359375 2.421875 -1.0l0 2.78125q-1.25 0.84375 -2.875 1.3125q-1.609375 0.453125 -3.453125 0.453125zm7.180176 -9.296875l0 -1.90625l2.484375 -1.0l1.875 -3.609375l2.46875 0l0 3.296875l5.125 0l0 3.21875l-5.125 0l0 3.578125q0 1.328125 0.53125 1.859375q0.53125 0.53125 1.9375 0.53125q0.90625 0 1.59375 -0.15625q0.6875 -0.171875 1.265625 -0.421875l0 3.28125q-0.640625 0.234375 -1.6875 0.421875q-1.03125 0.203125 -2.140625 0.203125q-2.03125 0 -3.328125 -0.609375q-1.28125 -0.625 -1.90625 -1.78125q-0.609375 -1.171875 -0.609375 -2.734375l0 -4.171875l-2.484375 0zm18.790924 3.703125l4.5 0q0.109375 0.671875 0.625 1.15625q0.515625 0.484375 1.375 0.75q0.859375 0.265625 2.03125 0.265625q1.625 0 2.5625 -0.40625q0.9375 -0.421875 0.9375 -1.234375q0 -0.609375 -0.53125 -0.953125q-0.53125 -0.34375 -2.046875 -0.484375l-2.984375 -0.28125q-3.3125 -0.296875 -4.8125 -1.5q-1.484375 -1.21875 -1.484375 -3.265625q0 -1.65625 0.96875 -2.8125q0.96875 -1.15625 2.734375 -1.734375q1.765625 -0.59375 4.109375 -0.59375q2.296875 0 4.078125 0.65625q1.796875 0.65625 2.859375 1.859375q1.0625 1.1875 1.140625 2.765625l-4.484375 0q-0.078125 -0.578125 -0.546875 -1.0q-0.453125 -0.421875 -1.25 -0.640625q-0.78125 -0.21875 -1.890625 -0.21875q-1.484375 0 -2.359375 0.390625q-0.875 0.390625 -0.875 1.15625q0 0.5625 0.515625 0.90625q0.53125 0.34375 1.890625 0.46875l3.171875 0.3125q2.28125 0.21875 3.640625 0.75q1.375 0.515625 1.984375 1.4375q0.625 0.90625 0.625 2.28125q0 1.671875 -1.0 2.921875q-1.0 1.25 -2.8125 1.953125q-1.8125 0.6875 -4.21875 0.6875q-2.484375 0 -4.375 -0.6875q-1.875 -0.703125 -2.953125 -1.96875q-1.0625 -1.265625 -1.125 -2.9375zm17.147064 -3.703125l0 -1.90625l2.484375 -1.0l1.875 -3.609375l2.46875 0l0 3.296875l5.125 0l0 3.21875l-5.125 0l0 3.578125q0 1.328125 0.53125 1.859375q0.53125 0.53125 1.9375 0.53125q0.90625 0 1.59375 -0.15625q0.6875 -0.171875 1.265625 -0.421875l0 3.28125q-0.640625 0.234375 -1.6875 0.421875q-1.03125 0.203125 -2.140625 0.203125q-2.03125 0 -3.328125 -0.609375q-1.28125 -0.625 -1.90625 -1.78125q-0.609375 -1.171875 -0.609375 -2.734375l0 -4.171875l-2.484375 0zm24.64038 8.953125l-0.5625 -4.390625l0.578125 -1.6875l-0.578125 -1.6875l0.5625 -4.40625l4.515625 0l-0.765625 6.078125l0.765625 6.09375l-4.515625 0zm1.015625 -6.078125q-0.296875 1.921875 -1.1875 3.375q-0.875 1.4375 -2.234375 2.25q-1.34375 0.796875 -3.078125 0.796875q-1.796875 0 -3.15625 -0.796875q-1.34375 -0.8125 -2.109375 -2.265625q-0.765625 -1.46875 -0.765625 -3.359375q0 -1.9375 0.765625 -3.390625q0.765625 -1.453125 2.109375 -2.265625q1.359375 -0.8125 3.15625 -0.8125q1.734375 0 3.078125 0.8125q1.359375 0.796875 2.25 2.234375q0.90625 1.4375 1.171875 3.421875zm-8.125 0q0 0.890625 0.375 1.59375q0.375 0.703125 1.03125 1.109375q0.671875 0.390625 1.515625 0.390625q0.90625 0 1.6875 -0.390625q0.796875 -0.40625 1.390625 -1.109375q0.59375 -0.703125 0.890625 -1.59375q-0.296875 -0.921875 -0.890625 -1.625q-0.59375 -0.703125 -1.390625 -1.109375q-0.78125 -0.40625 -1.6875 -0.40625q-0.84375 0 -1.515625 0.40625q-0.65625 0.40625 -1.03125 1.109375q-0.375 0.703125 -0.375 1.625zm13.148346 -6.09375l4.4375 0l0.71875 4.34375l0 7.828125l-4.359375 0l0 -8.078125l-0.796875 -4.09375zm10.875 -0.203125l0 3.71875q-0.640625 -0.125 -1.21875 -0.171875q-0.5625 -0.0625 -1.03125 -0.0625q-0.9375 0 -1.734375 0.375q-0.78125 0.375 -1.265625 1.234375q-0.46875 0.84375 -0.46875 2.265625l-0.828125 -1.015625q0.171875 -1.328125 0.5 -2.484375q0.34375 -1.171875 0.921875 -2.078125q0.59375 -0.90625 1.46875 -1.421875q0.875 -0.53125 2.140625 -0.53125q0.359375 0 0.734375 0.046875q0.390625 0.046875 0.78125 0.125zm0.52615356 3.421875l0 -1.90625l2.484375 -1.0l1.875 -3.609375l2.46875 0l0 3.296875l5.125 0l0 3.21875l-5.125 0l0 3.578125q0 1.328125 0.53125 1.859375q0.53125 0.53125 1.9375 0.53125q0.90625 0 1.59375 -0.15625q0.6875 -0.171875 1.265625 -0.421875l0 3.28125q-0.640625 0.234375 -1.6875 0.421875q-1.03125 0.203125 -2.140625 0.203125q-2.03125 0 -3.328125 -0.609375q-1.28125 -0.625 -1.90625 -1.78125q-0.609375 -1.171875 -0.609375 -2.734375l0 -4.171875l-2.484375 0zm20.695679 9.296875q-2.21875 0 -3.96875 -0.8125q-1.734375 -0.8125 -2.734375 -2.265625q-1.0 -1.46875 -1.0 -3.40625q0 -1.90625 0.953125 -3.34375q0.96875 -1.4375 2.640625 -2.25q1.671875 -0.8125 3.78125 -0.8125q2.203125 0 3.75 0.953125q1.546875 0.953125 2.390625 2.6875q0.84375 1.71875 0.84375 4.0625l-10.84375 0l0 -2.625l8.390625 0l-1.4375 0.921875q-0.078125 -0.9375 -0.46875 -1.578125q-0.375 -0.65625 -1.015625 -1.0q-0.625 -0.34375 -1.5 -0.34375q-0.953125 0 -1.640625 0.390625q-0.6875 0.375 -1.078125 1.046875q-0.375 0.671875 -0.375 1.5625q0 1.15625 0.515625 1.953125q0.53125 0.796875 1.546875 1.234375q1.015625 0.421875 2.484375 0.421875q1.34375 0 2.671875 -0.34375q1.34375 -0.359375 2.421875 -1.0l0 2.78125q-1.25 0.84375 -2.875 1.3125q-1.609375 0.453125 -3.453125 0.453125zm19.592407 -0.34375l-0.578125 -4.5625l0.75 -1.5l-0.71875 -1.875l1.015625 -8.484375l4.53125 0l-1.265625 10.0l0.765625 6.421875l-4.5 0zm0.9375 -6.078125q-0.296875 1.921875 -1.1875 3.375q-0.875 1.4375 -2.234375 2.25q-1.34375 0.796875 -3.078125 0.796875q-1.796875 0 -3.15625 -0.796875q-1.34375 -0.8125 -2.109375 -2.265625q-0.765625 -1.46875 -0.765625 -3.359375q0 -1.9375 0.765625 -3.390625q0.765625 -1.453125 2.109375 -2.265625q1.359375 -0.8125 3.15625 -0.8125q1.734375 0 3.078125 0.8125q1.359375 0.796875 2.25 2.234375q0.90625 1.4375 1.171875 3.421875zm-8.125 0q0 0.890625 0.375 1.59375q0.375 0.703125 1.03125 1.109375q0.671875 0.390625 1.515625 0.390625q0.90625 0 1.6875 -0.390625q0.796875 -0.40625 1.390625 -1.109375q0.59375 -0.703125 0.890625 -1.59375q-0.296875 -0.921875 -0.890625 -1.625q-0.59375 -0.703125 -1.390625 -1.109375q-0.78125 -0.40625 -1.6875 -0.40625q-0.84375 0 -1.515625 0.40625q-0.65625 0.40625 -1.03125 1.109375q-0.375 0.703125 -0.375 1.625z" fill-rule="nonzero"/></g></svg>