<svg version="1.1" viewBox="0.0 0.0 288.0 384.0" fill="none" stroke="none" stroke-linecap="square" stroke-miterlimit="10" xmlns:xlink="http://www.w3.org/1999/xlink" xmlns="http://www.w3.org/2000/svg"><clipPath id="g3a72db97a13_0_2806.0"><path d="m0 0l288.0 0l0 384.0l-288.0 0l0 -384.0z" clip-rule="nonzero"/></clipPath><g clip-path="url(#g3a72db97a13_0_2806.0)"><path fill="#161d25" d="m0 0l288.0 0l0 384.0l-288.0 0z" fill-rule="evenodd"/><path fill="#3b4652" d="m5.7007875 34.135216l0 0c0 -9.966135 8.079147 -18.045282 18.04528 -18.045282l240.50787 0c4.7858887 0 9.375793 1.9011936 12.759949 5.2853394c3.3841248 3.3841476 5.2853394 7.9740353 5.2853394 12.759943l0 324.2244c0 9.9661255 -8.079163 18.045288 -18.045288 18.045288l-240.50787 0l0 0c-9.966134 0 -18.04528 -8.079163 -18.04528 -18.045288z" fill-rule="evenodd"/><path stroke="#3b4652" stroke-width="4.0" stroke-linejoin="round" stroke-linecap="butt" d="m5.7007875 34.135216l0 0c0 -9.966135 8.079147 -18.045282 18.04528 -18.045282l240.50787 0c4.7858887 0 9.375793 1.9011936 12.759949 5.2853394c3.3841248 3.3841476 5.2853394 7.9740353 5.2853394 12.759943l0 324.2244c0 9.9661255 -8.079163 18.045288 -18.045288 18.045288l-240.50787 0l0 0c-9.966134 0 -18.04528 -8.079163 -18.04528 -18.045288z" fill-rule="evenodd"/><path fill="#29323c" d="m5.7007875 25.639769l0 0c0 -9.966133 8.079147 -18.04528 18.04528 -18.04528l240.50787 0c4.7858887 0 9.375793 1.9011936 12.759949 5.2853403c3.3841248 3.3841467 5.2853394 7.9740343 5.2853394 12.75994l0 324.2244c0 9.9661255 -8.079163 18.045288 -18.045288 18.045288l-240.50787 0l0 0c-9.966134 0 -18.04528 -8.079163 -18.04528 -18.045288z" fill-rule="evenodd"/><path stroke="#3b4652" stroke-width="4.0" stroke-linejoin="round" stroke-linecap="butt" d="m5.7007875 25.639769l0 0c0 -9.966133 8.079147 -18.04528 18.04528 -18.04528l240.50787 0c4.7858887 0 9.375793 1.9011936 12.759949 5.2853403c3.3841248 3.3841467 5.2853394 7.9740343 5.2853394 12.75994l0 324.2244c0 9.9661255 -8.079163 18.045288 -18.045288 18.045288l-240.50787 0l0 0c-9.966134 0 -18.04528 -8.079163 -18.04528 -18.045288z" fill-rule="evenodd"/><path fill="#000000" fill-opacity="0.0" d="m21.700787 315.7533l266.29922 0l0 38.771637l-266.29922 0z" fill-rule="evenodd"/><path fill="#ffffff" d="m31.825787 328.11328l3.3125 0l0 12.0l-3.3125 0l0 -12.0zm9.4375 0l3.328125 0l0 12.0l-3.328125 0l0 -12.0zm-7.59375 4.4375l8.96875 0l0 2.9375l-8.96875 0l0 -2.9375zm21.051529 7.5625l-0.421875 -3.296875l0.4375 -1.265625l-0.4375 -1.265625l0.421875 -3.3125l3.390625 0l-0.578125 4.5625l0.578125 4.578125l-3.390625 0zm0.765625 -4.5625q-0.21875 1.4375 -0.890625 2.53125q-0.65625 1.09375 -1.671875 1.6875q-1.015625 0.59375 -2.3125 0.59375q-1.34375 0 -2.375 -0.59375q-1.015625 -0.59375 -1.59375 -1.6875q-0.5625 -1.109375 -0.5625 -2.53125q0 -1.453125 0.5625 -2.53125q0.578125 -1.09375 1.59375 -1.703125q1.03125 -0.609375 2.375 -0.609375q1.296875 0 2.3125 0.609375q1.015625 0.59375 1.6875 1.671875q0.671875 1.078125 0.875 2.5625zm-6.09375 0q0 0.671875 0.28125 1.203125q0.28125 0.53125 0.765625 0.828125q0.5 0.296875 1.140625 0.296875q0.671875 0 1.265625 -0.296875q0.59375 -0.296875 1.03125 -0.828125q0.453125 -0.53125 0.671875 -1.203125q-0.21875 -0.6875 -0.671875 -1.203125q-0.4375 -0.53125 -1.03125 -0.828125q-0.59375 -0.3125 -1.265625 -0.3125q-0.640625 0 -1.140625 0.3125q-0.484375 0.296875 -0.765625 0.828125q-0.28125 0.515625 -0.28125 1.203125zm9.856659 -4.578125l3.28125 0l0.59375 3.65625l0 5.484375l-3.265625 0l0 -5.984375l-0.609375 -3.15625zm7.234379 -0.265625q1.3125 0 2.234375 0.53125q0.921875 0.515625 1.40625 1.484375q0.5 0.953125 0.5 2.265625l0 5.125l-3.265625 0l0 -4.640625q0 -1.015625 -0.53125 -1.5625q-0.515625 -0.546875 -1.484375 -0.546875q-0.671875 0 -1.1875 0.296875q-0.5000038 0.28125 -0.7656288 0.8125q-0.265625 0.515625 -0.265625 1.234375l-1.015625 -0.515625q0.1875 -1.46875 0.8125 -2.46875q0.625 -1.0 1.5312538 -1.5q0.921875 -0.515625 2.03125 -0.515625zm14.139648 9.40625l-0.4375 -3.421875l0.5625 -1.125l-0.546875 -1.40625l0.765625 -6.359375l3.390625 0l-0.9375 7.5l0.578125 4.8125l-3.375 0zm0.703125 -4.5625q-0.21875 1.4375 -0.890625 2.53125q-0.65625 1.09375 -1.671875 1.6875q-1.015625 0.59375 -2.3125 0.59375q-1.34375 0 -2.375 -0.59375q-1.015625 -0.59375 -1.59375 -1.6875q-0.5625 -1.109375 -0.5625 -2.53125q0 -1.453125 0.5625 -2.53125q0.578125 -1.09375 1.59375 -1.703125q1.03125 -0.609375 2.375 -0.609375q1.296875 0 2.3125 0.609375q1.015625 0.59375 1.6875 1.671875q0.671875 1.078125 0.875 2.5625zm-6.09375 0q0 0.671875 0.28125 1.203125q0.28125 0.53125 0.765625 0.828125q0.5 0.296875 1.140625 0.296875q0.671875 0 1.265625 -0.296875q0.59375 -0.296875 1.03125 -0.828125q0.453125 -0.53125 0.671875 -1.203125q-0.21875 -0.6875 -0.671875 -1.203125q-0.4375 -0.53125 -1.03125 -0.828125q-0.59375 -0.3125 -1.265625 -0.3125q-0.640625 0 -1.140625 0.3125q-0.484375 0.296875 -0.765625 0.828125q-0.28125 0.515625 -0.28125 1.203125z" fill-rule="nonzero"/><path fill="#ffffff" d="m93.03621 336.95703q0 -0.84375 0.171875 -1.765625q0.171875 -0.921875 0.46875 -1.78125q0.3125 -0.875 0.703125 -1.515625l0.859375 0q-0.40625 0.8125 -0.703125 1.703125q-0.296875 0.875 -0.453125 1.75q-0.15625 0.859375 -0.15625 1.609375q0 0.671875 0.140625 1.390625q0.140625 0.703125 0.421875 1.5q0.296875 0.78125 0.75 1.71875l-0.859375 0q-0.671875 -1.125 -1.015625 -2.296875q-0.328125 -1.171875 -0.328125 -2.3125zm6.400543 -0.34375l0 3.5l-0.875 0l0 -7.75l0.875 0l0 2.84375l0.09375 0q0.203125 -0.453125 0.609375 -0.71875q0.40625 -0.265625 1.09375 -0.265625q0.59375 0 1.03125 0.234375q0.453125 0.234375 0.703125 0.734375q0.25 0.484375 0.25 1.234375l0 3.6875l-0.890625 0l0 -3.625q0 -0.703125 -0.359375 -1.078125q-0.359375 -0.390625 -1.0 -0.390625q-0.4375 0 -0.78125 0.1875q-0.34375 0.1875 -0.546875 0.546875q-0.203125 0.359375 -0.203125 0.859375zm6.6349487 3.640625q-0.546875 0 -1.0 -0.203125q-0.453125 -0.21875 -0.71875 -0.625q-0.265625 -0.40625 -0.265625 -0.96875q0 -0.5 0.1875 -0.796875q0.203125 -0.3125 0.53125 -0.484375q0.328125 -0.1875 0.71875 -0.28125q0.40625 -0.09375 0.8125 -0.140625q0.53125 -0.0625 0.859375 -0.09375q0.328125 -0.046875 0.484375 -0.125q0.15625 -0.09375 0.15625 -0.3125l0 -0.03125q0 -0.5625 -0.3125 -0.859375q-0.296875 -0.3125 -0.921875 -0.3125q-0.625 0 -1.0 0.28125q-0.359375 0.265625 -0.5 0.59375l-0.859375 -0.3125q0.234375 -0.53125 0.609375 -0.828125q0.390625 -0.296875 0.84375 -0.40625q0.453125 -0.125 0.875 -0.125q0.28125 0 0.640625 0.0625q0.375 0.0625 0.71875 0.28125q0.34375 0.203125 0.5625 0.625q0.234375 0.40625 0.234375 1.09375l0 3.828125l-0.890625 0l0 -0.796875l-0.046875 0q-0.078125 0.1875 -0.296875 0.40625q-0.21875 0.21875 -0.578125 0.375q-0.34375 0.15625 -0.84375 0.15625zm0.140625 -0.8125q0.515625 0 0.875 -0.203125q0.375 -0.203125 0.5625 -0.53125q0.1875 -0.34375 0.1875 -0.703125l0 -0.8125q-0.0625 0.0625 -0.25 0.125q-0.1875 0.046875 -0.4375 0.09375q-0.25 0.03125 -0.484375 0.0625q-0.21875 0.03125 -0.359375 0.046875q-0.359375 0.046875 -0.65625 0.15625q-0.296875 0.09375 -0.484375 0.296875q-0.1875 0.1875 -0.1875 0.53125q0 0.46875 0.34375 0.703125q0.34375 0.234375 0.890625 0.234375zm4.546692 -2.828125l0 3.5l-0.875 0l0 -5.8125l0.84375 0l0 0.90625l0.09375 0q0.203125 -0.4375 0.609375 -0.703125q0.421875 -0.28125 1.078125 -0.28125q0.59375 0 1.03125 0.25q0.4375 0.234375 0.6875 0.71875q0.25 0.484375 0.25 1.234375l0 3.6875l-0.890625 0l0 -3.625q0 -0.6875 -0.359375 -1.078125q-0.359375 -0.390625 -0.96875 -0.390625q-0.421875 0 -0.765625 0.1875q-0.34375 0.1875 -0.546875 0.546875q-0.1875 0.359375 -0.1875 0.859375zm7.04126 3.625q-0.71875 0 -1.28125 -0.359375q-0.546875 -0.375 -0.859375 -1.046875q-0.3125 -0.6875 -0.3125 -1.609375q0 -0.921875 0.3125 -1.59375q0.3125 -0.671875 0.859375 -1.03125q0.5625 -0.375 1.296875 -0.375q0.578125 0 0.90625 0.1875q0.328125 0.1875 0.5 0.421875q0.1875 0.234375 0.28125 0.390625l0.078125 0l0 -2.859375l0.875 0l0 7.75l-0.84375 0l0 -0.890625l-0.109375 0q-0.09375 0.15625 -0.28125 0.40625q-0.1875 0.234375 -0.53125 0.421875q-0.328125 0.1875 -0.890625 0.1875zm0.125 -0.796875q0.53125 0 0.90625 -0.28125q0.375 -0.296875 0.5625 -0.796875q0.1875 -0.5 0.1875 -1.15625q0 -0.65625 -0.1875 -1.140625q-0.1875 -0.5 -0.5625 -0.765625q-0.359375 -0.28125 -0.90625 -0.28125q-0.5625 0 -0.9375 0.296875q-0.375 0.296875 -0.5625 0.796875q-0.1875 0.484375 -0.1875 1.09375q0 0.625 0.1875 1.125q0.1875 0.5 0.5625 0.8125q0.375 0.296875 0.9375 0.296875zm5.8562927 2.125q0.453125 -0.9375 0.734375 -1.71875q0.296875 -0.796875 0.4375 -1.5q0.140625 -0.71875 0.140625 -1.390625q0 -0.75 -0.15625 -1.609375q-0.15625 -0.875 -0.453125 -1.75q-0.296875 -0.890625 -0.703125 -1.703125l0.859375 0q0.40625 0.640625 0.703125 1.515625q0.296875 0.859375 0.46875 1.78125q0.171875 0.921875 0.171875 1.765625q0 1.140625 -0.34375 2.3125q-0.328125 1.171875 -1.0 2.296875l-0.859375 0z" fill-rule="nonzero"/><path fill="#3b4652" d="m121.92581 164.62746l0 0c0 -3.2168121 2.6077423 -5.8245697 5.8245544 -5.8245697l48.51393 0c1.5447693 0 3.0262756 0.6136627 4.1185913 1.7059784c1.0923157 1.0923157 1.7059631 2.573822 1.7059631 4.1185913l0 23.297531c0 3.2168121 -2.6077423 5.8245544 -5.8245544 5.8245544l-48.51393 0c-3.2168121 0 -5.8245544 -2.6077423 -5.8245544 -5.8245544z" fill-rule="evenodd"/><path fill="#3b4652" d="m121.92613 163.73993l0 0c0 -2.7266388 2.210373 -4.9370117 4.937004 -4.9370117l19.747429 0l0 0c1.309372 0 2.5651245 0.5201416 3.4909973 1.4460144c0.92585754 0.9258728 1.4460144 2.18161 1.4460144 3.4909973l0 25.072632c0 2.7266235 -2.210373 4.9369965 -4.9370117 4.9369965l-19.747429 0c-2.7266312 0 -4.937004 -2.210373 -4.937004 -4.9369965z" fill-rule="evenodd"/><path fill="#3b4652" d="m137.19145 86.55058l0 0c0 -2.7266388 2.210373 -4.9370117 4.9370117 -4.9370117l19.747437 0l0 0c1.309372 0 2.5651245 0.52014923 3.490982 1.446022c0.9258728 0.9258652 1.4460144 2.18161 1.4460144 3.4909897l0 30.397835c0 2.7266312 -2.210373 4.937004 -4.9369965 4.937004l-19.747437 0c-2.7266388 0 -4.9370117 -2.210373 -4.9370117 -4.937004z" fill-rule="evenodd"/><path fill="#3b4652" d="m118.13473 134.5752l0 0c0 -3.2168121 2.6077423 -5.8245544 5.8245544 -5.8245544l56.0906 0c1.5447693 0 3.0262756 0.6136627 4.1185913 1.7059784c1.0923157 1.0923157 1.7059631 2.573822 1.7059631 4.118576l0 23.297531c0 3.2168274 -2.6077423 5.8245697 -5.8245544 5.8245697l-56.0906 0c-3.2168121 0 -5.8245544 -2.6077423 -5.8245544 -5.8245697z" fill-rule="evenodd"/><path fill="#3b4652" d="m192.73904 132.34653l0 0c0 -1.9859467 1.6099396 -3.5958862 3.5958862 -3.5958862l14.383133 0l0 0c0.9536896 0 1.8683167 0.37886047 2.5426788 1.0532227c0.6743622 0.6743469 1.0532074 1.5889893 1.0532074 2.5426636l0 40.617584c0 1.9859619 -1.6099396 3.5959015 -3.5958862 3.5959015l-14.383133 0c-1.9859467 0 -3.5958862 -1.6099396 -3.5958862 -3.5959015z" fill-rule="evenodd"/><path fill="#3b4652" d="m89.684845 132.34653l0 0c0 -1.9859467 1.609932 -3.5958862 3.5958862 -3.5958862l14.383125 0l0 0c0.9536896 0 1.8683167 0.37886047 2.5426788 1.0532227c0.6743622 0.6743469 1.0532074 1.5889893 1.0532074 2.5426636l0 40.617584c0 1.9859619 -1.609932 3.5959015 -3.5958862 3.5959015l-14.383125 0c-1.9859543 0 -3.5958862 -1.6099396 -3.5958862 -3.5959015z" fill-rule="evenodd"/><path fill="#3b4652" d="m121.92609 204.66835l0 0c0 -2.2400513 1.8159256 -4.0559845 4.0559845 -4.0559845l16.223434 0l0 0c1.0757141 0 2.1073608 0.4273224 2.8680115 1.187973c0.7606354 0.7606354 1.187973 1.7922974 1.187973 2.8680115l0 61.663864c0 2.2400513 -1.8159332 4.055969 -4.0559845 4.055969l-16.223434 0c-2.240059 0 -4.0559845 -1.815918 -4.0559845 -4.055969z" fill-rule="evenodd"/><path fill="#3b4652" d="m157.74986 204.66835l0 0c0 -2.2400513 1.8159332 -4.0559845 4.0559845 -4.0559845l16.223434 0l0 0c1.0757141 0 2.1073608 0.4273224 2.8680115 1.187973c0.7606354 0.7606354 1.187973 1.7922974 1.187973 2.8680115l0 61.663864c0 2.2400513 -1.8159332 4.055969 -4.0559845 4.055969l-16.223434 0c-2.2400513 0 -4.0559845 -1.815918 -4.0559845 -4.055969z" fill-rule="evenodd"/><path fill="#3b4652" d="m192.74054 183.2356l0 0c0 -1.1605835 0.9408417 -2.10141 2.10141 -2.10141l17.372086 0c0.5573425 0 1.0918427 0.22138977 1.4859314 0.6154785c0.39408875 0.394104 0.6154785 0.9286041 0.6154785 1.4859314l0 8.40538c0 1.1605835 -0.9408264 2.10141 -2.10141 2.10141l-17.372086 0c-1.1605682 0 -2.10141 -0.9408264 -2.10141 -2.10141z" fill-rule="evenodd"/><path fill="#3b4652" d="m89.684845 183.2356l0 0c0 -1.1605835 0.9408264 -2.10141 2.1014023 -2.10141l17.372086 0c0.5573349 0 1.091835 0.22138977 1.4859238 0.6154785c0.39408875 0.394104 0.61548615 0.9286041 0.61548615 1.4859314l0 8.40538c0 1.1605835 -0.9408264 2.10141 -2.10141 2.10141l-17.372086 0c-1.1605759 0 -2.1014023 -0.9408264 -2.1014023 -2.10141z" fill-rule="evenodd"/><path fill="#3b4652" d="m89.684845 130.33334l0 0c0 -0.8740387 0.70854187 -1.5825806 1.5825806 -1.5825806l6.330139 0l0 0c0.41973114 0 0.8222656 0.16673279 1.1190567 0.46351624c0.29679108 0.2967987 0.46352386 0.6993408 0.46352386 1.1190643l0 44.644196c0 0.8740387 -0.70854187 1.5825806 -1.5825806 1.5825806l-6.330139 0c-0.8740387 0 -1.5825806 -0.70854187 -1.5825806 -1.5825806z" fill-rule="evenodd"/><path fill="#3b4652" d="m192.74971 130.33334l0 0c0 -0.8740387 0.70854187 -1.5825806 1.5825806 -1.5825806l6.330139 0l0 0c0.41973877 0 0.8222656 0.16673279 1.1190643 0.46351624c0.29678345 0.2967987 0.46351624 0.6993408 0.46351624 1.1190643l0 44.644196c0 0.8740387 -0.70854187 1.5825806 -1.5825806 1.5825806l-6.330139 0c-0.8740387 0 -1.5825806 -0.70854187 -1.5825806 -1.5825806z" fill-rule="evenodd"/><path fill="#3b4652" d="m118.13479 133.68776l0 0c0 -2.7266235 2.210373 -4.9369965 4.937004 -4.9369965l19.747437 0l0 0c1.309372 0 2.5651245 0.5201416 3.490982 1.4460144c0.9258728 0.92585754 1.4460144 2.18161 1.4460144 3.490982l0 25.072632c0 2.7266388 -2.210373 4.9370117 -4.9369965 4.9370117l-19.747437 0c-2.7266312 0 -4.937004 -2.210373 -4.937004 -4.9370117z" fill-rule="evenodd"/><path fill="#3b4652" d="m121.92626 202.4683l0 0c0 -1.0254059 0.8312607 -1.8566742 1.8566818 -1.8566742l7.4264984 0l0 0c0.49241638 0 0.9646759 0.19561768 1.3128662 0.543808c0.3481903 0.3481903 0.543808 0.8204498 0.543808 1.3128662l0 66.062485c0 1.0253906 -0.8312683 1.8566589 -1.8566742 1.8566589l-7.4264984 0c-1.0254211 0 -1.8566818 -0.8312683 -1.8566818 -1.8566589z" fill-rule="evenodd"/><path fill="#3b4652" d="m157.74902 202.4683l0 0c0 -1.0254059 0.8312683 -1.8566742 1.8566742 -1.8566742l7.4264984 0l0 0c0.49241638 0 0.9646759 0.19561768 1.3128662 0.543808c0.34820557 0.3481903 0.543808 0.8204498 0.543808 1.3128662l0 66.062485c0 1.0253906 -0.83125305 1.8566589 -1.8566742 1.8566589l-7.4264984 0c-1.0254059 0 -1.8566742 -0.8312683 -1.8566742 -1.8566589z" fill-rule="evenodd"/><path fill="#3b4652" d="m137.19115 83.76719l0 0c0 -1.1894073 0.9642029 -2.1536179 2.1536255 -2.1536179l8.614212 0l0 0c0.571167 0 1.1189423 0.2268982 1.5228271 0.6307831c0.4038849 0.4038849 0.6307831 0.95166016 0.6307831 1.5228348l0 35.964615c0 1.189415 -0.9642029 2.1536179 -2.1536102 2.1536179l-8.614212 0c-1.1894226 0 -2.1536255 -0.9642029 -2.1536255 -2.1536179z" fill-rule="evenodd"/><path fill="#e7f2ff" d="m105.92581 148.62746l0 0c0 -3.2168121 2.6077423 -5.8245697 5.8245544 -5.8245697l48.51393 0c1.5447693 0 3.0262756 0.6136627 4.1185913 1.7059784c1.0923157 1.0923157 1.7059631 2.573822 1.7059631 4.1185913l0 23.297531c0 3.2168121 -2.6077423 5.8245544 -5.8245544 5.8245544l-48.51393 0c-3.2168121 0 -5.8245544 -2.6077423 -5.8245544 -5.8245544z" fill-rule="evenodd"/><path fill="#d1e8ff" d="m105.92613 147.73993l0 0c0 -2.7266388 2.210373 -4.9370117 4.937004 -4.9370117l19.747429 0l0 0c1.309372 0 2.5651245 0.5201416 3.4909973 1.4460144c0.92585754 0.9258728 1.4460144 2.18161 1.4460144 3.4909973l0 25.072632c0 2.7266235 -2.210373 4.9369965 -4.9370117 4.9369965l-19.747429 0c-2.7266312 0 -4.937004 -2.210373 -4.937004 -4.9369965z" fill-rule="evenodd"/><path fill="#f3f8fe" d="m121.19146 70.55058l0 0c0 -2.7266388 2.210373 -4.9370117 4.937004 -4.9370117l19.747437 0l0 0c1.309372 0 2.5651245 0.52014923 3.490982 1.446022c0.9258728 0.9258652 1.4460144 2.18161 1.4460144 3.4909897l0 30.397835c0 2.7266312 -2.210373 4.937004 -4.9369965 4.937004l-19.747437 0c-2.7266312 0 -4.937004 -2.210373 -4.937004 -4.937004z" fill-rule="evenodd"/><path fill="#f3f8fe" d="m102.13473 118.5752l0 0c0 -3.2168121 2.6077423 -5.8245544 5.8245544 -5.8245544l56.0906 0c1.5447693 0 3.0262756 0.6136551 4.1185913 1.7059708c1.0923157 1.0923157 1.7059631 2.5738144 1.7059631 4.1185837l0 23.297523c0 3.2168274 -2.6077423 5.8245697 -5.8245544 5.8245697l-56.0906 0c-3.2168121 0 -5.8245544 -2.6077423 -5.8245544 -5.8245697z" fill-rule="evenodd"/><path fill="#e7f2ff" d="m176.73904 116.346535l0 0c0 -1.9859543 1.6099396 -3.5958862 3.5958862 -3.5958862l14.383133 0l0 0c0.9536896 0 1.8683167 0.3788452 2.5426788 1.0532074c0.6743622 0.6743622 1.0532074 1.5889893 1.0532074 2.5426788l0 40.617577c0 1.9859619 -1.6099396 3.5959015 -3.5958862 3.5959015l-14.383133 0c-1.9859467 0 -3.5958862 -1.6099396 -3.5958862 -3.5959015z" fill-rule="evenodd"/><path fill="#e7f2ff" d="m73.684845 116.346535l0 0c0 -1.9859543 1.609932 -3.5958862 3.5958862 -3.5958862l14.383125 0l0 0c0.9536896 0 1.8683167 0.3788452 2.5426788 1.0532074c0.6743622 0.6743622 1.0532074 1.5889893 1.0532074 2.5426788l0 40.617577c0 1.9859619 -1.609932 3.5959015 -3.5958862 3.5959015l-14.383125 0c-1.9859543 0 -3.5958862 -1.6099396 -3.5958862 -3.5959015z" fill-rule="evenodd"/><path fill="#d1e8ff" d="m105.92609 188.66835l0 0c0 -2.2400513 1.8159256 -4.0559845 4.0559845 -4.0559845l16.223434 0l0 0c1.0757141 0 2.1073608 0.4273224 2.8680115 1.187973c0.7606354 0.7606354 1.187973 1.7922974 1.187973 2.8680115l0 61.663864c0 2.2400513 -1.8159332 4.0559845 -4.0559845 4.0559845l-16.223434 0c-2.240059 0 -4.0559845 -1.8159332 -4.0559845 -4.0559845z" fill-rule="evenodd"/><path fill="#d1e8ff" d="m141.74986 188.66835l0 0c0 -2.2400513 1.8159332 -4.0559845 4.0559845 -4.0559845l16.223434 0l0 0c1.0757141 0 2.1073608 0.4273224 2.8680115 1.187973c0.7606354 0.7606354 1.187973 1.7922974 1.187973 2.8680115l0 61.663864c0 2.2400513 -1.8159332 4.0559845 -4.0559845 4.0559845l-16.223434 0c-2.2400513 0 -4.0559845 -1.8159332 -4.0559845 -4.0559845z" fill-rule="evenodd"/><path fill="#2563eb" d="m176.74054 167.2356l0 0c0 -1.1605835 0.9408417 -2.10141 2.10141 -2.10141l17.372086 0c0.5573425 0 1.0918427 0.22138977 1.4859314 0.6154785c0.39408875 0.394104 0.6154785 0.9286041 0.6154785 1.4859314l0 8.40538c0 1.1605835 -0.9408264 2.10141 -2.10141 2.10141l-17.372086 0c-1.1605682 0 -2.10141 -0.9408264 -2.10141 -2.10141z" fill-rule="evenodd"/><path fill="#2563eb" d="m73.684845 167.2356l0 0c0 -1.1605835 0.9408264 -2.10141 2.1014023 -2.10141l17.372086 0c0.5573349 0 1.091835 0.22138977 1.4859238 0.6154785c0.39408875 0.394104 0.61548615 0.9286041 0.61548615 1.4859314l0 8.40538c0 1.1605835 -0.9408264 2.10141 -2.10141 2.10141l-17.372086 0c-1.1605759 0 -2.1014023 -0.9408264 -2.1014023 -2.10141z" fill-rule="evenodd"/><path fill="#d1e8ff" d="m73.684845 114.33334l0 0c0 -0.8740387 0.70854187 -1.5825882 1.5825806 -1.5825882l6.330139 0l0 0c0.41973114 0 0.8222656 0.16674042 1.1190567 0.4635315c0.29679108 0.29679108 0.46352386 0.69932556 0.46352386 1.1190567l0 44.644196c0 0.8740387 -0.70854187 1.5825806 -1.5825806 1.5825806l-6.330139 0c-0.8740387 0 -1.5825806 -0.70854187 -1.5825806 -1.5825806z" fill-rule="evenodd"/><path fill="#d1e8ff" d="m176.74971 114.33334l0 0c0 -0.8740387 0.70854187 -1.5825882 1.5825806 -1.5825882l6.330139 0l0 0c0.41973877 0 0.8222656 0.16674042 1.1190643 0.4635315c0.29678345 0.29679108 0.46351624 0.69932556 0.46351624 1.1190567l0 44.644196c0 0.8740387 -0.70854187 1.5825806 -1.5825806 1.5825806l-6.330139 0c-0.8740387 0 -1.5825806 -0.70854187 -1.5825806 -1.5825806z" fill-rule="evenodd"/><path fill="#e7f2ff" d="m102.13479 117.68777l0 0c0 -2.7266388 2.210373 -4.9370117 4.937004 -4.9370117l19.747429 0l0 0c1.3093796 0 2.5651321 0.52014923 3.4909897 1.446022c0.9258728 0.9258652 1.4460144 2.18161 1.4460144 3.4909897l0 25.072624c0 2.7266388 -2.210373 4.9370117 -4.937004 4.9370117l-19.747429 0c-2.7266312 0 -4.937004 -2.210373 -4.937004 -4.9370117z" fill-rule="evenodd"/><path fill="#a6d3ff" d="m105.92626 186.4683l0 0c0 -1.0254059 0.8312607 -1.8566742 1.8566818 -1.8566742l7.426491 0l0 0c0.492424 0 0.9646759 0.19561768 1.3128738 0.543808c0.34819794 0.3481903 0.543808 0.8204498 0.543808 1.3128662l0 66.06247c0 1.0254211 -0.8312607 1.8566742 -1.8566818 1.8566742l-7.426491 0c-1.0254211 0 -1.8566818 -0.83125305 -1.8566818 -1.8566742z" fill-rule="evenodd"/><path fill="#a6d3ff" d="m141.74902 186.4683l0 0c0 -1.0254059 0.8312683 -1.8566742 1.8566742 -1.8566742l7.4264984 0l0 0c0.49241638 0 0.9646759 0.19561768 1.3128662 0.543808c0.34820557 0.3481903 0.543808 0.8204498 0.543808 1.3128662l0 66.06247c0 1.0254211 -0.83125305 1.8566742 -1.8566742 1.8566742l-7.4264984 0c-1.0254059 0 -1.8566742 -0.83125305 -1.8566742 -1.8566742z" fill-rule="evenodd"/><path fill="#e7f2ff" d="m121.19115 67.76719l0 0c0 -1.1894073 0.9642105 -2.1536179 2.1536179 -2.1536179l8.61422 0l0 0c0.571167 0 1.1189423 0.2268982 1.5228271 0.6307831c0.4038849 0.4038849 0.6307831 0.95166016 0.6307831 1.5228348l0 35.964615c0 1.189415 -0.9642029 2.1536179 -2.1536102 2.1536179l-8.61422 0c-1.1894073 0 -2.1536179 -0.9642029 -2.1536179 -2.1536179z" fill-rule="evenodd"/></g></svg>