<svg version="1.1" viewBox="0.0 0.0 288.0 384.0" fill="none" stroke="none" stroke-linecap="square" stroke-miterlimit="10" xmlns:xlink="http://www.w3.org/1999/xlink" xmlns="http://www.w3.org/2000/svg"><clipPath id="g3ae486ae86a_0_579.0"><path d="m0 0l288.0 0l0 384.0l-288.0 0l0 -384.0z" clip-rule="nonzero"/></clipPath><g clip-path="url(#g3ae486ae86a_0_579.0)"><path fill="#161d25" d="m0 0l288.0 0l0 384.0l-288.0 0z" fill-rule="evenodd"/><path fill="#3b4652" d="m5.7007875 34.135216l0 0c0 -9.966135 8.079147 -18.045282 18.04528 -18.045282l240.50787 0c4.7858887 0 9.375793 1.9011936 12.759949 5.2853394c3.3841248 3.3841476 5.2853394 7.9740353 5.2853394 12.759943l0 324.2244c0 9.9661255 -8.079163 18.045288 -18.045288 18.045288l-240.50787 0l0 0c-9.966134 0 -18.04528 -8.079163 -18.04528 -18.045288z" fill-rule="evenodd"/><path stroke="#3b4652" stroke-width="4.0" stroke-linejoin="round" stroke-linecap="butt" d="m5.7007875 34.135216l0 0c0 -9.966135 8.079147 -18.045282 18.04528 -18.045282l240.50787 0c4.7858887 0 9.375793 1.9011936 12.759949 5.2853394c3.3841248 3.3841476 5.2853394 7.9740353 5.2853394 12.759943l0 324.2244c0 9.9661255 -8.079163 18.045288 -18.045288 18.045288l-240.50787 0l0 0c-9.966134 0 -18.04528 -8.079163 -18.04528 -18.045288z" fill-rule="evenodd"/><path fill="#161d25" d="m5.7007875 33.63977l0 0c0 -9.966135 8.079147 -18.045282 18.04528 -18.045282l240.50787 0c4.7858887 0 9.375793 1.9011936 12.759949 5.2853413c3.3841248 3.3841457 5.2853394 7.9740334 5.2853394 12.759941l0 324.2244c0 9.9661255 -8.079163 18.045288 -18.045288 18.045288l-240.50787 0l0 0c-9.966134 0 -18.04528 -8.079163 -18.04528 -18.045288z" fill-rule="evenodd"/><path stroke="#3b4652" stroke-width="4.0" stroke-linejoin="round" stroke-linecap="butt" d="m5.7007875 33.63977l0 0c0 -9.966135 8.079147 -18.045282 18.04528 -18.045282l240.50787 0c4.7858887 0 9.375793 1.9011936 12.759949 5.2853413c3.3841248 3.3841457 5.2853394 7.9740334 5.2853394 12.759941l0 324.2244c0 9.9661255 -8.079163 18.045288 -18.045288 18.045288l-240.50787 0l0 0c-9.966134 0 -18.04528 -8.079163 -18.04528 -18.045288z" fill-rule="evenodd"/><path fill="#000000" fill-opacity="0.0" d="m21.700787 323.7533l203.30708 0l0 38.771637l-203.30708 0z" fill-rule="evenodd"/><path fill="#ffffff" d="m31.825787 336.11328l3.3125 0l0 12.0l-3.3125 0l0 -12.0zm9.4375 0l3.328125 0l0 12.0l-3.328125 0l0 -12.0zm-7.59375 4.4375l8.96875 0l0 2.9375l-8.96875 0l0 -2.9375zm18.129272 7.8125q-1.65625 0 -2.96875 -0.59375q-1.296875 -0.609375 -2.046875 -1.703125q-0.75 -1.109375 -0.75 -2.5625q0 -1.421875 0.71875 -2.5q0.71875 -1.078125 1.96875 -1.6875q1.265625 -0.609375 2.84375 -0.609375q1.640625 0 2.796875 0.71875q1.171875 0.703125 1.796875 2.0q0.640625 1.296875 0.640625 3.0625l-8.125 0l0 -1.96875l6.28125 0l-1.0625 0.6875q-0.078125 -0.703125 -0.359375 -1.1875q-0.28125 -0.5 -0.765625 -0.75q-0.46875 -0.265625 -1.125 -0.265625q-0.71875 0 -1.234375 0.296875q-0.5 0.28125 -0.796875 0.796875q-0.28125 0.5 -0.28125 1.171875q0 0.859375 0.390625 1.46875q0.390625 0.59375 1.140625 0.921875q0.765625 0.3125 1.875 0.3125q1.0 0 2.0 -0.265625q1.0 -0.265625 1.828125 -0.75l0 2.078125q-0.953125 0.640625 -2.171875 0.984375q-1.203125 0.34375 -2.59375 0.34375zm14.650272 -0.25l-0.421875 -3.296875l0.4375 -1.265625l-0.4375 -1.265625l0.421875 -3.3125l3.390625 0l-0.578125 4.5625l0.578125 4.578125l-3.390625 0zm0.765625 -4.5625q-0.21875 1.4375 -0.890625 2.53125q-0.65625 1.09375 -1.671875 1.6875q-1.0156288 0.59375 -2.3125038 0.59375q-1.34375 0 -2.375 -0.59375q-1.015625 -0.59375 -1.59375 -1.6875q-0.5625 -1.109375 -0.5625 -2.53125q0 -1.453125 0.5625 -2.53125q0.578125 -1.09375 1.59375 -1.703125q1.03125 -0.609375 2.375 -0.609375q1.296875 0 2.3125038 0.609375q1.015625 0.59375 1.6875 1.671875q0.671875 1.078125 0.875 2.5625zm-6.093754 0q0 0.671875 0.28125 1.203125q0.28125 0.53125 0.765625 0.828125q0.5 0.296875 1.140625 0.296875q0.671875 0 1.2656288 -0.296875q0.59375 -0.296875 1.03125 -0.828125q0.453125 -0.53125 0.671875 -1.203125q-0.21875 -0.6875 -0.671875 -1.203125q-0.4375 -0.53125 -1.03125 -0.828125q-0.5937538 -0.3125 -1.2656288 -0.3125q-0.640625 0 -1.140625 0.3125q-0.484375 0.296875 -0.765625 0.828125q-0.28125 0.515625 -0.28125 1.203125zm9.856663 -4.578125l3.328125 0l0.546875 3.265625l0 5.875l-3.265625 0l0 -6.0625l-0.609375 -3.078125zm8.15625 -0.140625l0 2.78125q-0.484375 -0.09375 -0.90625 -0.125q-0.421875 -0.046875 -0.78125 -0.046875q-0.703125 0 -1.296875 0.28125q-0.578125 0.28125 -0.9375 0.921875q-0.359375 0.640625 -0.359375 1.703125l-0.625 -0.765625q0.125 -0.984375 0.375 -1.859375q0.265625 -0.875 0.703125 -1.546875q0.4375 -0.6875 1.09375 -1.078125q0.65625 -0.390625 1.59375 -0.390625q0.28125 0 0.5625 0.03125q0.296875 0.03125 0.578125 0.09375zm0.3967743 2.5625l0 -1.421875l1.859375 -0.75l1.40625 -2.703125l1.859375 0l0 2.453125l3.84375 0l0 2.421875l-3.84375 0l0 2.6875q0 0.984375 0.390625 1.390625q0.40625 0.40625 1.46875 0.40625q0.671875 0 1.1875 -0.125q0.515625 -0.125 0.953125 -0.3125l0 2.46875q-0.484375 0.171875 -1.265625 0.3125q-0.78125 0.140625 -1.609375 0.140625q-1.53125 0 -2.5 -0.453125q-0.96875 -0.46875 -1.4375 -1.34375q-0.453125 -0.875 -0.453125 -2.03125l0 -3.140625l-1.859375 0z" fill-rule="nonzero"/><path fill="#ffffff" d="m97.468216 344.95703q0 -0.84375 0.171875 -1.765625q0.171875 -0.921875 0.46875 -1.78125q0.3125 -0.875 0.703125 -1.515625l0.859375 0q-0.40625 0.8125 -0.703125 1.703125q-0.296875 0.875 -0.453125 1.75q-0.15625 0.859375 -0.15625 1.609375q0 0.671875 0.140625 1.390625q0.140625 0.703125 0.421875 1.5q0.296875 0.78125 0.75 1.71875l-0.859375 0q-0.671875 -1.125 -1.015625 -2.296875q-0.328125 -1.171875 -0.328125 -2.3125zm6.400543 -0.34375l0 3.5l-0.875 0l0 -7.75l0.875 0l0 2.84375l0.09375 0q0.203125 -0.453125 0.609375 -0.71875q0.40625 -0.265625 1.09375 -0.265625q0.59375 0 1.03125 0.234375q0.453125 0.234375 0.703125 0.734375q0.25 0.484375 0.25 1.234375l0 3.6875l-0.890625 0l0 -3.625q0 -0.703125 -0.359375 -1.078125q-0.359375 -0.390625 -1.0 -0.390625q-0.4375 0 -0.78125 0.1875q-0.34375 0.1875 -0.546875 0.546875q-0.203125 0.359375 -0.203125 0.859375zm6.6349487 3.640625q-0.546875 0 -1.0 -0.203125q-0.453125 -0.21875 -0.71875 -0.625q-0.265625 -0.40625 -0.265625 -0.96875q0 -0.5 0.1875 -0.796875q0.203125 -0.3125 0.53125 -0.484375q0.328125 -0.1875 0.71875 -0.28125q0.40625 -0.09375 0.8125 -0.140625q0.53125 -0.0625 0.859375 -0.09375q0.328125 -0.046875 0.484375 -0.125q0.15625 -0.09375 0.15625 -0.3125l0 -0.03125q0 -0.5625 -0.3125 -0.859375q-0.296875 -0.3125 -0.921875 -0.3125q-0.625 0 -1.0 0.28125q-0.359375 0.265625 -0.5 0.59375l-0.859375 -0.3125q0.234375 -0.53125 0.609375 -0.828125q0.390625 -0.296875 0.84375 -0.40625q0.453125 -0.125 0.875 -0.125q0.28125 0 0.640625 0.0625q0.375 0.0625 0.71875 0.28125q0.34375 0.203125 0.5625 0.625q0.234375 0.40625 0.234375 1.09375l0 3.828125l-0.890625 0l0 -0.796875l-0.046875 0q-0.078125 0.1875 -0.296875 0.40625q-0.21875 0.21875 -0.578125 0.375q-0.34375 0.15625 -0.84375 0.15625zm0.140625 -0.8125q0.515625 0 0.875 -0.203125q0.375 -0.203125 0.5625 -0.53125q0.1875 -0.34375 0.1875 -0.703125l0 -0.8125q-0.0625 0.0625 -0.25 0.125q-0.1875 0.046875 -0.4375 0.09375q-0.25 0.03125 -0.484375 0.0625q-0.21875 0.03125 -0.359375 0.046875q-0.359375 0.046875 -0.65625 0.15625q-0.296875 0.09375 -0.484375 0.296875q-0.1875 0.1875 -0.1875 0.53125q0 0.46875 0.34375 0.703125q0.34375 0.234375 0.890625 0.234375zm5.374817 0.8125q-0.546875 0 -1.0 -0.203125q-0.453125 -0.21875 -0.71875 -0.625q-0.265625 -0.40625 -0.265625 -0.96875q0 -0.5 0.1875 -0.796875q0.203125 -0.3125 0.53125 -0.484375q0.328125 -0.1875 0.71875 -0.28125q0.40625 -0.09375 0.8125 -0.140625q0.53125 -0.0625 0.859375 -0.09375q0.328125 -0.046875 0.484375 -0.125q0.15625 -0.09375 0.15625 -0.3125l0 -0.03125q0 -0.5625 -0.3125 -0.859375q-0.296875 -0.3125 -0.921875 -0.3125q-0.625 0 -1.0 0.28125q-0.359375 0.265625 -0.5 0.59375l-0.859375 -0.3125q0.234375 -0.53125 0.609375 -0.828125q0.390625 -0.296875 0.84375 -0.40625q0.453125 -0.125 0.875 -0.125q0.28125 0 0.640625 0.0625q0.375 0.0625 0.71875 0.28125q0.34375 0.203125 0.5625 0.625q0.234375 0.40625 0.234375 1.09375l0 3.828125l-0.890625 0l0 -0.796875l-0.046875 0q-0.078125 0.1875 -0.296875 0.40625q-0.21875 0.21875 -0.578125 0.375q-0.34375 0.15625 -0.84375 0.15625zm0.140625 -0.8125q0.515625 0 0.875 -0.203125q0.375 -0.203125 0.5625 -0.53125q0.1875 -0.34375 0.1875 -0.703125l0 -0.8125q-0.0625 0.0625 -0.25 0.125q-0.1875 0.046875 -0.4375 0.09375q-0.25 0.03125 -0.484375 0.0625q-0.21875 0.03125 -0.359375 0.046875q-0.359375 0.046875 -0.65625 0.15625q-0.296875 0.09375 -0.484375 0.296875q-0.1875 0.1875 -0.1875 0.53125q0 0.46875 0.34375 0.703125q0.34375 0.234375 0.890625 0.234375zm6.187317 -5.140625l0 0.75l-3.015625 0l0 -0.75l3.015625 0zm-2.140625 -1.390625l0.890625 0l0 5.53125q0 0.453125 0.1875 0.671875q0.1875 0.203125 0.59375 0.203125q0.078125 0 0.171875 0q0.109375 -0.015625 0.21875 -0.03125l0.1875 0.796875q-0.125 0.046875 -0.3125 0.078125q-0.171875 0.03125 -0.34375 0.03125q-0.703125 0 -1.15625 -0.421875q-0.4375 -0.421875 -0.4375 -1.078125l0 -5.78125zm5.1661377 8.65625q0.453125 -0.9375 0.734375 -1.71875q0.296875 -0.796875 0.4375 -1.5q0.140625 -0.71875 0.140625 -1.390625q0 -0.75 -0.15625 -1.609375q-0.15625 -0.875 -0.453125 -1.75q-0.296875 -0.890625 -0.703125 -1.703125l0.859375 0q0.40625 0.640625 0.703125 1.515625q0.296875 0.859375 0.46875 1.78125q0.171875 0.921875 0.171875 1.765625q0 1.140625 -0.34375 2.3125q-0.328125 1.171875 -1.0 2.296875l-0.859375 0z" fill-rule="nonzero"/><path fill="#3b4652" d="m144.24956 124.299706l0 0c0 -0.82663727 0.67012024 -1.4967499 1.4967499 -1.4967499l5.9868317 0l0 0c0.3969574 0 0.7776642 0.15769196 1.0583649 0.438385c0.28070068 0.28069305 0.438385 0.66139984 0.438385 1.0583649l0 9.525032c0 0.82662964 -0.67012024 1.4967499 -1.4967499 1.4967499l-5.9868317 0c-0.82662964 0 -1.4967499 -0.67012024 -1.4967499 -1.4967499z" fill-rule="evenodd"/><path fill="#3b4652" d="m156.31836 124.299706l0 0c0 -0.82663727 0.67012024 -1.4967499 1.4967499 -1.4967499l5.9868317 0l0 0c0.3969574 0 0.7776642 0.15769196 1.0583649 0.438385c0.28068542 0.28069305 0.438385 0.66139984 0.438385 1.0583649l0 9.525032c0 0.82662964 -0.67012024 1.4967499 -1.4967499 1.4967499l-5.9868317 0c-0.82662964 0 -1.4967499 -0.67012024 -1.4967499 -1.4967499z" fill-rule="evenodd"/><path fill="#3b4652" d="m124.15865 142.33894l0 0c0 -0.8702545 0.7054825 -1.5757446 1.575737 -1.5757446l15.094269 0c0.4179077 0 0.8187103 0.16601562 1.114212 0.4615326c0.29551697 0.2955017 0.4615326 0.6963043 0.4615326 1.114212l0 6.3027496c0 0.8702545 -0.7054901 1.5757294 -1.5757446 1.5757294l-15.094269 0c-0.8702545 0 -1.575737 -0.70547485 -1.575737 -1.5757294z" fill-rule="evenodd"/><path fill="#3b4652" d="m137.18172 135.62535l0 0c0 -3.6279907 2.9410706 -6.5690765 6.5690765 -6.5690765l26.275497 0l0 0c1.7422333 0 3.4131012 0.69210815 4.64505 1.9240417c1.2319336 1.2319489 1.9240265 2.9028168 1.9240265 4.645035l0 35.605743c0 3.6279907 -2.9410706 6.5690765 -6.5690765 6.5690765l-26.275497 0c-3.628006 0 -6.5690765 -2.9410858 -6.5690765 -6.5690765z" fill-rule="evenodd"/><path fill="#3b4652" d="m151.7114 137.24565l0 0c0 -1.9176178 1.5545349 -3.4721527 3.4721527 -3.4721527l32.469345 0c0.9208679 0 1.8040314 0.3658142 2.455185 1.0169678c0.65115356 0.65115356 1.0169678 1.534317 1.0169678 2.455185l0 13.888229c0 1.9176178 -1.5545349 3.472168 -3.4721527 3.472168l-32.469345 0l0 0c-1.9176178 0 -3.4721527 -1.5545502 -3.4721527 -3.472168z" fill-rule="evenodd"/><path fill="#3b4652" d="m151.7114 145.68481l0 0c0 -1.8457031 1.4962463 -3.3419495 3.3419495 -3.3419495l13.367401 0l0 0c0.88635254 0 1.7363892 0.35209656 2.3631287 0.97883606c0.6267395 0.6267395 0.97883606 1.4767761 0.97883606 2.3631134l0 27.617355c0 1.8457031 -1.4962463 3.3419495 -3.3419647 3.3419495l-13.367401 0c-1.8457031 0 -3.3419495 -1.4962463 -3.3419495 -3.3419495z" fill-rule="evenodd"/><path fill="#3b4652" d="m114.40819 126.06956l0 0c0 -1.4061432 1.1399078 -2.5460587 2.5460587 -2.5460587l10.183937 0l0 0c0.67526245 0 1.3228607 0.2682495 1.8003387 0.74572754c0.47747803 0.47747803 0.74572754 1.1250763 0.74572754 1.8003311l0 27.831383c0 1.4061584 -1.1399078 2.5460663 -2.5460663 2.5460663l-10.183937 0c-1.4061508 0 -2.5460587 -1.1399078 -2.5460587 -2.5460663z" fill-rule="evenodd"/><path fill="#3b4652" d="m104.35284 158.23152l0 0c0 -3.5033417 2.8400192 -6.3433685 6.3433685 -6.3433685l25.372734 0l0 0c1.682373 0 3.2958374 0.6683197 4.485443 1.8579254c1.189621 1.189621 1.8579407 2.8030853 1.8579407 4.485443l0 41.829437c0 3.503357 -2.8400269 6.343384 -6.343384 6.343384l-25.372734 0c-3.5033493 0 -6.3433685 -2.8400269 -6.3433685 -6.343384z" fill-rule="evenodd"/><path fill="#3b4652" d="m111.60283 181.33981l0 0c0 -7.0538635 5.718292 -12.772171 12.772163 -12.772171l62.500893 0c3.3873901 0 6.636032 1.3456421 9.0312805 3.7408905c2.3952484 2.3952484 3.7408752 5.6438904 3.7408752 9.0312805l0 51.087143c0 7.0538635 -5.718292 12.772171 -12.772156 12.772171l-62.500893 0c-7.053871 0 -12.772163 -5.7183075 -12.772163 -12.772171z" fill-rule="evenodd"/><path fill="#3b4652" d="m120.8326 182.54756l0 0c0 -1.7407532 1.4111481 -3.1519012 3.1518936 -3.1519012l12.607178 0l0 0c0.8359375 0 1.637619 0.33207703 2.228714 0.923172c0.591095 0.591095 0.923172 1.3927917 0.923172 2.2287292l0 20.704895c0 1.7407379 -1.4111481 3.151886 -3.151886 3.151886l-12.607178 0c-1.7407455 0 -3.1518936 -1.4111481 -3.1518936 -3.151886z" fill-rule="evenodd"/><path fill="#3b4652" d="m159.87802 170.0644l0 0c0 -0.8266449 0.67012024 -1.4967651 1.4967499 -1.4967651l5.9868317 0l0 0c0.3969574 0 0.7776642 0.15769958 1.0583649 0.43840027c0.28068542 0.28068542 0.438385 0.6613922 0.438385 1.0583649l0 39.455475c0 0.8266449 -0.67012024 1.4967499 -1.4967499 1.4967499l-5.9868317 0c-0.82662964 0 -1.4967499 -0.670105 -1.4967499 -1.4967499z" fill-rule="evenodd"/><path fill="#3b4652" d="m166.18564 188.53517l0 0c0 -0.7150116 0.57962036 -1.294632 1.294632 -1.294632l12.686783 0c0.34336853 0 0.67266846 0.13639832 0.91545105 0.3791809c0.24279785 0.24279785 0.37919617 0.5720978 0.37919617 0.91545105l0 5.1783905c0 0.7150116 -0.5796356 1.294632 -1.2946472 1.294632l-12.686783 0c-0.7150116 0 -1.294632 -0.57962036 -1.294632 -1.294632z" fill-rule="evenodd"/><path fill="#3b4652" d="m171.76271 220.50475l0 0c0 -0.82662964 0.670105 -1.4967499 1.4967499 -1.4967499l5.9868164 0l0 0c0.39697266 0 0.77767944 0.15768433 1.0583649 0.438385c0.28070068 0.28070068 0.438385 0.6613922 0.438385 1.0583649l0 6.460724c0 0.82662964 -0.67012024 1.4967499 -1.4967499 1.4967499l-5.9868164 0l0 0c-0.8266449 0 -1.4967499 -0.67012024 -1.4967499 -1.4967499z" fill-rule="evenodd"/><path fill="#3b4652" d="m182.95644 140.56538l0 0c0 -0.4876709 0.39533997 -0.8829956 0.88301086 -0.8829956l3.5319061 0l0 0c0.2341919 0 0.458786 0.09303284 0.6243744 0.25862122c0.16560364 0.16558838 0.25862122 0.39019775 0.25862122 0.6243744l0 7.688217c0 0.4876709 -0.3953247 0.88301086 -0.8829956 0.88301086l-3.5319061 0c-0.4876709 0 -0.88301086 -0.39533997 -0.88301086 -0.88301086z" fill-rule="evenodd"/><path fill="#3b4652" d="m120.8326 213.26988l0 0c0 -1.2441559 1.0085907 -2.2527466 2.2527466 -2.2527466l14.405464 0c0.5974579 0 1.1704559 0.2373352 1.592926 0.6598053c0.42248535 0.42248535 0.65982056 0.99546814 0.65982056 1.5929413l0 9.010712c0 1.2441711 -1.0085907 2.2527466 -2.2527466 2.2527466l-14.405464 0c-1.2441559 0 -2.2527466 -1.0085754 -2.2527466 -2.2527466z" fill-rule="evenodd"/><path fill="#fa5433" d="m128.24956 108.299706l0 0c0 -0.82663727 0.67012024 -1.4967499 1.4967499 -1.4967499l5.9868317 0l0 0c0.3969574 0 0.7776642 0.15769196 1.0583649 0.438385c0.28070068 0.28069305 0.438385 0.66139984 0.438385 1.0583649l0 9.525024c0 0.82663727 -0.67012024 1.4967575 -1.4967499 1.4967575l-5.9868317 0c-0.82662964 0 -1.4967499 -0.67012024 -1.4967499 -1.4967575z" fill-rule="evenodd"/><path fill="#fa5433" d="m140.31836 108.299706l0 0c0 -0.82663727 0.67012024 -1.4967499 1.4967499 -1.4967499l5.9868317 0l0 0c0.3969574 0 0.7776642 0.15769196 1.0583649 0.438385c0.28068542 0.28069305 0.438385 0.66139984 0.438385 1.0583649l0 9.525024c0 0.82663727 -0.67012024 1.4967575 -1.4967499 1.4967575l-5.9868317 0c-0.82662964 0 -1.4967499 -0.67012024 -1.4967499 -1.4967575z" fill-rule="evenodd"/><path fill="#55a1ea" d="m108.15865 126.33894l0 0c0 -0.8702545 0.7054825 -1.575737 1.575737 -1.575737l15.094276 0c0.4179077 0 0.8187027 0.16601562 1.114212 0.46152496c0.2955017 0.2955017 0.46151733 0.6962967 0.46151733 1.114212l0 6.3027496c0 0.8702545 -0.70547485 1.5757294 -1.5757294 1.5757294l-15.094276 0c-0.8702545 0 -1.575737 -0.70547485 -1.575737 -1.5757294z" fill-rule="evenodd"/><path fill="#fa5433" d="m121.18171 119.62535l0 0c0 -3.6279984 2.9410782 -6.569069 6.5690765 -6.569069l26.275505 0l0 0c1.7422333 0 3.4131012 0.6920929 4.64505 1.9240341c1.2319336 1.2319412 1.9240265 2.9028091 1.9240265 4.645035l0 35.605743c0 3.6279907 -2.9410706 6.5690765 -6.5690765 6.5690765l-26.275505 0c-3.6279984 0 -6.5690765 -2.9410858 -6.5690765 -6.5690765z" fill-rule="evenodd"/><path fill="#55a1ea" d="m135.7114 121.24565l0 0c0 -1.9176178 1.5545349 -3.4721603 3.4721527 -3.4721603l32.469345 0c0.9208679 0 1.8040314 0.36582184 2.455185 1.0169754c0.65115356 0.65115356 1.0169678 1.534317 1.0169678 2.455185l0 13.888229c0 1.9176178 -1.5545349 3.472168 -3.4721527 3.472168l-32.469345 0l0 0c-1.9176178 0 -3.4721527 -1.5545502 -3.4721527 -3.472168z" fill-rule="evenodd"/><path fill="#55a1ea" d="m135.7114 129.68481l0 0c0 -1.8457031 1.4962463 -3.3419495 3.3419495 -3.3419495l13.367401 0l0 0c0.88635254 0 1.7363892 0.3521042 2.3631287 0.97883606c0.6267395 0.6267395 0.97883606 1.4767761 0.97883606 2.3631134l0 27.617355c0 1.8457031 -1.4962463 3.3419495 -3.3419647 3.3419495l-13.367401 0c-1.8457031 0 -3.3419495 -1.4962463 -3.3419495 -3.3419495z" fill-rule="evenodd"/><path fill="#55a1ea" d="m98.40819 110.06956l0 0c0 -1.4061432 1.1399078 -2.5460587 2.5460587 -2.5460587l10.183937 0l0 0c0.67526245 0 1.3228607 0.2682495 1.8003387 0.74572754c0.47747803 0.47747803 0.74572754 1.1250763 0.74572754 1.8003311l0 27.831383c0 1.4061584 -1.1399155 2.5460663 -2.5460663 2.5460663l-10.183937 0c-1.4061508 0 -2.5460587 -1.1399078 -2.5460587 -2.5460663z" fill-rule="evenodd"/><path fill="#fe6a3d" d="m88.35284 142.23152l0 0c0 -3.5033417 2.8400192 -6.3433685 6.3433685 -6.3433685l25.372742 0l0 0c1.6823654 0 3.2958298 0.6683197 4.485443 1.8579254c1.1896133 1.189621 1.8579254 2.8030853 1.8579254 4.485443l0 41.829437c0 3.503357 -2.8400269 6.343384 -6.3433685 6.343384l-25.372742 0c-3.5033493 0 -6.3433685 -2.8400269 -6.3433685 -6.343384z" fill-rule="evenodd"/><path fill="#f73d35" d="m95.60283 165.33981l0 0c0 -7.0538635 5.718292 -12.772171 12.772163 -12.772171l62.500893 0c3.3873901 0 6.636032 1.3456421 9.0312805 3.7408905c2.3952484 2.3952484 3.7408752 5.6438904 3.7408752 9.0312805l0 51.087143c0 7.0538635 -5.718292 12.772171 -12.772156 12.772171l-62.500893 0c-7.053871 0 -12.772163 -5.7183075 -12.772163 -12.772171z" fill-rule="evenodd"/><path fill="#fb5c4e" d="m104.8326 166.54756l0 0c0 -1.7407532 1.4111481 -3.1519012 3.1518936 -3.1519012l12.607178 0l0 0c0.8359299 0 1.6376266 0.33207703 2.2287216 0.923172c0.591095 0.591095 0.92316437 1.3927917 0.92316437 2.2287292l0 20.704895c0 1.7407379 -1.4111481 3.151886 -3.151886 3.151886l-12.607178 0c-1.7407455 0 -3.1518936 -1.4111481 -3.1518936 -3.151886z" fill-rule="evenodd"/><path fill="#e03027" d="m143.87802 154.0644l0 0c0 -0.8266449 0.67012024 -1.4967651 1.4967499 -1.4967651l5.9868317 0l0 0c0.3969574 0 0.7776642 0.15769958 1.0583649 0.43840027c0.28068542 0.28068542 0.438385 0.6613922 0.438385 1.0583649l0 39.455475c0 0.8266449 -0.67012024 1.4967499 -1.4967499 1.4967499l-5.9868317 0c-0.82662964 0 -1.4967499 -0.670105 -1.4967499 -1.4967499z" fill-rule="evenodd"/><path fill="#e03027" d="m150.18564 172.53517l0 0c0 -0.7150116 0.57962036 -1.294632 1.294632 -1.294632l12.686783 0c0.34336853 0 0.67266846 0.13639832 0.91545105 0.3791809c0.24279785 0.24279785 0.37919617 0.5720978 0.37919617 0.91545105l0 5.1783905c0 0.7150116 -0.5796356 1.294632 -1.2946472 1.294632l-12.686783 0c-0.7150116 0 -1.294632 -0.57962036 -1.294632 -1.294632z" fill-rule="evenodd"/><path fill="#e03027" d="m155.76271 204.50475l0 0c0 -0.82662964 0.670105 -1.4967499 1.4967499 -1.4967499l5.9868164 0l0 0c0.39697266 0 0.77767944 0.15768433 1.0583649 0.438385c0.28070068 0.28070068 0.438385 0.6613922 0.438385 1.0583649l0 6.460724c0 0.82662964 -0.67012024 1.4967499 -1.4967499 1.4967499l-5.9868164 0l0 0c-0.8266449 0 -1.4967499 -0.67012024 -1.4967499 -1.4967499z" fill-rule="evenodd"/><path fill="#1d69b2" d="m166.95644 124.565384l0 0c0 -0.48766327 0.39533997 -0.88300323 0.88301086 -0.88300323l3.5319061 0l0 0c0.2341919 0 0.458786 0.09303284 0.6243744 0.25862885c0.16560364 0.16559601 0.25862122 0.39019012 0.25862122 0.6243744l0 7.688217c0 0.4876709 -0.3953247 0.88301086 -0.8829956 0.88301086l-3.5319061 0c-0.4876709 0 -0.88301086 -0.39533997 -0.88301086 -0.88301086z" fill-rule="evenodd"/><path fill="#fb5c4e" d="m104.8326 197.26988l0 0c0 -1.2441559 1.0085907 -2.2527466 2.2527466 -2.2527466l14.405464 0c0.5974655 0 1.1704636 0.2373352 1.5929337 0.6598053c0.4224701 0.42248535 0.6598129 0.99546814 0.6598129 1.5929413l0 9.010712c0 1.2441711 -1.0085907 2.2527466 -2.2527466 2.2527466l-14.405464 0c-1.2441559 0 -2.2527466 -1.0085754 -2.2527466 -2.2527466z" fill-rule="evenodd"/></g></svg>