<svg version="1.1" viewBox="0.0 0.0 288.0 384.0" fill="none" stroke="none" stroke-linecap="square" stroke-miterlimit="10" xmlns:xlink="http://www.w3.org/1999/xlink" xmlns="http://www.w3.org/2000/svg"><clipPath id="g3b18a6c779a_0_537.0"><path d="m0 0l288.0 0l0 384.0l-288.0 0l0 -384.0z" clip-rule="nonzero"/></clipPath><g clip-path="url(#g3b18a6c779a_0_537.0)"><path fill="#161d25" d="m0 0l288.0 0l0 384.0l-288.0 0z" fill-rule="evenodd"/><path fill="#2563eb" d="m5.7007875 34.135216l0 0c0 -9.966135 8.079147 -18.045282 18.04528 -18.045282l240.50787 0c4.7858887 0 9.375793 1.9011936 12.759949 5.2853394c3.3841248 3.3841476 5.2853394 7.9740353 5.2853394 12.759943l0 324.2244c0 9.9661255 -8.079163 18.045288 -18.045288 18.045288l-240.50787 0l0 0c-9.966134 0 -18.04528 -8.079163 -18.04528 -18.045288z" fill-rule="evenodd"/><path stroke="#2563eb" stroke-width="4.0" stroke-linejoin="round" stroke-linecap="butt" d="m5.7007875 34.135216l0 0c0 -9.966135 8.079147 -18.045282 18.04528 -18.045282l240.50787 0c4.7858887 0 9.375793 1.9011936 12.759949 5.2853394c3.3841248 3.3841476 5.2853394 7.9740353 5.2853394 12.759943l0 324.2244c0 9.9661255 -8.079163 18.045288 -18.045288 18.045288l-240.50787 0l0 0c-9.966134 0 -18.04528 -8.079163 -18.04528 -18.045288z" fill-rule="evenodd"/><path fill="#0c2969" d="m5.7007875 25.639769l0 0c0 -9.966133 8.079147 -18.04528 18.04528 -18.04528l240.50787 0c4.7858887 0 9.375793 1.9011936 12.759949 5.2853403c3.3841248 3.3841467 5.2853394 7.9740343 5.2853394 12.75994l0 324.2244c0 9.9661255 -8.079163 18.045288 -18.045288 18.045288l-240.50787 0l0 0c-9.966134 0 -18.04528 -8.079163 -18.04528 -18.045288z" fill-rule="evenodd"/><path stroke="#2563eb" stroke-width="4.0" stroke-linejoin="round" stroke-linecap="butt" d="m5.7007875 25.639769l0 0c0 -9.966133 8.079147 -18.04528 18.04528 -18.04528l240.50787 0c4.7858887 0 9.375793 1.9011936 12.759949 5.2853403c3.3841248 3.3841467 5.2853394 7.9740343 5.2853394 12.75994l0 324.2244c0 9.9661255 -8.079163 18.045288 -18.045288 18.045288l-240.50787 0l0 0c-9.966134 0 -18.04528 -8.079163 -18.04528 -18.045288z" fill-rule="evenodd"/><path fill="#2563eb" d="m233.30223 117.56985l0 0c0 -1.3607178 1.1030884 -2.4637985 2.4638062 -2.4637985l18.760254 0c0.6534424 0 1.2801208 0.2595749 1.7421722 0.7216263c0.46203613 0.4620514 0.72161865 1.0887299 0.72161865 1.7421722l0 9.854919c0 1.3607254 -1.1030731 2.4637985 -2.463791 2.4637985l-18.760254 0c-1.3607178 0 -2.4638062 -1.1030731 -2.4638062 -2.4637985z" fill-rule="evenodd"/><path fill="#2563eb" d="m47.00845 117.56985l0 0c0 -1.3607178 1.1030846 -2.4637985 2.4638062 -2.4637985l18.76025 0c0.6534424 0 1.2801208 0.2595749 1.7421722 0.7216263c0.4620514 0.4620514 0.7216339 1.0887299 0.7216339 1.7421722l0 9.854919c0 1.3607254 -1.1030884 2.4637985 -2.4638062 2.4637985l-18.76025 0c-1.3607216 0 -2.4638062 -1.1030731 -2.4638062 -2.4637985z" fill-rule="evenodd"/><path fill="#2563eb" d="m47.00845 122.522224l0 0c0 -0.8152313 0.66088104 -1.4761047 1.4761124 -1.4761047l207.03128 0c0.39149475 0 0.76693726 0.15551758 1.0437622 0.43234253c0.27682495 0.27682495 0.43234253 0.6522751 0.43234253 1.0437622l0 5.904274c0 0.8152313 -0.66085815 1.4761047 -1.4761047 1.4761047l-207.03128 0c-0.8152313 0 -1.4761124 -0.6608734 -1.4761124 -1.4761047z" fill-rule="evenodd"/><path fill="#2563eb" d="m66.70687 170.49165l0 0c0 -6.730179 5.455887 -12.186066 12.186058 -12.186066l65.56035 0c3.2319336 0 6.3315125 1.2838898 8.616837 3.5692139c2.2853394 2.285324 3.5692139 5.384903 3.5692139 8.616852l0 48.742767c0 6.730179 -5.455887 12.186066 -12.18605 12.186066l-65.56035 0l0 0c-6.730171 0 -12.186058 -5.455887 -12.186058 -12.186066z" fill-rule="evenodd"/><path fill="#2563eb" d="m147.3668 170.49104l0 0c0 -6.7301636 5.4558716 -12.18605 12.18605 -12.18605l65.56035 0c3.2319336 0 6.3315125 1.2838745 8.616837 3.5692139c2.2853394 2.285324 3.5692139 5.384903 3.5692139 8.616837l0 48.742783c0 6.730179 -5.455887 12.186066 -12.18605 12.186066l-65.56035 0l0 0c-6.730179 0 -12.18605 -5.455887 -12.18605 -12.186066z" fill-rule="evenodd"/><path fill="#2563eb" d="m147.3668 174.49875l0 0c0 -0.8152466 0.6608734 -1.47612 1.4761047 -1.47612l86.98024 0c0.3914795 0 0.76693726 0.15551758 1.0437622 0.43234253c0.27682495 0.27682495 0.43234253 0.6522827 0.43234253 1.0437775l0 5.9042664c0 0.8152313 -0.6608734 1.4761047 -1.4761047 1.4761047l-86.98024 0l0 0c-0.8152313 0 -1.4761047 -0.6608734 -1.4761047 -1.4761047z" fill-rule="evenodd"/><path fill="#2563eb" d="m66.70687 174.49875l0 0c0 -0.8152313 0.66088104 -1.47612 1.4761124 -1.47612l86.98024 0c0.3914795 0 0.76693726 0.15551758 1.0437622 0.43234253c0.27682495 0.27682495 0.43234253 0.6522827 0.43234253 1.0437775l0 5.9042664c0 0.8152313 -0.6608734 1.4761047 -1.4761047 1.4761047l-86.98024 0l0 0c-0.8152313 0 -1.4761124 -0.6608734 -1.4761124 -1.4761047z" fill-rule="evenodd"/><path fill="#2563eb" d="m66.70687 159.84894l0 0c0 -0.8527069 0.69125366 -1.5439453 1.5439453 -1.5439453l6.175606 0l0 0c0.40948486 0 0.8021927 0.16265869 1.0917358 0.45220947c0.28955078 0.28955078 0.4522171 0.682251 0.4522171 1.0917358l0 70.02699c0 0.8527069 -0.69125366 1.5439606 -1.543953 1.5439606l-6.175606 0c-0.85269165 0 -1.5439453 -0.69125366 -1.5439453 -1.5439606z" fill-rule="evenodd"/><path fill="#2563eb" d="m147.36687 159.84894l0 0c0 -0.8527069 0.6912384 -1.5439453 1.5439453 -1.5439453l6.175598 0l0 0c0.40948486 0 0.80218506 0.16265869 1.0917358 0.45220947c0.28955078 0.28955078 0.45220947 0.682251 0.45220947 1.0917358l0 70.02699c0 0.8527069 -0.6912384 1.5439606 -1.5439453 1.5439606l-6.175598 0c-0.8527069 0 -1.5439453 -0.69125366 -1.5439453 -1.5439606z" fill-rule="evenodd"/><path fill="#2563eb" d="m228.02686 159.84894l0 0c0 -0.8527069 0.6912384 -1.5439453 1.5439453 -1.5439453l6.175598 0l0 0c0.40948486 0 0.8022003 0.16265869 1.0917358 0.45220947c0.28955078 0.28955078 0.45220947 0.682251 0.45220947 1.0917358l0 70.02699c0 0.8527069 -0.6912384 1.5439606 -1.5439453 1.5439606l-6.175598 0c-0.8527069 0 -1.5439453 -0.69125366 -1.5439453 -1.5439606z" fill-rule="evenodd"/><path fill="#2563eb" d="m71.569435 211.51424l0 0c0 -1.31781 1.0682907 -2.3860931 2.3861008 -2.3860931l15.556633 0c0.6328354 0 1.2397461 0.25138855 1.687233 0.6988678c0.44747925 0.44747925 0.6988678 1.0543976 0.6988678 1.6872253l0 9.544128c0 1.31781 -1.0682907 2.3860931 -2.3861008 2.3860931l-15.556633 0c-1.31781 0 -2.3861008 -1.0682831 -2.3861008 -2.3860931z" fill-rule="evenodd"/><path fill="#2563eb" d="m115.50377 216.79956l0 0c0 -1.31781 1.0682983 -2.3861084 2.3861084 -2.3861084l20.983398 0c0.63282776 0 1.2397461 0.2514038 1.6872253 0.69888306c0.44747925 0.44747925 0.69888306 1.0543976 0.69888306 1.6872253l0 9.544128c0 1.31781 -1.0682983 2.3860931 -2.3861084 2.3860931l-20.983398 0c-1.31781 0 -2.3861084 -1.0682831 -2.3861084 -2.3860931z" fill-rule="evenodd"/><path fill="#2563eb" d="m101.29182 221.07787l0 0c0 -1.4319916 1.1608582 -2.5928497 2.592842 -2.5928497l17.57228 0c0.6876602 0 1.3471603 0.2731781 1.8334122 0.75942993c0.48625183 0.48625183 0.75942993 1.145752 0.75942993 1.8334198l0 10.371048c0 1.4319763 -1.1608582 2.5928345 -2.592842 2.5928345l-17.57228 0c-1.431984 0 -2.592842 -1.1608582 -2.592842 -2.5928345z" fill-rule="evenodd"/><path fill="#2563eb" d="m63.05741 220.94865l0 0c0 -1.3606262 1.1030045 -2.4636383 2.4636307 -2.4636383l16.538612 0c0.6533966 0 1.2800293 0.25956726 1.7420502 0.72158813c0.46202087 0.46202087 0.7215805 1.0886536 0.7215805 1.7420502l0 9.854218c0 1.3606262 -1.1030045 2.463623 -2.4636307 2.463623l-16.538612 0c-1.3606262 0 -2.4636307 -1.1029968 -2.4636307 -2.463623z" fill-rule="evenodd"/><path fill="#2563eb" d="m99.64642 222.05844l0 0c0 -0.76356506 0.61899567 -1.3825531 1.3825607 -1.3825531l14.32489 0c0.36667633 0 0.718338 0.1456604 0.97761536 0.40493774c0.25927734 0.25927734 0.40494537 0.61094666 0.40494537 0.97761536l0 5.530075c0 0.7635803 -0.61899567 1.3825684 -1.3825607 1.3825684l-14.32489 0c-0.76356506 0 -1.3825607 -0.61898804 -1.3825607 -1.3825684z" fill-rule="evenodd"/><path fill="#2563eb" d="m77.91166 216.78151l0 0c0 -2.0623474 1.6718597 -3.7342072 3.7341995 -3.7342072l18.287193 0c0.9903717 0 1.9401855 0.39343262 2.6404877 1.0937347c0.7002945 0.7003021 1.0937195 1.6501007 1.0937195 2.6404724l0 14.936386c0 2.0623474 -1.6718597 3.7342072 -3.7342072 3.7342072l-18.287193 0c-2.0623398 0 -3.7341995 -1.6718597 -3.7341995 -3.7342072z" fill-rule="evenodd"/><path fill="#2563eb" d="m100.414665 227.23117l0 0c0 -1.0672455 0.86517334 -1.9324188 1.9324265 -1.9324188l28.919708 0c0.5125122 0 1.0040283 0.20358276 1.3664246 0.56599426c0.36239624 0.36239624 0.56599426 0.85391235 0.56599426 1.3664246l0 7.729477c0 1.0672455 -0.86517334 1.9324341 -1.9324188 1.9324341l-28.919708 0c-1.0672531 0 -1.9324265 -0.8651886 -1.9324265 -1.9324341z" fill-rule="evenodd"/><path fill="#2563eb" d="m166.66212 220.52087l0 0c0 -0.3911438 -0.31707764 -0.7082062 -0.7082062 -0.7082062l-6.3004456 0c-0.1878357 0 -0.3679657 0.07460022 -0.50079346 0.20742798c-0.1328125 0.1328125 -0.20742798 0.3129425 -0.20742798 0.5007782l0 2.8327484c0 0.39112854 0.31707764 0.7082062 0.70822144 0.7082062l6.3004456 0c0.39112854 0 0.7082062 -0.31707764 0.7082062 -0.7082062z" fill-rule="evenodd"/><path fill="#2563eb" d="m161.24303 210.40775l0 0c0 -1.3172607 -1.0678406 -2.3851166 -2.3851166 -2.3851166l-14.521942 0c-0.63256836 0 -1.2392273 0.25128174 -1.6865234 0.6985779c-0.44729614 0.44729614 -0.69859314 1.0539703 -0.69859314 1.6865387l0 9.540161c0 1.3172607 1.0678558 2.3851166 2.3851166 2.3851166l14.521942 0c1.317276 0 2.3851166 -1.0678558 2.3851166 -2.3851166z" fill-rule="evenodd"/><path fill="#2563eb" d="m169.31897 219.84329l0 0c0 -1.360733 -1.1030884 -2.4638062 -2.4638062 -2.4638062l-15.439072 0c-0.6534424 0 -1.2801208 0.25958252 -1.7421722 0.7216339c-0.4620514 0.4620514 -0.7216339 1.0887299 -0.7216339 1.7421722l0 9.854919c0 1.3607178 1.1030884 2.463791 2.4638062 2.463791l15.439072 0c1.3607178 0 2.4638062 -1.1030731 2.4638062 -2.463791z" fill-rule="evenodd"/><path fill="#2563eb" d="m155.22574 215.67548l0 0c0 -2.0620575 -1.6716309 -3.7336884 -3.7336884 -3.7336884l-16.969376 0c-0.9902344 0 -1.9399109 0.39337158 -2.6401215 1.0935669c-0.7001953 0.7002106 -1.0935669 1.6498871 -1.0935669 2.6401215l0 14.934326c0 2.0620728 1.6716309 3.7337036 3.7336884 3.7337036l16.969376 0c2.0620575 0 3.7336884 -1.6716309 3.7336884 -3.7337036z" fill-rule="evenodd"/><path fill="#2563eb" d="m111.47556 190.53857l0 0c0 -0.63827515 0.5174179 -1.1556854 1.155693 -1.1556854l9.115105 0c0.30651093 0 0.60046387 0.12174988 0.8171997 0.33848572c0.21673584 0.21673584 0.33849335 0.5106964 0.33849335 0.8171997l0 4.62265c0 0.6382599 -0.5174179 1.1556854 -1.155693 1.1556854l-9.115105 0c-0.63827515 0 -1.155693 -0.51742554 -1.155693 -1.1556854z" fill-rule="evenodd"/><path fill="#2563eb" d="m125.49097 190.7431l0 0c0 -0.58283997 0.4724884 -1.0553131 1.0553207 -1.0553131l8.306679 0c0.27989197 0 0.5483093 0.11117554 0.7462311 0.3090973c0.1979065 0.1979065 0.3090973 0.46632385 0.3090973 0.7462158l0 4.2211456c0 0.58283997 -0.4724884 1.0553131 -1.0553284 1.0553131l-8.306679 0c-0.58283234 0 -1.0553207 -0.47247314 -1.0553207 -1.0553131z" fill-rule="evenodd"/><path fill="#2563eb" d="m119.21673 199.96133l0 0c0 -0.5828247 0.47248077 -1.0553131 1.0553131 -1.0553131l8.306694 0c0.2798767 0 0.5483093 0.111190796 0.7462158 0.3090973c0.1979065 0.1979065 0.3090973 0.4663391 0.3090973 0.7462158l0 4.2211456c0 0.58283997 -0.4724884 1.0553131 -1.0553131 1.0553131l-8.306694 0c-0.58283234 0 -1.0553131 -0.47247314 -1.0553131 -1.0553131z" fill-rule="evenodd"/><path fill="#2563eb" d="m178.91618 190.48863l0 0c0 -0.6062012 0.49142456 -1.097641 1.097641 -1.097641l8.636719 0c0.29110718 0 0.57029724 0.11564636 0.77615356 0.32148743c0.20584106 0.20585632 0.32148743 0.4850464 0.32148743 0.77615356l0 4.390442c0 0.60621643 -0.49142456 1.0976562 -1.097641 1.0976562l-8.636719 0c-0.60621643 0 -1.097641 -0.49143982 -1.097641 -1.0976562z" fill-rule="evenodd"/><path fill="#2563eb" d="m186.2416 199.75946l0 0c0 -0.6062012 0.49143982 -1.097641 1.097641 -1.097641l8.636734 0c0.29110718 0 0.57029724 0.11564636 0.7761383 0.32148743c0.20585632 0.20585632 0.3215027 0.4850464 0.3215027 0.77615356l0 4.390442c0 0.60621643 -0.49143982 1.0976562 -1.097641 1.0976562l-8.636734 0c-0.6062012 0 -1.097641 -0.49143982 -1.097641 -1.0976562z" fill-rule="evenodd"/><path fill="#2563eb" d="m88.006996 195.00461l0 0c0 -0.6384125 0.5175247 -1.1559296 1.1559296 -1.1559296l9.116928 0c0.30657196 0 0.60058594 0.121780396 0.8173599 0.338562c0.21678162 0.21678162 0.338562 0.51078796 0.338562 0.81736755l0 4.6235504c0 0.6384125 -0.5175247 1.1559296 -1.1559219 1.1559296l-9.116928 0c-0.63840485 0 -1.1559296 -0.5175171 -1.1559296 -1.1559296z" fill-rule="evenodd"/><path fill="#2563eb" d="m57.108227 132.26093l0 0c0 -3.021164 2.4491348 -5.470299 5.470295 -5.470299l178.83904 0c1.4508209 0 2.8422089 0.5763397 3.8680878 1.602211c1.0258789 1.0258789 1.6022186 2.417282 1.6022186 3.8680878l0 21.880524c0 3.021164 -2.4491425 5.470291 -5.4703064 5.470291l-178.83904 0c-3.0211601 0 -5.470295 -2.4491272 -5.470295 -5.470291z" fill-rule="evenodd"/><path fill="#2563eb" d="m57.108227 130.54874l0 0c0 -2.0755463 1.6825638 -3.75811 3.7581139 -3.75811l15.032005 0l0 0c0.99671173 0 1.9526062 0.3959427 2.6573868 1.1007309c0.7047882 0.7047882 1.1007309 1.660675 1.1007309 2.6573792l0 25.304886c0 2.0755615 -1.6825638 3.7581177 -3.7581177 3.7581177l-15.032005 0c-2.07555 0 -3.7581139 -1.6825562 -3.7581139 -3.7581177z" fill-rule="evenodd"/><path fill="#2563eb" d="m98.91544 130.54874l0 0c0 -2.0755463 1.6825638 -3.75811 3.7581177 -3.75811l15.032005 0l0 0c0.99671173 0 1.9526062 0.3959427 2.6573868 1.1007309c0.7047882 0.7047882 1.1007309 1.660675 1.1007309 2.6573792l0 25.304886c0 2.0755615 -1.6825638 3.7581177 -3.7581177 3.7581177l-15.032005 0c-2.075554 0 -3.7581177 -1.6825562 -3.7581177 -3.7581177z" fill-rule="evenodd"/><path fill="#2563eb" d="m140.72318 130.54874l0 0c0 -2.0755463 1.6825714 -3.75811 3.7581177 -3.75811l15.031998 0l0 0c0.99671936 0 1.9526062 0.3959427 2.6573944 1.1007309c0.7047882 0.7047882 1.1007233 1.660675 1.1007233 2.6573792l0 25.304886c0 2.0755615 -1.6825562 3.7581177 -3.7581177 3.7581177l-15.031998 0c-2.0755463 0 -3.7581177 -1.6825562 -3.7581177 -3.7581177z" fill-rule="evenodd"/><path fill="#2563eb" d="m182.53142 130.54874l0 0c0 -2.0755463 1.6825562 -3.75811 3.7581024 -3.75811l15.032013 0l0 0c0.99671936 0 1.9526062 0.3959427 2.6573944 1.1007309c0.70477295 0.7047882 1.1007233 1.660675 1.1007233 2.6573792l0 25.304886c0 2.0755615 -1.6825714 3.7581177 -3.7581177 3.7581177l-15.032013 0c-2.0755463 0 -3.7581024 -1.6825562 -3.7581024 -3.7581177z" fill-rule="evenodd"/><path fill="#2563eb" d="m224.33914 130.54874l0 0c0 -2.0755463 1.6825714 -3.75811 3.7581177 -3.75811l15.031998 0l0 0c0.99671936 0 1.9526062 0.3959427 2.6573944 1.1007309c0.7047882 0.7047882 1.1007233 1.660675 1.1007233 2.6573792l0 25.304886c0 2.0755615 -1.6825562 3.7581177 -3.7581177 3.7581177l-15.031998 0c-2.0755463 0 -3.7581177 -1.6825562 -3.7581177 -3.7581177z" fill-rule="evenodd"/><path fill="#2563eb" d="m191.4996 196.74997l0 0c0 -2.3932495 1.9401093 -4.333374 4.333359 -4.333374l17.332932 0l0 0c1.1492767 0 2.2514954 0.45655823 3.064148 1.2692261c0.81266785 0.8126526 1.2692261 1.9148712 1.2692261 3.064148l0 30.340897c0 2.3932648 -1.9401245 4.333374 -4.333374 4.333374l-17.332932 0c-2.3932495 0 -4.333359 -1.9401093 -4.333359 -4.333374z" fill-rule="evenodd"/><path fill="#2563eb" d="m207.47733 210.33247l0 0c0 -0.43759155 0.35473633 -0.7923279 0.7923279 -0.7923279l4.0320587 0c0.21012878 0 0.41166687 0.083465576 0.56025696 0.23205566c0.14859009 0.14859009 0.23207092 0.35012817 0.23207092 0.5602722l0 3.1691895c0 0.43759155 -0.35473633 0.7923279 -0.7923279 0.7923279l-4.0320587 0c-0.43759155 0 -0.7923279 -0.35473633 -0.7923279 -0.7923279z" fill-rule="evenodd"/><path fill="#2563eb" d="m202.19725 207.229l0 0c0 -0.43759155 0.35473633 -0.7923279 0.7923279 -0.7923279l9.306885 0c0.21012878 0 0.41166687 0.083480835 0.56025696 0.23207092c0.14859009 0.14859009 0.23205566 0.35011292 0.23205566 0.56025696l0 3.1692047c0 0.43759155 -0.35473633 0.7923279 -0.7923126 0.7923279l-9.306885 0c-0.43759155 0 -0.7923279 -0.35473633 -0.7923279 -0.7923279z" fill-rule="evenodd"/><path fill="#9a4600" d="m217.30223 101.56985l0 0c0 -1.3607178 1.1030884 -2.4637985 2.4638062 -2.4637985l18.760254 0c0.6534424 0 1.2801208 0.2595749 1.7421722 0.7216263c0.4620514 0.4620514 0.7216339 1.0887299 0.7216339 1.7421722l0 9.854919c0 1.3607254 -1.1030884 2.4638062 -2.4638062 2.4638062l-18.760254 0c-1.3607178 0 -2.4638062 -1.1030807 -2.4638062 -2.4638062z" fill-rule="evenodd"/><path fill="#9a4600" d="m31.008451 101.56985l0 0c0 -1.3607178 1.1030827 -2.4637985 2.4638042 -2.4637985l18.76025 0c0.6534424 0 1.2801208 0.2595749 1.7421722 0.7216263c0.4620514 0.4620514 0.7216301 1.0887299 0.7216301 1.7421722l0 9.854919c0 1.3607254 -1.1030807 2.4638062 -2.4638023 2.4638062l-18.76025 0c-1.3607216 0 -2.4638042 -1.1030807 -2.4638042 -2.4638062z" fill-rule="evenodd"/><path fill="#9a4600" d="m31.008451 106.522224l0 0c0 -0.8152313 0.6608772 -1.4761047 1.4761105 -1.4761047l207.03128 0c0.39149475 0 0.7669525 0.15551758 1.0437775 0.43234253c0.27682495 0.27682495 0.43234253 0.6522751 0.43234253 1.0437622l0 5.904274c0 0.8152313 -0.6608887 1.4761124 -1.47612 1.4761124l-207.03128 0c-0.81523323 0 -1.4761105 -0.66088104 -1.4761105 -1.4761124z" fill-rule="evenodd"/><path fill="#f73d35" d="m50.70687 154.49165l0 0c0 -6.730179 5.455887 -12.186066 12.186062 -12.186066l65.56035 0c3.2319336 0 6.3315125 1.2838898 8.616837 3.5692139c2.2853394 2.285324 3.5692139 5.384903 3.5692139 8.616852l0 48.742767c0 6.730179 -5.455887 12.186066 -12.18605 12.186066l-65.56035 0l0 0c-6.730175 0 -12.186062 -5.455887 -12.186062 -12.186066z" fill-rule="evenodd"/><path fill="#f73d35" d="m131.3668 154.49104l0 0c0 -6.7301636 5.4558716 -12.18605 12.18605 -12.18605l65.56035 0c3.2319336 0 6.3315125 1.2838745 8.616837 3.5692139c2.2853394 2.285324 3.5692139 5.384903 3.5692139 8.616837l0 48.742783c0 6.730179 -5.455887 12.186066 -12.18605 12.186066l-65.56035 0l0 0c-6.730179 0 -12.18605 -5.455887 -12.18605 -12.186066z" fill-rule="evenodd"/><path fill="#592901" d="m131.3668 158.49875l0 0c0 -0.8152466 0.6608734 -1.47612 1.4761047 -1.47612l86.98024 0c0.3914795 0 0.76693726 0.15551758 1.0437622 0.43234253c0.27682495 0.27682495 0.43234253 0.6522827 0.43234253 1.0437775l0 5.9042664c0 0.8152313 -0.6608734 1.4761047 -1.4761047 1.4761047l-86.98024 0l0 0c-0.8152313 0 -1.4761047 -0.6608734 -1.4761047 -1.4761047z" fill-rule="evenodd"/><path fill="#592901" d="m50.70687 158.49875l0 0c0 -0.8152313 0.6608772 -1.47612 1.4761124 -1.47612l86.98024 0c0.3914795 0 0.76693726 0.15551758 1.0437622 0.43234253c0.27682495 0.27682495 0.43234253 0.6522827 0.43234253 1.0437775l0 5.9042664c0 0.8152313 -0.6608734 1.4761047 -1.4761047 1.4761047l-86.98024 0l0 0c-0.81523514 0 -1.4761124 -0.6608734 -1.4761124 -1.4761047z" fill-rule="evenodd"/><path fill="#9a4600" d="m50.70687 143.84894l0 0c0 -0.8527069 0.69124985 -1.5439453 1.5439491 -1.5439453l6.175602 0l0 0c0.40948105 0 0.8021927 0.16265869 1.0917358 0.45220947c0.28954697 0.28955078 0.4522133 0.682251 0.4522133 1.0917358l0 70.02699c0 0.8527069 -0.69124985 1.5439606 -1.5439491 1.5439606l-6.175602 0c-0.8526993 0 -1.5439491 -0.69125366 -1.5439491 -1.5439606z" fill-rule="evenodd"/><path fill="#9a4600" d="m131.36687 143.84894l0 0c0 -0.8527069 0.6912384 -1.5439453 1.5439453 -1.5439453l6.175598 0l0 0c0.40948486 0 0.80218506 0.16265869 1.0917358 0.45220947c0.28955078 0.28955078 0.45220947 0.682251 0.45220947 1.0917358l0 70.02699c0 0.8527069 -0.6912384 1.5439606 -1.5439453 1.5439606l-6.175598 0c-0.8527069 0 -1.5439453 -0.69125366 -1.5439453 -1.5439606z" fill-rule="evenodd"/><path fill="#9a4600" d="m212.02686 143.84894l0 0c0 -0.8527069 0.6912384 -1.5439453 1.5439453 -1.5439453l6.175598 0l0 0c0.40948486 0 0.8022003 0.16265869 1.0917358 0.45220947c0.28955078 0.28955078 0.45220947 0.682251 0.45220947 1.0917358l0 70.02699c0 0.8527069 -0.6912384 1.5439606 -1.5439453 1.5439606l-6.175598 0c-0.8527069 0 -1.5439453 -0.69125366 -1.5439453 -1.5439606z" fill-rule="evenodd"/><path fill="#227600" d="m55.569435 195.51424l0 0c0 -1.31781 1.0682945 -2.3860931 2.3861008 -2.3860931l15.556633 0c0.6328354 0 1.2397461 0.25138855 1.687233 0.6988678c0.44747925 0.44747925 0.6988678 1.0543976 0.6988678 1.6872253l0 9.544128c0 1.31781 -1.0682907 2.3860931 -2.3861008 2.3860931l-15.556633 0c-1.3178062 0 -2.3861008 -1.0682831 -2.3861008 -2.3860931z" fill-rule="evenodd"/><path fill="#227600" d="m99.50377 200.79956l0 0c0 -1.31781 1.0682983 -2.3861084 2.3861084 -2.3861084l20.983398 0c0.6328354 0 1.2397461 0.2514038 1.6872253 0.69888306c0.44748688 0.44747925 0.6988754 1.0543976 0.6988754 1.6872253l0 9.544128c0 1.31781 -1.0682907 2.3860931 -2.3861008 2.3860931l-20.983398 0c-1.31781 0 -2.3861084 -1.0682831 -2.3861084 -2.3860931z" fill-rule="evenodd"/><path fill="#35ad05" d="m85.29182 205.07787l0 0c0 -1.4319916 1.1608582 -2.5928497 2.592842 -2.5928497l17.57228 0c0.6876602 0 1.3471603 0.2731781 1.8334122 0.75942993c0.48625183 0.48625183 0.75942993 1.145752 0.75942993 1.8334198l0 10.371048c0 1.4319763 -1.1608582 2.5928345 -2.592842 2.5928345l-17.57228 0c-1.431984 0 -2.592842 -1.1608582 -2.592842 -2.5928345z" fill-rule="evenodd"/><path fill="#35ad05" d="m47.05741 204.94865l0 0c0 -1.3606262 1.1030045 -2.4636383 2.4636269 -2.4636383l16.538616 0c0.6533966 0 1.2800293 0.25956726 1.7420502 0.72158813c0.46202087 0.46202087 0.7215805 1.0886536 0.7215805 1.7420502l0 9.854218c0 1.3606262 -1.1030045 2.463623 -2.4636307 2.463623l-16.538616 0c-1.3606224 0 -2.4636269 -1.1029968 -2.4636269 -2.463623z" fill-rule="evenodd"/><path fill="#3fbe0c" d="m83.64642 206.05844l0 0c0 -0.76356506 0.61899567 -1.3825531 1.3825607 -1.3825531l14.32489 0c0.36667633 0 0.718338 0.1456604 0.97761536 0.40493774c0.25927734 0.25927734 0.40494537 0.61094666 0.40494537 0.97761536l0 5.530075c0 0.7635803 -0.61899567 1.3825684 -1.3825607 1.3825684l-14.32489 0c-0.76356506 0 -1.3825607 -0.61898804 -1.3825607 -1.3825684z" fill-rule="evenodd"/><path fill="#3fbe0c" d="m61.911655 200.78151l0 0c0 -2.0623474 1.6718597 -3.7342072 3.7342033 -3.7342072l18.287193 0c0.9903717 0 1.9401855 0.39343262 2.6404877 1.0937347c0.7002945 0.7003021 1.0937195 1.6501007 1.0937195 2.6404724l0 14.936386c0 2.0623474 -1.6718597 3.7342072 -3.7342072 3.7342072l-18.287193 0c-2.0623436 0 -3.7342033 -1.6718597 -3.7342033 -3.7342072z" fill-rule="evenodd"/><path fill="#51de18" d="m84.414665 211.23117l0 0c0 -1.0672455 0.86517334 -1.9324188 1.9324265 -1.9324188l28.9197 0c0.5125122 0 1.004036 0.20358276 1.3664322 0.56599426c0.36240387 0.36239624 0.5660019 0.85391235 0.5660019 1.3664246l0 7.729477c0 1.0672455 -0.86518097 1.9324341 -1.9324341 1.9324341l-28.9197 0c-1.0672531 0 -1.9324265 -0.8651886 -1.9324265 -1.9324341z" fill-rule="evenodd"/><path fill="#51de18" d="m150.66212 204.52087l0 0c0 -0.3911438 -0.31707764 -0.7082062 -0.7082062 -0.7082062l-6.3004456 0c-0.1878357 0 -0.3679657 0.07460022 -0.50079346 0.20742798c-0.1328125 0.1328125 -0.20742798 0.3129425 -0.20742798 0.5007782l0 2.8327484c0 0.39112854 0.31707764 0.7082062 0.70822144 0.7082062l6.3004456 0c0.39112854 0 0.7082062 -0.31707764 0.7082062 -0.7082062z" fill-rule="evenodd"/><path fill="#227600" d="m145.24303 194.40775l0 0c0 -1.3172607 -1.0678406 -2.3851166 -2.3851166 -2.3851166l-14.521942 0c-0.63256836 0 -1.2392349 0.25128174 -1.6865234 0.6985779c-0.44729614 0.44729614 -0.6985855 1.0539703 -0.6985855 1.6865387l0 9.540161c0 1.3172607 1.0678482 2.3851166 2.385109 2.3851166l14.521942 0c1.317276 0 2.3851166 -1.0678558 2.3851166 -2.3851166z" fill-rule="evenodd"/><path fill="#35ad05" d="m153.31897 203.84329l0 0c0 -1.360733 -1.1030884 -2.4638062 -2.4638062 -2.4638062l-15.439072 0c-0.6534424 0 -1.2801208 0.25958252 -1.7421722 0.7216339c-0.4620514 0.4620514 -0.7216339 1.0887299 -0.7216339 1.7421722l0 9.854919c0 1.3607178 1.1030884 2.463791 2.4638062 2.463791l15.439072 0c1.3607178 0 2.4638062 -1.1030731 2.4638062 -2.463791z" fill-rule="evenodd"/><path fill="#3fbe0c" d="m139.22574 199.67548l0 0c0 -2.0620575 -1.6716309 -3.7336884 -3.7336884 -3.7336884l-16.969376 0c-0.9902344 0 -1.9399109 0.39337158 -2.6401138 1.0935669c-0.7002106 0.7002106 -1.0935745 1.6498871 -1.0935745 2.6401215l0 14.934326c0 2.0620728 1.6716309 3.7337036 3.7336884 3.7337036l16.969376 0c2.0620575 0 3.7336884 -1.6716309 3.7336884 -3.7337036z" fill-rule="evenodd"/><path fill="#e03027" d="m95.47556 174.53857l0 0c0 -0.63827515 0.5174179 -1.1556854 1.155693 -1.1556854l9.115105 0c0.30651093 0 0.60046387 0.12174988 0.8171997 0.33848572c0.21673584 0.21673584 0.33849335 0.5106964 0.33849335 0.8171997l0 4.62265c0 0.6382599 -0.5174179 1.1556854 -1.155693 1.1556854l-9.115105 0c-0.63827515 0 -1.155693 -0.51742554 -1.155693 -1.1556854z" fill-rule="evenodd"/><path fill="#e03027" d="m109.49097 174.7431l0 0c0 -0.58283997 0.4724884 -1.0553131 1.0553207 -1.0553131l8.306686 0c0.27988434 0 0.5483093 0.11117554 0.7462158 0.3090973c0.19791412 0.1979065 0.3090973 0.46632385 0.3090973 0.7462158l0 4.2211456c0 0.58283997 -0.47248077 1.0553131 -1.0553131 1.0553131l-8.306686 0c-0.58283234 0 -1.0553207 -0.47247314 -1.0553207 -1.0553131z" fill-rule="evenodd"/><path fill="#e03027" d="m103.21673 183.96133l0 0c0 -0.5828247 0.47248077 -1.0553131 1.0553131 -1.0553131l8.306686 0c0.27989197 0 0.5483093 0.111190796 0.74622345 0.3090973c0.1979065 0.1979065 0.3090973 0.4663391 0.3090973 0.7462158l0 4.2211456c0 0.58283997 -0.47248077 1.0553131 -1.0553207 1.0553131l-8.306686 0c-0.58283234 0 -1.0553131 -0.47247314 -1.0553131 -1.0553131z" fill-rule="evenodd"/><path fill="#e03027" d="m162.91618 174.48863l0 0c0 -0.6062012 0.49142456 -1.097641 1.097641 -1.097641l8.636719 0c0.29110718 0 0.57029724 0.11564636 0.77615356 0.32148743c0.20584106 0.20585632 0.32148743 0.4850464 0.32148743 0.77615356l0 4.390442c0 0.60621643 -0.49142456 1.0976562 -1.097641 1.0976562l-8.636719 0c-0.60621643 0 -1.097641 -0.49143982 -1.097641 -1.0976562z" fill-rule="evenodd"/><path fill="#e03027" d="m170.2416 183.75946l0 0c0 -0.6062012 0.49143982 -1.097641 1.097641 -1.097641l8.636734 0c0.29110718 0 0.57029724 0.11564636 0.7761383 0.32148743c0.20585632 0.20585632 0.3215027 0.4850464 0.3215027 0.77615356l0 4.390442c0 0.60621643 -0.49143982 1.0976562 -1.097641 1.0976562l-8.636734 0c-0.6062012 0 -1.097641 -0.49143982 -1.097641 -1.0976562z" fill-rule="evenodd"/><path fill="#e03027" d="m72.006996 179.00461l0 0c0 -0.6384125 0.5175247 -1.1559296 1.1559296 -1.1559296l9.116928 0c0.30657196 0 0.60058594 0.121780396 0.8173599 0.338562c0.21678162 0.21678162 0.338562 0.51078796 0.338562 0.81736755l0 4.6235504c0 0.6384125 -0.5175247 1.1559296 -1.1559219 1.1559296l-9.116928 0c-0.63840485 0 -1.1559296 -0.5175171 -1.1559296 -1.1559296z" fill-rule="evenodd"/><path fill="#fcb630" d="m41.108227 116.260925l0 0c0 -3.021164 2.4491348 -5.470299 5.470295 -5.470299l178.83904 0c1.4508209 0 2.8422089 0.5763397 3.8680878 1.6022186c1.0258789 1.0258789 1.6022186 2.4172668 1.6022186 3.8680801l0 21.880524c0 3.021164 -2.4491425 5.470291 -5.4703064 5.470291l-178.83904 0c-3.0211601 0 -5.470295 -2.4491272 -5.470295 -5.470291z" fill-rule="evenodd"/><path fill="#e09300" d="m41.108227 114.548744l0 0c0 -2.0755463 1.6825638 -3.7581177 3.7581139 -3.7581177l15.032005 0l0 0c0.99671555 0 1.9526062 0.3959427 2.6573906 1.1007309c0.7047806 0.7047806 1.1007271 1.660675 1.1007271 2.6573868l0 25.304878c0 2.0755615 -1.6825676 3.7581177 -3.7581177 3.7581177l-15.032005 0c-2.07555 0 -3.7581139 -1.6825562 -3.7581139 -3.7581177z" fill-rule="evenodd"/><path fill="#e09300" d="m82.91544 114.548744l0 0c0 -2.0755463 1.6825638 -3.7581177 3.7581177 -3.7581177l15.032005 0l0 0c0.99671173 0 1.9526062 0.3959427 2.6573868 1.1007309c0.7047882 0.7047806 1.1007309 1.660675 1.1007309 2.6573868l0 25.304878c0 2.0755615 -1.6825638 3.7581177 -3.7581177 3.7581177l-15.032005 0c-2.075554 0 -3.7581177 -1.6825562 -3.7581177 -3.7581177z" fill-rule="evenodd"/><path fill="#e09300" d="m124.723175 114.548744l0 0c0 -2.0755463 1.6825638 -3.7581177 3.7581177 -3.7581177l15.031998 0l0 0c0.99671936 0 1.9526062 0.3959427 2.6573944 1.1007309c0.7047882 0.7047806 1.1007233 1.660675 1.1007233 2.6573868l0 25.304878c0 2.0755615 -1.6825562 3.7581177 -3.7581177 3.7581177l-15.031998 0c-2.075554 0 -3.7581177 -1.6825562 -3.7581177 -3.7581177z" fill-rule="evenodd"/><path fill="#e09300" d="m166.53142 114.548744l0 0c0 -2.0755463 1.6825562 -3.7581177 3.7581024 -3.7581177l15.032013 0l0 0c0.99671936 0 1.9526062 0.3959427 2.6573944 1.1007309c0.70477295 0.7047806 1.1007233 1.660675 1.1007233 2.6573868l0 25.304878c0 2.0755615 -1.6825714 3.7581177 -3.7581177 3.7581177l-15.032013 0c-2.0755463 0 -3.7581024 -1.6825562 -3.7581024 -3.7581177z" fill-rule="evenodd"/><path fill="#e09300" d="m208.33914 114.548744l0 0c0 -2.0755463 1.6825714 -3.7581177 3.7581177 -3.7581177l15.031998 0l0 0c0.99671936 0 1.9526062 0.3959427 2.6573944 1.1007309c0.7047882 0.7047806 1.1007233 1.660675 1.1007233 2.6573868l0 25.304878c0 2.0755615 -1.6825562 3.7581177 -3.7581177 3.7581177l-15.031998 0c-2.0755463 0 -3.7581177 -1.6825562 -3.7581177 -3.7581177z" fill-rule="evenodd"/><path fill="#9a4600" d="m175.4996 180.74997l0 0c0 -2.3932495 1.9401093 -4.333374 4.333359 -4.333374l17.332932 0l0 0c1.1492767 0 2.2514954 0.45655823 3.064148 1.2692261c0.81266785 0.8126526 1.2692261 1.9148712 1.2692261 3.064148l0 30.340897c0 2.3932648 -1.9401245 4.333374 -4.333374 4.333374l-17.332932 0c-2.3932495 0 -4.333359 -1.9401093 -4.333359 -4.333374z" fill-rule="evenodd"/><path fill="#e09300" d="m191.47733 194.33247l0 0c0 -0.43759155 0.35473633 -0.7923279 0.7923279 -0.7923279l4.0320587 0c0.21012878 0 0.41166687 0.083465576 0.56025696 0.23205566c0.14859009 0.14859009 0.23207092 0.35012817 0.23207092 0.5602722l0 3.1691895c0 0.43759155 -0.35473633 0.7923279 -0.7923279 0.7923279l-4.0320587 0c-0.43759155 0 -0.7923279 -0.35473633 -0.7923279 -0.7923279z" fill-rule="evenodd"/><path fill="#fcb630" d="m186.19725 191.229l0 0c0 -0.43759155 0.35473633 -0.7923279 0.7923279 -0.7923279l9.306885 0c0.21012878 0 0.41166687 0.083480835 0.56025696 0.23207092c0.14859009 0.14859009 0.23205566 0.35011292 0.23205566 0.56025696l0 3.1692047c0 0.43759155 -0.35473633 0.7923279 -0.7923126 0.7923279l-9.306885 0c-0.43759155 0 -0.7923279 -0.35473633 -0.7923279 -0.7923279z" fill-rule="evenodd"/><path fill="#000000" fill-opacity="0.0" d="m21.700787 315.7533l266.29922 0l0 38.771637l-266.29922 0z" fill-rule="evenodd"/><path fill="#ffffff" d="m31.825787 328.11328l3.3125 0l0 12.0l-3.3125 0l0 -12.0zm9.4375 0l3.328125 0l0 12.0l-3.328125 0l0 -12.0zm-7.59375 4.4375l8.96875 0l0 2.9375l-8.96875 0l0 -2.9375zm18.223022 7.8125q-1.765625 0 -3.078125 -0.59375q-1.3125 -0.59375 -2.046875 -1.6875q-0.734375 -1.109375 -0.734375 -2.53125q0 -1.453125 0.734375 -2.53125q0.734375 -1.09375 2.046875 -1.703125q1.3125 -0.609375 3.078125 -0.609375q1.734375 0 3.046875 0.609375q1.328125 0.609375 2.0625 1.703125q0.734375 1.078125 0.734375 2.53125q0 1.421875 -0.734375 2.53125q-0.734375 1.09375 -2.0625 1.6875q-1.3125 0.59375 -3.046875 0.59375zm0 -2.40625q0.796875 0 1.359375 -0.28125q0.5625 -0.296875 0.859375 -0.84375q0.3125 -0.546875 0.3125 -1.28125q0 -0.765625 -0.3125 -1.296875q-0.296875 -0.546875 -0.859375 -0.828125q-0.5625 -0.28125 -1.359375 -0.28125q-0.8125 0 -1.390625 0.28125q-0.5625 0.28125 -0.875 0.828125q-0.296875 0.53125 -0.296875 1.28125q0 0.75 0.296875 1.296875q0.3125 0.546875 0.875 0.84375q0.578125 0.28125 1.390625 0.28125zm11.156403 2.40625q-1.28125 0 -2.1875 -0.515625q-0.890625 -0.53125 -1.375 -1.5q-0.484375 -0.96875 -0.484375 -2.265625l0 -5.109375l3.265625 0l0 4.640625q0 1.015625 0.5 1.5625q0.5 0.53125 1.4218788 0.53125q0.6875 0 1.140625 -0.265625q0.46875 -0.28125 0.71875 -0.8125q0.265625 -0.53125 0.265625 -1.265625l1.015625 0.53125q-0.1875 1.453125 -0.796875 2.453125q-0.609375 1.0 -1.515625 1.515625q-0.890625 0.5 -1.9687538 0.5zm3.8593788 -0.25l-0.59375 -3.65625l0 -5.484375l3.265625 0l0 5.984375l0.59375 3.15625l-3.265625 0zm15.228897 -2.96875q0 1.046875 -0.640625 1.765625q-0.640625 0.71875 -1.828125 1.09375q-1.171875 0.359375 -2.84375 0.359375q-1.703125 0 -3.0 -0.40625q-1.28125 -0.421875 -2.0 -1.171875q-0.71875 -0.75 -0.765625 -1.75l3.3125 0q0.109375 0.375 0.4375 0.640625q0.328125 0.265625 0.859375 0.40625q0.546875 0.125 1.296875 0.125q0.984375 0 1.484375 -0.1875q0.5 -0.1875 0.5 -0.578125q0 -0.296875 -0.390625 -0.453125q-0.375 -0.15625 -1.296875 -0.234375l-1.625 -0.125q-1.609375 -0.109375 -2.5625 -0.484375q-0.953125 -0.390625 -1.375 -0.984375q-0.40625 -0.59375 -0.40625 -1.359375q0 -1.046875 0.640625 -1.71875q0.65625 -0.6875 1.8125 -1.03125q1.15625 -0.34375 2.71875 -0.34375q1.53125 0 2.734375 0.40625q1.203125 0.390625 1.921875 1.109375q0.71875 0.703125 0.828125 1.671875l-3.3125 0q-0.078125 -0.3125 -0.359375 -0.5625q-0.265625 -0.25 -0.75 -0.40625q-0.46875 -0.15625 -1.234375 -0.15625q-0.875 0 -1.328125 0.203125q-0.453125 0.1875 -0.453125 0.53125q0 0.265625 0.28125 0.4375q0.28125 0.15625 1.046875 0.21875l2.125 0.15625q1.578125 0.09375 2.484375 0.46875q0.921875 0.359375 1.296875 0.953125q0.390625 0.578125 0.390625 1.40625zm6.7336426 3.21875q-1.65625 0 -2.96875 -0.59375q-1.296875 -0.609375 -2.046875 -1.703125q-0.75 -1.109375 -0.75 -2.5625q0 -1.421875 0.71875 -2.5q0.71875 -1.078125 1.96875 -1.6875q1.265625 -0.609375 2.84375 -0.609375q1.640625 0 2.796875 0.71875q1.171875 0.703125 1.796875 2.0q0.640625 1.296875 0.640625 3.0625l-8.125 0l0 -1.96875l6.28125 0l-1.0625 0.6875q-0.078125 -0.703125 -0.359375 -1.1875q-0.28125 -0.5 -0.765625 -0.75q-0.46875 -0.265625 -1.125 -0.265625q-0.71875 0 -1.234375 0.296875q-0.5 0.28125 -0.796875 0.796875q-0.28125 0.5 -0.28125 1.171875q0 0.859375 0.390625 1.46875q0.390625 0.59375 1.140625 0.921875q0.765625 0.3125 1.875 0.3125q1.0 0 2.0 -0.265625q1.0 -0.265625 1.828125 -0.75l0 2.078125q-0.953125 0.640625 -2.171875 0.984375q-1.203125 0.34375 -2.59375 0.34375z" fill-rule="nonzero"/><path fill="#ffffff" d="m102.7482 336.95703q0 -0.84375 0.171875 -1.765625q0.171875 -0.921875 0.46875 -1.78125q0.3125 -0.875 0.703125 -1.515625l0.859375 0q-0.40625 0.8125 -0.703125 1.703125q-0.296875 0.875 -0.453125 1.75q-0.15625 0.859375 -0.15625 1.609375q0 0.671875 0.140625 1.390625q0.140625 0.703125 0.421875 1.5q0.296875 0.78125 0.75 1.71875l-0.859375 0q-0.671875 -1.125 -1.015625 -2.296875q-0.328125 -1.171875 -0.328125 -2.3125zm6.400543 -0.34375l0 3.5l-0.875 0l0 -7.75l0.875 0l0 2.84375l0.09375 0q0.203125 -0.453125 0.609375 -0.71875q0.40625 -0.265625 1.09375 -0.265625q0.59375 0 1.03125 0.234375q0.453125 0.234375 0.703125 0.734375q0.25 0.484375 0.25 1.234375l0 3.6875l-0.890625 0l0 -3.625q0 -0.703125 -0.359375 -1.078125q-0.359375 -0.390625 -1.0 -0.390625q-0.4375 0 -0.78125 0.1875q-0.34375 0.1875 -0.546875 0.546875q-0.203125 0.359375 -0.203125 0.859375zm6.6349487 3.640625q-0.546875 0 -1.0 -0.203125q-0.453125 -0.21875 -0.71875 -0.625q-0.265625 -0.40625 -0.265625 -0.96875q0 -0.5 0.1875 -0.796875q0.203125 -0.3125 0.53125 -0.484375q0.328125 -0.1875 0.71875 -0.28125q0.40625 -0.09375 0.8125 -0.140625q0.53125 -0.0625 0.859375 -0.09375q0.328125 -0.046875 0.484375 -0.125q0.15625 -0.09375 0.15625 -0.3125l0 -0.03125q0 -0.5625 -0.3125 -0.859375q-0.296875 -0.3125 -0.921875 -0.3125q-0.625 0 -1.0 0.28125q-0.359375 0.265625 -0.5 0.59375l-0.859375 -0.3125q0.234375 -0.53125 0.609375 -0.828125q0.390625 -0.296875 0.84375 -0.40625q0.453125 -0.125 0.875 -0.125q0.28125 0 0.640625 0.0625q0.375 0.0625 0.71875 0.28125q0.34375 0.203125 0.5625 0.625q0.234375 0.40625 0.234375 1.09375l0 3.828125l-0.890625 0l0 -0.796875l-0.046875 0q-0.078125 0.1875 -0.296875 0.40625q-0.21875 0.21875 -0.578125 0.375q-0.34375 0.15625 -0.84375 0.15625zm0.140625 -0.8125q0.515625 0 0.875 -0.203125q0.375 -0.203125 0.5625 -0.53125q0.1875 -0.34375 0.1875 -0.703125l0 -0.8125q-0.0625 0.0625 -0.25 0.125q-0.1875 0.046875 -0.4375 0.09375q-0.25 0.03125 -0.484375 0.0625q-0.21875 0.03125 -0.359375 0.046875q-0.359375 0.046875 -0.65625 0.15625q-0.296875 0.09375 -0.484375 0.296875q-0.1875 0.1875 -0.1875 0.53125q0 0.46875 0.34375 0.703125q0.34375 0.234375 0.890625 0.234375zm7.327942 -1.703125l0 -3.4375l0.890625 0l0 5.8125l-0.890625 0l0 -0.984375l-0.0625 0q-0.203125 0.4375 -0.640625 0.75q-0.421875 0.3125 -1.078125 0.3125q-0.546875 0 -0.96875 -0.234375q-0.421875 -0.25 -0.671875 -0.734375q-0.234375 -0.484375 -0.234375 -1.234375l0 -3.6875l0.875 0l0 3.640625q0 0.625 0.359375 1.015625q0.375 0.375 0.921875 0.359375q0.328125 0 0.671875 -0.15625q0.359375 -0.171875 0.59375 -0.515625q0.234375 -0.359375 0.234375 -0.90625zm6.1454773 -2.125l-0.8125 0.21875q-0.109375 -0.296875 -0.390625 -0.5625q-0.28125 -0.28125 -0.859375 -0.28125q-0.53125 0 -0.890625 0.25q-0.34375 0.25 -0.34375 0.625q0 0.328125 0.234375 0.53125q0.25 0.1875 0.765625 0.3125l0.859375 0.21875q0.765625 0.1875 1.140625 0.578125q0.390625 0.375 0.390625 0.984375q0 0.5 -0.28125 0.90625q-0.28125 0.390625 -0.796875 0.625q-0.515625 0.21875 -1.1875 0.21875q-0.890625 0 -1.46875 -0.390625q-0.578125 -0.390625 -0.734375 -1.125l0.84375 -0.21875q0.125 0.46875 0.453125 0.703125q0.34375 0.234375 0.90625 0.234375q0.609375 0 0.984375 -0.265625q0.375 -0.265625 0.375 -0.640625q0 -0.609375 -0.875 -0.8125l-0.953125 -0.234375q-0.8125 -0.1875 -1.1875 -0.578125q-0.375 -0.40625 -0.375 -1.0q0 -0.5 0.28125 -0.875q0.28125 -0.375 0.765625 -0.59375q0.484375 -0.21875 1.09375 -0.21875q0.859375 0 1.34375 0.390625q0.5 0.375 0.71875 1.0zm3.1280212 5.953125q0.453125 -0.9375 0.734375 -1.71875q0.296875 -0.796875 0.4375 -1.5q0.140625 -0.71875 0.140625 -1.390625q0 -0.75 -0.15625 -1.609375q-0.15625 -0.875 -0.453125 -1.75q-0.296875 -0.890625 -0.703125 -1.703125l0.859375 0q0.40625 0.640625 0.703125 1.515625q0.296875 0.859375 0.46875 1.78125q0.171875 0.921875 0.171875 1.765625q0 1.140625 -0.34375 2.3125q-0.328125 1.171875 -1.0 2.296875l-0.859375 0z" fill-rule="nonzero"/></g></svg>