<svg version="1.1" viewBox="0.0 0.0 288.0 384.0" fill="none" stroke="none" stroke-linecap="square" stroke-miterlimit="10" xmlns:xlink="http://www.w3.org/1999/xlink" xmlns="http://www.w3.org/2000/svg"><clipPath id="g3a72db97a13_0_3054.0"><path d="m0 0l288.0 0l0 384.0l-288.0 0l0 -384.0z" clip-rule="nonzero"/></clipPath><g clip-path="url(#g3a72db97a13_0_3054.0)"><path fill="#161d25" d="m0 0l288.0 0l0 384.0l-288.0 0z" fill-rule="evenodd"/><path fill="#fcb630" d="m5.7007875 34.135216l0 0c0 -9.966135 8.079147 -18.045282 18.04528 -18.045282l240.50787 0c4.7858887 0 9.375793 1.9011936 12.759949 5.2853394c3.3841248 3.3841476 5.2853394 7.9740353 5.2853394 12.759943l0 324.2244c0 9.9661255 -8.079163 18.045288 -18.045288 18.045288l-240.50787 0l0 0c-9.966134 0 -18.04528 -8.079163 -18.04528 -18.045288z" fill-rule="evenodd"/><path stroke="#fcb630" stroke-width="4.0" stroke-linejoin="round" stroke-linecap="butt" d="m5.7007875 34.135216l0 0c0 -9.966135 8.079147 -18.045282 18.04528 -18.045282l240.50787 0c4.7858887 0 9.375793 1.9011936 12.759949 5.2853394c3.3841248 3.3841476 5.2853394 7.9740353 5.2853394 12.759943l0 324.2244c0 9.9661255 -8.079163 18.045288 -18.045288 18.045288l-240.50787 0l0 0c-9.966134 0 -18.04528 -8.079163 -18.04528 -18.045288z" fill-rule="evenodd"/><path fill="#6a490b" d="m5.7007875 25.639769l0 0c0 -9.966133 8.079147 -18.04528 18.04528 -18.04528l240.50787 0c4.7858887 0 9.375793 1.9011936 12.759949 5.2853403c3.3841248 3.3841467 5.2853394 7.9740343 5.2853394 12.75994l0 324.2244c0 9.9661255 -8.079163 18.045288 -18.045288 18.045288l-240.50787 0l0 0c-9.966134 0 -18.04528 -8.079163 -18.04528 -18.045288z" fill-rule="evenodd"/><path stroke="#fcb630" stroke-width="4.0" stroke-linejoin="round" stroke-linecap="butt" d="m5.7007875 25.639769l0 0c0 -9.966133 8.079147 -18.04528 18.04528 -18.04528l240.50787 0c4.7858887 0 9.375793 1.9011936 12.759949 5.2853403c3.3841248 3.3841467 5.2853394 7.9740343 5.2853394 12.75994l0 324.2244c0 9.9661255 -8.079163 18.045288 -18.045288 18.045288l-240.50787 0l0 0c-9.966134 0 -18.04528 -8.079163 -18.04528 -18.045288z" fill-rule="evenodd"/><path fill="#000000" fill-opacity="0.0" d="m21.700787 315.7533l266.29922 0l0 38.771637l-266.29922 0z" fill-rule="evenodd"/><path fill="#ffffff" d="m31.825787 340.11328l0 -12.0l3.296875 0l0 9.359375l-0.890625 -0.6875l6.8125 -8.671875l3.5 0l-9.734375 12.0l-2.984375 0zm5.71875 -5.734375l2.4375 -2.015625l4.71875 7.75l-3.765625 0l-3.390625 -5.734375zm7.9669037 -3.546875l1.65625 0.328125l1.625 -0.328125l0 9.28125l-3.28125 0l0 -9.28125zm1.640625 -0.75q-0.84375 0 -1.375 -0.421875q-0.53125 -0.421875 -0.53125 -1.15625q0 -0.734375 0.53125 -1.15625q0.53125 -0.4375 1.375 -0.4375q0.875 0 1.390625 0.4375q0.53125 0.421875 0.53125 1.15625q0 0.734375 -0.53125 1.15625q-0.515625 0.421875 -1.390625 0.421875zm11.759506 10.03125l-0.4375 -3.421875l0.5625 -1.125l-0.546875 -1.40625l0.765625 -6.359375l3.390625 0l-0.9375 7.5l0.578125 4.8125l-3.375 0zm0.703125 -4.5625q-0.21875 1.4375 -0.890625 2.53125q-0.65625 1.09375 -1.671875 1.6875q-1.015625 0.59375 -2.3125 0.59375q-1.34375 0 -2.375 -0.59375q-1.015625 -0.59375 -1.59375 -1.6875q-0.5625 -1.109375 -0.5625 -2.53125q0 -1.453125 0.5625 -2.53125q0.578125 -1.09375 1.59375 -1.703125q1.03125 -0.609375 2.375 -0.609375q1.296875 0 2.3125 0.609375q1.015625 0.59375 1.6875 1.671875q0.671875 1.078125 0.875 2.5625zm-6.09375 0q0 0.671875 0.28125 1.203125q0.28125 0.53125 0.765625 0.828125q0.5 0.296875 1.140625 0.296875q0.671875 0 1.265625 -0.296875q0.59375 -0.296875 1.03125 -0.828125q0.453125 -0.53125 0.671875 -1.203125q-0.21875 -0.6875 -0.671875 -1.203125q-0.4375 -0.53125 -1.03125 -0.828125q-0.59375 -0.3125 -1.265625 -0.3125q-0.640625 0 -1.140625 0.3125q-0.484375 0.296875 -0.765625 0.828125q-0.28125 0.515625 -0.28125 1.203125zm9.888657 -4.578125l3.2812538 0l0.59375 3.65625l0 5.484375l-3.265625 0l0 -5.984375l-0.6093788 -3.15625zm7.234379 -0.265625q1.3125 0 2.234375 0.53125q0.921875 0.515625 1.40625 1.484375q0.5 0.953125 0.5 2.265625l0 5.125l-3.265625 0l0 -4.640625q0 -1.015625 -0.53125 -1.5625q-0.515625 -0.546875 -1.484375 -0.546875q-0.671875 0 -1.1875 0.296875q-0.5 0.28125 -0.765625 0.8125q-0.265625 0.515625 -0.265625 1.234375l-1.015625 -0.515625q0.1875 -1.46875 0.8125 -2.46875q0.625 -1.0 1.53125 -1.5q0.921875 -0.515625 2.03125 -0.515625zm11.170898 9.65625q-1.65625 0 -2.96875 -0.59375q-1.296875 -0.609375 -2.046875 -1.703125q-0.75 -1.109375 -0.75 -2.5625q0 -1.421875 0.71875 -2.5q0.71875 -1.078125 1.96875 -1.6875q1.265625 -0.609375 2.84375 -0.609375q1.640625 0 2.796875 0.71875q1.171875 0.703125 1.796875 2.0q0.640625 1.296875 0.640625 3.0625l-8.125 0l0 -1.96875l6.28125 0l-1.0625 0.6875q-0.078125 -0.703125 -0.359375 -1.1875q-0.28125 -0.5 -0.765625 -0.75q-0.46875 -0.265625 -1.125 -0.265625q-0.71875 0 -1.234375 0.296875q-0.5 0.28125 -0.796875 0.796875q-0.28125 0.5 -0.28125 1.171875q0 0.859375 0.390625 1.46875q0.390625 0.59375 1.140625 0.921875q0.765625 0.3125 1.875 0.3125q1.0 0 2.0 -0.265625q1.0 -0.265625 1.828125 -0.75l0 2.078125q-0.953125 0.640625 -2.171875 0.984375q-1.203125 0.34375 -2.59375 0.34375zm8.888275 2.640625q-1.015625 0 -1.796875 -0.25q-0.78125 -0.234375 -1.515625 -0.75l0 -2.28125q0.75 0.484375 1.40625 0.6875q0.65625 0.21875 1.4375 0.21875q0.65625 0 1.171875 -0.296875q0.515625 -0.28125 0.828125 -1.046875l3.5 -8.3125l3.484375 0l-4.390625 9.3125q-0.46875 1.015625 -1.140625 1.609375q-0.65625 0.609375 -1.421875 0.859375q-0.765625 0.25 -1.5625 0.25zm0.109375 -3.734375l-3.890625 -8.296875l3.609375 0l3.4375 8.296875l-3.15625 0zm19.436768 -2.125q0 1.046875 -0.640625 1.765625q-0.640625 0.71875 -1.828125 1.09375q-1.171875 0.359375 -2.84375 0.359375q-1.703125 0 -3.0 -0.40625q-1.28125 -0.421875 -2.0 -1.171875q-0.71875 -0.75 -0.765625 -1.75l3.3125 0q0.109375 0.375 0.4375 0.640625q0.328125 0.265625 0.859375 0.40625q0.546875 0.125 1.296875 0.125q0.984375 0 1.484375 -0.1875q0.5 -0.1875 0.5 -0.578125q0 -0.296875 -0.390625 -0.453125q-0.375 -0.15625 -1.296875 -0.234375l-1.625 -0.125q-1.609375 -0.109375 -2.5625 -0.484375q-0.953125 -0.390625 -1.375 -0.984375q-0.40625 -0.59375 -0.40625 -1.359375q0 -1.046875 0.640625 -1.71875q0.65625 -0.6875 1.8125 -1.03125q1.15625 -0.34375 2.71875 -0.34375q1.53125 0 2.734375 0.40625q1.203125 0.390625 1.921875 1.109375q0.71875 0.703125 0.828125 1.671875l-3.3125 0q-0.078125 -0.3125 -0.359375 -0.5625q-0.265625 -0.25 -0.75 -0.40625q-0.46875 -0.15625 -1.234375 -0.15625q-0.875 0 -1.328125 0.203125q-0.453125 0.1875 -0.453125 0.53125q0 0.265625 0.28125 0.4375q0.28125 0.15625 1.046875 0.21875l2.125 0.15625q1.578125 0.09375 2.484375 0.46875q0.921875 0.359375 1.296875 0.953125q0.390625 0.578125 0.390625 1.40625z" fill-rule="nonzero"/><path fill="#ffffff" d="m119.11624 336.95703q0 -0.84375 0.171875 -1.765625q0.171875 -0.921875 0.46875 -1.78125q0.3125 -0.875 0.703125 -1.515625l0.859375 0q-0.40625 0.8125 -0.703125 1.703125q-0.296875 0.875 -0.453125 1.75q-0.15625 0.859375 -0.15625 1.609375q0 0.671875 0.140625 1.390625q0.140625 0.703125 0.421875 1.5q0.296875 0.78125 0.75 1.71875l-0.859375 0q-0.671875 -1.125 -1.015625 -2.296875q-0.328125 -1.171875 -0.328125 -2.3125z" fill-rule="nonzero"/><path fill="#ffffff" d="m126.00116 338.4414l0 -1.9375l0.234375 0l1.859375 -2.203125l1.84375 0l-2.5 2.921875l-0.390625 0l-1.046875 1.21875zm-1.46875 1.671875l0 -7.75l1.609375 0l0 7.75l-1.609375 0zm3.625 0l-1.703125 -2.53125l1.078125 -1.140625l2.515625 3.671875l-1.890625 0zm2.2234497 0l0 -5.8125l1.609375 0l0 5.8125l-1.609375 0zm0.8125 -6.5625q-0.359375 0 -0.625 -0.234375q-0.25 -0.25 -0.25 -0.578125q0 -0.34375 0.25 -0.578125q0.265625 -0.234375 0.625 -0.234375q0.359375 0 0.609375 0.234375q0.265625 0.234375 0.265625 0.578125q0 0.328125 -0.265625 0.578125q-0.25 0.234375 -0.609375 0.234375zm3.8672943 6.65625q-0.65625 0 -1.203125 -0.34375q-0.53125 -0.34375 -0.84375 -1.015625q-0.3125 -0.671875 -0.3125 -1.625q0 -1.0 0.3125 -1.671875q0.328125 -0.671875 0.859375 -1.0q0.546875 -0.328125 1.1875 -0.328125q0.484375 0 0.8125 0.171875q0.328125 0.15625 0.53125 0.40625q0.203125 0.234375 0.296875 0.484375l0.046875 0l0 -2.921875l1.625 0l0 7.75l-1.59375 0l0 -0.9375l-0.078125 0q-0.109375 0.25 -0.3125 0.484375q-0.203125 0.234375 -0.53125 0.390625q-0.328125 0.15625 -0.796875 0.15625zm0.5 -1.28125q0.390625 0 0.65625 -0.21875q0.28125 -0.21875 0.421875 -0.59375q0.15625 -0.390625 0.15625 -0.90625q0 -0.515625 -0.140625 -0.890625q-0.140625 -0.390625 -0.421875 -0.59375q-0.28125 -0.21875 -0.671875 -0.21875q-0.390625 0 -0.65625 0.21875q-0.265625 0.21875 -0.40625 0.609375q-0.140625 0.375 -0.140625 0.875q0 0.5 0.140625 0.890625q0.140625 0.390625 0.40625 0.609375q0.265625 0.21875 0.65625 0.21875z" fill-rule="nonzero"/><path fill="#ffffff" d="m144.08324 338.6914q-0.453125 0 -0.84375 -0.21875q-0.375 -0.234375 -0.609375 -0.609375q-0.21875 -0.390625 -0.21875 -0.84375q0 -0.453125 0.21875 -0.828125q0.234375 -0.390625 0.609375 -0.609375q0.390625 -0.21875 0.84375 -0.21875q0.453125 0 0.828125 0.21875q0.390625 0.21875 0.609375 0.609375q0.21875 0.375 0.21875 0.828125q0 0.453125 -0.21875 0.84375q-0.21875 0.375 -0.609375 0.609375q-0.375 0.21875 -0.828125 0.21875zm6.195801 -2.078125l0 3.5l-0.875 0l0 -5.8125l0.84375 0l0 0.90625l0.09375 0q0.203125 -0.4375 0.609375 -0.703125q0.421875 -0.28125 1.078125 -0.28125q0.59375 0 1.03125 0.25q0.4375 0.234375 0.6875 0.71875q0.25 0.484375 0.25 1.234375l0 3.6875l-0.890625 0l0 -3.625q0 -0.6875 -0.359375 -1.078125q-0.359375 -0.390625 -0.96875 -0.390625q-0.421875 0 -0.765625 0.1875q-0.34375 0.1875 -0.546875 0.546875q-0.1875 0.359375 -0.1875 0.859375zm7.29126 3.625q-0.828125 0 -1.4375 -0.375q-0.609375 -0.375 -0.9375 -1.046875q-0.328125 -0.671875 -0.328125 -1.5625q0 -0.890625 0.3125 -1.578125q0.328125 -0.6875 0.90625 -1.0625q0.59375 -0.390625 1.375 -0.390625q0.453125 0 0.890625 0.15625q0.453125 0.140625 0.8125 0.484375q0.375 0.34375 0.59375 0.90625q0.21875 0.546875 0.21875 1.359375l0 0.375l-4.484375 0l0 -0.765625l4.0 0l-0.40625 0.296875q0 -0.578125 -0.1875 -1.03125q-0.171875 -0.453125 -0.546875 -0.71875q-0.359375 -0.265625 -0.890625 -0.265625q-0.53125 0 -0.921875 0.265625q-0.375 0.265625 -0.578125 0.6875q-0.203125 0.421875 -0.203125 0.90625l0 0.515625q0 0.65625 0.21875 1.109375q0.234375 0.453125 0.640625 0.703125q0.421875 0.234375 0.953125 0.234375q0.359375 0 0.640625 -0.09375q0.28125 -0.109375 0.484375 -0.3125q0.21875 -0.21875 0.328125 -0.515625l0.859375 0.25q-0.125 0.4375 -0.453125 0.765625q-0.3125 0.328125 -0.796875 0.515625q-0.46875 0.1875 -1.0625 0.1875zm5.681946 0q-0.828125 0 -1.4375 -0.375q-0.609375 -0.375 -0.9375 -1.046875q-0.328125 -0.671875 -0.328125 -1.5625q0 -0.890625 0.3125 -1.578125q0.328125 -0.6875 0.90625 -1.0625q0.59375 -0.390625 1.375 -0.390625q0.453125 0 0.890625 0.15625q0.453125 0.140625 0.8125 0.484375q0.375 0.34375 0.59375 0.90625q0.21875 0.546875 0.21875 1.359375l0 0.375l-4.484375 0l0 -0.765625l4.0 0l-0.40625 0.296875q0 -0.578125 -0.1875 -1.03125q-0.171875 -0.453125 -0.546875 -0.71875q-0.359375 -0.265625 -0.890625 -0.265625q-0.53125 0 -0.921875 0.265625q-0.375 0.265625 -0.578125 0.6875q-0.203125 0.421875 -0.203125 0.90625l0 0.515625q0 0.65625 0.21875 1.109375q0.234375 0.453125 0.640625 0.703125q0.421875 0.234375 0.953125 0.234375q0.359375 0 0.640625 -0.09375q0.28125 -0.109375 0.484375 -0.3125q0.21875 -0.21875 0.328125 -0.515625l0.859375 0.25q-0.125 0.4375 -0.453125 0.765625q-0.3125 0.328125 -0.796875 0.515625q-0.46875 0.1875 -1.0625 0.1875zm3.0881958 -0.125l0 -0.671875l3.296875 -4.25l0 -0.0625l-3.1875 0l0 -0.828125l4.328125 0l0 0.71875l-3.203125 4.203125l0 0.0625l3.3125 0l0 0.828125l-4.546875 0zm7.6069946 1.453125q0.453125 -0.9375 0.734375 -1.71875q0.296875 -0.796875 0.4375 -1.5q0.140625 -0.71875 0.140625 -1.390625q0 -0.75 -0.15625 -1.609375q-0.15625 -0.875 -0.453125 -1.75q-0.296875 -0.890625 -0.703125 -1.703125l0.859375 0q0.40625 0.640625 0.703125 1.515625q0.296875 0.859375 0.46875 1.78125q0.171875 0.921875 0.171875 1.765625q0 1.140625 -0.34375 2.3125q-0.328125 1.171875 -1.0 2.296875l-0.859375 0z" fill-rule="nonzero"/><path fill="#fcb630" d="m85.6625 195.15097l0 0c0 -4.050995 3.2839813 -7.334976 7.334976 -7.334976l29.339005 0l0 0c1.9453583 0 3.8110352 0.77279663 5.1866074 2.1483765c1.3755798 1.3755646 2.1483612 3.2412415 2.1483612 5.1865997l0 40.552917c0 4.050995 -3.2839737 7.334961 -7.3349686 7.334961l-29.339005 0c-4.050995 0 -7.334976 -3.283966 -7.334976 -7.334961z" fill-rule="evenodd"/><path fill="#fcb630" d="m85.6625 116.29764l0 0c0 -4.050995 3.2839813 -7.3349686 7.334976 -7.3349686l29.339005 0l0 0c1.9453583 0 3.8110352 0.772789 5.1866074 2.1483612c1.3755798 1.3755722 2.1483612 3.2412567 2.1483612 5.1866074l0 40.552917c0 4.050995 -3.2839737 7.334961 -7.3349686 7.334961l-29.339005 0c-4.050995 0 -7.334976 -3.283966 -7.334976 -7.334961z" fill-rule="evenodd"/><path fill="#fcb630" d="m80.881805 158.77594l0 0c0 -3.658142 2.9655075 -6.623657 6.6236496 -6.623657l26.493805 0l0 0c1.7566986 0 3.441452 0.69784546 4.6836243 1.940033c1.2421799 1.2421722 1.9400253 2.9269257 1.9400253 4.6836243l0 34.442017c0 3.658142 -2.9655075 6.623657 -6.6236496 6.623657l-26.493805 0c-3.658142 0 -6.6236496 -2.9655151 -6.6236496 -6.623657z" fill-rule="evenodd"/><path fill="#fcb630" d="m80.881805 154.14226l0 0c0 -1.0990295 0.89094543 -1.989975 1.989975 -1.989975l7.9596634 0l0 0c0.527771 0 1.0339279 0.20965576 1.4071198 0.5828552c0.37319183 0.37319946 0.5828552 0.87934875 0.5828552 1.4071198l0 43.70938c0 1.0990295 -0.89094543 1.989975 -1.989975 1.989975l-7.9596634 0c-1.0990295 0 -1.989975 -0.89094543 -1.989975 -1.989975z" fill-rule="evenodd"/><path fill="#fcb630" d="m85.6625 111.525734l0 0c0 -1.4155426 1.147522 -2.5630646 2.5630646 -2.5630646l10.251953 0l0 0c0.6797638 0 1.3316879 0.2700348 1.812355 0.7507019c0.4806671 0.4806671 0.75070953 1.1325912 0.75070953 1.8123627l0 50.096718c0 1.4155426 -1.147522 2.5630646 -2.5630646 2.5630646l-10.251953 0c-1.4155426 0 -2.5630646 -1.147522 -2.5630646 -2.5630646z" fill-rule="evenodd"/><path fill="#fcb630" d="m85.6625 190.37906l0 0c0 -1.4155273 1.147522 -2.5630646 2.5630646 -2.5630646l10.251953 0l0 0c0.6797638 0 1.3316879 0.27005005 1.812355 0.75071716c0.4806671 0.4806671 0.75070953 1.1325836 0.75070953 1.8123474l0 50.096725c0 1.4155426 -1.147522 2.5630646 -2.5630646 2.5630646l-10.251953 0c-1.4155426 0 -2.5630646 -1.147522 -2.5630646 -2.5630646z" fill-rule="evenodd"/><path fill="#fcb630" d="m80.881805 124.43695l0 0c0 -4.3897705 3.558609 -7.9483795 7.9483795 -7.9483795l37.667336 0c2.1080399 0 4.129738 0.8374176 5.6203537 2.3280258c1.4906158 1.4906158 2.3280334 3.5123138 2.3280334 5.6203537l0 31.792572c0 4.3897552 -3.5586243 7.9483795 -7.948387 7.9483795l-37.667336 0c-4.3897705 0 -7.9483795 -3.5586243 -7.9483795 -7.9483795z" fill-rule="evenodd"/><path fill="#fcb630" d="m80.881805 195.76437l0 0c0 -4.3897552 3.558609 -7.9483795 7.9483795 -7.9483795l37.667336 0c2.1080399 0 4.129738 0.8374176 5.6203537 2.3280334c1.4906158 1.4906158 2.3280334 3.5123138 2.3280334 5.620346l0 31.792572c0 4.3897705 -3.5586243 7.9483795 -7.948387 7.9483795l-37.667336 0c-4.3897705 0 -7.9483795 -3.558609 -7.9483795 -7.9483795z" fill-rule="evenodd"/><path fill="#fcb630" d="m107.867714 168.19434l0 0c0 -0.9002228 0.7297745 -1.6300049 1.6299896 -1.6300049l6.519783 0l0 0c0.43229675 0 0.8468933 0.17173767 1.1525803 0.477417c0.30567932 0.30567932 0.47740936 0.7202759 0.47740936 1.1525879l0 15.608398c0 0.9002075 -0.72976685 1.6299896 -1.6299896 1.6299896l-6.519783 0c-0.90021515 0 -1.6299896 -0.7297821 -1.6299896 -1.6299896z" fill-rule="evenodd"/><path fill="#fcb630" d="m113.17184 138.02246l0 0c0 -1.4155426 1.147522 -2.5630646 2.5630646 -2.5630646l10.251953 0l0 0c0.6797638 0 1.3316879 0.2700348 1.812355 0.7507019c0.4806671 0.4806671 0.7507019 1.1325989 0.7507019 1.8123627l0 17.681808c0 1.4155426 -1.1475143 2.5630646 -2.563057 2.5630646l-10.251953 0c-1.4155426 0 -2.5630646 -1.147522 -2.5630646 -2.5630646z" fill-rule="evenodd"/><path fill="#fcb630" d="m113.17184 123.45249l0 0c0 -1.0004272 0.81100464 -1.8114243 1.8114243 -1.8114243l11.755234 0c0.48041534 0 0.9411621 0.19084167 1.2808685 0.5305481c0.33970642 0.33971405 0.5305481 0.8004532 0.5305481 1.2808762l0 7.245476c0 1.0004272 -0.810997 1.8114319 -1.8114166 1.8114319l-11.755234 0c-1.0004196 0 -1.8114243 -0.81100464 -1.8114243 -1.8114319z" fill-rule="evenodd"/><path fill="#fcb630" d="m113.17184 209.35037l0 0c0 -1.4155426 1.147522 -2.5630646 2.5630646 -2.5630646l10.251953 0l0 0c0.6797638 0 1.3316879 0.2700348 1.812355 0.7507019c0.4806671 0.4806671 0.7507019 1.1325989 0.7507019 1.8123627l0 17.681808c0 1.4155426 -1.1475143 2.5630646 -2.563057 2.5630646l-10.251953 0c-1.4155426 0 -2.5630646 -1.147522 -2.5630646 -2.5630646z" fill-rule="evenodd"/><path fill="#fcb630" d="m113.17184 194.7804l0 0c0 -1.000412 0.81100464 -1.8114166 1.8114243 -1.8114166l11.755234 0c0.48041534 0 0.9411621 0.19084167 1.2808685 0.5305481c0.33970642 0.33970642 0.5305481 0.8004608 0.5305481 1.2808685l0 7.2454834c0 1.0004272 -0.810997 1.8114319 -1.8114166 1.8114319l-11.755234 0c-1.0004196 0 -1.8114243 -0.81100464 -1.8114243 -1.8114319z" fill-rule="evenodd"/><path fill="#fcb630" d="m80.881805 120.49444l0 0c0 -2.2123795 1.7934875 -4.005867 4.005867 -4.005867l16.022995 0l0 0c1.0624237 0 2.0813293 0.42205048 2.832573 1.1732941c0.7512512 0.7512436 1.1732941 1.7701492 1.1732941 2.832573l0 39.67759c0 2.212387 -1.7934875 4.0058746 -4.005867 4.0058746l-16.022995 0c-2.2123795 0 -4.005867 -1.7934875 -4.005867 -4.0058746z" fill-rule="evenodd"/><path fill="#fcb630" d="m80.881805 191.82187l0 0c0 -2.2123718 1.7934875 -4.0058746 4.005867 -4.0058746l16.022995 0l0 0c1.0624237 0 2.0813293 0.4220581 2.832573 1.1732941c0.7512512 0.7512512 1.1732941 1.7701569 1.1732941 2.8325806l0 39.67758c0 2.212387 -1.7934875 4.0058746 -4.005867 4.0058746l-16.022995 0c-2.2123795 0 -4.005867 -1.7934875 -4.005867 -4.0058746z" fill-rule="evenodd"/><path fill="#fcb630" d="m218.3397 195.1486l0 0c0 -4.050995 -3.2839813 -7.334976 -7.334976 -7.334976l-29.339005 0l0 0c-1.9453583 0 -3.8110352 0.7727814 -5.186615 2.1483612c-1.3755646 1.3755798 -2.1483612 3.2412567 -2.1483612 5.186615l0 40.552902c0 4.050995 3.2839813 7.334976 7.334976 7.334976l29.339005 0c4.050995 0 7.334976 -3.2839813 7.334976 -7.334976z" fill-rule="evenodd"/><path fill="#fcb630" d="m218.3397 116.29548l0 0c0 -4.050995 -3.2839813 -7.3349686 -7.334976 -7.3349686l-29.339005 0l0 0c-1.9453583 0 -3.8110352 0.772789 -5.186615 2.1483612c-1.3755646 1.3755722 -2.1483612 3.2412567 -2.1483612 5.1866074l0 40.55291c0 4.050995 3.2839813 7.334976 7.334976 7.334976l29.339005 0c4.050995 0 7.334976 -3.2839813 7.334976 -7.334976z" fill-rule="evenodd"/><path fill="#fcb630" d="m223.12039 158.77367l0 0c0 -3.658142 -2.9654999 -6.623657 -6.623642 -6.623657l-26.493805 0l0 0c-1.7566986 0 -3.441452 0.69784546 -4.6836243 1.9400177c-1.2421875 1.2421875 -1.940033 2.9269257 -1.940033 4.6836395l0 34.442017c0 3.658142 2.9655151 6.623657 6.623657 6.623657l26.493805 0c3.658142 0 6.623642 -2.9655151 6.623642 -6.623657z" fill-rule="evenodd"/><path fill="#fcb630" d="m223.12039 154.13998l0 0c0 -1.0990295 -0.89094543 -1.989975 -1.989975 -1.989975l-7.959656 0l0 0c-0.527771 0 -1.0339355 0.20965576 -1.4071198 0.5828552c-0.37319946 0.3731842 -0.5828552 0.87934875 -0.5828552 1.4071198l0 43.70938c0 1.0990295 0.89094543 1.989975 1.989975 1.989975l7.959656 0c1.0990295 0 1.989975 -0.89094543 1.989975 -1.989975z" fill-rule="evenodd"/><path fill="#fcb630" d="m218.3397 111.523575l0 0c0 -1.4155426 -1.147522 -2.5630646 -2.5630646 -2.5630646l-10.251953 0l0 0c-0.6797638 0 -1.3316956 0.2700348 -1.8123627 0.7507019c-0.4806671 0.4806671 -0.7507019 1.1325912 -0.7507019 1.8123627l0 50.096725c0 1.4155426 1.147522 2.5630646 2.5630646 2.5630646l10.251953 0c1.4155426 0 2.5630646 -1.147522 2.5630646 -2.5630646z" fill-rule="evenodd"/><path fill="#fcb630" d="m218.3397 190.3767l0 0c0 -1.4155426 -1.147522 -2.5630646 -2.5630646 -2.5630646l-10.251953 0l0 0c-0.6797638 0 -1.3316956 0.2700348 -1.8123627 0.7507019c-0.4806671 0.4806671 -0.7507019 1.1325989 -0.7507019 1.8123627l0 50.096725c0 1.4155426 1.147522 2.5630646 2.5630646 2.5630646l10.251953 0c1.4155426 0 2.5630646 -1.147522 2.5630646 -2.5630646z" fill-rule="evenodd"/><path fill="#fcb630" d="m223.12039 124.43477l0 0c0 -4.389763 -3.558609 -7.9483795 -7.9483795 -7.9483795l-37.667328 0c-2.1080475 0 -4.1297455 0.8374176 -5.6203613 2.3280258c-1.4906006 1.4906158 -2.3280182 3.5123138 -2.3280182 5.6203537l0 31.792572c0 4.3897705 3.558609 7.9483795 7.9483795 7.9483795l37.667328 0c4.3897705 0 7.9483795 -3.558609 7.9483795 -7.9483795z" fill-rule="evenodd"/><path fill="#fcb630" d="m223.12039 195.76201l0 0c0 -4.3897705 -3.558609 -7.9483795 -7.9483795 -7.9483795l-37.667328 0c-2.1080475 0 -4.1297455 0.8374176 -5.6203613 2.3280182c-1.4906006 1.4906158 -2.3280182 3.5123138 -2.3280182 5.6203613l0 31.792557c0 4.3897705 3.558609 7.9483795 7.9483795 7.9483795l37.667328 0c4.3897705 0 7.9483795 -3.558609 7.9483795 -7.9483795z" fill-rule="evenodd"/><path fill="#fcb630" d="m196.13449 168.19202l0 0c0 -0.9002228 -0.72976685 -1.6299896 -1.6299896 -1.6299896l-6.5197906 0l0 0c-0.43229675 0 -0.8468933 0.17172241 -1.1525726 0.47740173c-0.30567932 0.30569458 -0.477417 0.72029114 -0.477417 1.1525879l0 15.608398c0 0.9002228 0.7297821 1.6299896 1.6299896 1.6299896l6.5197906 0c0.9002228 0 1.6299896 -0.72976685 1.6299896 -1.6299896z" fill-rule="evenodd"/><path fill="#fcb630" d="m190.83037 138.02023l0 0c0 -1.4155426 -1.147522 -2.5630646 -2.5630646 -2.5630646l-10.251953 0l0 0c-0.6797638 0 -1.3316956 0.2700348 -1.8123627 0.7507019c-0.4806671 0.4806671 -0.7507019 1.1325989 -0.7507019 1.8123627l0 17.681808c0 1.4155426 1.147522 2.5630646 2.5630646 2.5630646l10.251953 0c1.4155426 0 2.5630646 -1.147522 2.5630646 -2.5630646z" fill-rule="evenodd"/><path fill="#fcb630" d="m190.83037 123.450294l0 0c0 -1.0004196 -0.81100464 -1.8114243 -1.8114319 -1.8114243l-11.755234 0c-0.4804077 0 -0.9411621 0.1908493 -1.2808685 0.5305557c-0.33970642 0.33970642 -0.5305481 0.80044556 -0.5305481 1.2808685l0 7.245476c0 1.0004272 0.81100464 1.8114319 1.8114166 1.8114319l11.755234 0c1.0004272 0 1.8114319 -0.81100464 1.8114319 -1.8114319z" fill-rule="evenodd"/><path fill="#fcb630" d="m190.83037 209.34795l0 0c0 -1.4155426 -1.147522 -2.5630646 -2.5630646 -2.5630646l-10.251953 0l0 0c-0.6797638 0 -1.3316956 0.2700348 -1.8123627 0.7507019c-0.4806671 0.4806671 -0.7507019 1.1325989 -0.7507019 1.8123627l0 17.681808c0 1.4155426 1.147522 2.5630646 2.5630646 2.5630646l10.251953 0c1.4155426 0 2.5630646 -1.147522 2.5630646 -2.5630646z" fill-rule="evenodd"/><path fill="#fcb630" d="m190.83037 194.77802l0 0c0 -1.0004272 -0.81100464 -1.8114319 -1.8114319 -1.8114319l-11.755234 0c-0.4804077 0 -0.9411621 0.19085693 -1.2808685 0.53056335c-0.33970642 0.33970642 -0.5305481 0.80044556 -0.5305481 1.2808685l0 7.2454834c0 1.000412 0.81100464 1.8114166 1.8114166 1.8114166l11.755234 0c1.0004272 0 1.8114319 -0.81100464 1.8114319 -1.8114166z" fill-rule="evenodd"/><path fill="#fcb630" d="m223.12039 120.49226l0 0c0 -2.212387 -1.7934875 -4.0058746 -4.0058594 -4.0058746l-16.022995 0l0 0c-1.0624237 0 -2.0813293 0.42205048 -2.8325806 1.1732941c-0.75123596 0.7512436 -1.1732941 1.7701569 -1.1732941 2.8325806l0 39.67758c0 2.212387 1.7934875 4.0058746 4.0058746 4.0058746l16.022995 0c2.2123718 0 4.0058594 -1.7934875 4.0058594 -4.0058746z" fill-rule="evenodd"/><path fill="#fcb630" d="m223.12039 191.8195l0 0c0 -2.212387 -1.7934875 -4.0058746 -4.0058594 -4.0058746l-16.022995 0l0 0c-1.0624237 0 -2.0813293 0.42204285 -2.8325806 1.1732941c-0.75123596 0.75123596 -1.1732941 1.7701569 -1.1732941 2.8325806l0 39.67758c0 2.2123718 1.7934875 4.0058594 4.0058746 4.0058594l16.022995 0c2.2123718 0 4.0058594 -1.7934875 4.0058594 -4.0058594z" fill-rule="evenodd"/><path fill="#f73d35" d="m69.6625 179.15097l0 0c0 -4.050995 3.2839813 -7.334976 7.334976 -7.334976l29.339005 0l0 0c1.9453583 0 3.8110352 0.77279663 5.1866074 2.1483765c1.3755722 1.3755646 2.1483612 3.2412415 2.1483612 5.1865997l0 40.552917c0 4.050995 -3.2839737 7.334961 -7.3349686 7.334961l-29.339005 0c-4.050995 0 -7.334976 -3.283966 -7.334976 -7.334961z" fill-rule="evenodd"/><path fill="#f73d35" d="m69.6625 100.29764l0 0c0 -4.050995 3.2839813 -7.3349686 7.334976 -7.3349686l29.339005 0l0 0c1.9453583 0 3.8110352 0.772789 5.1866074 2.1483612c1.3755722 1.3755722 2.1483612 3.2412567 2.1483612 5.1866074l0 40.552917c0 4.050995 -3.2839737 7.334961 -7.3349686 7.334961l-29.339005 0c-4.050995 0 -7.334976 -3.283966 -7.334976 -7.334961z" fill-rule="evenodd"/><path fill="#f73d35" d="m64.881805 142.77594l0 0c0 -3.658142 2.9655075 -6.623657 6.6236496 -6.623657l26.493805 0l0 0c1.7566986 0 3.441452 0.69784546 4.6836243 1.940033c1.2421799 1.2421722 1.9400253 2.9269257 1.9400253 4.6836243l0 34.442017c0 3.658142 -2.9655075 6.623657 -6.6236496 6.623657l-26.493805 0c-3.658142 0 -6.6236496 -2.9655151 -6.6236496 -6.623657z" fill-rule="evenodd"/><path fill="#e03027" d="m64.881805 138.14226l0 0c0 -1.0990295 0.89094543 -1.989975 1.989975 -1.989975l7.9596634 0l0 0c0.527771 0 1.0339279 0.20965576 1.4071198 0.5828552c0.37319183 0.37319946 0.5828552 0.87934875 0.5828552 1.4071198l0 43.70938c0 1.0990295 -0.89094543 1.989975 -1.989975 1.989975l-7.9596634 0c-1.0990295 0 -1.989975 -0.89094543 -1.989975 -1.989975z" fill-rule="evenodd"/><path fill="#e03027" d="m69.6625 95.525734l0 0c0 -1.4155426 1.147522 -2.5630646 2.5630646 -2.5630646l10.251953 0l0 0c0.6797638 0 1.3316879 0.2700348 1.812355 0.7507019c0.4806671 0.4806671 0.75070953 1.1325912 0.75070953 1.8123627l0 50.096718c0 1.4155426 -1.147522 2.5630646 -2.5630646 2.5630646l-10.251953 0c-1.4155426 0 -2.5630646 -1.147522 -2.5630646 -2.5630646z" fill-rule="evenodd"/><path fill="#e03027" d="m69.6625 174.37906l0 0c0 -1.4155273 1.147522 -2.5630646 2.5630646 -2.5630646l10.251953 0l0 0c0.6797638 0 1.3316879 0.27005005 1.812355 0.75071716c0.4806671 0.4806671 0.75070953 1.1325836 0.75070953 1.8123474l0 50.096725c0 1.4155426 -1.147522 2.5630646 -2.5630646 2.5630646l-10.251953 0c-1.4155426 0 -2.5630646 -1.147522 -2.5630646 -2.5630646z" fill-rule="evenodd"/><path fill="#fb5c4e" d="m64.881805 108.43695l0 0c0 -4.3897705 3.558609 -7.9483795 7.9483795 -7.9483795l37.667336 0c2.1080399 0 4.1297455 0.8374176 5.6203537 2.3280258c1.4906082 1.4906158 2.3280258 3.5123138 2.3280258 5.6203537l0 31.792572c0 4.3897552 -3.558609 7.9483795 -7.9483795 7.9483795l-37.667336 0c-4.3897705 0 -7.9483795 -3.5586243 -7.9483795 -7.9483795z" fill-rule="evenodd"/><path fill="#fb5c4e" d="m64.881805 179.76437l0 0c0 -4.3897552 3.558609 -7.9483795 7.9483795 -7.9483795l37.667336 0c2.1080399 0 4.1297455 0.8374176 5.6203537 2.3280334c1.4906082 1.4906158 2.3280258 3.5123138 2.3280258 5.620346l0 31.792572c0 4.3897705 -3.558609 7.9483795 -7.9483795 7.9483795l-37.667336 0c-4.3897705 0 -7.9483795 -3.558609 -7.9483795 -7.9483795z" fill-rule="evenodd"/><path fill="#fb5c4e" d="m91.867714 152.19434l0 0c0 -0.9002228 0.7297745 -1.6300049 1.6299896 -1.6300049l6.519783 0l0 0c0.43229675 0 0.8468933 0.17173767 1.1525803 0.477417c0.30567932 0.30567932 0.47740936 0.7202759 0.47740936 1.1525879l0 15.608398c0 0.9002075 -0.72976685 1.6299896 -1.6299896 1.6299896l-6.519783 0c-0.90021515 0 -1.6299896 -0.7297821 -1.6299896 -1.6299896z" fill-rule="evenodd"/><path fill="#fc8076" d="m97.17184 122.02246l0 0c0 -1.4155426 1.147522 -2.5630646 2.5630646 -2.5630646l10.251953 0l0 0c0.6797638 0 1.3316879 0.2700348 1.812355 0.7507019c0.4806671 0.4806671 0.75070953 1.1325989 0.75070953 1.8123627l0 17.681808c0 1.4155426 -1.147522 2.5630646 -2.5630646 2.5630646l-10.251953 0c-1.4155426 0 -2.5630646 -1.147522 -2.5630646 -2.5630646z" fill-rule="evenodd"/><path fill="#fc8076" d="m97.17184 107.45249l0 0c0 -1.0004272 0.81100464 -1.8114243 1.8114243 -1.8114243l11.755234 0c0.48041534 0 0.9411621 0.19084167 1.2808685 0.5305481c0.33970642 0.33971405 0.5305557 0.8004532 0.5305557 1.2808762l0 7.245476c0 1.0004196 -0.81100464 1.8114243 -1.8114243 1.8114243l-11.755234 0c-1.0004196 0 -1.8114243 -0.81100464 -1.8114243 -1.8114243z" fill-rule="evenodd"/><path fill="#fc8076" d="m97.17184 193.35037l0 0c0 -1.4155426 1.147522 -2.5630646 2.5630646 -2.5630646l10.251953 0l0 0c0.6797638 0 1.3316879 0.2700348 1.812355 0.7507019c0.4806671 0.4806671 0.75070953 1.1325989 0.75070953 1.8123627l0 17.681808c0 1.4155426 -1.147522 2.5630646 -2.5630646 2.5630646l-10.251953 0c-1.4155426 0 -2.5630646 -1.147522 -2.5630646 -2.5630646z" fill-rule="evenodd"/><path fill="#fc8076" d="m97.17184 178.7804l0 0c0 -1.000412 0.81100464 -1.8114166 1.8114243 -1.8114166l11.755234 0c0.48041534 0 0.9411621 0.19084167 1.2808685 0.5305481c0.33970642 0.33970642 0.5305557 0.8004608 0.5305557 1.2808685l0 7.2454834c0 1.0004272 -0.81100464 1.8114319 -1.8114243 1.8114319l-11.755234 0c-1.0004196 0 -1.8114243 -0.81100464 -1.8114243 -1.8114319z" fill-rule="evenodd"/><path fill="#f73d35" d="m64.881805 104.49444l0 0c0 -2.2123795 1.7934875 -4.005867 4.005867 -4.005867l16.022995 0l0 0c1.0624237 0 2.0813293 0.42205048 2.832573 1.1732941c0.7512512 0.7512436 1.1732941 1.7701492 1.1732941 2.832573l0 39.67759c0 2.212387 -1.7934875 4.0058746 -4.005867 4.0058746l-16.022995 0c-2.2123795 0 -4.005867 -1.7934875 -4.005867 -4.0058746z" fill-rule="evenodd"/><path fill="#f73d35" d="m64.881805 175.82187l0 0c0 -2.2123718 1.7934875 -4.0058746 4.005867 -4.0058746l16.022995 0l0 0c1.0624237 0 2.0813293 0.4220581 2.832573 1.1732941c0.7512512 0.7512512 1.1732941 1.7701569 1.1732941 2.8325806l0 39.67758c0 2.212387 -1.7934875 4.0058746 -4.005867 4.0058746l-16.022995 0c-2.2123795 0 -4.005867 -1.7934875 -4.005867 -4.0058746z" fill-rule="evenodd"/><path fill="#f73d35" d="m202.3397 179.1486l0 0c0 -4.050995 -3.2839813 -7.334976 -7.334976 -7.334976l-29.339005 0l0 0c-1.9453583 0 -3.8110352 0.7727814 -5.186615 2.1483612c-1.3755646 1.3755798 -2.1483612 3.2412567 -2.1483612 5.186615l0 40.552902c0 4.050995 3.2839813 7.334976 7.334976 7.334976l29.339005 0c4.050995 0 7.334976 -3.2839813 7.334976 -7.334976z" fill-rule="evenodd"/><path fill="#f73d35" d="m202.3397 100.29548l0 0c0 -4.050995 -3.2839813 -7.3349686 -7.334976 -7.3349686l-29.339005 0l0 0c-1.9453583 0 -3.8110352 0.772789 -5.186615 2.1483612c-1.3755646 1.3755722 -2.1483612 3.2412567 -2.1483612 5.1866074l0 40.55291c0 4.050995 3.2839813 7.334976 7.334976 7.334976l29.339005 0c4.050995 0 7.334976 -3.2839813 7.334976 -7.334976z" fill-rule="evenodd"/><path fill="#f73d35" d="m207.12039 142.77367l0 0c0 -3.658142 -2.9654999 -6.623657 -6.623642 -6.623657l-26.493805 0l0 0c-1.7566986 0 -3.441452 0.69784546 -4.6836243 1.9400177c-1.2421875 1.2421875 -1.940033 2.9269257 -1.940033 4.6836395l0 34.442017c0 3.658142 2.9655151 6.623657 6.623657 6.623657l26.493805 0c3.658142 0 6.623642 -2.9655151 6.623642 -6.623657z" fill-rule="evenodd"/><path fill="#e03027" d="m207.12039 138.13998l0 0c0 -1.0990295 -0.89094543 -1.989975 -1.989975 -1.989975l-7.959656 0l0 0c-0.527771 0 -1.0339355 0.20965576 -1.4071198 0.5828552c-0.37319946 0.3731842 -0.5828552 0.87934875 -0.5828552 1.4071198l0 43.70938c0 1.0990295 0.89094543 1.989975 1.989975 1.989975l7.959656 0c1.0990295 0 1.989975 -0.89094543 1.989975 -1.989975z" fill-rule="evenodd"/><path fill="#e03027" d="m202.3397 95.523575l0 0c0 -1.4155426 -1.147522 -2.5630646 -2.5630646 -2.5630646l-10.251953 0l0 0c-0.6797638 0 -1.3316956 0.2700348 -1.8123627 0.7507019c-0.4806671 0.4806671 -0.7507019 1.1325912 -0.7507019 1.8123627l0 50.096725c0 1.4155426 1.147522 2.5630646 2.5630646 2.5630646l10.251953 0c1.4155426 0 2.5630646 -1.147522 2.5630646 -2.5630646z" fill-rule="evenodd"/><path fill="#e03027" d="m202.3397 174.3767l0 0c0 -1.4155426 -1.147522 -2.5630646 -2.5630646 -2.5630646l-10.251953 0l0 0c-0.6797638 0 -1.3316956 0.2700348 -1.8123627 0.7507019c-0.4806671 0.4806671 -0.7507019 1.1325989 -0.7507019 1.8123627l0 50.096725c0 1.4155426 1.147522 2.5630646 2.5630646 2.5630646l10.251953 0c1.4155426 0 2.5630646 -1.147522 2.5630646 -2.5630646z" fill-rule="evenodd"/><path fill="#fb5c4e" d="m207.12039 108.43477l0 0c0 -4.389763 -3.558609 -7.9483795 -7.9483795 -7.9483795l-37.667328 0c-2.1080475 0 -4.1297455 0.8374176 -5.6203613 2.3280258c-1.4906006 1.4906158 -2.3280182 3.5123138 -2.3280182 5.6203537l0 31.792572c0 4.3897705 3.558609 7.9483795 7.9483795 7.9483795l37.667328 0c4.3897705 0 7.9483795 -3.558609 7.9483795 -7.9483795z" fill-rule="evenodd"/><path fill="#fb5c4e" d="m207.12039 179.76201l0 0c0 -4.3897705 -3.558609 -7.9483795 -7.9483795 -7.9483795l-37.667328 0c-2.1080475 0 -4.1297455 0.8374176 -5.6203613 2.3280182c-1.4906006 1.4906158 -2.3280182 3.5123138 -2.3280182 5.6203613l0 31.792557c0 4.3897705 3.558609 7.9483795 7.9483795 7.9483795l37.667328 0c4.3897705 0 7.9483795 -3.558609 7.9483795 -7.9483795z" fill-rule="evenodd"/><path fill="#fb5c4e" d="m180.13449 152.19202l0 0c0 -0.9002228 -0.72976685 -1.6299896 -1.6299896 -1.6299896l-6.5197906 0l0 0c-0.43229675 0 -0.8468933 0.17172241 -1.1525726 0.47740173c-0.30567932 0.30569458 -0.477417 0.72029114 -0.477417 1.1525879l0 15.608398c0 0.9002228 0.7297821 1.6299896 1.6299896 1.6299896l6.5197906 0c0.9002228 0 1.6299896 -0.72976685 1.6299896 -1.6299896z" fill-rule="evenodd"/><path fill="#fc8076" d="m174.83037 122.02023l0 0c0 -1.4155426 -1.147522 -2.5630646 -2.5630646 -2.5630646l-10.251953 0l0 0c-0.6797638 0 -1.3316956 0.2700348 -1.8123627 0.7507019c-0.4806671 0.4806671 -0.7507019 1.1325912 -0.7507019 1.8123627l0 17.681808c0 1.4155426 1.147522 2.5630646 2.5630646 2.5630646l10.251953 0c1.4155426 0 2.5630646 -1.147522 2.5630646 -2.5630646z" fill-rule="evenodd"/><path fill="#fc8076" d="m174.83037 107.450294l0 0c0 -1.0004196 -0.81100464 -1.8114243 -1.8114319 -1.8114243l-11.755234 0c-0.4804077 0 -0.9411621 0.1908493 -1.2808685 0.5305557c-0.33970642 0.33970642 -0.5305481 0.80044556 -0.5305481 1.2808685l0 7.245476c0 1.0004272 0.81100464 1.8114243 1.8114166 1.8114243l11.755234 0c1.0004272 0 1.8114319 -0.810997 1.8114319 -1.8114243z" fill-rule="evenodd"/><path fill="#fc8076" d="m174.83037 193.34795l0 0c0 -1.4155426 -1.147522 -2.5630646 -2.5630646 -2.5630646l-10.251953 0l0 0c-0.6797638 0 -1.3316956 0.2700348 -1.8123627 0.7507019c-0.4806671 0.4806671 -0.7507019 1.1325989 -0.7507019 1.8123627l0 17.681808c0 1.4155426 1.147522 2.5630646 2.5630646 2.5630646l10.251953 0c1.4155426 0 2.5630646 -1.147522 2.5630646 -2.5630646z" fill-rule="evenodd"/><path fill="#fc8076" d="m174.83037 178.77802l0 0c0 -1.0004272 -0.81100464 -1.8114319 -1.8114319 -1.8114319l-11.755234 0c-0.4804077 0 -0.9411621 0.19085693 -1.2808685 0.53056335c-0.33970642 0.33970642 -0.5305481 0.80044556 -0.5305481 1.2808685l0 7.2454834c0 1.000412 0.81100464 1.8114166 1.8114166 1.8114166l11.755234 0c1.0004272 0 1.8114319 -0.81100464 1.8114319 -1.8114166z" fill-rule="evenodd"/><path fill="#f73d35" d="m207.12039 104.49226l0 0c0 -2.212387 -1.7934875 -4.0058746 -4.0058594 -4.0058746l-16.022995 0l0 0c-1.0624237 0 -2.0813293 0.42205048 -2.8325806 1.1732941c-0.75123596 0.7512436 -1.1732941 1.7701569 -1.1732941 2.8325806l0 39.67758c0 2.212387 1.7934875 4.0058746 4.0058746 4.0058746l16.022995 0c2.2123718 0 4.0058594 -1.7934875 4.0058594 -4.0058746z" fill-rule="evenodd"/><path fill="#f73d35" d="m207.12039 175.8195l0 0c0 -2.212387 -1.7934875 -4.0058746 -4.0058594 -4.0058746l-16.022995 0l0 0c-1.0624237 0 -2.0813293 0.42204285 -2.8325806 1.1732941c-0.75123596 0.75123596 -1.1732941 1.7701569 -1.1732941 2.8325806l0 39.67758c0 2.2123718 1.7934875 4.0058594 4.0058746 4.0058594l16.022995 0c2.2123718 0 4.0058594 -1.7934875 4.0058594 -4.0058594z" fill-rule="evenodd"/></g></svg>