<svg version="1.1" viewBox="0.0 0.0 288.0 384.0" fill="none" stroke="none" stroke-linecap="square" stroke-miterlimit="10" xmlns:xlink="http://www.w3.org/1999/xlink" xmlns="http://www.w3.org/2000/svg"><clipPath id="g3a72db97a13_0_938.0"><path d="m0 0l288.0 0l0 384.0l-288.0 0l0 -384.0z" clip-rule="nonzero"/></clipPath><g clip-path="url(#g3a72db97a13_0_938.0)"><path fill="#161d25" d="m0 0l288.0 0l0 384.0l-288.0 0z" fill-rule="evenodd"/><path fill="#3b4652" d="m5.7007875 34.135216l0 0c0 -9.966135 8.079147 -18.045282 18.04528 -18.045282l240.50787 0c4.7858887 0 9.375793 1.9011936 12.759949 5.2853394c3.3841248 3.3841476 5.2853394 7.9740353 5.2853394 12.759943l0 324.2244c0 9.9661255 -8.079163 18.045288 -18.045288 18.045288l-240.50787 0l0 0c-9.966134 0 -18.04528 -8.079163 -18.04528 -18.045288z" fill-rule="evenodd"/><path stroke="#3b4652" stroke-width="4.0" stroke-linejoin="round" stroke-linecap="butt" d="m5.7007875 34.135216l0 0c0 -9.966135 8.079147 -18.045282 18.04528 -18.045282l240.50787 0c4.7858887 0 9.375793 1.9011936 12.759949 5.2853394c3.3841248 3.3841476 5.2853394 7.9740353 5.2853394 12.759943l0 324.2244c0 9.9661255 -8.079163 18.045288 -18.045288 18.045288l-240.50787 0l0 0c-9.966134 0 -18.04528 -8.079163 -18.04528 -18.045288z" fill-rule="evenodd"/><path fill="#161d25" d="m5.7007875 33.63977l0 0c0 -9.966135 8.079147 -18.045282 18.04528 -18.045282l240.50787 0c4.7858887 0 9.375793 1.9011936 12.759949 5.2853413c3.3841248 3.3841457 5.2853394 7.9740334 5.2853394 12.759941l0 324.2244c0 9.9661255 -8.079163 18.045288 -18.045288 18.045288l-240.50787 0l0 0c-9.966134 0 -18.04528 -8.079163 -18.04528 -18.045288z" fill-rule="evenodd"/><path stroke="#3b4652" stroke-width="4.0" stroke-linejoin="round" stroke-linecap="butt" d="m5.7007875 33.63977l0 0c0 -9.966135 8.079147 -18.045282 18.04528 -18.045282l240.50787 0c4.7858887 0 9.375793 1.9011936 12.759949 5.2853413c3.3841248 3.3841457 5.2853394 7.9740334 5.2853394 12.759941l0 324.2244c0 9.9661255 -8.079163 18.045288 -18.045288 18.045288l-240.50787 0l0 0c-9.966134 0 -18.04528 -8.079163 -18.04528 -18.045288z" fill-rule="evenodd"/><path fill="#000000" fill-opacity="0.0" d="m21.700787 323.7533l266.29922 0l0 38.771637l-266.29922 0z" fill-rule="evenodd"/><path fill="#ffffff" d="m31.825787 348.11328l0 -12.0l3.296875 0l0 9.359375l-0.890625 -0.6875l6.8125 -8.671875l3.5 0l-9.734375 12.0l-2.984375 0zm5.71875 -5.734375l2.4375 -2.015625l4.71875 7.75l-3.765625 0l-3.390625 -5.734375zm7.4010315 -3.40625l3.28125 0l0.59375 3.65625l0 5.484375l-3.265625 0l0 -5.984375l-0.609375 -3.15625zm7.234375 -0.265625q1.3125 0 2.234375 0.53125q0.921875 0.515625 1.40625 1.484375q0.5 0.953125 0.5 2.265625l0 5.125l-3.265625 0l0 -4.640625q0 -1.015625 -0.53125 -1.5625q-0.515625 -0.546875 -1.484375 -0.546875q-0.671875 0 -1.1875 0.296875q-0.5 0.28125 -0.765625 0.8125q-0.265625 0.515625 -0.265625 1.234375l-1.015625 -0.515625q0.1875 -1.46875 0.8125 -2.46875q0.625 -1.0 1.53125 -1.5q0.921875 -0.515625 2.03125 -0.515625zm11.170898 9.65625q-1.65625 0 -2.96875 -0.59375q-1.296875 -0.609375 -2.046875 -1.703125q-0.75 -1.109375 -0.75 -2.5625q0 -1.421875 0.71875 -2.5q0.71875 -1.078125 1.96875 -1.6875q1.265625 -0.609375 2.84375 -0.609375q1.6406288 0 2.7968788 0.71875q1.171875 0.703125 1.796875 2.0q0.640625 1.296875 0.640625 3.0625l-8.125004 0l0 -1.96875l6.281254 0l-1.0625 0.6875q-0.078125 -0.703125 -0.359375 -1.1875q-0.28125 -0.5 -0.765625 -0.75q-0.4687538 -0.265625 -1.1250038 -0.265625q-0.71875 0 -1.234375 0.296875q-0.5 0.28125 -0.796875 0.796875q-0.28125 0.5 -0.28125 1.171875q0 0.859375 0.390625 1.46875q0.390625 0.59375 1.140625 0.921875q0.765625 0.3125 1.8750038 0.3125q1.0 0 2.0 -0.265625q1.0 -0.265625 1.828125 -0.75l0 2.078125q-0.953125 0.640625 -2.171875 0.984375q-1.203125 0.34375 -2.5937538 0.34375zm11.744022 0q-1.65625 0 -2.96875 -0.59375q-1.296875 -0.609375 -2.046875 -1.703125q-0.75 -1.109375 -0.75 -2.5625q0 -1.421875 0.71875 -2.5q0.71875 -1.078125 1.96875 -1.6875q1.265625 -0.609375 2.84375 -0.609375q1.640625 0 2.796875 0.71875q1.171875 0.703125 1.796875 2.0q0.640625 1.296875 0.640625 3.0625l-8.125 0l0 -1.96875l6.28125 0l-1.0625 0.6875q-0.078125 -0.703125 -0.359375 -1.1875q-0.28125 -0.5 -0.765625 -0.75q-0.46875 -0.265625 -1.125 -0.265625q-0.71875 0 -1.234375 0.296875q-0.5 0.28125 -0.796875 0.796875q-0.28125 0.5 -0.28125 1.171875q0 0.859375 0.390625 1.46875q0.390625 0.59375 1.140625 0.921875q0.765625 0.3125 1.875 0.3125q1.0 0 2.0 -0.265625q1.0 -0.265625 1.828125 -0.75l0 2.078125q-0.953125 0.640625 -2.171875 0.984375q-1.203125 0.34375 -2.59375 0.34375z" fill-rule="nonzero"/><path fill="#ffffff" d="m88.97218 344.95703q0 -0.84375 0.171875 -1.765625q0.171875 -0.921875 0.46875 -1.78125q0.3125 -0.875 0.703125 -1.515625l0.859375 0q-0.40625 0.8125 -0.703125 1.703125q-0.296875 0.875 -0.453125 1.75q-0.15625 0.859375 -0.15625 1.609375q0 0.671875 0.140625 1.390625q0.140625 0.703125 0.421875 1.5q0.296875 0.78125 0.75 1.71875l-0.859375 0q-0.671875 -1.125 -1.015625 -2.296875q-0.328125 -1.171875 -0.328125 -2.3125zm6.400543 -0.34375l0 3.5l-0.875 0l0 -5.8125l0.84375 0l0 0.90625l0.09375 0q0.203125 -0.4375 0.609375 -0.703125q0.421875 -0.28125 1.078125 -0.28125q0.59375 0 1.03125 0.25q0.4375 0.234375 0.6875 0.71875q0.25 0.484375 0.25 1.234375l0 3.6875l-0.890625 0l0 -3.625q0 -0.6875 -0.359375 -1.078125q-0.359375 -0.390625 -0.96875 -0.390625q-0.421875 0 -0.765625 0.1875q-0.34375 0.1875 -0.546875 0.546875q-0.1875 0.359375 -0.1875 0.859375zm7.29126 3.625q-0.828125 0 -1.4375 -0.375q-0.609375 -0.375 -0.9375 -1.046875q-0.328125 -0.671875 -0.328125 -1.5625q0 -0.890625 0.3125 -1.578125q0.328125 -0.6875 0.90625 -1.0625q0.59375 -0.390625 1.375 -0.390625q0.453125 0 0.890625 0.15625q0.453125 0.140625 0.8125 0.484375q0.375 0.34375 0.59375 0.90625q0.21875 0.546875 0.21875 1.359375l0 0.375l-4.484375 0l0 -0.765625l4.0 0l-0.40625 0.296875q0 -0.578125 -0.1875 -1.03125q-0.171875 -0.453125 -0.546875 -0.71875q-0.359375 -0.265625 -0.890625 -0.265625q-0.53125 0 -0.921875 0.265625q-0.375 0.265625 -0.578125 0.6875q-0.203125 0.421875 -0.203125 0.90625l0 0.515625q0 0.65625 0.21875 1.109375q0.234375 0.453125 0.640625 0.703125q0.421875 0.234375 0.953125 0.234375q0.359375 0 0.640625 -0.09375q0.28125 -0.109375 0.484375 -0.3125q0.21875 -0.21875 0.328125 -0.515625l0.859375 0.25q-0.125 0.4375 -0.453125 0.765625q-0.3125 0.328125 -0.796875 0.515625q-0.46875 0.1875 -1.0625 0.1875zm5.681946 0q-0.828125 0 -1.4375 -0.375q-0.609375 -0.375 -0.9375 -1.046875q-0.328125 -0.671875 -0.328125 -1.5625q0 -0.890625 0.3125 -1.578125q0.328125 -0.6875 0.90625 -1.0625q0.59375 -0.390625 1.375 -0.390625q0.453125 0 0.890625 0.15625q0.453125 0.140625 0.8125 0.484375q0.375 0.34375 0.59375 0.90625q0.21875 0.546875 0.21875 1.359375l0 0.375l-4.484375 0l0 -0.765625l4.0 0l-0.40625 0.296875q0 -0.578125 -0.1875 -1.03125q-0.171875 -0.453125 -0.546875 -0.71875q-0.359375 -0.265625 -0.890625 -0.265625q-0.53125 0 -0.921875 0.265625q-0.375 0.265625 -0.578125 0.6875q-0.203125 0.421875 -0.203125 0.90625l0 0.515625q0 0.65625 0.21875 1.109375q0.234375 0.453125 0.640625 0.703125q0.421875 0.234375 0.953125 0.234375q0.359375 0 0.640625 -0.09375q0.28125 -0.109375 0.484375 -0.3125q0.21875 -0.21875 0.328125 -0.515625l0.859375 0.25q-0.125 0.4375 -0.453125 0.765625q-0.3125 0.328125 -0.796875 0.515625q-0.46875 0.1875 -1.0625 0.1875zm5.4295044 1.328125q0.453125 -0.9375 0.734375 -1.71875q0.296875 -0.796875 0.4375 -1.5q0.140625 -0.71875 0.140625 -1.390625q0 -0.75 -0.15625 -1.609375q-0.15625 -0.875 -0.453125 -1.75q-0.296875 -0.890625 -0.703125 -1.703125l0.859375 0q0.40625 0.640625 0.703125 1.515625q0.296875 0.859375 0.46875 1.78125q0.171875 0.921875 0.171875 1.765625q0 1.140625 -0.34375 2.3125q-0.328125 1.171875 -1.0 2.296875l-0.859375 0z" fill-rule="nonzero"/><path fill="#3b4652" d="m121.9206 172.63493l0 0c0 -3.2172852 2.608139 -5.825424 5.825432 -5.825424l48.518555 0c1.5449982 0 3.0267181 0.6137543 4.1192017 1.7062378c1.0924835 1.0924683 1.7062225 2.5741882 1.7062225 4.1191864l0 23.301025c0 3.2172852 -2.6081238 5.825424 -5.825424 5.825424l-48.518555 0c-3.2172928 0 -5.825432 -2.608139 -5.825432 -5.825424z" fill-rule="evenodd"/><path fill="#3b4652" d="m121.92093 171.74733l0 0c0 -2.727066 2.2107239 -4.93779 4.9377975 -4.93779l19.750603 0l0 0c1.3095856 0 2.5655365 0.5202179 3.4915466 1.4462433c0.9260254 0.92601013 1.4462585 2.181961 1.4462585 3.4915466l0 25.076263c0 2.7270813 -2.2107391 4.937805 -4.937805 4.937805l-19.750603 0c-2.7270737 0 -4.9377975 -2.2107239 -4.9377975 -4.937805z" fill-rule="evenodd"/><path fill="#3b4652" d="m137.18628 94.55787l0 0c0 -2.7270737 2.2107239 -4.9377975 4.93779 -4.9377975l19.75061 0l0 0c1.3095856 0 2.5655365 0.5202255 3.491562 1.4462433c0.92601013 0.92601776 1.4462433 2.1819687 1.4462433 3.4915543l0 30.401932c0 2.7270737 -2.2107239 4.9377975 -4.937805 4.9377975l-19.75061 0c-2.727066 0 -4.93779 -2.2107239 -4.93779 -4.9377975z" fill-rule="evenodd"/><path fill="#3b4652" d="m118.12952 142.58264l0 0c0 -3.2173004 2.6081314 -5.825424 5.825424 -5.825424l56.101456 0c1.5449982 0 3.0267181 0.613739 4.1192017 1.7062225c1.0924683 1.0924835 1.7062225 2.5742035 1.7062225 4.1192017l0 23.30101c0 3.2173004 -2.608139 5.825424 -5.825424 5.825424l-56.101456 0c-3.2172928 0 -5.825424 -2.6081238 -5.825424 -5.825424z" fill-rule="evenodd"/><path fill="#3b4652" d="m192.73395 140.35475l0 0c0 -1.9868622 1.610672 -3.5975342 3.5975494 -3.5975342l14.389725 0l0 0c0.9541168 0 1.8691711 0.37902832 2.5438385 1.0536957c0.67466736 0.67466736 1.0536957 1.5897217 1.0536957 2.5438385l0 40.63008c0 1.9868622 -1.610672 3.5975342 -3.5975342 3.5975342l-14.389725 0c-1.9868774 0 -3.5975494 -1.610672 -3.5975494 -3.5975342z" fill-rule="evenodd"/><path fill="#3b4652" d="m89.67959 140.35475l0 0c0 -1.9868622 1.610672 -3.5975342 3.5975342 -3.5975342l14.389732 0l0 0c0.95412445 0 1.8691711 0.37902832 2.5438385 1.0536957c0.674675 0.67466736 1.0536957 1.5897217 1.0536957 2.5438385l0 40.63008c0 1.9868622 -1.610672 3.5975342 -3.5975342 3.5975342l-14.389732 0c-1.9868622 0 -3.5975342 -1.610672 -3.5975342 -3.5975342z" fill-rule="evenodd"/><path fill="#3b4652" d="m121.92088 212.6751l0 0c0 -2.2400818 1.8159561 -4.0560455 4.056053 -4.0560455l16.223701 0l0 0c1.0757446 0 2.1074066 0.42733765 2.8680725 1.1879883c0.76065063 0.7606659 1.1879883 1.7923279 1.1879883 2.8680573l0 61.65056c0 2.2401123 -1.8159637 4.056061 -4.056061 4.056061l-16.223701 0c-2.240097 0 -4.056053 -1.8159485 -4.056053 -4.056061z" fill-rule="evenodd"/><path fill="#3b4652" d="m157.74472 212.6751l0 0c0 -2.2400818 1.8159485 -4.0560455 4.0560455 -4.0560455l16.22371 0l0 0c1.0757294 0 2.1074066 0.42733765 2.8680573 1.1879883c0.7606659 0.7606659 1.1879883 1.7923279 1.1879883 2.8680573l0 61.65056c0 2.2401123 -1.8159485 4.056061 -4.0560455 4.056061l-16.22371 0c-2.240097 0 -4.0560455 -1.8159485 -4.0560455 -4.056061z" fill-rule="evenodd"/><path fill="#3b4652" d="m192.73546 191.2394l0 0c0 -1.1589966 0.93955994 -2.0985565 2.0985565 -2.0985565l17.38768 0c0.5565796 0 1.0903473 0.22109985 1.483902 0.61465454c0.39356995 0.3935547 0.6146698 0.92733765 0.6146698 1.483902l0 8.394012c0 1.1590118 -0.93955994 2.0985718 -2.0985718 2.0985718l-17.38768 0c-1.1589966 0 -2.0985565 -0.93955994 -2.0985565 -2.0985718z" fill-rule="evenodd"/><path fill="#3b4652" d="m89.67959 191.2394l0 0c0 -1.1589966 0.93955994 -2.0985565 2.0985641 -2.0985565l17.387672 0c0.5565796 0 1.0903549 0.22109985 1.4839096 0.61465454c0.39356232 0.3935547 0.61465454 0.92733765 0.61465454 1.483902l0 8.394012c0 1.1590118 -0.93955994 2.0985718 -2.0985641 2.0985718l-17.387672 0c-1.1590042 0 -2.0985641 -0.93955994 -2.0985641 -2.0985718z" fill-rule="evenodd"/><path fill="#3b4652" d="m89.67959 138.3386l0 0c0 -0.8733063 0.7079544 -1.5812683 1.5812683 -1.5812683l6.324898 0l0 0c0.4193802 0 0.821579 0.16659546 1.1181259 0.46315002c0.29654694 0.2965393 0.4631424 0.6987457 0.4631424 1.1181183l0 44.66263c0 0.8733063 -0.7079544 1.5812683 -1.5812683 1.5812683l-6.324898 0c-0.8733139 0 -1.5812683 -0.70796204 -1.5812683 -1.5812683z" fill-rule="evenodd"/><path fill="#3b4652" d="m192.74461 138.3386l0 0c0 -0.8733063 0.70796204 -1.5812683 1.5812683 -1.5812683l6.3249054 0l0 0c0.41937256 0 0.821579 0.16659546 1.1181183 0.46315002c0.29655457 0.2965393 0.46315002 0.6987457 0.46315002 1.1181183l0 44.66263c0 0.8733063 -0.70796204 1.5812683 -1.5812683 1.5812683l-6.3249054 0c-0.8733063 0 -1.5812683 -0.70796204 -1.5812683 -1.5812683z" fill-rule="evenodd"/><path fill="#3b4652" d="m118.12958 141.69513l0 0c0 -2.727066 2.2107239 -4.937805 4.9377975 -4.937805l19.750603 0l0 0c1.3095856 0 2.5655365 0.52023315 3.491562 1.4462585c0.92601013 0.92601013 1.4462433 2.181961 1.4462433 3.4915466l0 25.076263c0 2.7270813 -2.2107239 4.937805 -4.937805 4.937805l-19.750603 0c-2.7270737 0 -4.9377975 -2.2107239 -4.9377975 -4.937805z" fill-rule="evenodd"/><path fill="#3b4652" d="m121.92106 210.47588l0 0c0 -1.0259094 0.8316498 -1.8575592 1.8575516 -1.8575592l7.4299927 0l0 0c0.49264526 0 0.9651184 0.19570923 1.3134918 0.5440674c0.34835815 0.34835815 0.5440521 0.8208313 0.5440521 1.3134918l0 66.04753c0 1.0259094 -0.8316498 1.8575745 -1.857544 1.8575745l-7.4299927 0c-1.0259018 0 -1.8575516 -0.83166504 -1.8575516 -1.8575745z" fill-rule="evenodd"/><path fill="#3b4652" d="m157.74387 210.47588l0 0c0 -1.0259094 0.83166504 -1.8575592 1.8575592 -1.8575592l7.4299927 0l0 0c0.49264526 0 0.96513367 0.19570923 1.3134918 0.5440674c0.34835815 0.34835815 0.5440521 0.8208313 0.5440521 1.3134918l0 66.04753c0 1.0259094 -0.8316498 1.8575745 -1.857544 1.8575745l-7.4299927 0c-1.0258942 0 -1.8575592 -0.83166504 -1.8575592 -1.8575745z" fill-rule="evenodd"/><path fill="#3b4652" d="m137.18596 91.77154l0 0c0 -1.1882248 0.96325684 -2.1514664 2.151474 -2.1514664l8.605621 0l0 0c0.5706024 0 1.1178436 0.22666931 1.5213165 0.63014984c0.40348816 0.40348053 0.6301575 0.9507141 0.6301575 1.5213165l0 35.974594c0 1.1882248 -0.9632416 2.1514664 -2.151474 2.1514664l-8.605621 0c-1.1882172 0 -2.151474 -0.9632416 -2.151474 -2.1514664z" fill-rule="evenodd"/><path fill="#3b4652" d="m121.92171 240.77359l0 0c0 -1.1590118 0.93955994 -2.0985718 2.0985641 -2.0985718l20.13868 0c0.5565796 0 1.0903625 0.22109985 1.4839172 0.61465454c0.3935547 0.39356995 0.61465454 0.92733765 0.61465454 1.4839172l0 8.394012c0 1.1589966 -0.93955994 2.0985565 -2.0985718 2.0985565l-20.13868 0l0 0c-1.1590042 0 -2.0985641 -0.93955994 -2.0985641 -2.0985565z" fill-rule="evenodd"/><path fill="#3b4652" d="m157.74355 240.77359l0 0c0 -1.1590118 0.93955994 -2.0985718 2.0985718 -2.0985718l20.138687 0c0.55656433 0 1.0903473 0.22109985 1.483902 0.61465454c0.3935547 0.39356995 0.61465454 0.92733765 0.61465454 1.4839172l0 8.394012c0 1.1589966 -0.93955994 2.0985565 -2.0985565 2.0985565l-20.138687 0l0 0c-1.1590118 0 -2.0985718 -0.93955994 -2.0985718 -2.0985565z" fill-rule="evenodd"/><path fill="#e7f2ff" d="m105.9206 156.63493l0 0c0 -3.2172852 2.608139 -5.825424 5.825432 -5.825424l48.518555 0c1.5449982 0 3.0267181 0.6137543 4.1192017 1.7062378c1.0924835 1.0924683 1.7062225 2.5741882 1.7062225 4.1191864l0 23.301025c0 3.2172852 -2.6081238 5.825424 -5.825424 5.825424l-48.518555 0c-3.2172928 0 -5.825432 -2.608139 -5.825432 -5.825424z" fill-rule="evenodd"/><path fill="#d1e8ff" d="m105.92093 155.74733l0 0c0 -2.727066 2.2107239 -4.93779 4.9377975 -4.93779l19.750603 0l0 0c1.3095856 0 2.5655365 0.5202179 3.4915466 1.4462433c0.9260254 0.92601013 1.4462585 2.181961 1.4462585 3.4915466l0 25.076263c0 2.7270813 -2.2107391 4.937805 -4.937805 4.937805l-19.750603 0c-2.7270737 0 -4.9377975 -2.2107239 -4.9377975 -4.937805z" fill-rule="evenodd"/><path fill="#f3f8fe" d="m121.18628 78.55787l0 0c0 -2.7270737 2.2107239 -4.9377975 4.9377975 -4.9377975l19.750603 0l0 0c1.3095856 0 2.5655365 0.5202255 3.491562 1.4462433c0.92601013 0.92601776 1.4462433 2.1819687 1.4462433 3.4915543l0 30.401932c0 2.7270737 -2.2107239 4.9377975 -4.937805 4.9377975l-19.750603 0c-2.7270737 0 -4.9377975 -2.2107239 -4.9377975 -4.9377975z" fill-rule="evenodd"/><path fill="#f3f8fe" d="m102.12952 126.58264l0 0c0 -3.2172928 2.6081314 -5.825424 5.825424 -5.825424l56.101456 0c1.5449982 0 3.0267181 0.61374664 4.1192017 1.7062225c1.0924683 1.0924835 1.7062225 2.5742035 1.7062225 4.1192017l0 23.30101c0 3.2173004 -2.608139 5.825424 -5.825424 5.825424l-56.101456 0c-3.2172928 0 -5.825424 -2.6081238 -5.825424 -5.825424z" fill-rule="evenodd"/><path fill="#e7f2ff" d="m176.73395 124.35475l0 0c0 -1.9868622 1.610672 -3.5975342 3.5975494 -3.5975342l14.389725 0l0 0c0.9541168 0 1.8691711 0.3790207 2.5438385 1.0536957c0.67466736 0.67466736 1.0536957 1.589714 1.0536957 2.5438385l0 40.63008c0 1.9868622 -1.610672 3.5975342 -3.5975342 3.5975342l-14.389725 0c-1.9868774 0 -3.5975494 -1.610672 -3.5975494 -3.5975342z" fill-rule="evenodd"/><path fill="#e7f2ff" d="m73.67959 124.35475l0 0c0 -1.9868622 1.610672 -3.5975342 3.5975342 -3.5975342l14.389732 0l0 0c0.95412445 0 1.8691711 0.3790207 2.5438385 1.0536957c0.674675 0.67466736 1.0536957 1.589714 1.0536957 2.5438385l0 40.63008c0 1.9868622 -1.610672 3.5975342 -3.5975342 3.5975342l-14.389732 0c-1.9868622 0 -3.5975342 -1.610672 -3.5975342 -3.5975342z" fill-rule="evenodd"/><path fill="#d1e8ff" d="m105.92088 196.6751l0 0c0 -2.2400818 1.8159561 -4.0560455 4.056053 -4.0560455l16.22371 0l0 0c1.0757294 0 2.107399 0.42733765 2.8680649 1.1879883c0.76065063 0.7606659 1.1879883 1.7923279 1.1879883 2.8680573l0 61.65056c0 2.2401123 -1.8159637 4.056061 -4.056053 4.056061l-16.22371 0c-2.240097 0 -4.056053 -1.8159485 -4.056053 -4.056061z" fill-rule="evenodd"/><path fill="#d1e8ff" d="m141.74472 196.6751l0 0c0 -2.2400818 1.8159485 -4.0560455 4.0560455 -4.0560455l16.22371 0l0 0c1.0757294 0 2.1074066 0.42733765 2.8680573 1.1879883c0.7606659 0.7606659 1.1879883 1.7923279 1.1879883 2.8680573l0 61.65056c0 2.2401123 -1.8159485 4.056061 -4.0560455 4.056061l-16.22371 0c-2.240097 0 -4.0560455 -1.8159485 -4.0560455 -4.056061z" fill-rule="evenodd"/><path fill="#d1e8ff" d="m176.73546 175.2394l0 0c0 -1.1589966 0.93955994 -2.0985565 2.0985565 -2.0985565l17.38768 0c0.5565796 0 1.0903473 0.22109985 1.483902 0.61465454c0.39356995 0.3935547 0.6146698 0.92733765 0.6146698 1.483902l0 8.394012c0 1.1590118 -0.93955994 2.0985718 -2.0985718 2.0985718l-17.38768 0c-1.1589966 0 -2.0985565 -0.93955994 -2.0985565 -2.0985718z" fill-rule="evenodd"/><path fill="#d1e8ff" d="m73.67959 175.2394l0 0c0 -1.1589966 0.93955994 -2.0985565 2.0985641 -2.0985565l17.387672 0c0.5565796 0 1.0903549 0.22109985 1.4839096 0.61465454c0.39356232 0.3935547 0.61465454 0.92733765 0.61465454 1.483902l0 8.394012c0 1.1590118 -0.93955994 2.0985718 -2.0985641 2.0985718l-17.387672 0c-1.1590042 0 -2.0985641 -0.93955994 -2.0985641 -2.0985718z" fill-rule="evenodd"/><path fill="#d1e8ff" d="m73.67959 122.3386l0 0c0 -0.8733139 0.7079544 -1.5812759 1.5812683 -1.5812759l6.324898 0l0 0c0.4193802 0 0.821579 0.16660309 1.1181259 0.46315002c0.29654694 0.2965393 0.4631424 0.6987457 0.4631424 1.1181259l0 44.66262c0 0.8733063 -0.7079544 1.5812683 -1.5812683 1.5812683l-6.324898 0c-0.8733139 0 -1.5812683 -0.70796204 -1.5812683 -1.5812683z" fill-rule="evenodd"/><path fill="#d1e8ff" d="m176.74461 122.3386l0 0c0 -0.8733139 0.70796204 -1.5812759 1.5812683 -1.5812759l6.3249054 0l0 0c0.41937256 0 0.821579 0.16660309 1.1181183 0.46315002c0.29655457 0.2965393 0.46315002 0.6987457 0.46315002 1.1181259l0 44.66262c0 0.8733063 -0.70796204 1.5812683 -1.5812683 1.5812683l-6.3249054 0c-0.8733063 0 -1.5812683 -0.70796204 -1.5812683 -1.5812683z" fill-rule="evenodd"/><path fill="#e7f2ff" d="m102.12958 125.69513l0 0c0 -2.7270737 2.2107239 -4.937805 4.9377975 -4.937805l19.75061 0l0 0c1.309578 0 2.5655289 0.52023315 3.4915543 1.4462509c0.92601013 0.92601776 1.4462433 2.1819687 1.4462433 3.4915543l0 25.076263c0 2.7270813 -2.2107239 4.937805 -4.9377975 4.937805l-19.75061 0c-2.7270737 0 -4.9377975 -2.2107239 -4.9377975 -4.937805z" fill-rule="evenodd"/><path fill="#a6d3ff" d="m105.92106 194.47588l0 0c0 -1.0259094 0.8316498 -1.8575592 1.8575516 -1.8575592l7.4299927 0l0 0c0.4926529 0 0.96512604 0.19570923 1.3134842 0.5440674c0.34835815 0.34835815 0.5440674 0.8208313 0.5440674 1.3134918l0 66.04753c0 1.0259094 -0.8316574 1.8575745 -1.8575516 1.8575745l-7.4299927 0c-1.0259018 0 -1.8575516 -0.83166504 -1.8575516 -1.8575745z" fill-rule="evenodd"/><path fill="#a6d3ff" d="m141.74387 194.47588l0 0c0 -1.0259094 0.83166504 -1.8575592 1.8575592 -1.8575592l7.4299927 0l0 0c0.49264526 0 0.96513367 0.19570923 1.3134918 0.5440674c0.34835815 0.34835815 0.5440521 0.8208313 0.5440521 1.3134918l0 66.04753c0 1.0259094 -0.8316498 1.8575745 -1.857544 1.8575745l-7.4299927 0c-1.0258942 0 -1.8575592 -0.83166504 -1.8575592 -1.8575745z" fill-rule="evenodd"/><path fill="#e7f2ff" d="m121.18597 75.77154l0 0c0 -1.1882248 0.9632416 -2.1514664 2.1514664 -2.1514664l8.605621 0l0 0c0.5706024 0 1.1178436 0.22666931 1.5213165 0.63014984c0.40348816 0.40348053 0.6301575 0.9507141 0.6301575 1.5213165l0 35.974594c0 1.1882248 -0.9632416 2.1514664 -2.151474 2.1514664l-8.605621 0c-1.1882248 0 -2.1514664 -0.9632416 -2.1514664 -2.1514664z" fill-rule="evenodd"/><path fill="#2563eb" d="m105.92171 224.77359l0 0c0 -1.1590118 0.93955994 -2.0985718 2.0985641 -2.0985718l20.13868 0c0.5565796 0 1.0903625 0.22109985 1.4839172 0.61465454c0.3935547 0.39356995 0.61465454 0.92733765 0.61465454 1.4839172l0 8.394012c0 1.1589966 -0.93955994 2.0985565 -2.0985718 2.0985565l-20.13868 0l0 0c-1.1590042 0 -2.0985641 -0.93955994 -2.0985641 -2.0985565z" fill-rule="evenodd"/><path fill="#2563eb" d="m141.74355 224.77359l0 0c0 -1.1590118 0.93955994 -2.0985718 2.0985718 -2.0985718l20.138687 0c0.55656433 0 1.0903473 0.22109985 1.483902 0.61465454c0.3935547 0.39356995 0.61465454 0.92733765 0.61465454 1.4839172l0 8.394012c0 1.1589966 -0.93955994 2.0985565 -2.0985565 2.0985565l-20.138687 0l0 0c-1.1590118 0 -2.0985718 -0.93955994 -2.0985718 -2.0985565z" fill-rule="evenodd"/></g></svg>