<svg version="1.1" viewBox="0.0 0.0 288.0 384.0" fill="none" stroke="none" stroke-linecap="square" stroke-miterlimit="10" xmlns:xlink="http://www.w3.org/1999/xlink" xmlns="http://www.w3.org/2000/svg"><clipPath id="g3a6f757e31a_0_1160.0"><path d="m0 0l288.0 0l0 384.0l-288.0 0l0 -384.0z" clip-rule="nonzero"/></clipPath><g clip-path="url(#g3a6f757e31a_0_1160.0)"><path fill="#161d25" d="m0 0l288.0 0l0 384.0l-288.0 0z" fill-rule="evenodd"/><path fill="#fcb630" d="m5.7007875 34.135216l0 0c0 -9.966135 8.079147 -18.045282 18.04528 -18.045282l240.50787 0c4.7858887 0 9.375793 1.9011936 12.759949 5.2853394c3.3841248 3.3841476 5.2853394 7.9740353 5.2853394 12.759943l0 324.2244c0 9.9661255 -8.079163 18.045288 -18.045288 18.045288l-240.50787 0l0 0c-9.966134 0 -18.04528 -8.079163 -18.04528 -18.045288z" fill-rule="evenodd"/><path stroke="#fcb630" stroke-width="4.0" stroke-linejoin="round" stroke-linecap="butt" d="m5.7007875 34.135216l0 0c0 -9.966135 8.079147 -18.045282 18.04528 -18.045282l240.50787 0c4.7858887 0 9.375793 1.9011936 12.759949 5.2853394c3.3841248 3.3841476 5.2853394 7.9740353 5.2853394 12.759943l0 324.2244c0 9.9661255 -8.079163 18.045288 -18.045288 18.045288l-240.50787 0l0 0c-9.966134 0 -18.04528 -8.079163 -18.04528 -18.045288z" fill-rule="evenodd"/><path fill="#6a490b" d="m5.7007875 25.639769l0 0c0 -9.966133 8.079147 -18.04528 18.04528 -18.04528l240.50787 0c4.7858887 0 9.375793 1.9011936 12.759949 5.2853403c3.3841248 3.3841467 5.2853394 7.9740343 5.2853394 12.75994l0 324.2244c0 9.9661255 -8.079163 18.045288 -18.045288 18.045288l-240.50787 0l0 0c-9.966134 0 -18.04528 -8.079163 -18.04528 -18.045288z" fill-rule="evenodd"/><path stroke="#fcb630" stroke-width="4.0" stroke-linejoin="round" stroke-linecap="butt" d="m5.7007875 25.639769l0 0c0 -9.966133 8.079147 -18.04528 18.04528 -18.04528l240.50787 0c4.7858887 0 9.375793 1.9011936 12.759949 5.2853403c3.3841248 3.3841467 5.2853394 7.9740343 5.2853394 12.75994l0 324.2244c0 9.9661255 -8.079163 18.045288 -18.045288 18.045288l-240.50787 0l0 0c-9.966134 0 -18.04528 -8.079163 -18.04528 -18.045288z" fill-rule="evenodd"/><path fill="#fcb630" d="m120.13676 92.94615l0 0c0 -4.257454 3.4513474 -7.7088013 7.7088013 -7.7088013l62.13575 0c2.0444946 0 4.0052643 0.81217957 5.450943 2.2578583c1.4456787 1.4456787 2.2578583 3.4064407 2.2578583 5.450943l0 30.834267c0 4.257454 -3.451355 7.708809 -7.7088013 7.708809l-62.13575 0c-4.257454 0 -7.7088013 -3.451355 -7.7088013 -7.708809z" fill-rule="evenodd"/><path fill="#fcb630" d="m132.73662 229.64189l0 0c0 -1.981369 1.6062317 -3.5876007 3.5876007 -3.5876007l14.349945 0l0 0c0.95147705 0 1.8639984 0.37797546 2.5368042 1.0507812c0.6728058 0.6728058 1.0507812 1.5853271 1.0507812 2.5368195l0 33.502457c0 1.9813538 -1.6062164 3.5875854 -3.5875854 3.5875854l-14.349945 0c-1.981369 0 -3.5876007 -1.6062317 -3.5876007 -3.5875854z" fill-rule="evenodd"/><path fill="#fcb630" d="m132.73662 228.37932l0 0c0 -1.2840729 1.0409546 -2.3250275 2.3250275 -2.3250275l9.299835 0l0 0c0.6166382 0 1.2080078 0.2449646 1.644043 0.6809845c0.4360199 0.43603516 0.6809845 1.02742 0.6809845 1.644043l0 36.027573c0 1.2840881 -1.0409546 2.3250427 -2.3250275 2.3250427l-9.299835 0c-1.2840729 0 -2.3250275 -1.0409546 -2.3250275 -2.3250427z" fill-rule="evenodd"/><path fill="#fcb630" d="m146.057 238.45801l0 0c0 -0.755188 0.6121979 -1.3673859 1.3673859 -1.3673859l5.4693604 0l0 0c0.36265564 0 0.7104492 0.14405823 0.9668884 0.40049744c0.25642395 0.2564392 0.40049744 0.6042328 0.40049744 0.9668884l0 26.937317c0 0.755188 -0.6121979 1.3674011 -1.3673859 1.3674011l-5.4693604 0c-0.755188 0 -1.3673859 -0.61221313 -1.3673859 -1.3674011z" fill-rule="evenodd"/><path fill="#fcb630" d="m98.11351 178.40927l0 0c0 -5.565201 4.5114975 -10.076706 10.076706 -10.076706l75.15173 0c2.6725159 0 5.235565 1.0616608 7.125305 2.9514008c1.8897552 1.8897552 2.9514008 4.4528046 2.9514008 7.125305l0 40.30562c0 5.565216 -4.51149 10.076706 -10.076706 10.076706l-75.15173 0c-5.5652084 0 -10.076706 -4.51149 -10.076706 -10.076706z" fill-rule="evenodd"/><path fill="#fcb630" d="m136.26056 169.62665l0 0c0 -5.262619 4.2661896 -9.528809 9.528809 -9.528809l38.114044 0l0 0c2.5272064 0 4.950882 1.0039215 6.7378845 2.790924c1.7870026 1.7870026 2.790924 4.210678 2.790924 6.7378845l0 49.66272c0 5.262619 -4.2661896 9.528809 -9.528809 9.528809l-38.114044 0c-5.262619 0 -9.528809 -4.2661896 -9.528809 -9.528809z" fill-rule="evenodd"/><path fill="#fcb630" d="m120.13676 91.95039l0 0c0 -3.707512 3.0055313 -6.713043 6.713043 -6.713043l26.851357 0l0 0c1.7803955 0 3.4878845 0.70726776 4.746826 1.9662018c1.2589417 1.2589417 1.9662018 2.9664307 1.9662018 4.7468414l0 32.82579c0 3.7075043 -3.0055237 6.713043 -6.713028 6.713043l-26.851357 0c-3.707512 0 -6.713043 -3.005539 -6.713043 -6.713043z" fill-rule="evenodd"/><path fill="#fcb630" d="m89.89709 130.43599l0 0c0 -5.9335938 4.8101273 -10.743721 10.743721 -10.743721l102.71797 0c2.849411 0 5.582123 1.1319275 7.5969543 3.1467667c2.0148468 2.0148392 3.1467743 4.7475433 3.1467743 7.5969543l0 42.973602c0 5.9335938 -4.810135 10.743713 -10.743729 10.743713l-102.71797 0c-5.9335938 0 -10.743721 -4.8101196 -10.743721 -10.743713z" fill-rule="evenodd"/><path fill="#fcb630" d="m112.50552 193.038l0 0c0 -0.92884827 0.7529831 -1.681839 1.6818314 -1.681839l33.340538 0c0.44604492 0 0.8738251 0.17720032 1.1892242 0.4925995c0.31541443 0.31539917 0.4925995 0.7431946 0.4925995 1.1892395l0 6.727127c0 0.92884827 -0.75297546 1.681839 -1.6818237 1.681839l-33.340538 0c-0.92884827 0 -1.6818314 -0.7529907 -1.6818314 -1.681839z" fill-rule="evenodd"/><path fill="#fcb630" d="m131.80399 203.13252l0 0c0 -0.92884827 0.75297546 -1.6818237 1.6818237 -1.6818237l33.34053 0c0.44606018 0 0.87384033 0.17718506 1.1892395 0.4925995c0.31541443 0.31539917 0.4925995 0.7431793 0.4925995 1.1892242l0 6.7271423c0 0.92884827 -0.75297546 1.6818237 -1.681839 1.6818237l-33.34053 0c-0.92884827 0 -1.6818237 -0.75297546 -1.6818237 -1.6818237z" fill-rule="evenodd"/><path fill="#fcb630" d="m175.57068 194.21916l0 0c0 -1.1761932 0.9534912 -2.1296844 2.1296844 -2.1296844l8.518494 0l0 0c0.56481934 0 1.1065216 0.2243805 1.5059204 0.62376404c0.39938354 0.3993988 0.62376404 0.9410858 0.62376404 1.5059204l0 15.178986c0 1.1761932 -0.9534912 2.1296844 -2.1296844 2.1296844l-8.518494 0c-1.1761932 0 -2.1296844 -0.9534912 -2.1296844 -2.1296844z" fill-rule="evenodd"/><path fill="#fcb630" d="m108.65241 213.64157l0 0c0 -1.1577759 0.9385605 -2.096344 2.0963364 -2.096344l29.824463 0c0.5559845 0 1.0891876 0.22087097 1.4823303 0.6139984c0.3931427 0.3931427 0.6139984 0.9263611 0.6139984 1.4823456l0 8.385086c0 1.1577759 -0.93855286 2.096344 -2.0963287 2.096344l-29.824463 0c-1.1577759 0 -2.0963364 -0.9385681 -2.0963364 -2.096344z" fill-rule="evenodd"/><path fill="#fcb630" d="m89.89709 130.03102l0 0c0 -5.709938 4.6288147 -10.338753 10.338745 -10.338753l41.353752 0l0 0c2.7420044 0 5.371704 1.0892563 7.3105927 3.0281525c1.9388885 1.9388885 3.0281525 4.5685883 3.0281525 7.3106003l0 43.78354c0 5.7099304 -4.6288147 10.338745 -10.338745 10.338745l-41.353752 0c-5.7099304 0 -10.338745 -4.6288147 -10.338745 -10.338745z" fill-rule="evenodd"/><path fill="#fcb630" d="m89.89709 145.3539l0 0c0 -1.4630127 1.185997 -2.6490173 2.649002 -2.6490173l10.595711 0l0 0c0.7025604 0 1.3763428 0.2790985 1.8731308 0.7758789c0.4967804 0.4967804 0.7758713 1.170578 0.7758713 1.8731384l0 36.15143c0 1.4630127 -1.185997 2.649002 -2.649002 2.649002l-10.595711 0c-1.4630051 0 -2.649002 -1.1859894 -2.649002 -2.649002z" fill-rule="evenodd"/><path fill="#fcb630" d="m89.89709 170.96729l0 0c0 -1.4551086 1.179596 -2.6347198 2.6347122 -2.6347198l45.813446 0c0.698761 0 1.3689117 0.2775879 1.8630219 0.771698c0.4941101 0.49409485 0.77168274 1.1642456 0.77168274 1.8630219l0 10.538528c0 1.4551239 -1.179596 2.6347198 -2.6347046 2.6347198l-45.813446 0c-1.4551163 0 -2.6347122 -1.179596 -2.6347122 -2.6347198z" fill-rule="evenodd"/><path fill="#fcb630" d="m112.50552 129.07826l0 0c0 -2.2497635 1.8237915 -4.0735626 4.0735626 -4.0735626l20.55304 0c1.0803833 0 2.1165009 0.42918396 2.8804474 1.1931229c0.76394653 0.7639389 1.1931152 1.8000641 1.1931152 2.8804398l0 16.293762c0 2.249771 -1.8237915 4.0735626 -4.0735626 4.0735626l-20.55304 0c-2.249771 0 -4.0735626 -1.8237915 -4.0735626 -4.0735626z" fill-rule="evenodd"/><path fill="#fcb630" d="m164.41185 136.3551l0 0c0 -1.6550903 1.3417053 -2.996811 2.9967957 -2.996811l11.986877 0l0 0c0.7947998 0 1.5570526 0.31573486 2.1190643 0.8777466c0.5620117 0.5620117 0.8777466 1.3242645 0.8777466 2.1190643l0 34.68402c0 1.6550903 -1.3417206 2.996811 -2.996811 2.996811l-11.986877 0c-1.6550903 0 -2.9967957 -1.3417206 -2.9967957 -2.996811z" fill-rule="evenodd"/><path fill="#fcb630" d="m178.77641 139.41809l0 0c0 -0.9288635 0.7529907 -1.681839 1.681839 -1.681839l14.616821 0c0.44604492 0 0.8738251 0.17720032 1.1892395 0.4925995c0.31539917 0.31539917 0.49258423 0.7431793 0.49258423 1.1892395l0 6.727127c0 0.92884827 -0.75297546 1.6818237 -1.6818237 1.6818237l-14.616821 0c-0.92884827 0 -1.681839 -0.75297546 -1.681839 -1.6818237z" fill-rule="evenodd"/><path fill="#fcb630" d="m142.67937 87.19076l0 0c0 -1.0788345 0.8745575 -1.9534073 1.9533997 -1.9534073l40.687088 0c0.5180664 0 1.0149231 0.20580292 1.3812561 0.57214355c0.366333 0.366333 0.57214355 0.8631897 0.57214355 1.3812637l0 7.8133774c0 1.0788345 -0.87457275 1.9534073 -1.9533997 1.9534073l-40.687088 0c-1.0788422 0 -1.9533997 -0.87457275 -1.9533997 -1.9534073z" fill-rule="evenodd"/><path fill="#fcb630" d="m168.51732 96.22187l0 0c0 -1.7156143 1.3907776 -3.106392 3.1063843 -3.106392l12.425186 0l0 0c0.8238678 0 1.6139832 0.32727814 2.1965485 0.90984344c0.58255005 0.5825577 0.9098358 1.3726807 0.9098358 2.1965485l0 12.425179c0 1.7156143 -1.3907776 3.106392 -3.1063843 3.106392l-12.425186 0c-1.7156067 0 -3.1063843 -1.3907776 -3.1063843 -3.106392z" fill-rule="evenodd"/><path fill="#60e62a" d="m104.13676 76.94615l0 0c0 -4.257454 3.4513474 -7.7088013 7.7088013 -7.7088013l62.13575 0c2.0444946 0 4.0052643 0.81217957 5.450943 2.2578583c1.4456787 1.4456787 2.2578583 3.4064407 2.2578583 5.450943l0 30.834267c0 4.257454 -3.451355 7.7088013 -7.7088013 7.7088013l-62.13575 0c-4.257454 0 -7.7088013 -3.4513474 -7.7088013 -7.7088013z" fill-rule="evenodd"/><path fill="#227600" d="m116.736626 213.64189l0 0c0 -1.981369 1.6062164 -3.5876007 3.587593 -3.5876007l14.349945 0l0 0c0.95147705 0 1.8639984 0.37797546 2.5368042 1.0507812c0.6728058 0.6728058 1.0507812 1.5853271 1.0507812 2.5368195l0 33.50244c0 1.981369 -1.6062164 3.5876007 -3.5875854 3.5876007l-14.349945 0c-1.9813766 0 -3.587593 -1.6062317 -3.587593 -3.5876007z" fill-rule="evenodd"/><path fill="#227600" d="m116.736626 212.37932l0 0c0 -1.2840729 1.040947 -2.3250275 2.3250275 -2.3250275l9.299828 0l0 0c0.6166382 0 1.2080078 0.2449646 1.644043 0.6809845c0.4360199 0.43603516 0.6809845 1.02742 0.6809845 1.644043l0 36.027588c0 1.2840729 -1.0409546 2.3250275 -2.3250275 2.3250275l-9.299828 0c-1.2840805 0 -2.3250275 -1.0409546 -2.3250275 -2.3250275z" fill-rule="evenodd"/><path fill="#35ad05" d="m130.057 222.45801l0 0c0 -0.755188 0.6121979 -1.3673859 1.3673859 -1.3673859l5.4693604 0l0 0c0.36265564 0 0.7104492 0.14405823 0.9668884 0.40049744c0.25642395 0.2564392 0.40049744 0.6042328 0.40049744 0.9668884l0 26.937317c0 0.755188 -0.6121979 1.3673859 -1.3673859 1.3673859l-5.4693604 0c-0.755188 0 -1.3673859 -0.6121979 -1.3673859 -1.3673859z" fill-rule="evenodd"/><path fill="#35ad05" d="m82.11351 162.40927l0 0c0 -5.565201 4.5114975 -10.076706 10.076706 -10.076706l75.15173 0c2.6725159 0 5.235565 1.0616608 7.125305 2.9514008c1.8897552 1.8897552 2.9514008 4.4528046 2.9514008 7.125305l0 40.30562c0 5.565216 -4.51149 10.076706 -10.076706 10.076706l-75.15173 0c-5.5652084 0 -10.076706 -4.51149 -10.076706 -10.076706z" fill-rule="evenodd"/><path fill="#3fbe0c" d="m120.26056 153.62665l0 0c0 -5.262619 4.2661896 -9.528809 9.528809 -9.528809l38.114044 0l0 0c2.5272064 0 4.950882 1.0039215 6.7378845 2.790924c1.7870026 1.7870026 2.790924 4.210678 2.790924 6.7378845l0 49.66272c0 5.262619 -4.2661896 9.528809 -9.528809 9.528809l-38.114044 0c-5.262619 0 -9.528809 -4.2661896 -9.528809 -9.528809z" fill-rule="evenodd"/><path fill="#51de18" d="m104.13676 75.95039l0 0c0 -3.707512 3.0055313 -6.713043 6.713043 -6.713043l26.851357 0l0 0c1.7803955 0 3.4878845 0.70726776 4.746826 1.9662018c1.2589417 1.2589417 1.9662018 2.9664307 1.9662018 4.7468414l0 32.82579c0 3.7075043 -3.0055237 6.7130356 -6.713028 6.7130356l-26.851357 0c-3.707512 0 -6.713043 -3.0055313 -6.713043 -6.7130356z" fill-rule="evenodd"/><path fill="#51de18" d="m73.89709 114.43599l0 0c0 -5.9335938 4.8101273 -10.743721 10.743721 -10.743721l102.71797 0c2.849411 0 5.582123 1.1319275 7.5969543 3.1467667c2.0148468 2.0148392 3.1467743 4.7475433 3.1467743 7.5969543l0 42.973602c0 5.9335938 -4.810135 10.743713 -10.743729 10.743713l-102.71797 0c-5.9335938 0 -10.743721 -4.8101196 -10.743721 -10.743713z" fill-rule="evenodd"/><path fill="#3fbe0c" d="m96.50552 177.038l0 0c0 -0.92884827 0.7529831 -1.681839 1.6818314 -1.681839l33.340538 0c0.44604492 0 0.8738251 0.17720032 1.1892242 0.4925995c0.31541443 0.31539917 0.4925995 0.7431946 0.4925995 1.1892395l0 6.727127c0 0.92884827 -0.75297546 1.681839 -1.6818237 1.681839l-33.340538 0c-0.92884827 0 -1.6818314 -0.7529907 -1.6818314 -1.681839z" fill-rule="evenodd"/><path fill="#35ad05" d="m115.80398 187.13252l0 0c0 -0.92884827 0.7529831 -1.6818237 1.6818314 -1.6818237l33.34053 0c0.44606018 0 0.87384033 0.17718506 1.1892395 0.4925995c0.31541443 0.31539917 0.4925995 0.7431793 0.4925995 1.1892242l0 6.7271423c0 0.92884827 -0.75297546 1.6818237 -1.681839 1.6818237l-33.34053 0c-0.92884827 0 -1.6818314 -0.75297546 -1.6818314 -1.6818237z" fill-rule="evenodd"/><path fill="#35ad05" d="m159.57068 178.21916l0 0c0 -1.1761932 0.9534912 -2.1296844 2.1296844 -2.1296844l8.518494 0l0 0c0.56481934 0 1.1065216 0.2243805 1.5059204 0.62376404c0.39938354 0.3993988 0.62376404 0.9410858 0.62376404 1.5059204l0 15.178986c0 1.1761932 -0.9534912 2.1296844 -2.1296844 2.1296844l-8.518494 0c-1.1761932 0 -2.1296844 -0.9534912 -2.1296844 -2.1296844z" fill-rule="evenodd"/><path fill="#227600" d="m92.65241 197.64157l0 0c0 -1.1577759 0.9385605 -2.096344 2.0963364 -2.096344l29.824463 0c0.5559845 0 1.0891953 0.22087097 1.4823303 0.6139984c0.3931427 0.3931427 0.61400604 0.9263611 0.61400604 1.4823456l0 8.385086c0 1.1577759 -0.9385605 2.096344 -2.0963364 2.096344l-29.824463 0c-1.1577759 0 -2.0963364 -0.9385681 -2.0963364 -2.096344z" fill-rule="evenodd"/><path fill="#3fbe0c" d="m73.89709 114.03102l0 0c0 -5.709938 4.6288147 -10.338753 10.338745 -10.338753l41.353752 0l0 0c2.7420044 0 5.371704 1.0892563 7.3105927 3.0281525c1.9388885 1.9388885 3.0281525 4.5685883 3.0281525 7.3106003l0 43.78354c0 5.7099304 -4.6288147 10.338745 -10.338745 10.338745l-41.353752 0c-5.7099304 0 -10.338745 -4.6288147 -10.338745 -10.338745z" fill-rule="evenodd"/><path fill="#35ad05" d="m73.89709 129.3539l0 0c0 -1.4630127 1.185997 -2.6490097 2.649002 -2.6490097l10.595711 0l0 0c0.7025604 0 1.3763428 0.27909088 1.8731308 0.7758713c0.4967804 0.49678802 0.7758713 1.170578 0.7758713 1.8731384l0 36.15143c0 1.4630127 -1.185997 2.649002 -2.649002 2.649002l-10.595711 0c-1.4630051 0 -2.649002 -1.1859894 -2.649002 -2.649002z" fill-rule="evenodd"/><path fill="#35ad05" d="m73.89709 154.96729l0 0c0 -1.4551086 1.179596 -2.6347198 2.6347122 -2.6347198l45.813446 0c0.6987686 0 1.3689194 0.2775879 1.8630219 0.771698c0.49410248 0.49409485 0.77169037 1.1642456 0.77169037 1.8630219l0 10.538528c0 1.4551239 -1.1796036 2.6347198 -2.6347122 2.6347198l-45.813446 0c-1.4551163 0 -2.6347122 -1.179596 -2.6347122 -2.6347198z" fill-rule="evenodd"/><path fill="#51de18" d="m96.50552 113.07826l0 0c0 -2.2497635 1.8237915 -4.0735626 4.0735626 -4.0735626l20.55304 0c1.0803757 0 2.1165085 0.42918396 2.8804474 1.1931229c0.7639389 0.7639389 1.1931152 1.8000641 1.1931152 2.8804398l0 16.293762c0 2.249771 -1.8237915 4.0735626 -4.0735626 4.0735626l-20.55304 0c-2.249771 0 -4.0735626 -1.8237915 -4.0735626 -4.0735626z" fill-rule="evenodd"/><path fill="#3fbe0c" d="m148.41185 120.3551l0 0c0 -1.6550903 1.3417053 -2.9968033 2.9967957 -2.9968033l11.986877 0l0 0c0.7947998 0 1.5570526 0.31573486 2.1190643 0.87773895c0.5620117 0.5620117 0.8777466 1.3242645 0.8777466 2.1190643l0 34.68402c0 1.6550903 -1.3417206 2.996811 -2.996811 2.996811l-11.986877 0c-1.6550903 0 -2.9967957 -1.3417206 -2.9967957 -2.996811z" fill-rule="evenodd"/><path fill="#3fbe0c" d="m162.77641 123.41808l0 0c0 -0.92884827 0.7529907 -1.6818314 1.681839 -1.6818314l14.616821 0c0.44604492 0 0.8738251 0.17719269 1.1892395 0.4925995c0.31539917 0.3154068 0.49258423 0.74318695 0.49258423 1.1892319l0 6.7271347c0 0.92884827 -0.75297546 1.6818237 -1.6818237 1.6818237l-14.616821 0c-0.92884827 0 -1.681839 -0.75297546 -1.681839 -1.6818237z" fill-rule="evenodd"/><path fill="#60e62a" d="m126.67936 71.19076l0 0c0 -1.0788345 0.87457275 -1.9534073 1.9534073 -1.9534073l40.687088 0c0.5180664 0 1.0149231 0.20580292 1.3812561 0.57214355c0.366333 0.366333 0.57214355 0.8631897 0.57214355 1.3812637l0 7.8133774c0 1.0788345 -0.87457275 1.9534073 -1.9533997 1.9534073l-40.687088 0c-1.0788345 0 -1.9534073 -0.87457275 -1.9534073 -1.9534073z" fill-rule="evenodd"/><path fill="#51de18" d="m152.51732 80.22187l0 0c0 -1.7156143 1.3907776 -3.106392 3.1063843 -3.106392l12.425186 0l0 0c0.8238678 0 1.6139832 0.32727814 2.1965485 0.90984344c0.58255005 0.5825577 0.9098358 1.3726807 0.9098358 2.1965485l0 12.425179c0 1.7156143 -1.3907776 3.106392 -3.1063843 3.106392l-12.425186 0c-1.7156067 0 -3.1063843 -1.3907776 -3.1063843 -3.106392z" fill-rule="evenodd"/><path fill="#000000" fill-opacity="0.0" d="m21.700787 315.7533l253.70079 0l0 38.771637l-253.70079 0z" fill-rule="evenodd"/><path fill="#ffffff" d="m35.138287 328.11328l0 10.53125l-1.5 -1.46875l8.984375 0l0 2.9375l-10.796875 0l0 -12.0l3.3125 0zm13.764526 12.25q-1.65625 0 -2.96875 -0.59375q-1.296875 -0.609375 -2.046875 -1.703125q-0.75 -1.109375 -0.75 -2.5625q0 -1.421875 0.71875 -2.5q0.71875 -1.078125 1.96875 -1.6875q1.265625 -0.609375 2.84375 -0.609375q1.640625 0 2.796875 0.71875q1.171875 0.703125 1.796875 2.0q0.640625 1.296875 0.640625 3.0625l-8.125 0l0 -1.96875l6.28125 0l-1.0625 0.6875q-0.078125 -0.703125 -0.359375 -1.1875q-0.28125 -0.5 -0.765625 -0.75q-0.46875 -0.265625 -1.125 -0.265625q-0.71875 0 -1.234375 0.296875q-0.5 0.28125 -0.796875 0.796875q-0.28125 0.5 -0.28125 1.171875q0 0.859375 0.390625 1.46875q0.390625 0.59375 1.140625 0.921875q0.765625 0.3125 1.875 0.3125q1.0 0 2.0 -0.265625q1.0 -0.265625 1.828125 -0.75l0 2.078125q-0.953125 0.640625 -2.171875 0.984375q-1.203125 0.34375 -2.59375 0.34375zm14.650269 -0.25l-0.421875 -3.296875l0.4375 -1.265625l-0.4375 -1.265625l0.421875 -3.3125l3.3906288 0l-0.578125 4.5625l0.578125 4.578125l-3.3906288 0zm0.7656288 -4.5625q-0.21875 1.4375 -0.8906288 2.53125q-0.65625 1.09375 -1.671875 1.6875q-1.015625 0.59375 -2.3125 0.59375q-1.34375 0 -2.375 -0.59375q-1.015625 -0.59375 -1.59375 -1.6875q-0.5625 -1.109375 -0.5625 -2.53125q0 -1.453125 0.5625 -2.53125q0.578125 -1.09375 1.59375 -1.703125q1.03125 -0.609375 2.375 -0.609375q1.296875 0 2.3125 0.609375q1.015625 0.59375 1.6875 1.671875q0.6718788 1.078125 0.8750038 2.5625zm-6.093754 0q0 0.671875 0.28125 1.203125q0.28125 0.53125 0.765625 0.828125q0.5 0.296875 1.140625 0.296875q0.671875 0 1.265625 -0.296875q0.59375 -0.296875 1.03125 -0.828125q0.453125 -0.53125 0.671875 -1.203125q-0.21875 -0.6875 -0.671875 -1.203125q-0.4375 -0.53125 -1.03125 -0.828125q-0.59375 -0.3125 -1.265625 -0.3125q-0.640625 0 -1.140625 0.3125q-0.484375 0.296875 -0.765625 0.828125q-0.28125 0.515625 -0.28125 1.203125zm16.74654 -5.578125q-1.078125 0 -1.5 0.375q-0.421875 0.375 -0.421875 1.203125l0 8.5625l-3.265625 0l0 -8.40625q0 -1.328125 0.546875 -2.25q0.546875 -0.9375 1.609375 -1.421875q1.0625 -0.5 2.625 -0.5q0.71875 0 1.265625 0.09375q0.546875 0.09375 1.171875 0.28125l0 2.390625q-0.484375 -0.171875 -0.984375 -0.25q-0.5 -0.078125 -1.046875 -0.078125zm-7.03125 4.171875l0 -2.421875l8.84375 0l0 2.421875l-8.84375 0z" fill-rule="nonzero"/><path fill="#ffffff" d="m85.3882 336.95703q0 -0.84375 0.171875 -1.765625q0.171875 -0.921875 0.46875 -1.78125q0.3125 -0.875 0.703125 -1.515625l0.859375 0q-0.40625 0.8125 -0.703125 1.703125q-0.296875 0.875 -0.453125 1.75q-0.15625 0.859375 -0.15625 1.609375q0 0.671875 0.140625 1.390625q0.140625 0.703125 0.421875 1.5q0.296875 0.78125 0.75 1.71875l-0.859375 0q-0.671875 -1.125 -1.015625 -2.296875q-0.328125 -1.171875 -0.328125 -2.3125zm6.400543 -4.59375l0 7.75l-0.875 0l0 -7.75l0.875 0zm3.5761414 7.875q-0.828125 0 -1.4375 -0.375q-0.609375 -0.375 -0.9375 -1.046875q-0.328125 -0.671875 -0.328125 -1.5625q0 -0.890625 0.3125 -1.578125q0.328125 -0.6875 0.90625 -1.0625q0.59375 -0.390625 1.375 -0.390625q0.453125 0 0.890625 0.15625q0.453125 0.140625 0.8125 0.484375q0.375 0.34375 0.59375 0.90625q0.21875 0.546875 0.21875 1.359375l0 0.375l-4.484375 0l0 -0.765625l4.0 0l-0.40625 0.296875q0 -0.578125 -0.1875 -1.03125q-0.171875 -0.453125 -0.546875 -0.71875q-0.359375 -0.265625 -0.890625 -0.265625q-0.53125 0 -0.921875 0.265625q-0.375 0.265625 -0.578125 0.6875q-0.203125 0.421875 -0.203125 0.90625l0 0.515625q0 0.65625 0.21875 1.109375q0.234375 0.453125 0.640625 0.703125q0.421875 0.234375 0.953125 0.234375q0.359375 0 0.640625 -0.09375q0.28125 -0.109375 0.484375 -0.3125q0.21875 -0.21875 0.328125 -0.515625l0.859375 0.25q-0.125 0.4375 -0.453125 0.765625q-0.3125 0.328125 -0.796875 0.515625q-0.46875 0.1875 -1.0625 0.1875zm5.681946 0q-0.828125 0 -1.4375 -0.375q-0.609375 -0.375 -0.9375 -1.046875q-0.328125 -0.671875 -0.328125 -1.5625q0 -0.890625 0.3125 -1.578125q0.328125 -0.6875 0.90625 -1.0625q0.59375 -0.390625 1.375 -0.390625q0.453125 0 0.890625 0.15625q0.453125 0.140625 0.8125 0.484375q0.375 0.34375 0.59375 0.90625q0.21875 0.546875 0.21875 1.359375l0 0.375l-4.484375 0l0 -0.765625l4.0 0l-0.40625 0.296875q0 -0.578125 -0.1875 -1.03125q-0.171875 -0.453125 -0.546875 -0.71875q-0.359375 -0.265625 -0.890625 -0.265625q-0.53125 0 -0.921875 0.265625q-0.375 0.265625 -0.578125 0.6875q-0.203125 0.421875 -0.203125 0.90625l0 0.515625q0 0.65625 0.21875 1.109375q0.234375 0.453125 0.640625 0.703125q0.421875 0.234375 0.953125 0.234375q0.359375 0 0.640625 -0.09375q0.28125 -0.109375 0.484375 -0.3125q0.21875 -0.21875 0.328125 -0.515625l0.859375 0.25q-0.125 0.4375 -0.453125 0.765625q-0.3125 0.328125 -0.796875 0.515625q-0.46875 0.1875 -1.0625 0.1875zm5.838196 -5.9375l0 0.75l-3.140625 0l0 -0.75l3.140625 0zm-2.203125 5.8125l0 -6.625q0 -0.5 0.234375 -0.828125q0.25 -0.328125 0.625 -0.484375q0.375 -0.171875 0.78125 -0.171875q0.328125 0 0.53125 0.0625q0.21875 0.046875 0.3125 0.078125l-0.25 0.78125q-0.078125 -0.03125 -0.203125 -0.0625q-0.109375 -0.03125 -0.296875 -0.03125q-0.4375 0 -0.640625 0.234375q-0.203125 0.21875 -0.203125 0.640625l0 6.40625l-0.890625 0zm5.134918 1.453125q0.453125 -0.9375 0.734375 -1.71875q0.296875 -0.796875 0.4375 -1.5q0.140625 -0.71875 0.140625 -1.390625q0 -0.75 -0.15625 -1.609375q-0.15625 -0.875 -0.453125 -1.75q-0.296875 -0.890625 -0.703125 -1.703125l0.859375 0q0.40625 0.640625 0.703125 1.515625q0.296875 0.859375 0.46875 1.78125q0.171875 0.921875 0.171875 1.765625q0 1.140625 -0.34375 2.3125q-0.328125 1.171875 -1.0 2.296875l-0.859375 0z" fill-rule="nonzero"/></g></svg>