<svg version="1.1" viewBox="0.0 0.0 480.0 96.0" fill="none" stroke="none" stroke-linecap="square" stroke-miterlimit="10" xmlns:xlink="http://www.w3.org/1999/xlink" xmlns="http://www.w3.org/2000/svg"><clipPath id="g3b6cfa48ab7_0_66.0"><path d="m0 0l480.0 0l0 96.0l-480.0 0l0 -96.0z" clip-rule="nonzero"/></clipPath><g clip-path="url(#g3b6cfa48ab7_0_66.0)"><path fill="#d0d1d2" d="m5.7007875 21.081635l0 0c0 -7.433525 6.026062 -13.459587 13.459586 -13.459587l327.0966 0c3.5697021 0 6.9931946 1.4180593 9.5173645 3.9422216c2.5241394 2.5241623 3.9421997 5.9476614 3.9421997 9.517365l0 53.83673c0 7.433525 -6.026062 13.459587 -13.459564 13.459587l-327.0966 0c-7.433524 0 -13.459586 -6.026062 -13.459586 -13.459587z" fill-rule="evenodd"/><path stroke="#d0d1d2" stroke-width="4.0" stroke-linejoin="round" stroke-linecap="butt" d="m5.7007875 21.081635l0 0c0 -7.433525 6.026062 -13.459587 13.459586 -13.459587l327.0966 0c3.5697021 0 6.9931946 1.4180593 9.5173645 3.9422216c2.5241394 2.5241623 3.9421997 5.9476614 3.9421997 9.517365l0 53.83673c0 7.433525 -6.026062 13.459587 -13.459564 13.459587l-327.0966 0c-7.433524 0 -13.459586 -6.026062 -13.459586 -13.459587z" fill-rule="evenodd"/><path fill="#f9f9f9" d="m5.7007875 19.746962l0 0c0 -6.69713 5.429096 -12.126226 12.126227 -12.126226l329.76328 0c3.216095 0 6.3004456 1.2775807 8.574554 3.5516896c2.274109 2.274109 3.5516663 5.3584614 3.5516663 8.574537l0 48.50345c0 6.6971283 -5.429077 12.126228 -12.126221 12.126228l-329.76328 0c-6.697131 0 -12.126227 -5.4291 -12.126227 -12.126228z" fill-rule="evenodd"/><path stroke="#d0d1d2" stroke-width="4.0" stroke-linejoin="round" stroke-linecap="butt" d="m5.7007875 19.746962l0 0c0 -6.69713 5.429096 -12.126226 12.126227 -12.126226l329.76328 0c3.216095 0 6.3004456 1.2775807 8.574554 3.5516896c2.274109 2.274109 3.5516663 5.3584614 3.5516663 8.574537l0 48.50345c0 6.6971283 -5.429077 12.126228 -12.126221 12.126228l-329.76328 0c-6.697131 0 -12.126227 -5.4291 -12.126227 -12.126228z" fill-rule="evenodd"/><path fill="#d0d1d2" d="m112.01478 35.478687l0 14.03125l-1.984375 -1.953125l11.96875 0l0 3.921875l-14.390625 0l0 -16.0l4.40625 0zm18.369576 16.34375q-2.21875 0 -3.9687424 -0.8125q-1.734375 -0.8125 -2.734375 -2.265625q-1.0 -1.46875 -1.0 -3.40625q0 -1.90625 0.953125 -3.34375q0.96875 -1.4375 2.640625 -2.25q1.671875 -0.8125 3.7812424 -0.8125q2.203125 0 3.75 0.953125q1.546875 0.953125 2.390625 2.6875q0.84375 1.71875 0.84375 4.0625l-10.843742 0l0 -2.625l8.390617 0l-1.4375 0.921875q-0.078125 -0.9375 -0.46875 -1.578125q-0.375 -0.65625 -1.015625 -1.0q-0.625 -0.34375 -1.5 -0.34375q-0.953125 0 -1.640625 0.390625q-0.6874924 0.375 -1.0781174 1.046875q-0.375 0.671875 -0.375 1.5625q0 1.15625 0.515625 1.953125q0.5312424 0.796875 1.5468674 1.234375q1.015625 0.421875 2.484375 0.421875q1.34375 0 2.671875 -0.34375q1.34375 -0.359375 2.421875 -1.0l0 2.78125q-1.25 0.84375 -2.875 1.3125q-1.609375 0.453125 -3.453125 0.453125zm19.514297 -0.34375l-0.5625 -4.390625l0.578125 -1.6875l-0.578125 -1.6875l0.5625 -4.40625l4.515625 0l-0.765625 6.078125l0.765625 6.09375l-4.515625 0zm1.015625 -6.078125q-0.296875 1.921875 -1.1875 3.375q-0.875 1.4375 -2.234375 2.25q-1.34375 0.796875 -3.078125 0.796875q-1.796875 0 -3.15625 -0.796875q-1.34375 -0.8125 -2.109375 -2.265625q-0.765625 -1.46875 -0.765625 -3.359375q0 -1.9375 0.765625 -3.390625q0.765625 -1.453125 2.109375 -2.265625q1.359375 -0.8125 3.15625 -0.8125q1.734375 0 3.078125 0.8125q1.359375 0.796875 2.25 2.234375q0.90625 1.4375 1.171875 3.421875zm-8.125 0q0 0.890625 0.375 1.59375q0.375 0.703125 1.03125 1.109375q0.671875 0.390625 1.515625 0.390625q0.90625 0 1.6875 -0.390625q0.796875 -0.40625 1.390625 -1.109375q0.59375 -0.703125 0.890625 -1.59375q-0.296875 -0.921875 -0.890625 -1.625q-0.59375 -0.703125 -1.390625 -1.109375q-0.78125 -0.40625 -1.6875 -0.40625q-0.84375 0 -1.515625 0.40625q-0.65625 0.40625 -1.03125 1.109375q-0.375 0.703125 -0.375 1.625zm13.148346 -6.09375l4.4375 0l0.71875 4.34375l0 7.828125l-4.359375 0l0 -8.078125l-0.796875 -4.09375zm10.875 -0.203125l0 3.71875q-0.640625 -0.125 -1.21875 -0.171875q-0.5625 -0.0625 -1.03125 -0.0625q-0.9375 0 -1.734375 0.375q-0.78125 0.375 -1.265625 1.234375q-0.46875 0.84375 -0.46875 2.265625l-0.828125 -1.015625q0.171875 -1.328125 0.5 -2.484375q0.34375 -1.171875 0.921875 -2.078125q0.59375 -0.90625 1.46875 -1.421875q0.875 -0.53125 2.140625 -0.53125q0.359375 0 0.734375 0.046875q0.390625 0.046875 0.78125 0.125zm0.9194946 0.203125l4.359375 0l0.796875 4.859375l0 7.3125l-4.359375 0l0 -7.984375l-0.796875 -4.1875zm9.640625 -0.375q1.734375 0 2.96875 0.703125q1.25 0.703125 1.890625 1.984375q0.65625 1.28125 0.65625 3.03125l0 6.828125l-4.34375 0l0 -6.1875q0 -1.359375 -0.703125 -2.078125q-0.6875 -0.734375 -1.984375 -0.734375q-0.90625 0 -1.578125 0.390625q-0.671875 0.375 -1.03125 1.078125q-0.359375 0.703125 -0.359375 1.671875l-1.34375 -0.703125q0.25 -1.953125 1.078125 -3.28125q0.84375 -1.328125 2.046875 -2.015625q1.21875 -0.6875 2.703125 -0.6875zm36.726715 -3.453125l0 16.0l-4.203125 0l0 -14.421875l0.9375 0.109375l-6.1875 14.3125l-4.484375 0l-6.203125 -14.265625l0.953125 -0.109375l0 14.375l-4.1875 0l0 -16.0l6.8125 0l5.75 13.734375l-1.71875 0l5.703125 -13.734375l6.828125 0zm9.726471 16.34375q-2.359375 0 -4.109375 -0.796875q-1.734375 -0.8125 -2.71875 -2.265625q-0.984375 -1.46875 -0.984375 -3.359375q0 -1.9375 0.984375 -3.390625q0.984375 -1.453125 2.71875 -2.265625q1.75 -0.8125 4.109375 -0.8125q2.3125 0 4.078125 0.8125q1.765625 0.8125 2.734375 2.265625q0.984375 1.453125 0.984375 3.390625q0 1.890625 -0.984375 3.359375q-0.96875 1.453125 -2.734375 2.265625q-1.765625 0.796875 -4.078125 0.796875zm0 -3.21875q1.0625 0 1.8125 -0.375q0.765625 -0.390625 1.171875 -1.109375q0.40625 -0.734375 0.40625 -1.71875q0 -1.03125 -0.40625 -1.734375q-0.40625 -0.71875 -1.171875 -1.09375q-0.75 -0.390625 -1.8125 -0.390625q-1.078125 0 -1.84375 0.390625q-0.765625 0.375 -1.171875 1.09375q-0.40625 0.703125 -0.40625 1.71875q0 1.0 0.40625 1.734375q0.40625 0.71875 1.171875 1.109375q0.765625 0.375 1.84375 0.375zm8.978485 -9.296875l4.4375 0l0.71875 4.34375l0 7.828125l-4.359375 0l0 -8.078125l-0.796875 -4.09375zm10.875 -0.203125l0 3.71875q-0.640625 -0.125 -1.21875 -0.171875q-0.5625 -0.0625 -1.03125 -0.0625q-0.9375 0 -1.734375 0.375q-0.78125 0.375 -1.265625 1.234375q-0.46875 0.84375 -0.46875 2.265625l-0.828125 -1.015625q0.171875 -1.328125 0.5 -2.484375q0.34375 -1.171875 0.921875 -2.078125q0.59375 -0.90625 1.46875 -1.421875q0.875 -0.53125 2.140625 -0.53125q0.359375 0 0.734375 0.046875q0.390625 0.046875 0.78125 0.125zm8.318237 12.71875q-2.21875 0 -3.96875 -0.8125q-1.734375 -0.8125 -2.734375 -2.265625q-1.0 -1.46875 -1.0 -3.40625q0 -1.90625 0.953125 -3.34375q0.96875 -1.4375 2.640625 -2.25q1.671875 -0.8125 3.78125 -0.8125q2.203125 0 3.75 0.953125q1.546875 0.953125 2.390625 2.6875q0.84375 1.71875 0.84375 4.0625l-10.84375 0l0 -2.625l8.390625 0l-1.4375 0.921875q-0.078125 -0.9375 -0.46875 -1.578125q-0.375 -0.65625 -1.015625 -1.0q-0.625 -0.34375 -1.5 -0.34375q-0.953125 0 -1.640625 0.390625q-0.6875 0.375 -1.078125 1.046875q-0.375 0.671875 -0.375 1.5625q0 1.15625 0.515625 1.953125q0.53125 0.796875 1.546875 1.234375q1.015625 0.421875 2.484375 0.421875q1.34375 0 2.671875 -0.34375q1.34375 -0.359375 2.421875 -1.0l0 2.78125q-1.25 0.84375 -2.875 1.3125q-1.609375 0.453125 -3.453125 0.453125z" fill-rule="nonzero"/></g></svg>