<svg version="1.1" viewBox="0.0 0.0 960.0 192.0" fill="none" stroke="none" stroke-linecap="square" stroke-miterlimit="10" xmlns:xlink="http://www.w3.org/1999/xlink" xmlns="http://www.w3.org/2000/svg"><clipPath id="p.0"><path d="m0 0l960.0 0l0 192.0l-960.0 0l0 -192.0z" clip-rule="nonzero"/></clipPath><g clip-path="url(#p.0)"><path fill="#3b4652" d="m5.7007875 37.081955l0 0c0 -16.270258 13.189649 -29.459908 29.459908 -29.459908l889.6786 0c7.8132935 0 15.306519 3.1038027 20.831299 8.628607c5.5248413 5.524805 8.628601 13.018047 8.628601 20.8313l0 117.83609c0 16.270264 -13.189636 29.459915 -29.4599 29.459915l-889.6786 0l0 0c-16.270258 0 -29.459908 -13.1896515 -29.459908 -29.459915z" fill-rule="evenodd"/><path stroke="#3b4652" stroke-width="4.0" stroke-linejoin="round" stroke-linecap="butt" d="m5.7007875 37.081955l0 0c0 -16.270258 13.189649 -29.459908 29.459908 -29.459908l889.6786 0c7.8132935 0 15.306519 3.1038027 20.831299 8.628607c5.5248413 5.524805 8.628601 13.018047 8.628601 20.8313l0 117.83609c0 16.270264 -13.189636 29.459915 -29.4599 29.459915l-889.6786 0l0 0c-16.270258 0 -29.459908 -13.1896515 -29.459908 -29.459915z" fill-rule="evenodd"/><path fill="#161d25" d="m5.7007875 35.748592l0 0c0 -15.533861 12.592683 -28.126545 28.126549 -28.126545l892.34534 0c7.4595947 0 14.6137085 2.9633236 19.888489 8.238074c5.274719 5.2747507 8.238037 12.428849 8.238037 19.88847l0 112.50281c0 15.533859 -12.592651 28.126556 -28.126526 28.126556l-892.34534 0c-15.533865 0 -28.126549 -12.592697 -28.126549 -28.126556z" fill-rule="evenodd"/><path stroke="#3b4652" stroke-width="4.0" stroke-linejoin="round" stroke-linecap="butt" d="m5.7007875 35.748592l0 0c0 -15.533861 12.592683 -28.126545 28.126549 -28.126545l892.34534 0c7.4595947 0 14.6137085 2.9633236 19.888489 8.238074c5.274719 5.2747507 8.238037 12.428849 8.238037 19.88847l0 112.50281c0 15.533859 -12.592651 28.126556 -28.126526 28.126556l-892.34534 0c-15.533865 0 -28.126549 -12.592697 -28.126549 -28.126556z" fill-rule="evenodd"/></g></svg>