<svg version="1.1" viewBox="0.0 0.0 288.0 384.0" fill="none" stroke="none" stroke-linecap="square" stroke-miterlimit="10" xmlns:xlink="http://www.w3.org/1999/xlink" xmlns="http://www.w3.org/2000/svg"><clipPath id="g3a72db97a13_0_3820.0"><path d="m0 0l288.0 0l0 384.0l-288.0 0l0 -384.0z" clip-rule="nonzero"/></clipPath><g clip-path="url(#g3a72db97a13_0_3820.0)"><path fill="#ffffff" d="m0 0l288.0 0l0 384.0l-288.0 0z" fill-rule="evenodd"/><path fill="#d0d1d2" d="m5.7007875 34.135216l0 0c0 -9.966135 8.079147 -18.045282 18.04528 -18.045282l240.50787 0c4.7858887 0 9.375793 1.9011936 12.759949 5.2853394c3.3841248 3.3841476 5.2853394 7.9740353 5.2853394 12.759943l0 324.2244c0 9.9661255 -8.079163 18.045288 -18.045288 18.045288l-240.50787 0l0 0c-9.966134 0 -18.04528 -8.079163 -18.04528 -18.045288z" fill-rule="evenodd"/><path stroke="#d0d1d2" stroke-width="4.0" stroke-linejoin="round" stroke-linecap="butt" d="m5.7007875 34.135216l0 0c0 -9.966135 8.079147 -18.045282 18.04528 -18.045282l240.50787 0c4.7858887 0 9.375793 1.9011936 12.759949 5.2853394c3.3841248 3.3841476 5.2853394 7.9740353 5.2853394 12.759943l0 324.2244c0 9.9661255 -8.079163 18.045288 -18.045288 18.045288l-240.50787 0l0 0c-9.966134 0 -18.04528 -8.079163 -18.04528 -18.045288z" fill-rule="evenodd"/><path fill="#ffffff" d="m5.7007875 25.639769l0 0c0 -9.966133 8.079147 -18.04528 18.04528 -18.04528l240.50787 0c4.7858887 0 9.375793 1.9011936 12.759949 5.2853403c3.3841248 3.3841467 5.2853394 7.9740343 5.2853394 12.75994l0 324.2244c0 9.9661255 -8.079163 18.045288 -18.045288 18.045288l-240.50787 0l0 0c-9.966134 0 -18.04528 -8.079163 -18.04528 -18.045288z" fill-rule="evenodd"/><path stroke="#d0d1d2" stroke-width="4.0" stroke-linejoin="round" stroke-linecap="butt" d="m5.7007875 25.639769l0 0c0 -9.966133 8.079147 -18.04528 18.04528 -18.04528l240.50787 0c4.7858887 0 9.375793 1.9011936 12.759949 5.2853403c3.3841248 3.3841467 5.2853394 7.9740343 5.2853394 12.75994l0 324.2244c0 9.9661255 -8.079163 18.045288 -18.045288 18.045288l-240.50787 0l0 0c-9.966134 0 -18.04528 -8.079163 -18.04528 -18.045288z" fill-rule="evenodd"/><path fill="#d0d1d2" d="m110.76052 201.82376l0 0c0 -2.5143127 2.0382538 -4.5525665 4.5525665 -4.5525665l18.423409 0l0 0c1.2074127 0 2.3653717 0.47964478 3.2191467 1.3334198c0.853775 0.853775 1.3334198 2.011734 1.3334198 3.2191467l0 18.209732c0 2.5143127 -2.0382538 4.5525665 -4.5525665 4.5525665l-18.423409 0c-2.5143127 0 -4.5525665 -2.0382538 -4.5525665 -4.5525665z" fill-rule="evenodd"/><path fill="#d0d1d2" d="m83.95709 205.36131l0 0c0 -3.2693787 2.6503525 -5.9197235 5.9197235 -5.9197235l25.019592 0l0 0c1.5700073 0 3.075714 0.62368774 4.185875 1.733841c1.1101685 1.1101685 1.7338486 2.6158752 1.7338486 4.1858826l0 23.678177c0 3.2693787 -2.6503525 5.9197235 -5.9197235 5.9197235l-25.019592 0c-3.269371 0 -5.9197235 -2.6503448 -5.9197235 -5.9197235z" fill-rule="evenodd"/><path fill="#d0d1d2" d="m159.65364 127.364716l0 0c0 -1.6838531 1.3650513 -3.0488968 3.0489044 -3.0488968l12.195206 0l0 0c0.80862427 0 1.5841217 0.32122803 2.155899 0.8930054c0.57177734 0.57177734 0.8930054 1.3472748 0.8930054 2.1558914l0 20.136826c0 1.6838531 -1.365036 3.0488892 -3.0489044 3.0488892l-12.195206 0c-1.6838531 0 -3.0489044 -1.365036 -3.0489044 -3.0488892z" fill-rule="evenodd"/><path fill="#d0d1d2" d="m131.78877 120.42126l0 0c0 -1.8663406 1.51297 -3.3793106 3.379303 -3.3793106l16.187775 0c0.89624023 0 1.7557831 0.35603333 2.3895264 0.9897766c0.6337433 0.6337433 0.9897766 1.4932861 0.9897766 2.389534l0 13.516823c0 1.866333 -1.51297 3.379303 -3.379303 3.379303l-16.187775 0c-1.866333 0 -3.379303 -1.51297 -3.379303 -3.379303z" fill-rule="evenodd"/><path fill="#d0d1d2" d="m169.02867 153.40257l0 0c0 -4.3096313 3.493637 -7.8032837 7.8032684 -7.8032837l44.376938 0c2.0695648 0 4.054352 0.8221283 5.517746 2.2855377c1.4633942 1.4633942 2.2855225 3.4481812 2.2855225 5.517746l0 31.212143c0 4.3096313 -3.493637 7.8032684 -7.8032684 7.8032684l-44.376938 0l0 0c-4.3096313 0 -7.8032684 -3.493637 -7.8032684 -7.8032684z" fill-rule="evenodd"/><path fill="#d0d1d2" d="m85.7951 135.3895l0 0c0 -3.9118805 3.1712112 -7.083084 7.0830917 -7.083084l62.55522 0c1.8785553 0 3.6801605 0.74624634 5.008499 2.074585c1.3283386 1.3283386 2.0746002 3.129959 2.0746002 5.008499l0 28.331528c0 3.9118805 -3.1712189 7.083084 -7.0830994 7.083084l-62.55522 0c-3.9118805 0 -7.0830917 -3.1712036 -7.0830917 -7.083084z" fill-rule="evenodd"/><path fill="#d0d1d2" d="m74.98569 164.74028l0 0c0 -5.571701 4.516754 -10.088455 10.088455 -10.088455l66.278595 0c2.6756287 0 5.2416687 1.0628815 7.133621 2.954834c1.8919525 1.8919525 2.9548492 4.4579926 2.9548492 7.133621l0 40.35263c0 5.571701 -4.5167694 10.088455 -10.08847 10.088455l-66.278595 0c-5.571701 0 -10.088455 -4.516754 -10.088455 -10.088455z" fill-rule="evenodd"/><path fill="#d0d1d2" d="m158.81082 139.52344l0 0c0 -1.2172699 0.9867859 -2.204071 2.204071 -2.204071l8.815994 0l0 0c0.5845642 0 1.1451721 0.23220825 1.5585175 0.6455536c0.41334534 0.41334534 0.6455536 0.97395325 0.6455536 1.5585175l0 57.712097c0 1.2172852 -0.9867859 2.204071 -2.204071 2.204071l-8.815994 0c-1.2172852 0 -2.204071 -0.9867859 -2.204071 -2.204071z" fill-rule="evenodd"/><path fill="#d0d1d2" d="m74.98569 167.47041l0 0c0 -0.9954529 0.8069763 -1.8024292 1.8024292 -1.8024292l7.2094955 0l0 0c0.47803497 0 0.9364929 0.18989563 1.2745132 0.5279236c0.33802032 0.3380127 0.52791595 0.7964783 0.52791595 1.2745056l0 45.908524c0 0.9954529 -0.8069687 1.8024292 -1.8024292 1.8024292l-7.2094955 0c-0.9954529 0 -1.8024292 -0.8069763 -1.8024292 -1.8024292z" fill-rule="evenodd"/><path fill="#d0d1d2" d="m99.96199 187.2354l0 0c0 -0.88072205 0.71395874 -1.5946808 1.5946808 -1.5946808l37.25467 0c0.42294312 0 0.82855225 0.16801453 1.1276093 0.46707153c0.29907227 0.299057 0.46707153 0.7046814 0.46707153 1.1276093l0 6.3785553c0 0.88072205 -0.71395874 1.5946808 -1.5946808 1.5946808l-37.25467 0c-0.88072205 0 -1.5946808 -0.71395874 -1.5946808 -1.5946808z" fill-rule="evenodd"/><path fill="#d0d1d2" d="m105.992386 170.25314l0 0c0 -0.9954529 0.8069763 -1.8024292 1.8024292 -1.8024292l7.209503 0l0 0c0.47803497 0 0.9364853 0.18989563 1.2745056 0.5279236c0.33802032 0.3380127 0.5279236 0.796463 0.5279236 1.2745056l0 20.362411c0 0.99546814 -0.8069763 1.8024292 -1.8024292 1.8024292l-7.209503 0c-0.9954529 0 -1.8024292 -0.80696106 -1.8024292 -1.8024292z" fill-rule="evenodd"/><path fill="#d0d1d2" d="m85.80004 138.3413l0 0c0 -0.99546814 0.8069763 -1.8024292 1.8024292 -1.8024292l7.209503 0l0 0c0.47803497 0 0.9364853 0.18989563 1.2745132 0.5279083c0.33802032 0.33802795 0.52791595 0.7964783 0.52791595 1.2745209l0 20.362411c0 0.9954529 -0.8069763 1.8024292 -1.8024292 1.8024292l-7.209503 0c-0.9954529 0 -1.8024292 -0.8069763 -1.8024292 -1.8024292z" fill-rule="evenodd"/><path fill="#d0d1d2" d="m204.37418 153.08492l0 0c0 -1.3997498 1.1347198 -2.5344849 2.5344696 -2.5344849l10.137619 0l0 0c0.67219543 0 1.3168488 0.2670288 1.7921448 0.7423401c0.47531128 0.47531128 0.7423401 1.1199646 0.7423401 1.7921448l0 22.24591c0 1.3997498 -1.1347198 2.5344696 -2.5344849 2.5344696l-10.137619 0c-1.3997498 0 -2.5344696 -1.1347198 -2.5344696 -2.5344696z" fill-rule="evenodd"/><path fill="#d0d1d2" d="m190.26268 152.35286l0 0c0 -0.9954529 0.8069763 -1.8024292 1.8024292 -1.8024292l7.209503 0l0 0c0.47802734 0 0.93647766 0.18991089 1.2745056 0.5279236c0.3380127 0.33802795 0.5279236 0.7964783 0.5279236 1.2745056l0 11.2812195c0 0.9954529 -0.8069763 1.8024292 -1.8024292 1.8024292l-7.209503 0c-0.9954529 0 -1.8024292 -0.8069763 -1.8024292 -1.8024292z" fill-rule="evenodd"/><path fill="#d0d1d2" d="m112.130615 129.9011l0 0c0 -0.88072205 0.71396637 -1.5946808 1.5946808 -1.5946808l37.25467 0c0.42294312 0 0.82855225 0.16801453 1.1276245 0.46707153c0.299057 0.299057 0.46707153 0.7046814 0.46707153 1.1276093l0 6.3785553c0 0.88072205 -0.713974 1.5946808 -1.594696 1.5946808l-37.25467 0c-0.8807144 0 -1.5946808 -0.71395874 -1.5946808 -1.5946808z" fill-rule="evenodd"/><path fill="#d0d1d2" d="m137.57784 136.03932l0 0c0 -0.6938782 0.56248474 -1.2563629 1.2563629 -1.2563629l5.025284 0l0 0c0.33320618 0 0.65275574 0.13237 0.8883667 0.36798096c0.23562622 0.23561096 0.36798096 0.5551758 0.36798096 0.88838196l0 7.055191c0 0.6938782 -0.56248474 1.2563629 -1.2563477 1.2563629l-5.025284 0c-0.6938782 0 -1.2563629 -0.56248474 -1.2563629 -1.2563629z" fill-rule="evenodd"/><path fill="#d0d1d2" d="m130.45923 164.7055l0 0c0 -1.3997498 1.1347351 -2.5344849 2.5344849 -2.5344849l10.137619 0l0 0c0.6721802 0 1.3168335 0.2670288 1.7921448 0.7423401c0.47531128 0.47529602 0.7423401 1.1199646 0.7423401 1.7921448l0 10.137619c0 1.3997498 -1.1347351 2.5344849 -2.5344849 2.5344849l-10.137619 0c-1.3997498 0 -2.5344849 -1.1347351 -2.5344849 -2.5344849z" fill-rule="evenodd"/><path fill="#d0d1d2" d="m105.60955 212.57971l0 0c0 -1.3997498 1.1347275 -2.5344696 2.5344849 -2.5344696l10.137619 0l0 0c0.6721802 0 1.3168411 0.26701355 1.7921448 0.7423248c0.47530365 0.47531128 0.74233246 1.1199646 0.74233246 1.7921448l0 13.568298c0 1.399765 -1.1347275 2.5344849 -2.5344772 2.5344849l-10.137619 0c-1.3997574 0 -2.5344849 -1.1347198 -2.5344849 -2.5344849z" fill-rule="evenodd"/><path fill="#fa5433" d="m94.76052 185.82376l0 0c0 -2.5143127 2.0382538 -4.5525665 4.5525665 -4.5525665l18.4234 0l0 0c1.2074203 0 2.3653793 0.47964478 3.2191544 1.3334198c0.8537674 0.853775 1.3334122 2.011734 1.3334122 3.2191467l0 18.209732c0 2.5143127 -2.0382538 4.5525665 -4.5525665 4.5525665l-18.4234 0c-2.5143127 0 -4.5525665 -2.0382538 -4.5525665 -4.5525665z" fill-rule="evenodd"/><path fill="#e03027" d="m67.95709 189.36131l0 0c0 -3.2693787 2.6503525 -5.9197235 5.9197235 -5.9197235l25.019592 0l0 0c1.5700073 0 3.075714 0.62368774 4.185875 1.733841c1.1101685 1.1101685 1.7338486 2.6158752 1.7338486 4.1858826l0 23.678177c0 3.2693787 -2.6503525 5.9197235 -5.9197235 5.9197235l-25.019592 0c-3.269371 0 -5.9197235 -2.6503448 -5.9197235 -5.9197235z" fill-rule="evenodd"/><path fill="#fe6a3d" d="m143.65364 111.364716l0 0c0 -1.6838531 1.3650513 -3.0488968 3.0489044 -3.0488968l12.195206 0l0 0c0.80862427 0 1.5841217 0.32122803 2.155899 0.8930054c0.57177734 0.57177734 0.8930054 1.3472748 0.8930054 2.1558914l0 20.136826c0 1.6838531 -1.365036 3.0488892 -3.0489044 3.0488892l-12.195206 0c-1.6838531 0 -3.0489044 -1.365036 -3.0489044 -3.0488892z" fill-rule="evenodd"/><path fill="#55a1ea" d="m115.788765 104.42126l0 0c0 -1.8663406 1.51297 -3.3793106 3.3793106 -3.3793106l16.187775 0c0.89624023 0 1.7557831 0.35603333 2.3895264 0.9897766c0.6337433 0.6337433 0.9897766 1.4932861 0.9897766 2.389534l0 13.516823c0 1.8663406 -1.51297 3.3793106 -3.379303 3.3793106l-16.187775 0c-1.8663406 0 -3.3793106 -1.51297 -3.3793106 -3.3793106z" fill-rule="evenodd"/><path fill="#f73d35" d="m153.02867 137.40257l0 0c0 -4.3096313 3.493637 -7.8032837 7.8032684 -7.8032837l44.376938 0c2.0695648 0 4.054352 0.8221283 5.517746 2.2855377c1.4633942 1.4633942 2.2855225 3.4481812 2.2855225 5.517746l0 31.212143c0 4.3096313 -3.493637 7.8032684 -7.8032684 7.8032684l-44.376938 0l0 0c-4.3096313 0 -7.8032684 -3.493637 -7.8032684 -7.8032684z" fill-rule="evenodd"/><path fill="#fb5c4e" d="m69.7951 119.3895l0 0c0 -3.9118805 3.1712112 -7.0830917 7.0830917 -7.0830917l62.55522 0c1.8785553 0 3.6801605 0.74625397 5.008499 2.0745926c1.3283386 1.328331 2.0746002 3.1299438 2.0746002 5.008499l0 28.33152c0 3.9118805 -3.1712189 7.083084 -7.0830994 7.083084l-62.55522 0c-3.9118805 0 -7.0830917 -3.1712036 -7.0830917 -7.083084z" fill-rule="evenodd"/><path fill="#f73d35" d="m58.985683 148.74028l0 0c0 -5.571701 4.516758 -10.088455 10.088459 -10.088455l66.278595 0c2.6756287 0 5.2416687 1.0628815 7.133621 2.954834c1.8919525 1.8919525 2.9548492 4.4579926 2.9548492 7.133621l0 40.35263c0 5.571701 -4.5167694 10.088455 -10.08847 10.088455l-66.278595 0c-5.571701 0 -10.088459 -4.516754 -10.088459 -10.088455z" fill-rule="evenodd"/><path fill="#fb5c4e" d="m142.81082 123.52344l0 0c0 -1.2172775 0.9867859 -2.204071 2.204071 -2.204071l8.815994 0l0 0c0.5845642 0 1.1451721 0.23221588 1.5585175 0.6455536c0.41334534 0.41334534 0.6455536 0.9739609 0.6455536 1.5585175l0 57.712097c0 1.2172852 -0.9867859 2.204071 -2.204071 2.204071l-8.815994 0c-1.2172852 0 -2.204071 -0.9867859 -2.204071 -2.204071z" fill-rule="evenodd"/><path fill="#e03027" d="m58.985683 151.47041l0 0c0 -0.9954529 0.8069763 -1.8024292 1.8024292 -1.8024292l7.2094994 0l0 0c0.47803497 0 0.9364929 0.18989563 1.2745132 0.5279236c0.33802032 0.3380127 0.52791595 0.7964783 0.52791595 1.2745056l0 45.908524c0 0.9954529 -0.8069687 1.8024292 -1.8024292 1.8024292l-7.2094994 0c-0.9954529 0 -1.8024292 -0.8069763 -1.8024292 -1.8024292z" fill-rule="evenodd"/><path fill="#e03027" d="m83.96199 171.2354l0 0c0 -0.88072205 0.71395874 -1.5946808 1.5946808 -1.5946808l37.25467 0c0.42294312 0 0.82855225 0.16801453 1.1276169 0.46707153c0.299057 0.299057 0.46707153 0.7046814 0.46707153 1.1276093l0 6.3785553c0 0.88072205 -0.71396637 1.5946808 -1.5946884 1.5946808l-37.25467 0c-0.88072205 0 -1.5946808 -0.71395874 -1.5946808 -1.5946808z" fill-rule="evenodd"/><path fill="#e03027" d="m89.992386 154.25314l0 0c0 -0.9954529 0.8069763 -1.8024292 1.8024292 -1.8024292l7.209503 0l0 0c0.47803497 0 0.9364853 0.18989563 1.2745056 0.5279236c0.33802032 0.3380127 0.5279236 0.796463 0.5279236 1.2745056l0 20.362411c0 0.99546814 -0.8069763 1.8024292 -1.8024292 1.8024292l-7.209503 0c-0.9954529 0 -1.8024292 -0.80696106 -1.8024292 -1.8024292z" fill-rule="evenodd"/><path fill="#f73d35" d="m69.80004 122.341286l0 0c0 -0.9954529 0.8069763 -1.8024292 1.8024292 -1.8024292l7.209503 0l0 0c0.47803497 0 0.9364853 0.18989563 1.2745132 0.52791595c0.33802032 0.33802795 0.52791595 0.7964783 0.52791595 1.2745132l0 20.36242c0 0.9954529 -0.8069763 1.8024292 -1.8024292 1.8024292l-7.209503 0c-0.9954529 0 -1.8024292 -0.8069763 -1.8024292 -1.8024292z" fill-rule="evenodd"/><path fill="#fb5c4e" d="m188.37418 137.08492l0 0c0 -1.3997498 1.1347198 -2.5344849 2.5344696 -2.5344849l10.137619 0l0 0c0.67219543 0 1.3168488 0.2670288 1.7921448 0.7423401c0.47531128 0.47531128 0.7423401 1.1199646 0.7423401 1.7921448l0 22.24591c0 1.3997498 -1.1347198 2.5344696 -2.5344849 2.5344696l-10.137619 0c-1.3997498 0 -2.5344696 -1.1347198 -2.5344696 -2.5344696z" fill-rule="evenodd"/><path fill="#fb5c4e" d="m174.26268 136.35286l0 0c0 -0.9954529 0.8069763 -1.8024292 1.8024292 -1.8024292l7.209503 0l0 0c0.47802734 0 0.93647766 0.18991089 1.2745056 0.5279236c0.3380127 0.33802795 0.5279236 0.7964783 0.5279236 1.2745056l0 11.2812195c0 0.9954529 -0.8069763 1.8024292 -1.8024292 1.8024292l-7.209503 0c-0.9954529 0 -1.8024292 -0.8069763 -1.8024292 -1.8024292z" fill-rule="evenodd"/><path fill="#f73d35" d="m96.130615 113.90109l0 0c0 -0.8807144 0.71396637 -1.5946808 1.5946808 -1.5946808l37.25467 0c0.42294312 0 0.82855225 0.1680069 1.1276245 0.46707153c0.299057 0.29906464 0.46707153 0.70467377 0.46707153 1.1276093l0 6.3785553c0 0.8807144 -0.713974 1.5946808 -1.594696 1.5946808l-37.25467 0c-0.8807144 0 -1.5946808 -0.71396637 -1.5946808 -1.5946808z" fill-rule="evenodd"/><path fill="#f73d35" d="m121.577835 120.039314l0 0c0 -0.6938629 0.5624924 -1.2563553 1.2563553 -1.2563553l5.025284 0l0 0c0.3332138 0 0.65276337 0.13236237 0.8883743 0.36798096c0.23562622 0.23561096 0.36798096 0.55516815 0.36798096 0.8883743l0 7.0552063c0 0.6938629 -0.56248474 1.2563553 -1.2563553 1.2563553l-5.025284 0c-0.6938629 0 -1.2563553 -0.5624924 -1.2563553 -1.2563553z" fill-rule="evenodd"/><path fill="#fb5c4e" d="m114.45923 148.7055l0 0c0 -1.3997498 1.1347275 -2.5344849 2.5344849 -2.5344849l10.137619 0l0 0c0.6721878 0 1.3168335 0.2670288 1.7921448 0.7423401c0.47531128 0.47529602 0.7423401 1.1199646 0.7423401 1.7921448l0 10.137619c0 1.3997498 -1.1347351 2.5344849 -2.5344849 2.5344849l-10.137619 0c-1.3997574 0 -2.5344849 -1.1347351 -2.5344849 -2.5344849z" fill-rule="evenodd"/><path fill="#f73d35" d="m89.60955 196.57971l0 0c0 -1.3997498 1.1347275 -2.5344696 2.5344849 -2.5344696l10.137619 0l0 0c0.6721802 0 1.3168411 0.26701355 1.7921448 0.7423248c0.47530365 0.47531128 0.74233246 1.1199646 0.74233246 1.7921448l0 13.568298c0 1.399765 -1.1347275 2.5344849 -2.5344772 2.5344849l-10.137619 0c-1.3997574 0 -2.5344849 -1.1347198 -2.5344849 -2.5344849z" fill-rule="evenodd"/><path fill="#000000" fill-opacity="0.0" d="m21.700787 315.7533l266.29922 0l0 38.771637l-266.29922 0z" fill-rule="evenodd"/><path fill="#000000" d="m35.138287 328.11328l0 10.53125l-1.5 -1.46875l8.984375 0l0 2.9375l-10.796875 0l0 -12.0l3.3125 0zm8.677155 2.71875l1.65625 0.328125l1.625 -0.328125l0 9.28125l-3.28125 0l0 -9.28125zm1.640625 -0.75q-0.84375 0 -1.375 -0.421875q-0.53125 -0.421875 -0.53125 -1.15625q0 -0.734375 0.53125 -1.15625q0.53125 -0.4375 1.375 -0.4375q0.875 0 1.390625 0.4375q0.53125 0.421875 0.53125 1.15625q0 0.734375 -0.53125 1.15625q-0.515625 0.421875 -1.390625 0.421875zm9.290756 8.484375l-1.125 -0.015625l3.171875 -7.578125l3.484375 0l-4.265625 9.140625l-3.734375 0l-4.265625 -9.140625l3.609375 0l3.125 7.59375zm11.260029 1.796875q-1.65625 0 -2.9687538 -0.59375q-1.296875 -0.609375 -2.046875 -1.703125q-0.75 -1.109375 -0.75 -2.5625q0 -1.421875 0.71875 -2.5q0.71875 -1.078125 1.96875 -1.6875q1.2656288 -0.609375 2.8437538 -0.609375q1.640625 0 2.796875 0.71875q1.171875 0.703125 1.796875 2.0q0.640625 1.296875 0.640625 3.0625l-8.125004 0l0 -1.96875l6.281254 0l-1.0625 0.6875q-0.078125 -0.703125 -0.359375 -1.1875q-0.28125 -0.5 -0.765625 -0.75q-0.46875 -0.265625 -1.125 -0.265625q-0.71875 0 -1.234375 0.296875q-0.5 0.28125 -0.7968788 0.796875q-0.28125 0.5 -0.28125 1.171875q0 0.859375 0.390625 1.46875q0.3906288 0.59375 1.1406288 0.921875q0.765625 0.3125 1.875 0.3125q1.0 0 2.0 -0.265625q1.0 -0.265625 1.828125 -0.75l0 2.078125q-0.953125 0.640625 -2.171875 0.984375q-1.203125 0.34375 -2.59375 0.34375zm5.9147644 -9.390625l3.328125 0l0.546875 3.265625l0 5.875l-3.265625 0l0 -6.0625l-0.609375 -3.078125zm8.15625 -0.140625l0 2.78125q-0.484375 -0.09375 -0.90625 -0.125q-0.421875 -0.046875 -0.78125 -0.046875q-0.703125 0 -1.296875 0.28125q-0.578125 0.28125 -0.9375 0.921875q-0.359375 0.640625 -0.359375 1.703125l-0.625 -0.765625q0.125 -0.984375 0.375 -1.859375q0.265625 -0.875 0.703125 -1.546875q0.4375 -0.6875 1.09375 -1.078125q0.65625 -0.390625 1.59375 -0.390625q0.28125 0 0.5625 0.03125q0.296875 0.03125 0.578125 0.09375z" fill-rule="nonzero"/><path fill="#000000" d="m88.68419 336.95703q0 -0.84375 0.171875 -1.765625q0.171875 -0.921875 0.46875 -1.78125q0.3125 -0.875 0.703125 -1.515625l0.859375 0q-0.40625 0.8125 -0.703125 1.703125q-0.296875 0.875 -0.453125 1.75q-0.15625 0.859375 -0.15625 1.609375q0 0.671875 0.140625 1.390625q0.140625 0.703125 0.421875 1.5q0.296875 0.78125 0.75 1.71875l-0.859375 0q-0.671875 -1.125 -1.015625 -2.296875q-0.328125 -1.171875 -0.328125 -2.3125z" fill-rule="nonzero"/><path fill="#000000" d="m95.70973 332.36328l0 7.75l-1.609375 0l0 -7.75l1.609375 0zm0.9454193 7.75l0 -5.8125l1.609375 0l0 5.8125l-1.609375 0zm0.8125 -6.5625q-0.359375 0 -0.625 -0.234375q-0.25 -0.25 -0.25 -0.578125q0 -0.34375 0.25 -0.578125q0.265625 -0.234375 0.625 -0.234375q0.359375 0 0.609375 0.234375q0.265625 0.234375 0.265625 0.578125q0 0.328125 -0.265625 0.578125q-0.25 0.234375 -0.609375 0.234375zm7.1641693 0.75l-2.03125 5.8125l-1.828125 0l-2.015625 -5.8125l1.703125 0l1.21875 4.15625l0.0625 0l1.203125 -4.15625l1.6875 0z" fill-rule="nonzero"/><path fill="#000000" d="m109.88403 338.6914q-0.453125 0 -0.84375 -0.21875q-0.375 -0.234375 -0.609375 -0.609375q-0.21875 -0.390625 -0.21875 -0.84375q0 -0.453125 0.21875 -0.828125q0.234375 -0.390625 0.609375 -0.609375q0.390625 -0.21875 0.84375 -0.21875q0.453125 0 0.828125 0.21875q0.390625 0.21875 0.609375 0.609375q0.21875 0.375 0.21875 0.828125q0 0.453125 -0.21875 0.84375q-0.21875 0.375 -0.609375 0.609375q-0.375 0.21875 -0.828125 0.21875zm8.977051 -0.953125l0 -3.4375l0.890625 0l0 5.8125l-0.890625 0l0 -0.984375l-0.0625 0q-0.203125 0.4375 -0.640625 0.75q-0.421875 0.3125 -1.078125 0.3125q-0.546875 0 -0.96875 -0.234375q-0.421875 -0.25 -0.671875 -0.734375q-0.234375 -0.484375 -0.234375 -1.234375l0 -3.6875l0.875 0l0 3.640625q0 0.625 0.359375 1.015625q0.375 0.375 0.921875 0.359375q0.328125 0 0.671875 -0.15625q0.359375 -0.171875 0.59375 -0.515625q0.234375 -0.359375 0.234375 -0.90625zm2.9111023 -1.125l0 3.5l-0.875 0l0 -7.75l0.875 0l0 2.84375l0.09375 0q0.203125 -0.453125 0.609375 -0.71875q0.40625 -0.265625 1.09375 -0.265625q0.59375 0 1.03125 0.234375q0.453125 0.234375 0.703125 0.734375q0.25 0.484375 0.25 1.234375l0 3.6875l-0.890625 0l0 -3.625q0 -0.703125 -0.359375 -1.078125q-0.359375 -0.390625 -1.0 -0.390625q-0.4375 0 -0.78125 0.1875q-0.34375 0.1875 -0.546875 0.546875q-0.203125 0.359375 -0.203125 0.859375zm4.6036987 4.953125q0.453125 -0.9375 0.734375 -1.71875q0.296875 -0.796875 0.4375 -1.5q0.140625 -0.71875 0.140625 -1.390625q0 -0.75 -0.15625 -1.609375q-0.15625 -0.875 -0.453125 -1.75q-0.296875 -0.890625 -0.703125 -1.703125l0.859375 0q0.40625 0.640625 0.703125 1.515625q0.296875 0.859375 0.46875 1.78125q0.171875 0.921875 0.171875 1.765625q0 1.140625 -0.34375 2.3125q-0.328125 1.171875 -1.0 2.296875l-0.859375 0z" fill-rule="nonzero"/></g></svg>