<svg version="1.1" viewBox="0.0 0.0 768.0 96.0" fill="none" stroke="none" stroke-linecap="square" stroke-miterlimit="10" xmlns:xlink="http://www.w3.org/1999/xlink" xmlns="http://www.w3.org/2000/svg"><clipPath id="g3b25f17da62_0_60.0"><path d="m0 0l768.0 0l0 96.0l-768.0 0l0 -96.0z" clip-rule="nonzero"/></clipPath><g clip-path="url(#g3b25f17da62_0_60.0)"><path fill="#ffffff" d="m0 0l768.0 0l0 96.0l-768.0 0z" fill-rule="evenodd"/><path fill="#3b4652" d="m7.4015746 27.722761l0 0c0 -2.282156 1.8500533 -4.13221 4.1322093 -4.13221l744.9324 0c1.0959473 0 2.1469727 0.43535614 2.921936 1.2102966c0.7749634 0.7749386 1.2103271 1.825983 1.2103271 2.9219131l0 55.074165c0 2.2821503 -1.8500977 4.132202 -4.132263 4.132202l-744.9324 0c-2.282156 0 -4.1322093 -1.8500519 -4.1322093 -4.132202z" fill-rule="evenodd"/><path stroke="#3b4652" stroke-width="4.0" stroke-linejoin="round" stroke-linecap="butt" d="m7.4015746 27.722761l0 0c0 -2.282156 1.8500533 -4.13221 4.1322093 -4.13221l744.9324 0c1.0959473 0 2.1469727 0.43535614 2.921936 1.2102966c0.7749634 0.7749386 1.2103271 1.825983 1.2103271 2.9219131l0 55.074165c0 2.2821503 -1.8500977 4.132202 -4.132263 4.132202l-744.9324 0c-2.282156 0 -4.1322093 -1.8500519 -4.1322093 -4.132202z" fill-rule="evenodd"/><path fill="#ffffff" d="m7.4015746 20.274122l0 0c0 -2.569271 2.0828052 -4.652075 4.6520743 -4.652075l743.8927 0c1.2338257 0 2.4170532 0.49012756 3.2894897 1.3625603c0.8724365 0.8724346 1.3626099 2.055708 1.3626099 3.2895145l0 62.002937c0 2.5692673 -2.0828247 4.652069 -4.6520996 4.652069l-743.8927 0c-2.5692692 0 -4.6520743 -2.0828018 -4.6520743 -4.652069z" fill-rule="evenodd"/><path stroke="#d0d1d2" stroke-width="4.0" stroke-linejoin="round" stroke-linecap="butt" d="m7.4015746 20.274122l0 0c0 -2.569271 2.0828052 -4.652075 4.6520743 -4.652075l743.8927 0c1.2338257 0 2.4170532 0.49012756 3.2894897 1.3625603c0.8724365 0.8724346 1.3626099 2.055708 1.3626099 3.2895145l0 62.002937c0 2.5692673 -2.0828247 4.652069 -4.6520996 4.652069l-743.8927 0c-2.5692692 0 -4.6520743 -2.0828018 -4.6520743 -4.652069z" fill-rule="evenodd"/><path fill="#d0d1d2" d="m346.90018 43.74246l0 13.078125l-1.109375 -1.078125l10.6875 0l0 2.1875l-12.0625 0l0 -14.1875l2.484375 0zm16.620758 14.453125q-1.9375 0 -3.40625 -0.703125q-1.46875 -0.71875 -2.296875 -1.984375q-0.8125 -1.265625 -0.8125 -2.921875q0 -1.6875 0.8125 -2.9375q0.828125 -1.265625 2.296875 -1.96875q1.46875 -0.71875 3.40625 -0.71875q1.953125 0 3.40625 0.71875q1.46875 0.703125 2.296875 1.96875q0.828125 1.25 0.828125 2.9375q0 1.65625 -0.828125 2.921875q-0.828125 1.265625 -2.296875 1.984375q-1.453125 0.703125 -3.40625 0.703125zm0 -1.921875q1.25 0 2.140625 -0.453125q0.90625 -0.46875 1.390625 -1.28125q0.5 -0.828125 0.5 -1.953125q0 -1.140625 -0.5 -1.953125q-0.484375 -0.828125 -1.390625 -1.28125q-0.890625 -0.453125 -2.140625 -0.453125q-1.21875 0 -2.140625 0.453125q-0.90625 0.453125 -1.40625 1.28125q-0.484375 0.8125 -0.484375 1.953125q0 1.125 0.484375 1.953125q0.5 0.8125 1.40625 1.28125q0.921875 0.453125 2.140625 0.453125zm20.350708 -2.5625q-0.1875 1.328125 -1.046875 2.34375q-0.84375 1.0 -2.171875 1.578125q-1.328125 0.5625 -2.953125 0.5625q-1.84375 0 -3.265625 -0.703125q-1.40625 -0.71875 -2.203125 -1.984375q-0.78125 -1.265625 -0.78125 -2.921875q0 -1.671875 0.78125 -2.9375q0.796875 -1.265625 2.203125 -1.96875q1.421875 -0.71875 3.265625 -0.71875q1.625 0 2.953125 0.578125q1.328125 0.5625 2.171875 1.578125q0.859375 1.0 1.046875 2.34375l-2.484375 0q-0.265625 -1.203125 -1.265625 -1.875q-1.0 -0.6875 -2.421875 -0.6875q-1.125 0 -1.984375 0.4375q-0.84375 0.4375 -1.3125 1.265625q-0.46875 0.828125 -0.46875 1.984375q0 1.125 0.46875 1.96875q0.46875 0.828125 1.3125 1.28125q0.859375 0.4375 1.984375 0.4375q1.4375 0 2.4375 -0.703125q1.015625 -0.703125 1.25 -1.859375l2.484375 0zm4.328827 2.078125l-0.71875 -0.265625l6.796875 -8.296875l2.84375 0l-9.09375 10.703125l-2.296875 0l0 -14.5625l2.46875 0l0 12.421875zm3.046875 -3.15625l1.71875 -1.546875l4.46875 6.84375l-2.890625 0l-3.296875 -5.296875zm12.749481 5.5625q-1.859375 0 -3.328125 -0.703125q-1.453125 -0.71875 -2.28125 -1.984375q-0.828125 -1.265625 -0.828125 -2.953125q0 -1.65625 0.78125 -2.90625q0.78125 -1.265625 2.171875 -1.96875q1.390625 -0.71875 3.1875 -0.71875q1.796875 0 3.109375 0.8125q1.3125 0.796875 2.03125 2.25q0.71875 1.453125 0.71875 3.421875l-10.078125 0l0 -1.875l8.84375 0l-1.21875 0.703125q-0.0625 -1.0625 -0.515625 -1.8125q-0.4375 -0.75 -1.1875 -1.15625q-0.734375 -0.40625 -1.765625 -0.40625q-1.078125 0 -1.875 0.4375q-0.796875 0.421875 -1.265625 1.21875q-0.453125 0.78125 -0.453125 1.859375q0 1.1875 0.53125 2.0625q0.546875 0.859375 1.546875 1.328125q1.0 0.46875 2.359375 0.46875q1.21875 0 2.5 -0.390625q1.296875 -0.390625 2.28125 -1.09375l0 1.78125q-0.984375 0.75 -2.390625 1.1875q-1.40625 0.4375 -2.875 0.4375zm17.610992 -0.265625l-0.421875 -4.0625l0.546875 -1.265625l-0.53125 -1.453125l0.796875 -7.78125l2.53125 0l-0.953125 9.0625l0.546875 5.5l-2.515625 0zm0.71875 -5.34375q-0.359375 1.671875 -1.203125 2.9375q-0.828125 1.265625 -2.046875 1.96875q-1.21875 0.703125 -2.703125 0.703125q-1.578125 0 -2.796875 -0.703125q-1.203125 -0.71875 -1.890625 -1.984375q-0.671875 -1.265625 -0.671875 -2.921875q0 -1.6875 0.671875 -2.9375q0.6875 -1.265625 1.890625 -1.96875q1.21875 -0.71875 2.796875 -0.71875q1.484375 0 2.703125 0.703125q1.21875 0.703125 2.0625 1.96875q0.84375 1.25 1.1875 2.953125zm-8.8125 0q0 1.078125 0.4375 1.90625q0.453125 0.8125 1.21875 1.28125q0.78125 0.453125 1.78125 0.453125q1.015625 0 1.890625 -0.453125q0.875 -0.46875 1.546875 -1.28125q0.671875 -0.828125 1.0625 -1.90625q-0.390625 -1.078125 -1.0625 -1.90625q-0.671875 -0.828125 -1.546875 -1.28125q-0.875 -0.46875 -1.890625 -0.46875q-1.0 0 -1.78125 0.46875q-0.765625 0.453125 -1.21875 1.28125q-0.4375 0.828125 -0.4375 1.90625z" fill-rule="nonzero"/></g></svg>