<svg version="1.1" viewBox="0.0 0.0 288.0 384.0" fill="none" stroke="none" stroke-linecap="square" stroke-miterlimit="10" xmlns:xlink="http://www.w3.org/1999/xlink" xmlns="http://www.w3.org/2000/svg"><clipPath id="g3af56054db1_0_84.0"><path d="m0 0l288.0 0l0 384.0l-288.0 0l0 -384.0z" clip-rule="nonzero"/></clipPath><g clip-path="url(#g3af56054db1_0_84.0)"><path fill="#161d25" d="m0 0l288.0 0l0 384.0l-288.0 0z" fill-rule="evenodd"/><path fill="#3b4652" d="m5.7007875 34.135216l0 0c0 -9.966135 8.079147 -18.045282 18.04528 -18.045282l240.50787 0c4.7858887 0 9.375793 1.9011936 12.759949 5.2853394c3.3841248 3.3841476 5.2853394 7.9740353 5.2853394 12.759943l0 324.2244c0 9.9661255 -8.079163 18.045288 -18.045288 18.045288l-240.50787 0l0 0c-9.966134 0 -18.04528 -8.079163 -18.04528 -18.045288z" fill-rule="evenodd"/><path stroke="#3b4652" stroke-width="4.0" stroke-linejoin="round" stroke-linecap="butt" d="m5.7007875 34.135216l0 0c0 -9.966135 8.079147 -18.045282 18.04528 -18.045282l240.50787 0c4.7858887 0 9.375793 1.9011936 12.759949 5.2853394c3.3841248 3.3841476 5.2853394 7.9740353 5.2853394 12.759943l0 324.2244c0 9.9661255 -8.079163 18.045288 -18.045288 18.045288l-240.50787 0l0 0c-9.966134 0 -18.04528 -8.079163 -18.04528 -18.045288z" fill-rule="evenodd"/><path fill="#161d25" d="m5.7007875 25.639769l0 0c0 -9.966133 8.079147 -18.04528 18.04528 -18.04528l240.50787 0c4.7858887 0 9.375793 1.9011936 12.759949 5.2853403c3.3841248 3.3841467 5.2853394 7.9740343 5.2853394 12.75994l0 324.2244c0 9.9661255 -8.079163 18.045288 -18.045288 18.045288l-240.50787 0l0 0c-9.966134 0 -18.04528 -8.079163 -18.04528 -18.045288z" fill-rule="evenodd"/><path stroke="#3b4652" stroke-width="4.0" stroke-linejoin="round" stroke-linecap="butt" d="m5.7007875 25.639769l0 0c0 -9.966133 8.079147 -18.04528 18.04528 -18.04528l240.50787 0c4.7858887 0 9.375793 1.9011936 12.759949 5.2853403c3.3841248 3.3841467 5.2853394 7.9740343 5.2853394 12.75994l0 324.2244c0 9.9661255 -8.079163 18.045288 -18.045288 18.045288l-240.50787 0l0 0c-9.966134 0 -18.04528 -8.079163 -18.04528 -18.045288z" fill-rule="evenodd"/><path fill="#000000" fill-opacity="0.0" d="m21.700787 315.7533l203.30708 0l0 38.771637l-203.30708 0z" fill-rule="evenodd"/><path fill="#ffffff" d="m35.138287 328.11328l0 10.53125l-1.5 -1.46875l8.984375 0l0 2.9375l-10.796875 0l0 -12.0l3.3125 0zm12.406662 12.25q-1.28125 0 -2.1875 -0.515625q-0.890625 -0.53125 -1.375 -1.5q-0.484375 -0.96875 -0.484375 -2.265625l0 -5.109375l3.265625 0l0 4.640625q0 1.015625 0.5 1.5625q0.5 0.53125 1.421875 0.53125q0.6875 0 1.140625 -0.265625q0.46875 -0.28125 0.71875 -0.8125q0.265625 -0.53125 0.265625 -1.265625l1.015625 0.53125q-0.1875 1.453125 -0.796875 2.453125q-0.609375 1.0 -1.515625 1.515625q-0.890625 0.5 -1.96875 0.5zm3.859375 -0.25l-0.59375 -3.65625l0 -5.484375l3.265625 0l0 5.984375l0.59375 3.15625l-3.265625 0zm4.213272 -9.140625l3.28125 0l0.59375 3.65625l0 5.484375l-3.265625 0l0 -5.984375l-0.609375 -3.15625zm7.234375 -0.265625q1.3125038 0 2.2343788 0.53125q0.921875 0.515625 1.40625 1.484375q0.5 0.953125 0.5 2.265625l0 5.125l-3.2656288 0l0 -4.640625q0 -1.015625 -0.53125 -1.5625q-0.515625 -0.546875 -1.484375 -0.546875q-0.671875 0 -1.1875 0.296875q-0.5 0.28125 -0.765625 0.8125q-0.265625 0.515625 -0.265625 1.234375l-1.015625 -0.515625q0.1875 -1.46875 0.8125 -2.46875q0.625 -1.0 1.53125 -1.5q0.921875 -0.515625 2.03125 -0.515625zm13.795902 7.109375l0 -1.5625l0.109375 -0.375l0 -2.25l-0.109375 -0.328125l0 -2.328125l3.265625 0l0 6.703125q0 1.6875 -0.78125 2.875q-0.78125 1.203125 -2.1875 1.828125q-1.390625 0.625 -3.296875 0.625q-1.265625 0 -2.34375 -0.328125q-1.078125 -0.328125 -2.15625 -0.96875l0 -2.453125q1.0 0.734375 2.09375 1.0625q1.09375 0.328125 2.1875 0.328125q1.578125 0 2.390625 -0.671875q0.828125 -0.671875 0.828125 -2.15625zm-3.921875 1.34375q-1.296875 0 -2.3125 -0.53125q-1.0 -0.53125 -1.578125 -1.484375q-0.578125 -0.953125 -0.578125 -2.21875q0 -1.28125 0.578125 -2.21875q0.578125 -0.953125 1.578125 -1.46875q1.015625 -0.53125 2.3125 -0.53125q0.96875 0 1.765625 0.296875q0.796875 0.296875 1.421875 0.78125q0.625 0.484375 1.046875 1.0625q0.421875 0.5625 0.640625 1.125q0.234375 0.5625 0.234375 0.984375q0 0.59375 -0.34375 1.3125q-0.34375 0.71875 -1.0 1.375q-0.65625 0.65625 -1.609375 1.09375q-0.953125 0.421875 -2.15625 0.421875zm1.109375 -2.234375q0.953125 0 1.6875 -0.484375q0.734375 -0.5 1.234375 -1.515625q-0.515625 -1.015625 -1.265625 -1.5q-0.734375 -0.5 -1.65625 -0.5q-0.703125 0 -1.234375 0.25q-0.515625 0.234375 -0.78125 0.6875q-0.265625 0.453125 -0.265625 1.0625q0 0.59375 0.265625 1.046875q0.265625 0.453125 0.78125 0.703125q0.515625 0.25 1.234375 0.25zm18.429901 0.21875q0 1.046875 -0.640625 1.765625q-0.640625 0.71875 -1.828125 1.09375q-1.171875 0.359375 -2.84375 0.359375q-1.703125 0 -3.0 -0.40625q-1.28125 -0.421875 -2.0 -1.171875q-0.71875 -0.75 -0.765625 -1.75l3.3125 0q0.109375 0.375 0.4375 0.640625q0.328125 0.265625 0.859375 0.40625q0.546875 0.125 1.296875 0.125q0.984375 0 1.484375 -0.1875q0.5 -0.1875 0.5 -0.578125q0 -0.296875 -0.390625 -0.453125q-0.375 -0.15625 -1.296875 -0.234375l-1.625 -0.125q-1.609375 -0.109375 -2.5625 -0.484375q-0.953125 -0.390625 -1.375 -0.984375q-0.40625 -0.59375 -0.40625 -1.359375q0 -1.046875 0.640625 -1.71875q0.65625 -0.6875 1.8125 -1.03125q1.15625 -0.34375 2.71875 -0.34375q1.53125 0 2.734375 0.40625q1.203125 0.390625 1.921875 1.109375q0.71875 0.703125 0.828125 1.671875l-3.3125 0q-0.078125 -0.3125 -0.359375 -0.5625q-0.265625 -0.25 -0.75 -0.40625q-0.46875 -0.15625 -1.234375 -0.15625q-0.875 0 -1.328125 0.203125q-0.453125 0.1875 -0.453125 0.53125q0 0.265625 0.28125 0.4375q0.28125 0.15625 1.046875 0.21875l2.125 0.15625q1.578125 0.09375 2.484375 0.46875q0.921875 0.359375 1.296875 0.953125q0.390625 0.578125 0.390625 1.40625z" fill-rule="nonzero"/><path fill="#ffffff" d="m101.13222 336.95703q0 -0.84375 0.171875 -1.765625q0.171875 -0.921875 0.46875 -1.78125q0.3125 -0.875 0.703125 -1.515625l0.859375 0q-0.40625 0.8125 -0.703125 1.703125q-0.296875 0.875 -0.453125 1.75q-0.15625 0.859375 -0.15625 1.609375q0 0.671875 0.140625 1.390625q0.140625 0.703125 0.421875 1.5q0.296875 0.78125 0.75 1.71875l-0.859375 0q-0.671875 -1.125 -1.015625 -2.296875q-0.328125 -1.171875 -0.328125 -2.3125zm6.400543 -4.59375l0 7.75l-0.875 0l0 -7.75l0.875 0zm4.8105164 5.375l0 -3.4375l0.890625 0l0 5.8125l-0.890625 0l0 -0.984375l-0.0625 0q-0.203125 0.4375 -0.640625 0.75q-0.421875 0.3125 -1.078125 0.3125q-0.546875 0 -0.96875 -0.234375q-0.421875 -0.25 -0.671875 -0.734375q-0.234375 -0.484375 -0.234375 -1.234375l0 -3.6875l0.875 0l0 3.640625q0 0.625 0.359375 1.015625q0.375 0.375 0.921875 0.359375q0.328125 0 0.671875 -0.15625q0.359375 -0.171875 0.59375 -0.515625q0.234375 -0.359375 0.234375 -0.90625zm2.9111023 -1.125l0 3.5l-0.875 0l0 -7.75l0.875 0l0 2.84375l0.09375 0q0.203125 -0.453125 0.609375 -0.71875q0.40625 -0.265625 1.09375 -0.265625q0.59375 0 1.03125 0.234375q0.453125 0.234375 0.703125 0.734375q0.25 0.484375 0.25 1.234375l0 3.6875l-0.890625 0l0 -3.625q0 -0.703125 -0.359375 -1.078125q-0.359375 -0.390625 -1.0 -0.390625q-0.4375 0 -0.78125 0.1875q-0.34375 0.1875 -0.546875 0.546875q-0.203125 0.359375 -0.203125 0.859375zm5.8068237 0l0 3.5l-0.875 0l0 -5.8125l0.84375 0l0 0.90625l0.09375 0q0.203125 -0.4375 0.609375 -0.703125q0.421875 -0.28125 1.078125 -0.28125q0.59375 0 1.03125 0.25q0.4375 0.234375 0.6875 0.71875q0.25 0.484375 0.25 1.234375l0 3.6875l-0.890625 0l0 -3.625q0 -0.6875 -0.359375 -1.078125q-0.359375 -0.390625 -0.96875 -0.390625q-0.421875 0 -0.765625 0.1875q-0.34375 0.1875 -0.546875 0.546875q-0.1875 0.359375 -0.1875 0.859375zm7.19751 5.796875q-0.96875 0 -1.53125 -0.359375q-0.5625 -0.34375 -0.828125 -0.796875l0.703125 -0.5q0.125 0.15625 0.3125 0.359375q0.1875 0.203125 0.5 0.359375q0.328125 0.15625 0.84375 0.15625q0.703125 0 1.15625 -0.34375q0.46875 -0.34375 0.46875 -1.0625l0 -1.1875l-0.078125 0q-0.09375 0.15625 -0.28125 0.390625q-0.171875 0.234375 -0.515625 0.421875q-0.328125 0.171875 -0.90625 0.171875q-0.6875 0 -1.25 -0.328125q-0.5625 -0.34375 -0.890625 -0.96875q-0.3125 -0.640625 -0.3125 -1.546875q0 -0.890625 0.3125 -1.546875q0.3125 -0.671875 0.875 -1.03125q0.5625 -0.375 1.296875 -0.375q0.5625 0 0.890625 0.1875q0.34375 0.1875 0.515625 0.421875q0.1875 0.234375 0.28125 0.390625l0.09375 0l0 -0.921875l0.859375 0l0 5.984375q0 0.75 -0.34375 1.21875q-0.328125 0.46875 -0.90625 0.6875q-0.5625 0.21875 -1.265625 0.21875zm-0.03125 -3.1875q0.8125 0 1.234375 -0.546875q0.4375 -0.546875 0.4375 -1.515625q0 -0.625 -0.1875 -1.109375q-0.1875 -0.484375 -0.5625 -0.75q-0.375 -0.28125 -0.921875 -0.28125q-0.5625 0 -0.9375 0.296875q-0.375 0.28125 -0.5625 0.765625q-0.1875 0.484375 -0.1875 1.078125q0 0.59375 0.1875 1.0625q0.1875 0.46875 0.5625 0.734375q0.390625 0.265625 0.9375 0.265625zm3.5253906 0.890625l0 -0.671875l3.296875 -4.25l0 -0.0625l-3.1875 0l0 -0.828125l4.328125 0l0 0.71875l-3.203125 4.203125l0 0.0625l3.3125 0l0 0.828125l-4.546875 0zm7.6069946 1.453125q0.453125 -0.9375 0.734375 -1.71875q0.296875 -0.796875 0.4375 -1.5q0.140625 -0.71875 0.140625 -1.390625q0 -0.75 -0.15625 -1.609375q-0.15625 -0.875 -0.453125 -1.75q-0.296875 -0.890625 -0.703125 -1.703125l0.859375 0q0.40625 0.640625 0.703125 1.515625q0.296875 0.859375 0.46875 1.78125q0.171875 0.921875 0.171875 1.765625q0 1.140625 -0.34375 2.3125q-0.328125 1.171875 -1.0 2.296875l-0.859375 0z" fill-rule="nonzero"/><path fill="#3b4652" d="m181.55728 240.19035l0 0c0 -1.437088 1.1649933 -2.6020813 2.6020813 -2.6020813l28.867905 0c0.6901245 0 1.3519745 0.2741394 1.8399506 0.76213074c0.48799133 0.48799133 0.76213074 1.1498413 0.76213074 1.8399506l0 10.408035c0 1.437088 -1.1649933 2.6020813 -2.6020813 2.6020813l-28.867905 0c-1.437088 0 -2.6020813 -1.1649933 -2.6020813 -2.6020813z" fill-rule="evenodd"/><path fill="#3b4652" d="m88.05629 236.20126l0 0c0 -1.0852966 0.8797989 -1.9650879 1.9650955 -1.9650879l36.661537 0c0.5211792 0 1.0210114 0.20703125 1.3895416 0.5755615c0.368515 0.368515 0.5755615 0.86834717 0.5755615 1.3895264l0 7.860153c0 1.0852814 -0.8798065 1.9650879 -1.9651031 1.9650879l-36.661537 0c-1.0852966 0 -1.9650955 -0.8798065 -1.9650955 -1.9650879z" fill-rule="evenodd"/><path fill="#3b4652" d="m134.419 138.8766l0 0c0 -1.6210327 1.3141022 -2.9351501 2.9351501 -2.9351501l29.35083 0c0.7784424 0 1.5250092 0.30923462 2.07547 0.8596802c0.55044556 0.5504608 0.8596802 1.2970276 0.8596802 2.07547l0 11.740265c0 1.6210327 -1.3141174 2.9351501 -2.9351501 2.9351501l-29.35083 0c-1.621048 0 -2.9351501 -1.3141174 -2.9351501 -2.9351501z" fill-rule="evenodd"/><path fill="#3b4652" d="m136.86673 144.69334l0 0c0 -0.9818115 0.79592896 -1.7777405 1.7777405 -1.7777405l34.188583 0c0.47148132 0 0.9236603 0.18730164 1.2570496 0.5206909c0.33340454 0.33338928 0.5206909 0.78556824 0.5206909 1.2570496l0 7.110779c0 0.9818115 -0.7959137 1.7777405 -1.7777405 1.7777405l-34.188583 0c-0.9818115 0 -1.7777405 -0.79592896 -1.7777405 -1.7777405z" fill-rule="evenodd"/><path fill="#3b4652" d="m143.79309 93.04949l0 0c0 -1.515274 1.228363 -2.7436447 2.743637 -2.7436447l10.974228 0l0 0c0.72766113 0 1.4255219 0.2890625 1.9400482 0.8035965c0.51452637 0.514534 0.80358887 1.2123871 0.80358887 1.9400482l0 42.99798c0 1.515274 -1.228363 2.743637 -2.743637 2.743637l-10.974228 0c-1.515274 0 -2.743637 -1.228363 -2.743637 -2.743637z" fill-rule="evenodd"/><path fill="#3b4652" d="m101.706856 128.59422l0 0c0 -3.4743118 2.8164825 -6.290802 6.290802 -6.290802l25.162453 0l0 0c1.6684265 0 3.2685242 0.66278076 4.4482727 1.8425369c1.1797638 1.1797562 1.8425293 2.7798462 1.8425293 4.448265l0 27.685394c0 3.4743195 -2.8164825 6.290802 -6.290802 6.290802l-25.162453 0l0 0c-3.4743195 0 -6.290802 -2.8164825 -6.290802 -6.290802z" fill-rule="evenodd"/><path fill="#3b4652" d="m77.78105 168.10005l0 0c0 -6.272629 5.0849686 -11.35759 11.35759 -11.35759l45.42897 0l0 0c3.0122223 0 5.9010773 1.1965942 8.031036 3.3265533c2.129959 2.129959 3.3265533 5.018814 3.3265533 8.031036l0 60.541595c0 6.2726135 -5.084961 11.357574 -11.35759 11.357574l-45.42897 0c-6.272621 0 -11.35759 -5.084961 -11.35759 -11.357574z" fill-rule="evenodd"/><path fill="#3b4652" d="m164.59071 129.36977l0 0c0 -2.7960129 2.2666016 -5.062622 5.062622 -5.062622l20.249863 0l0 0c1.3426819 0 2.6303864 0.5333786 3.5798187 1.4828033c0.9494171 0.94942474 1.4828033 2.2371216 1.4828033 3.5798187l0 28.19336c0 2.7960052 -2.2666168 5.062607 -5.062622 5.062607l-20.249863 0c-2.7960205 0 -5.062622 -2.2666016 -5.062622 -5.062607z" fill-rule="evenodd"/><path fill="#3b4652" d="m158.05962 167.48198l0 0c0 -6.2726135 5.084961 -11.357574 11.35759 -11.357574l45.42897 0l0 0c3.0122223 0 5.9010773 1.1965942 8.031036 3.3265533c2.129959 2.129959 3.3265533 5.018814 3.3265533 8.031021l0 67.56085c0 6.2726135 -5.084961 11.357574 -11.35759 11.357574l-45.42897 0c-6.272629 0 -11.35759 -5.084961 -11.35759 -11.357574z" fill-rule="evenodd"/><path fill="#3b4652" d="m154.45529 91.2759l0 0c0 -0.5357437 0.4343109 -0.9700546 0.97006226 -0.9700546l3.8801117 0l0 0c0.25727844 0 0.50401306 0.10220337 0.68592834 0.28411865c0.18193054 0.18192291 0.2841339 0.42866516 0.2841339 0.685936l0 38.32688c0 0.53575134 -0.4343109 0.97006226 -0.97006226 0.97006226l-3.8801117 0c-0.53575134 0 -0.97006226 -0.4343109 -0.97006226 -0.97006226z" fill-rule="evenodd"/><path fill="#3b4652" d="m109.70927 186.17305l0 0c0 -0.87835693 0.71204376 -1.5903931 1.5903931 -1.5903931l28.243462 0c0.4217987 0 0.82632446 0.16755676 1.1245728 0.46580505c0.29826355 0.29826355 0.4658203 0.7027893 0.4658203 1.124588l0 6.361389c0 0.87835693 -0.7120514 1.5903931 -1.5903931 1.5903931l-28.243462 0c-0.8783493 0 -1.5903931 -0.71203613 -1.5903931 -1.5903931z" fill-rule="evenodd"/><path fill="#3b4652" d="m115.51099 204.51474l0 0c0 -0.6599121 0.5349655 -1.1948853 1.1948776 -1.1948853l17.419014 0c0.31689453 0 0.6208191 0.12588501 0.84490967 0.3499756c0.22407532 0.22407532 0.34996033 0.5279999 0.34996033 0.84490967l0 4.779358c0 0.65992737 -0.5349579 1.1948853 -1.19487 1.1948853l-17.419014 0l0 0c-0.6599121 0 -1.1948776 -0.5349579 -1.1948776 -1.1948853z" fill-rule="evenodd"/><path fill="#3b4652" d="m88.322685 210.25563l0 0c0 -1.0852966 0.8798065 -1.9650879 1.9650955 -1.9650879l9.458839 0c0.52117157 0 1.0210037 0.20703125 1.389534 0.5755615c0.36852264 0.36853027 0.5755615 0.86834717 0.5755615 1.3895264l0 7.860153c0 1.0852814 -0.8798065 1.9650879 -1.9650955 1.9650879l-9.458839 0c-1.085289 0 -1.9650955 -0.8798065 -1.9650955 -1.9650879z" fill-rule="evenodd"/><path fill="#3b4652" d="m83.41626 171.73729l0 0c0 -1.515274 1.228363 -2.743637 2.743637 -2.743637l10.974228 0l0 0c0.72766113 0 1.4255142 0.2890625 1.9400482 0.80358887c0.514534 0.51452637 0.80358887 1.2123871 0.80358887 1.9400482l0 17.743683c0 1.515274 -1.228363 2.743637 -2.743637 2.743637l-10.974228 0c-1.515274 0 -2.743637 -1.228363 -2.743637 -2.743637z" fill-rule="evenodd"/><path fill="#3b4652" d="m165.55576 179.6959l0 0c0 -1.3359222 1.0829926 -2.4188995 2.4188995 -2.4188995l9.675308 0l0 0c0.6415405 0 1.2567902 0.2548523 1.7104187 0.70848083c0.4536438 0.45362854 0.70848083 1.0688782 0.70848083 1.7104187l0 23.588898c0 1.3359222 -1.0829773 2.4188995 -2.4188995 2.4188995l-9.675308 0c-1.335907 0 -2.4188995 -1.0829773 -2.4188995 -2.4188995z" fill-rule="evenodd"/><path fill="#3b4652" d="m191.79567 187.1214l0 0c0 -1.3359222 1.0829773 -2.4188995 2.4188995 -2.4188995l9.675308 0l0 0c0.64152527 0 1.2567902 0.2548523 1.7104187 0.70848083c0.45362854 0.4536438 0.70848083 1.0688934 0.70848083 1.7104187l0 23.588913c0 1.3359222 -1.0829773 2.4188995 -2.4188995 2.4188995l-9.675308 0c-1.3359222 0 -2.4188995 -1.0829773 -2.4188995 -2.4188995z" fill-rule="evenodd"/><path fill="#3b4652" d="m169.14922 217.38309l0 0c0 -1.1772614 0.9543762 -2.1316223 2.1316376 -2.1316223l10.249847 0c0.56533813 0 1.1075287 0.22457886 1.5072937 0.6243286c0.39974976 0.399765 0.6243286 0.94195557 0.6243286 1.5072937l0 8.52626c0 1.1772614 -0.95436096 2.1316223 -2.1316223 2.1316223l-10.249847 0c-1.1772614 0 -2.1316376 -0.95436096 -2.1316376 -2.1316223z" fill-rule="evenodd"/><path fill="#3b4652" d="m106.900055 132.44414l0 0c0 -1.0370026 0.8406601 -1.8776703 1.8776627 -1.8776703l7.510437 0l0 0c0.49798584 0 0.9755783 0.1978302 1.327713 0.5499573c0.35212708 0.35212708 0.54994965 0.8297272 0.54994965 1.327713l0 13.85524c0 1.0370026 -0.84065247 1.877655 -1.8776627 1.877655l-7.510437 0c-1.0370026 0 -1.8776627 -0.84065247 -1.8776627 -1.877655z" fill-rule="evenodd"/><path fill="#3b4652" d="m177.95532 143.16995l0 0c0 -1.1243744 0.911499 -2.0358734 2.0358734 -2.0358734l8.1432495 0l0 0c0.5399475 0 1.0577698 0.2144928 1.4395752 0.5962982c0.38180542 0.38180542 0.5962982 0.8996277 0.5962982 1.4395752l0 15.037598c0 1.1243744 -0.911499 2.0358734 -2.0358734 2.0358734l-8.1432495 0c-1.1243744 0 -2.0358734 -0.911499 -2.0358734 -2.0358734z" fill-rule="evenodd"/><path fill="#3b4652" d="m215.62634 176.09619l0 0c0 -0.9749298 0.790329 -1.7652588 1.7652588 -1.7652588l7.0608063 0l0 0c0.46817017 0 0.9171753 0.18598938 1.2482147 0.5170288c0.3310547 0.3310547 0.51704407 0.78004456 0.51704407 1.24823l0 68.535416c0 0.9749298 -0.79034424 1.7652588 -1.7652588 1.7652588l-7.0608063 0c-0.9749298 0 -1.7652588 -0.790329 -1.7652588 -1.7652588z" fill-rule="evenodd"/><path fill="#3b4652" d="m134.67311 175.41263l0 0c0 -1.0370178 0.8406677 -1.8776703 1.8776703 -1.8776703l7.510437 0l0 0c0.49798584 0 0.9755707 0.1978302 1.327713 0.5499573c0.35212708 0.35212708 0.5499573 0.8297272 0.5499573 1.327713l0 62.71518c0 1.0370178 -0.8406677 1.8776703 -1.8776703 1.8776703l-7.510437 0c-1.0370026 0 -1.8776703 -0.84065247 -1.8776703 -1.8776703z" fill-rule="evenodd"/><path fill="#fa5433" d="m165.55728 224.19035l0 0c0 -1.437088 1.1649933 -2.6020813 2.6020813 -2.6020813l28.867905 0c0.6901245 0 1.3519745 0.2741394 1.8399506 0.76213074c0.48799133 0.48799133 0.76213074 1.1498413 0.76213074 1.8399506l0 10.408035c0 1.437088 -1.1649933 2.6020813 -2.6020813 2.6020813l-28.867905 0c-1.437088 0 -2.6020813 -1.1649933 -2.6020813 -2.6020813z" fill-rule="evenodd"/><path fill="#f73d35" d="m72.05629 220.20126l0 0c0 -1.0852966 0.8797989 -1.9650879 1.9650955 -1.9650879l36.661537 0c0.5211792 0 1.0210114 0.20703125 1.389534 0.5755615c0.36853027 0.368515 0.5755615 0.86834717 0.5755615 1.3895264l0 7.860153c0 1.0852814 -0.8797989 1.9650879 -1.9650955 1.9650879l-36.661537 0c-1.0852966 0 -1.9650955 -0.8798065 -1.9650955 -1.9650879z" fill-rule="evenodd"/><path fill="#fdf0d9" d="m118.419 122.8766l0 0c0 -1.6210403 1.3141174 -2.9351501 2.9351578 -2.9351501l29.35083 0c0.7784424 0 1.5250092 0.30923462 2.07547 0.8596878c0.55044556 0.55044556 0.8596802 1.2970123 0.8596802 2.0754623l0 11.740265c0 1.6210327 -1.3141174 2.9351501 -2.9351501 2.9351501l-29.35083 0c-1.6210403 0 -2.9351578 -1.3141174 -2.9351578 -2.9351501z" fill-rule="evenodd"/><path fill="#f1dfc6" d="m120.86673 128.69334l0 0c0 -0.98181915 0.79592896 -1.7777405 1.7777481 -1.7777405l34.188576 0c0.47148132 0 0.9236603 0.187294 1.2570496 0.5206909c0.33340454 0.33338928 0.5206909 0.78556824 0.5206909 1.2570496l0 7.110779c0 0.9818115 -0.7959137 1.7777405 -1.7777405 1.7777405l-34.188576 0c-0.98181915 0 -1.7777481 -0.79592896 -1.7777481 -1.7777405z" fill-rule="evenodd"/><path fill="#fdf0d9" d="m127.79309 77.04949l0 0c0 -1.515274 1.228363 -2.7436447 2.743637 -2.7436447l10.974228 0l0 0c0.72766113 0 1.4255219 0.2890625 1.9400482 0.8035965c0.51452637 0.514534 0.80358887 1.2123871 0.80358887 1.9400482l0 42.99798c0 1.515274 -1.228363 2.7436447 -2.743637 2.7436447l-10.974228 0c-1.515274 0 -2.743637 -1.2283707 -2.743637 -2.7436447z" fill-rule="evenodd"/><path fill="#fb5c4e" d="m85.706856 112.59423l0 0c0 -3.4743195 2.8164825 -6.2908096 6.290802 -6.2908096l25.16246 0l0 0c1.6684189 0 3.2685165 0.66278076 4.448265 1.8425369c1.1797562 1.1797562 1.8425369 2.7798462 1.8425369 4.4482727l0 27.685387c0 3.4743195 -2.8164902 6.290802 -6.290802 6.290802l-25.16246 0l0 0c-3.4743195 0 -6.290802 -2.8164825 -6.290802 -6.290802z" fill-rule="evenodd"/><path fill="#fb5c4e" d="m61.78105 152.10005l0 0c0 -6.272629 5.0849686 -11.35759 11.35759 -11.35759l45.428978 0l0 0c3.0122147 0 5.901062 1.1965942 8.031021 3.3265533c2.1299667 2.129959 3.326561 5.018814 3.326561 8.031036l0 60.541595c0 6.2726135 -5.084961 11.357574 -11.357582 11.357574l-45.428978 0c-6.272621 0 -11.35759 -5.084961 -11.35759 -11.357574z" fill-rule="evenodd"/><path fill="#fe6a3d" d="m148.59071 113.36976l0 0c0 -2.7960052 2.2666016 -5.0626144 5.062622 -5.0626144l20.249863 0l0 0c1.3426819 0 2.6303864 0.5333786 3.5798187 1.4828033c0.9494171 0.94942474 1.4828033 2.2371216 1.4828033 3.579811l0 28.193367c0 2.7960052 -2.2666168 5.062607 -5.062622 5.062607l-20.249863 0c-2.7960205 0 -5.062622 -2.2666016 -5.062622 -5.062607z" fill-rule="evenodd"/><path fill="#fe6a3d" d="m142.05962 151.48198l0 0c0 -6.2726135 5.084961 -11.357574 11.35759 -11.357574l45.42897 0l0 0c3.0122223 0 5.9010773 1.1965942 8.031036 3.3265533c2.129959 2.129959 3.3265533 5.018814 3.3265533 8.031021l0 67.56085c0 6.2726135 -5.084961 11.357574 -11.35759 11.357574l-45.42897 0c-6.272629 0 -11.35759 -5.084961 -11.35759 -11.357574z" fill-rule="evenodd"/><path fill="#f1dfc6" d="m138.45529 75.2759l0 0c0 -0.5357437 0.4343109 -0.9700546 0.97006226 -0.9700546l3.8801117 0l0 0c0.25727844 0 0.50401306 0.10220337 0.68592834 0.28411865c0.18193054 0.18192291 0.2841339 0.42866516 0.2841339 0.685936l0 38.32688c0 0.53575134 -0.4343109 0.97006226 -0.97006226 0.97006226l-3.8801117 0c-0.53575134 0 -0.97006226 -0.4343109 -0.97006226 -0.97006226z" fill-rule="evenodd"/><path fill="#f73d35" d="m93.70927 170.17305l0 0c0 -0.87835693 0.71204376 -1.5903931 1.5903931 -1.5903931l28.243462 0c0.4217987 0 0.82631683 0.16755676 1.1245728 0.46580505c0.29825592 0.29826355 0.4658203 0.7027893 0.4658203 1.124588l0 6.361389c0 0.87835693 -0.71204376 1.5903931 -1.5903931 1.5903931l-28.243462 0c-0.8783493 0 -1.5903931 -0.71203613 -1.5903931 -1.5903931z" fill-rule="evenodd"/><path fill="#f73d35" d="m99.51099 188.51474l0 0c0 -0.6599121 0.5349655 -1.1948853 1.1948776 -1.1948853l17.419014 0c0.31690216 0 0.6208191 0.12588501 0.84490204 0.3499756c0.22408295 0.22407532 0.3499756 0.5279999 0.3499756 0.84490967l0 4.779358c0 0.65992737 -0.5349655 1.1948853 -1.1948776 1.1948853l-17.419014 0l0 0c-0.6599121 0 -1.1948776 -0.5349579 -1.1948776 -1.1948853z" fill-rule="evenodd"/><path fill="#f73d35" d="m72.322685 194.25563l0 0c0 -1.0852966 0.8798065 -1.9650879 1.9650955 -1.9650879l9.458839 0c0.52117157 0 1.0210037 0.20703125 1.389534 0.5755615c0.36852264 0.36853027 0.5755615 0.86834717 0.5755615 1.3895264l0 7.860153c0 1.0852814 -0.8798065 1.9650879 -1.9650955 1.9650879l-9.458839 0c-1.085289 0 -1.9650955 -0.8798065 -1.9650955 -1.9650879z" fill-rule="evenodd"/><path fill="#fc8076" d="m67.41626 155.73729l0 0c0 -1.515274 1.228363 -2.743637 2.743637 -2.743637l10.974228 0l0 0c0.72766113 0 1.4255142 0.2890625 1.9400482 0.80358887c0.514534 0.51452637 0.80358887 1.2123871 0.80358887 1.9400482l0 17.743683c0 1.515274 -1.228363 2.743637 -2.743637 2.743637l-10.974228 0c-1.515274 0 -2.743637 -1.228363 -2.743637 -2.743637z" fill-rule="evenodd"/><path fill="#fa5433" d="m149.55576 163.6959l0 0c0 -1.3359222 1.0829926 -2.4188995 2.4188995 -2.4188995l9.675308 0l0 0c0.6415405 0 1.2567902 0.2548523 1.7104187 0.70848083c0.4536438 0.45362854 0.70848083 1.0688782 0.70848083 1.7104187l0 23.588898c0 1.3359222 -1.0829773 2.4188995 -2.4188995 2.4188995l-9.675308 0c-1.335907 0 -2.4188995 -1.0829773 -2.4188995 -2.4188995z" fill-rule="evenodd"/><path fill="#fa5433" d="m175.79567 171.1214l0 0c0 -1.3359222 1.0829773 -2.4188995 2.4188995 -2.4188995l9.675308 0l0 0c0.64152527 0 1.2567902 0.2548523 1.7104187 0.70848083c0.45362854 0.4536438 0.70848083 1.0688934 0.70848083 1.7104187l0 23.588913c0 1.3359222 -1.0829773 2.4188995 -2.4188995 2.4188995l-9.675308 0c-1.3359222 0 -2.4188995 -1.0829773 -2.4188995 -2.4188995z" fill-rule="evenodd"/><path fill="#fa5433" d="m153.14922 201.38309l0 0c0 -1.1772614 0.9543762 -2.1316223 2.1316376 -2.1316223l10.249847 0c0.56533813 0 1.1075287 0.22457886 1.5072937 0.6243286c0.39974976 0.399765 0.6243286 0.94195557 0.6243286 1.5072937l0 8.52626c0 1.1772614 -0.95436096 2.1316223 -2.1316223 2.1316223l-10.249847 0c-1.1772614 0 -2.1316376 -0.95436096 -2.1316376 -2.1316223z" fill-rule="evenodd"/><path fill="#fc8076" d="m90.900055 116.44414l0 0c0 -1.0370026 0.8406601 -1.8776627 1.8776627 -1.8776627l7.510437 0l0 0c0.49798584 0 0.9755783 0.19782257 1.327713 0.5499573c0.35212708 0.35212708 0.54994965 0.82971954 0.54994965 1.3277054l0 13.85524c0 1.0370026 -0.84065247 1.877655 -1.8776627 1.877655l-7.510437 0c-1.0370026 0 -1.8776627 -0.84065247 -1.8776627 -1.877655z" fill-rule="evenodd"/><path fill="#fa5433" d="m161.95532 127.16995l0 0c0 -1.124382 0.911499 -2.0358658 2.0358734 -2.0358658l8.1432495 0l0 0c0.5399475 0 1.0577698 0.2144928 1.4395752 0.5962906c0.38180542 0.3817978 0.5962982 0.8996277 0.5962982 1.4395752l0 15.037598c0 1.1243744 -0.911499 2.0358734 -2.0358734 2.0358734l-8.1432495 0c-1.1243744 0 -2.0358734 -0.911499 -2.0358734 -2.0358734z" fill-rule="evenodd"/><path fill="#fa5433" d="m199.62634 160.09619l0 0c0 -0.9749298 0.790329 -1.7652588 1.7652588 -1.7652588l7.0608063 0l0 0c0.46817017 0 0.9171753 0.18598938 1.2482147 0.5170288c0.3310547 0.3310547 0.51704407 0.78004456 0.51704407 1.24823l0 68.535416c0 0.9749298 -0.79034424 1.7652588 -1.7652588 1.7652588l-7.0608063 0c-0.9749298 0 -1.7652588 -0.790329 -1.7652588 -1.7652588z" fill-rule="evenodd"/><path fill="#f73d35" d="m118.67312 159.41263l0 0c0 -1.0370178 0.84065247 -1.8776703 1.8776627 -1.8776703l7.510437 0l0 0c0.49798584 0 0.9755707 0.1978302 1.327713 0.5499573c0.35212708 0.35212708 0.5499573 0.8297272 0.5499573 1.327713l0 62.71518c0 1.0370178 -0.8406677 1.8776703 -1.8776703 1.8776703l-7.510437 0c-1.0370102 0 -1.8776627 -0.84065247 -1.8776627 -1.8776703z" fill-rule="evenodd"/></g></svg>