<svg version="1.1" viewBox="0.0 0.0 288.0 384.0" fill="none" stroke="none" stroke-linecap="square" stroke-miterlimit="10" xmlns:xlink="http://www.w3.org/1999/xlink" xmlns="http://www.w3.org/2000/svg"><clipPath id="g3a6f757e31a_0_498.0"><path d="m0 0l288.0 0l0 384.0l-288.0 0l0 -384.0z" clip-rule="nonzero"/></clipPath><g clip-path="url(#g3a6f757e31a_0_498.0)"><path fill="#ffffff" d="m0 0l288.0 0l0 384.0l-288.0 0z" fill-rule="evenodd"/><path fill="#3b4652" d="m5.7007875 34.135216l0 0c0 -9.966135 8.079147 -18.045282 18.04528 -18.045282l240.50787 0c4.7858887 0 9.375793 1.9011936 12.759949 5.2853394c3.3841248 3.3841476 5.2853394 7.9740353 5.2853394 12.759943l0 324.2244c0 9.9661255 -8.079163 18.045288 -18.045288 18.045288l-240.50787 0l0 0c-9.966134 0 -18.04528 -8.079163 -18.04528 -18.045288z" fill-rule="evenodd"/><path stroke="#3b4652" stroke-width="4.0" stroke-linejoin="round" stroke-linecap="butt" d="m5.7007875 34.135216l0 0c0 -9.966135 8.079147 -18.045282 18.04528 -18.045282l240.50787 0c4.7858887 0 9.375793 1.9011936 12.759949 5.2853394c3.3841248 3.3841476 5.2853394 7.9740353 5.2853394 12.759943l0 324.2244c0 9.9661255 -8.079163 18.045288 -18.045288 18.045288l-240.50787 0l0 0c-9.966134 0 -18.04528 -8.079163 -18.04528 -18.045288z" fill-rule="evenodd"/><path fill="#ffffff" d="m5.7007875 33.63977l0 0c0 -9.966135 8.079147 -18.045282 18.04528 -18.045282l240.50787 0c4.7858887 0 9.375793 1.9011936 12.759949 5.2853413c3.3841248 3.3841457 5.2853394 7.9740334 5.2853394 12.759941l0 324.2244c0 9.9661255 -8.079163 18.045288 -18.045288 18.045288l-240.50787 0l0 0c-9.966134 0 -18.04528 -8.079163 -18.04528 -18.045288z" fill-rule="evenodd"/><path stroke="#d0d1d2" stroke-width="4.0" stroke-linejoin="round" stroke-linecap="butt" d="m5.7007875 33.63977l0 0c0 -9.966135 8.079147 -18.045282 18.04528 -18.045282l240.50787 0c4.7858887 0 9.375793 1.9011936 12.759949 5.2853413c3.3841248 3.3841457 5.2853394 7.9740334 5.2853394 12.759941l0 324.2244c0 9.9661255 -8.079163 18.045288 -18.045288 18.045288l-240.50787 0l0 0c-9.966134 0 -18.04528 -8.079163 -18.04528 -18.045288z" fill-rule="evenodd"/><path fill="#000000" fill-opacity="0.0" d="m21.700787 323.7533l203.30708 0l0 51.716522l-203.30708 0z" fill-rule="evenodd"/><path fill="#000000" d="m49.357037 336.11328l0 12.0l-3.15625 0l0 -10.8125l0.703125 0.078125l-4.640625 10.734375l-3.359375 0l-4.65625 -10.703125l0.71875 -0.078125l0 10.78125l-3.140625 0l0 -12.0l5.109375 0l4.3125 10.296875l-1.28125 0l4.265625 -10.296875l5.125 0zm10.13205 12.0l-0.421875 -3.296875l0.4375 -1.265625l-0.4375 -1.265625l0.421875 -3.3125l3.390625 0l-0.578125 4.5625l0.578125 4.578125l-3.390625 0zm0.765625 -4.5625q-0.21875 1.4375 -0.890625 2.53125q-0.65625 1.09375 -1.671875 1.6875q-1.015625 0.59375 -2.3125 0.59375q-1.34375 0 -2.375 -0.59375q-1.015625 -0.59375 -1.59375 -1.6875q-0.5625 -1.109375 -0.5625 -2.53125q0 -1.453125 0.5625 -2.53125q0.578125 -1.09375 1.59375 -1.703125q1.03125 -0.609375 2.375 -0.609375q1.296875 0 2.3125 0.609375q1.015625 0.59375 1.6875 1.671875q0.671875 1.078125 0.875 2.5625zm-6.09375 0q0 0.671875 0.28125 1.203125q0.28125 0.53125 0.765625 0.828125q0.5 0.296875 1.140625 0.296875q0.671875 0 1.265625 -0.296875q0.59375 -0.296875 1.03125 -0.828125q0.453125 -0.53125 0.671875 -1.203125q-0.21875 -0.6875 -0.671875 -1.203125q-0.4375 -0.53125 -1.03125 -0.828125q-0.59375 -0.3125 -1.265625 -0.3125q-0.640625 0 -1.140625 0.3125q-0.484375 0.296875 -0.765625 0.828125q-0.28125 0.515625 -0.28125 1.203125zm18.198917 2.265625l0 -1.5625l0.109375 -0.375l0 -2.25l-0.109375 -0.328125l0 -2.328125l3.265625 0l0 6.703125q0 1.6875 -0.78125 2.875q-0.78125 1.203125 -2.1875 1.828125q-1.390625 0.625 -3.296875 0.625q-1.265625 0 -2.34375 -0.328125q-1.078125 -0.328125 -2.15625 -0.96875l0 -2.453125q1.0 0.734375 2.09375 1.0625q1.09375 0.328125 2.1875 0.328125q1.578125 0 2.390625 -0.671875q0.828125 -0.671875 0.828125 -2.15625zm-3.921875 1.34375q-1.296875 0 -2.3125 -0.53125q-1.0 -0.53125 -1.578125 -1.484375q-0.5781288 -0.953125 -0.5781288 -2.21875q0 -1.28125 0.5781288 -2.21875q0.578125 -0.953125 1.578125 -1.46875q1.015625 -0.53125 2.3125 -0.53125q0.96875 0 1.765625 0.296875q0.796875 0.296875 1.421875 0.78125q0.625 0.484375 1.046875 1.0625q0.421875 0.5625 0.640625 1.125q0.234375 0.5625 0.234375 0.984375q0 0.59375 -0.34375 1.3125q-0.34375 0.71875 -1.0 1.375q-0.65625 0.65625 -1.609375 1.09375q-0.953125 0.421875 -2.15625 0.421875zm1.109375 -2.234375q0.953125 0 1.6875 -0.484375q0.734375 -0.5 1.234375 -1.515625q-0.515625 -1.015625 -1.265625 -1.5q-0.734375 -0.5 -1.65625 -0.5q-0.703125 0 -1.234375 0.25q-0.515625 0.234375 -0.78125 0.6875q-0.265625 0.453125 -0.265625 1.0625q0 0.59375 0.265625 1.046875q0.265625 0.453125 0.78125 0.703125q0.515625 0.25 1.234375 0.25zm7.414276 -5.953125l3.28125 0l0.59375 3.65625l0 5.484375l-3.265625 0l0 -5.984375l-0.609375 -3.15625zm7.234375 -0.265625q1.3125 0 2.234375 0.53125q0.921875 0.515625 1.40625 1.484375q0.5 0.953125 0.5 2.265625l0 5.125l-3.265625 0l0 -4.640625q0 -1.015625 -0.53125 -1.5625q-0.515625 -0.546875 -1.484375 -0.546875q-0.671875 0 -1.1875 0.296875q-0.5 0.28125 -0.765625 0.8125q-0.265625 0.515625 -0.265625 1.234375l-1.015625 -0.515625q0.1875 -1.46875 0.8125 -2.46875q0.625 -1.0 1.53125 -1.5q0.921875 -0.515625 2.03125 -0.515625zm5.8115234 0.125l1.65625 0.328125l1.625 -0.328125l0 9.28125l-3.28125 0l0 -9.28125zm1.640625 -0.75q-0.84375 0 -1.375 -0.421875q-0.53125 -0.421875 -0.53125 -1.15625q0 -0.734375 0.53125 -1.15625q0.53125 -0.4375 1.375 -0.4375q0.875 0 1.390625 0.4375q0.53125 0.421875 0.53125 1.15625q0 0.734375 -0.53125 1.15625q-0.515625 0.421875 -1.390625 0.421875zm9.931381 -0.109375q-1.078125 0 -1.5 0.375q-0.421875 0.375 -0.421875 1.203125l0 8.5625l-3.265625 0l0 -8.40625q0 -1.328125 0.546875 -2.25q0.546875 -0.9375 1.609375 -1.421875q1.0625 -0.5 2.625 -0.5q0.71875 0 1.265625 0.09375q0.546875 0.09375 1.171875 0.28125l0 2.390625q-0.484375 -0.171875 -0.984375 -0.25q-0.5 -0.078125 -1.046875 -0.078125zm-7.03125 4.171875l0 -2.421875l8.84375 0l0 2.421875l-8.84375 0zm12.794907 8.859375q-1.015625 0 -1.796875 -0.25q-0.78125 -0.234375 -1.515625 -0.75l0 -2.28125q0.75 0.484375 1.40625 0.6875q0.65625 0.21875 1.4375 0.21875q0.65625 0 1.171875 -0.296875q0.515625 -0.28125 0.828125 -1.046875l3.5 -8.3125l3.484375 0l-4.390625 9.3125q-0.46875 1.015625 -1.140625 1.609375q-0.65625 0.609375 -1.421875 0.859375q-0.765625 0.25 -1.5625 0.25zm0.109375 -3.734375l-3.890625 -8.296875l3.609375 0l3.4375 8.296875l-3.15625 0zm9.307022 -8.4375l1.65625 0.328125l1.625 -0.328125l0 9.28125l-3.28125 0l0 -9.28125zm1.640625 -0.75q-0.84375 0 -1.375 -0.421875q-0.53125 -0.421875 -0.53125 -1.15625q0 -0.734375 0.53125 -1.15625q0.53125 -0.4375 1.375 -0.4375q0.875 0 1.390625 0.4375q0.53125 0.421875 0.53125 1.15625q0 0.734375 -0.53125 1.15625q-0.515625 0.421875 -1.390625 0.421875zm3.0095062 0.890625l3.28125 0l0.59375 3.65625l0 5.484375l-3.265625 0l0 -5.984375l-0.609375 -3.15625zm7.234375 -0.265625q1.3125 0 2.234375 0.53125q0.921875 0.515625 1.40625 1.484375q0.5 0.953125 0.5 2.265625l0 5.125l-3.265625 0l0 -4.640625q0 -1.015625 -0.53125 -1.5625q-0.515625 -0.546875 -1.484375 -0.546875q-0.671875 0 -1.1875 0.296875q-0.5 0.28125 -0.765625 0.8125q-0.265625 0.515625 -0.265625 1.234375l-1.015625 -0.515625q0.1875 -1.46875 0.8125 -2.46875q0.625 -1.0 1.53125 -1.5q0.921875 -0.515625 2.03125 -0.515625zm13.795898 7.109375l0 -1.5625l0.109375 -0.375l0 -2.25l-0.109375 -0.328125l0 -2.328125l3.265625 0l0 6.703125q0 1.6875 -0.78125 2.875q-0.78125 1.203125 -2.1875 1.828125q-1.390625 0.625 -3.296875 0.625q-1.265625 0 -2.34375 -0.328125q-1.078125 -0.328125 -2.15625 -0.96875l0 -2.453125q1.0 0.734375 2.09375 1.0625q1.09375 0.328125 2.1875 0.328125q1.578125 0 2.390625 -0.671875q0.828125 -0.671875 0.828125 -2.15625zm-3.921875 1.34375q-1.296875 0 -2.3125 -0.53125q-1.0 -0.53125 -1.578125 -1.484375q-0.578125 -0.953125 -0.578125 -2.21875q0 -1.28125 0.578125 -2.21875q0.578125 -0.953125 1.578125 -1.46875q1.015625 -0.53125 2.3125 -0.53125q0.96875 0 1.765625 0.296875q0.796875 0.296875 1.421875 0.78125q0.625 0.484375 1.046875 1.0625q0.421875 0.5625 0.640625 1.125q0.234375 0.5625 0.234375 0.984375q0 0.59375 -0.34375 1.3125q-0.34375 0.71875 -1.0 1.375q-0.65625 0.65625 -1.609375 1.09375q-0.953125 0.421875 -2.15625 0.421875zm1.109375 -2.234375q0.953125 0 1.6875 -0.484375q0.734375 -0.5 1.234375 -1.515625q-0.515625 -1.015625 -1.265625 -1.5q-0.734375 -0.5 -1.65625 -0.5q-0.703125 0 -1.234375 0.25q-0.515625 0.234375 -0.78125 0.6875q-0.265625 0.453125 -0.265625 1.0625q0 0.59375 0.265625 1.046875q0.265625 0.453125 0.78125 0.703125q0.515625 0.25 1.234375 0.25zm24.319778 -2.015625q-0.046875 1.09375 -0.4375 2.078125q-0.390625 0.984375 -1.140625 1.75q-0.734375 0.765625 -1.859375 1.203125q-1.109375 0.421875 -2.578125 0.421875q-1.40625 0 -2.640625 -0.40625q-1.234375 -0.40625 -2.171875 -1.203125q-0.9375 -0.796875 -1.453125 -1.96875q-0.515625 -1.171875 -0.515625 -2.671875q0 -1.5 0.515625 -2.671875q0.53125 -1.171875 1.484375 -1.96875q0.953125 -0.796875 2.203125 -1.203125q1.265625 -0.40625 2.75 -0.40625q1.984375 0 3.421875 0.609375q1.453125 0.59375 2.328125 1.65625q0.875 1.0625 1.140625 2.453125l-3.34375 0q-0.171875 -0.609375 -0.65625 -1.046875q-0.484375 -0.453125 -1.21875 -0.671875q-0.71875 -0.234375 -1.65625 -0.234375q-1.109375 0 -1.9375 0.390625q-0.8125 0.390625 -1.265625 1.171875q-0.4375 0.765625 -0.4375 1.921875q0 1.171875 0.46875 1.96875q0.484375 0.796875 1.375 1.203125q0.890625 0.390625 2.09375 0.390625q1.171875 0 2.0625 -0.328125q0.890625 -0.328125 1.421875 -0.96875q0.546875 -0.640625 0.625 -1.53125l1.421875 0.0625zm-5.21875 1.328125l0 -2.328125l6.375 0l0 6.203125l-2.359375 0l-0.453125 -4.75l0.625 0.875l-4.1875 0zm8.1271515 -8.4375l3.28125 0l0 12.3125l-3.28125 0l0 -12.3125zm13.337631 12.3125l-0.421875 -3.296875l0.4375 -1.265625l-0.4375 -1.265625l0.421875 -3.3125l3.390625 0l-0.578125 4.5625l0.578125 4.578125l-3.390625 0zm0.765625 -4.5625q-0.21875 1.4375 -0.890625 2.53125q-0.65625 1.09375 -1.671875 1.6875q-1.015625 0.59375 -2.3125 0.59375q-1.34375 0 -2.375 -0.59375q-1.015625 -0.59375 -1.59375 -1.6875q-0.5625 -1.109375 -0.5625 -2.53125q0 -1.453125 0.5625 -2.53125q0.578125 -1.09375 1.59375 -1.703125q1.03125 -0.609375 2.375 -0.609375q1.296875 0 2.3125 0.609375q1.015625 0.59375 1.6875 1.671875q0.671875 1.078125 0.875 2.5625zm-6.09375 0q0 0.671875 0.28125 1.203125q0.28125 0.53125 0.765625 0.828125q0.5 0.296875 1.140625 0.296875q0.671875 0 1.265625 -0.296875q0.59375 -0.296875 1.03125 -0.828125q0.453125 -0.53125 0.671875 -1.203125q-0.21875 -0.6875 -0.671875 -1.203125q-0.4375 -0.53125 -1.03125 -0.828125q-0.59375 -0.3125 -1.265625 -0.3125q-0.640625 0 -1.140625 0.3125q-0.484375 0.296875 -0.765625 0.828125q-0.28125 0.515625 -0.28125 1.203125zm20.840286 1.59375q0 1.046875 -0.640625 1.765625q-0.640625 0.71875 -1.828125 1.09375q-1.171875 0.359375 -2.84375 0.359375q-1.703125 0 -3.0 -0.40625q-1.28125 -0.421875 -2.0 -1.171875q-0.71875 -0.75 -0.765625 -1.75l3.3125 0q0.109375 0.375 0.4375 0.640625q0.328125 0.265625 0.859375 0.40625q0.546875 0.125 1.296875 0.125q0.984375 0 1.484375 -0.1875q0.5 -0.1875 0.5 -0.578125q0 -0.296875 -0.390625 -0.453125q-0.375 -0.15625 -1.296875 -0.234375l-1.625 -0.125q-1.609375 -0.109375 -2.5625 -0.484375q-0.953125 -0.390625 -1.375 -0.984375q-0.40625 -0.59375 -0.40625 -1.359375q0 -1.046875 0.640625 -1.71875q0.65625 -0.6875 1.8125 -1.03125q1.15625 -0.34375 2.71875 -0.34375q1.53125 0 2.734375 0.40625q1.203125 0.390625 1.921875 1.109375q0.71875 0.703125 0.828125 1.671875l-3.3125 0q-0.078125 -0.3125 -0.359375 -0.5625q-0.265625 -0.25 -0.75 -0.40625q-0.46875 -0.15625 -1.234375 -0.15625q-0.875 0 -1.328125 0.203125q-0.453125 0.1875 -0.453125 0.53125q0 0.265625 0.28125 0.4375q0.28125 0.15625 1.046875 0.21875l2.125 0.15625q1.578125 0.09375 2.484375 0.46875q0.921875 0.359375 1.296875 0.953125q0.390625 0.578125 0.390625 1.40625zm11.968018 0q0 1.046875 -0.640625 1.765625q-0.640625 0.71875 -1.828125 1.09375q-1.171875 0.359375 -2.84375 0.359375q-1.703125 0 -3.0 -0.40625q-1.28125 -0.421875 -2.0 -1.171875q-0.71875 -0.75 -0.765625 -1.75l3.3125 0q0.109375 0.375 0.4375 0.640625q0.328125 0.265625 0.859375 0.40625q0.546875 0.125 1.296875 0.125q0.984375 0 1.484375 -0.1875q0.5 -0.1875 0.5 -0.578125q0 -0.296875 -0.390625 -0.453125q-0.375 -0.15625 -1.296875 -0.234375l-1.625 -0.125q-1.609375 -0.109375 -2.5625 -0.484375q-0.953125 -0.390625 -1.375 -0.984375q-0.40625 -0.59375 -0.40625 -1.359375q0 -1.046875 0.640625 -1.71875q0.65625 -0.6875 1.8125 -1.03125q1.15625 -0.34375 2.71875 -0.34375q1.53125 0 2.734375 0.40625q1.203125 0.390625 1.921875 1.109375q0.71875 0.703125 0.828125 1.671875l-3.3125 0q-0.078125 -0.3125 -0.359375 -0.5625q-0.265625 -0.25 -0.75 -0.40625q-0.46875 -0.15625 -1.234375 -0.15625q-0.875 0 -1.328125 0.203125q-0.453125 0.1875 -0.453125 0.53125q0 0.265625 0.28125 0.4375q0.28125 0.15625 1.046875 0.21875l2.125 0.15625q1.578125 0.09375 2.484375 0.46875q0.921875 0.359375 1.296875 0.953125q0.390625 0.578125 0.390625 1.40625z" fill-rule="nonzero"/><path fill="#000000" d="m31.591412 359.03705q0 -0.84375 0.171875 -1.765625q0.171875 -0.921875 0.46875 -1.78125q0.3125 -0.875 0.703125 -1.515625l0.859375 0q-0.40625 0.8125 -0.703125 1.703125q-0.296875 0.875 -0.453125 1.75q-0.15625 0.859375 -0.15625 1.609375q0 0.671875 0.140625 1.390625q0.140625 0.703125 0.421875 1.5q0.296875 0.78125 0.75 1.71875l-0.859375 0q-0.671875 -1.125 -1.015625 -2.296875q-0.328125 -1.171875 -0.328125 -2.3125z" fill-rule="nonzero"/><path fill="#000000" d="m37.00758 362.1933l0 -5.8125l1.53125 0l0 1.03125l0.078125 0q0.171875 -0.515625 0.59375 -0.8125q0.4375 -0.296875 1.015625 -0.296875q0.609375 0 1.015625 0.296875q0.421875 0.296875 0.5625 0.8125l0.0625 0q0.1875 -0.5 0.65625 -0.796875q0.46875 -0.3125 1.09375 -0.3125q0.8125 0 1.328125 0.515625q0.515625 0.515625 0.515625 1.46875l0 3.90625l-1.609375 0l0 -3.59375q0 -0.484375 -0.265625 -0.71875q-0.25 -0.25 -0.640625 -0.25q-0.4375 0 -0.6875 0.28125q-0.25 0.28125 -0.25 0.734375l0 3.546875l-1.5625 0l0 -3.625q0 -0.421875 -0.25 -0.671875q-0.234375 -0.265625 -0.625 -0.265625q-0.28125 0 -0.5 0.140625q-0.203125 0.140625 -0.328125 0.375q-0.125 0.234375 -0.125 0.5625l0 3.484375l-1.609375 0zm11.048111 0.109375q-0.546875 0 -0.984375 -0.1875q-0.4375 -0.203125 -0.6875 -0.578125q-0.25 -0.390625 -0.25 -0.96875q0 -0.484375 0.171875 -0.8125q0.171875 -0.328125 0.484375 -0.53125q0.3125 -0.203125 0.703125 -0.296875q0.390625 -0.109375 0.828125 -0.15625q0.5 -0.046875 0.796875 -0.09375q0.3125 -0.046875 0.453125 -0.140625q0.140625 -0.09375 0.140625 -0.28125l0 -0.015625q0 -0.359375 -0.234375 -0.5625q-0.21875 -0.203125 -0.625 -0.203125q-0.421875 0 -0.6875 0.203125q-0.25 0.1875 -0.34375 0.46875l-1.484375 -0.109375q0.109375 -0.53125 0.4375 -0.921875q0.34375 -0.390625 0.859375 -0.59375q0.53125 -0.21875 1.234375 -0.21875q0.484375 0 0.921875 0.125q0.4375 0.109375 0.78125 0.34375q0.359375 0.234375 0.5625 0.609375q0.203125 0.375 0.203125 0.890625l0 3.921875l-1.546875 0l0 -0.8125l-0.03125 0q-0.140625 0.28125 -0.375 0.484375q-0.234375 0.203125 -0.5625 0.328125q-0.328125 0.109375 -0.765625 0.109375zm0.46875 -1.109375q0.34375 0 0.609375 -0.140625q0.28125 -0.15625 0.4375 -0.390625q0.15625 -0.25 0.15625 -0.546875l0 -0.609375q-0.078125 0.03125 -0.21875 0.078125q-0.125 0.046875 -0.28125 0.078125q-0.15625 0.03125 -0.328125 0.0625q-0.15625 0.015625 -0.28125 0.03125q-0.28125 0.046875 -0.5 0.140625q-0.21875 0.078125 -0.34375 0.234375q-0.109375 0.15625 -0.109375 0.390625q0 0.328125 0.234375 0.5q0.25 0.171875 0.625 0.171875zm6.3536377 3.296875q-1.171875 0 -1.84375 -0.46875q-0.671875 -0.453125 -0.8125 -1.15625l1.484375 -0.1875q0.078125 0.171875 0.21875 0.3125q0.140625 0.15625 0.375 0.25q0.25 0.09375 0.609375 0.09375q0.53125 0 0.875 -0.25q0.34375 -0.25 0.34375 -0.859375l0 -1.0625l-0.078125 0q-0.09375 0.234375 -0.3125 0.453125q-0.21875 0.21875 -0.546875 0.359375q-0.328125 0.140625 -0.796875 0.140625q-0.65625 0 -1.1875 -0.296875q-0.53125 -0.3125 -0.859375 -0.9375q-0.3125 -0.640625 -0.3125 -1.59375q0 -1.0 0.328125 -1.65625q0.328125 -0.671875 0.859375 -1.0q0.53125 -0.328125 1.171875 -0.328125q0.484375 0 0.8125 0.171875q0.34375 0.15625 0.546875 0.40625q0.203125 0.234375 0.3125 0.484375l0.0625 0l0 -0.984375l1.59375 0l0 5.875q0 0.734375 -0.375 1.234375q-0.359375 0.5 -1.0 0.75q-0.640625 0.25 -1.46875 0.25zm0.03125 -3.59375q0.578125 0 0.890625 -0.421875q0.328125 -0.4375 0.328125 -1.203125q0 -0.515625 -0.140625 -0.890625q-0.140625 -0.375 -0.421875 -0.578125q-0.265625 -0.21875 -0.65625 -0.21875q-0.40625 0 -0.671875 0.21875q-0.265625 0.21875 -0.40625 0.59375q-0.140625 0.375 -0.140625 0.875q0 0.5 0.140625 0.875q0.140625 0.359375 0.40625 0.5625q0.265625 0.1875 0.671875 0.1875z" fill-rule="nonzero"/><path fill="#000000" d="m63.4371 360.77142q-0.453125 0 -0.84375 -0.21875q-0.375 -0.234375 -0.609375 -0.609375q-0.21875 -0.390625 -0.21875 -0.84375q0 -0.453125 0.21875 -0.828125q0.234375 -0.390625 0.609375 -0.609375q0.390625 -0.21875 0.84375 -0.21875q0.453125 0 0.8281288 0.21875q0.390625 0.21875 0.609375 0.609375q0.21875 0.375 0.21875 0.828125q0 0.453125 -0.21875 0.84375q-0.21875 0.375 -0.609375 0.609375q-0.3750038 0.21875 -0.8281288 0.21875zm6.1958046 -2.078125l0 3.5l-0.875 0l0 -5.8125l0.84375 0l0 0.90625l0.09375 0q0.203125 -0.4375 0.609375 -0.703125q0.421875 -0.28125 1.078125 -0.28125q0.59375 0 1.03125 0.25q0.4375 0.234375 0.6875 0.71875q0.25 0.484375 0.25 1.234375l0 3.6875l-0.890625 0l0 -3.625q0 -0.6875 -0.359375 -1.078125q-0.359375 -0.390625 -0.96875 -0.390625q-0.421875 0 -0.765625 0.1875q-0.34375 0.1875 -0.546875 0.546875q-0.1875 0.359375 -0.1875 0.859375zm8.525635 1.125l0 -3.4375l0.890625 0l0 5.8125l-0.890625 0l0 -0.984375l-0.0625 0q-0.203125 0.4375 -0.640625 0.75q-0.421875 0.3125 -1.078125 0.3125q-0.546875 0 -0.96875 -0.234375q-0.421875 -0.25 -0.671875 -0.734375q-0.234375 -0.484375 -0.234375 -1.234375l0 -3.6875l0.875 0l0 3.640625q0 0.625 0.359375 1.015625q0.375 0.375 0.921875 0.359375q0.328125 0 0.671875 -0.15625q0.359375 -0.171875 0.59375 -0.515625q0.234375 -0.359375 0.234375 -0.90625zm2.9111023 -1.125l0 3.5l-0.875 0l0 -7.75l0.875 0l0 2.84375l0.09375 0q0.203125 -0.453125 0.609375 -0.71875q0.40625 -0.265625 1.09375 -0.265625q0.59375 0 1.03125 0.234375q0.453125 0.234375 0.703125 0.734375q0.25 0.484375 0.25 1.234375l0 3.6875l-0.890625 0l0 -3.625q0 -0.703125 -0.359375 -1.078125q-0.359375 -0.390625 -1.0 -0.390625q-0.4375 0 -0.78125 0.1875q-0.34375 0.1875 -0.546875 0.546875q-0.203125 0.359375 -0.203125 0.859375zm9.601257 2.078125q-0.453125 0 -0.84375 -0.21875q-0.375 -0.234375 -0.609375 -0.609375q-0.21875 -0.390625 -0.21875 -0.84375q0 -0.453125 0.21875 -0.828125q0.234375 -0.390625 0.609375 -0.609375q0.390625 -0.21875 0.84375 -0.21875q0.453125 0 0.828125 0.21875q0.390625 0.21875 0.609375 0.609375q0.21875 0.375 0.21875 0.828125q0 0.453125 -0.21875 0.84375q-0.21875 0.375 -0.609375 0.609375q-0.375 0.21875 -0.828125 0.21875zm7.898926 -4.390625l0 0.75l-3.140625 0l0 -0.75l3.140625 0zm-2.203125 5.8125l0 -6.625q0 -0.5 0.234375 -0.828125q0.25 -0.328125 0.625 -0.484375q0.375 -0.171875 0.78125 -0.171875q0.328125 0 0.53125 0.0625q0.21875 0.046875 0.3125 0.078125l-0.25 0.78125q-0.078125 -0.03125 -0.203125 -0.0625q-0.109375 -0.03125 -0.296875 -0.03125q-0.4375 0 -0.640625 0.234375q-0.203125 0.21875 -0.203125 0.640625l0 6.40625l-0.890625 0zm4.501938 0.140625q-0.546875 0 -1.0 -0.203125q-0.453125 -0.21875 -0.71875 -0.625q-0.265625 -0.40625 -0.265625 -0.96875q0 -0.5 0.1875 -0.796875q0.203125 -0.3125 0.53125 -0.484375q0.328125 -0.1875 0.71875 -0.28125q0.40625 -0.09375 0.8125 -0.140625q0.53125 -0.0625 0.859375 -0.09375q0.328125 -0.046875 0.484375 -0.125q0.15625 -0.09375 0.15625 -0.3125l0 -0.03125q0 -0.5625 -0.3125 -0.859375q-0.296875 -0.3125 -0.921875 -0.3125q-0.625 0 -1.0 0.28125q-0.359375 0.265625 -0.5 0.59375l-0.859375 -0.3125q0.234375 -0.53125 0.609375 -0.828125q0.390625 -0.296875 0.84375 -0.40625q0.453125 -0.125 0.875 -0.125q0.28125 0 0.640625 0.0625q0.375 0.0625 0.71875 0.28125q0.34375 0.203125 0.5625 0.625q0.234375 0.40625 0.234375 1.09375l0 3.828125l-0.890625 0l0 -0.796875l-0.046875 0q-0.078125 0.1875 -0.296875 0.40625q-0.21875 0.21875 -0.578125 0.375q-0.34375 0.15625 -0.84375 0.15625zm0.140625 -0.8125q0.515625 0 0.875 -0.203125q0.375 -0.203125 0.5625 -0.53125q0.1875 -0.34375 0.1875 -0.703125l0 -0.8125q-0.0625 0.0625 -0.25 0.125q-0.1875 0.046875 -0.4375 0.09375q-0.25 0.03125 -0.484375 0.0625q-0.21875 0.03125 -0.359375 0.046875q-0.359375 0.046875 -0.65625 0.15625q-0.296875 0.09375 -0.484375 0.296875q-0.1875 0.1875 -0.1875 0.53125q0 0.46875 0.34375 0.703125q0.34375 0.234375 0.890625 0.234375zm3.671692 0.671875l0 -5.8125l0.875 0l0 5.8125l-0.875 0zm0.4375 -6.78125q-0.25 0 -0.4375 -0.171875q-0.1875 -0.1875 -0.1875 -0.4375q0 -0.25 0.1875 -0.421875q0.1875 -0.1875 0.4375 -0.1875q0.265625 0 0.453125 0.1875q0.1875 0.171875 0.1875 0.421875q0 0.25 -0.1875 0.4375q-0.1875 0.171875 -0.453125 0.171875zm6.2612 5.359375q-0.453125 0 -0.84375 -0.21875q-0.375 -0.234375 -0.609375 -0.609375q-0.21875 -0.390625 -0.21875 -0.84375q0 -0.453125 0.21875 -0.828125q0.234375 -0.390625 0.609375 -0.609375q0.390625 -0.21875 0.84375 -0.21875q0.453125 0 0.828125 0.21875q0.390625 0.21875 0.609375 0.609375q0.21875 0.375 0.21875 0.828125q0 0.453125 -0.21875 0.84375q-0.21875 0.375 -0.609375 0.609375q-0.375 0.21875 -0.828125 0.21875zm8.977051 -0.953125l0 -3.4375l0.890625 0l0 5.8125l-0.890625 0l0 -0.984375l-0.0625 0q-0.203125 0.4375 -0.640625 0.75q-0.421875 0.3125 -1.078125 0.3125q-0.546875 0 -0.96875 -0.234375q-0.421875 -0.25 -0.671875 -0.734375q-0.234375 -0.484375 -0.234375 -1.234375l0 -3.6875l0.875 0l0 3.640625q0 0.625 0.359375 1.015625q0.375 0.375 0.921875 0.359375q0.328125 0 0.671875 -0.15625q0.359375 -0.171875 0.59375 -0.515625q0.234375 -0.359375 0.234375 -0.90625zm2.9111023 -1.125l0 3.5l-0.875 0l0 -7.75l0.875 0l0 2.84375l0.09375 0q0.203125 -0.453125 0.609375 -0.71875q0.40625 -0.265625 1.09375 -0.265625q0.59375 0 1.03125 0.234375q0.453125 0.234375 0.703125 0.734375q0.25 0.484375 0.25 1.234375l0 3.6875l-0.890625 0l0 -3.625q0 -0.703125 -0.359375 -1.078125q-0.359375 -0.390625 -1.0 -0.390625q-0.4375 0 -0.78125 0.1875q-0.34375 0.1875 -0.546875 0.546875q-0.203125 0.359375 -0.203125 0.859375zm5.8068237 0l0 3.5l-0.875 0l0 -5.8125l0.84375 0l0 0.90625l0.09375 0q0.203125 -0.4375 0.609375 -0.703125q0.421875 -0.28125 1.078125 -0.28125q0.59375 0 1.03125 0.25q0.4375 0.234375 0.6875 0.71875q0.25 0.484375 0.25 1.234375l0 3.6875l-0.890625 0l0 -3.625q0 -0.6875 -0.359375 -1.078125q-0.359375 -0.390625 -0.96875 -0.390625q-0.421875 0 -0.765625 0.1875q-0.34375 0.1875 -0.546875 0.546875q-0.1875 0.359375 -0.1875 0.859375zm7.19751 5.796875q-0.96875 0 -1.53125 -0.359375q-0.5625 -0.34375 -0.828125 -0.796875l0.703125 -0.5q0.125 0.15625 0.3125 0.359375q0.1875 0.203125 0.5 0.359375q0.328125 0.15625 0.84375 0.15625q0.703125 0 1.15625 -0.34375q0.46875 -0.34375 0.46875 -1.0625l0 -1.1875l-0.078125 0q-0.09375 0.15625 -0.28125 0.390625q-0.171875 0.234375 -0.515625 0.421875q-0.328125 0.171875 -0.90625 0.171875q-0.6875 0 -1.25 -0.328125q-0.5625 -0.34375 -0.890625 -0.96875q-0.3125 -0.640625 -0.3125 -1.546875q0 -0.890625 0.3125 -1.546875q0.3125 -0.671875 0.875 -1.03125q0.5625 -0.375 1.296875 -0.375q0.5625 0 0.890625 0.1875q0.34375 0.1875 0.515625 0.421875q0.1875 0.234375 0.28125 0.390625l0.09375 0l0 -0.921875l0.859375 0l0 5.984375q0 0.75 -0.34375 1.21875q-0.328125 0.46875 -0.90625 0.6875q-0.5625 0.21875 -1.265625 0.21875zm-0.03125 -3.1875q0.8125 0 1.234375 -0.546875q0.4375 -0.546875 0.4375 -1.515625q0 -0.625 -0.1875 -1.109375q-0.1875 -0.484375 -0.5625 -0.75q-0.375 -0.28125 -0.921875 -0.28125q-0.5625 0 -0.9375 0.296875q-0.375 0.28125 -0.5625 0.765625q-0.1875 0.484375 -0.1875 1.078125q0 0.59375 0.1875 1.0625q0.1875 0.46875 0.5625 0.734375q0.390625 0.265625 0.9375 0.265625zm8.366699 -0.53125q-0.453125 0 -0.84375 -0.21875q-0.375 -0.234375 -0.609375 -0.609375q-0.21875 -0.390625 -0.21875 -0.84375q0 -0.453125 0.21875 -0.828125q0.234375 -0.390625 0.609375 -0.609375q0.390625 -0.21875 0.84375 -0.21875q0.453125 0 0.828125 0.21875q0.390625 0.21875 0.609375 0.609375q0.21875 0.375 0.21875 0.828125q0 0.453125 -0.21875 0.84375q-0.21875 0.375 -0.609375 0.609375q-0.375 0.21875 -0.828125 0.21875z" fill-rule="nonzero"/><path fill="#000000" d="m152.42839 364.49017q-1.171875 0 -1.84375 -0.46875q-0.671875 -0.453125 -0.8125 -1.15625l1.484375 -0.1875q0.078125 0.171875 0.21875 0.3125q0.140625 0.15625 0.375 0.25q0.25 0.09375 0.609375 0.09375q0.53125 0 0.875 -0.25q0.34375 -0.25 0.34375 -0.859375l0 -1.0625l-0.078125 0q-0.09375 0.234375 -0.3125 0.453125q-0.21875 0.21875 -0.546875 0.359375q-0.328125 0.140625 -0.796875 0.140625q-0.65625 0 -1.1875 -0.296875q-0.53125 -0.3125 -0.859375 -0.9375q-0.3125 -0.640625 -0.3125 -1.59375q0 -1.0 0.328125 -1.65625q0.328125 -0.671875 0.859375 -1.0q0.53125 -0.328125 1.171875 -0.328125q0.484375 0 0.8125 0.171875q0.34375 0.15625 0.546875 0.40625q0.203125 0.234375 0.3125 0.484375l0.0625 0l0 -0.984375l1.59375 0l0 5.875q0 0.734375 -0.375 1.234375q-0.359375 0.5 -1.0 0.75q-0.640625 0.25 -1.46875 0.25zm0.03125 -3.59375q0.578125 0 0.890625 -0.421875q0.328125 -0.4375 0.328125 -1.203125q0 -0.515625 -0.140625 -0.890625q-0.140625 -0.375 -0.421875 -0.578125q-0.265625 -0.21875 -0.65625 -0.21875q-0.40625 0 -0.671875 0.21875q-0.265625 0.21875 -0.40625 0.59375q-0.140625 0.375 -0.140625 0.875q0 0.5 0.140625 0.875q0.140625 0.359375 0.40625 0.5625q0.265625 0.1875 0.671875 0.1875zm5.3583374 -6.453125l0 7.75l-1.609375 0l0 -7.75l1.609375 0zm2.6016693 7.859375q-0.546875 0 -0.984375 -0.1875q-0.4375 -0.203125 -0.6875 -0.578125q-0.25 -0.390625 -0.25 -0.96875q0 -0.484375 0.171875 -0.8125q0.171875 -0.328125 0.484375 -0.53125q0.3125 -0.203125 0.703125 -0.296875q0.390625 -0.109375 0.828125 -0.15625q0.5 -0.046875 0.796875 -0.09375q0.3125 -0.046875 0.453125 -0.140625q0.140625 -0.09375 0.140625 -0.28125l0 -0.015625q0 -0.359375 -0.234375 -0.5625q-0.21875 -0.203125 -0.625 -0.203125q-0.421875 0 -0.6875 0.203125q-0.25 0.1875 -0.34375 0.46875l-1.484375 -0.109375q0.109375 -0.53125 0.4375 -0.921875q0.34375 -0.390625 0.859375 -0.59375q0.53125 -0.21875 1.234375 -0.21875q0.484375 0 0.921875 0.125q0.4375 0.109375 0.78125 0.34375q0.359375 0.234375 0.5625 0.609375q0.203125 0.375 0.203125 0.890625l0 3.921875l-1.546875 0l0 -0.8125l-0.03125 0q-0.140625 0.28125 -0.375 0.484375q-0.234375 0.203125 -0.5625 0.328125q-0.328125 0.109375 -0.765625 0.109375zm0.46875 -1.109375q0.34375 0 0.609375 -0.140625q0.28125 -0.15625 0.4375 -0.390625q0.15625 -0.25 0.15625 -0.546875l0 -0.609375q-0.078125 0.03125 -0.21875 0.078125q-0.125 0.046875 -0.28125 0.078125q-0.15625 0.03125 -0.328125 0.0625q-0.15625 0.015625 -0.28125 0.03125q-0.28125 0.046875 -0.5 0.140625q-0.21875 0.078125 -0.34375 0.234375q-0.109375 0.15625 -0.109375 0.390625q0 0.328125 0.234375 0.5q0.25 0.171875 0.625 0.171875zm5.4005127 1.109375q-0.546875 0 -0.984375 -0.1875q-0.4375 -0.203125 -0.6875 -0.578125q-0.25 -0.390625 -0.25 -0.96875q0 -0.484375 0.171875 -0.8125q0.171875 -0.328125 0.484375 -0.53125q0.3125 -0.203125 0.703125 -0.296875q0.390625 -0.109375 0.828125 -0.15625q0.5 -0.046875 0.796875 -0.09375q0.3125 -0.046875 0.453125 -0.140625q0.140625 -0.09375 0.140625 -0.28125l0 -0.015625q0 -0.359375 -0.234375 -0.5625q-0.21875 -0.203125 -0.625 -0.203125q-0.421875 0 -0.6875 0.203125q-0.25 0.1875 -0.34375 0.46875l-1.484375 -0.109375q0.109375 -0.53125 0.4375 -0.921875q0.34375 -0.390625 0.859375 -0.59375q0.53125 -0.21875 1.234375 -0.21875q0.484375 0 0.921875 0.125q0.4375 0.109375 0.78125 0.34375q0.359375 0.234375 0.5625 0.609375q0.203125 0.375 0.203125 0.890625l0 3.921875l-1.546875 0l0 -0.8125l-0.03125 0q-0.140625 0.28125 -0.375 0.484375q-0.234375 0.203125 -0.5625 0.328125q-0.328125 0.109375 -0.765625 0.109375zm0.46875 -1.109375q0.34375 0 0.609375 -0.140625q0.28125 -0.15625 0.4375 -0.390625q0.15625 -0.25 0.15625 -0.546875l0 -0.609375q-0.078125 0.03125 -0.21875 0.078125q-0.125 0.046875 -0.28125 0.078125q-0.15625 0.03125 -0.328125 0.0625q-0.15625 0.015625 -0.28125 0.03125q-0.28125 0.046875 -0.5 0.140625q-0.21875 0.078125 -0.34375 0.234375q-0.109375 0.15625 -0.109375 0.390625q0 0.328125 0.234375 0.5q0.25 0.171875 0.625 0.171875zm8.572388 -3.15625l-1.46875 0.09375q-0.0625 -0.28125 -0.3125 -0.484375q-0.25 -0.203125 -0.671875 -0.203125q-0.359375 0 -0.625 0.15625q-0.25 0.15625 -0.25 0.421875q0 0.203125 0.15625 0.359375q0.171875 0.140625 0.578125 0.234375l1.046875 0.203125q0.859375 0.171875 1.265625 0.5625q0.421875 0.375 0.421875 1.0q0 0.578125 -0.34375 1.015625q-0.328125 0.421875 -0.90625 0.671875q-0.578125 0.234375 -1.34375 0.234375q-1.140625 0 -1.828125 -0.484375q-0.6875 -0.484375 -0.796875 -1.3125l1.578125 -0.078125q0.078125 0.359375 0.34375 0.546875q0.28125 0.171875 0.703125 0.171875q0.421875 0 0.6875 -0.15625q0.265625 -0.171875 0.265625 -0.4375q0 -0.421875 -0.75 -0.578125l-1.0 -0.203125q-0.84375 -0.171875 -1.265625 -0.578125q-0.421875 -0.421875 -0.421875 -1.078125q0 -0.5625 0.3125 -0.96875q0.3125 -0.40625 0.859375 -0.625q0.5625 -0.21875 1.296875 -0.21875q1.109375 0 1.734375 0.46875q0.640625 0.46875 0.734375 1.265625z" fill-rule="nonzero"/><path fill="#000000" d="m178.41585 363.64642q0.453125 -0.9375 0.734375 -1.71875q0.296875 -0.796875 0.4375 -1.5q0.140625 -0.71875 0.140625 -1.390625q0 -0.75 -0.15625 -1.609375q-0.15625 -0.875 -0.453125 -1.75q-0.296875 -0.890625 -0.703125 -1.703125l0.859375 0q0.40625 0.640625 0.703125 1.515625q0.296875 0.859375 0.46875 1.78125q0.171875 0.921875 0.171875 1.765625q0 1.140625 -0.34375 2.3125q-0.328125 1.171875 -1.0 2.296875l-0.859375 0z" fill-rule="nonzero"/><path fill="#d0d1d2" d="m143.35715 198.64212l0 0c0 -1.5894318 1.2884979 -2.8779144 2.8779297 -2.8779144l11.511337 0l0 0c0.76327515 0 1.495285 0.3032074 2.0349884 0.84291077c0.5397186 0.5397186 0.842926 1.2717285 0.842926 2.0350037l0 68.690216c0 1.5894165 -1.2884827 2.8778992 -2.8779144 2.8778992l-11.511337 0c-1.5894318 0 -2.8779297 -1.2884827 -2.8779297 -2.8778992z" fill-rule="evenodd"/><path fill="#d0d1d2" d="m143.35715 196.88449l0 0c0 -0.6187134 0.5015869 -1.120285 1.1203003 -1.120285l4.481064 0l0 0c0.29711914 0 0.582077 0.11802673 0.79216003 0.328125c0.21009827 0.21009827 0.32814026 0.4950409 0.32814026 0.79216003l0 72.205444c0 0.6187439 -0.5015869 1.1203003 -1.1203003 1.1203003l-4.481064 0c-0.6187134 0 -1.1203003 -0.5015564 -1.1203003 -1.1203003z" fill-rule="evenodd"/><path fill="#d0d1d2" d="m129.41473 182.01904l0 0c0 -3.6023407 2.9202728 -6.522629 6.5226135 -6.522629l32.124268 0c1.7299042 0 3.3889618 0.6872101 4.612198 1.9104309c1.2232208 1.2232361 1.9104309 2.8822937 1.9104309 4.612198l0 26.089706c0 3.602356 -2.920288 6.522629 -6.522629 6.522629l-32.124268 0c-3.6023407 0 -6.5226135 -2.9202728 -6.5226135 -6.522629z" fill-rule="evenodd"/><path fill="#d0d1d2" d="m129.41473 180.05728l0 0c0 -2.5189056 2.0419617 -4.5608673 4.560852 -4.5608673l18.242874 0l0 0c1.2096252 0 2.36969 0.48051453 3.2250214 1.335846c0.8553314 0.8553314 1.335846 2.015396 1.335846 3.2250214l0 30.013245c0 2.5188904 -2.0419617 4.560852 -4.5608673 4.560852l-18.242874 0c-2.5188904 0 -4.560852 -2.0419617 -4.560852 -4.560852z" fill-rule="evenodd"/><path fill="#d0d1d2" d="m99.39159 115.325676l0 0c0 -9.6850815 7.8513184 -17.5364 17.5364 -17.5364l70.143486 0l0 0c4.65094 0 9.111389 1.84758 12.400101 5.1362915c3.2887268 3.2887115 5.1362915 7.7491684 5.1362915 12.400108l0 70.143486c0 9.685089 -7.851303 17.536392 -17.536392 17.536392l-70.143486 0c-9.6850815 0 -17.5364 -7.851303 -17.5364 -17.536392z" fill-rule="evenodd"/><path fill="#d0d1d2" d="m107.778595 120.91448l0 0c0 -8.139648 6.598488 -14.738144 14.738144 -14.738144l58.950806 0l0 0c3.9087982 0 7.657501 1.5527649 10.4214325 4.316704c2.7639465 2.763939 4.3167114 6.512642 4.3167114 10.42144l0 58.950798c0 8.139664 -6.5984955 14.738144 -14.738144 14.738144l-58.950806 0c-8.139656 0 -14.738144 -6.59848 -14.738144 -14.738144z" fill-rule="evenodd"/><path fill="#d0d1d2" d="m116.1656 126.503296l0 0c0 -6.594223 5.345665 -11.939888 11.93988 -11.939888l47.758118 0l0 0c3.1666565 0 6.2036133 1.2579498 8.44278 3.4971085c2.2391663 2.2391663 3.497116 5.276123 3.497116 8.44278l0 47.758118c0 6.594208 -5.3456726 11.93988 -11.939896 11.93988l-47.758118 0c-6.5942154 0 -11.93988 -5.3456726 -11.93988 -11.93988z" fill-rule="evenodd"/><path fill="#d0d1d2" d="m99.39159 124.30141l8.364723 0l0 52.18991l-8.364723 0z" fill-rule="evenodd"/><path fill="#d0d1d2" d="m196.20804 124.30141l8.364731 0l0 52.18991l-8.364731 0z" fill-rule="evenodd"/><path fill="#d0d1d2" d="m107.778595 128.10796l8.364723 0l0 44.57202l-8.364723 0z" fill-rule="evenodd"/><path fill="#d0d1d2" d="m187.82103 128.10796l8.364731 0l0 44.57202l-8.364731 0z" fill-rule="evenodd"/><path fill="#d0d1d2" d="m124.16914 126.18342l0 0c0 -2.928627 2.374115 -5.302742 5.3027496 -5.302742l21.210327 0l0 0c1.4063873 0 2.7551575 0.5586777 3.7496033 1.5531387c0.99446106 0.99445343 1.5531464 2.3432312 1.5531464 3.7496033l0 21.210335c0 2.9286346 -2.374115 5.3027496 -5.3027496 5.3027496l-21.210327 0c-2.9286346 0 -5.3027496 -2.374115 -5.3027496 -5.3027496z" fill-rule="evenodd"/><path fill="#d0d1d2" d="m155.97223 156.02992l0 0c0 -1.8479156 1.4980316 -3.3459473 3.3459473 -3.3459473l13.383423 0l0 0c0.8874054 0 1.7384644 0.35250854 2.3659515 0.980011c0.6274872 0.6274872 0.980011 1.4785309 0.980011 2.3659363l0 13.383423c0 1.8479309 -1.4980316 3.3459625 -3.3459625 3.3459625l-13.383423 0c-1.8479156 0 -3.3459473 -1.4980316 -3.3459473 -3.3459625z" fill-rule="evenodd"/><path fill="#c16a22" d="m127.357155 182.64212l0 0c0 -1.5894318 1.2884903 -2.8779144 2.877922 -2.8779144l11.511337 0l0 0c0.76327515 0 1.495285 0.3032074 2.0349884 0.84291077c0.5397186 0.5397186 0.842926 1.2717285 0.842926 2.0350037l0 68.6902c0 1.5894318 -1.2884827 2.8779297 -2.8779144 2.8779297l-11.511337 0c-1.5894318 0 -2.877922 -1.2884979 -2.877922 -2.8779297z" fill-rule="evenodd"/><path fill="#f69b50" d="m127.357155 180.88449l0 0c0 -0.6187134 0.50157166 -1.120285 1.1202927 -1.120285l4.481064 0l0 0c0.29711914 0 0.582077 0.11802673 0.79216003 0.328125c0.21009827 0.21009827 0.32814026 0.4950409 0.32814026 0.79216003l0 72.20546c0 0.61872864 -0.5015869 1.1203003 -1.1203003 1.1203003l-4.481064 0c-0.618721 0 -1.1202927 -0.50157166 -1.1202927 -1.1203003z" fill-rule="evenodd"/><path fill="#9a4600" d="m113.41473 166.01904l0 0c0 -3.6023407 2.9202805 -6.522629 6.522621 -6.522629l32.124268 0c1.7299042 0 3.3889618 0.6872101 4.612198 1.9104309c1.2232208 1.2232361 1.9104309 2.8822937 1.9104309 4.612198l0 26.089706c0 3.602356 -2.920288 6.522629 -6.522629 6.522629l-32.124268 0c-3.6023407 0 -6.522621 -2.9202728 -6.522621 -6.522629z" fill-rule="evenodd"/><path fill="#c16a22" d="m113.41473 164.05728l0 0c0 -2.5189056 2.0419693 -4.5608673 4.5608597 -4.5608673l18.242874 0l0 0c1.2096252 0 2.36969 0.48051453 3.2250214 1.335846c0.8553314 0.8553314 1.335846 2.015396 1.335846 3.2250214l0 30.013245c0 2.5188904 -2.0419617 4.560852 -4.5608673 4.560852l-18.242874 0c-2.5188904 0 -4.5608597 -2.0419617 -4.5608597 -4.560852z" fill-rule="evenodd"/><path fill="#fcb630" d="m83.39159 99.325676l0 0c0 -9.6850815 7.8513184 -17.5364 17.5364 -17.5364l70.143486 0l0 0c4.65094 0 9.111389 1.84758 12.400101 5.1362915c3.2887268 3.2887115 5.1362915 7.7491684 5.1362915 12.400108l0 70.143486c0 9.685089 -7.851303 17.536392 -17.536392 17.536392l-70.143486 0c-9.6850815 0 -17.5364 -7.851303 -17.5364 -17.536392z" fill-rule="evenodd"/><path fill="#e09300" d="m91.778595 104.91448l0 0c0 -8.139648 6.598488 -14.738144 14.738144 -14.738144l58.950806 0l0 0c3.9087982 0 7.657501 1.5527649 10.4214325 4.316704c2.7639465 2.763939 4.3167114 6.512642 4.3167114 10.42144l0 58.950798c0 8.139664 -6.5984955 14.738144 -14.738144 14.738144l-58.950806 0c-8.139656 0 -14.738144 -6.59848 -14.738144 -14.738144z" fill-rule="evenodd"/><path fill="#ffd992" d="m100.1656 110.503296l0 0c0 -6.594223 5.345665 -11.939888 11.939888 -11.939888l47.75811 0l0 0c3.1666565 0 6.2036133 1.2579498 8.44278 3.4971085c2.2391663 2.2391663 3.497116 5.276123 3.497116 8.44278l0 47.758118c0 6.594208 -5.3456726 11.93988 -11.939896 11.93988l-47.75811 0c-6.594223 0 -11.939888 -5.3456726 -11.939888 -11.93988z" fill-rule="evenodd"/><path fill="#ffc860" d="m83.39159 108.30141l8.364723 0l0 52.18991l-8.364723 0z" fill-rule="evenodd"/><path fill="#ffc860" d="m180.20804 108.30141l8.364731 0l0 52.18991l-8.364731 0z" fill-rule="evenodd"/><path fill="#fcb630" d="m91.778595 112.10795l8.364723 0l0 44.57203l-8.364723 0z" fill-rule="evenodd"/><path fill="#fcb630" d="m171.82103 112.10795l8.364731 0l0 44.57203l-8.364731 0z" fill-rule="evenodd"/><path fill="#ffe9bf" d="m108.16914 110.18342l0 0c0 -2.928627 2.374115 -5.302742 5.302742 -5.302742l21.210335 0l0 0c1.4063873 0 2.7551575 0.5586777 3.7496033 1.5531387c0.99446106 0.99445343 1.5531464 2.3432312 1.5531464 3.7496033l0 21.210335c0 2.9286346 -2.374115 5.3027496 -5.3027496 5.3027496l-21.210335 0c-2.928627 0 -5.302742 -2.374115 -5.302742 -5.3027496z" fill-rule="evenodd"/><path fill="#ffe9bf" d="m139.97223 140.02992l0 0c0 -1.8479156 1.4980316 -3.3459473 3.3459473 -3.3459473l13.383423 0l0 0c0.8874054 0 1.7384644 0.35250854 2.3659515 0.980011c0.6274872 0.6274872 0.980011 1.4785309 0.980011 2.3659363l0 13.383423c0 1.8479309 -1.4980316 3.3459625 -3.3459625 3.3459625l-13.383423 0c-1.8479156 0 -3.3459473 -1.4980316 -3.3459473 -3.3459625z" fill-rule="evenodd"/></g></svg>