<svg version="1.1" viewBox="0.0 0.0 768.0 96.0" fill="none" stroke="none" stroke-linecap="square" stroke-miterlimit="10" xmlns:xlink="http://www.w3.org/1999/xlink" xmlns="http://www.w3.org/2000/svg"><clipPath id="g3b25f17da62_0_10.0"><path d="m0 0l768.0 0l0 96.0l-768.0 0l0 -96.0z" clip-rule="nonzero"/></clipPath><g clip-path="url(#g3b25f17da62_0_10.0)"><path fill="#ffffff" d="m0 0l768.0 0l0 96.0l-768.0 0z" fill-rule="evenodd"/><path fill="#3b4652" d="m7.4015746 27.722761l0 0c0 -2.282156 1.8500533 -4.13221 4.1322093 -4.13221l744.9324 0c1.0959473 0 2.1469727 0.43535614 2.921936 1.2102966c0.7749634 0.7749386 1.2103271 1.825983 1.2103271 2.9219131l0 55.074165c0 2.2821503 -1.8500977 4.132202 -4.132263 4.132202l-744.9324 0c-2.282156 0 -4.1322093 -1.8500519 -4.1322093 -4.132202z" fill-rule="evenodd"/><path stroke="#3b4652" stroke-width="4.0" stroke-linejoin="round" stroke-linecap="butt" d="m7.4015746 27.722761l0 0c0 -2.282156 1.8500533 -4.13221 4.1322093 -4.13221l744.9324 0c1.0959473 0 2.1469727 0.43535614 2.921936 1.2102966c0.7749634 0.7749386 1.2103271 1.825983 1.2103271 2.9219131l0 55.074165c0 2.2821503 -1.8500977 4.132202 -4.132263 4.132202l-744.9324 0c-2.282156 0 -4.1322093 -1.8500519 -4.1322093 -4.132202z" fill-rule="evenodd"/><path fill="#ffffff" d="m7.4015746 27.722761l0 0c0 -2.282156 1.8500533 -4.13221 4.1322093 -4.13221l744.9324 0c1.0959473 0 2.1469727 0.43535614 2.921936 1.2102966c0.7749634 0.7749386 1.2103271 1.825983 1.2103271 2.9219131l0 55.074165c0 2.2821503 -1.8500977 4.132202 -4.132263 4.132202l-744.9324 0c-2.282156 0 -4.1322093 -1.8500519 -4.1322093 -4.132202z" fill-rule="evenodd"/><path stroke="#d0d1d2" stroke-width="4.0" stroke-linejoin="round" stroke-linecap="butt" d="m7.4015746 27.722761l0 0c0 -2.282156 1.8500533 -4.13221 4.1322093 -4.13221l744.9324 0c1.0959473 0 2.1469727 0.43535614 2.921936 1.2102966c0.7749634 0.7749386 1.2103271 1.825983 1.2103271 2.9219131l0 55.074165c0 2.2821503 -1.8500977 4.132202 -4.132263 4.132202l-744.9324 0c-2.282156 0 -4.1322093 -1.8500519 -4.1322093 -4.132202z" fill-rule="evenodd"/></g></svg>