<svg version="1.1" viewBox="0.0 0.0 864.0 864.0" fill="none" stroke="none" stroke-linecap="square" stroke-miterlimit="10" xmlns:xlink="http://www.w3.org/1999/xlink" xmlns="http://www.w3.org/2000/svg"><clipPath id="g3b77ef49a04_0_578.0"><path d="m0 0l864.0 0l0 864.0l-864.0 0l0 -864.0z" clip-rule="nonzero"/></clipPath><g clip-path="url(#g3b77ef49a04_0_578.0)"><path fill="#51de18" d="m228.565 28.52707l0 0c0 -8.050325 6.5260773 -14.576406 14.576416 -14.576406l125.97397 0c3.8659058 0 7.573456 1.5357246 10.307068 4.26933c2.733612 2.7336063 4.269348 6.4411736 4.269348 10.3070755l0 58.30387c0 8.0503235 -6.5260925 14.576408 -14.576416 14.576408l-125.97397 0c-8.050339 0 -14.576416 -6.526085 -14.576416 -14.576408z" fill-rule="evenodd"/><path fill="#3fbe0c" d="m450.38428 46.647808l0 0c0 -1.7393837 1.4100647 -3.1494293 3.1494446 -3.1494293l12.597321 0l0 0c0.83529663 0 1.6363525 0.3318138 2.2269897 0.9224472c0.5906372 0.5906334 0.92245483 1.3917007 0.92245483 2.226982l0 178.40886c0 1.7393799 -1.4100647 3.1494293 -3.1494446 3.1494293l-12.597321 0c-1.7393799 0 -3.1494446 -1.4100494 -3.1494446 -3.1494293z" fill-rule="evenodd"/><path fill="#55a1ea" d="m436.813 145.69589l0 0c0 -5.6643677 4.591858 -10.256256 10.256226 -10.256256l41.023773 0l0 0c2.7201233 0 5.3288574 1.0805664 7.2522583 3.0039978c1.9234314 1.9234161 3.0039978 4.532135 3.0039978 7.2522583l0 66.94418c0 5.6643677 -4.5918884 10.256241 -10.256256 10.256241l-41.023773 0c-5.6643677 0 -10.256226 -4.591873 -10.256226 -10.256241z" fill-rule="evenodd"/><path fill="#f73d35" d="m514.43536 127.639l0 0c0 -3.8521347 3.1227417 -6.974907 6.9749146 -6.974907l27.898804 0l0 0c1.8498535 0 3.6239014 0.73485565 4.932007 2.0429c1.3080444 1.3080521 2.0428467 3.0821457 2.0428467 4.932007l0 76.276985c0 3.8521423 -3.1227417 6.9749146 -6.9748535 6.9749146l-27.898804 0c-3.8521729 0 -6.9749146 -3.1227722 -6.9749146 -6.9749146z" fill-rule="evenodd"/><path fill="#3fbe0c" d="m353.49078 46.928123l0 0c0 -1.8941956 1.535553 -3.4297447 3.4297485 -3.4297447l108.892 0c0.90963745 0 1.7819824 0.3613472 2.4252014 1.0045509c0.6431885 0.6431999 1.0045471 1.5155678 1.0045471 2.4251938l0 13.718555c0 1.8941956 -1.535553 3.4297447 -3.4297485 3.4297447l-108.892 0c-1.8941956 0 -3.4297485 -1.5355492 -3.4297485 -3.4297447z" fill-rule="evenodd"/><path fill="#51de18" d="m228.565 28.52707l0 0c0 -8.050325 6.5260773 -14.576406 14.576416 -14.576406l125.97397 0c3.8659058 0 7.573456 1.5357246 10.307068 4.26933c2.733612 2.7336063 4.269348 6.4411736 4.269348 10.3070755l0 58.30387c0 8.0503235 -6.5260925 14.576408 -14.576416 14.576408l-125.97397 0c-8.050339 0 -14.576416 -6.526085 -14.576416 -14.576408z" fill-rule="evenodd"/><path fill="#35ad05" d="m450.38428 90.29453l0 0c0 -1.7393799 1.4100647 -3.1494217 3.1494446 -3.1494217l12.597321 0l0 0c0.83529663 0 1.6363525 0.33181 2.2269897 0.9224396c0.5906372 0.5906372 0.92245483 1.3917084 0.92245483 2.226982l0 134.77945c0 1.7393799 -1.4100647 3.1494293 -3.1494446 3.1494293l-12.597321 0c-1.7393799 0 -3.1494446 -1.4100494 -3.1494446 -3.1494293z" fill-rule="evenodd"/><path fill="#60e62a" d="m241.64922 27.910143l0 0c0 -2.7046928 2.1925812 -4.897278 4.897278 -4.897278l65.09764 0c1.2988586 0 2.5444946 0.5159626 3.4628906 1.4343796c0.9184265 0.918417 1.4343872 2.1640587 1.4343872 3.4628983l0 19.588518c0 2.704689 -2.192566 4.897274 -4.897278 4.897274l-65.09764 0l0 0c-2.7046967 0 -4.897278 -2.192585 -4.897278 -4.897274z" fill-rule="evenodd"/><path fill="#60e62a" d="m324.1325 27.910143l0 0c0 -2.7046928 2.192566 -4.897278 4.897278 -4.897278l21.270355 0c1.2988586 0 2.5444946 0.5159626 3.4629211 1.4343796c0.918396 0.918417 1.4343567 2.1640587 1.4343567 3.4628983l0 19.588518c0 2.704689 -2.192566 4.897274 -4.897278 4.897274l-21.270355 0c-2.704712 0 -4.897278 -2.192585 -4.897278 -4.897274z" fill-rule="evenodd"/><path fill="#35ad05" d="m228.565 76.93533l0 0c0 -2.704689 2.1925812 -4.897278 4.897278 -4.897278l145.33224 0c1.2988281 0 2.544464 0.5159607 3.4628906 1.4343796c0.9184265 0.9184189 1.4343872 2.1640625 1.4343872 3.4628983l0 19.588516c0 2.704689 -2.1925964 4.897278 -4.897278 4.897278l-145.33224 0l0 0c-2.7046967 0 -4.897278 -2.1925888 -4.897278 -4.897278z" fill-rule="evenodd"/><path fill="#ffc860" d="m507.93723 217.66286l0 0c0 -10.955353 8.881073 -19.836441 19.836456 -19.836441l246.83679 0c5.2609253 0 10.3063965 2.0899048 14.026489 5.809967c3.7200317 3.720047 5.8099365 8.765533 5.8099365 14.026474l0 79.3434c0 10.955353 -8.8811035 19.836426 -19.836426 19.836426l-246.83679 0c-10.955383 0 -19.836456 -8.881073 -19.836456 -19.836426z" fill-rule="evenodd"/><path fill="#fcb630" d="m522.7398 262.51797l0 0c0 -6.0013123 4.8650513 -10.866333 10.866394 -10.866333l109.05658 0c2.881958 0 5.645813 1.1448364 7.683655 3.1826782c2.0378418 2.0378418 3.1826782 4.8017273 3.1826782 7.683655l0 43.46408c0 6.001343 -4.86499 10.866364 -10.866333 10.866364l-109.05658 0c-6.001343 0 -10.866394 -4.8650208 -10.866394 -10.866364z" fill-rule="evenodd"/><path fill="#ffc860" d="m753.1951 209.18744l0 0c0 -6.274521 5.086487 -11.361023 11.361023 -11.361023l88.08276 0c3.0131226 0 5.902832 1.1969604 8.033447 3.3275757c2.1306152 2.1306 3.3275757 5.0203247 3.3275757 8.033447l0 45.442734c0 6.274521 -5.086487 11.361008 -11.361023 11.361008l-88.08276 0c-6.274536 0 -11.361023 -5.086487 -11.361023 -11.361008z" fill-rule="evenodd"/><path fill="#fcb630" d="m363.75385 232.17331l0 0c0 -18.969269 15.3776245 -34.346893 34.346893 -34.346893l137.38345 0l0 0c9.109375 0 17.845581 3.6186829 24.286926 10.059982c6.441284 6.441284 10.059937 15.177551 10.059937 24.286911l0 165.28253c0 18.969269 -15.3776245 34.346893 -34.346863 34.346893l-137.38345 0c-18.969269 0 -34.346893 -15.3776245 -34.346893 -34.346893z" fill-rule="evenodd"/><path fill="#e09300" d="m406.95108 363.5085l0 0c0 -7.540344 6.1126404 -13.653015 13.652985 -13.653015l108.13312 0c3.6210327 0 7.093689 1.438446 9.654175 3.9988708c2.5604248 2.5604248 3.9988403 6.033142 3.9988403 9.654144l0 54.610413c0 7.540344 -6.112671 13.653015 -13.653015 13.653015l-108.13312 0c-7.540344 0 -13.652985 -6.112671 -13.652985 -13.653015z" fill-rule="evenodd"/><path fill="#ffd992" d="m476.5764 250.63884l0 0c0 -6.055954 4.9093323 -10.965271 10.965271 -10.965271l43.859833 0l0 0c2.908142 0 5.6972046 1.1552582 7.753601 3.2116547c2.0563965 2.0563812 3.21167 4.8454437 3.21167 7.7536163l0 77.79381c0 6.0559387 -4.9093018 10.965271 -10.965271 10.965271l-43.859833 0c-6.0559387 0 -10.965271 -4.9093323 -10.965271 -10.965271z" fill-rule="evenodd"/><path fill="#ffe9bf" d="m433.25073 206.32376l0 0c0 -4.6899567 3.801941 -8.491913 8.491913 -8.491913l78.189606 0c2.2521973 0 4.4121704 0.89468384 6.0046997 2.4872284c1.5925293 1.5925446 2.4872437 3.7524872 2.4872437 6.0046844l0 33.96663c0 4.6899414 -3.802002 8.491898 -8.491943 8.491898l-78.189606 0c-4.689972 0 -8.491913 -3.8019562 -8.491913 -8.491898z" fill-rule="evenodd"/><path fill="#ffe9bf" d="m363.75385 261.2929l0 0c0 -3.9796143 3.2261353 -7.2057495 7.2057495 -7.2057495l28.822174 0l0 0c1.9110718 0 3.7438965 0.7591858 5.095215 2.1105347c1.3513489 1.3513184 2.1105347 3.184143 2.1105347 5.095215l0 163.27197c0 3.9796448 -3.2261353 7.20578 -7.2057495 7.20578l-28.822174 0c-3.9796143 0 -7.2057495 -3.2261353 -7.2057495 -7.20578z" fill-rule="evenodd"/><path fill="#ffe9bf" d="m588.52594 215.1082l0 0c0 -3.8521423 3.1227417 -6.9749146 6.9748535 -6.9749146l104.57184 0c1.8498535 0 3.6239624 0.7348633 4.932007 2.0429077c1.3080444 1.3080444 2.0429077 3.0821533 2.0429077 4.932007l0 27.898804c0 3.852127 -3.1228027 6.9748993 -6.9749146 6.9748993l-104.57184 0c-3.8521118 0 -6.9748535 -3.1227722 -6.9748535 -6.9748993z" fill-rule="evenodd"/><path fill="#ffe9bf" d="m722.55817 213.4958l0 0c0 -2.9596863 2.399292 -5.3589783 5.3589478 -5.3589783l21.435242 0l0 0c1.4213257 0 2.7843628 0.5646057 3.7893677 1.5696106c1.0050049 1.0050049 1.5696411 2.3680725 1.5696411 3.7893677l0 32.81253c0 2.959671 -2.399292 5.3589783 -5.359009 5.3589783l-21.435242 0c-2.9596558 0 -5.3589478 -2.3993073 -5.3589478 -5.3589783z" fill-rule="evenodd"/><path fill="#e09300" d="m826.50073 204.07878l0 0c0 -3.4514465 2.7979736 -6.2493896 6.2493896 -6.2493896l24.996826 0l0 0c1.6574097 0 3.2470093 0.65841675 4.4189453 1.8303986c1.1719971 1.1719971 1.8304443 2.761551 1.8304443 4.418991l0 55.666c0 3.4514465 -2.7979736 6.2493896 -6.2493896 6.2493896l-24.996826 0c-3.451416 0 -6.2493896 -2.797943 -6.2493896 -6.2493896z" fill-rule="evenodd"/><path fill="#e09300" d="m699.3082 274.4688l0 0c0 -4.6899414 3.801941 -8.491913 8.491882 -8.491913l78.18964 0c2.2521973 0 4.4121094 0.89468384 6.0046997 2.4872131c1.5925293 1.5925598 2.4871826 3.7525024 2.4871826 6.0046997l0 33.966614c0 4.689972 -3.801941 8.491913 -8.491882 8.491913l-78.18964 0c-4.6899414 0 -8.491882 -3.801941 -8.491882 -8.491913z" fill-rule="evenodd"/><path fill="#35ad05" d="m228.565 76.93533l0 0c0 -2.704689 2.1925812 -4.897278 4.897278 -4.897278l145.33224 0c1.2988281 0 2.544464 0.5159607 3.4628906 1.4343796c0.9184265 0.9184189 1.4343872 2.1640625 1.4343872 3.4628983l0 19.588516c0 2.704689 -2.1925964 4.897278 -4.897278 4.897278l-145.33224 0l0 0c-2.7046967 0 -4.897278 -2.1925888 -4.897278 -4.897278z" fill-rule="evenodd"/><path fill="#f73d35" d="m283.18176 170.51442l0 0c0 -9.662216 7.8327637 -17.49498 17.494995 -17.49498l69.977844 0l0 0c4.6399536 0 9.089874 1.843216 12.370819 5.124161c3.2809448 3.2809448 5.1241455 7.73085 5.1241455 12.370819l0 96.78865c0 9.662201 -7.8327637 17.494995 -17.494965 17.494995l-69.977844 0c-9.662231 0 -17.494995 -7.832794 -17.494995 -17.494995z" fill-rule="evenodd"/><path fill="#e03027" d="m287.6672 300.83316l0 0c0 -8.842621 7.168335 -16.010956 16.010956 -16.010956l64.04193 0l0 0c4.2463684 0 8.318817 1.6868591 11.321442 4.689514c3.002655 3.0026245 4.689514 7.0750732 4.689514 11.321442l0 75.51813c0 8.842621 -7.1683655 16.010986 -16.010956 16.010986l-64.04193 0c-8.842621 0 -16.010956 -7.1683655 -16.010956 -16.010986z" fill-rule="evenodd"/><path fill="#f73d35" d="m283.18176 409.84583l0 0c0 -9.662201 7.8327637 -17.494965 17.494995 -17.494965l69.977844 0l0 0c4.6399536 0 9.089874 1.8432007 12.370819 5.1241455c3.2809448 3.2809448 5.1241455 7.7308655 5.1241455 12.370819l0 96.788666c0 9.662201 -7.8327637 17.494965 -17.494965 17.494965l-69.977844 0c-9.662231 0 -17.494995 -7.8327637 -17.494995 -17.494965z" fill-rule="evenodd"/><path fill="#fb5c4e" d="m388.1937 431.3596l0 0c0 -10.245026 8.305267 -18.550293 18.550293 -18.550293l190.04935 0c4.919861 0 9.638184 1.9544067 13.117065 5.433258c3.4788208 3.4788513 5.4332275 8.197205 5.4332275 13.117035l0 74.198944c0 10.245056 -8.305237 18.550293 -18.550293 18.550293l-190.04935 0c-10.245026 0 -18.550293 -8.305237 -18.550293 -18.550293z" fill-rule="evenodd"/><path fill="#fb5c4e" d="m514.43536 320.0153l0 0c0 -10.245056 8.305237 -18.550293 18.550293 -18.550293l173.42859 0c4.919861 0 9.638184 1.9544067 13.117065 5.433258c3.4788208 3.4788513 5.4332275 8.197174 5.4332275 13.117035l0 74.19891c0 10.245056 -8.305237 18.550293 -18.550293 18.550293l-173.42859 0c-10.245056 0 -18.550293 -8.305237 -18.550293 -18.550293z" fill-rule="evenodd"/><path fill="#fb5c4e" d="m293.4922 169.6287l0 0c0 -3.4787598 2.8200989 -6.2988434 6.2988586 -6.2988434l25.194641 0l0 0c1.6705627 0 3.272705 0.66362 4.4539795 1.8448792c1.1812439 1.1812744 1.8448792 2.7834015 1.8448792 4.453964l0 77.629105c0 3.4787598 -2.8200989 6.2988434 -6.2988586 6.2988434l-25.194641 0c-3.4787598 0 -6.2988586 -2.8200836 -6.2988586 -6.2988434z" fill-rule="evenodd"/><path fill="#fb5c4e" d="m293.4922 408.9601l0 0c0 -3.4787598 2.8200989 -6.2988586 6.2988586 -6.2988586l25.194641 0l0 0c1.6705627 0 3.272705 0.66363525 4.4539795 1.8449097c1.1812439 1.1812439 1.8448792 2.7833862 1.8448792 4.453949l0 77.62909c0 3.4787598 -2.8200989 6.2988586 -6.2988586 6.2988586l-25.194641 0c-3.4787598 0 -6.2988586 -2.8200989 -6.2988586 -6.2988586z" fill-rule="evenodd"/><path fill="#e03027" d="m357.0967 158.19702l0 0c0 -2.859497 2.3181152 -5.177582 5.1776123 -5.177582l20.709747 0l0 0c1.373169 0 2.6901245 0.54548645 3.6611023 1.5164795c0.9709778 0.9709778 1.5164795 2.287918 1.5164795 3.6611023l0 122.41278c0 2.859497 -2.3180847 5.177582 -5.177582 5.177582l-20.709747 0c-2.859497 0 -5.1776123 -2.3180847 -5.1776123 -5.177582z" fill-rule="evenodd"/><path fill="#f73d35" d="m573.49695 419.7842l0 0c0 -3.8521423 3.1228027 -6.9749146 6.9749146 -6.9749146l27.898804 0l0 0c1.8498535 0 3.6239624 0.7348633 4.932007 2.0429077c1.3080444 1.3080444 2.0429077 3.0821533 2.0429077 4.932007l0 97.3497c0 3.8521118 -3.1228027 6.9749146 -6.9749146 6.9749146l-27.898804 0c-3.8521118 0 -6.9749146 -3.1228027 -6.9749146 -6.9749146z" fill-rule="evenodd"/><path fill="#f73d35" d="m672.2577 310.2537l0 0c0 -4.8538513 3.9348755 -8.788696 8.788696 -8.788696l35.15381 0l0 0c2.3309326 0 4.5664062 0.92593384 6.2145996 2.5741577c1.6481934 1.6481934 2.5741577 3.8836365 2.5741577 6.2145386l0 93.72211c0 4.8538513 -3.9348755 8.788696 -8.788757 8.788696l-35.15381 0c-4.853821 0 -8.788696 -3.934845 -8.788696 -8.788696z" fill-rule="evenodd"/><path fill="#fc8076" d="m417.67038 434.38507l0 0c0 -4.2619324 3.4549866 -7.716919 7.716919 -7.716919l89.533966 0c2.0466309 0 4.0094604 0.8130188 5.456665 2.2602234c1.4472046 1.4472046 2.260254 3.4100342 2.260254 5.4566956l0 30.86676c0 4.2619324 -3.454956 7.716919 -7.716919 7.716919l-89.533966 0c-4.2619324 0 -7.716919 -3.4549866 -7.716919 -7.716919z" fill-rule="evenodd"/><path fill="#fc8076" d="m534.6536 322.57352l0 0c0 -4.198181 3.4033203 -7.601471 7.6015015 -7.601471l42.27704 0c2.0160522 0 3.949524 0.8008728 5.375061 2.22641c1.4255371 1.4255676 2.2264404 3.3590393 2.2264404 5.375061l0 30.40509c0 4.198181 -3.4033203 7.6015015 -7.6015015 7.6015015l-42.27704 0l0 0c-4.198181 0 -7.6015015 -3.4033203 -7.6015015 -7.6015015z" fill-rule="evenodd"/><path fill="#f73d35" d="m333.48224 301.7528l0 0c0 -3.4787598 2.8200989 -6.298828 6.2988586 -6.298828l25.194641 0l0 0c1.6705627 0 3.272705 0.66360474 4.4539795 1.8448792c1.1812439 1.1812744 1.8448792 2.7834167 1.8448792 4.453949l0 69.318756c0 3.4787598 -2.8200989 6.2988586 -6.2988586 6.2988586l-25.194641 0c-3.4787598 0 -6.2988586 -2.8200989 -6.2988586 -6.2988586z" fill-rule="evenodd"/><path fill="#f73d35" d="m305.13876 342.86038l0 0c0 -3.8521423 3.1227722 -6.9749146 6.974884 -6.9749146l37.98996 0c1.8498535 0 3.6239624 0.73483276 4.932007 2.0429077c1.3080444 1.3080444 2.0429077 3.0821228 2.0429077 4.932007l0 27.898773c0 3.8521423 -3.1227722 6.9749146 -6.9749146 6.9749146l-37.98996 0l0 0c-3.8521118 0 -6.974884 -3.1227722 -6.974884 -6.9749146z" fill-rule="evenodd"/><path fill="#e03027" d="m686.81 337.92404l0 0c0 -2.1674194 1.757019 -3.9244385 3.9244385 -3.9244385l15.697144 0l0 0c1.0408325 0 2.0390625 0.41348267 2.7750244 1.1494446c0.7359619 0.7359619 1.1494141 1.7341614 1.1494141 2.774994l0 38.45175c0 2.167389 -1.757019 3.924408 -3.9244385 3.924408l-15.697144 0c-2.1674194 0 -3.9244385 -1.757019 -3.9244385 -3.924408z" fill-rule="evenodd"/><path fill="#eeeeee" d="m201.67494 198.77861l0 0c22.27385 -6.7507935 45.802963 5.833145 52.55374 28.10701l154.4146 509.48303c3.2418213 10.696228 2.1018066 22.242249 -3.169281 32.098022c-5.2710876 9.855713 -14.241455 17.213867 -24.937744 20.455688l-161.31668 48.89203c-22.27385 6.7507935 -45.802963 -5.833191 -52.55374 -28.106995l-154.4146 -509.48303c-6.750781 -22.273865 5.8331566 -45.802963 28.10701 -52.553757z" fill-rule="evenodd"/><path fill="#cfcfcf" d="m285.00922 473.7358l0 0c22.273865 -6.7507935 45.80298 5.8331604 52.55374 28.106995l71.08148 234.5297c3.2418518 10.696289 2.1018372 22.242249 -3.1692505 32.098022c-5.2710876 9.855713 -14.241486 17.213867 -24.937744 20.455688l-161.3167 48.89203c-22.27385 6.7507935 -45.80298 -5.83313 -52.553757 -28.106995l-71.08147 -234.52966l0 0c-6.750778 -22.273865 5.8331604 -45.80298 28.10701 -52.553772z" fill-rule="evenodd"/><path fill="#f73d35" d="m201.67494 198.77861l0 0c22.27385 -6.7507935 45.802963 5.833145 52.55374 28.10701l71.08147 234.52966c3.2418518 10.696289 2.1018372 22.24228 -3.1692505 32.098022c-5.2710876 9.855743 -14.241486 17.213867 -24.937744 20.45575l-161.3167 48.891968c-22.273857 6.7507935 -45.80297 -5.83313 -52.55375 -28.106995l-71.08147 -234.52966l0 0c-6.750781 -22.273865 5.8331566 -45.802963 28.10701 -52.553757z" fill-rule="evenodd"/><path fill="#f3f8fe" d="m318.24948 463.00064l0 0c3.8144836 -1.1560974 7.843933 0.9989319 9.0000305 4.8134155l8.372955 27.626099l0 0c0.5551758 1.8317871 0.35992432 3.809082 -0.5427551 5.4969177c-0.90270996 1.6878357 -2.4389038 2.947937 -4.270691 3.5031128l-228.16399 69.15216c-3.8144836 1.1561279 -7.843933 -0.9989624 -9.0000305 -4.8134155l-8.37294 -27.626099c-1.1560974 -3.8145142 0.99894714 -7.843933 4.813431 -9.000061z" fill-rule="evenodd"/><path fill="#e7f2ff" d="m262.77762 479.81522l0 0c3.8144836 -1.1560974 7.843933 0.9989319 9.0000305 4.8134155l8.372955 27.62613l0 0c0.5551758 1.8317261 0.35995483 3.809021 -0.5427551 5.496887c-0.90267944 1.6878052 -2.4389038 2.947937 -4.270691 3.5031128l-172.66455 52.33136c-3.8144836 1.1560669 -7.843933 -0.9989624 -9.0000305 -4.8134766l-8.372948 -27.626099c-1.1560898 -3.8144531 0.9989548 -7.843933 4.8134384 -9.0z" fill-rule="evenodd"/><path fill="#d1e8ff" d="m161.2985 510.5716l0 0c3.8144836 -1.1560974 7.843933 0.9989624 9.0000305 4.8134155l8.37294 27.626099l0 0c0.5551758 1.8317871 0.35993958 3.809082 -0.5427551 5.4969482c-0.9026947 1.6878052 -2.4389038 2.947937 -4.2706757 3.5031128l-71.23939 21.591309c-3.8144836 1.1560669 -7.843933 -0.9989624 -9.0000305 -4.8134766l-8.372948 -27.626099c-1.1560974 -3.8144531 0.9989548 -7.843933 4.813431 -9.0z" fill-rule="evenodd"/><path fill="#f3f3f3" d="m323.88873 519.36615l0 0c3.1163025 -0.944458 6.4082336 0.8161621 7.352722 3.932434l63.358307 209.04755c0.45358276 1.496521 0.29406738 3.1118774 -0.4433899 4.4907837c-0.7374573 1.3789062 -1.9924927 2.4083862 -3.4890137 2.8619385l-22.569519 6.840393c-3.1163025 0.94451904 -6.408203 -0.8161011 -7.3526917 -3.932373l-63.358337 -209.0476c-0.9444885 -3.116272 0.8161011 -6.408203 3.9324036 -7.352722z" fill-rule="evenodd"/><path fill="#9f9f9f" d="m162.30441 568.3393l0 0c5.6621246 -1.7160645 11.643341 1.4828491 13.359421 7.1449585l60.564148 199.82831c0.8240967 2.7190552 0.53430176 5.654114 -0.80563354 8.159485c-1.3399353 2.505371 -3.6202545 4.3758545 -6.3392944 5.199951l-41.007492 12.428589c-5.6621246 1.7160645 -11.643341 -1.4828491 -13.359421 -7.1449585l-60.564156 -199.82831c-1.7160797 -5.6621094 1.4828186 -11.643372 7.1449356 -13.359436z" fill-rule="evenodd"/><path fill="#fc8076" d="m237.43167 234.0986l0 0c3.1163025 -0.9444885 6.4082184 0.8161011 7.352707 3.9324036l63.358322 209.04758c0.45358276 1.4964905 0.29406738 3.1118774 -0.4433899 4.4907837c-0.7374573 1.3788757 -1.9924927 2.4083557 -3.4889832 2.861908l-22.56955 6.840393c-3.1163025 0.9444885 -6.408203 -0.8161011 -7.3526917 -3.9324036l-63.358353 -209.04756c-0.9444885 -3.1163025 0.81611633 -6.4082184 3.9324036 -7.352707z" fill-rule="evenodd"/><path fill="#e03027" d="m75.84735 283.07172l0 0c5.6621246 -1.7160645 11.643341 1.4828186 13.359421 7.1449585l60.564163 199.82831c0.8240814 2.7190552 0.5342865 5.654114 -0.8056488 8.159485c-1.3399353 2.505371 -3.6202545 4.3758545 -6.3392944 5.199951l-41.007492 12.428589c-5.6621246 1.7160645 -11.643341 -1.4828491 -13.359421 -7.1449585l-60.564156 -199.82831c-1.7160816 -5.6621094 1.4828167 -11.643341 7.1449394 -13.359436z" fill-rule="evenodd"/></g></svg>