<svg version="1.1" viewBox="0.0 0.0 288.0 384.0" fill="none" stroke="none" stroke-linecap="square" stroke-miterlimit="10" xmlns:xlink="http://www.w3.org/1999/xlink" xmlns="http://www.w3.org/2000/svg"><clipPath id="g3a6f757e31a_0_114.0"><path d="m0 0l288.0 0l0 384.0l-288.0 0l0 -384.0z" clip-rule="nonzero"/></clipPath><g clip-path="url(#g3a6f757e31a_0_114.0)"><path fill="#161d25" d="m0 0l288.0 0l0 384.0l-288.0 0z" fill-rule="evenodd"/><path fill="#3b4652" d="m5.7007875 34.135216l0 0c0 -9.966135 8.079147 -18.045282 18.04528 -18.045282l240.50787 0c4.7858887 0 9.375793 1.9011936 12.759949 5.2853394c3.3841248 3.3841476 5.2853394 7.9740353 5.2853394 12.759943l0 324.2244c0 9.9661255 -8.079163 18.045288 -18.045288 18.045288l-240.50787 0l0 0c-9.966134 0 -18.04528 -8.079163 -18.04528 -18.045288z" fill-rule="evenodd"/><path stroke="#3b4652" stroke-width="4.0" stroke-linejoin="round" stroke-linecap="butt" d="m5.7007875 34.135216l0 0c0 -9.966135 8.079147 -18.045282 18.04528 -18.045282l240.50787 0c4.7858887 0 9.375793 1.9011936 12.759949 5.2853394c3.3841248 3.3841476 5.2853394 7.9740353 5.2853394 12.759943l0 324.2244c0 9.9661255 -8.079163 18.045288 -18.045288 18.045288l-240.50787 0l0 0c-9.966134 0 -18.04528 -8.079163 -18.04528 -18.045288z" fill-rule="evenodd"/><path fill="#29323c" d="m5.7007875 25.639769l0 0c0 -9.966133 8.079147 -18.04528 18.04528 -18.04528l240.50787 0c4.7858887 0 9.375793 1.9011936 12.759949 5.2853403c3.3841248 3.3841467 5.2853394 7.9740343 5.2853394 12.75994l0 324.2244c0 9.9661255 -8.079163 18.045288 -18.045288 18.045288l-240.50787 0l0 0c-9.966134 0 -18.04528 -8.079163 -18.04528 -18.045288z" fill-rule="evenodd"/><path stroke="#3b4652" stroke-width="4.0" stroke-linejoin="round" stroke-linecap="butt" d="m5.7007875 25.639769l0 0c0 -9.966133 8.079147 -18.04528 18.04528 -18.04528l240.50787 0c4.7858887 0 9.375793 1.9011936 12.759949 5.2853403c3.3841248 3.3841467 5.2853394 7.9740343 5.2853394 12.75994l0 324.2244c0 9.9661255 -8.079163 18.045288 -18.045288 18.045288l-240.50787 0l0 0c-9.966134 0 -18.04528 -8.079163 -18.04528 -18.045288z" fill-rule="evenodd"/><path fill="#000000" fill-opacity="0.0" d="m21.700787 315.7533l260.59845 0l0 38.771637l-260.59845 0z" fill-rule="evenodd"/><path fill="#ffffff" d="m49.357037 328.11328l0 12.0l-3.15625 0l0 -10.8125l0.703125 0.078125l-4.640625 10.734375l-3.359375 0l-4.65625 -10.703125l0.71875 -0.078125l0 10.78125l-3.140625 0l0 -12.0l5.109375 0l4.3125 10.296875l-1.28125 0l4.265625 -10.296875l5.125 0zm2.0104218 2.71875l1.65625 0.328125l1.625 -0.328125l0 9.28125l-3.28125 0l0 -9.28125zm1.640625 -0.75q-0.84375 0 -1.375 -0.421875q-0.53125 -0.421875 -0.53125 -1.15625q0 -0.734375 0.53125 -1.15625q0.53125 -0.4375 1.375 -0.4375q0.875 0 1.390625 0.4375q0.53125 0.421875 0.53125 1.15625q0 0.734375 -0.53125 1.15625q-0.515625 0.421875 -1.390625 0.421875zm14.337635 6.171875q-0.140625 1.234375 -0.90625 2.171875q-0.765625 0.921875 -1.984375 1.4375q-1.2187538 0.5 -2.7500038 0.5q-1.671875 0 -2.953125 -0.59375q-1.28125 -0.609375 -2.0 -1.703125q-0.71875 -1.09375 -0.71875 -2.515625q0 -1.4375 0.71875 -2.515625q0.71875 -1.09375 2.0 -1.703125q1.28125 -0.625 2.953125 -0.625q1.53125 0 2.7500038 0.515625q1.21875 0.515625 1.984375 1.4375q0.765625 0.921875 0.90625 2.171875l-3.25 0q-0.17187881 -0.8125 -0.8125038 -1.25q-0.640625 -0.4375 -1.578125 -0.4375q-0.71875 0 -1.25 0.28125q-0.53125 0.265625 -0.828125 0.8125q-0.296875 0.53125 -0.296875 1.3125q0 0.765625 0.296875 1.3125q0.296875 0.53125 0.828125 0.8125q0.53125 0.28125 1.25 0.28125q0.9375 0 1.578125 -0.46875q0.65625 -0.46875 0.8125038 -1.234375l3.25 0zm0.8159027 -5.28125l3.328125 0l0.546875 3.265625l0 5.875l-3.265625 0l0 -6.0625l-0.609375 -3.078125zm8.15625 -0.140625l0 2.78125q-0.484375 -0.09375 -0.90625 -0.125q-0.421875 -0.046875 -0.78125 -0.046875q-0.703125 0 -1.296875 0.28125q-0.578125 0.28125 -0.9375 0.921875q-0.359375 0.640625 -0.359375 1.703125l-0.625 -0.765625q0.125 -0.984375 0.375 -1.859375q0.265625 -0.875 0.703125 -1.546875q0.4375 -0.6875 1.09375 -1.078125q0.65625 -0.390625 1.59375 -0.390625q0.28125 0 0.5625 0.03125q0.296875 0.03125 0.578125 0.09375zm6.326767 9.53125q-1.765625 0 -3.078125 -0.59375q-1.3125 -0.59375 -2.046875 -1.6875q-0.734375 -1.109375 -0.734375 -2.53125q0 -1.453125 0.734375 -2.53125q0.734375 -1.09375 2.046875 -1.703125q1.3125 -0.609375 3.078125 -0.609375q1.734375 0 3.046875 0.609375q1.328125 0.609375 2.0625 1.703125q0.734375 1.078125 0.734375 2.53125q0 1.421875 -0.734375 2.53125q-0.734375 1.09375 -2.0625 1.6875q-1.3125 0.59375 -3.046875 0.59375zm0 -2.40625q0.796875 0 1.359375 -0.28125q0.5625 -0.296875 0.859375 -0.84375q0.3125 -0.546875 0.3125 -1.28125q0 -0.765625 -0.3125 -1.296875q-0.296875 -0.546875 -0.859375 -0.828125q-0.5625 -0.28125 -1.359375 -0.28125q-0.8125 0 -1.390625 0.28125q-0.5625 0.28125 -0.875 0.828125q-0.296875 0.53125 -0.296875 1.28125q0 0.75 0.296875 1.296875q0.3125 0.546875 0.875 0.84375q0.578125 0.28125 1.390625 0.28125zm17.812653 -0.8125q0 1.046875 -0.640625 1.765625q-0.640625 0.71875 -1.828125 1.09375q-1.171875 0.359375 -2.84375 0.359375q-1.703125 0 -3.0 -0.40625q-1.28125 -0.421875 -2.0 -1.171875q-0.71875 -0.75 -0.765625 -1.75l3.3125 0q0.109375 0.375 0.4375 0.640625q0.328125 0.265625 0.859375 0.40625q0.546875 0.125 1.296875 0.125q0.984375 0 1.484375 -0.1875q0.5 -0.1875 0.5 -0.578125q0 -0.296875 -0.390625 -0.453125q-0.375 -0.15625 -1.296875 -0.234375l-1.625 -0.125q-1.609375 -0.109375 -2.5625 -0.484375q-0.953125 -0.390625 -1.375 -0.984375q-0.40625 -0.59375 -0.40625 -1.359375q0 -1.046875 0.640625 -1.71875q0.65625 -0.6875 1.8125 -1.03125q1.15625 -0.34375 2.71875 -0.34375q1.53125 0 2.734375 0.40625q1.203125 0.390625 1.921875 1.109375q0.71875 0.703125 0.828125 1.671875l-3.3125 0q-0.078125 -0.3125 -0.359375 -0.5625q-0.265625 -0.25 -0.75 -0.40625q-0.46875 -0.15625 -1.234375 -0.15625q-0.875 0 -1.328125 0.203125q-0.453125 0.1875 -0.453125 0.53125q0 0.265625 0.28125 0.4375q0.28125 0.15625 1.046875 0.21875l2.125 0.15625q1.578125 0.09375 2.484375 0.46875q0.921875 0.359375 1.296875 0.953125q0.390625 0.578125 0.390625 1.40625zm12.280518 -0.890625q-0.140625 1.234375 -0.90625 2.171875q-0.765625 0.921875 -1.984375 1.4375q-1.21875 0.5 -2.75 0.5q-1.671875 0 -2.953125 -0.59375q-1.28125 -0.609375 -2.0 -1.703125q-0.71875 -1.09375 -0.71875 -2.515625q0 -1.4375 0.71875 -2.515625q0.71875 -1.09375 2.0 -1.703125q1.28125 -0.625 2.953125 -0.625q1.53125 0 2.75 0.515625q1.21875 0.515625 1.984375 1.4375q0.765625 0.921875 0.90625 2.171875l-3.25 0q-0.171875 -0.8125 -0.8125 -1.25q-0.640625 -0.4375 -1.578125 -0.4375q-0.71875 0 -1.25 0.28125q-0.53125 0.265625 -0.828125 0.8125q-0.296875 0.53125 -0.296875 1.3125q0 0.765625 0.296875 1.3125q0.296875 0.53125 0.828125 0.8125q0.53125 0.28125 1.25 0.28125q0.9375 0 1.578125 -0.46875q0.65625 -0.46875 0.8125 -1.234375l3.25 0zm6.738907 4.109375q-1.765625 0 -3.078125 -0.59375q-1.3125 -0.59375 -2.046875 -1.6875q-0.734375 -1.109375 -0.734375 -2.53125q0 -1.453125 0.734375 -2.53125q0.734375 -1.09375 2.046875 -1.703125q1.3125 -0.609375 3.078125 -0.609375q1.734375 0 3.046875 0.609375q1.328125 0.609375 2.0625 1.703125q0.734375 1.078125 0.734375 2.53125q0 1.421875 -0.734375 2.53125q-0.734375 1.09375 -2.0625 1.6875q-1.3125 0.59375 -3.046875 0.59375zm0 -2.40625q0.796875 0 1.359375 -0.28125q0.5625 -0.296875 0.859375 -0.84375q0.3125 -0.546875 0.3125 -1.28125q0 -0.765625 -0.3125 -1.296875q-0.296875 -0.546875 -0.859375 -0.828125q-0.5625 -0.28125 -1.359375 -0.28125q-0.8125 0 -1.390625 0.28125q-0.5625 0.28125 -0.875 0.828125q-0.296875 0.53125 -0.296875 1.28125q0 0.75 0.296875 1.296875q0.3125 0.546875 0.875 0.84375q0.578125 0.28125 1.390625 0.28125zm7.2189026 -6.984375l3.28125 0l0 2.625l-0.140625 0.390625l0 2.5625l0.140625 0.75l0 5.453125l-3.28125 0l0 -11.78125zm2.25 4.578125q0.203125 -1.484375 0.859375 -2.5625q0.671875 -1.078125 1.6875 -1.671875q1.03125 -0.609375 2.328125 -0.609375q1.34375 0 2.359375 0.609375q1.015625 0.609375 1.578125 1.703125q0.578125 1.078125 0.578125 2.53125q0 1.421875 -0.578125 2.53125q-0.5625 1.09375 -1.578125 1.6875q-1.015625 0.59375 -2.359375 0.59375q-1.296875 0 -2.328125 -0.59375q-1.015625 -0.59375 -1.671875 -1.6875q-0.65625 -1.09375 -0.875 -2.53125zm6.09375 0q0 -0.6875 -0.28125 -1.203125q-0.28125 -0.53125 -0.796875 -0.828125q-0.5 -0.3125 -1.125 -0.3125q-0.65625 0 -1.25 0.3125q-0.59375 0.296875 -1.046875 0.828125q-0.453125 0.515625 -0.6875 1.203125q0.234375 0.671875 0.6875 1.203125q0.453125 0.53125 1.046875 0.828125q0.59375 0.296875 1.25 0.296875q0.625 0 1.125 -0.296875q0.515625 -0.296875 0.796875 -0.828125q0.28125 -0.53125 0.28125 -1.203125zm10.055649 4.8125q-1.65625 0 -2.96875 -0.59375q-1.296875 -0.609375 -2.046875 -1.703125q-0.75 -1.109375 -0.75 -2.5625q0 -1.421875 0.71875 -2.5q0.71875 -1.078125 1.96875 -1.6875q1.265625 -0.609375 2.84375 -0.609375q1.640625 0 2.796875 0.71875q1.171875 0.703125 1.796875 2.0q0.640625 1.296875 0.640625 3.0625l-8.125 0l0 -1.96875l6.28125 0l-1.0625 0.6875q-0.078125 -0.703125 -0.359375 -1.1875q-0.28125 -0.5 -0.765625 -0.75q-0.46875 -0.265625 -1.125 -0.265625q-0.71875 0 -1.234375 0.296875q-0.5 0.28125 -0.796875 0.796875q-0.28125 0.5 -0.28125 1.171875q0 0.859375 0.390625 1.46875q0.390625 0.59375 1.140625 0.921875q0.765625 0.3125 1.875 0.3125q1.0 0 2.0 -0.265625q1.0 -0.265625 1.828125 -0.75l0 2.078125q-0.953125 0.640625 -2.171875 0.984375q-1.203125 0.34375 -2.59375 0.34375z" fill-rule="nonzero"/><path fill="#ffffff" d="m158.97234 336.95703q0 -0.84375 0.171875 -1.765625q0.171875 -0.921875 0.46875 -1.78125q0.3125 -0.875 0.703125 -1.515625l0.859375 0q-0.40625 0.8125 -0.703125 1.703125q-0.296875 0.875 -0.453125 1.75q-0.15625 0.859375 -0.15625 1.609375q0 0.671875 0.140625 1.390625q0.140625 0.703125 0.421875 1.5q0.296875 0.78125 0.75 1.71875l-0.859375 0q-0.671875 -1.125 -1.015625 -2.296875q-0.328125 -1.171875 -0.328125 -2.3125z" fill-rule="nonzero"/><path fill="#ffffff" d="m164.3885 340.11328l0 -5.8125l1.53125 0l0 1.03125l0.078125 0q0.171875 -0.515625 0.59375 -0.8125q0.4375 -0.296875 1.015625 -0.296875q0.609375 0 1.015625 0.296875q0.421875 0.296875 0.5625 0.8125l0.0625 0q0.1875 -0.5 0.65625 -0.796875q0.46875 -0.3125 1.09375 -0.3125q0.8125 0 1.328125 0.515625q0.515625 0.515625 0.515625 1.46875l0 3.90625l-1.609375 0l0 -3.59375q0 -0.484375 -0.265625 -0.71875q-0.25 -0.25 -0.640625 -0.25q-0.4375 0 -0.6875 0.28125q-0.25 0.28125 -0.25 0.734375l0 3.546875l-1.5625 0l0 -3.625q0 -0.421875 -0.25 -0.671875q-0.234375 -0.265625 -0.625 -0.265625q-0.28125 0 -0.5 0.140625q-0.203125 0.140625 -0.328125 0.375q-0.125 0.234375 -0.125 0.5625l0 3.484375l-1.609375 0zm11.048111 0.109375q-0.546875 0 -0.984375 -0.1875q-0.4375 -0.203125 -0.6875 -0.578125q-0.25 -0.390625 -0.25 -0.96875q0 -0.484375 0.171875 -0.8125q0.171875 -0.328125 0.484375 -0.53125q0.3125 -0.203125 0.703125 -0.296875q0.390625 -0.109375 0.828125 -0.15625q0.5 -0.046875 0.796875 -0.09375q0.3125 -0.046875 0.453125 -0.140625q0.140625 -0.09375 0.140625 -0.28125l0 -0.015625q0 -0.359375 -0.234375 -0.5625q-0.21875 -0.203125 -0.625 -0.203125q-0.421875 0 -0.6875 0.203125q-0.25 0.1875 -0.34375 0.46875l-1.484375 -0.109375q0.109375 -0.53125 0.4375 -0.921875q0.34375 -0.390625 0.859375 -0.59375q0.53125 -0.21875 1.234375 -0.21875q0.484375 0 0.921875 0.125q0.4375 0.109375 0.78125 0.34375q0.359375 0.234375 0.5625 0.609375q0.203125 0.375 0.203125 0.890625l0 3.921875l-1.546875 0l0 -0.8125l-0.03125 0q-0.140625 0.28125 -0.375 0.484375q-0.234375 0.203125 -0.5625 0.328125q-0.328125 0.109375 -0.765625 0.109375zm0.46875 -1.109375q0.34375 0 0.609375 -0.140625q0.28125 -0.15625 0.4375 -0.390625q0.15625 -0.25 0.15625 -0.546875l0 -0.609375q-0.078125 0.03125 -0.21875 0.078125q-0.125 0.046875 -0.28125 0.078125q-0.15625 0.03125 -0.328125 0.0625q-0.15625 0.015625 -0.28125 0.03125q-0.28125 0.046875 -0.5 0.140625q-0.21875 0.078125 -0.34375 0.234375q-0.109375 0.15625 -0.109375 0.390625q0 0.328125 0.234375 0.5q0.25 0.171875 0.625 0.171875zm3.7442627 1.0l0 -5.8125l1.609375 0l0 5.8125l-1.609375 0zm0.8125 -6.5625q-0.359375 0 -0.625 -0.234375q-0.25 -0.25 -0.25 -0.578125q0 -0.34375 0.25 -0.578125q0.265625 -0.234375 0.625 -0.234375q0.359375 0 0.609375 0.234375q0.265625 0.234375 0.265625 0.578125q0 0.328125 -0.265625 0.578125q-0.25 0.234375 -0.609375 0.234375z" fill-rule="nonzero"/><path fill="#ffffff" d="m186.98323 338.6914q-0.453125 0 -0.84375 -0.21875q-0.375 -0.234375 -0.609375 -0.609375q-0.21875 -0.390625 -0.21875 -0.84375q0 -0.453125 0.21875 -0.828125q0.234375 -0.390625 0.609375 -0.609375q0.390625 -0.21875 0.84375 -0.21875q0.453125 0 0.828125 0.21875q0.390625 0.21875 0.609375 0.609375q0.21875 0.375 0.21875 0.828125q0 0.453125 -0.21875 0.84375q-0.21875 0.375 -0.609375 0.609375q-0.375 0.21875 -0.828125 0.21875zm6.148926 -0.703125l-0.015625 -1.09375l0.1875 0l2.53125 -2.59375l1.109375 0l-2.703125 2.75l-0.09375 0l-1.015625 0.9375zm-0.828125 2.125l0 -7.75l0.875 0l0 7.75l-0.875 0zm3.671875 0l-2.265625 -2.875l0.640625 -0.625l2.78125 3.5l-1.15625 0zm1.6250305 0l0 -5.8125l0.84375 0l0 0.875l0.0625 0q0.171875 -0.421875 0.578125 -0.6875q0.421875 -0.28125 0.9375 -0.28125q0.109375 0 0.25 0.015625q0.140625 0 0.21875 0l0 0.90625q-0.046875 -0.015625 -0.203125 -0.03125q-0.15625 -0.015625 -0.34375 -0.015625q-0.421875 0 -0.75 0.171875q-0.328125 0.171875 -0.53125 0.484375q-0.1875 0.3125 -0.1875 0.703125l0 3.671875l-0.875 0zm7.1216125 -2.375l0 -3.4375l0.890625 0l0 5.8125l-0.890625 0l0 -0.984375l-0.0625 0q-0.203125 0.4375 -0.640625 0.75q-0.421875 0.3125 -1.078125 0.3125q-0.546875 0 -0.96875 -0.234375q-0.421875 -0.25 -0.671875 -0.734375q-0.234375 -0.484375 -0.234375 -1.234375l0 -3.6875l0.875 0l0 3.640625q0 0.625 0.359375 1.015625q0.375 0.375 0.921875 0.359375q0.328125 0 0.671875 -0.15625q0.359375 -0.171875 0.59375 -0.515625q0.234375 -0.359375 0.234375 -0.90625zm2.9111023 -1.125l0 3.5l-0.875 0l0 -7.75l0.875 0l0 2.84375l0.09375 0q0.203125 -0.453125 0.609375 -0.71875q0.40625 -0.265625 1.09375 -0.265625q0.59375 0 1.03125 0.234375q0.453125 0.234375 0.703125 0.734375q0.25 0.484375 0.25 1.234375l0 3.6875l-0.890625 0l0 -3.625q0 -0.703125 -0.359375 -1.078125q-0.359375 -0.390625 -1.0 -0.390625q-0.4375 0 -0.78125 0.1875q-0.34375 0.1875 -0.546875 0.546875q-0.203125 0.359375 -0.203125 0.859375zm9.601257 2.078125q-0.453125 0 -0.84375 -0.21875q-0.375 -0.234375 -0.609375 -0.609375q-0.21875 -0.390625 -0.21875 -0.84375q0 -0.453125 0.21875 -0.828125q0.234375 -0.390625 0.609375 -0.609375q0.390625 -0.21875 0.84375 -0.21875q0.453125 0 0.828125 0.21875q0.390625 0.21875 0.609375 0.609375q0.21875 0.375 0.21875 0.828125q0 0.453125 -0.21875 0.84375q-0.21875 0.375 -0.609375 0.609375q-0.375 0.21875 -0.828125 0.21875zm9.430176 -3.078125l-0.8125 0.21875q-0.109375 -0.296875 -0.390625 -0.5625q-0.28125 -0.28125 -0.859375 -0.28125q-0.53125 0 -0.890625 0.25q-0.34375 0.25 -0.34375 0.625q0 0.328125 0.234375 0.53125q0.25 0.1875 0.765625 0.3125l0.859375 0.21875q0.765625 0.1875 1.140625 0.578125q0.390625 0.375 0.390625 0.984375q0 0.5 -0.28125 0.90625q-0.28125 0.390625 -0.796875 0.625q-0.515625 0.21875 -1.1875 0.21875q-0.890625 0 -1.46875 -0.390625q-0.578125 -0.390625 -0.734375 -1.125l0.84375 -0.21875q0.125 0.46875 0.453125 0.703125q0.34375 0.234375 0.90625 0.234375q0.609375 0 0.984375 -0.265625q0.375 -0.265625 0.375 -0.640625q0 -0.609375 -0.875 -0.8125l-0.953125 -0.234375q-0.8125 -0.1875 -1.1875 -0.578125q-0.375 -0.40625 -0.375 -1.0q0 -0.5 0.28125 -0.875q0.28125 -0.375 0.765625 -0.59375q0.484375 -0.21875 1.09375 -0.21875q0.859375 0 1.34375 0.390625q0.5 0.375 0.71875 1.0zm1.7867126 2.375l-0.015625 -1.09375l0.1875 0l2.53125 -2.59375l1.109375 0l-2.703125 2.75l-0.09375 0l-1.015625 0.9375zm-0.828125 2.125l0 -7.75l0.875 0l0 7.75l-0.875 0zm3.671875 0l-2.265625 -2.875l0.640625 -0.625l2.78125 3.5l-1.15625 0zm3.7292023 0.125q-0.78125 0 -1.375 -0.375q-0.59375 -0.375 -0.921875 -1.046875q-0.328125 -0.6875 -0.328125 -1.578125q0 -0.90625 0.328125 -1.578125q0.328125 -0.6875 0.921875 -1.0625q0.59375 -0.375 1.375 -0.375q0.796875 0 1.390625 0.375q0.59375 0.375 0.921875 1.0625q0.328125 0.671875 0.328125 1.578125q0 0.890625 -0.328125 1.578125q-0.328125 0.671875 -0.921875 1.046875q-0.59375 0.375 -1.390625 0.375zm0 -0.796875q0.609375 0 0.984375 -0.3125q0.390625 -0.3125 0.578125 -0.8125q0.1875 -0.5 0.1875 -1.078125q0 -0.578125 -0.1875 -1.078125q-0.1875 -0.515625 -0.578125 -0.828125q-0.375 -0.3125 -0.984375 -0.3125q-0.59375 0 -0.984375 0.3125q-0.375 0.3125 -0.5625 0.828125q-0.1875 0.5 -0.1875 1.078125q0 0.578125 0.1875 1.078125q0.1875 0.5 0.5625 0.8125q0.390625 0.3125 0.984375 0.3125zm4.634903 0.671875l-1.78125 -5.8125l0.9375 0l1.265625 4.453125l0.0625 0l1.234375 -4.453125l0.953125 0l1.21875 4.4375l0.0625 0l1.265625 -4.4375l0.9375 0l-1.765625 5.8125l-0.875 0l-1.28125 -4.46875l-0.09375 0l-1.28125 4.46875l-0.859375 0zm6.8461914 2.171875l0 -7.984375l0.84375 0l0 0.921875l0.109375 0q0.09375 -0.15625 0.265625 -0.390625q0.1875 -0.234375 0.515625 -0.421875q0.34375 -0.1875 0.90625 -0.1875q0.734375 0 1.28125 0.375q0.5625 0.359375 0.875 1.03125q0.3125 0.671875 0.3125 1.59375q0 0.921875 -0.3125 1.609375q-0.3125 0.671875 -0.875 1.046875q-0.546875 0.359375 -1.28125 0.359375q-0.546875 0 -0.890625 -0.1875q-0.328125 -0.1875 -0.515625 -0.421875q-0.1875 -0.25 -0.28125 -0.40625l-0.078125 0l0 3.0625l-0.875 0zm2.53125 -2.84375q0.5625 0 0.9375 -0.296875q0.375 -0.3125 0.5625 -0.8125q0.1875 -0.5 0.1875 -1.125q0 -0.609375 -0.1875 -1.09375q-0.1875 -0.5 -0.5625 -0.796875q-0.375 -0.296875 -0.9375 -0.296875q-0.546875 0 -0.921875 0.28125q-0.359375 0.265625 -0.546875 0.765625q-0.1875 0.484375 -0.1875 1.140625q0 0.65625 0.1875 1.15625q0.1875 0.5 0.5625 0.796875q0.375 0.28125 0.90625 0.28125zm5.6219177 2.125q0.453125 -0.9375 0.734375 -1.71875q0.296875 -0.796875 0.4375 -1.5q0.140625 -0.71875 0.140625 -1.390625q0 -0.75 -0.15625 -1.609375q-0.15625 -0.875 -0.453125 -1.75q-0.296875 -0.890625 -0.703125 -1.703125l0.859375 0q0.40625 0.640625 0.70310974 1.515625q0.296875 0.859375 0.46875 1.78125q0.171875 0.921875 0.171875 1.765625q0 1.140625 -0.34375 2.3125q-0.328125 1.171875 -0.99998474 2.296875l-0.859375 0z" fill-rule="nonzero"/><path fill="#3b4652" d="m119.78011 179.56952l0 0c0 -1.755539 1.4231491 -3.1786957 3.1786957 -3.1786957l15.37075 0c0.84303284 0 1.6515503 0.3348999 2.2476654 0.931015c0.5961304 0.5961304 0.9310303 1.4046326 0.9310303 2.2476807l0 12.714401c0 1.755539 -1.4231567 3.1786804 -3.1786957 3.1786804l-15.37075 0c-1.7555466 0 -3.1786957 -1.4231415 -3.1786957 -3.1786804z" fill-rule="evenodd"/><path fill="#3b4652" d="m119.78011 178.53532l0 0c0 -1.184372 0.96012115 -2.1445007 2.144493 -2.1445007l17.439148 0c0.5687561 0 1.114212 0.22593689 1.5163879 0.6281128c0.4021759 0.40216064 0.6281128 0.94763184 0.6281128 1.5163879l0 8.577713c0 1.184372 -0.9601288 2.1445007 -2.1445007 2.1445007l-17.439148 0c-1.184372 0 -2.144493 -0.9601288 -2.144493 -2.1445007z" fill-rule="evenodd"/><path fill="#3b4652" d="m135.82529 146.02536l0 0c0 -1.2340393 1.0003967 -2.234436 2.234436 -2.234436l59.61566 0c0.5926056 0 1.1609344 0.2354126 1.5799713 0.65444946c0.41903687 0.41903687 0.65444946 0.987381 0.65444946 1.5799866l0 8.937424c0 1.2340393 -1.0003815 2.2344208 -2.2344208 2.2344208l-59.61566 0c-1.2340393 0 -2.234436 -1.0003815 -2.234436 -2.2344208z" fill-rule="evenodd"/><path fill="#3b4652" d="m119.78011 113.20833l0 0c0 -1.755539 1.4231491 -3.178688 3.1786957 -3.178688l15.37075 0c0.84303284 0 1.6515503 0.33489227 2.2476654 0.931015c0.5961304 0.59612274 0.9310303 1.4046326 0.9310303 2.247673l0 12.714401c0 1.755539 -1.4231567 3.1786957 -3.1786957 3.1786957l-15.37075 0c-1.7555466 0 -3.1786957 -1.4231567 -3.1786957 -3.1786957z" fill-rule="evenodd"/><path fill="#3b4652" d="m113.789406 124.83541l0 0c0 -3.1041946 2.516449 -5.6206512 5.6206436 -5.6206512l22.481934 0l0 0c1.4906921 0 2.9203186 0.59217834 3.9743958 1.6462555c1.0540771 1.0540771 1.6462555 2.4837112 1.6462555 3.9743958l0 51.328255c0 3.1042023 -2.516449 5.6206512 -5.6206512 5.6206512l-22.481934 0c-3.1041946 0 -5.6206436 -2.516449 -5.6206436 -5.6206512z" fill-rule="evenodd"/><path fill="#3b4652" d="m135.82529 142.40512l0 0c0 -2.2350159 1.8118439 -4.0468597 4.046875 -4.0468597l16.186981 0l0 0c1.0733032 0 2.1026459 0.42636108 2.8615723 1.1852875c0.75894165 0.75894165 1.1853027 1.7882843 1.1853027 2.8615723l0 16.186996c0 2.2350159 -1.8118439 4.0468597 -4.046875 4.0468597l-16.186981 0c-2.2350311 0 -4.046875 -1.8118439 -4.046875 -4.0468597z" fill-rule="evenodd"/><path fill="#3b4652" d="m197.66705 147.86159l0 0c1.234024 0 2.2344208 1.0003967 2.2344208 2.234436l0 70.28258c0 0.5926056 -0.2354126 1.1609344 -0.65444946 1.5799713c-0.41903687 0.41903687 -0.9873657 0.65444946 -1.5799713 0.65444946l-8.937439 0c-1.2340393 0 -2.2344208 -1.0003815 -2.2344208 -2.2344208l0 -70.28258c0 -1.2340393 1.0003815 -2.234436 2.2344208 -2.234436z" fill-rule="evenodd"/><path fill="#3b4652" d="m178.26758 196.12659l0 0c0 -2.748886 2.2284088 -4.97731 4.977295 -4.97731l19.908615 0l0 0c1.3200684 0 2.5860596 0.5243988 3.5194855 1.4578247c0.9334259 0.9334259 1.4578094 2.199417 1.4578094 3.5194855l0 27.462616c0 2.748886 -2.2284088 4.977295 -4.977295 4.977295l-19.908615 0c-2.748886 0 -4.977295 -2.2284088 -4.977295 -4.977295z" fill-rule="evenodd"/><path fill="#3b4652" d="m100.58355 220.3338l0 0c0 -2.3897552 1.9372787 -4.3270264 4.327034 -4.3270264l103.57683 0c1.1475983 0 2.2481995 0.45587158 3.0596771 1.2673492c0.81147766 0.81147766 1.2673645 1.9120789 1.2673645 3.0596771l0 17.307632c0 2.3897552 -1.9372864 4.3270416 -4.3270416 4.3270416l-103.57683 0c-2.3897552 0 -4.327034 -1.9372864 -4.327034 -4.3270416z" fill-rule="evenodd"/><path fill="#3b4652" d="m186.49039 198.81639l0 0c0 -1.2340393 1.0003967 -2.234436 2.234436 -2.234436l8.937424 0l0 0c0.5926056 0 1.1609344 0.2354126 1.5799713 0.65444946c0.41903687 0.41903687 0.65444946 0.9873657 0.65444946 1.5799866l0 8.937424c0 1.2340393 -1.0003815 2.2344208 -2.2344208 2.2344208l-8.937424 0c-1.2340393 0 -2.234436 -1.0003815 -2.234436 -2.2344208z" fill-rule="evenodd"/><path fill="#3b4652" d="m91.186264 212.22743l0 0c0 -1.2340393 1.0003815 -2.2344208 2.2344208 -2.2344208l61.856964 0c0.5926056 0 1.1609344 0.2354126 1.5799713 0.65444946c0.41903687 0.41903687 0.65444946 0.9873657 0.65444946 1.5799713l0 8.937439c0 1.2340393 -1.0003815 2.2344208 -2.2344208 2.2344208l-61.856964 0l0 0c-1.2340393 0 -2.2344208 -1.0003815 -2.2344208 -2.2344208z" fill-rule="evenodd"/><path fill="#3b4652" d="m119.78011 231.24872l0 0c0 -1.184372 0.96012115 -2.1445007 2.144493 -2.1445007l88.74562 0c0.5687561 0 1.114212 0.22593689 1.5163879 0.6281128c0.40216064 0.4021759 0.62809753 0.94763184 0.62809753 1.5163879l0 8.577713c0 1.184372 -0.9601135 2.1445007 -2.1444855 2.1445007l-88.74562 0c-1.184372 0 -2.144493 -0.9601288 -2.144493 -2.1445007z" fill-rule="evenodd"/><path fill="#3b4652" d="m118.20442 126.41069l0 0c0 -1.146164 0.9291458 -2.0753174 2.0753174 -2.0753174l8.30101 0l0 0c0.55041504 0 1.0782776 0.21865082 1.4674835 0.6078491c0.38919067 0.3891983 0.60783386 0.91706085 0.60783386 1.4674683l0 42.294037c0 1.146164 -0.9291382 2.0753174 -2.0753174 2.0753174l-8.30101 0c-1.1461716 0 -2.0753174 -0.92915344 -2.0753174 -2.0753174z" fill-rule="evenodd"/><path fill="#3b4652" d="m186.49039 168.20378l0 0c0 -0.6590576 0.53427124 -1.1933136 1.1933136 -1.1933136l4.7730865 0l0 0c0.31648254 0 0.6200104 0.12571716 0.8437958 0.34951782c0.2237854 0.2237854 0.34950256 0.527298 0.34950256 0.8437958l0 26.086166c0 0.65904236 -0.534256 1.1932983 -1.1932983 1.1932983l-4.7730865 0c-0.65904236 0 -1.1933136 -0.534256 -1.1933136 -1.1932983z" fill-rule="evenodd"/><path fill="#3b4652" d="m111.57113 212.22743l0 0c0 -1.2340393 1.0003891 -2.2344208 2.2344284 -2.2344208l41.457 0c0.5926056 0 1.1609344 0.2354126 1.5799713 0.65444946c0.41903687 0.41903687 0.65444946 0.9873657 0.65444946 1.5799713l0 8.937439c0 1.2340393 -1.0003815 2.2344208 -2.2344208 2.2344208l-41.457 0c-1.2340393 0 -2.2344284 -1.0003815 -2.2344284 -2.2344208z" fill-rule="evenodd"/><path fill="#3b4652" d="m139.24434 144.22768l0 0c0 -0.99716187 0.80836487 -1.8055267 1.8055267 -1.8055267l7.2218933 0l0 0c0.47885132 0 0.9380951 0.19021606 1.2767029 0.52882385c0.33859253 0.3386078 0.52882385 0.7978363 0.52882385 1.2767029l0 9.255646c0 0.9971771 -0.80836487 1.8055267 -1.8055267 1.8055267l-7.2218933 0c-0.99716187 0 -1.8055267 -0.8083496 -1.8055267 -1.8055267z" fill-rule="evenodd"/><path fill="#55a1ea" d="m103.78011 163.56952l0 0c0 -1.755539 1.4231491 -3.1786957 3.1786957 -3.1786957l15.37075 0c0.84304047 0 1.6515503 0.3348999 2.247673 0.931015c0.59612274 0.5961304 0.931015 1.4046326 0.931015 2.2476807l0 12.714401c0 1.755539 -1.4231491 3.1786804 -3.178688 3.1786804l-15.37075 0c-1.7555466 0 -3.1786957 -1.4231415 -3.1786957 -3.1786804z" fill-rule="evenodd"/><path fill="#1d69b2" d="m103.78011 162.53532l0 0c0 -1.184372 0.96012115 -2.1445007 2.144493 -2.1445007l17.439148 0c0.5687561 0 1.1142197 0.22593689 1.5163879 0.6281128c0.40216827 0.40216064 0.62810516 0.94763184 0.62810516 1.5163879l0 8.577713c0 1.184372 -0.96012115 2.1445007 -2.144493 2.1445007l-17.439148 0c-1.184372 0 -2.144493 -0.9601288 -2.144493 -2.1445007z" fill-rule="evenodd"/><path fill="#1d69b2" d="m119.825294 130.02536l0 0c0 -1.2340393 1.0003815 -2.2344284 2.2344208 -2.2344284l59.61567 0c0.5926056 0 1.1609344 0.23540497 1.5799713 0.65444183c0.41903687 0.41903687 0.65444946 0.987381 0.65444946 1.5799866l0 8.937424c0 1.2340393 -1.0003815 2.2344208 -2.2344208 2.2344208l-59.61567 0c-1.2340393 0 -2.2344208 -1.0003815 -2.2344208 -2.2344208z" fill-rule="evenodd"/><path fill="#55a1ea" d="m103.78011 97.20833l0 0c0 -1.755539 1.4231491 -3.178688 3.1786957 -3.178688l15.37075 0c0.84304047 0 1.6515503 0.33489227 2.247673 0.931015c0.59612274 0.59612274 0.931015 1.4046326 0.931015 2.247673l0 12.714401c0 1.755539 -1.4231491 3.178688 -3.178688 3.178688l-15.37075 0c-1.7555466 0 -3.1786957 -1.4231491 -3.1786957 -3.178688z" fill-rule="evenodd"/><path fill="#a6d3ff" d="m97.789406 108.83541l0 0c0 -3.1041946 2.516449 -5.6206512 5.6206436 -5.6206512l22.481934 0l0 0c1.4906845 0 2.9203186 0.59217834 3.9743958 1.6462555c1.0540771 1.0540771 1.6462555 2.4837112 1.6462555 3.9743958l0 51.328255c0 3.1042023 -2.516449 5.6206512 -5.6206512 5.6206512l-22.481934 0c-3.1041946 0 -5.6206436 -2.516449 -5.6206436 -5.6206512z" fill-rule="evenodd"/><path fill="#55a1ea" d="m119.825294 126.40512l0 0c0 -2.2350235 1.8118439 -4.0468674 4.0468674 -4.0468674l16.186981 0l0 0c1.0733032 0 2.1026459 0.4263687 2.8615723 1.1853027c0.75894165 0.758934 1.1853027 1.788269 1.1853027 2.8615646l0 16.186996c0 2.2350159 -1.8118439 4.0468597 -4.046875 4.0468597l-16.186981 0c-2.2350235 0 -4.0468674 -1.8118439 -4.0468674 -4.0468597z" fill-rule="evenodd"/><path fill="#1d69b2" d="m181.66705 131.86159l0 0c1.234024 0 2.2344208 1.0003967 2.2344208 2.234436l0 70.28258c0 0.5926056 -0.2354126 1.1609344 -0.65444946 1.5799713c-0.41903687 0.41903687 -0.9873657 0.65444946 -1.5799713 0.65444946l-8.937439 0c-1.2340393 0 -2.2344208 -1.0003815 -2.2344208 -2.2344208l0 -70.28258c0 -1.2340393 1.0003815 -2.234436 2.2344208 -2.234436z" fill-rule="evenodd"/><path fill="#55a1ea" d="m162.26758 180.12659l0 0c0 -2.748886 2.2284088 -4.97731 4.977295 -4.97731l19.908615 0l0 0c1.3200684 0 2.5860596 0.5243988 3.5194855 1.4578247c0.9334259 0.9334259 1.4578094 2.199417 1.4578094 3.5194855l0 27.462616c0 2.748886 -2.2284088 4.977295 -4.977295 4.977295l-19.908615 0c-2.748886 0 -4.977295 -2.2284088 -4.977295 -4.977295z" fill-rule="evenodd"/><path fill="#a6d3ff" d="m84.58355 204.3338l0 0c0 -2.3897552 1.9372787 -4.3270264 4.327034 -4.3270264l103.57683 0c1.1475983 0 2.2481995 0.45587158 3.0596771 1.2673492c0.81147766 0.81147766 1.2673645 1.9120789 1.2673645 3.0596771l0 17.307632c0 2.3897552 -1.9372864 4.3270416 -4.3270416 4.3270416l-103.57683 0c-2.3897552 0 -4.327034 -1.9372864 -4.327034 -4.3270416z" fill-rule="evenodd"/><path fill="#1d69b2" d="m170.49039 182.81639l0 0c0 -1.2340393 1.0003967 -2.234436 2.234436 -2.234436l8.937424 0l0 0c0.5926056 0 1.1609344 0.2354126 1.5799713 0.65444946c0.41903687 0.41903687 0.65444946 0.9873657 0.65444946 1.5799866l0 8.937424c0 1.2340393 -1.0003815 2.2344208 -2.2344208 2.2344208l-8.937424 0c-1.2340393 0 -2.234436 -1.0003815 -2.234436 -2.2344208z" fill-rule="evenodd"/><path fill="#ffc860" d="m75.186264 196.22743l0 0c0 -1.2340393 1.0003815 -2.2344208 2.2344208 -2.2344208l61.856964 0c0.5926056 0 1.1609344 0.2354126 1.5799713 0.65444946c0.41903687 0.41903687 0.65444946 0.9873657 0.65444946 1.5799713l0 8.937439c0 1.2340393 -1.0003815 2.2344208 -2.2344208 2.2344208l-61.856964 0l0 0c-1.2340393 0 -2.2344208 -1.0003815 -2.2344208 -2.2344208z" fill-rule="evenodd"/><path fill="#55a1ea" d="m103.78011 215.24872l0 0c0 -1.184372 0.96012115 -2.1445007 2.144493 -2.1445007l88.74562 0c0.5687561 0 1.114212 0.22593689 1.5163879 0.6281128c0.40216064 0.4021759 0.62809753 0.94763184 0.62809753 1.5163879l0 8.577713c0 1.184372 -0.9601135 2.1445007 -2.1444855 2.1445007l-88.74562 0c-1.184372 0 -2.144493 -0.9601288 -2.144493 -2.1445007z" fill-rule="evenodd"/><path fill="#d1e8ff" d="m102.20442 110.41069l0 0c0 -1.146164 0.9291458 -2.0753174 2.0753174 -2.0753174l8.301018 0l0 0c0.5504074 0 1.07827 0.21865082 1.4674683 0.6078491c0.3891983 0.3891983 0.6078491 0.91706085 0.6078491 1.4674683l0 42.294037c0 1.146164 -0.92915344 2.0753174 -2.0753174 2.0753174l-8.301018 0c-1.1461716 0 -2.0753174 -0.92915344 -2.0753174 -2.0753174z" fill-rule="evenodd"/><path fill="#55a1ea" d="m170.49039 152.20378l0 0c0 -0.6590576 0.53427124 -1.1933136 1.1933136 -1.1933136l4.7730865 0l0 0c0.31648254 0 0.6200104 0.12571716 0.8437958 0.34951782c0.2237854 0.2237854 0.34950256 0.527298 0.34950256 0.8437958l0 26.086166c0 0.65904236 -0.534256 1.1932983 -1.1932983 1.1932983l-4.7730865 0c-0.65904236 0 -1.1933136 -0.534256 -1.1933136 -1.1932983z" fill-rule="evenodd"/><path fill="#fcb630" d="m95.57113 196.22743l0 0c0 -1.2340393 1.0003891 -2.2344208 2.2344284 -2.2344208l41.457 0c0.5926056 0 1.1609344 0.2354126 1.5799713 0.65444946c0.41903687 0.41903687 0.65444946 0.9873657 0.65444946 1.5799713l0 8.937439c0 1.2340393 -1.0003815 2.2344208 -2.2344208 2.2344208l-41.457 0c-1.2340393 0 -2.2344284 -1.0003815 -2.2344284 -2.2344208z" fill-rule="evenodd"/><path fill="#a6d3ff" d="m123.24435 128.22768l0 0c0 -0.9971695 0.80835724 -1.8055267 1.8055191 -1.8055267l7.2218933 0l0 0c0.47885132 0 0.9380951 0.1902237 1.2767029 0.52882385c0.33859253 0.33860016 0.52882385 0.79784393 0.52882385 1.2767029l0 9.255646c0 0.9971771 -0.80836487 1.8055267 -1.8055267 1.8055267l-7.2218933 0c-0.99716187 0 -1.8055191 -0.8083496 -1.8055191 -1.8055267z" fill-rule="evenodd"/></g></svg>