<svg version="1.1" viewBox="0.0 0.0 288.0 384.0" fill="none" stroke="none" stroke-linecap="square" stroke-miterlimit="10" xmlns:xlink="http://www.w3.org/1999/xlink" xmlns="http://www.w3.org/2000/svg"><clipPath id="g3a72db97a13_0_4193.0"><path d="m0 0l288.0 0l0 384.0l-288.0 0l0 -384.0z" clip-rule="nonzero"/></clipPath><g clip-path="url(#g3a72db97a13_0_4193.0)"><path fill="#ffffff" d="m0 0l288.0 0l0 384.0l-288.0 0z" fill-rule="evenodd"/><path fill="#51de18" d="m5.7007875 34.135216l0 0c0 -9.966135 8.079147 -18.045282 18.04528 -18.045282l240.50787 0c4.7858887 0 9.375793 1.9011936 12.759949 5.2853394c3.3841248 3.3841476 5.2853394 7.9740353 5.2853394 12.759943l0 324.2244c0 9.9661255 -8.079163 18.045288 -18.045288 18.045288l-240.50787 0l0 0c-9.966134 0 -18.04528 -8.079163 -18.04528 -18.045288z" fill-rule="evenodd"/><path stroke="#51de18" stroke-width="4.0" stroke-linejoin="round" stroke-linecap="butt" d="m5.7007875 34.135216l0 0c0 -9.966135 8.079147 -18.045282 18.04528 -18.045282l240.50787 0c4.7858887 0 9.375793 1.9011936 12.759949 5.2853394c3.3841248 3.3841476 5.2853394 7.9740353 5.2853394 12.759943l0 324.2244c0 9.9661255 -8.079163 18.045288 -18.045288 18.045288l-240.50787 0l0 0c-9.966134 0 -18.04528 -8.079163 -18.04528 -18.045288z" fill-rule="evenodd"/><path fill="#caffb5" d="m5.7007875 25.639769l0 0c0 -9.966133 8.079147 -18.04528 18.04528 -18.04528l240.50787 0c4.7858887 0 9.375793 1.9011936 12.759949 5.2853403c3.3841248 3.3841467 5.2853394 7.9740343 5.2853394 12.75994l0 324.2244c0 9.9661255 -8.079163 18.045288 -18.045288 18.045288l-240.50787 0l0 0c-9.966134 0 -18.04528 -8.079163 -18.04528 -18.045288z" fill-rule="evenodd"/><path stroke="#51de18" stroke-width="4.0" stroke-linejoin="round" stroke-linecap="butt" d="m5.7007875 25.639769l0 0c0 -9.966133 8.079147 -18.04528 18.04528 -18.04528l240.50787 0c4.7858887 0 9.375793 1.9011936 12.759949 5.2853403c3.3841248 3.3841467 5.2853394 7.9740343 5.2853394 12.75994l0 324.2244c0 9.9661255 -8.079163 18.045288 -18.045288 18.045288l-240.50787 0l0 0c-9.966134 0 -18.04528 -8.079163 -18.04528 -18.045288z" fill-rule="evenodd"/><path fill="#51de18" d="m55.61586 142.99564l0 0c0 -9.112106 7.3868256 -16.498932 16.498932 -16.498932l159.77057 0c4.3757935 0 8.572357 1.738266 11.666504 4.832428c3.094162 3.0941467 4.832428 7.2907104 4.832428 11.666504l0 65.993744c0 9.112106 -7.3868256 16.498932 -16.498932 16.498932l-159.77057 0c-9.112106 0 -16.498932 -7.3868256 -16.498932 -16.498932z" fill-rule="evenodd"/><path fill="#51de18" d="m67.32994 149.97282l0 0c0 -7.185852 5.825287 -13.011139 13.011139 -13.011139l143.33553 0c3.45076 0 6.760193 1.3708038 9.200256 3.8108673c2.4400635 2.4400635 3.8108826 5.7494965 3.8108826 9.200272l0 52.043c0 7.185852 -5.825287 13.011139 -13.011139 13.011139l-143.33553 0c-7.185852 0 -13.011139 -5.825287 -13.011139 -13.011139z" fill-rule="evenodd"/><path fill="#51de18" d="m79.88797 156.44882l0 0c0 -5.397629 4.375641 -9.77327 9.773277 -9.77327l124.67727 0c2.5920258 0 5.0779114 1.0296783 6.9107513 2.8625183c1.83284 1.8328552 2.8625183 4.3187256 2.8625183 6.9107513l0 39.091934c0 5.397629 -4.375641 9.773285 -9.77327 9.773285l-124.67727 0l0 0c-5.3976364 0 -9.773277 -4.375656 -9.773277 -9.773285z" fill-rule="evenodd"/><path fill="#51de18" d="m133.41995 138.58061l0 0c0 -0.894104 0.724823 -1.618927 1.618927 -1.618927l33.93715 0c0.42936707 0 0.841156 0.17056274 1.1447601 0.47416687c0.30360413 0.30361938 0.47416687 0.71539307 0.47416687 1.1447601l0 6.47554c0 0.894104 -0.724823 1.618927 -1.618927 1.618927l-33.93715 0c-0.894104 0 -1.618927 -0.724823 -1.618927 -1.618927z" fill-rule="evenodd"/><path fill="#51de18" d="m133.41995 206.93213l0 0c0 -0.894104 0.724823 -1.618927 1.618927 -1.618927l33.93715 0c0.42936707 0 0.841156 0.17056274 1.1447601 0.47416687c0.30360413 0.30361938 0.47416687 0.71539307 0.47416687 1.1447601l0 6.47554c0 0.894104 -0.724823 1.618927 -1.618927 1.618927l-33.93715 0c-0.894104 0 -1.618927 -0.724823 -1.618927 -1.618927z" fill-rule="evenodd"/><path fill="#51de18" d="m124.30525 216.77283l0 0c0 -0.9641571 0.78160095 -1.745758 1.745758 -1.745758l51.901703 0c0.4630127 0 0.90704346 0.18392944 1.234436 0.511322c0.32740784 0.32739258 0.511322 0.7714386 0.511322 1.234436l0 6.982834c0 0.9641571 -0.78160095 1.745758 -1.745758 1.745758l-51.901703 0l0 0c-0.9641571 0 -1.745758 -0.78160095 -1.745758 -1.745758z" fill-rule="evenodd"/><path fill="#51de18" d="m124.30525 128.24246l0 0c0 -0.9641571 0.78160095 -1.745758 1.745758 -1.745758l51.901703 0c0.4630127 0 0.90704346 0.18392181 1.234436 0.511322c0.32740784 0.32739258 0.511322 0.77143097 0.511322 1.234436l0 6.982834c0 0.9641571 -0.78160095 1.745758 -1.745758 1.745758l-51.901703 0l0 0c-0.9641571 0 -1.745758 -0.78160095 -1.745758 -1.745758z" fill-rule="evenodd"/><path fill="#51de18" d="m125.815926 168.73007l0 0c0 -3.347763 2.7139053 -6.061676 6.0616684 -6.061676l40.248444 0c1.6076508 0 3.1494598 0.63864136 4.2862396 1.7754211c1.136795 1.136795 1.7754364 2.6786041 1.7754364 4.286255l0 24.245956c0 3.347763 -2.713913 6.061661 -6.061676 6.061661l-40.248444 0l0 0c-3.347763 0 -6.0616684 -2.7138977 -6.0616684 -6.061661z" fill-rule="evenodd"/><path fill="#51de18" d="m117.131645 151.42044l0 0c0 -2.6205292 2.1243591 -4.7448883 4.7448883 -4.7448883l21.105186 0c1.2584229 0 2.4653015 0.49990845 3.3551483 1.38974c0.88983154 0.8898468 1.38974 2.0967255 1.38974 3.3551483l0 18.978973c0 2.6205444 -2.1243591 4.7449036 -4.7448883 4.7449036l-21.105186 0c-2.6205292 0 -4.7448883 -2.1243591 -4.7448883 -4.7449036z" fill-rule="evenodd"/><path fill="#51de18" d="m156.29109 151.42044l0 0c0 -2.6205292 2.1243591 -4.7448883 4.7448883 -4.7448883l21.105194 0c1.2584229 0 2.4653015 0.49990845 3.355133 1.38974c0.8898468 0.8898468 1.3897552 2.0967255 1.3897552 3.3551483l0 18.978973c0 2.6205444 -2.1243591 4.7449036 -4.7448883 4.7449036l-21.105194 0c-2.6205292 0 -4.7448883 -2.1243591 -4.7448883 -4.7449036z" fill-rule="evenodd"/><path fill="#51de18" d="m118.96302 160.73695l0 0c0 -1.2381592 1.0037308 -2.2418823 2.24189 -2.2418823l22.44069 0c0.59458923 0 1.1648254 0.2361908 1.5852509 0.65663147c0.42044067 0.42044067 0.65663147 0.9906616 0.65663147 1.5852509l0 8.96727c0 1.2381592 -1.0037231 2.2418823 -2.2418823 2.2418823l-22.44069 0c-1.2381592 0 -2.24189 -1.0037231 -2.24189 -2.2418823z" fill-rule="evenodd"/><path fill="#51de18" d="m158.12247 160.73695l0 0c0 -1.2381592 1.0037384 -2.2418823 2.2418976 -2.2418823l22.44069 0c0.59458923 0 1.1648102 0.2361908 1.5852509 0.65663147c0.42044067 0.42044067 0.65663147 0.9906616 0.65663147 1.5852509l0 8.96727c0 1.2381592 -1.0037231 2.2418823 -2.2418823 2.2418823l-22.44069 0c-1.2381592 0 -2.2418976 -1.0037231 -2.2418976 -2.2418823z" fill-rule="evenodd"/><path fill="#51de18" d="m110.07619 188.47324l0 0c0 -1.860321 1.5080948 -3.3684235 3.3684235 -3.3684235l77.12515 0c0.8933563 0 1.7501221 0.35488892 2.381836 0.9865875c0.6316986 0.6316986 0.9865875 1.4884796 0.9865875 2.381836l0 13.473297c0 1.860321 -1.5081024 3.3684235 -3.3684235 3.3684235l-77.12515 0c-1.8603287 0 -3.3684235 -1.5081024 -3.3684235 -3.3684235z" fill-rule="evenodd"/><path fill="#51de18" d="m114.241104 189.15724l0 0c0 -1.5389404 1.2475586 -2.786499 2.786499 -2.786499l31.288666 0c0.73902893 0 1.4477844 0.2935791 1.9703674 0.81614685c0.52256775 0.52256775 0.81614685 1.2313232 0.81614685 1.9703522l0 11.145676c0 1.5389404 -1.2475586 2.7865143 -2.7865143 2.7865143l-31.288666 0c-1.5389404 0 -2.786499 -1.2475739 -2.786499 -2.7865143z" fill-rule="evenodd"/><path fill="#51de18" d="m152.89418 188.94882l0 0c0 -1.5636597 1.2675934 -2.8312683 2.8312683 -2.8312683l31.199142 0c0.75090027 0 1.4710388 0.29829407 2.001999 0.82925415c0.53097534 0.53097534 0.8292694 1.2511139 0.8292694 2.0020142l0 11.324722c0 1.5636597 -1.2676086 2.8312683 -2.8312683 2.8312683l-31.199142 0c-1.5636749 0 -2.8312683 -1.2676086 -2.8312683 -2.8312683z" fill-rule="evenodd"/><path fill="#f73d35" d="m39.61586 126.995636l0 0c0 -9.112114 7.3868256 -16.498932 16.498932 -16.498932l159.77057 0c4.3757935 0 8.572357 1.7382736 11.666504 4.8324203c3.094162 3.0941544 4.832428 7.290718 4.832428 11.666512l0 65.993744c0 9.112106 -7.3868256 16.498932 -16.498932 16.498932l-159.77057 0c-9.112106 0 -16.498932 -7.3868256 -16.498932 -16.498932z" fill-rule="evenodd"/><path fill="#e03027" d="m51.329937 133.97282l0 0c0 -7.185852 5.825287 -13.011139 13.011143 -13.011139l143.33553 0c3.45076 0 6.760193 1.3708115 9.200256 3.810875c2.4400635 2.4400558 3.8108826 5.749489 3.8108826 9.200264l0 52.043c0 7.185852 -5.825287 13.011139 -13.011139 13.011139l-143.33553 0c-7.185856 0 -13.011143 -5.825287 -13.011143 -13.011139z" fill-rule="evenodd"/><path fill="#b0120a" d="m63.88797 140.44882l0 0c0 -5.397629 4.375641 -9.77327 9.773277 -9.77327l124.67727 0c2.5920258 0 5.0779114 1.0296783 6.9107513 2.8625183c1.83284 1.8328552 2.8625183 4.3187256 2.8625183 6.9107513l0 39.091934c0 5.397629 -4.375641 9.773285 -9.77327 9.773285l-124.67727 0l0 0c-5.3976364 0 -9.773277 -4.375656 -9.773277 -9.773285z" fill-rule="evenodd"/><path fill="#f73d35" d="m117.41995 122.58061l0 0c0 -0.89411163 0.72481537 -1.618927 1.618927 -1.618927l33.93715 0c0.42936707 0 0.841156 0.17056274 1.1447601 0.4741745c0.30360413 0.30360413 0.47416687 0.71538544 0.47416687 1.1447525l0 6.47554c0 0.894104 -0.724823 1.618927 -1.618927 1.618927l-33.93715 0c-0.89411163 0 -1.618927 -0.724823 -1.618927 -1.618927z" fill-rule="evenodd"/><path fill="#f73d35" d="m117.41995 190.93213l0 0c0 -0.894104 0.72481537 -1.618927 1.618927 -1.618927l33.93715 0c0.42936707 0 0.841156 0.17056274 1.1447601 0.47416687c0.30360413 0.30361938 0.47416687 0.71539307 0.47416687 1.1447601l0 6.47554c0 0.894104 -0.724823 1.618927 -1.618927 1.618927l-33.93715 0c-0.89411163 0 -1.618927 -0.724823 -1.618927 -1.618927z" fill-rule="evenodd"/><path fill="#fb5c4e" d="m108.30525 200.77283l0 0c0 -0.9641571 0.78160095 -1.745758 1.745758 -1.745758l51.901703 0c0.4630127 0 0.90704346 0.18392944 1.234436 0.511322c0.32740784 0.32739258 0.511322 0.7714386 0.511322 1.234436l0 6.982834c0 0.9641571 -0.78160095 1.745758 -1.745758 1.745758l-51.901703 0l0 0c-0.9641571 0 -1.745758 -0.78160095 -1.745758 -1.745758z" fill-rule="evenodd"/><path fill="#fb5c4e" d="m108.30525 112.24246l0 0c0 -0.9641571 0.78160095 -1.745758 1.745758 -1.745758l51.901703 0c0.4630127 0 0.90704346 0.18392181 1.234436 0.511322c0.32740784 0.32739258 0.511322 0.77143097 0.511322 1.234436l0 6.982834c0 0.9641571 -0.78160095 1.745758 -1.745758 1.745758l-51.901703 0l0 0c-0.9641571 0 -1.745758 -0.78160095 -1.745758 -1.745758z" fill-rule="evenodd"/><path fill="#760701" d="m109.815926 152.73007l0 0c0 -3.347763 2.7139053 -6.061676 6.0616684 -6.061676l40.248444 0c1.6076508 0 3.1494598 0.63864136 4.2862396 1.7754211c1.136795 1.136795 1.7754364 2.6786041 1.7754364 4.286255l0 24.245956c0 3.347763 -2.713913 6.061661 -6.061676 6.061661l-40.248444 0l0 0c-3.347763 0 -6.0616684 -2.7138977 -6.0616684 -6.061661z" fill-rule="evenodd"/><path fill="#f3f8fe" d="m101.131645 135.42044l0 0c0 -2.6205292 2.1243591 -4.7448883 4.7448883 -4.7448883l21.105186 0c1.2584229 0 2.4653015 0.49990845 3.3551483 1.38974c0.88983154 0.8898468 1.38974 2.0967255 1.38974 3.3551483l0 18.978973c0 2.6205444 -2.1243591 4.7449036 -4.7448883 4.7449036l-21.105186 0c-2.6205292 0 -4.7448883 -2.1243591 -4.7448883 -4.7449036z" fill-rule="evenodd"/><path fill="#f3f8fe" d="m140.29109 135.42044l0 0c0 -2.6205292 2.1243591 -4.7448883 4.7448883 -4.7448883l21.105194 0c1.2584229 0 2.4653015 0.49990845 3.355133 1.38974c0.8898468 0.8898468 1.3897552 2.0967255 1.3897552 3.3551483l0 18.978973c0 2.6205444 -2.1243591 4.7449036 -4.7448883 4.7449036l-21.105194 0c-2.6205292 0 -4.7448883 -2.1243591 -4.7448883 -4.7449036z" fill-rule="evenodd"/><path fill="#e7f2ff" d="m102.96302 144.73695l0 0c0 -1.2381592 1.0037308 -2.2418823 2.24189 -2.2418823l22.440697 0c0.5945816 0 1.1648178 0.2361908 1.5852432 0.65663147c0.42044067 0.42044067 0.65663147 0.9906616 0.65663147 1.5852509l0 8.96727c0 1.2381592 -1.0037231 2.2418823 -2.2418747 2.2418823l-22.440697 0c-1.2381592 0 -2.24189 -1.0037231 -2.24189 -2.2418823z" fill-rule="evenodd"/><path fill="#e7f2ff" d="m142.12247 144.73695l0 0c0 -1.2381592 1.0037384 -2.2418823 2.2418976 -2.2418823l22.44069 0c0.59458923 0 1.1648102 0.2361908 1.5852509 0.65663147c0.42044067 0.42044067 0.65663147 0.9906616 0.65663147 1.5852509l0 8.96727c0 1.2381592 -1.0037231 2.2418823 -2.2418823 2.2418823l-22.44069 0c-1.2381592 0 -2.2418976 -1.0037231 -2.2418976 -2.2418823z" fill-rule="evenodd"/><path fill="#fb5c4e" d="m94.07619 172.47324l0 0c0 -1.860321 1.5080948 -3.3684235 3.3684235 -3.3684235l77.12515 0c0.8933563 0 1.7501221 0.35488892 2.381836 0.9865875c0.6316986 0.6316986 0.9865875 1.4884796 0.9865875 2.381836l0 13.473297c0 1.860321 -1.5081024 3.3684235 -3.3684235 3.3684235l-77.12515 0c-1.8603287 0 -3.3684235 -1.5081024 -3.3684235 -3.3684235z" fill-rule="evenodd"/><path fill="#fc8076" d="m98.241104 173.15724l0 0c0 -1.5389404 1.2475586 -2.786499 2.786499 -2.786499l31.288666 0c0.73902893 0 1.4477844 0.2935791 1.9703674 0.81614685c0.52256775 0.52256775 0.81614685 1.2313232 0.81614685 1.9703522l0 11.145676c0 1.5389404 -1.2475586 2.7865143 -2.7865143 2.7865143l-31.288666 0c-1.5389404 0 -2.786499 -1.2475739 -2.786499 -2.7865143z" fill-rule="evenodd"/><path fill="#fc8076" d="m136.89418 172.94882l0 0c0 -1.5636597 1.2675934 -2.8312683 2.8312683 -2.8312683l31.199142 0c0.75090027 0 1.4710388 0.29829407 2.001999 0.82925415c0.53097534 0.53097534 0.8292694 1.2511139 0.8292694 2.0020142l0 11.324722c0 1.5636597 -1.2676086 2.8312683 -2.8312683 2.8312683l-31.199142 0c-1.5636749 0 -2.8312683 -1.2676086 -2.8312683 -2.8312683z" fill-rule="evenodd"/><path fill="#000000" fill-opacity="0.0" d="m21.700787 315.7533l266.29922 0l0 38.771637l-266.29922 0z" fill-rule="evenodd"/><path fill="#000000" d="m49.357037 328.11328l0 12.0l-3.15625 0l0 -10.8125l0.703125 0.078125l-4.640625 10.734375l-3.359375 0l-4.65625 -10.703125l0.71875 -0.078125l0 10.78125l-3.140625 0l0 -12.0l5.109375 0l4.3125 10.296875l-1.28125 0l4.265625 -10.296875l5.125 0zm7.303543 12.25q-1.765625 0 -3.078125 -0.59375q-1.3125 -0.59375 -2.046875 -1.6875q-0.734375 -1.109375 -0.734375 -2.53125q0 -1.453125 0.734375 -2.53125q0.734375 -1.09375 2.046875 -1.703125q1.3125 -0.609375 3.078125 -0.609375q1.734375 0 3.046875 0.609375q1.328125 0.609375 2.0625 1.703125q0.734375 1.078125 0.734375 2.53125q0 1.421875 -0.734375 2.53125q-0.734375 1.09375 -2.0625 1.6875q-1.3125 0.59375 -3.046875 0.59375zm0 -2.40625q0.796875 0 1.359375 -0.28125q0.5625 -0.296875 0.859375 -0.84375q0.3125 -0.546875 0.3125 -1.28125q0 -0.765625 -0.3125 -1.296875q-0.296875 -0.546875 -0.859375 -0.828125q-0.5625 -0.28125 -1.359375 -0.28125q-0.8125 0 -1.390625 0.28125q-0.5625 0.28125 -0.875 0.828125q-0.296875 0.53125 -0.296875 1.28125q0 0.75 0.296875 1.296875q0.3125 0.546875 0.875 0.84375q0.578125 0.28125 1.390625 0.28125zm11.156406 2.40625q-1.28125 0 -2.1875 -0.515625q-0.890625 -0.53125 -1.375 -1.5q-0.4843788 -0.96875 -0.4843788 -2.265625l0 -5.109375l3.2656288 0l0 4.640625q0 1.015625 0.5 1.5625q0.5 0.53125 1.421875 0.53125q0.6875 0 1.140625 -0.265625q0.46875 -0.28125 0.71875 -0.8125q0.265625 -0.53125 0.265625 -1.265625l1.015625 0.53125q-0.1875 1.453125 -0.796875 2.453125q-0.609375 1.0 -1.515625 1.515625q-0.890625 0.5 -1.96875 0.5zm3.859375 -0.25l-0.59375 -3.65625l0 -5.484375l3.265625 0l0 5.984375l0.59375 3.15625l-3.265625 0zm3.8062744 -6.71875l0 -1.421875l1.859375 -0.75l1.40625 -2.703125l1.859375 0l0 2.453125l3.84375 0l0 2.421875l-3.84375 0l0 2.6875q0 0.984375 0.390625 1.390625q0.40625 0.40625 1.46875 0.40625q0.671875 0 1.1875 -0.125q0.515625 -0.125 0.953125 -0.3125l0 2.46875q-0.484375 0.171875 -1.265625 0.3125q-0.78125 0.140625 -1.609375 0.140625q-1.53125 0 -2.5 -0.453125q-0.96875 -0.46875 -1.4375 -1.34375q-0.453125 -0.875 -0.453125 -2.03125l0 -3.140625l-1.859375 0zm10.4449005 -5.59375l3.28125 0l0 12.3125l-3.28125 0l0 -12.3125zm6.625 2.90625q1.328125 0 2.25 0.53125q0.921875 0.515625 1.421875 1.484375q0.5 0.953125 0.5 2.265625l0 5.125l-3.28125 0l0 -4.640625q0 -1.015625 -0.53125 -1.5625q-0.515625 -0.546875 -1.484375 -0.546875q-0.671875 0 -1.1875 0.296875q-0.5 0.28125 -0.765625 0.8125q-0.265625 0.515625 -0.265625 1.234375l-1.015625 -0.515625q0.1875 -1.46875 0.8125 -2.46875q0.625 -1.0 1.546875 -1.5q0.921875 -0.515625 2.0 -0.515625z" fill-rule="nonzero"/><path fill="#000000" d="m105.88423 336.95703q0 -0.84375 0.171875 -1.765625q0.171875 -0.921875 0.46875 -1.78125q0.3125 -0.875 0.703125 -1.515625l0.859375 0q-0.40625 0.8125 -0.703125 1.703125q-0.296875 0.875 -0.453125 1.75q-0.15625 0.859375 -0.15625 1.609375q0 0.671875 0.140625 1.390625q0.140625 0.703125 0.421875 1.5q0.296875 0.78125 0.75 1.71875l-0.859375 0q-0.671875 -1.125 -1.015625 -2.296875q-0.328125 -1.171875 -0.328125 -2.3125zm5.525543 3.15625l0 -5.8125l0.84375 0l0 0.90625l0.09375 0q0.171875 -0.46875 0.578125 -0.71875q0.40625 -0.265625 0.96875 -0.265625q0.578125 0 0.953125 0.265625q0.390625 0.25 0.609375 0.71875l0.0625 0q0.21875 -0.453125 0.65625 -0.71875q0.453125 -0.265625 1.078125 -0.265625q0.78125 0 1.28125 0.484375q0.5 0.484375 0.5 1.515625l0 3.890625l-0.890625 0l0 -3.890625q0 -0.640625 -0.359375 -0.921875q-0.359375 -0.28125 -0.828125 -0.28125q-0.609375 0 -0.953125 0.375q-0.328125 0.375 -0.328125 0.9375l0 3.78125l-0.921875 0l0 -3.984375q0 -0.5 -0.328125 -0.796875q-0.3125 -0.3125 -0.8125 -0.3125q-0.34375 0 -0.65625 0.1875q-0.296875 0.1875 -0.484375 0.515625q-0.1875 0.328125 -0.1875 0.765625l0 3.625l-0.875 0zm10.4758 0.140625q-0.546875 0 -1.0 -0.203125q-0.453125 -0.21875 -0.71875 -0.625q-0.265625 -0.40625 -0.265625 -0.96875q0 -0.5 0.1875 -0.796875q0.203125 -0.3125 0.53125 -0.484375q0.328125 -0.1875 0.71875 -0.28125q0.40625 -0.09375 0.8125 -0.140625q0.53125 -0.0625 0.859375 -0.09375q0.328125 -0.046875 0.484375 -0.125q0.15625 -0.09375 0.15625 -0.3125l0 -0.03125q0 -0.5625 -0.3125 -0.859375q-0.296875 -0.3125 -0.921875 -0.3125q-0.625 0 -1.0 0.28125q-0.359375 0.265625 -0.5 0.59375l-0.859375 -0.3125q0.234375 -0.53125 0.609375 -0.828125q0.390625 -0.296875 0.84375 -0.40625q0.453125 -0.125 0.875 -0.125q0.28125 0 0.640625 0.0625q0.375 0.0625 0.71875 0.28125q0.34375 0.203125 0.5625 0.625q0.234375 0.40625 0.234375 1.09375l0 3.828125l-0.890625 0l0 -0.796875l-0.046875 0q-0.078125 0.1875 -0.296875 0.40625q-0.21875 0.21875 -0.578125 0.375q-0.34375 0.15625 -0.84375 0.15625zm0.140625 -0.8125q0.515625 0 0.875 -0.203125q0.375 -0.203125 0.5625 -0.53125q0.1875 -0.34375 0.1875 -0.703125l0 -0.8125q-0.0625 0.0625 -0.25 0.125q-0.1875 0.046875 -0.4375 0.09375q-0.25 0.03125 -0.484375 0.0625q-0.21875 0.03125 -0.359375 0.046875q-0.359375 0.046875 -0.65625 0.15625q-0.296875 0.09375 -0.484375 0.296875q-0.1875 0.1875 -0.1875 0.53125q0 0.46875 0.34375 0.703125q0.34375 0.234375 0.890625 0.234375zm7.327942 -1.703125l0 -3.4375l0.890625 0l0 5.8125l-0.890625 0l0 -0.984375l-0.0625 0q-0.203125 0.4375 -0.640625 0.75q-0.421875 0.3125 -1.078125 0.3125q-0.546875 0 -0.96875 -0.234375q-0.421875 -0.25 -0.671875 -0.734375q-0.234375 -0.484375 -0.234375 -1.234375l0 -3.6875l0.875 0l0 3.640625q0 0.625 0.359375 1.015625q0.375 0.375 0.921875 0.359375q0.328125 0 0.671875 -0.15625q0.359375 -0.171875 0.59375 -0.515625q0.234375 -0.359375 0.234375 -0.90625zm4.6142273 -3.4375l0 0.75l-3.140625 0l0 -0.75l3.140625 0zm-2.203125 5.8125l0 -6.625q0 -0.5 0.234375 -0.828125q0.25 -0.328125 0.625 -0.484375q0.375 -0.171875 0.78125 -0.171875q0.328125 0 0.53125 0.0625q0.21875 0.046875 0.3125 0.078125l-0.25 0.78125q-0.078125 -0.03125 -0.203125 -0.0625q-0.109375 -0.03125 -0.296875 -0.03125q-0.4375 0 -0.640625 0.234375q-0.203125 0.21875 -0.203125 0.640625l0 6.40625l-0.890625 0z" fill-rule="nonzero"/><path fill="#000000" d="m136.52553 341.5664q0.453125 -0.9375 0.734375 -1.71875q0.296875 -0.796875 0.4375 -1.5q0.140625 -0.71875 0.140625 -1.390625q0 -0.75 -0.15625 -1.609375q-0.15625 -0.875 -0.453125 -1.75q-0.296875 -0.890625 -0.703125 -1.703125l0.859375 0q0.40625 0.640625 0.703125 1.515625q0.296875 0.859375 0.46875 1.78125q0.171875 0.921875 0.171875 1.765625q0 1.140625 -0.34375 2.3125q-0.328125 1.171875 -1.0 2.296875l-0.859375 0z" fill-rule="nonzero"/></g></svg>