<svg version="1.1" viewBox="0.0 0.0 288.0 384.0" fill="none" stroke="none" stroke-linecap="square" stroke-miterlimit="10" xmlns:xlink="http://www.w3.org/1999/xlink" xmlns="http://www.w3.org/2000/svg"><clipPath id="g3ae486ae86a_0_399.0"><path d="m0 0l288.0 0l0 384.0l-288.0 0l0 -384.0z" clip-rule="nonzero"/></clipPath><g clip-path="url(#g3ae486ae86a_0_399.0)"><path fill="#161d25" d="m0 0l288.0 0l0 384.0l-288.0 0z" fill-rule="evenodd"/><path fill="#3b4652" d="m5.7007875 34.135216l0 0c0 -9.966135 8.079147 -18.045282 18.04528 -18.045282l240.50787 0c4.7858887 0 9.375793 1.9011936 12.759949 5.2853394c3.3841248 3.3841476 5.2853394 7.9740353 5.2853394 12.759943l0 324.2244c0 9.9661255 -8.079163 18.045288 -18.045288 18.045288l-240.50787 0l0 0c-9.966134 0 -18.04528 -8.079163 -18.04528 -18.045288z" fill-rule="evenodd"/><path stroke="#3b4652" stroke-width="4.0" stroke-linejoin="round" stroke-linecap="butt" d="m5.7007875 34.135216l0 0c0 -9.966135 8.079147 -18.045282 18.04528 -18.045282l240.50787 0c4.7858887 0 9.375793 1.9011936 12.759949 5.2853394c3.3841248 3.3841476 5.2853394 7.9740353 5.2853394 12.759943l0 324.2244c0 9.9661255 -8.079163 18.045288 -18.045288 18.045288l-240.50787 0l0 0c-9.966134 0 -18.04528 -8.079163 -18.04528 -18.045288z" fill-rule="evenodd"/><path fill="#161d25" d="m5.7007875 33.63977l0 0c0 -9.966135 8.079147 -18.045282 18.04528 -18.045282l240.50787 0c4.7858887 0 9.375793 1.9011936 12.759949 5.2853413c3.3841248 3.3841457 5.2853394 7.9740334 5.2853394 12.759941l0 324.2244c0 9.9661255 -8.079163 18.045288 -18.045288 18.045288l-240.50787 0l0 0c-9.966134 0 -18.04528 -8.079163 -18.04528 -18.045288z" fill-rule="evenodd"/><path stroke="#3b4652" stroke-width="4.0" stroke-linejoin="round" stroke-linecap="butt" d="m5.7007875 33.63977l0 0c0 -9.966135 8.079147 -18.045282 18.04528 -18.045282l240.50787 0c4.7858887 0 9.375793 1.9011936 12.759949 5.2853413c3.3841248 3.3841457 5.2853394 7.9740334 5.2853394 12.759941l0 324.2244c0 9.9661255 -8.079163 18.045288 -18.045288 18.045288l-240.50787 0l0 0c-9.966134 0 -18.04528 -8.079163 -18.04528 -18.045288z" fill-rule="evenodd"/><path fill="#000000" fill-opacity="0.0" d="m21.700787 323.7533l203.30708 0l0 38.771637l-203.30708 0z" fill-rule="evenodd"/><path fill="#ffffff" d="m49.357037 336.11328l0 12.0l-3.15625 0l0 -10.8125l0.703125 0.078125l-4.640625 10.734375l-3.359375 0l-4.65625 -10.703125l0.71875 -0.078125l0 10.78125l-3.140625 0l0 -12.0l5.109375 0l4.3125 10.296875l-1.28125 0l4.265625 -10.296875l5.125 0zm5.8359222 12.25q-1.28125 0 -2.1875 -0.515625q-0.890625 -0.53125 -1.375 -1.5q-0.484375 -0.96875 -0.484375 -2.265625l0 -5.109375l3.265625 0l0 4.640625q0 1.015625 0.5 1.5625q0.5 0.53125 1.421875 0.53125q0.6875 0 1.140625 -0.265625q0.46875 -0.28125 0.71875 -0.8125q0.265625 -0.53125 0.265625 -1.265625l1.015625 0.53125q-0.1875 1.453125 -0.796875 2.453125q-0.609375 1.0 -1.515625 1.515625q-0.890625 0.5 -1.96875 0.5zm3.859375 -0.25l-0.59375 -3.65625l0 -5.484375l3.265625 0l0 5.984375l0.59375 3.15625l-3.265625 0zm15.228901 -2.96875q0 1.046875 -0.640625 1.765625q-0.640625 0.71875 -1.828125 1.09375q-1.171875 0.359375 -2.84375 0.359375q-1.703125 0 -3.0 -0.40625q-1.28125 -0.421875 -2.0000038 -1.171875q-0.71875 -0.75 -0.765625 -1.75l3.3125038 0q0.109375 0.375 0.4375 0.640625q0.328125 0.265625 0.859375 0.40625q0.546875 0.125 1.296875 0.125q0.984375 0 1.484375 -0.1875q0.5 -0.1875 0.5 -0.578125q0 -0.296875 -0.390625 -0.453125q-0.375 -0.15625 -1.296875 -0.234375l-1.625 -0.125q-1.609375 -0.109375 -2.5625 -0.484375q-0.953125 -0.390625 -1.3750038 -0.984375q-0.40625 -0.59375 -0.40625 -1.359375q0 -1.046875 0.6406288 -1.71875q0.65625 -0.6875 1.8125 -1.03125q1.15625 -0.34375 2.71875 -0.34375q1.53125 0 2.734375 0.40625q1.203125 0.390625 1.921875 1.109375q0.71875 0.703125 0.828125 1.671875l-3.3125 0q-0.078125 -0.3125 -0.359375 -0.5625q-0.265625 -0.25 -0.75 -0.40625q-0.46875 -0.15625 -1.234375 -0.15625q-0.875 0 -1.328125 0.203125q-0.453125 0.1875 -0.453125 0.53125q0 0.265625 0.28125 0.4375q0.28125 0.15625 1.046875 0.21875l2.125 0.15625q1.578125 0.09375 2.484375 0.46875q0.921875 0.359375 1.296875 0.953125q0.390625 0.578125 0.390625 1.40625zm12.280518 -0.890625q-0.140625 1.234375 -0.90625 2.171875q-0.765625 0.921875 -1.984375 1.4375q-1.21875 0.5 -2.75 0.5q-1.671875 0 -2.953125 -0.59375q-1.28125 -0.609375 -2.0 -1.703125q-0.71875 -1.09375 -0.71875 -2.515625q0 -1.4375 0.71875 -2.515625q0.71875 -1.09375 2.0 -1.703125q1.28125 -0.625 2.953125 -0.625q1.53125 0 2.75 0.515625q1.21875 0.515625 1.984375 1.4375q0.765625 0.921875 0.90625 2.171875l-3.25 0q-0.171875 -0.8125 -0.8125 -1.25q-0.640625 -0.4375 -1.578125 -0.4375q-0.71875 0 -1.25 0.28125q-0.53125 0.265625 -0.828125 0.8125q-0.296875 0.53125 -0.296875 1.3125q0 0.765625 0.296875 1.3125q0.296875 0.53125 0.828125 0.8125q0.53125 0.28125 1.25 0.28125q0.9375 0 1.578125 -0.46875q0.65625 -0.46875 0.8125 -1.234375l3.25 0zm1.2857819 -8.453125l3.28125 0l0 12.3125l-3.28125 0l0 -12.3125zm10.431381 12.5625q-1.65625 0 -2.96875 -0.59375q-1.296875 -0.609375 -2.046875 -1.703125q-0.75 -1.109375 -0.75 -2.5625q0 -1.421875 0.71875 -2.5q0.71875 -1.078125 1.96875 -1.6875q1.265625 -0.609375 2.84375 -0.609375q1.640625 0 2.796875 0.71875q1.171875 0.703125 1.796875 2.0q0.640625 1.296875 0.640625 3.0625l-8.125 0l0 -1.96875l6.28125 0l-1.0625 0.6875q-0.078125 -0.703125 -0.359375 -1.1875q-0.28125 -0.5 -0.765625 -0.75q-0.46875 -0.265625 -1.125 -0.265625q-0.71875 0 -1.234375 0.296875q-0.5 0.28125 -0.796875 0.796875q-0.28125 0.5 -0.28125 1.171875q0 0.859375 0.390625 1.46875q0.390625 0.59375 1.140625 0.921875q0.765625 0.3125 1.875 0.3125q1.0 0 2.0 -0.265625q1.0 -0.265625 1.828125 -0.75l0 2.078125q-0.953125 0.640625 -2.171875 0.984375q-1.203125 0.34375 -2.59375 0.34375z" fill-rule="nonzero"/><path fill="#ffffff" d="m112.156235 344.95703q0 -0.84375 0.171875 -1.765625q0.171875 -0.921875 0.46875 -1.78125q0.3125 -0.875 0.703125 -1.515625l0.859375 0q-0.40625 0.8125 -0.703125 1.703125q-0.296875 0.875 -0.453125 1.75q-0.15625 0.859375 -0.15625 1.609375q0 0.671875 0.140625 1.390625q0.140625 0.703125 0.421875 1.5q0.296875 0.78125 0.75 1.71875l-0.859375 0q-0.671875 -1.125 -1.015625 -2.296875q-0.328125 -1.171875 -0.328125 -2.3125z" fill-rule="nonzero"/><path fill="#ffffff" d="m117.5724 348.11328l0 -5.8125l1.53125 0l0 1.03125l0.078125 0q0.171875 -0.515625 0.59375 -0.8125q0.4375 -0.296875 1.015625 -0.296875q0.609375 0 1.015625 0.296875q0.421875 0.296875 0.5625 0.8125l0.0625 0q0.1875 -0.5 0.65625 -0.796875q0.46875 -0.3125 1.09375 -0.3125q0.8125 0 1.328125 0.515625q0.515625 0.515625 0.515625 1.46875l0 3.90625l-1.609375 0l0 -3.59375q0 -0.484375 -0.265625 -0.71875q-0.25 -0.25 -0.640625 -0.25q-0.4375 0 -0.6875 0.28125q-0.25 0.28125 -0.25 0.734375l0 3.546875l-1.5625 0l0 -3.625q0 -0.421875 -0.25 -0.671875q-0.234375 -0.265625 -0.625 -0.265625q-0.28125 0 -0.5 0.140625q-0.203125 0.140625 -0.328125 0.375q-0.125 0.234375 -0.125 0.5625l0 3.484375l-1.609375 0zm13.126236 -2.46875l0 -3.34375l1.609375 0l0 5.8125l-1.546875 0l0 -1.0625l-0.0625 0q-0.203125 0.515625 -0.65625 0.828125q-0.453125 0.3125 -1.109375 0.3125q-0.578125 0 -1.03125 -0.265625q-0.4375 -0.265625 -0.6875 -0.75q-0.25 -0.5 -0.25 -1.171875l0 -3.703125l1.609375 0l0 3.421875q0 0.5 0.28125 0.8125q0.28125 0.296875 0.734375 0.28125q0.28125 0 0.53125 -0.125q0.25 -0.140625 0.40625 -0.40625q0.171875 -0.265625 0.171875 -0.640625zm4.155319 -0.890625l0 3.359375l-1.609375 0l0 -7.75l1.5625 0l0 2.96875l0.078125 0q0.1875 -0.515625 0.625 -0.8125q0.4375 -0.296875 1.109375 -0.296875q0.59375 0 1.046875 0.265625q0.453125 0.265625 0.703125 0.75q0.265625 0.484375 0.265625 1.171875l0 3.703125l-1.625 0l0 -3.40625q0 -0.546875 -0.28125 -0.84375q-0.265625 -0.296875 -0.75 -0.296875q-0.34375 0 -0.59375 0.140625q-0.234375 0.140625 -0.390625 0.40625q-0.140625 0.265625 -0.140625 0.640625z" fill-rule="nonzero"/><path fill="#ffffff" d="m144.35054 346.6914q-0.453125 0 -0.84375 -0.21875q-0.375 -0.234375 -0.609375 -0.609375q-0.21875 -0.390625 -0.21875 -0.84375q0 -0.453125 0.21875 -0.828125q0.234375 -0.390625 0.609375 -0.609375q0.390625 -0.21875 0.84375 -0.21875q0.453125 0 0.828125 0.21875q0.390625 0.21875 0.609375 0.609375q0.21875 0.375 0.21875 0.828125q0 0.453125 -0.21875 0.84375q-0.21875 0.375 -0.609375 0.609375q-0.375 0.21875 -0.828125 0.21875zm9.430176 -3.078125l-0.8125 0.21875q-0.109375 -0.296875 -0.390625 -0.5625q-0.28125 -0.28125 -0.859375 -0.28125q-0.53125 0 -0.890625 0.25q-0.34375 0.25 -0.34375 0.625q0 0.328125 0.234375 0.53125q0.25 0.1875 0.765625 0.3125l0.859375 0.21875q0.765625 0.1875 1.140625 0.578125q0.390625 0.375 0.390625 0.984375q0 0.5 -0.28125 0.90625q-0.28125 0.390625 -0.796875 0.625q-0.515625 0.21875 -1.1875 0.21875q-0.890625 0 -1.46875 -0.390625q-0.578125 -0.390625 -0.734375 -1.125l0.84375 -0.21875q0.125 0.46875 0.453125 0.703125q0.34375 0.234375 0.90625 0.234375q0.609375 0 0.984375 -0.265625q0.375 -0.265625 0.375 -0.640625q0 -0.609375 -0.875 -0.8125l-0.953125 -0.234375q-0.8125 -0.1875 -1.1875 -0.578125q-0.375 -0.40625 -0.375 -1.0q0 -0.5 0.28125 -0.875q0.28125 -0.375 0.765625 -0.59375q0.484375 -0.21875 1.09375 -0.21875q0.859375 0 1.34375 0.390625q0.5 0.375 0.71875 1.0zm1.8335876 -3.25l0 7.75l-0.875 0l0 -7.75l0.875 0zm3.3237 9.203125q0.453125 -0.9375 0.734375 -1.71875q0.296875 -0.796875 0.4375 -1.5q0.140625 -0.71875 0.140625 -1.390625q0 -0.75 -0.15625 -1.609375q-0.15625 -0.875 -0.453125 -1.75q-0.296875 -0.890625 -0.703125 -1.703125l0.859375 0q0.40625 0.640625 0.703125 1.515625q0.296875 0.859375 0.46875 1.78125q0.171875 0.921875 0.171875 1.765625q0 1.140625 -0.34375 2.3125q-0.328125 1.171875 -1.0 2.296875l-0.859375 0z" fill-rule="nonzero"/><path fill="#3b4652" d="m142.21532 195.4998l0 0c0 -1.7985535 1.4580231 -3.2565613 3.2565613 -3.2565613l13.025833 0l0 0c0.86369324 0 1.6920166 0.34310913 2.3027344 0.9538269c0.6107178 0.6107178 0.9538269 1.4390411 0.9538269 2.3027344l0 25.363495c0 1.7985535 -1.4580078 3.2565613 -3.2565613 3.2565613l-13.025833 0c-1.7985382 0 -3.2565613 -1.4580078 -3.2565613 -3.2565613z" fill-rule="evenodd"/><path fill="#3b4652" d="m147.03404 241.18274l0 0c0 -2.5493317 2.0666351 -4.615967 4.615967 -4.615967l18.463303 0l0 0c1.2242279 0 2.3983154 0.48632812 3.263977 1.3519897c0.8656616 0.8656616 1.3519745 2.0397491 1.3519745 3.263977l0 19.3667c0 2.5493164 -2.0666351 4.615967 -4.6159515 4.615967l-18.463303 0l0 0c-2.5493317 0 -4.615967 -2.0666504 -4.615967 -4.615967z" fill-rule="evenodd"/><path fill="#3b4652" d="m139.25386 176.18315l0 0c0 -2.271347 1.8412933 -4.1126404 4.1126404 -4.1126404l16.450058 0l0 0c1.090744 0 2.1368103 0.43328857 2.908081 1.2045593c0.77127075 0.77127075 1.2045593 1.817337 1.2045593 2.908081l0 72.20187c0 2.271347 -1.8412933 4.1126404 -4.1126404 4.1126404l-16.450058 0c-2.271347 0 -4.1126404 -1.8412933 -4.1126404 -4.1126404z" fill-rule="evenodd"/><path fill="#3b4652" d="m122.80676 246.23074l0 0c0 -2.5493317 2.0666428 -4.615967 4.615967 -4.615967l18.463303 0l0 0c1.2242279 0 2.3983154 0.48632812 3.263977 1.3519897c0.8656616 0.8656616 1.3519897 2.0397491 1.3519897 3.263977l0 19.3667c0 2.5493164 -2.0666504 4.6159363 -4.615967 4.6159363l-18.463303 0l0 0c-2.549324 0 -4.615967 -2.0666199 -4.615967 -4.6159363z" fill-rule="evenodd"/><path fill="#3b4652" d="m150.2784 243.486l0 0c0 -0.42289734 0.34283447 -0.7657318 0.7657471 -0.7657318l3.0628815 0l0 0c0.20307922 0 0.39785767 0.08067322 0.54145813 0.22427368c0.14360046 0.14360046 0.22428894 0.3383789 0.22428894 0.54145813l0 20.898315c0 0.42288208 -0.34283447 0.76571655 -0.7657471 0.76571655l-3.0628815 0c-0.4229126 0 -0.7657471 -0.34283447 -0.7657471 -0.76571655z" fill-rule="evenodd"/><path fill="#3b4652" d="m126.4493 245.6118l0 0c0 -0.43952942 0.3563156 -0.79585266 0.7958603 -0.79585266l11.210556 0c0.21107483 0 0.41349792 0.083847046 0.5627594 0.23310852c0.14924622 0.14924622 0.23309326 0.3516693 0.23309326 0.56274414l0 3.1833344c0 0.43952942 -0.35632324 0.79585266 -0.79585266 0.79585266l-11.210556 0l0 0c-0.43954468 0 -0.7958603 -0.35632324 -0.7958603 -0.79585266z" fill-rule="evenodd"/><path fill="#3b4652" d="m153.54503 248.36397l0 0c0 -0.6082306 0.4930725 -1.1013031 1.1013031 -1.1013031l5.48909 0c0.29208374 0 0.5722046 0.11602783 0.7787323 0.3225708c0.20652771 0.20652771 0.32255554 0.48664856 0.32255554 0.7787323l0 4.4050293c0 0.6082306 -0.49305725 1.1013031 -1.1012878 1.1013031l-5.48909 0c-0.6082306 0 -1.1013031 -0.4930725 -1.1013031 -1.1013031z" fill-rule="evenodd"/><path fill="#3b4652" d="m140.60321 101.5821l0 0c0 -2.0955276 1.698761 -3.7942963 3.7942963 -3.7942963l15.176727 0l0 0c1.0063171 0 1.971405 0.3997574 2.6829681 1.1113281c0.71157837 0.7115631 1.1113281 1.6766586 1.1113281 2.6829681l0 21.732735c0 2.0955276 -1.698761 3.7942963 -3.7942963 3.7942963l-15.176727 0c-2.0955353 0 -3.7942963 -1.6987686 -3.7942963 -3.7942963z" fill-rule="evenodd"/><path fill="#3b4652" d="m152.34508 108.36606l0 0c0 -1.0145035 0.8224182 -1.8369217 1.8369141 -1.8369217l7.347473 0l0 0c0.48718262 0 0.95440674 0.19353485 1.2988892 0.5380249c0.34449768 0.34449005 0.5380249 0.8117142 0.5380249 1.2988968l0 25.647476c0 1.0145111 -0.8224182 1.8369293 -1.8369141 1.8369293l-7.347473 0c-1.0144958 0 -1.8369141 -0.8224182 -1.8369141 -1.8369293z" fill-rule="evenodd"/><path fill="#3b4652" d="m118.3412 131.34236l0 0c0 -6.193939 5.021179 -11.215118 11.215118 -11.215118l44.8591 0l0 0c2.9744415 0 5.8270416 1.1815948 7.9302826 3.2848358c2.1032562 2.103241 3.2848358 4.955841 3.2848358 7.9302826l0 80.76224c0 6.193939 -5.021179 11.215118 -11.215118 11.215118l-44.8591 0c-6.193939 0 -11.215118 -5.021179 -11.215118 -11.215118z" fill-rule="evenodd"/><path fill="#3b4652" d="m173.5811 143.47336l0 0c0 -1.1119232 0.90138245 -2.0133057 2.0132904 -2.0133057l8.052963 0l0 0c0.53396606 0 1.046051 0.21211243 1.4236145 0.58969116c0.37756348 0.37756348 0.58969116 0.88964844 0.58969116 1.4236145l0 77.84596c0 1.1119232 -0.9013977 2.0133057 -2.0133057 2.0133057l-8.052963 0c-1.111908 0 -2.0132904 -0.90138245 -2.0132904 -2.0133057z" fill-rule="evenodd"/><path fill="#3b4652" d="m132.94165 140.02112l0 0c0 -0.8173065 0.66256714 -1.4798584 1.4798584 -1.4798584l5.919281 0l0 0c0.3924713 0 0.7688904 0.1559143 1.0464172 0.43344116c0.27752686 0.27752686 0.43344116 0.65393066 0.43344116 1.0464172l0 57.30902c0 0.8173065 -0.6625519 1.4798584 -1.4798584 1.4798584l-5.919281 0c-0.81729126 0 -1.4798584 -0.6625519 -1.4798584 -1.4798584z" fill-rule="evenodd"/><path fill="#3b4652" d="m154.49388 140.02112l0 0c0 -0.8173065 0.6625519 -1.4798584 1.4798584 -1.4798584l5.9192657 0l0 0c0.39248657 0 0.76890564 0.1559143 1.0464325 0.43344116c0.27752686 0.27752686 0.43344116 0.65393066 0.43344116 1.0464172l0 57.30902c0 0.8173065 -0.66256714 1.4798584 -1.4798737 1.4798584l-5.9192657 0c-0.8173065 0 -1.4798584 -0.6625519 -1.4798584 -1.4798584z" fill-rule="evenodd"/><path fill="#3b4652" d="m124.96173 129.12672l0 0c0 -1.111908 0.90138245 -2.013298 2.013298 -2.013298l8.052956 0l0 0c0.53396606 0 1.046051 0.21212006 1.4236298 0.58968353c0.37756348 0.37756348 0.5896759 0.8896637 0.5896759 1.4236145l0 25.294724c0 1.1119232 -0.90138245 2.0133057 -2.0133057 2.0133057l-8.052956 0c-1.1119156 0 -2.013298 -0.90138245 -2.013298 -2.0133057z" fill-rule="evenodd"/><path fill="#fdf0d9" d="m126.215324 179.4998l0 0c0 -1.7985535 1.4580078 -3.2565613 3.2565536 -3.2565613l13.025833 0l0 0c0.86369324 0 1.6920166 0.34310913 2.3027344 0.9538269c0.6107178 0.6107178 0.9538269 1.4390411 0.9538269 2.3027344l0 25.363495c0 1.7985535 -1.4580078 3.2565613 -3.2565613 3.2565613l-13.025833 0c-1.7985458 0 -3.2565536 -1.4580078 -3.2565536 -3.2565613z" fill-rule="evenodd"/><path fill="#fdf0d9" d="m131.03404 225.18274l0 0c0 -2.5493317 2.0666351 -4.615967 4.615967 -4.615967l18.463303 0l0 0c1.2242279 0 2.3983154 0.48632812 3.263977 1.3519897c0.8656616 0.8656616 1.3519745 2.0397491 1.3519745 3.263977l0 19.366684c0 2.5493317 -2.0666351 4.615967 -4.6159515 4.615967l-18.463303 0l0 0c-2.5493317 0 -4.615967 -2.0666351 -4.615967 -4.615967z" fill-rule="evenodd"/><path fill="#fdf0d9" d="m123.25386 160.18315l0 0c0 -2.271347 1.8412933 -4.1126404 4.1126404 -4.1126404l16.450058 0l0 0c1.090744 0 2.1368103 0.43328857 2.908081 1.2045593c0.77127075 0.77127075 1.2045593 1.817337 1.2045593 2.908081l0 72.20187c0 2.271347 -1.8412933 4.1126404 -4.1126404 4.1126404l-16.450058 0c-2.271347 0 -4.1126404 -1.8412933 -4.1126404 -4.1126404z" fill-rule="evenodd"/><path fill="#fdf0d9" d="m106.80676 230.23074l0 0c0 -2.5493317 2.0666428 -4.615967 4.615967 -4.615967l18.463303 0l0 0c1.2242279 0 2.3983154 0.48632812 3.263977 1.3519897c0.8656616 0.8656616 1.3519897 2.0397491 1.3519897 3.263977l0 19.366684c0 2.5493317 -2.0666504 4.615967 -4.615967 4.615967l-18.463303 0l0 0c-2.549324 0 -4.615967 -2.0666351 -4.615967 -4.615967z" fill-rule="evenodd"/><path fill="#f1dfc6" d="m134.2784 227.486l0 0c0 -0.42289734 0.34283447 -0.7657318 0.7657471 -0.7657318l3.0628815 0l0 0c0.20307922 0 0.39785767 0.08067322 0.54145813 0.22427368c0.14360046 0.14360046 0.22428894 0.3383789 0.22428894 0.54145813l0 20.8983c0 0.4229126 -0.34283447 0.7657471 -0.7657471 0.7657471l-3.0628815 0c-0.4229126 0 -0.7657471 -0.34283447 -0.7657471 -0.7657471z" fill-rule="evenodd"/><path fill="#fff8eb" d="m110.4493 229.6118l0 0c0 -0.43952942 0.3563156 -0.79585266 0.7958603 -0.79585266l11.210556 0c0.21107483 0 0.41349792 0.083847046 0.56275177 0.23310852c0.14925385 0.14924622 0.23310089 0.3516693 0.23310089 0.56274414l0 3.1833344c0 0.43952942 -0.3563156 0.79585266 -0.79585266 0.79585266l-11.210556 0l0 0c-0.43954468 0 -0.7958603 -0.35632324 -0.7958603 -0.79585266z" fill-rule="evenodd"/><path fill="#f1dfc6" d="m137.54503 232.36397l0 0c0 -0.6082306 0.4930725 -1.1013031 1.1013031 -1.1013031l5.48909 0c0.29208374 0 0.5722046 0.11602783 0.7787323 0.3225708c0.20652771 0.20652771 0.32255554 0.48664856 0.32255554 0.7787323l0 4.4050293c0 0.6082306 -0.49305725 1.1013031 -1.1012878 1.1013031l-5.48909 0c-0.6082306 0 -1.1013031 -0.4930725 -1.1013031 -1.1013031z" fill-rule="evenodd"/><path fill="#fc8076" d="m124.60321 85.5821l0 0c0 -2.0955276 1.698761 -3.7942963 3.7942963 -3.7942963l15.176727 0l0 0c1.0063171 0 1.971405 0.3997574 2.6829681 1.1113281c0.71157837 0.7115631 1.1113281 1.6766586 1.1113281 2.6829681l0 21.732735c0 2.0955276 -1.698761 3.7942963 -3.7942963 3.7942963l-15.176727 0c-2.0955353 0 -3.7942963 -1.6987686 -3.7942963 -3.7942963z" fill-rule="evenodd"/><path fill="#fb5c4e" d="m136.34508 92.36606l0 0c0 -1.0145035 0.8224182 -1.8369217 1.8369141 -1.8369217l7.347473 0l0 0c0.48718262 0 0.95440674 0.19353485 1.2988892 0.5380249c0.34449768 0.34449005 0.5380249 0.8117142 0.5380249 1.2988968l0 25.647484c0 1.0145035 -0.8224182 1.8369217 -1.8369141 1.8369217l-7.347473 0c-1.0144958 0 -1.8369141 -0.8224182 -1.8369141 -1.8369217z" fill-rule="evenodd"/><path fill="#fb5c4e" d="m102.3412 115.34236l0 0c0 -6.193939 5.021179 -11.215118 11.215118 -11.215118l44.8591 0l0 0c2.9744415 0 5.8270416 1.1815948 7.9302826 3.2848358c2.1032562 2.103241 3.2848358 4.9558487 3.2848358 7.9302826l0 80.76224c0 6.193939 -5.021179 11.215118 -11.215118 11.215118l-44.8591 0c-6.193939 0 -11.215118 -5.021179 -11.215118 -11.215118z" fill-rule="evenodd"/><path fill="#f73d35" d="m157.5811 127.47336l0 0c0 -1.1119156 0.90138245 -2.013298 2.0132904 -2.013298l8.052963 0l0 0c0.53396606 0 1.046051 0.21211243 1.4236145 0.5896759c0.37756348 0.3775711 0.58969116 0.8896637 0.58969116 1.4236221l0 77.84596c0 1.1119232 -0.9013977 2.0133057 -2.0133057 2.0133057l-8.052963 0c-1.111908 0 -2.0132904 -0.90138245 -2.0132904 -2.0133057z" fill-rule="evenodd"/><path fill="#f73d35" d="m116.94165 124.02112l0 0c0 -0.8172989 0.6625595 -1.4798584 1.479866 -1.4798584l5.9192657 0l0 0c0.39248657 0 0.7688904 0.1559143 1.0464249 0.43344116c0.27752686 0.27752686 0.43344116 0.6539383 0.43344116 1.0464172l0 57.30902c0 0.8173065 -0.6625595 1.4798584 -1.479866 1.4798584l-5.9192657 0c-0.8173065 0 -1.479866 -0.6625519 -1.479866 -1.4798584z" fill-rule="evenodd"/><path fill="#f73d35" d="m138.49388 124.02112l0 0c0 -0.8172989 0.6625519 -1.4798584 1.4798584 -1.4798584l5.9192657 0l0 0c0.39248657 0 0.76890564 0.1559143 1.0464325 0.43344116c0.27752686 0.27752686 0.43344116 0.6539383 0.43344116 1.0464172l0 57.30902c0 0.8173065 -0.66256714 1.4798584 -1.4798737 1.4798584l-5.9192657 0c-0.8173065 0 -1.4798584 -0.6625519 -1.4798584 -1.4798584z" fill-rule="evenodd"/><path fill="#fc8076" d="m108.96173 113.12673l0 0c0 -1.1119156 0.90138245 -2.0133057 2.013298 -2.0133057l8.052963 0l0 0c0.53395844 0 1.046051 0.21212006 1.4236145 0.58968353c0.37756348 0.3775711 0.58968353 0.88965607 0.58968353 1.4236221l0 25.294716c0 1.1119232 -0.9013901 2.0133057 -2.013298 2.0133057l-8.052963 0c-1.1119156 0 -2.013298 -0.90138245 -2.013298 -2.0133057z" fill-rule="evenodd"/></g></svg>