<svg version="1.1" viewBox="0.0 0.0 288.0 384.0" fill="none" stroke="none" stroke-linecap="square" stroke-miterlimit="10" xmlns:xlink="http://www.w3.org/1999/xlink" xmlns="http://www.w3.org/2000/svg"><clipPath id="g3b18a6c779a_0_6183.0"><path d="m0 0l288.0 0l0 384.0l-288.0 0l0 -384.0z" clip-rule="nonzero"/></clipPath><g clip-path="url(#g3b18a6c779a_0_6183.0)"><path fill="#ffffff" d="m0 0l288.0 0l0 384.0l-288.0 0z" fill-rule="evenodd"/><path fill="#51de18" d="m5.7007875 34.135216l0 0c0 -9.966135 8.079147 -18.045282 18.04528 -18.045282l240.50787 0c4.7858887 0 9.375793 1.9011936 12.759949 5.2853394c3.3841248 3.3841476 5.2853394 7.9740353 5.2853394 12.759943l0 324.2244c0 9.9661255 -8.079163 18.045288 -18.045288 18.045288l-240.50787 0l0 0c-9.966134 0 -18.04528 -8.079163 -18.04528 -18.045288z" fill-rule="evenodd"/><path stroke="#51de18" stroke-width="4.0" stroke-linejoin="round" stroke-linecap="butt" d="m5.7007875 34.135216l0 0c0 -9.966135 8.079147 -18.045282 18.04528 -18.045282l240.50787 0c4.7858887 0 9.375793 1.9011936 12.759949 5.2853394c3.3841248 3.3841476 5.2853394 7.9740353 5.2853394 12.759943l0 324.2244c0 9.9661255 -8.079163 18.045288 -18.045288 18.045288l-240.50787 0l0 0c-9.966134 0 -18.04528 -8.079163 -18.04528 -18.045288z" fill-rule="evenodd"/><path fill="#caffb5" d="m5.7007875 25.639769l0 0c0 -9.966133 8.079147 -18.04528 18.04528 -18.04528l240.50787 0c4.7858887 0 9.375793 1.9011936 12.759949 5.2853403c3.3841248 3.3841467 5.2853394 7.9740343 5.2853394 12.75994l0 324.2244c0 9.9661255 -8.079163 18.045288 -18.045288 18.045288l-240.50787 0l0 0c-9.966134 0 -18.04528 -8.079163 -18.04528 -18.045288z" fill-rule="evenodd"/><path stroke="#51de18" stroke-width="4.0" stroke-linejoin="round" stroke-linecap="butt" d="m5.7007875 25.639769l0 0c0 -9.966133 8.079147 -18.04528 18.04528 -18.04528l240.50787 0c4.7858887 0 9.375793 1.9011936 12.759949 5.2853403c3.3841248 3.3841467 5.2853394 7.9740343 5.2853394 12.75994l0 324.2244c0 9.9661255 -8.079163 18.045288 -18.045288 18.045288l-240.50787 0l0 0c-9.966134 0 -18.04528 -8.079163 -18.04528 -18.045288z" fill-rule="evenodd"/><path fill="#000000" fill-opacity="0.0" d="m21.700787 315.7533l266.29922 0l0 38.771637l-266.29922 0z" fill-rule="evenodd"/><path fill="#000000" d="m49.357037 328.11328l0 12.0l-3.15625 0l0 -10.8125l0.703125 0.078125l-4.640625 10.734375l-3.359375 0l-4.65625 -10.703125l0.71875 -0.078125l0 10.78125l-3.140625 0l0 -12.0l5.109375 0l4.3125 10.296875l-1.28125 0l4.265625 -10.296875l5.125 0zm5.8359222 12.25q-1.28125 0 -2.1875 -0.515625q-0.890625 -0.53125 -1.375 -1.5q-0.484375 -0.96875 -0.484375 -2.265625l0 -5.109375l3.265625 0l0 4.640625q0 1.015625 0.5 1.5625q0.5 0.53125 1.421875 0.53125q0.6875 0 1.140625 -0.265625q0.46875 -0.28125 0.71875 -0.8125q0.265625 -0.53125 0.265625 -1.265625l1.015625 0.53125q-0.1875 1.453125 -0.796875 2.453125q-0.609375 1.0 -1.515625 1.515625q-0.890625 0.5 -1.96875 0.5zm3.859375 -0.25l-0.59375 -3.65625l0 -5.484375l3.265625 0l0 5.984375l0.59375 3.15625l-3.265625 0zm15.228901 -2.96875q0 1.046875 -0.640625 1.765625q-0.640625 0.71875 -1.828125 1.09375q-1.171875 0.359375 -2.84375 0.359375q-1.703125 0 -3.0 -0.40625q-1.28125 -0.421875 -2.0000038 -1.171875q-0.71875 -0.75 -0.765625 -1.75l3.3125038 0q0.109375 0.375 0.4375 0.640625q0.328125 0.265625 0.859375 0.40625q0.546875 0.125 1.296875 0.125q0.984375 0 1.484375 -0.1875q0.5 -0.1875 0.5 -0.578125q0 -0.296875 -0.390625 -0.453125q-0.375 -0.15625 -1.296875 -0.234375l-1.625 -0.125q-1.609375 -0.109375 -2.5625 -0.484375q-0.953125 -0.390625 -1.3750038 -0.984375q-0.40625 -0.59375 -0.40625 -1.359375q0 -1.046875 0.6406288 -1.71875q0.65625 -0.6875 1.8125 -1.03125q1.15625 -0.34375 2.71875 -0.34375q1.53125 0 2.734375 0.40625q1.203125 0.390625 1.921875 1.109375q0.71875 0.703125 0.828125 1.671875l-3.3125 0q-0.078125 -0.3125 -0.359375 -0.5625q-0.265625 -0.25 -0.75 -0.40625q-0.46875 -0.15625 -1.234375 -0.15625q-0.875 0 -1.328125 0.203125q-0.453125 0.1875 -0.453125 0.53125q0 0.265625 0.28125 0.4375q0.28125 0.15625 1.046875 0.21875l2.125 0.15625q1.578125 0.09375 2.484375 0.46875q0.921875 0.359375 1.296875 0.953125q0.390625 0.578125 0.390625 1.40625zm12.280518 -0.890625q-0.140625 1.234375 -0.90625 2.171875q-0.765625 0.921875 -1.984375 1.4375q-1.21875 0.5 -2.75 0.5q-1.671875 0 -2.953125 -0.59375q-1.28125 -0.609375 -2.0 -1.703125q-0.71875 -1.09375 -0.71875 -2.515625q0 -1.4375 0.71875 -2.515625q0.71875 -1.09375 2.0 -1.703125q1.28125 -0.625 2.953125 -0.625q1.53125 0 2.75 0.515625q1.21875 0.515625 1.984375 1.4375q0.765625 0.921875 0.90625 2.171875l-3.25 0q-0.171875 -0.8125 -0.8125 -1.25q-0.640625 -0.4375 -1.578125 -0.4375q-0.71875 0 -1.25 0.28125q-0.53125 0.265625 -0.828125 0.8125q-0.296875 0.53125 -0.296875 1.3125q0 0.765625 0.296875 1.3125q0.296875 0.53125 0.828125 0.8125q0.53125 0.28125 1.25 0.28125q0.9375 0 1.578125 -0.46875q0.65625 -0.46875 0.8125 -1.234375l3.25 0zm1.2857819 -8.453125l3.28125 0l0 12.3125l-3.28125 0l0 -12.3125zm10.431381 12.5625q-1.65625 0 -2.96875 -0.59375q-1.296875 -0.609375 -2.046875 -1.703125q-0.75 -1.109375 -0.75 -2.5625q0 -1.421875 0.71875 -2.5q0.71875 -1.078125 1.96875 -1.6875q1.265625 -0.609375 2.84375 -0.609375q1.640625 0 2.796875 0.71875q1.171875 0.703125 1.796875 2.0q0.640625 1.296875 0.640625 3.0625l-8.125 0l0 -1.96875l6.28125 0l-1.0625 0.6875q-0.078125 -0.703125 -0.359375 -1.1875q-0.28125 -0.5 -0.765625 -0.75q-0.46875 -0.265625 -1.125 -0.265625q-0.71875 0 -1.234375 0.296875q-0.5 0.28125 -0.796875 0.796875q-0.28125 0.5 -0.28125 1.171875q0 0.859375 0.390625 1.46875q0.390625 0.59375 1.140625 0.921875q0.765625 0.3125 1.875 0.3125q1.0 0 2.0 -0.265625q1.0 -0.265625 1.828125 -0.75l0 2.078125q-0.953125 0.640625 -2.171875 0.984375q-1.203125 0.34375 -2.59375 0.34375zm23.915146 -5.28125q-0.1875 1.59375 -1.09375 2.78125q-0.90625 1.1875 -2.390625 1.84375q-1.484375 0.65625 -3.40625 0.65625q-2.09375 0 -3.65625 -0.78125q-1.5625 -0.78125 -2.4375 -2.1875q-0.875 -1.40625 -0.875 -3.28125q0 -1.875 0.875 -3.28125q0.875 -1.40625 2.4375 -2.1875q1.5625 -0.78125 3.65625 -0.78125q1.921875 0 3.40625 0.65625q1.484375 0.65625 2.390625 1.84375q0.90625 1.1875 1.09375 2.78125l-3.328125 0q-0.171875 -0.78125 -0.640625 -1.3125q-0.453125 -0.53125 -1.203125 -0.8125q-0.734375 -0.296875 -1.71875 -0.296875q-1.109375 0 -1.9375 0.40625q-0.8125 0.40625 -1.25 1.171875q-0.421875 0.75 -0.421875 1.8125q0 1.0625 0.421875 1.828125q0.4375 0.75 1.25 1.15625q0.828125 0.40625 1.9375 0.40625q0.984375 0 1.71875 -0.265625q0.75 -0.28125 1.203125 -0.8125q0.46875 -0.546875 0.640625 -1.34375l3.328125 0zm6.6929016 5.28125q-1.65625 0 -2.96875 -0.59375q-1.296875 -0.609375 -2.046875 -1.703125q-0.75 -1.109375 -0.75 -2.5625q0 -1.421875 0.71875 -2.5q0.71875 -1.078125 1.96875 -1.6875q1.265625 -0.609375 2.84375 -0.609375q1.640625 0 2.796875 0.71875q1.171875 0.703125 1.796875 2.0q0.640625 1.296875 0.640625 3.0625l-8.125 0l0 -1.96875l6.28125 0l-1.0625 0.6875q-0.078125 -0.703125 -0.359375 -1.1875q-0.28125 -0.5 -0.765625 -0.75q-0.46875 -0.265625 -1.125 -0.265625q-0.71875 0 -1.234375 0.296875q-0.5 0.28125 -0.796875 0.796875q-0.28125 0.5 -0.28125 1.171875q0 0.859375 0.390625 1.46875q0.390625 0.59375 1.140625 0.921875q0.765625 0.3125 1.875 0.3125q1.0 0 2.0 -0.265625q1.0 -0.265625 1.828125 -0.75l0 2.078125q-0.953125 0.640625 -2.171875 0.984375q-1.203125 0.34375 -2.59375 0.34375zm6.3846436 -12.5625l3.28125 0l0 12.3125l-3.28125 0l0 -12.3125zm5.072006 0l3.28125 0l0 12.3125l-3.28125 0l0 -12.3125z" fill-rule="nonzero"/><path fill="#000000" d="m150.41074 336.95703q0 -0.84375 0.171875 -1.765625q0.171875 -0.921875 0.46875 -1.78125q0.3125 -0.875 0.703125 -1.515625l0.859375 0q-0.40625 0.8125 -0.703125 1.703125q-0.296875 0.875 -0.453125 1.75q-0.15625 0.859375 -0.15625 1.609375q0 0.671875 0.140625 1.390625q0.140625 0.703125 0.421875 1.5q0.296875 0.78125 0.75 1.71875l-0.859375 0q-0.671875 -1.125 -1.015625 -2.296875q-0.328125 -1.171875 -0.328125 -2.3125z" fill-rule="nonzero"/><path fill="#000000" d="m155.8269 340.11328l0 -5.8125l1.53125 0l0 1.03125l0.078125 0q0.171875 -0.515625 0.59375 -0.8125q0.4375 -0.296875 1.015625 -0.296875q0.609375 0 1.015625 0.296875q0.421875 0.296875 0.5625 0.8125l0.0625 0q0.1875 -0.5 0.65625 -0.796875q0.46875 -0.3125 1.09375 -0.3125q0.8125 0 1.328125 0.515625q0.515625 0.515625 0.515625 1.46875l0 3.90625l-1.609375 0l0 -3.59375q0 -0.484375 -0.265625 -0.71875q-0.25 -0.25 -0.640625 -0.25q-0.4375 0 -0.6875 0.28125q-0.25 0.28125 -0.25 0.734375l0 3.546875l-1.5625 0l0 -3.625q0 -0.421875 -0.25 -0.671875q-0.234375 -0.265625 -0.625 -0.265625q-0.28125 0 -0.5 0.140625q-0.203125 0.140625 -0.328125 0.375q-0.125 0.234375 -0.125 0.5625l0 3.484375l-1.609375 0zm13.126236 -2.46875l0 -3.34375l1.609375 0l0 5.8125l-1.546875 0l0 -1.0625l-0.0625 0q-0.203125 0.515625 -0.65625 0.828125q-0.453125 0.3125 -1.109375 0.3125q-0.578125 0 -1.03125 -0.265625q-0.4375 -0.265625 -0.6875 -0.75q-0.25 -0.5 -0.25 -1.171875l0 -3.703125l1.609375 0l0 3.421875q0 0.5 0.28125 0.8125q0.28125 0.296875 0.734375 0.28125q0.28125 0 0.53125 -0.125q0.25 -0.140625 0.40625 -0.40625q0.171875 -0.265625 0.171875 -0.640625zm4.155319 -0.890625l0 3.359375l-1.609375 0l0 -7.75l1.5625 0l0 2.96875l0.078125 0q0.1875 -0.515625 0.625 -0.8125q0.4375 -0.296875 1.109375 -0.296875q0.59375 0 1.046875 0.265625q0.453125 0.265625 0.703125 0.75q0.265625 0.484375 0.265625 1.171875l0 3.703125l-1.625 0l0 -3.40625q0 -0.546875 -0.28125 -0.84375q-0.265625 -0.296875 -0.75 -0.296875q-0.34375 0 -0.59375 0.140625q-0.234375 0.140625 -0.390625 0.40625q-0.140625 0.265625 -0.140625 0.640625z" fill-rule="nonzero"/><path fill="#000000" d="m182.60504 338.6914q-0.453125 0 -0.84375 -0.21875q-0.375 -0.234375 -0.609375 -0.609375q-0.21875 -0.390625 -0.21875 -0.84375q0 -0.453125 0.21875 -0.828125q0.234375 -0.390625 0.609375 -0.609375q0.390625 -0.21875 0.84375 -0.21875q0.453125 0 0.828125 0.21875q0.390625 0.21875 0.609375 0.609375q0.21875 0.375 0.21875 0.828125q0 0.453125 -0.21875 0.84375q-0.21875 0.375 -0.609375 0.609375q-0.375 0.21875 -0.828125 0.21875zm9.430176 -3.078125l-0.8125 0.21875q-0.109375 -0.296875 -0.390625 -0.5625q-0.28125 -0.28125 -0.859375 -0.28125q-0.53125 0 -0.890625 0.25q-0.34375 0.25 -0.34375 0.625q0 0.328125 0.234375 0.53125q0.25 0.1875 0.765625 0.3125l0.859375 0.21875q0.765625 0.1875 1.140625 0.578125q0.390625 0.375 0.390625 0.984375q0 0.5 -0.28125 0.90625q-0.28125 0.390625 -0.796875 0.625q-0.515625 0.21875 -1.1875 0.21875q-0.890625 0 -1.46875 -0.390625q-0.578125 -0.390625 -0.734375 -1.125l0.84375 -0.21875q0.125 0.46875 0.453125 0.703125q0.34375 0.234375 0.90625 0.234375q0.609375 0 0.984375 -0.265625q0.375 -0.265625 0.375 -0.640625q0 -0.609375 -0.875 -0.8125l-0.953125 -0.234375q-0.8125 -0.1875 -1.1875 -0.578125q-0.375 -0.40625 -0.375 -1.0q0 -0.5 0.28125 -0.875q0.28125 -0.375 0.765625 -0.59375q0.484375 -0.21875 1.09375 -0.21875q0.859375 0 1.34375 0.390625q0.5 0.375 0.71875 1.0zm1.8335876 -3.25l0 7.75l-0.875 0l0 -7.75l0.875 0zm5.8237 6.328125q-0.453125 0 -0.84375 -0.21875q-0.375 -0.234375 -0.609375 -0.609375q-0.21875 -0.390625 -0.21875 -0.84375q0 -0.453125 0.21875 -0.828125q0.234375 -0.390625 0.609375 -0.609375q0.390625 -0.21875 0.84375 -0.21875q0.453125 0 0.828125 0.21875q0.390625 0.21875 0.609375 0.609375q0.21875 0.375 0.21875 0.828125q0 0.453125 -0.21875 0.84375q-0.21875 0.375 -0.609375 0.609375q-0.375 0.21875 -0.828125 0.21875zm9.430176 -3.078125l-0.8125 0.21875q-0.109375 -0.296875 -0.390625 -0.5625q-0.28125 -0.28125 -0.859375 -0.28125q-0.53125 0 -0.890625 0.25q-0.34375 0.25 -0.34375 0.625q0 0.328125 0.234375 0.53125q0.25 0.1875 0.765625 0.3125l0.859375 0.21875q0.765625 0.1875 1.140625 0.578125q0.390625 0.375 0.390625 0.984375q0 0.5 -0.28125 0.90625q-0.28125 0.390625 -0.796875 0.625q-0.515625 0.21875 -1.1875 0.21875q-0.890625 0 -1.46875 -0.390625q-0.578125 -0.390625 -0.734375 -1.125l0.84375 -0.21875q0.125 0.46875 0.453125 0.703125q0.34375 0.234375 0.90625 0.234375q0.609375 0 0.984375 -0.265625q0.375 -0.265625 0.375 -0.640625q0 -0.609375 -0.875 -0.8125l-0.953125 -0.234375q-0.8125 -0.1875 -1.1875 -0.578125q-0.375 -0.40625 -0.375 -1.0q0 -0.5 0.28125 -0.875q0.28125 -0.375 0.765625 -0.59375q0.484375 -0.21875 1.09375 -0.21875q0.859375 0 1.34375 0.390625q0.5 0.375 0.71875 1.0zm3.3804626 4.625q-0.828125 0 -1.4375 -0.375q-0.609375 -0.375 -0.9375 -1.046875q-0.328125 -0.671875 -0.328125 -1.5625q0 -0.890625 0.3125 -1.578125q0.328125 -0.6875 0.90625 -1.0625q0.59375 -0.390625 1.375 -0.390625q0.453125 0 0.890625 0.15625q0.453125 0.140625 0.8125 0.484375q0.375 0.34375 0.59375 0.90625q0.21875 0.546875 0.21875 1.359375l0 0.375l-4.484375 0l0 -0.765625l4.0 0l-0.40625 0.296875q0 -0.578125 -0.1875 -1.03125q-0.171875 -0.453125 -0.546875 -0.71875q-0.359375 -0.265625 -0.890625 -0.265625q-0.53125 0 -0.921875 0.265625q-0.375 0.265625 -0.578125 0.6875q-0.203125 0.421875 -0.203125 0.90625l0 0.515625q0 0.65625 0.21875 1.109375q0.234375 0.453125 0.640625 0.703125q0.421875 0.234375 0.953125 0.234375q0.359375 0 0.640625 -0.09375q0.28125 -0.109375 0.484375 -0.3125q0.21875 -0.21875 0.328125 -0.515625l0.859375 0.25q-0.125 0.4375 -0.453125 0.765625q-0.3125 0.328125 -0.796875 0.515625q-0.46875 0.1875 -1.0625 0.1875zm4.135071 -7.875l0 7.75l-0.875 0l0 -7.75l0.875 0zm3.3237 9.203125q0.453125 -0.9375 0.734375 -1.71875q0.296875 -0.796875 0.4375 -1.5q0.140625 -0.71875 0.140625 -1.390625q0 -0.75 -0.15625 -1.609375q-0.15625 -0.875 -0.453125 -1.75q-0.296875 -0.890625 -0.703125 -1.703125l0.859375 0q0.40625 0.640625 0.703125 1.515625q0.296875 0.859375 0.46875 1.78125q0.171875 0.921875 0.171875 1.765625q0 1.140625 -0.34375 2.3125q-0.328125 1.171875 -1.0 2.296875l-0.859375 0z" fill-rule="nonzero"/><path fill="#51de18" d="m92.97752 136.65205l0 0c0 -10.866173 8.808769 -19.674934 19.674934 -19.674934l78.69738 0l0 0c5.218109 0 10.222504 2.0728836 13.912277 5.7626495c3.6897583 3.689766 5.7626495 8.69416 5.7626495 13.912285l0 78.69737c0 10.866165 -8.808762 19.674927 -19.674927 19.674927l-78.69738 0c-10.866165 0 -19.674934 -8.808762 -19.674934 -19.674927z" fill-rule="evenodd"/><path fill="#51de18" d="m102.38627 142.9163l0 0c0 -9.129562 7.400963 -16.530518 16.53051 -16.530518l66.12007 0l0 0c4.3841705 0 8.588776 1.7416077 11.688843 4.841675c3.1000671 3.1000671 4.841675 7.3046722 4.841675 11.688843l0 66.12007c0 9.129547 -7.4009705 16.530518 -16.530518 16.530518l-66.12007 0c-9.129547 0 -16.53051 -7.4009705 -16.53051 -16.530518z" fill-rule="evenodd"/><path fill="#51de18" d="m108.79 147.19447l0 0c0 -7.9553833 6.449112 -14.404495 14.404488 -14.404495l57.616226 0l0 0c3.8202972 0 7.484146 1.5176239 10.185501 4.218979c2.7013702 2.7013702 4.218979 6.365204 4.218979 10.185516l0 57.616226c0 7.955368 -6.449112 14.40448 -14.40448 14.40448l-57.616226 0c-7.9553757 0 -14.404488 -6.449112 -14.404488 -14.40448z" fill-rule="evenodd"/><path fill="#51de18" d="m92.97752 146.71861l9.385826 0l0 58.551178l-9.385826 0z" fill-rule="evenodd"/><path fill="#51de18" d="m201.58852 146.71861l9.385834 0l0 58.551178l-9.385834 0z" fill-rule="evenodd"/><path fill="#51de18" d="m102.38672 150.98842l6.3622055 0l0 49.984253l-6.3622055 0z" fill-rule="evenodd"/><path fill="#51de18" d="m195.20094 150.98842l6.362213 0l0 49.984253l-6.362213 0z" fill-rule="evenodd"/><path fill="#51de18" d="m128.36876 160.23898l0 0c0 -4.345886 3.5230255 -7.868927 7.868927 -7.868927l31.474747 0l0 0c2.0869598 0 4.088455 0.8290558 5.564163 2.3047638c1.475708 1.475708 2.3047638 3.477188 2.3047638 5.564163l0 31.474747c0 4.345886 -3.5230408 7.868927 -7.868927 7.868927l-31.474747 0c-4.3459015 0 -7.868927 -3.5230408 -7.868927 -7.868927z" fill-rule="evenodd"/><path fill="#fc8076" d="m76.97752 120.652054l0 0c0 -10.866173 8.808769 -19.674934 19.674934 -19.674934l78.69738 0l0 0c5.218109 0 10.222504 2.0728836 13.912277 5.7626495c3.6897583 3.689766 5.7626495 8.694168 5.7626495 13.912285l0 78.69737c0 10.866165 -8.808762 19.674927 -19.674927 19.674927l-78.69738 0c-10.866165 0 -19.674934 -8.808762 -19.674934 -19.674927z" fill-rule="evenodd"/><path fill="#fb5c4e" d="m86.38627 126.9163l0 0c0 -9.129547 7.400963 -16.53051 16.53051 -16.53051l66.12007 0l0 0c4.3841705 0 8.588776 1.7416 11.688843 4.841675c3.1000671 3.1000748 4.841675 7.3046722 4.841675 11.688835l0 66.12008c0 9.129547 -7.4009705 16.530518 -16.530518 16.530518l-66.12007 0c-9.129547 0 -16.53051 -7.4009705 -16.53051 -16.530518z" fill-rule="evenodd"/><path fill="#ffaaa7" d="m92.79 131.19447l0 0c0 -7.9553757 6.449112 -14.404488 14.404488 -14.404488l57.616226 0l0 0c3.8202972 0 7.484146 1.5176086 10.185501 4.218979c2.7013702 2.7013626 4.218979 6.365204 4.218979 10.185509l0 57.616226c0 7.955368 -6.449112 14.40448 -14.40448 14.40448l-57.616226 0c-7.9553757 0 -14.404488 -6.449112 -14.404488 -14.40448z" fill-rule="evenodd"/><path fill="#ffaaa7" d="m76.97752 130.71861l9.385826 0l0 58.551178l-9.385826 0z" fill-rule="evenodd"/><path fill="#ffaaa7" d="m185.58852 130.71861l9.385834 0l0 58.551178l-9.385834 0z" fill-rule="evenodd"/><path fill="#fc8076" d="m86.38672 134.98842l6.3622055 0l0 49.984253l-6.3622055 0z" fill-rule="evenodd"/><path fill="#fc8076" d="m179.20094 134.98842l6.362213 0l0 49.984253l-6.362213 0z" fill-rule="evenodd"/><path fill="#9d6def" d="m112.36875 144.23898l0 0c0 -4.345886 3.5230408 -7.868927 7.868927 -7.868927l31.474754 0l0 0c2.0869598 0 4.088455 0.8290558 5.564163 2.3047638c1.475708 1.475708 2.3047638 3.477188 2.3047638 5.564163l0 31.474747c0 4.345886 -3.5230408 7.868927 -7.868927 7.868927l-31.474754 0c-4.345886 0 -7.868927 -3.5230408 -7.868927 -7.868927z" fill-rule="evenodd"/></g></svg>