<svg version="1.1" viewBox="0.0 0.0 672.0 768.0" fill="none" stroke="none" stroke-linecap="square" stroke-miterlimit="10" xmlns:xlink="http://www.w3.org/1999/xlink" xmlns="http://www.w3.org/2000/svg"><clipPath id="p.0"><path d="m0 0l672.0 0l0 768.0l-672.0 0l0 -768.0z" clip-rule="nonzero"/></clipPath><g clip-path="url(#p.0)"><path fill="#161d25" d="m0 0l672.0 0l0 768.0l-672.0 0z" fill-rule="evenodd"/><path fill="#161d25" d="m5.7007875 50.690613l0 0c0 -23.802057 19.295383 -43.09744 43.097443 -43.09744l574.40356 0c11.430115 0 22.39215 4.5406103 30.474487 12.622949c8.082336 8.082338 12.622925 19.044342 12.622925 30.474491l0 666.624c0 23.802063 -19.29535 43.097412 -43.097412 43.097412l-574.40356 0l0 0c-23.80206 0 -43.097443 -19.29535 -43.097443 -43.097412z" fill-rule="evenodd"/><path stroke="#3b4652" stroke-width="4.0" stroke-linejoin="round" stroke-linecap="butt" d="m5.7007875 50.690613l0 0c0 -23.802057 19.295383 -43.09744 43.097443 -43.09744l574.40356 0c11.430115 0 22.39215 4.5406103 30.474487 12.622949c8.082336 8.082338 12.622925 19.044342 12.622925 30.474491l0 666.624c0 23.802063 -19.29535 43.097412 -43.097412 43.097412l-574.40356 0l0 0c-23.80206 0 -43.097443 -19.29535 -43.097443 -43.097412z" fill-rule="evenodd"/></g></svg>