<svg version="1.1" viewBox="0.0 0.0 288.0 192.0" fill="none" stroke="none" stroke-linecap="square" stroke-miterlimit="10" xmlns:xlink="http://www.w3.org/1999/xlink" xmlns="http://www.w3.org/2000/svg"><clipPath id="g3b7fe1814f5_0_0.0"><path d="m0 0l288.0 0l0 192.0l-288.0 0l0 -192.0z" clip-rule="nonzero"/></clipPath><g clip-path="url(#g3b7fe1814f5_0_0.0)"><path fill="#161d25" d="m0 0l288.0 0l0 192.0l-288.0 0z" fill-rule="evenodd"/><path fill="#3b4652" d="m5.7007875 37.081955l0 0c0 -16.270258 13.189649 -29.459908 29.459908 -29.459908l217.67862 0c7.8132477 0 15.306503 3.1038027 20.831284 8.628607c5.524811 5.524805 8.628632 13.018047 8.628632 20.8313l0 117.83609c0 16.270264 -13.189667 29.459915 -29.459915 29.459915l-217.67862 0c-16.270258 0 -29.459908 -13.1896515 -29.459908 -29.459915z" fill-rule="evenodd"/><path stroke="#3b4652" stroke-width="4.0" stroke-linejoin="round" stroke-linecap="butt" d="m5.7007875 37.081955l0 0c0 -16.270258 13.189649 -29.459908 29.459908 -29.459908l217.67862 0c7.8132477 0 15.306503 3.1038027 20.831284 8.628607c5.524811 5.524805 8.628632 13.018047 8.628632 20.8313l0 117.83609c0 16.270264 -13.189667 29.459915 -29.459915 29.459915l-217.67862 0c-16.270258 0 -29.459908 -13.1896515 -29.459908 -29.459915z" fill-rule="evenodd"/></g></svg>