<svg version="1.1" viewBox="0.0 0.0 288.0 192.0" fill="none" stroke="none" stroke-linecap="square" stroke-miterlimit="10" xmlns:xlink="http://www.w3.org/1999/xlink" xmlns="http://www.w3.org/2000/svg"><clipPath id="g3b7f552dcf7_0_195.0"><path d="m0 0l288.0 0l0 192.0l-288.0 0l0 -192.0z" clip-rule="nonzero"/></clipPath><g clip-path="url(#g3b7f552dcf7_0_195.0)"><path fill="#ffffff" d="m0 0l288.0 0l0 192.0l-288.0 0z" fill-rule="evenodd"/><path fill="#f9f9f9" d="m5.7007875 43.748592l0 0c0 -15.533861 12.592683 -28.126545 28.126549 -28.126545l220.34534 0c7.4596252 0 14.6137085 2.9633236 19.888458 8.238075c5.2747498 5.2747498 8.238098 12.428848 8.238098 19.88847l0 112.50281c0 15.533859 -12.592682 28.126556 -28.126556 28.126556l-220.34534 0c-15.533865 0 -28.126549 -12.592697 -28.126549 -28.126556z" fill-rule="evenodd"/><path stroke="#d0d1d2" stroke-width="4.0" stroke-linejoin="round" stroke-linecap="butt" d="m5.7007875 43.748592l0 0c0 -15.533861 12.592683 -28.126545 28.126549 -28.126545l220.34534 0c7.4596252 0 14.6137085 2.9633236 19.888458 8.238075c5.2747498 5.2747498 8.238098 12.428848 8.238098 19.88847l0 112.50281c0 15.533859 -12.592682 28.126556 -28.126556 28.126556l-220.34534 0c-15.533865 0 -28.126549 -12.592697 -28.126549 -28.126556z" fill-rule="evenodd"/></g></svg>