<svg version="1.1" viewBox="0.0 0.0 288.0 384.0" fill="none" stroke="none" stroke-linecap="square" stroke-miterlimit="10" xmlns:xlink="http://www.w3.org/1999/xlink" xmlns="http://www.w3.org/2000/svg"><clipPath id="g3b18a6c779a_0_4877.0"><path d="m0 0l288.0 0l0 384.0l-288.0 0l0 -384.0z" clip-rule="nonzero"/></clipPath><g clip-path="url(#g3b18a6c779a_0_4877.0)"><path fill="#161d25" d="m0 0l288.0 0l0 384.0l-288.0 0z" fill-rule="evenodd"/><path fill="#fcb630" d="m5.7007875 34.135216l0 0c0 -9.966135 8.079147 -18.045282 18.04528 -18.045282l240.50787 0c4.7858887 0 9.375793 1.9011936 12.759949 5.2853394c3.3841248 3.3841476 5.2853394 7.9740353 5.2853394 12.759943l0 324.2244c0 9.9661255 -8.079163 18.045288 -18.045288 18.045288l-240.50787 0l0 0c-9.966134 0 -18.04528 -8.079163 -18.04528 -18.045288z" fill-rule="evenodd"/><path stroke="#fcb630" stroke-width="4.0" stroke-linejoin="round" stroke-linecap="butt" d="m5.7007875 34.135216l0 0c0 -9.966135 8.079147 -18.045282 18.04528 -18.045282l240.50787 0c4.7858887 0 9.375793 1.9011936 12.759949 5.2853394c3.3841248 3.3841476 5.2853394 7.9740353 5.2853394 12.759943l0 324.2244c0 9.9661255 -8.079163 18.045288 -18.045288 18.045288l-240.50787 0l0 0c-9.966134 0 -18.04528 -8.079163 -18.04528 -18.045288z" fill-rule="evenodd"/><path fill="#6a490b" d="m5.7007875 25.639769l0 0c0 -9.966133 8.079147 -18.04528 18.04528 -18.04528l240.50787 0c4.7858887 0 9.375793 1.9011936 12.759949 5.2853403c3.3841248 3.3841467 5.2853394 7.9740343 5.2853394 12.75994l0 324.2244c0 9.9661255 -8.079163 18.045288 -18.045288 18.045288l-240.50787 0l0 0c-9.966134 0 -18.04528 -8.079163 -18.04528 -18.045288z" fill-rule="evenodd"/><path stroke="#fcb630" stroke-width="4.0" stroke-linejoin="round" stroke-linecap="butt" d="m5.7007875 25.639769l0 0c0 -9.966133 8.079147 -18.04528 18.04528 -18.04528l240.50787 0c4.7858887 0 9.375793 1.9011936 12.759949 5.2853403c3.3841248 3.3841467 5.2853394 7.9740343 5.2853394 12.75994l0 324.2244c0 9.9661255 -8.079163 18.045288 -18.045288 18.045288l-240.50787 0l0 0c-9.966134 0 -18.04528 -8.079163 -18.04528 -18.045288z" fill-rule="evenodd"/><path fill="#fcb630" d="m163.66365 158.92773l0 0c0 -5.7893066 4.6931763 -10.482483 10.482483 -10.482483l41.928696 0l0 0c2.7801208 0 5.4463806 1.1044006 7.4122314 3.0702515c1.9658508 1.9658508 3.0702515 4.6321106 3.0702515 7.4122314l0 41.928696c0 5.7893066 -4.6931763 10.482483 -10.482483 10.482483l-41.928696 0c-5.7893066 0 -10.482483 -4.6931763 -10.482483 -10.482483z" fill-rule="evenodd"/><path fill="#fcb630" d="m77.39587 158.92773l0 0c0 -5.7893066 4.6931686 -10.482483 10.482491 -10.482483l41.92868 0l0 0c2.780136 0 5.446396 1.1044006 7.4122314 3.0702515c1.9658508 1.9658508 3.0702515 4.6321106 3.0702515 7.4122314l0 41.928696c0 5.7893066 -4.693161 10.482483 -10.482483 10.482483l-41.92868 0c-5.789322 0 -10.482491 -4.6931763 -10.482491 -10.482483z" fill-rule="evenodd"/><path fill="#fcb630" d="m77.39541 178.5392l0 0c0 -0.8466034 0.6863022 -1.532898 1.5329056 -1.532898l146.10358 0c0.40655518 0 0.79644775 0.16149902 1.0839233 0.4489746c0.2874756 0.2874756 0.4489746 0.67736816 0.4489746 1.0839233l0 6.131439c0 0.8466034 -0.68629456 1.5329132 -1.532898 1.5329132l-146.10358 0l0 0c-0.8466034 0 -1.5329056 -0.6863098 -1.5329056 -1.5329132z" fill-rule="evenodd"/><path fill="#fcb630" d="m77.39541 167.90166l0 0c0 -1.1604004 0.94068146 -2.1010742 2.1010742 -2.1010742l144.96722 0c0.557251 0 1.0916595 0.22135925 1.4856873 0.61538696c0.3940277 0.3940277 0.61538696 0.92845154 0.61538696 1.4856873l0 8.404037c0 1.1603851 -0.9406738 2.1010742 -2.1010742 2.1010742l-144.96722 0c-1.1603928 0 -2.1010742 -0.9406891 -2.1010742 -2.1010742z" fill-rule="evenodd"/><path fill="#fcb630" d="m77.39541 170.75104l0 0c0 -0.8466034 0.6863022 -1.5329132 1.5329056 -1.5329132l146.10358 0c0.40655518 0 0.79644775 0.16149902 1.0839233 0.4489746c0.2874756 0.2874756 0.4489746 0.6773834 0.4489746 1.0839386l0 6.131439c0 0.8466034 -0.68629456 1.532898 -1.532898 1.532898l-146.10358 0l0 0c-0.8466034 0 -1.5329056 -0.68629456 -1.5329056 -1.532898z" fill-rule="evenodd"/><path fill="#fcb630" d="m77.39587 151.13957l0 0c0 -5.789322 4.6931686 -10.482483 10.482491 -10.482483l41.92868 0l0 0c2.780136 0 5.446396 1.1044006 7.4122314 3.0702515c1.9658508 1.9658356 3.0702515 4.6320953 3.0702515 7.4122314l0 41.92868c0 5.789322 -4.693161 10.482483 -10.482483 10.482483l-41.92868 0c-5.789322 0 -10.482491 -4.693161 -10.482491 -10.482483z" fill-rule="evenodd"/><path fill="#fcb630" d="m82.41018 154.48373l0 0c0 -4.8668976 3.9453964 -8.812302 8.812302 -8.812302l35.24816 0l0 0c2.3371735 0 4.5786133 0.9284363 6.2312317 2.5810547c1.6526337 1.6526337 2.58107 3.8940735 2.58107 6.231247l0 35.248154c0 4.866913 -3.945404 8.812302 -8.812302 8.812302l-35.24816 0c-4.866905 0 -8.812302 -3.9453888 -8.812302 -8.812302z" fill-rule="evenodd"/><path fill="#fcb630" d="m87.424484 157.82408l0 0c0 -3.9423828 3.1959305 -7.1383057 7.1383133 -7.1383057l28.552376 0l0 0c1.8932037 0 3.7088547 0.75205994 5.0475464 2.0907593c1.3386993 1.3386841 2.0907593 3.1543427 2.0907593 5.0475464l0 28.552383c0 3.9423828 -3.1959229 7.1383057 -7.1383057 7.1383057l-28.552376 0c-3.9423828 0 -7.1383133 -3.1959229 -7.1383133 -7.1383057z" fill-rule="evenodd"/><path fill="#fcb630" d="m77.39587 156.5078l4.987564 0l0 31.206604l-4.987564 0z" fill-rule="evenodd"/><path fill="#fcb630" d="m135.27916 156.5078l4.987564 0l0 31.206604l-4.987564 0z" fill-rule="evenodd"/><path fill="#fcb630" d="m82.41018 158.7836l4.987564 0l0 26.653732l-4.987564 0z" fill-rule="evenodd"/><path fill="#fcb630" d="m130.26485 158.7836l4.987564 0l0 26.653732l-4.987564 0z" fill-rule="evenodd"/><path fill="#fcb630" d="m92.18054 157.9412l0 0c0 -1.7521667 1.4204178 -3.172577 3.1725845 -3.172577l26.966286 0c0.8414154 0 1.6483765 0.33425903 2.2433472 0.92922974c0.59497833 0.5949707 0.92922974 1.4019318 0.92922974 2.2433472l0 12.689957c0 1.7521667 -1.4204102 3.172577 -3.172577 3.172577l-26.966286 0c-1.7521667 0 -3.1725845 -1.4204102 -3.1725845 -3.172577z" fill-rule="evenodd"/><path fill="#fcb630" d="m163.66365 151.13957l0 0c0 -5.789322 4.6931763 -10.482483 10.482483 -10.482483l41.928696 0l0 0c2.7801208 0 5.4463806 1.1044006 7.4122314 3.0702515c1.9658508 1.9658356 3.0702515 4.6320953 3.0702515 7.4122314l0 41.92868c0 5.789322 -4.6931763 10.482483 -10.482483 10.482483l-41.928696 0c-5.7893066 0 -10.482483 -4.693161 -10.482483 -10.482483z" fill-rule="evenodd"/><path fill="#fcb630" d="m168.67796 154.48373l0 0c0 -4.8668976 3.945404 -8.812302 8.812302 -8.812302l35.248154 0l0 0c2.3371735 0 4.5786133 0.9284363 6.231247 2.5810547c1.6526184 1.6526337 2.58107 3.8940735 2.58107 6.231247l0 35.248154c0 4.866913 -3.945404 8.812302 -8.812317 8.812302l-35.248154 0c-4.8668976 0 -8.812302 -3.9453888 -8.812302 -8.812302z" fill-rule="evenodd"/><path fill="#fcb630" d="m173.69226 157.82408l0 0c0 -3.9423828 3.195938 -7.1383057 7.138321 -7.1383057l28.552383 0l0 0c1.8931885 0 3.708847 0.75205994 5.0475464 2.0907593c1.3386841 1.3386841 2.0907593 3.1543427 2.0907593 5.0475464l0 28.552383c0 3.9423828 -3.195938 7.1383057 -7.1383057 7.1383057l-28.552383 0c-3.9423828 0 -7.138321 -3.1959229 -7.138321 -7.1383057z" fill-rule="evenodd"/><path fill="#fcb630" d="m163.66365 156.5078l4.987564 0l0 31.206604l-4.987564 0z" fill-rule="evenodd"/><path fill="#fcb630" d="m221.54694 156.5078l4.9875793 0l0 31.206604l-4.9875793 0z" fill-rule="evenodd"/><path fill="#fcb630" d="m168.67796 158.7836l4.987564 0l0 26.653732l-4.987564 0z" fill-rule="evenodd"/><path fill="#fcb630" d="m216.53264 158.7836l4.987564 0l0 26.653732l-4.987564 0z" fill-rule="evenodd"/><path fill="#fcb630" d="m178.44833 157.9412l0 0c0 -1.7521667 1.4204102 -3.172577 3.172577 -3.172577l26.966278 0c0.84143066 0 1.6483765 0.33425903 2.2433624 0.92922974c0.5949707 0.5949707 0.92922974 1.4019318 0.92922974 2.2433472l0 12.689957c0 1.7521667 -1.4204254 3.172577 -3.1725922 3.172577l-26.966278 0c-1.7521667 0 -3.172577 -1.4204102 -3.172577 -3.172577z" fill-rule="evenodd"/><path fill="#1d69b2" d="m147.66365 142.92773l0 0c0 -5.7893066 4.6931763 -10.482483 10.482483 -10.482483l41.928696 0l0 0c2.7801208 0 5.4463806 1.1044006 7.4122314 3.0702515c1.9658508 1.9658508 3.0702515 4.6321106 3.0702515 7.4122314l0 41.928696c0 5.7893066 -4.6931763 10.482483 -10.482483 10.482483l-41.928696 0c-5.7893066 0 -10.482483 -4.6931763 -10.482483 -10.482483z" fill-rule="evenodd"/><path fill="#1d69b2" d="m61.395866 142.92773l0 0c0 -5.7893066 4.6931686 -10.482483 10.482491 -10.482483l41.92868 0l0 0c2.7801285 0 5.4463882 1.1044006 7.412239 3.0702515c1.9658432 1.9658508 3.0702515 4.6321106 3.0702515 7.4122314l0 41.928696c0 5.7893066 -4.6931686 10.482483 -10.482491 10.482483l-41.92868 0c-5.789322 0 -10.482491 -4.6931763 -10.482491 -10.482483z" fill-rule="evenodd"/><path fill="#1d69b2" d="m61.39541 162.5392l0 0c0 -0.8466034 0.686306 -1.532898 1.5329056 -1.532898l146.10358 0c0.40655518 0 0.79644775 0.16149902 1.0839233 0.4489746c0.2874756 0.2874756 0.4489746 0.67736816 0.4489746 1.0839233l0 6.131439c0 0.8466034 -0.68629456 1.5329132 -1.532898 1.5329132l-146.10358 0l0 0c-0.8465996 0 -1.5329056 -0.6863098 -1.5329056 -1.5329132z" fill-rule="evenodd"/><path fill="#d1e8ff" d="m61.39541 151.90166l0 0c0 -1.1604004 0.94068146 -2.1010742 2.1010742 -2.1010742l144.96722 0c0.557251 0 1.0916595 0.22135925 1.4856873 0.61538696c0.3940277 0.3940277 0.61538696 0.92845154 0.61538696 1.4856873l0 8.404037c0 1.1603851 -0.9406738 2.1010742 -2.1010742 2.1010742l-144.96722 0c-1.1603928 0 -2.1010742 -0.9406891 -2.1010742 -2.1010742z" fill-rule="evenodd"/><path fill="#55a1ea" d="m61.39541 154.75104l0 0c0 -0.8466034 0.686306 -1.5329132 1.5329056 -1.5329132l146.10358 0c0.40655518 0 0.79644775 0.16149902 1.0839233 0.4489746c0.2874756 0.2874756 0.4489746 0.6773834 0.4489746 1.0839386l0 6.131439c0 0.8466034 -0.68629456 1.532898 -1.532898 1.532898l-146.10358 0l0 0c-0.8465996 0 -1.5329056 -0.68629456 -1.5329056 -1.532898z" fill-rule="evenodd"/><path fill="#55a1ea" d="m61.395866 135.13957l0 0c0 -5.789322 4.6931686 -10.482483 10.482491 -10.482483l41.92868 0l0 0c2.7801285 0 5.4463882 1.1044006 7.412239 3.0702438c1.9658432 1.9658432 3.0702515 4.632103 3.0702515 7.412239l0 41.92868c0 5.789322 -4.6931686 10.482483 -10.482491 10.482483l-41.92868 0c-5.789322 0 -10.482491 -4.693161 -10.482491 -10.482483z" fill-rule="evenodd"/><path fill="#1d69b2" d="m66.41018 138.48373l0 0c0 -4.8668976 3.9453964 -8.812302 8.812302 -8.812302l35.24816 0l0 0c2.3371658 0 4.5786133 0.9284363 6.2312393 2.5810547c1.652626 1.6526337 2.5810623 3.8940735 2.5810623 6.231247l0 35.248154c0 4.866913 -3.945404 8.812302 -8.812302 8.812302l-35.24816 0c-4.866905 0 -8.812302 -3.9453888 -8.812302 -8.812302z" fill-rule="evenodd"/><path fill="#a6d3ff" d="m71.424484 141.82408l0 0c0 -3.9423828 3.1959305 -7.1383057 7.1383133 -7.1383057l28.552376 0l0 0c1.8932037 0 3.7088547 0.75205994 5.0475464 2.0907593c1.3386993 1.3386841 2.090767 3.1543427 2.090767 5.0475464l0 28.552383c0 3.9423828 -3.1959305 7.1383057 -7.1383133 7.1383057l-28.552376 0c-3.9423828 0 -7.1383133 -3.1959229 -7.1383133 -7.1383057z" fill-rule="evenodd"/><path fill="#a6d3ff" d="m61.395866 140.5078l4.987564 0l0 31.206604l-4.987564 0z" fill-rule="evenodd"/><path fill="#a6d3ff" d="m119.27916 140.5078l4.987564 0l0 31.206604l-4.987564 0z" fill-rule="evenodd"/><path fill="#55a1ea" d="m66.41018 142.7836l4.987564 0l0 26.653732l-4.987564 0z" fill-rule="evenodd"/><path fill="#55a1ea" d="m114.264854 142.7836l4.987564 0l0 26.653732l-4.987564 0z" fill-rule="evenodd"/><path fill="#d1e8ff" d="m76.18054 141.9412l0 0c0 -1.7521667 1.4204178 -3.172577 3.1725845 -3.172577l26.966286 0c0.8414154 0 1.6483765 0.33425903 2.2433472 0.92922974c0.59497833 0.5949707 0.92922974 1.4019318 0.92922974 2.2433472l0 12.689957c0 1.7521667 -1.4204102 3.172577 -3.172577 3.172577l-26.966286 0c-1.7521667 0 -3.1725845 -1.4204102 -3.1725845 -3.172577z" fill-rule="evenodd"/><path fill="#55a1ea" d="m147.66365 135.13957l0 0c0 -5.789322 4.6931763 -10.482483 10.482483 -10.482483l41.928696 0l0 0c2.7801208 0 5.4463806 1.1044006 7.4122314 3.0702438c1.9658508 1.9658432 3.0702515 4.632103 3.0702515 7.412239l0 41.92868c0 5.789322 -4.6931763 10.482483 -10.482483 10.482483l-41.928696 0c-5.7893066 0 -10.482483 -4.693161 -10.482483 -10.482483z" fill-rule="evenodd"/><path fill="#1d69b2" d="m152.67796 138.48373l0 0c0 -4.8668976 3.945404 -8.812302 8.812302 -8.812302l35.248154 0l0 0c2.3371735 0 4.5786133 0.9284363 6.231247 2.5810547c1.6526184 1.6526337 2.58107 3.8940735 2.58107 6.231247l0 35.248154c0 4.866913 -3.945404 8.812302 -8.812317 8.812302l-35.248154 0c-4.8668976 0 -8.812302 -3.9453888 -8.812302 -8.812302z" fill-rule="evenodd"/><path fill="#a6d3ff" d="m157.69226 141.82408l0 0c0 -3.9423828 3.195938 -7.1383057 7.138321 -7.1383057l28.552383 0l0 0c1.8931885 0 3.708847 0.75205994 5.0475464 2.0907593c1.3386841 1.3386841 2.0907593 3.1543427 2.0907593 5.0475464l0 28.552383c0 3.9423828 -3.195938 7.1383057 -7.1383057 7.1383057l-28.552383 0c-3.9423828 0 -7.138321 -3.1959229 -7.138321 -7.1383057z" fill-rule="evenodd"/><path fill="#a6d3ff" d="m147.66365 140.5078l4.987564 0l0 31.206604l-4.987564 0z" fill-rule="evenodd"/><path fill="#a6d3ff" d="m205.54694 140.5078l4.9875793 0l0 31.206604l-4.9875793 0z" fill-rule="evenodd"/><path fill="#55a1ea" d="m152.67796 142.7836l4.987564 0l0 26.653732l-4.987564 0z" fill-rule="evenodd"/><path fill="#55a1ea" d="m200.53264 142.7836l4.987564 0l0 26.653732l-4.987564 0z" fill-rule="evenodd"/><path fill="#d1e8ff" d="m162.44833 141.9412l0 0c0 -1.7521667 1.4204102 -3.172577 3.172577 -3.172577l26.966278 0c0.84143066 0 1.6483765 0.33425903 2.2433624 0.92922974c0.5949707 0.5949707 0.92922974 1.4019318 0.92922974 2.2433472l0 12.689957c0 1.7521667 -1.4204254 3.172577 -3.1725922 3.172577l-26.966278 0c-1.7521667 0 -3.172577 -1.4204102 -3.172577 -3.172577z" fill-rule="evenodd"/><path fill="#000000" fill-opacity="0.0" d="m21.700787 315.7533l266.29922 0l0 38.771637l-266.29922 0z" fill-rule="evenodd"/><path fill="#ffffff" d="m42.93516 337.80078l-1.015625 0.203125l0 -9.890625l3.21875 0l0 12.0l-4.1875 0l-6.921875 -9.875l1.015625 -0.203125l0 10.078125l-3.21875 0l0 -12.0l4.28125 0l6.828125 9.6875zm4.2082825 -6.96875l1.65625 0.328125l1.625 -0.328125l0 9.28125l-3.28125 0l0 -9.28125zm1.640625 -0.75q-0.84375 0 -1.375 -0.421875q-0.53125 -0.421875 -0.53125 -1.15625q0 -0.734375 0.53125 -1.15625q0.53125 -0.4375 1.375 -0.4375q0.875 0 1.390625 0.4375q0.53125 0.421875 0.53125 1.15625q0 0.734375 -0.53125 1.15625q-0.515625 0.421875 -1.390625 0.421875zm2.6345062 3.3125l0 -1.421875l1.859375 -0.75l1.40625 -2.703125l1.859375 0l0 2.453125l3.84375 0l0 2.421875l-3.84375 0l0 2.6875q0 0.984375 0.390625 1.390625q0.40625 0.40625 1.46875 0.40625q0.671875 0 1.1875 -0.125q0.515625 -0.125 0.953125 -0.3125l0 2.46875q-0.484375 0.171875 -1.265625 0.3125q-0.78125 0.140625 -1.609375 0.140625q-1.53125 0 -2.5 -0.453125q-0.96875 -0.46875 -1.4375 -1.34375q-0.453125 -0.875 -0.453125 -2.03125l0 -3.140625l-1.859375 0zm10.0230255 -2.421875l3.3281288 0l0.546875 3.265625l0 5.875l-3.2656288 0l0 -6.0625l-0.609375 -3.078125zm8.156254 -0.140625l0 2.78125q-0.484375 -0.09375 -0.90625 -0.125q-0.421875 -0.046875 -0.78125 -0.046875q-0.703125 0 -1.296875 0.28125q-0.578125 0.28125 -0.9375 0.921875q-0.359375 0.640625 -0.359375 1.703125l-0.625 -0.765625q0.125 -0.984375 0.375 -1.859375q0.265625 -0.875 0.703125 -1.546875q0.4375 -0.6875 1.09375 -1.078125q0.65625 -0.390625 1.59375 -0.390625q0.28125 0 0.5625 0.03125q0.296875 0.03125 0.578125 0.09375zm6.326767 9.53125q-1.765625 0 -3.078125 -0.59375q-1.3125 -0.59375 -2.046875 -1.6875q-0.734375 -1.109375 -0.734375 -2.53125q0 -1.453125 0.734375 -2.53125q0.734375 -1.09375 2.046875 -1.703125q1.3125 -0.609375 3.078125 -0.609375q1.734375 0 3.046875 0.609375q1.328125 0.609375 2.0625 1.703125q0.734375 1.078125 0.734375 2.53125q0 1.421875 -0.734375 2.53125q-0.734375 1.09375 -2.0625 1.6875q-1.3125 0.59375 -3.046875 0.59375zm0 -2.40625q0.796875 0 1.359375 -0.28125q0.5625 -0.296875 0.859375 -0.84375q0.3125 -0.546875 0.3125 -1.28125q0 -0.765625 -0.3125 -1.296875q-0.296875 -0.546875 -0.859375 -0.828125q-0.5625 -0.28125 -1.359375 -0.28125q-0.8125 0 -1.390625 0.28125q-0.5625 0.28125 -0.875 0.828125q-0.296875 0.53125 -0.296875 1.28125q0 0.75 0.296875 1.296875q0.3125 0.546875 0.875 0.84375q0.578125 0.28125 1.390625 0.28125zm15.203278 -0.140625l0 -1.5625l0.109375 -0.375l0 -2.25l-0.109375 -0.328125l0 -2.328125l3.265625 0l0 6.703125q0 1.6875 -0.78125 2.875q-0.78125 1.203125 -2.1875 1.828125q-1.390625 0.625 -3.296875 0.625q-1.265625 0 -2.34375 -0.328125q-1.078125 -0.328125 -2.15625 -0.96875l0 -2.453125q1.0 0.734375 2.09375 1.0625q1.09375 0.328125 2.1875 0.328125q1.578125 0 2.390625 -0.671875q0.828125 -0.671875 0.828125 -2.15625zm-3.921875 1.34375q-1.296875 0 -2.3125 -0.53125q-1.0 -0.53125 -1.578125 -1.484375q-0.578125 -0.953125 -0.578125 -2.21875q0 -1.28125 0.578125 -2.21875q0.578125 -0.953125 1.578125 -1.46875q1.015625 -0.53125 2.3125 -0.53125q0.96875 0 1.765625 0.296875q0.796875 0.296875 1.421875 0.78125q0.625 0.484375 1.046875 1.0625q0.421875 0.5625 0.640625 1.125q0.234375 0.5625 0.234375 0.984375q0 0.59375 -0.34375 1.3125q-0.34375 0.71875 -1.0 1.375q-0.65625 0.65625 -1.609375 1.09375q-0.953125 0.421875 -2.15625 0.421875zm1.109375 -2.234375q0.953125 0 1.6875 -0.484375q0.734375 -0.5 1.234375 -1.515625q-0.515625 -1.015625 -1.265625 -1.5q-0.734375 -0.5 -1.65625 -0.5q-0.703125 0 -1.234375 0.25q-0.515625 0.234375 -0.78125 0.6875q-0.265625 0.453125 -0.265625 1.0625q0 0.59375 0.265625 1.046875q0.265625 0.453125 0.78125 0.703125q0.515625 0.25 1.234375 0.25zm13.195526 3.4375q-1.65625 0 -2.96875 -0.59375q-1.296875 -0.609375 -2.046875 -1.703125q-0.75 -1.109375 -0.75 -2.5625q0 -1.421875 0.71875 -2.5q0.71875 -1.078125 1.96875 -1.6875q1.265625 -0.609375 2.84375 -0.609375q1.640625 0 2.796875 0.71875q1.171875 0.703125 1.796875 2.0q0.640625 1.296875 0.640625 3.0625l-8.125 0l0 -1.96875l6.28125 0l-1.0625 0.6875q-0.078125 -0.703125 -0.359375 -1.1875q-0.28125 -0.5 -0.765625 -0.75q-0.46875 -0.265625 -1.125 -0.265625q-0.71875 0 -1.234375 0.296875q-0.5 0.28125 -0.796875 0.796875q-0.28125 0.5 -0.28125 1.171875q0 0.859375 0.390625 1.46875q0.390625 0.59375 1.140625 0.921875q0.765625 0.3125 1.875 0.3125q1.0 0 2.0 -0.265625q1.0 -0.265625 1.828125 -0.75l0 2.078125q-0.953125 0.640625 -2.171875 0.984375q-1.203125 0.34375 -2.59375 0.34375zm5.9147644 -9.390625l3.28125 0l0.59375 3.65625l0 5.484375l-3.265625 0l0 -5.984375l-0.609375 -3.15625zm7.234375 -0.265625q1.3125 0 2.234375 0.53125q0.921875 0.515625 1.40625 1.484375q0.5 0.953125 0.5 2.265625l0 5.125l-3.265625 0l0 -4.640625q0 -1.015625 -0.53125 -1.5625q-0.515625 -0.546875 -1.484375 -0.546875q-0.671875 0 -1.1875 0.296875q-0.5 0.28125 -0.765625 0.8125q-0.265625 0.515625 -0.265625 1.234375l-1.015625 -0.515625q0.1875 -1.46875 0.8125 -2.46875q0.625 -1.0 1.53125 -1.5q0.921875 -0.515625 2.03125 -0.515625z" fill-rule="nonzero"/><path fill="#ffffff" d="m127.964264 336.95703q0 -0.84375 0.171875 -1.765625q0.171875 -0.921875 0.46875 -1.78125q0.3125 -0.875 0.703125 -1.515625l0.859375 0q-0.40625 0.8125 -0.703125 1.703125q-0.296875 0.875 -0.453125 1.75q-0.15625 0.859375 -0.15625 1.609375q0 0.671875 0.140625 1.390625q0.140625 0.703125 0.421875 1.5q0.296875 0.78125 0.75 1.71875l-0.859375 0q-0.671875 -1.125 -1.015625 -2.296875q-0.328125 -1.171875 -0.328125 -2.3125z" fill-rule="nonzero"/><path fill="#ffffff" d="m134.9898 336.7539l0 3.359375l-1.609375 0l0 -5.8125l1.59375 0l0 1.03125l0.046875 0q0.203125 -0.515625 0.625 -0.8125q0.4375 -0.296875 1.09375 -0.296875q0.59375 0 1.046875 0.265625q0.453125 0.265625 0.703125 0.765625q0.25 0.484375 0.25 1.15625l0 3.703125l-1.609375 0l0 -3.40625q0 -0.53125 -0.28125 -0.828125q-0.265625 -0.3125 -0.75 -0.3125q-0.328125 0 -0.578125 0.140625q-0.25 0.140625 -0.390625 0.40625q-0.140625 0.265625 -0.140625 0.640625zm6.348007 3.46875q-0.546875 0 -0.984375 -0.1875q-0.4375 -0.203125 -0.6875 -0.578125q-0.25 -0.390625 -0.25 -0.96875q0 -0.484375 0.171875 -0.8125q0.171875 -0.328125 0.484375 -0.53125q0.3125 -0.203125 0.703125 -0.296875q0.390625 -0.109375 0.828125 -0.15625q0.5 -0.046875 0.796875 -0.09375q0.3125 -0.046875 0.453125 -0.140625q0.140625 -0.09375 0.140625 -0.28125l0 -0.015625q0 -0.359375 -0.234375 -0.5625q-0.21875 -0.203125 -0.625 -0.203125q-0.421875 0 -0.6875 0.203125q-0.25 0.1875 -0.34375 0.46875l-1.484375 -0.109375q0.109375 -0.53125 0.4375 -0.921875q0.34375 -0.390625 0.859375 -0.59375q0.53125 -0.21875 1.234375 -0.21875q0.484375 0 0.921875 0.125q0.4375 0.109375 0.78125 0.34375q0.359375 0.234375 0.5625 0.609375q0.203125 0.375 0.203125 0.890625l0 3.921875l-1.546875 0l0 -0.8125l-0.03125 0q-0.140625 0.28125 -0.375 0.484375q-0.234375 0.203125 -0.5625 0.328125q-0.328125 0.109375 -0.765625 0.109375zm0.46875 -1.109375q0.34375 0 0.609375 -0.140625q0.28125 -0.15625 0.4375 -0.390625q0.15625 -0.25 0.15625 -0.546875l0 -0.609375q-0.078125 0.03125 -0.21875 0.078125q-0.125 0.046875 -0.28125 0.078125q-0.15625 0.03125 -0.328125 0.0625q-0.15625 0.015625 -0.28125 0.03125q-0.28125 0.046875 -0.5 0.140625q-0.21875 0.078125 -0.34375 0.234375q-0.109375 0.15625 -0.109375 0.390625q0 0.328125 0.234375 0.5q0.25 0.171875 0.625 0.171875zm3.7442627 1.0l0 -5.8125l1.609375 0l0 5.8125l-1.609375 0zm0.8125 -6.5625q-0.359375 0 -0.625 -0.234375q-0.25 -0.25 -0.25 -0.578125q0 -0.34375 0.25 -0.578125q0.265625 -0.234375 0.625 -0.234375q0.359375 0 0.609375 0.234375q0.265625 0.234375 0.265625 0.578125q0 0.328125 -0.265625 0.578125q-0.25 0.234375 -0.609375 0.234375z" fill-rule="nonzero"/><path fill="#ffffff" d="m152.88443 338.6914q-0.453125 0 -0.84375 -0.21875q-0.375 -0.234375 -0.609375 -0.609375q-0.21875 -0.390625 -0.21875 -0.84375q0 -0.453125 0.21875 -0.828125q0.234375 -0.390625 0.609375 -0.609375q0.390625 -0.21875 0.84375 -0.21875q0.453125 0 0.828125 0.21875q0.390625 0.21875 0.609375 0.609375q0.21875 0.375 0.21875 0.828125q0 0.453125 -0.21875 0.84375q-0.21875 0.375 -0.609375 0.609375q-0.375 0.21875 -0.828125 0.21875zm7.836426 -4.390625l0 0.75l-3.015625 0l0 -0.75l3.015625 0zm-2.140625 -1.390625l0.890625 0l0 5.53125q0 0.453125 0.1875 0.671875q0.1875 0.203125 0.59375 0.203125q0.078125 0 0.171875 0q0.109375 -0.015625 0.21875 -0.03125l0.1875 0.796875q-0.125 0.046875 -0.3125 0.078125q-0.171875 0.03125 -0.34375 0.03125q-0.703125 0 -1.15625 -0.421875q-0.4375 -0.421875 -0.4375 -1.078125l0 -5.78125zm2.996704 7.203125l0 -5.8125l0.84375 0l0 0.875l0.0625 0q0.171875 -0.421875 0.578125 -0.6875q0.421875 -0.28125 0.9375 -0.28125q0.109375 0 0.25 0.015625q0.140625 0 0.21875 0l0 0.90625q-0.046875 -0.015625 -0.203125 -0.03125q-0.15625 -0.015625 -0.34375 -0.015625q-0.421875 0 -0.75 0.171875q-0.328125 0.171875 -0.53125 0.484375q-0.1875 0.3125 -0.1875 0.703125l0 3.671875l-0.875 0zm7.1216125 -2.375l0 -3.4375l0.890625 0l0 5.8125l-0.890625 0l0 -0.984375l-0.0625 0q-0.203125 0.4375 -0.640625 0.75q-0.421875 0.3125 -1.078125 0.3125q-0.546875 0 -0.96875 -0.234375q-0.421875 -0.25 -0.671875 -0.734375q-0.234375 -0.484375 -0.234375 -1.234375l0 -3.6875l0.875 0l0 3.640625q0 0.625 0.359375 1.015625q0.375 0.375 0.921875 0.359375q0.328125 0 0.671875 -0.15625q0.359375 -0.171875 0.59375 -0.515625q0.234375 -0.359375 0.234375 -0.90625zm2.9111023 -1.125l0 3.5l-0.875 0l0 -7.75l0.875 0l0 2.84375l0.09375 0q0.203125 -0.453125 0.609375 -0.71875q0.40625 -0.265625 1.09375 -0.265625q0.59375 0 1.03125 0.234375q0.453125 0.234375 0.703125 0.734375q0.25 0.484375 0.25 1.234375l0 3.6875l-0.890625 0l0 -3.625q0 -0.703125 -0.359375 -1.078125q-0.359375 -0.390625 -1.0 -0.390625q-0.4375 0 -0.78125 0.1875q-0.34375 0.1875 -0.546875 0.546875q-0.203125 0.359375 -0.203125 0.859375zm9.601257 2.078125q-0.453125 0 -0.84375 -0.21875q-0.375 -0.234375 -0.609375 -0.609375q-0.21875 -0.390625 -0.21875 -0.84375q0 -0.453125 0.21875 -0.828125q0.234375 -0.390625 0.609375 -0.609375q0.390625 -0.21875 0.84375 -0.21875q0.453125 0 0.828125 0.21875q0.390625 0.21875 0.609375 0.609375q0.21875 0.375 0.21875 0.828125q0 0.453125 -0.21875 0.84375q-0.21875 0.375 -0.609375 0.609375q-0.375 0.21875 -0.828125 0.21875zm5.320801 -4.390625l0.875 0l0 6.234375q0.015625 0.546875 -0.171875 0.9375q-0.1875 0.390625 -0.5625 0.59375q-0.359375 0.21875 -0.921875 0.21875l-0.1875 0l0 -0.828125l0.171875 0q0.40625 0 0.59375 -0.234375q0.1875 -0.234375 0.203125 -0.6875l0 -6.234375zm0.421875 -0.96875q-0.25 0 -0.4375 -0.171875q-0.1875 -0.1875 -0.1875 -0.4375q0 -0.25 0.1875 -0.421875q0.1875 -0.1875 0.4375 -0.1875q0.265625 0 0.453125 0.1875q0.1875 0.171875 0.1875 0.421875q0 0.25 -0.1875 0.4375q-0.1875 0.171875 -0.453125 0.171875zm2.4823914 3.28125l0 3.5l-0.875 0l0 -5.8125l0.84375 0l0 0.90625l0.09375 0q0.203125 -0.4375 0.609375 -0.703125q0.421875 -0.28125 1.078125 -0.28125q0.59375 0 1.03125 0.25q0.4375 0.234375 0.6875 0.71875q0.25 0.484375 0.25 1.234375l0 3.6875l-0.890625 0l0 -3.625q0 -0.6875 -0.359375 -1.078125q-0.359375 -0.390625 -0.96875 -0.390625q-0.421875 0 -0.765625 0.1875q-0.34375 0.1875 -0.546875 0.546875q-0.1875 0.359375 -0.1875 0.859375zm7.0388184 4.953125q0.453125 -0.9375 0.734375 -1.71875q0.296875 -0.796875 0.4375 -1.5q0.140625 -0.71875 0.140625 -1.390625q0 -0.75 -0.15625 -1.609375q-0.15625 -0.875 -0.453125 -1.75q-0.296875 -0.890625 -0.703125 -1.703125l0.859375 0q0.40625 0.640625 0.703125 1.515625q0.296875 0.859375 0.46875 1.78125q0.171875 0.921875 0.171875 1.765625q0 1.140625 -0.34375 2.3125q-0.328125 1.171875 -1.0 2.296875l-0.859375 0z" fill-rule="nonzero"/></g></svg>