<svg version="1.1" viewBox="0.0 0.0 864.0 864.0" fill="none" stroke="none" stroke-linecap="square" stroke-miterlimit="10" xmlns:xlink="http://www.w3.org/1999/xlink" xmlns="http://www.w3.org/2000/svg"><clipPath id="g3b77170c992_0_296.0"><path d="m0 0l864.0 0l0 864.0l-864.0 0l0 -864.0z" clip-rule="nonzero"/></clipPath><g clip-path="url(#g3b77170c992_0_296.0)"><path fill="#fa5433" d="m268.74667 64.55141l0 0c0 -19.348747 15.685242 -35.034004 35.033997 -35.034004l140.13177 0l0 0c9.291595 0 18.202637 3.6910725 24.772797 10.261221c6.57016 6.5701485 10.26123 15.481182 10.26123 24.772781l0 189.88689c0 19.348755 -15.685272 35.033997 -35.034027 35.033997l-140.13177 0c-19.348755 0 -35.033997 -15.685242 -35.033997 -35.033997z" fill-rule="evenodd"/><path fill="#55a1ea" d="m346.23593 73.19197l0 0c0 -10.226822 8.290466 -18.5173 18.517303 -18.5173l173.16516 0c4.911133 0 9.621094 1.9509239 13.09375 5.4235916c3.4726562 3.4726677 5.423584 8.182613 5.423584 13.093708l0 74.06697c0 10.226822 -8.290466 18.517303 -18.517334 18.517303l-173.16516 0c-10.226837 0 -18.517303 -8.290482 -18.517303 -18.517303z" fill-rule="evenodd"/><path fill="#55a1ea" d="m346.23593 118.199005l0 0c0 -9.843483 7.9797363 -17.823204 17.823212 -17.823204l71.29068 0l0 0c4.7269897 0 9.2604065 1.8778 12.602905 5.220299c3.3424988 3.3424988 5.220276 7.8759003 5.220276 12.602905l0 147.28482c0 9.843475 -7.979706 17.823181 -17.823181 17.823181l-71.29068 0c-9.843475 0 -17.823212 -7.979706 -17.823212 -17.823181z" fill-rule="evenodd"/><path fill="#55a1ea" d="m147.29156 13.589246l0 0c0 -7.499242 6.0793457 -13.578578 13.578583 -13.578578l54.312683 0l0 0c3.6012573 0 7.055023 1.4305961 9.601501 3.9770734c2.5464783 2.5464773 3.9770813 6.0002418 3.9770813 9.601505l0 148.4264c0 7.499237 -6.0793457 13.578583 -13.578583 13.578583l-54.312683 0c-7.499237 0 -13.578583 -6.0793457 -13.578583 -13.578583z" fill-rule="evenodd"/><path fill="#fe6a3d" d="m93.66465 185.11182l0 0c0 -18.683945 15.146339 -33.83029 33.8303 -33.83029l135.31712 0l0 0c8.972351 0 17.57724 3.5642548 23.921661 9.908661c6.344391 6.3444214 9.908661 14.94928 9.908661 23.92163l0 223.07843c0 18.68396 -15.146362 33.83029 -33.830322 33.83029l-135.31712 0c-18.68396 0 -33.8303 -15.146332 -33.8303 -33.83029z" fill-rule="evenodd"/><path fill="#f73d35" d="m132.3301 308.34952l0 0c0 -37.618835 30.496109 -68.114944 68.114944 -68.114944l333.33035 0c18.065186 0 35.390503 7.1763763 48.16449 19.950394c12.774048 12.774048 19.95044 30.099335 19.95044 48.16455l0 272.45163c0 37.618835 -30.496094 68.11493 -68.11493 68.11493l-333.33035 0c-37.618835 0 -68.114944 -30.496094 -68.114944 -68.11493z" fill-rule="evenodd"/><path fill="#55a1ea" d="m199.29248 100.35486l0 0c0 -4.641136 3.7623749 -8.403519 8.403503 -8.403519l80.50064 0c2.2287598 0 4.3662415 0.88536835 5.9421997 2.4613342c1.5759583 1.5759659 2.4613342 3.7134323 2.4613342 5.9421844l0 33.613068c0 4.6411285 -3.7623901 8.403519 -8.403534 8.403519l-80.50064 0c-4.6411285 0 -8.403503 -3.7623901 -8.403503 -8.403519z" fill-rule="evenodd"/><path fill="#83909f" d="m604.85913 594.4059l0 0c-1.3305054 -5.169983 1.7819824 -10.439636 6.9519043 -11.770203l37.443115 -9.63623l0 0c2.482727 -0.63897705 5.1175537 -0.26550293 7.32489 1.038269c2.2073364 1.3037109 3.8063965 3.4309082 4.4453125 5.9136353l57.501343 223.42963c1.3305664 5.169983 -1.7819214 10.439697 -6.9519043 11.770203l-37.443115 9.6362915c-5.169983 1.3305054 -10.439636 -1.7819824 -11.770203 -6.9519043z" fill-rule="evenodd"/><path fill="#99a9ba" d="m603.3878 588.68884l0 0c-0.51794434 -2.0125122 0.69366455 -4.063904 2.7061768 -4.581787l14.575623 -3.7511597l0 0c0.96643066 -0.24871826 1.9921265 -0.10333252 2.8513794 0.4041748c0.8592529 0.5075073 1.4816895 1.3355713 1.7304688 2.302002l60.44397 234.86377c0.51794434 2.0125122 -0.69366455 4.063843 -2.7061768 4.581787l-14.575623 3.7511597c-2.0125122 0.51794434 -4.063904 -0.69366455 -4.581848 -2.7061768z" fill-rule="evenodd"/><path fill="#3b4652" d="m545.593 552.00714l0 0c-3.015564 -11.717407 4.0386963 -23.660828 15.7561035 -26.676392l104.49109 -26.891602c5.626892 -1.4481201 11.598572 -0.60165405 16.60138 2.35318c5.0028076 2.954834 8.626892 7.776001 10.075012 13.402863l21.839966 84.86243c3.015564 11.717407 -4.0386353 23.660828 -15.7560425 26.676392l-104.49109 26.891602c-11.717407 3.015564 -23.660828 -4.0386963 -26.676392 -15.7561035z" fill-rule="evenodd"/><path fill="#83909f" d="m543.9508 545.62604l0 0c-2.1085815 -8.193237 2.8240356 -16.544495 11.017273 -18.653076l59.338867 -15.271332l0 0c3.9345093 -1.0126038 8.110168 -0.42071533 11.608276 1.6454163c3.498169 2.066101 6.0322266 5.437256 7.044861 9.371826l25.12439 97.62451c2.1085815 8.193237 -2.8239746 16.544495 -11.017212 18.653076l-59.338867 15.271362c-8.193237 2.1085815 -16.544556 -2.8239746 -18.653137 -11.017212z" fill-rule="evenodd"/><path fill="#a6d3ff" d="m392.10657 360.20532l0 0c-8.107483 -31.502808 10.858154 -63.61331 42.360992 -71.720795l228.15677 -58.71791l0 0c15.128174 -3.8933563 31.18341 -1.6175995 44.633667 6.3266144c13.450256 7.944229 23.193787 20.906189 27.087158 36.034363l58.717896 228.15677c8.107483 31.502808 -10.858154 63.613342 -42.361023 71.720825l-228.15674 58.717896c-31.502808 8.107483 -63.61331 -10.858154 -71.720825 -42.360962z" fill-rule="evenodd"/><path fill="#d1e8ff" d="m440.06302 376.97742l0 0c-6.166931 -23.962555 8.259247 -48.3873 32.22177 -54.55426l173.54688 -44.663605l0 0c11.507202 -2.9614868 23.719543 -1.2304382 33.95044 4.812317c10.230896 6.042755 17.642334 15.902222 20.60376 27.409454l44.663635 173.54684c6.166931 23.962524 -8.259216 48.3873 -32.22174 54.55423l-173.54688 44.663635c-23.962524 6.166931 -48.3873 -8.259277 -54.55423 -32.2218z" fill-rule="evenodd"/><path fill="#e7f2ff" d="m481.79004 374.7809l0 0c-2.4515991 -9.526001 3.2833252 -19.235718 12.809326 -21.687317l68.99115 -17.755402l0 0c4.574585 -1.1773071 9.429382 -0.48913574 13.496582 1.9130859c4.0671387 2.4021912 7.0134277 6.321686 8.190735 10.89624l17.755432 68.99118c2.4515991 9.52597 -3.2833862 19.235718 -12.809326 21.687286l-68.99121 17.755432c-9.52597 2.4515686 -19.235718 -3.2833557 -21.687286 -12.809326z" fill-rule="evenodd"/><path fill="#e7f2ff" d="m610.2212 445.24036l0 0c-1.546875 -6.010742 2.0717773 -12.137451 8.08252 -13.684357l43.53247 -11.20343l0 0c2.8864746 -0.7428589 5.949829 -0.30862427 8.516113 1.2071228c2.5663452 1.5157776 4.425415 3.988922 5.168274 6.8753967l11.20343 43.53244c1.546875 6.0107727 -2.0717773 12.137482 -8.08252 13.684387l-43.53247 11.20343c-6.010742 1.5469055 -12.137451 -2.0717468 -13.684387 -8.08252z" fill-rule="evenodd"/></g></svg>