<svg version="1.1" viewBox="0.0 0.0 864.0 864.0" fill="none" stroke="none" stroke-linecap="square" stroke-miterlimit="10" xmlns:xlink="http://www.w3.org/1999/xlink" xmlns="http://www.w3.org/2000/svg"><clipPath id="g3b77ef49a04_0_677.0"><path d="m0 0l864.0 0l0 864.0l-864.0 0l0 -864.0z" clip-rule="nonzero"/></clipPath><g clip-path="url(#g3b77ef49a04_0_677.0)"><path fill="#e7f2ff" d="m403.52673 435.07465l0 0c0 -5.2417603 4.2492676 -9.491028 9.490997 -9.491028l37.96286 0l0 0c2.5171814 0 4.931244 0.99993896 6.711151 2.7798462c1.7799377 1.7799072 2.7798767 4.1940002 2.7798767 6.7111816l0 40.640015c0 5.2417603 -4.2492676 9.491028 -9.491028 9.491028l-37.96286 0c-5.2417297 0 -9.490997 -4.2492676 -9.490997 -9.491028z" fill-rule="evenodd"/><path fill="#d1e8ff" d="m300.51968 222.12686l0 0c0 -24.054596 19.500092 -43.554688 43.554688 -43.554688l175.85129 0l0 0c11.551392 0 22.6297 4.588791 30.79779 12.756866c8.168091 8.168091 12.756836 19.246399 12.756836 30.797821l0 174.21347c0 24.054596 -19.500061 43.554688 -43.554626 43.554688l-175.85129 0c-24.054596 0 -43.554688 -19.500092 -43.554688 -43.554688z" fill-rule="evenodd"/><path fill="#d1e8ff" d="m300.51968 520.9951l0 0c0 -24.054596 19.500092 -43.554688 43.554688 -43.554688l175.85129 0l0 0c11.551392 0 22.6297 4.5887756 30.79779 12.756866c8.168091 8.168091 12.756836 19.246399 12.756836 30.797821l0 174.2135c0 24.054565 -19.500061 43.554626 -43.554626 43.554626l-175.85129 0c-24.054596 0 -43.554688 -19.500061 -43.554688 -43.554626z" fill-rule="evenodd"/><path fill="#e7f2ff" d="m300.51968 209.83264l0 0c0 -17.264679 13.995789 -31.260468 31.260468 -31.260468l125.03812 0l0 0c8.290802 0 16.242004 3.2935028 22.104492 9.155991c5.862488 5.8624725 9.155975 13.81369 9.155975 22.104477l0 198.80191c0 17.264679 -13.995789 31.260468 -31.260468 31.260468l-125.03812 0c-17.264679 0 -31.260468 -13.995789 -31.260468 -31.260468z" fill-rule="evenodd"/><path fill="#e7f2ff" d="m300.51968 508.70142l0 0c0 -17.264679 13.995789 -31.260468 31.260468 -31.260468l125.03812 0l0 0c8.290802 0 16.242004 3.2934875 22.104492 9.155975c5.862488 5.862488 9.155975 13.81369 9.155975 22.104492l0 198.80188c0 17.26471 -13.995789 31.260498 -31.260468 31.260498l-125.03812 0c-17.264679 0 -31.260468 -13.995789 -31.260468 -31.260498z" fill-rule="evenodd"/><path fill="#f3f8fe" d="m332.51968 224.48322l0 0c0 -7.682846 6.22818 -13.911041 13.911041 -13.911041l55.642487 0l0 0c3.6894531 0 7.2277527 1.465622 9.836578 4.0744476c2.6088257 2.6088257 4.074463 6.147156 4.074463 9.836594l0 126.31964c0 7.6828613 -6.22818 13.911041 -13.911041 13.911041l-55.642487 0c-7.6828613 0 -13.911041 -6.22818 -13.911041 -13.911041z" fill-rule="evenodd"/><path fill="#f3f8fe" d="m333.30447 523.352l0 0c0 -7.6828613 6.22818 -13.911041 13.911041 -13.911041l55.642487 0l0 0c3.6894226 0 7.2277527 1.4656067 9.836578 4.0744324c2.6088257 2.6088257 4.074463 6.147156 4.074463 9.836609l0 100.14642c0 7.6828613 -6.2282104 13.911011 -13.911041 13.911011l-55.642487 0c-7.6828613 0 -13.911041 -6.2281494 -13.911041 -13.911011z" fill-rule="evenodd"/><path fill="#9a4600" d="m280.11023 152.88734l0 0c0 -5.4881744 4.4490356 -9.93721 9.937225 -9.93721l283.90512 0c2.635498 0 5.163086 1.0469513 7.0266724 2.9105377c1.8635864 1.8635864 2.9105225 4.391159 2.9105225 7.0266724l0 39.747635c0 5.488159 -4.4490356 9.937195 -9.937195 9.937195l-283.90512 0l0 0c-5.4881897 0 -9.937225 -4.4490356 -9.937225 -9.937195z" fill-rule="evenodd"/><path fill="#9a4600" d="m280.11023 724.701l0 0c0 -5.488159 4.4490356 -9.937195 9.937225 -9.937195l283.90512 0c2.635498 0 5.163086 1.046936 7.0266724 2.9105225c1.8635864 1.8635864 2.9105225 4.3911743 2.9105225 7.0266724l0 39.74762c0 5.488159 -4.4490356 9.937195 -9.937195 9.937195l-283.90512 0l0 0c-5.4881897 0 -9.937225 -4.4490356 -9.937225 -9.937195z" fill-rule="evenodd"/><path fill="#c16a22" d="m280.11023 152.88734l0 0c0 -5.4881744 4.4490356 -9.93721 9.937225 -9.93721l213.22794 0c2.635498 0 5.163086 1.0469513 7.0266724 2.9105377c1.8635864 1.8635864 2.9105225 4.391159 2.9105225 7.0266724l0 39.747635c0 5.488159 -4.4490356 9.937195 -9.937195 9.937195l-213.22794 0c-5.4881897 0 -9.937225 -4.4490356 -9.937225 -9.937195z" fill-rule="evenodd"/><path fill="#c16a22" d="m280.11023 724.701l0 0c0 -5.488159 4.4490356 -9.937195 9.937225 -9.937195l213.22794 0c2.635498 0 5.163086 1.046936 7.0266724 2.9105225c1.8635864 1.8635864 2.9105225 4.3911743 2.9105225 7.0266724l0 39.74762c0 5.488159 -4.4490356 9.937195 -9.937195 9.937195l-213.22794 0c-5.4881897 0 -9.937225 -4.4490356 -9.937225 -9.937195z" fill-rule="evenodd"/><path fill="#ffe7bc" d="m332.51968 617.79553l0 0c0 -7.247986 5.875641 -13.123596 13.123627 -13.123596l171.92596 0c3.4805908 0 6.8186646 1.3826294 9.279846 3.843811c2.4611206 2.4611206 3.843811 5.7991943 3.843811 9.279785l0 52.49292c0 7.247986 -5.8756714 13.123596 -13.123657 13.123596l-171.92596 0l0 0c-7.247986 0 -13.123627 -5.8756104 -13.123627 -13.123596z" fill-rule="evenodd"/><path fill="#ffc860" d="m530.69293 611.8039l0 64.482666c0 1.8823242 -0.7477417 3.687561 -2.0787354 5.0185547c-1.3309937 1.3309937 -3.1362305 2.0787354 -5.0185547 2.0787354l-35.485413 0c-3.6621094E-4 0 -6.4086914E-4 -3.0517578E-4 -6.4086914E-4 -6.713867E-4l6.4086914E-4 -78.67651l0 0c0 -3.6621094E-4 3.0517578E-4 -6.713867E-4 6.713867E-4 -6.713867E-4l35.48474 6.713867E-4l0 0c3.9197388 0 7.09729 3.1775513 7.09729 7.097229z" fill-rule="evenodd"/><path fill="#fdf0d9" d="m416.76904 604.67194l-71.351685 0c-3.4213867 0 -6.702606 1.3591309 -9.121887 3.7783813c-2.419281 2.4192505 -3.7784119 5.7005005 -3.7784119 9.121887l0 19.824097l84.25198 0z" fill-rule="evenodd"/></g></svg>