<svg version="1.1" viewBox="0.0 0.0 864.0 864.0" fill="none" stroke="none" stroke-linecap="square" stroke-miterlimit="10" xmlns:xlink="http://www.w3.org/1999/xlink" xmlns="http://www.w3.org/2000/svg"><clipPath id="g3b77170c992_0_265.0"><path d="m0 0l864.0 0l0 864.0l-864.0 0l0 -864.0z" clip-rule="nonzero"/></clipPath><g clip-path="url(#g3b77170c992_0_265.0)"><path fill="#83909f" d="m140.79434 427.71066l0 0c3.6242523 -10.798157 15.316132 -16.61438 26.114563 -12.990906l94.52832 31.719574c5.1855774 1.7400513 9.467407 5.46875 11.903503 10.365845c2.4360962 4.897064 2.8269043 10.561371 1.0864868 15.746857l-26.248322 78.204865c-3.6242523 10.798218 -15.316132 16.61444 -26.114563 12.990967l-94.52832 -31.719604c-10.798424 -3.6234741 -16.614243 -15.314514 -12.989998 -26.11267z" fill-rule="evenodd"/><path fill="#3b4652" d="m296.58105 241.56456l0 0c0 -8.005829 6.48999 -14.495819 14.495819 -14.495819l386.75632 0c3.8445435 0 7.531616 1.5272217 10.250061 4.2457275c2.7185059 2.7184906 4.2457275 6.4055634 4.2457275 10.250092l0 57.98152c0 8.005829 -6.48999 14.495819 -14.495789 14.495819l-386.75632 0l0 0c-8.005829 0 -14.495819 -6.48999 -14.495819 -14.495819z" fill-rule="evenodd"/><path fill="#83909f" d="m277.7413 19.554853l0 0c3.624237 -10.798166 15.316132 -16.6144 26.114563 -12.990922l94.52832 31.719566c5.1855774 1.7400589 9.467407 5.4687614 11.903503 10.365845c2.4360962 4.8970795 2.8269043 10.561394 1.0864868 15.7468605l-26.248322 78.2049c-3.624237 10.798157 -15.316132 16.614395 -26.114563 12.990921l-94.52832 -31.719574c-10.798431 -3.6234741 -16.614243 -15.314529 -12.9900055 -26.112701z" fill-rule="evenodd"/><path fill="#e7f2ff" d="m216.90285 78.69995l0 0c6.406372 -19.090496 27.075806 -29.373463 46.16649 -22.967644l138.26282 46.393654l0 0c9.167664 3.0761795 16.737732 9.668182 21.044891 18.325829c4.307129 8.657646 4.998535 18.67176 1.9220886 27.839333l-105.93707 315.6845c-6.406372 19.090485 -27.075836 29.373444 -46.166504 22.967651l-138.2628 -46.393677c-19.09069 -6.4058228 -29.373352 -27.074646 -22.966988 -46.16516z" fill-rule="evenodd"/><path fill="#83909f" d="m296.58105 218.07832l0 0c0 -14.49971 11.7543335 -26.254044 26.254028 -26.254044l105.013 0l0 0c6.9630127 0 13.640839 2.766037 18.564423 7.689636c4.923584 4.923584 7.689636 11.601395 7.689636 18.564407l0 105.013016c0 14.499695 -11.7543335 26.254028 -26.254059 26.254028l-105.013 0c-14.499695 0 -26.254028 -11.7543335 -26.254028 -26.254028z" fill-rule="evenodd"/><path fill="#3b4652" d="m697.7791 253.47714l0 0c8.005859 0 14.49585 6.48999 14.49585 14.495819l0 455.9579c0 3.8445435 -1.5272217 7.531616 -4.2457275 10.250061c-2.7185059 2.7185059 -6.4055786 4.2457275 -10.250122 4.2457275l-57.981506 0c-8.005859 0 -14.49585 -6.48999 -14.49585 -14.495789l0 -455.9579c0 -8.005829 6.48999 -14.495819 14.49585 -14.495819z" fill-rule="evenodd"/><path fill="#83909f" d="m571.9252 566.59607l0 0c0 -17.833435 14.456787 -32.290222 32.290222 -32.290222l129.15698 0l0 0c8.563904 0 16.777039 3.4019775 22.832642 9.457581c6.055603 6.055603 9.457581 14.268738 9.457581 22.832642l0 178.16357c0 17.833374 -14.456787 32.290222 -32.290222 32.290222l-129.15698 0c-17.833435 0 -32.290222 -14.456848 -32.290222 -32.290222z" fill-rule="evenodd"/><path fill="#e7f2ff" d="m67.95041 723.64026l0 0c0 -15.50354 12.568092 -28.071594 28.071625 -28.071594l671.9542 0c7.4450073 0 14.585144 2.9575195 19.84961 8.221985c5.2644653 5.2644653 8.221985 12.404541 8.221985 19.84961l0 112.28314c0 15.50354 -12.568115 28.071655 -28.071594 28.071655l-671.9542 0c-15.503532 0 -28.071625 -12.568115 -28.071625 -28.071655z" fill-rule="evenodd"/></g></svg>