<svg version="1.1" viewBox="0.0 0.0 864.0 864.0" fill="none" stroke="none" stroke-linecap="square" stroke-miterlimit="10" xmlns:xlink="http://www.w3.org/1999/xlink" xmlns="http://www.w3.org/2000/svg"><clipPath id="g3b77170c992_0_244.0"><path d="m0 0l864.0 0l0 864.0l-864.0 0l0 -864.0z" clip-rule="nonzero"/></clipPath><g clip-path="url(#g3b77170c992_0_244.0)"><path fill="#d1e8ff" d="m108.62992 132.76926l0 0c0 -45.822983 37.146873 -82.96985 82.96986 -82.96985l480.81305 0c22.004944 0 43.108643 8.74144 58.668518 24.301308c15.5598755 15.55986 24.30133 36.663567 24.30133 58.66854l0 331.86945c0 45.822968 -37.14685 82.96982 -82.96985 82.96982l-480.81305 0l0 0c-45.822983 0 -82.96986 -37.14685 -82.96986 -82.96982z" fill-rule="evenodd"/><path fill="#e7f2ff" d="m108.630714 117.67352l0 0c0 -37.48584 30.388283 -67.874115 67.87411 -67.874115l271.4883 0l0 0c18.001343 0 35.26538 7.151001 47.994263 19.879868c12.728851 12.728867 19.879852 29.992912 19.879852 47.994247l0 362.0609c0 37.48584 -30.388275 67.874084 -67.874115 67.874084l-271.4883 0c-37.485825 0 -67.87411 -30.388245 -67.87411 -67.874084z" fill-rule="evenodd"/><path fill="#d1e8ff" d="m0 369.9179l0 0c0 -49.075165 39.78329 -88.85846 88.85847 -88.85846l686.2831 0c23.566711 0 46.168213 9.361847 62.832397 26.026031c16.664185 16.664185 26.026062 39.265686 26.026062 62.832428l0 355.42322c0 49.075195 -39.783264 88.85846 -88.85846 88.85846l-686.2831 0c-49.075176 0 -88.85847 -39.783264 -88.85847 -88.85846z" fill-rule="evenodd"/><path fill="#e7f2ff" d="m0 369.9179l0 0c0 -49.075165 39.78329 -88.85846 88.85847 -88.85846l418.73788 0c23.566742 0 46.168243 9.361847 62.832428 26.026031c16.664185 16.664185 26.026001 39.265686 26.026001 62.832428l0 355.42322c0 49.075195 -39.783264 88.85846 -88.85843 88.85846l-418.73788 0c-49.075176 0 -88.85847 -39.783264 -88.85847 -88.85846z" fill-rule="evenodd"/><path fill="#f3f8fe" d="m61.6168 519.77325l0 0c0 -15.805908 12.813232 -28.61914 28.619156 -28.61914l114.47318 0l0 0c7.590271 0 14.869675 3.0151978 20.236801 8.382355c5.3671265 5.3671265 8.382355 12.646515 8.382355 20.236786l0 181.14404c0 15.805908 -12.813232 28.61914 -28.619156 28.61914l-114.47318 0c-15.805923 0 -28.619156 -12.813232 -28.619156 -28.61914z" fill-rule="evenodd"/><path fill="#f3f8fe" d="m61.6168 351.29434l0 0c0 -11.330505 9.185188 -20.515686 20.515686 -20.515686l130.68011 0c5.441101 0 10.659348 2.1614685 14.506775 6.0088806c3.8474426 3.8474426 6.008911 9.065704 6.008911 14.506805l0 82.06027c0 11.330505 -9.185181 20.515686 -20.515686 20.515686l-130.68011 0c-11.330498 0 -20.515686 -9.185181 -20.515686 -20.515686z" fill-rule="evenodd"/><path fill="#f73d35" d="m375.52756 423.67725l0 0c0 -10.395355 8.4270935 -18.822418 18.822418 -18.822418l75.287445 0l0 0c4.9920044 0 9.779572 1.9830627 13.309448 5.5129395c3.5299072 3.5299072 5.51297 8.317444 5.51297 13.309479l0 247.906c0 10.395325 -8.4270935 18.822449 -18.822418 18.822449l-75.287445 0c-10.395325 0 -18.822418 -8.427124 -18.822418 -18.822449z" fill-rule="evenodd"/><path fill="#f73d35" d="m289.22833 509.97653l0 0c0 -10.395355 8.4270935 -18.822418 18.822449 -18.822418l247.906 0c4.9920044 0 9.779602 1.9830627 13.309448 5.5129395c3.5299072 3.5299072 5.5130005 8.317444 5.5130005 13.309479l0 75.287445c0 10.395325 -8.427124 18.822388 -18.822449 18.822388l-247.906 0l0 0c-10.395355 0 -18.822449 -8.427063 -18.822449 -18.822388z" fill-rule="evenodd"/></g></svg>