<svg version="1.1" viewBox="0.0 0.0 864.0 864.0" fill="none" stroke="none" stroke-linecap="square" stroke-miterlimit="10" xmlns:xlink="http://www.w3.org/1999/xlink" xmlns="http://www.w3.org/2000/svg"><clipPath id="g3b77170c992_0_372.0"><path d="m0 0l864.0 0l0 864.0l-864.0 0l0 -864.0z" clip-rule="nonzero"/></clipPath><g clip-path="url(#g3b77170c992_0_372.0)"><path fill="#227600" d="m388.08618 650.8582l0 0c0 -19.651428 15.930603 -35.58203 35.58203 -35.58203l254.46002 0c9.436951 0 18.487366 3.7487793 25.160278 10.421692c6.6729126 6.6729736 10.421753 15.723389 10.421753 25.16034l0 142.32385c0 19.651367 -15.930603 35.58197 -35.58203 35.58197l-254.46002 0c-19.651428 0 -35.58203 -15.930603 -35.58203 -35.58197z" fill-rule="evenodd"/><path fill="#227600" d="m227.50618 560.0679l0 0c0 -13.458191 10.910019 -24.368164 24.368195 -24.368164l97.4698 0l0 0c6.46286 0 12.66098 2.5673218 17.230927 7.137268c4.569916 4.5699463 7.137268 10.768066 7.137268 17.230896l0 107.43335c0 13.458191 -10.910004 24.368164 -24.368195 24.368164l-97.4698 0l0 0c-13.458176 0 -24.368195 -10.909973 -24.368195 -24.368164z" fill-rule="evenodd"/><path fill="#35ad05" d="m441.27106 665.04156l0 0c0 -15.065735 12.213196 -27.27893 27.27893 -27.27893l109.11249 0l0 0c7.2348022 0 14.173279 2.8740234 19.289062 7.989868c5.1158447 5.1157837 7.989868 12.05426 7.989868 19.289062l0 115.12042c0 15.065735 -12.213196 27.27893 -27.27893 27.27893l-109.11249 0c-15.065735 0 -27.27893 -12.213196 -27.27893 -27.27893z" fill-rule="evenodd"/><path fill="#35ad05" d="m166.2873 663.4929l0 0c0 -14.210449 11.519821 -25.730286 25.730255 -25.730286l102.91797 0l0 0c6.8240967 0 13.368683 2.7108765 18.194061 7.536255c4.825348 4.8253784 7.5362244 11.369934 7.5362244 18.19403l0 109.78424c0 14.210388 -11.519836 25.730225 -25.730286 25.730225l-102.91797 0c-14.210434 0 -25.730255 -11.519836 -25.730255 -25.730225z" fill-rule="evenodd"/><path fill="#3fbe0c" d="m429.43732 676.7363l0 0c0 -8.326355 6.7498474 -15.076172 15.076172 -15.076172l92.73102 0c3.998413 0 7.83313 1.5883789 10.660461 4.4157104c2.8273315 2.8273315 4.4157104 6.6619873 4.4157104 10.660461l0 60.302917c0 8.326355 -6.749878 15.076172 -15.076172 15.076172l-92.73102 0c-8.326324 0 -15.076172 -6.749817 -15.076172 -15.076172z" fill-rule="evenodd"/><path fill="#3fbe0c" d="m273.11975 609.323l0 0c0 -17.051147 13.822693 -30.87378 30.87384 -30.87378l123.49161 0l0 0c8.188263 0 16.041138 3.2527466 21.831116 9.042725c5.7899475 5.789978 9.042725 13.642822 9.042725 21.831055l0 182.63837c0 17.051147 -13.822693 30.87384 -30.87384 30.87384l-123.49161 0c-17.051147 0 -30.87384 -13.822693 -30.87384 -30.87384z" fill-rule="evenodd"/><path fill="#51de18" d="m434.96252 733.16345l0 0c0 -11.641113 9.436951 -21.078064 21.078033 -21.078064l193.64713 0c5.59021 0 10.951477 2.2207031 14.904419 6.173584c3.9528809 3.952942 6.173584 9.314209 6.173584 14.90448l0 84.30963c0 11.641052 -9.436951 21.078064 -21.078003 21.078064l-193.64713 0c-11.641083 0 -21.078033 -9.437012 -21.078033 -21.078064z" fill-rule="evenodd"/><path fill="#3fbe0c" d="m111.717445 728.0068l0 0c0 -13.945923 11.30542 -25.251343 25.251366 -25.251343l198.99564 0c6.6970825 0 13.119843 2.6604004 17.855408 7.395935c4.7355347 4.7355347 7.395935 11.158325 7.395935 17.855408l0 101.00238c0 13.945984 -11.30542 25.251404 -25.251343 25.251404l-198.99564 0c-13.945946 0 -25.251366 -11.30542 -25.251366 -25.251404z" fill-rule="evenodd"/><path fill="#51de18" d="m252.31644 798.6674l0 0c0 -7.216797 5.850403 -13.067261 13.067261 -13.067261l473.83243 0c3.4656372 0 6.7893677 1.37677 9.239929 3.8273315c2.4506226 2.4505615 3.8273315 5.774292 3.8273315 9.239929l0 52.267517c0 7.216858 -5.850403 13.067261 -13.067261 13.067261l-473.83243 0c-7.216858 0 -13.067261 -5.850403 -13.067261 -13.067261z" fill-rule="evenodd"/><path fill="#df91ff" d="m253.53908 11.926618l0 0c0 -6.588255 5.3408356 -11.9290905 11.929092 -11.9290905l365.8757 0c3.1638184 0 6.197998 1.2568114 8.43512 3.49395c2.2371826 2.2371387 3.4939575 5.2713494 3.4939575 8.435141l0 47.714935c0 6.588253 -5.3408203 11.929089 -11.929077 11.929089l-365.8757 0c-6.588257 0 -11.929092 -5.3408356 -11.929092 -11.929089z" fill-rule="evenodd"/><path fill="#df91ff" d="m355.24905 228.3634l0 0c0 -6.588257 5.3408203 -11.929092 11.929077 -11.929092l264.15085 0c3.1638184 0 6.197998 1.2568207 8.43512 3.4939575c2.2371826 2.2371368 3.4939575 5.271347 3.4939575 8.435135l0 47.714935c0 6.588257 -5.3408203 11.929108 -11.929077 11.929108l-264.15085 0c-6.588257 0 -11.929077 -5.340851 -11.929077 -11.929108z" fill-rule="evenodd"/><path fill="#df91ff" d="m547.6853 11.926618l0 0c0 -6.588255 5.3408203 -11.9290905 11.929077 -11.9290905l47.714905 0l0 0c3.1638184 0 6.197998 1.2568114 8.435181 3.49395c2.2371216 2.2371387 3.4939575 5.2713494 3.4939575 8.435141l0 264.15085c0 6.588257 -5.3408813 11.929108 -11.929138 11.929108l-47.714905 0c-6.588257 0 -11.929077 -5.340851 -11.929077 -11.929108z" fill-rule="evenodd"/><path fill="#df91ff" d="m331.24905 228.3634l0 0c0 -6.588257 5.3408203 -11.929092 11.929077 -11.929092l47.714935 0l0 0c3.1637878 0 6.197998 1.2568207 8.43515 3.4939575c2.237152 2.2371368 3.4939575 5.271347 3.4939575 8.435135l0 145.48425c0 6.588257 -5.340851 11.929108 -11.929108 11.929108l-47.714935 0c-6.588257 0 -11.929077 -5.340851 -11.929077 -11.929108z" fill-rule="evenodd"/><path fill="#df91ff" d="m331.2501 424.87296l0 0c0 -6.588257 5.3408203 -11.929077 11.929077 -11.929077l47.714935 0l0 0c3.1637878 0 6.197998 1.2568054 8.43515 3.493927c2.2371216 2.237152 3.4939575 5.2713623 3.4939575 8.43515l0 47.714935c0 6.588257 -5.340851 11.929108 -11.929108 11.929108l-47.714935 0c-6.588257 0 -11.929077 -5.340851 -11.929077 -11.929108z" fill-rule="evenodd"/><path fill="#df91ff" d="m229.53908 11.926586l0 0c0 -6.5882554 5.3408356 -11.929091 11.929092 -11.929091l47.714935 0l0 0c3.1637878 0 6.197998 1.2568113 8.43512 3.49395c2.237152 2.2371383 3.4939575 5.27135 3.4939575 8.435142l0 126.75136c0 6.5882416 -5.3408203 11.929077 -11.929077 11.929077l-47.714935 0c-6.588257 0 -11.929092 -5.3408356 -11.929092 -11.929077z" fill-rule="evenodd"/><path fill="#c841ff" d="m281.97427 11.926618l0 0c0 -6.588255 5.340851 -11.9290905 11.929077 -11.9290905l365.8757 0c3.1638184 0 6.198059 1.2568114 8.435181 3.49395c2.2371216 2.2371387 3.4939575 5.2713494 3.4939575 8.435141l0 47.714935c0 6.588253 -5.3408813 11.929089 -11.929138 11.929089l-365.8757 0c-6.5882263 0 -11.929077 -5.3408356 -11.929077 -11.929089z" fill-rule="evenodd"/><path fill="#c841ff" d="m383.68427 228.3634l0 0c0 -6.588257 5.3408203 -11.929092 11.929077 -11.929092l264.15082 0c3.1638184 0 6.197998 1.2568207 8.435181 3.4939575c2.2371216 2.2371368 3.4939575 5.271347 3.4939575 8.435135l0 47.714935c0 6.588257 -5.3408813 11.929108 -11.929138 11.929108l-264.15082 0c-6.588257 0 -11.929077 -5.340851 -11.929077 -11.929108z" fill-rule="evenodd"/><path fill="#9621c6" d="m600.1205 11.926618l0 0c0 -6.588255 5.3408203 -11.9290905 11.929077 -11.9290905l47.714966 0l0 0c3.1637573 0 6.197998 1.2568114 8.43512 3.49395c2.2371216 2.2371387 3.4939575 5.2713494 3.4939575 8.435141l0 264.15085c0 6.588257 -5.3408203 11.929108 -11.929077 11.929108l-47.714966 0c-6.588257 0 -11.929077 -5.340851 -11.929077 -11.929108z" fill-rule="evenodd"/><path fill="#c841ff" d="m383.68427 228.3634l0 0c0 -6.588257 5.3408203 -11.929092 11.929077 -11.929092l47.714935 0l0 0c3.1637878 0 6.197998 1.2568207 8.43515 3.4939575c2.2371216 2.2371368 3.493927 5.271347 3.493927 8.435135l0 145.48425c0 6.588257 -5.3408203 11.929108 -11.929077 11.929108l-47.714935 0c-6.588257 0 -11.929077 -5.340851 -11.929077 -11.929108z" fill-rule="evenodd"/><path fill="#c841ff" d="m383.68527 424.87296l0 0c0 -6.588257 5.340851 -11.929077 11.929108 -11.929077l47.714935 0l0 0c3.1637878 0 6.197998 1.2568054 8.43515 3.493927c2.2371216 2.237152 3.493927 5.2713623 3.493927 8.43515l0 47.714935c0 6.588257 -5.3408203 11.929108 -11.929077 11.929108l-47.714935 0c-6.588257 0 -11.929108 -5.340851 -11.929108 -11.929108z" fill-rule="evenodd"/><path fill="#c841ff" d="m281.97427 11.926586l0 0c0 -6.5882554 5.340851 -11.929091 11.929077 -11.929091l47.714935 0l0 0c3.1638184 0 6.1980286 1.2568113 8.43515 3.49395c2.237152 2.2371383 3.4939575 5.27135 3.4939575 8.435142l0 126.75136c0 6.5882416 -5.340851 11.929077 -11.929108 11.929077l-47.714935 0c-6.5882263 0 -11.929077 -5.3408356 -11.929077 -11.929077z" fill-rule="evenodd"/><path fill="#9621c6" d="m476.84122 11.928157l0 0c0 -6.5882554 5.340851 -11.929091 11.929108 -11.929091l171.00873 0c3.1638184 0 6.198059 1.2568113 8.435181 3.49395c2.2371216 2.2371383 3.4939575 5.27135 3.4939575 8.435142l0 47.71493c0 6.588257 -5.3408813 11.929092 -11.929138 11.929092l-171.00873 0c-6.588257 0 -11.929108 -5.3408356 -11.929108 -11.929092z" fill-rule="evenodd"/><path fill="#9621c6" d="m525.8133 228.36406l0 0c0 -6.588257 5.3408203 -11.929092 11.929077 -11.929092l122.012146 0c3.1638184 0 6.197998 1.2568207 8.43512 3.4939575c2.2371826 2.2371368 3.4939575 5.271347 3.4939575 8.435135l0 47.71495c0 6.5882263 -5.3408203 11.929077 -11.929077 11.929077l-122.012146 0c-6.588257 0 -11.929077 -5.340851 -11.929077 -11.929077z" fill-rule="evenodd"/></g></svg>