<svg version="1.1" viewBox="0.0 0.0 864.0 864.0" fill="none" stroke="none" stroke-linecap="square" stroke-miterlimit="10" xmlns:xlink="http://www.w3.org/1999/xlink" xmlns="http://www.w3.org/2000/svg"><clipPath id="g3b77170c992_0_344.0"><path d="m0 0l864.0 0l0 864.0l-864.0 0l0 -864.0z" clip-rule="nonzero"/></clipPath><g clip-path="url(#g3b77170c992_0_344.0)"><path fill="#d1e8ff" d="m660.23517 199.04248l0 0c0.8546753 -2.3843994 3.47937 -3.6216583 5.862549 -2.763504l17.259644 6.215164l0 0c1.1444092 0.41209412 2.0789185 1.2621918 2.5979614 2.3632507c0.51904297 1.101059 0.5800171 2.3628845 0.1696167 3.5079193l-231.55072 646.011c-0.8546448 2.3843994 -3.47937 3.621704 -5.8625183 2.7635498l-17.259674 -6.21521c-2.3831177 -0.8581543 -3.622223 -3.4867554 -2.7675781 -5.871155z" fill-rule="evenodd"/><path fill="#e7f2ff" d="m232.7526 201.57613l0 0c-0.72039795 -2.434906 0.6698303 -4.9916534 3.1051483 -5.7106476l17.637619 -5.207306l0 0c1.1694794 -0.34527588 2.428482 -0.21191406 3.500061 0.37075806c1.0715637 0.58265686 1.8679199 1.5668945 2.2138672 2.7361755l194.68256 658.0171c0.72039795 2.4349365 -0.6698303 4.991638 -3.1051636 5.7106323l-17.637604 5.2073364c-2.4353333 0.71899414 -4.9935303 -0.6720581 -5.713928 -3.1069336z" fill-rule="evenodd"/><path fill="#e09300" d="m428.24847 205.3014l0 0c0 -23.77864 19.276398 -43.05504 43.055023 -43.05504l172.215 0l0 0c11.418884 0 22.370117 4.536148 30.444519 12.610535c8.074341 8.074387 12.610535 19.025604 12.610535 30.444504l0 290.10553c0 23.778625 -19.276428 43.055054 -43.055054 43.055054l-172.215 0c-23.778625 0 -43.055023 -19.276428 -43.055023 -43.055054z" fill-rule="evenodd"/><path fill="#fcb630" d="m384.63205 253.18341l0 0c0 -26.835022 21.75409 -48.589096 48.58911 -48.589096l248.38217 0c12.886658 0 25.245483 5.1191864 34.357727 14.231415c9.112183 9.112228 14.231384 21.471054 14.231384 34.35768l0 194.35056c0 26.835022 -21.75409 48.58911 -48.58911 48.58911l-248.38217 0c-26.835022 0 -48.58911 -21.75409 -48.58911 -48.58911z" fill-rule="evenodd"/><path fill="#e03027" d="m166.29408 52.281887l0 0c0 -28.875938 23.40857 -52.28451 52.2845 -52.28451l209.13177 0l0 0c13.866699 0 27.165466 5.5085306 36.970734 15.313778c9.805237 9.805248 15.313782 23.10402 15.313782 36.970734l0 352.1554c0 28.875916 -23.40857 52.284485 -52.284515 52.284485l-209.13177 0c-28.87593 0 -52.2845 -23.40857 -52.2845 -52.284485z" fill-rule="evenodd"/><path fill="#f73d35" d="m113.333336 110.38033l0 0c0 -32.572403 26.405144 -58.977554 58.977562 -58.977554l301.63544 0c15.641815 0 30.643005 6.213688 41.70346 17.274124c11.060425 11.06044 17.274109 26.061615 17.274109 41.70343l0 235.90314c0 32.57242 -26.405151 58.97757 -58.97757 58.97757l-301.63544 0c-32.57242 0 -58.977562 -26.405151 -58.977562 -58.97757z" fill-rule="evenodd"/><path fill="#ffaaa7" d="m157.80986 117.40767l0 0c0 -10.135567 8.216492 -18.352074 18.352066 -18.352074l73.4061 0l0 0c4.867264 0 9.535187 1.9335175 12.976868 5.3751984c3.441681 3.441681 5.3752136 8.109604 5.3752136 12.976875l0 141.37459c0 10.13559 -8.216522 18.352081 -18.352081 18.352081l-73.4061 0c-10.135574 0 -18.352066 -8.216492 -18.352066 -18.352081z" fill-rule="evenodd"/><path fill="#ffaaa7" d="m157.80986 306.2988l0 0c0 -5.6331177 4.5665436 -10.1996765 10.1996765 -10.1996765l89.71089 0c2.7051086 0 5.2994385 1.0746155 7.2122498 2.9874268c1.9128113 1.9128113 2.9874268 4.507141 2.9874268 7.2122498l0 40.797485c0 5.633148 -4.566559 10.1996765 -10.1996765 10.1996765l-89.71089 0c-5.633133 0 -10.1996765 -4.5665283 -10.1996765 -10.1996765z" fill-rule="evenodd"/></g></svg>