<svg version="1.1" viewBox="0.0 0.0 864.0 864.0" fill="none" stroke="none" stroke-linecap="square" stroke-miterlimit="10" xmlns:xlink="http://www.w3.org/1999/xlink" xmlns="http://www.w3.org/2000/svg"><clipPath id="g3b77ef49a04_0_413.0"><path d="m0 0l864.0 0l0 864.0l-864.0 0l0 -864.0z" clip-rule="nonzero"/></clipPath><g clip-path="url(#g3b77ef49a04_0_413.0)"><path fill="#3b4652" d="m481.02454 241.9745l0 0c0 -20.671234 16.757324 -37.428574 37.42859 -37.428574l149.70978 0l0 0c9.926636 0 19.446777 3.9433594 26.466003 10.96257c7.019165 7.019226 10.962524 16.539322 10.962524 26.466003l0 149.7098c0 20.671234 -16.757324 37.42856 -37.428528 37.42856l-149.70978 0c-20.671265 0 -37.42859 -16.757324 -37.42859 -37.42856z" fill-rule="evenodd"/><path fill="#3b4652" d="m453.11154 473.00833l280.37534 0l0 0c17.283264 0 33.858704 6.865753 46.079773 19.086853c12.22113 12.22113 19.086914 28.79654 19.086914 46.079803l0 325.82544c0 0.0018920898 -0.0015258789 0.0034179688 -0.0034179688 0.0034179688l-410.70526 -0.0034179688l0 0c-0.0018920898 0 -0.0034179688 -0.0015258789 -0.0034179688 -0.0034179688l0.0034179688 -325.82202l0 0c0 -35.99057 29.176117 -65.16666 65.16666 -65.16666z" fill-rule="evenodd"/><path fill="#83909f" d="m167.72922 179.80132l0 0c0 -22.735458 18.430725 -41.166183 41.166183 -41.166183l164.65977 0l0 0c10.917938 0 21.388702 4.337143 29.108887 12.057297c7.720154 7.720154 12.0572815 18.190933 12.0572815 29.108887l0 164.65977c0 22.735443 -18.430725 41.16617 -41.16617 41.16617l-164.65977 0c-22.735458 0 -41.166183 -18.430725 -41.166183 -41.16617z" fill-rule="evenodd"/><path fill="#83909f" d="m137.02243 433.92914l308.42758 0l0 0c19.009644 0 37.240723 7.551544 50.682556 20.993408c13.441864 13.4418335 20.993408 31.672913 20.993408 50.682556l0 358.37128c0 0.0020751953 -0.0016479492 0.0037841797 -0.0037841797 0.0037841797l-451.77573 -0.0037841797l0 0c-0.0020828247 0 -0.003768921 -0.0017089844 -0.003768921 -0.0037841797l0.003768921 -358.3675l0 0c0 -39.58554 32.090424 -71.675964 71.67597 -71.675964z" fill-rule="evenodd"/></g></svg>