<svg version="1.1" viewBox="0.0 0.0 288.0 384.0" fill="none" stroke="none" stroke-linecap="square" stroke-miterlimit="10" xmlns:xlink="http://www.w3.org/1999/xlink" xmlns="http://www.w3.org/2000/svg"><clipPath id="g3a6f757e31a_0_2277.0"><path d="m0 0l288.0 0l0 384.0l-288.0 0l0 -384.0z" clip-rule="nonzero"/></clipPath><g clip-path="url(#g3a6f757e31a_0_2277.0)"><path fill="#161d25" d="m0 0l288.0 0l0 384.0l-288.0 0z" fill-rule="evenodd"/><path fill="#3b4652" d="m5.7007875 34.135216l0 0c0 -9.966135 8.079147 -18.045282 18.04528 -18.045282l240.50787 0c4.7858887 0 9.375793 1.9011936 12.759949 5.2853394c3.3841248 3.3841476 5.2853394 7.9740353 5.2853394 12.759943l0 324.2244c0 9.9661255 -8.079163 18.045288 -18.045288 18.045288l-240.50787 0l0 0c-9.966134 0 -18.04528 -8.079163 -18.04528 -18.045288z" fill-rule="evenodd"/><path stroke="#3b4652" stroke-width="4.0" stroke-linejoin="round" stroke-linecap="butt" d="m5.7007875 34.135216l0 0c0 -9.966135 8.079147 -18.045282 18.04528 -18.045282l240.50787 0c4.7858887 0 9.375793 1.9011936 12.759949 5.2853394c3.3841248 3.3841476 5.2853394 7.9740353 5.2853394 12.759943l0 324.2244c0 9.9661255 -8.079163 18.045288 -18.045288 18.045288l-240.50787 0l0 0c-9.966134 0 -18.04528 -8.079163 -18.04528 -18.045288z" fill-rule="evenodd"/><path fill="#29323c" d="m5.7007875 25.639769l0 0c0 -9.966133 8.079147 -18.04528 18.04528 -18.04528l240.50787 0c4.7858887 0 9.375793 1.9011936 12.759949 5.2853403c3.3841248 3.3841467 5.2853394 7.9740343 5.2853394 12.75994l0 324.2244c0 9.9661255 -8.079163 18.045288 -18.045288 18.045288l-240.50787 0l0 0c-9.966134 0 -18.04528 -8.079163 -18.04528 -18.045288z" fill-rule="evenodd"/><path stroke="#3b4652" stroke-width="4.0" stroke-linejoin="round" stroke-linecap="butt" d="m5.7007875 25.639769l0 0c0 -9.966133 8.079147 -18.04528 18.04528 -18.04528l240.50787 0c4.7858887 0 9.375793 1.9011936 12.759949 5.2853403c3.3841248 3.3841467 5.2853394 7.9740343 5.2853394 12.75994l0 324.2244c0 9.9661255 -8.079163 18.045288 -18.045288 18.045288l-240.50787 0l0 0c-9.966134 0 -18.04528 -8.079163 -18.04528 -18.045288z" fill-rule="evenodd"/><path fill="#3b4652" d="m135.5472 91.67587l0 0c0 -2.7153015 2.2011871 -4.9164886 4.9164886 -4.9164886l23.071182 0c1.3039398 0 2.5544739 0.5179825 3.4764862 1.4400101c0.9220276 0.92201996 1.4400177 2.1725464 1.4400177 3.4764786l0 19.665382c0 2.7153015 -2.2011871 4.9164886 -4.916504 4.9164886l-23.071182 0c-2.7153015 0 -4.9164886 -2.2011871 -4.9164886 -4.9164886z" fill-rule="evenodd"/><path fill="#3b4652" d="m143.27615 87.345406l0 0c0 -0.32364655 0.26235962 -0.5860214 0.5860138 -0.5860214l2.3440247 0l0 0c0.15542603 0 0.30448914 0.06174469 0.41438293 0.17163849c0.10990906 0.10990143 0.17164612 0.25896454 0.17164612 0.41438293l0 15.081795c0 0.32365417 -0.26237488 0.58602905 -0.58602905 0.58602905l-2.3440247 0c-0.32365417 0 -0.5860138 -0.26237488 -0.5860138 -0.58602905z" fill-rule="evenodd"/><path fill="#3b4652" d="m150.24052 87.345406l0 0c0 -0.32364655 0.26237488 -0.5860214 0.58602905 -0.5860214l2.3440247 0l0 0c0.15541077 0 0.30447388 0.06174469 0.41438293 0.17163849c0.1098938 0.10990143 0.17163086 0.25896454 0.17163086 0.41438293l0 15.081795c0 0.32365417 -0.26235962 0.58602905 -0.5860138 0.58602905l-2.3440247 0c-0.32365417 0 -0.58602905 -0.26237488 -0.58602905 -0.58602905z" fill-rule="evenodd"/><path fill="#3b4652" d="m157.20634 87.345406l0 0c0 -0.32364655 0.26235962 -0.5860214 0.5860138 -0.5860214l2.3440247 0l0 0c0.15542603 0 0.30448914 0.06174469 0.41438293 0.17163849c0.10990906 0.10990143 0.17164612 0.25896454 0.17164612 0.41438293l0 15.081795c0 0.32365417 -0.26237488 0.58602905 -0.58602905 0.58602905l-2.3440247 0c-0.32365417 0 -0.5860138 -0.26237488 -0.5860138 -0.58602905z" fill-rule="evenodd"/><path fill="#3b4652" d="m164.17094 87.345406l0 0c0 -0.32364655 0.26235962 -0.5860214 0.5860138 -0.5860214l2.3440247 0l0 0c0.15542603 0 0.30448914 0.06174469 0.41438293 0.17163849c0.10990906 0.10990143 0.17164612 0.25896454 0.17164612 0.41438293l0 15.081795c0 0.32365417 -0.26237488 0.58602905 -0.58602905 0.58602905l-2.3440247 0c-0.32365417 0 -0.5860138 -0.26237488 -0.5860138 -0.58602905z" fill-rule="evenodd"/><path fill="#3b4652" d="m136.31033 87.345406l0 0c0 -0.32364655 0.26237488 -0.5860214 0.58602905 -0.5860214l2.3440247 0l0 0c0.15542603 0 0.30447388 0.06174469 0.41438293 0.17163849c0.1098938 0.10990143 0.17163086 0.25896454 0.17163086 0.41438293l0 15.081795c0 0.32365417 -0.26235962 0.58602905 -0.5860138 0.58602905l-2.3440247 0c-0.32365417 0 -0.58602905 -0.26237488 -0.58602905 -0.58602905z" fill-rule="evenodd"/><path fill="#3b4652" d="m129.15353 107.92829l0 0c0 -3.6187897 2.933609 -6.5524063 6.552414 -6.5524063l32.58667 0c1.7378082 0 3.4044342 0.69033813 4.633255 1.9191589c1.2288055 1.2288132 1.9191589 2.8954391 1.9191589 4.6332474l0 26.20884c0 3.6187897 -2.9336243 6.552414 -6.552414 6.552414l-32.58667 0c-3.618805 0 -6.552414 -2.9336243 -6.552414 -6.552414z" fill-rule="evenodd"/><path fill="#3b4652" d="m122.18261 112.37229l0 0c0 -3.6187897 2.933609 -6.5524063 6.5524063 -6.5524063l46.528534 0c1.7378082 0 3.4044342 0.69033813 4.6332397 1.9191589c1.2288208 1.2288132 1.9191589 2.8954391 1.9191589 4.6332474l0 26.20884c0 3.6187897 -2.933609 6.552414 -6.5523987 6.552414l-46.528534 0c-3.6187973 0 -6.5524063 -2.9336243 -6.5524063 -6.552414z" fill-rule="evenodd"/><path fill="#3b4652" d="m129.15353 106.35855l0 0c0 -2.7518463 2.2308197 -4.982666 4.982666 -4.982666l19.930054 0l0 0c1.3214874 0 2.588852 0.52495575 3.523285 1.4593887c0.934433 0.934433 1.4593811 2.2017899 1.4593811 3.5232773l0 29.348328c0 2.7518463 -2.2308044 4.982666 -4.982666 4.982666l-19.930054 0c-2.7518463 0 -4.982666 -2.2308197 -4.982666 -4.982666z" fill-rule="evenodd"/><path fill="#3b4652" d="m122.18261 112.37229l0 0c0 -3.6187897 2.933609 -6.5524063 6.5524063 -6.5524063l29.630371 0c1.7378082 0 3.4044342 0.69033813 4.633255 1.9191589c1.2288208 1.2288132 1.9191589 2.8954391 1.9191589 4.6332474l0 26.20884c0 3.6187897 -2.933609 6.552414 -6.552414 6.552414l-29.630371 0c-3.6187973 0 -6.5524063 -2.9336243 -6.5524063 -6.552414z" fill-rule="evenodd"/><path fill="#3b4652" d="m114.144615 233.66083l0 0c0 -3.4883423 2.8278656 -6.316208 6.316208 -6.316208l63.076912 0c1.6751709 0 3.281723 0.6654663 4.4662323 1.8499756c1.1845245 1.1845245 1.8499756 2.7910767 1.8499756 4.4662323l0 25.264069c0 3.4883423 -2.8278656 6.3161926 -6.316208 6.3161926l-63.076912 0c-3.4883423 0 -6.316208 -2.8278503 -6.316208 -6.3161926z" fill-rule="evenodd"/><path fill="#3b4652" d="m118.71901 220.86237l0 0c0 -0.71507263 0.57967377 -1.2947388 1.2947388 -1.2947388l63.97107 0c0.3433838 0 0.672699 0.13639832 0.9155121 0.37921143c0.24281311 0.24281311 0.37921143 0.5721283 0.37921143 0.91552734l0 5.178772c0 0.71507263 -0.57966614 1.2947388 -1.2947235 1.2947388l-63.97107 0c-0.715065 0 -1.2947388 -0.57966614 -1.2947388 -1.2947388z" fill-rule="evenodd"/><path fill="#3b4652" d="m118.71901 175.18889l0 0c0 -0.7150574 0.57967377 -1.2947388 1.2947388 -1.2947388l63.97107 0c0.3433838 0 0.672699 0.13641357 0.9155121 0.37922668c0.24281311 0.24279785 0.37921143 0.5721283 0.37921143 0.9155121l0 5.178787c0 0.7150574 -0.57966614 1.2947235 -1.2947235 1.2947235l-63.97107 0c-0.715065 0 -1.2947388 -0.57966614 -1.2947388 -1.2947235z" fill-rule="evenodd"/><path fill="#3b4652" d="m118.71901 129.51541l0 0c0 -0.7150574 0.57967377 -1.2947388 1.2947388 -1.2947388l63.97107 0c0.3433838 0 0.672699 0.13641357 0.9155121 0.37922668c0.24281311 0.24281311 0.37921143 0.5721283 0.37921143 0.9155121l0 5.178787c0 0.7150574 -0.57966614 1.2947388 -1.2947235 1.2947388l-63.97107 0c-0.715065 0 -1.2947388 -0.5796814 -1.2947388 -1.2947388z" fill-rule="evenodd"/><path fill="#3b4652" d="m114.144615 233.65645l0 0c0 -3.4883423 2.8278656 -6.3161926 6.316208 -6.3161926l47.000923 0c1.6751709 0 3.281723 0.66545105 4.4662323 1.8499603c1.1845245 1.1845245 1.8499756 2.7910767 1.8499756 4.4662323l0 25.264084c0 3.4883423 -2.8278503 6.3161926 -6.316208 6.3161926l-47.000923 0c-3.4883423 0 -6.316208 -2.8278503 -6.316208 -6.3161926z" fill-rule="evenodd"/><path fill="#3b4652" d="m118.71901 220.86237l0 0c0 -0.71507263 0.57967377 -1.2947388 1.2947388 -1.2947388l47.142883 0c0.3433838 0 0.672699 0.13639832 0.9155121 0.37921143c0.24281311 0.24281311 0.37922668 0.5721283 0.37922668 0.91552734l0 5.178772c0 0.71507263 -0.5796814 1.2947388 -1.2947388 1.2947388l-47.142883 0c-0.715065 0 -1.2947388 -0.57966614 -1.2947388 -1.2947388z" fill-rule="evenodd"/><path fill="#3b4652" d="m118.71901 175.18889l0 0c0 -0.7150574 0.57967377 -1.2947388 1.2947388 -1.2947388l47.142883 0c0.3433838 0 0.672699 0.13641357 0.9155121 0.37922668c0.24281311 0.24279785 0.37922668 0.5721283 0.37922668 0.9155121l0 5.178787c0 0.7150574 -0.5796814 1.2947235 -1.2947388 1.2947235l-47.142883 0c-0.715065 0 -1.2947388 -0.57966614 -1.2947388 -1.2947235z" fill-rule="evenodd"/><path fill="#3b4652" d="m118.71901 129.51541l0 0c0 -0.7150574 0.57967377 -1.2947388 1.2947388 -1.2947388l47.142883 0c0.3433838 0 0.672699 0.13641357 0.9155121 0.37922668c0.24281311 0.24281311 0.37922668 0.5721283 0.37922668 0.9155121l0 5.178787c0 0.7150574 -0.5796814 1.2947388 -1.2947388 1.2947388l-47.142883 0c-0.715065 0 -1.2947388 -0.5796814 -1.2947388 -1.2947388z" fill-rule="evenodd"/><path fill="#3b4652" d="m125.609764 109.908165l0 0c0 -0.840683 0.6815033 -1.5221863 1.5221863 -1.5221863l15.410652 0c0.40370178 0 0.7908783 0.16036987 1.0763397 0.44583893c0.28547668 0.28546143 0.44584656 0.67263794 0.44584656 1.0763474l0 6.0885696c0 0.84067535 -0.6815033 1.5221863 -1.5221863 1.5221863l-15.410652 0c-0.840683 0 -1.5221863 -0.6815109 -1.5221863 -1.5221863z" fill-rule="evenodd"/><path fill="#3b4652" d="m120.17092 234.22482l0 0c0 -1.072403 0.86935425 -1.941742 1.9417572 -1.941742l7.766777 0l0 0c0.51498413 0 1.0088806 0.20457458 1.3730164 0.5687256c0.364151 0.36413574 0.56874084 0.8580322 0.56874084 1.3730164l0 17.829117c0 1.072403 -0.86935425 1.941742 -1.9417572 1.941742l-7.766777 0c-1.072403 0 -1.9417572 -0.869339 -1.9417572 -1.941742z" fill-rule="evenodd"/><path fill="#3b4652" d="m114.144615 187.98299l0 0c0 -3.4883423 2.8278656 -6.316208 6.316208 -6.316208l63.076912 0c1.6751709 0 3.281723 0.66545105 4.4662323 1.8499756c1.1845245 1.1845093 1.8499756 2.7910614 1.8499756 4.4662323l0 25.264053c0 3.4883423 -2.8278656 6.316208 -6.316208 6.316208l-63.076912 0c-3.4883423 0 -6.316208 -2.8278656 -6.316208 -6.316208z" fill-rule="evenodd"/><path fill="#3b4652" d="m114.144615 187.9786l0 0c0 -3.4883423 2.8278656 -6.316208 6.316208 -6.316208l47.000923 0c1.6751709 0 3.281723 0.6654663 4.4662323 1.8499756c1.1845245 1.1845245 1.8499756 2.7910767 1.8499756 4.4662323l0 25.264069c0 3.4883423 -2.8278503 6.3161926 -6.316208 6.3161926l-47.000923 0c-3.4883423 0 -6.316208 -2.8278503 -6.316208 -6.3161926z" fill-rule="evenodd"/><path fill="#3b4652" d="m120.17092 188.54698l0 0c0 -1.072403 0.86935425 -1.9417572 1.9417572 -1.9417572l7.766777 0l0 0c0.51498413 0 1.0088806 0.20457458 1.3730164 0.5687256c0.364151 0.364151 0.56874084 0.8580475 0.56874084 1.3730316l0 17.829102c0 1.072403 -0.86935425 1.9417572 -1.9417572 1.9417572l-7.766777 0c-1.072403 0 -1.9417572 -0.86935425 -1.9417572 -1.9417572z" fill-rule="evenodd"/><path fill="#3b4652" d="m114.144615 142.30077l0 0c0 -3.4883423 2.8278656 -6.316208 6.316208 -6.316208l63.076912 0c1.6751709 0 3.281723 0.66545105 4.4662323 1.8499756c1.1845245 1.1845093 1.8499756 2.7910614 1.8499756 4.4662323l0 25.264053c0 3.4883423 -2.8278656 6.316208 -6.316208 6.316208l-63.076912 0c-3.4883423 0 -6.316208 -2.8278656 -6.316208 -6.316208z" fill-rule="evenodd"/><path fill="#3b4652" d="m114.144615 142.29639l0 0c0 -3.4883423 2.8278656 -6.316208 6.316208 -6.316208l47.000923 0c1.6751709 0 3.281723 0.6654663 4.4662323 1.8499756c1.1845245 1.1845245 1.8499756 2.7910767 1.8499756 4.4662323l0 25.264069c0 3.4883423 -2.8278503 6.3161926 -6.316208 6.3161926l-47.000923 0c-3.4883423 0 -6.316208 -2.8278503 -6.316208 -6.3161926z" fill-rule="evenodd"/><path fill="#3b4652" d="m120.17092 142.86476l0 0c0 -1.072403 0.86935425 -1.9417572 1.9417572 -1.9417572l7.766777 0l0 0c0.51498413 0 1.0088806 0.20457458 1.3730164 0.5687256c0.364151 0.364151 0.56874084 0.8580475 0.56874084 1.3730316l0 17.829102c0 1.072403 -0.86935425 1.9417572 -1.9417572 1.9417572l-7.766777 0c-1.072403 0 -1.9417572 -0.86935425 -1.9417572 -1.9417572z" fill-rule="evenodd"/><path fill="#f3f8fe" d="m119.517746 75.665146l0 0c0 -2.7153091 2.2011871 -4.9164963 4.9164963 -4.9164963l23.07119 0c1.3039246 0 2.5544586 0.5179901 3.476471 1.4400101c0.9220276 0.92201996 1.4400177 2.1725464 1.4400177 3.4764862l0 19.665375c0 2.7153015 -2.2011871 4.9164963 -4.9164886 4.9164963l-23.07119 0c-2.7153091 0 -4.9164963 -2.2011948 -4.9164963 -4.9164963z" fill-rule="evenodd"/><path fill="#e7f2ff" d="m127.2467 71.33468l0 0c0 -0.32365417 0.26237488 -0.58602905 0.58602905 -0.58602905l2.3440323 0l0 0c0.15541077 0 0.30447388 0.06174469 0.41436768 0.17164612c0.10990906 0.10990143 0.17164612 0.2589569 0.17164612 0.41438293l0 15.081795c0 0.32364655 -0.26237488 0.5860214 -0.5860138 0.5860214l-2.3440323 0c-0.32365417 0 -0.58602905 -0.26237488 -0.58602905 -0.5860214z" fill-rule="evenodd"/><path fill="#e7f2ff" d="m134.21107 71.33468l0 0c0 -0.32365417 0.26237488 -0.58602905 0.58602905 -0.58602905l2.3440247 0l0 0c0.15542603 0 0.30447388 0.06174469 0.41438293 0.17164612c0.1098938 0.10990143 0.17163086 0.2589569 0.17163086 0.41438293l0 15.081795c0 0.32364655 -0.26235962 0.5860214 -0.5860138 0.5860214l-2.3440247 0c-0.32365417 0 -0.58602905 -0.26237488 -0.58602905 -0.5860214z" fill-rule="evenodd"/><path fill="#e7f2ff" d="m141.1769 71.33468l0 0c0 -0.32365417 0.26235962 -0.58602905 0.5860138 -0.58602905l2.34404 0l0 0c0.15541077 0 0.30447388 0.06174469 0.41436768 0.17164612c0.10990906 0.10990143 0.17164612 0.2589569 0.17164612 0.41438293l0 15.081795c0 0.32364655 -0.26237488 0.5860214 -0.5860138 0.5860214l-2.34404 0c-0.32365417 0 -0.5860138 -0.26237488 -0.5860138 -0.5860214z" fill-rule="evenodd"/><path fill="#e7f2ff" d="m148.1415 71.33468l0 0c0 -0.32365417 0.26237488 -0.58602905 0.5860138 -0.58602905l2.34404 0l0 0c0.15541077 0 0.30447388 0.06174469 0.41438293 0.17164612c0.1098938 0.10990143 0.17163086 0.2589569 0.17163086 0.41438293l0 15.081795c0 0.32364655 -0.26237488 0.5860214 -0.5860138 0.5860214l-2.34404 0c-0.32363892 0 -0.5860138 -0.26237488 -0.5860138 -0.5860214z" fill-rule="evenodd"/><path fill="#e7f2ff" d="m120.28088 71.33468l0 0c0 -0.32365417 0.26237488 -0.58602905 0.5860214 -0.58602905l2.3440323 0l0 0c0.1554184 0 0.3044815 0.06174469 0.4143753 0.17164612c0.10990143 0.10990143 0.17164612 0.2589569 0.17164612 0.41438293l0 15.081795c0 0.32364655 -0.26237488 0.5860214 -0.5860214 0.5860214l-2.3440323 0c-0.32364655 0 -0.5860214 -0.26237488 -0.5860214 -0.5860214z" fill-rule="evenodd"/><path fill="#ffc860" d="m113.124084 91.917564l0 0c0 -3.6187973 2.9336166 -6.5524063 6.5524063 -6.5524063l32.586678 0c1.7378082 0 3.4044342 0.69033813 4.633255 1.9191513c1.2288208 1.2288132 1.9191589 2.8954468 1.9191589 4.633255l0 26.20884c0 3.6187897 -2.9336243 6.5524063 -6.552414 6.5524063l-32.586678 0c-3.6187897 0 -6.5524063 -2.9336166 -6.5524063 -6.5524063z" fill-rule="evenodd"/><path fill="#ffd992" d="m106.15316 96.361565l0 0c0 -3.6187973 2.9336166 -6.5524063 6.5524063 -6.5524063l46.528534 0c1.7378082 0 3.4044342 0.69033813 4.633255 1.9191513c1.2288055 1.2288132 1.9191437 2.8954468 1.9191437 4.633255l0 26.20884c0 3.6187897 -2.933609 6.5523987 -6.5523987 6.5523987l-46.528534 0c-3.6187897 0 -6.5524063 -2.933609 -6.5524063 -6.5523987z" fill-rule="evenodd"/><path fill="#ffd992" d="m113.124084 90.34782l0 0c0 -2.7518463 2.2308197 -4.9826584 4.982666 -4.9826584l19.930069 0l0 0c1.3214722 0 2.5888367 0.52495575 3.5232697 1.4593887c0.934433 0.93442535 1.4593811 2.2017899 1.4593811 3.5232697l0 29.348328c0 2.7518463 -2.2308044 4.982666 -4.9826508 4.982666l-19.930069 0c-2.7518463 0 -4.982666 -2.2308197 -4.982666 -4.982666z" fill-rule="evenodd"/><path fill="#ffc860" d="m106.15316 96.361565l0 0c0 -3.6187973 2.9336166 -6.5524063 6.5524063 -6.5524063l29.630371 0c1.7378082 0 3.4044342 0.69033813 4.633255 1.9191513c1.2288208 1.2288132 1.9191589 2.8954468 1.9191589 4.633255l0 26.20884c0 3.6187897 -2.933609 6.5523987 -6.552414 6.5523987l-29.630371 0c-3.6187897 0 -6.5524063 -2.933609 -6.5524063 -6.5523987z" fill-rule="evenodd"/><path fill="#ffd992" d="m98.115166 217.6501l0 0c0 -3.4883423 2.8278656 -6.316208 6.316208 -6.316208l63.076912 0c1.6751709 0 3.281723 0.66545105 4.4662323 1.8499756c1.1845245 1.1845093 1.8499756 2.7910614 1.8499756 4.4662323l0 25.264053c0 3.4883423 -2.8278503 6.316208 -6.316208 6.316208l-63.076912 0c-3.4883423 0 -6.316208 -2.8278656 -6.316208 -6.316208z" fill-rule="evenodd"/><path fill="#ffc860" d="m102.68957 204.85162l0 0c0 -0.7150574 0.57966614 -1.2947388 1.2947311 -1.2947388l63.97107 0c0.3433838 0 0.672699 0.13641357 0.9155121 0.37922668c0.24281311 0.24281311 0.37922668 0.5721283 0.37922668 0.9155121l0 5.178787c0 0.7150574 -0.5796814 1.2947388 -1.2947388 1.2947388l-63.97107 0c-0.715065 0 -1.2947311 -0.5796814 -1.2947311 -1.2947388z" fill-rule="evenodd"/><path fill="#ffc860" d="m102.68957 159.17816l0 0c0 -0.71507263 0.57966614 -1.2947388 1.2947311 -1.2947388l63.97107 0c0.3433838 0 0.672699 0.13641357 0.9155121 0.37921143c0.24281311 0.24281311 0.37922668 0.5721283 0.37922668 0.91552734l0 5.178772c0 0.71507263 -0.5796814 1.2947388 -1.2947388 1.2947388l-63.97107 0c-0.715065 0 -1.2947311 -0.57966614 -1.2947311 -1.2947388z" fill-rule="evenodd"/><path fill="#ffc860" d="m102.68957 113.504684l0 0c0 -0.715065 0.57966614 -1.2947388 1.2947311 -1.2947388l63.97107 0c0.3433838 0 0.672699 0.13641357 0.9155121 0.37921906c0.24281311 0.24281311 0.37922668 0.5721359 0.37922668 0.9155197l0 5.1787796c0 0.715065 -0.5796814 1.2947388 -1.2947388 1.2947388l-63.97107 0c-0.715065 0 -1.2947311 -0.57967377 -1.2947311 -1.2947388z" fill-rule="evenodd"/><path fill="#ffc860" d="m98.115166 217.64572l0 0c0 -3.4883423 2.8278656 -6.316208 6.316208 -6.316208l47.00094 0c1.6751556 0 3.2817078 0.6654663 4.466217 1.8499756c1.1845245 1.1845245 1.8499756 2.7910767 1.8499756 4.4662323l0 25.264069c0 3.4883423 -2.8278503 6.316208 -6.3161926 6.316208l-47.00094 0c-3.4883423 0 -6.316208 -2.8278656 -6.316208 -6.316208z" fill-rule="evenodd"/><path fill="#fcb630" d="m102.68957 204.85162l0 0c0 -0.7150574 0.57966614 -1.2947388 1.2947311 -1.2947388l47.142883 0c0.3433838 0 0.67271423 0.13641357 0.9155121 0.37922668c0.24281311 0.24281311 0.37922668 0.5721283 0.37922668 0.9155121l0 5.178787c0 0.7150574 -0.5796814 1.2947388 -1.2947388 1.2947388l-47.142883 0c-0.715065 0 -1.2947311 -0.5796814 -1.2947311 -1.2947388z" fill-rule="evenodd"/><path fill="#fcb630" d="m102.68957 159.17816l0 0c0 -0.71507263 0.57966614 -1.2947388 1.2947311 -1.2947388l47.142883 0c0.3433838 0 0.67271423 0.13641357 0.9155121 0.37921143c0.24281311 0.24281311 0.37922668 0.5721283 0.37922668 0.91552734l0 5.178772c0 0.71507263 -0.5796814 1.2947388 -1.2947388 1.2947388l-47.142883 0c-0.715065 0 -1.2947311 -0.57966614 -1.2947311 -1.2947388z" fill-rule="evenodd"/><path fill="#fcb630" d="m102.68957 113.504684l0 0c0 -0.715065 0.57966614 -1.2947388 1.2947311 -1.2947388l47.142883 0c0.3433838 0 0.67271423 0.13641357 0.9155121 0.37921906c0.24281311 0.24281311 0.37922668 0.5721359 0.37922668 0.9155197l0 5.1787796c0 0.715065 -0.5796814 1.2947388 -1.2947388 1.2947388l-47.142883 0c-0.715065 0 -1.2947311 -0.57967377 -1.2947311 -1.2947388z" fill-rule="evenodd"/><path fill="#ffd992" d="m109.580315 93.89743l0 0c0 -0.840683 0.6815109 -1.5221863 1.5221863 -1.5221863l15.410652 0c0.4037094 0 0.7908783 0.16036987 1.0763474 0.44583893c0.28546906 0.28546143 0.44583893 0.67263794 0.44583893 1.0763474l0 6.0885696c0 0.840683 -0.6815109 1.5221863 -1.5221863 1.5221863l-15.410652 0c-0.84067535 0 -1.5221863 -0.6815033 -1.5221863 -1.5221863z" fill-rule="evenodd"/><path fill="#ffd992" d="m104.14148 218.2141l0 0c0 -1.072403 0.8693466 -1.9417572 1.9417496 -1.9417572l7.766777 0l0 0c0.51498413 0 1.008873 0.20457458 1.373024 0.5687256c0.364151 0.364151 0.5687256 0.8580475 0.5687256 1.3730316l0 17.829102c0 1.072403 -0.86935425 1.9417572 -1.9417496 1.9417572l-7.766777 0c-1.072403 0 -1.9417496 -0.86935425 -1.9417496 -1.9417572z" fill-rule="evenodd"/><path fill="#ffd992" d="m98.115166 171.97224l0 0c0 -3.4883423 2.8278656 -6.3161926 6.316208 -6.3161926l63.076912 0c1.6751709 0 3.281723 0.66545105 4.4662323 1.8499603c1.1845245 1.1845245 1.8499756 2.7910767 1.8499756 4.4662323l0 25.264069c0 3.4883423 -2.8278503 6.316208 -6.316208 6.316208l-63.076912 0c-3.4883423 0 -6.316208 -2.8278656 -6.316208 -6.316208z" fill-rule="evenodd"/><path fill="#ffc860" d="m98.115166 171.96788l0 0c0 -3.4883423 2.8278656 -6.316208 6.316208 -6.316208l47.00094 0c1.6751556 0 3.2817078 0.66545105 4.466217 1.8499756c1.1845245 1.1845093 1.8499756 2.7910614 1.8499756 4.4662323l0 25.264053c0 3.4883423 -2.8278503 6.316208 -6.3161926 6.316208l-47.00094 0c-3.4883423 0 -6.316208 -2.8278656 -6.316208 -6.316208z" fill-rule="evenodd"/><path fill="#ffd992" d="m104.14148 172.53625l0 0c0 -1.072403 0.8693466 -1.9417572 1.9417496 -1.9417572l7.766777 0l0 0c0.51498413 0 1.008873 0.20457458 1.373024 0.5687256c0.364151 0.364151 0.5687256 0.8580475 0.5687256 1.3730316l0 17.829102c0 1.072403 -0.86935425 1.9417572 -1.9417496 1.9417572l-7.766777 0c-1.072403 0 -1.9417496 -0.86935425 -1.9417496 -1.9417572z" fill-rule="evenodd"/><path fill="#f3f8fe" d="m98.115166 126.29003l0 0c0 -3.4883423 2.8278656 -6.316208 6.316208 -6.316208l63.076912 0c1.6751709 0 3.281723 0.6654587 4.4662323 1.8499756c1.1845245 1.1845169 1.8499756 2.791069 1.8499756 4.4662323l0 25.264061c0 3.4883423 -2.8278503 6.316208 -6.316208 6.316208l-63.076912 0c-3.4883423 0 -6.316208 -2.8278656 -6.316208 -6.316208z" fill-rule="evenodd"/><path fill="#e7f2ff" d="m98.115166 126.28566l0 0c0 -3.48835 2.8278656 -6.316208 6.316208 -6.316208l47.00094 0c1.6751556 0 3.2817078 0.66545105 4.466217 1.8499756c1.1845245 1.1845169 1.8499756 2.791069 1.8499756 4.4662323l0 25.264053c0 3.4883423 -2.8278503 6.316208 -6.3161926 6.316208l-47.00094 0c-3.4883423 0 -6.316208 -2.8278656 -6.316208 -6.316208z" fill-rule="evenodd"/><path fill="#f3f8fe" d="m104.14148 126.85403l0 0c0 -1.0723953 0.8693466 -1.9417496 1.9417496 -1.9417496l7.766777 0l0 0c0.51498413 0 1.008873 0.20457458 1.373024 0.5687256c0.364151 0.364151 0.5687256 0.85803986 0.5687256 1.373024l0 17.82911c0 1.072403 -0.86935425 1.9417572 -1.9417496 1.9417572l-7.766777 0c-1.072403 0 -1.9417496 -0.86935425 -1.9417496 -1.9417572z" fill-rule="evenodd"/><path fill="#000000" fill-opacity="0.0" d="m21.700787 315.7533l266.29922 0l0 38.771637l-266.29922 0z" fill-rule="evenodd"/><path fill="#ffffff" d="m38.419537 340.36328q-2.140625 0 -3.75 -0.78125q-1.59375 -0.78125 -2.484375 -2.1875q-0.890625 -1.40625 -0.890625 -3.28125q0 -1.875 0.890625 -3.28125q0.890625 -1.40625 2.484375 -2.1875q1.609375 -0.78125 3.75 -0.78125q2.140625 0 3.734375 0.78125q1.609375 0.78125 2.5 2.1875q0.890625 1.40625 0.890625 3.28125q0 1.875 -0.890625 3.28125q-0.890625 1.40625 -2.5 2.1875q-1.59375 0.78125 -3.734375 0.78125zm0 -2.953125q1.15625 0 2.0 -0.390625q0.859375 -0.40625 1.3125 -1.140625q0.453125 -0.734375 0.453125 -1.765625q0 -1.03125 -0.453125 -1.765625q-0.453125 -0.734375 -1.3125 -1.125q-0.84375 -0.40625 -2.0 -0.40625q-1.15625 0 -2.015625 0.40625q-0.84375 0.390625 -1.3125 1.125q-0.453125 0.734375 -0.453125 1.765625q0 1.03125 0.453125 1.765625q0.46875 0.734375 1.3125 1.140625q0.859375 0.390625 2.015625 0.390625zm8.110031 -6.4375l3.328125 0l0.546875 3.265625l0 5.875l-3.265625 0l0 -6.0625l-0.609375 -3.078125zm8.15625 -0.140625l0 2.78125q-0.484375 -0.09375 -0.90625 -0.125q-0.421875 -0.046875 -0.78125 -0.046875q-0.703125 0 -1.296875 0.28125q-0.578125 0.28125 -0.9375 0.921875q-0.359375 0.640625 -0.359375 1.703125l-0.625 -0.765625q0.125 -0.984375 0.375 -1.859375q0.265625 -0.875 0.703125 -1.546875q0.4375 -0.6875 1.09375 -1.078125q0.65625 -0.390625 1.59375 -0.390625q0.28125 0 0.5625 0.03125q0.296875 0.03125 0.578125 0.09375zm9.155273 9.28125l-0.421875 -3.296875l0.4375 -1.265625l-0.4375 -1.265625l0.421875 -3.3125l3.3906288 0l-0.578125 4.5625l0.578125 4.578125l-3.3906288 0zm0.7656288 -4.5625q-0.21875 1.4375 -0.8906288 2.53125q-0.65625 1.09375 -1.671875 1.6875q-1.015625 0.59375 -2.3125 0.59375q-1.34375 0 -2.375 -0.59375q-1.015625 -0.59375 -1.59375 -1.6875q-0.5625 -1.109375 -0.5625 -2.53125q0 -1.453125 0.5625 -2.53125q0.578125 -1.09375 1.59375 -1.703125q1.03125 -0.609375 2.375 -0.609375q1.296875 0 2.3125 0.609375q1.015625 0.59375 1.6875 1.671875q0.6718788 1.078125 0.8750038 2.5625zm-6.093754 0q0 0.671875 0.28125 1.203125q0.28125 0.53125 0.765625 0.828125q0.5 0.296875 1.140625 0.296875q0.671875 0 1.265625 -0.296875q0.59375 -0.296875 1.03125 -0.828125q0.453125 -0.53125 0.671875 -1.203125q-0.21875 -0.6875 -0.671875 -1.203125q-0.4375 -0.53125 -1.03125 -0.828125q-0.59375 -0.3125 -1.265625 -0.3125q-0.640625 0 -1.140625 0.3125q-0.484375 0.296875 -0.765625 0.828125q-0.28125 0.515625 -0.28125 1.203125zm9.856663 -4.578125l3.28125 0l0.59375 3.65625l0 5.484375l-3.265625 0l0 -5.984375l-0.609375 -3.15625zm7.234375 -0.265625q1.3125 0 2.234375 0.53125q0.921875 0.515625 1.40625 1.484375q0.5 0.953125 0.5 2.265625l0 5.125l-3.265625 0l0 -4.640625q0 -1.015625 -0.53125 -1.5625q-0.515625 -0.546875 -1.484375 -0.546875q-0.671875 0 -1.1875 0.296875q-0.5 0.28125 -0.765625 0.8125q-0.265625 0.515625 -0.265625 1.234375l-1.015625 -0.515625q0.1875 -1.46875 0.8125 -2.46875q0.625 -1.0 1.53125 -1.5q0.921875 -0.515625 2.03125 -0.515625zm13.795898 7.109375l0 -1.5625l0.109375 -0.375l0 -2.25l-0.109375 -0.328125l0 -2.328125l3.265625 0l0 6.703125q0 1.6875 -0.78125 2.875q-0.78125 1.203125 -2.1875 1.828125q-1.390625 0.625 -3.296875 0.625q-1.265625 0 -2.34375 -0.328125q-1.078125 -0.328125 -2.15625 -0.96875l0 -2.453125q1.0 0.734375 2.09375 1.0625q1.09375 0.328125 2.1875 0.328125q1.578125 0 2.390625 -0.671875q0.828125 -0.671875 0.828125 -2.15625zm-3.921875 1.34375q-1.296875 0 -2.3125 -0.53125q-1.0 -0.53125 -1.578125 -1.484375q-0.578125 -0.953125 -0.578125 -2.21875q0 -1.28125 0.578125 -2.21875q0.578125 -0.953125 1.578125 -1.46875q1.015625 -0.53125 2.3125 -0.53125q0.96875 0 1.765625 0.296875q0.796875 0.296875 1.421875 0.78125q0.625 0.484375 1.046875 1.0625q0.421875 0.5625 0.640625 1.125q0.234375 0.5625 0.234375 0.984375q0 0.59375 -0.34375 1.3125q-0.34375 0.71875 -1.0 1.375q-0.65625 0.65625 -1.609375 1.09375q-0.953125 0.421875 -2.15625 0.421875zm1.109375 -2.234375q0.953125 0 1.6875 -0.484375q0.734375 -0.5 1.234375 -1.515625q-0.515625 -1.015625 -1.265625 -1.5q-0.734375 -0.5 -1.65625 -0.5q-0.703125 0 -1.234375 0.25q-0.515625 0.234375 -0.78125 0.6875q-0.265625 0.453125 -0.265625 1.0625q0 0.59375 0.265625 1.046875q0.265625 0.453125 0.78125 0.703125q0.515625 0.25 1.234375 0.25zm13.195526 3.4375q-1.65625 0 -2.96875 -0.59375q-1.296875 -0.609375 -2.046875 -1.703125q-0.75 -1.109375 -0.75 -2.5625q0 -1.421875 0.71875 -2.5q0.71875 -1.078125 1.96875 -1.6875q1.265625 -0.609375 2.84375 -0.609375q1.640625 0 2.796875 0.71875q1.171875 0.703125 1.796875 2.0q0.640625 1.296875 0.640625 3.0625l-8.125 0l0 -1.96875l6.28125 0l-1.0625 0.6875q-0.078125 -0.703125 -0.359375 -1.1875q-0.28125 -0.5 -0.765625 -0.75q-0.46875 -0.265625 -1.125 -0.265625q-0.71875 0 -1.234375 0.296875q-0.5 0.28125 -0.796875 0.796875q-0.28125 0.5 -0.28125 1.171875q0 0.859375 0.390625 1.46875q0.390625 0.59375 1.140625 0.921875q0.765625 0.3125 1.875 0.3125q1.0 0 2.0 -0.265625q1.0 -0.265625 1.828125 -0.75l0 2.078125q-0.953125 0.640625 -2.171875 0.984375q-1.203125 0.34375 -2.59375 0.34375zm9.263275 -6.15625l3.25 0l0 0.40625q0 1.40625 0.578125 2.15625q0.59375 0.734375 1.953125 0.734375q1.328125 0 1.9375 -0.6875q0.609375 -0.703125 0.609375 -1.953125l0 -6.75l3.3125 0l0 6.921875q0 1.671875 -0.734375 2.875q-0.734375 1.1875 -2.046875 1.828125q-1.3125 0.625 -3.078125 0.625q-1.71875 0 -3.03125 -0.65625q-1.296875 -0.65625 -2.015625 -1.890625q-0.71875 -1.234375 -0.71875 -2.953125l-0.015625 -0.65625zm17.330902 6.15625q-1.28125 0 -2.1875 -0.515625q-0.890625 -0.53125 -1.375 -1.5q-0.484375 -0.96875 -0.484375 -2.265625l0 -5.109375l3.265625 0l0 4.640625q0 1.015625 0.5 1.5625q0.5 0.53125 1.421875 0.53125q0.6875 0 1.140625 -0.265625q0.46875 -0.28125 0.71875 -0.8125q0.265625 -0.53125 0.265625 -1.265625l1.015625 0.53125q-0.1875 1.453125 -0.796875 2.453125q-0.609375 1.0 -1.515625 1.515625q-0.890625 0.5 -1.96875 0.5zm3.859375 -0.25l-0.59375 -3.65625l0 -5.484375l3.265625 0l0 5.984375l0.59375 3.15625l-3.265625 0zm4.635147 -9.28125l1.65625 0.328125l1.625 -0.328125l0 9.28125l-3.28125 0l0 -9.28125zm1.640625 -0.75q-0.84375 0 -1.375 -0.421875q-0.53125 -0.421875 -0.53125 -1.15625q0 -0.734375 0.53125 -1.15625q0.53125 -0.4375 1.375 -0.4375q0.875 0 1.390625 0.4375q0.53125 0.421875 0.53125 1.15625q0 0.734375 -0.53125 1.15625q-0.515625 0.421875 -1.390625 0.421875zm14.337631 6.171875q-0.140625 1.234375 -0.90625 2.171875q-0.765625 0.921875 -1.984375 1.4375q-1.21875 0.5 -2.75 0.5q-1.671875 0 -2.953125 -0.59375q-1.28125 -0.609375 -2.0 -1.703125q-0.71875 -1.09375 -0.71875 -2.515625q0 -1.4375 0.71875 -2.515625q0.71875 -1.09375 2.0 -1.703125q1.28125 -0.625 2.953125 -0.625q1.53125 0 2.75 0.515625q1.21875 0.515625 1.984375 1.4375q0.765625 0.921875 0.90625 2.171875l-3.25 0q-0.171875 -0.8125 -0.8125 -1.25q-0.640625 -0.4375 -1.578125 -0.4375q-0.71875 0 -1.25 0.28125q-0.53125 0.265625 -0.828125 0.8125q-0.296875 0.53125 -0.296875 1.3125q0 0.765625 0.296875 1.3125q0.296875 0.53125 0.828125 0.8125q0.53125 0.28125 1.25 0.28125q0.9375 0 1.578125 -0.46875q0.65625 -0.46875 0.8125 -1.234375l3.25 0zm6.645157 4.109375q-1.65625 0 -2.96875 -0.59375q-1.296875 -0.609375 -2.046875 -1.703125q-0.75 -1.109375 -0.75 -2.5625q0 -1.421875 0.71875 -2.5q0.71875 -1.078125 1.96875 -1.6875q1.265625 -0.609375 2.84375 -0.609375q1.640625 0 2.796875 0.71875q1.171875 0.703125 1.796875 2.0q0.640625 1.296875 0.640625 3.0625l-8.125 0l0 -1.96875l6.28125 0l-1.0625 0.6875q-0.078125 -0.703125 -0.359375 -1.1875q-0.28125 -0.5 -0.765625 -0.75q-0.46875 -0.265625 -1.125 -0.265625q-0.71875 0 -1.234375 0.296875q-0.5 0.28125 -0.796875 0.796875q-0.28125 0.5 -0.28125 1.171875q0 0.859375 0.390625 1.46875q0.390625 0.59375 1.140625 0.921875q0.765625 0.3125 1.875 0.3125q1.0 0 2.0 -0.265625q1.0 -0.265625 1.828125 -0.75l0 2.078125q-0.953125 0.640625 -2.171875 0.984375q-1.203125 0.34375 -2.59375 0.34375z" fill-rule="nonzero"/><path fill="#ffffff" d="m171.37236 336.95703q0 -0.84375 0.171875 -1.765625q0.171875 -0.921875 0.46875 -1.78125q0.3125 -0.875 0.703125 -1.515625l0.859375 0q-0.40625 0.8125 -0.703125 1.703125q-0.296875 0.875 -0.453125 1.75q-0.15625 0.859375 -0.15625 1.609375q0 0.671875 0.140625 1.390625q0.140625 0.703125 0.421875 1.5q0.296875 0.78125 0.75 1.71875l-0.859375 0q-0.671875 -1.125 -1.015625 -2.296875q-0.328125 -1.171875 -0.328125 -2.3125z" fill-rule="nonzero"/><path fill="#ffffff" d="m179.41353 340.22266q-0.875 0 -1.53125 -0.375q-0.640625 -0.375 -0.984375 -1.046875q-0.34375 -0.671875 -0.34375 -1.5625q0 -0.90625 0.34375 -1.578125q0.34375 -0.6875 0.984375 -1.0625q0.65625 -0.375 1.53125 -0.375q0.875 0 1.515625 0.375q0.65625 0.375 1.0 1.0625q0.34375 0.671875 0.34375 1.578125q0 0.890625 -0.34375 1.5625q-0.34375 0.671875 -1.0 1.046875q-0.640625 0.375 -1.515625 0.375zm0 -1.25q0.40625 0 0.671875 -0.21875q0.28125 -0.234375 0.40625 -0.625q0.140625 -0.40625 0.140625 -0.90625q0 -0.515625 -0.140625 -0.90625q-0.125 -0.390625 -0.40625 -0.609375q-0.265625 -0.21875 -0.671875 -0.21875q-0.40625 0 -0.671875 0.21875q-0.265625 0.21875 -0.40625 0.609375q-0.140625 0.390625 -0.140625 0.90625q0 0.5 0.140625 0.90625q0.140625 0.390625 0.40625 0.625q0.265625 0.21875 0.671875 0.21875z" fill-rule="nonzero"/><path fill="#ffffff" d="m187.7592 338.6914q-0.453125 0 -0.84375 -0.21875q-0.375 -0.234375 -0.609375 -0.609375q-0.21875 -0.390625 -0.21875 -0.84375q0 -0.453125 0.21875 -0.828125q0.234375 -0.390625 0.609375 -0.609375q0.390625 -0.21875 0.84375 -0.21875q0.453125 0 0.828125 0.21875q0.390625 0.21875 0.609375 0.609375q0.21875 0.375 0.21875 0.828125q0 0.453125 -0.21875 0.84375q-0.21875 0.375 -0.609375 0.609375q-0.375 0.21875 -0.828125 0.21875zm5.320801 1.421875l0 -5.8125l0.84375 0l0 0.875l0.0625 0q0.171875 -0.421875 0.578125 -0.6875q0.421875 -0.28125 0.9375 -0.28125q0.109375 0 0.25 0.015625q0.140625 0 0.21875 0l0 0.90625q-0.046875 -0.015625 -0.203125 -0.03125q-0.15625 -0.015625 -0.34375 -0.015625q-0.421875 0 -0.75 0.171875q-0.328125 0.171875 -0.53125 0.484375q-0.1875 0.3125 -0.1875 0.703125l0 3.671875l-0.875 0zm7.1216125 -2.375l0 -3.4375l0.890625 0l0 5.8125l-0.890625 0l0 -0.984375l-0.0625 0q-0.203125 0.4375 -0.640625 0.75q-0.421875 0.3125 -1.078125 0.3125q-0.546875 0 -0.96875 -0.234375q-0.421875 -0.25 -0.671875 -0.734375q-0.234375 -0.484375 -0.234375 -1.234375l0 -3.6875l0.875 0l0 3.640625q0 0.625 0.359375 1.015625q0.375 0.375 0.921875 0.359375q0.328125 0 0.671875 -0.15625q0.359375 -0.171875 0.59375 -0.515625q0.234375 -0.359375 0.234375 -0.90625zm2.9111023 -1.125l0 3.5l-0.875 0l0 -7.75l0.875 0l0 2.84375l0.09375 0q0.203125 -0.453125 0.609375 -0.71875q0.40625 -0.265625 1.09375 -0.265625q0.59375 0 1.03125 0.234375q0.453125 0.234375 0.703125 0.734375q0.25 0.484375 0.25 1.234375l0 3.6875l-0.890625 0l0 -3.625q0 -0.703125 -0.359375 -1.078125q-0.359375 -0.390625 -1.0 -0.390625q-0.4375 0 -0.78125 0.1875q-0.34375 0.1875 -0.546875 0.546875q-0.203125 0.359375 -0.203125 0.859375zm5.8068237 0l0 3.5l-0.875 0l0 -5.8125l0.84375 0l0 0.90625l0.09375 0q0.203125 -0.4375 0.609375 -0.703125q0.421875 -0.28125 1.078125 -0.28125q0.59375 0 1.03125 0.25q0.4375 0.234375 0.6875 0.71875q0.25 0.484375 0.25 1.234375l0 3.6875l-0.890625 0l0 -3.625q0 -0.6875 -0.359375 -1.078125q-0.359375 -0.390625 -0.96875 -0.390625q-0.421875 0 -0.765625 0.1875q-0.34375 0.1875 -0.546875 0.546875q-0.1875 0.359375 -0.1875 0.859375zm4.869385 -2.3125l0.875 0l0 6.234375q0.015625 0.546875 -0.171875 0.9375q-0.1875 0.390625 -0.5625 0.59375q-0.359375 0.21875 -0.921875 0.21875l-0.1875 0l0 -0.828125l0.171875 0q0.40625 0 0.59375 -0.234375q0.1875 -0.234375 0.203125 -0.6875l0 -6.234375zm0.421875 -0.96875q-0.25 0 -0.4375 -0.171875q-0.1875 -0.1875 -0.1875 -0.4375q0 -0.25 0.1875 -0.421875q0.1875 -0.1875 0.4375 -0.1875q0.265625 0 0.453125 0.1875q0.1875 0.171875 0.1875 0.421875q0 0.25 -0.1875 0.4375q-0.1875 0.171875 -0.453125 0.171875z" fill-rule="nonzero"/><path fill="#ffffff" d="m218.20638 334.30078l1.609375 0l0 6.109375q0 0.671875 -0.265625 1.078125q-0.265625 0.421875 -0.765625 0.609375q-0.484375 0.1875 -1.171875 0.1875l-0.328125 0l0 -1.25l0.21875 0q0.390625 0 0.546875 -0.171875q0.15625 -0.15625 0.15625 -0.484375l0 -6.078125zm0.796875 -0.75q-0.359375 0 -0.625 -0.234375q-0.25 -0.25 -0.25 -0.578125q0 -0.34375 0.25 -0.578125q0.265625 -0.234375 0.625 -0.234375q0.359375 0 0.609375 0.234375q0.265625 0.234375 0.265625 0.578125q0 0.328125 -0.265625 0.578125q-0.25 0.234375 -0.609375 0.234375zm4.3829193 6.671875q-0.875 0 -1.53125 -0.375q-0.640625 -0.375 -0.984375 -1.046875q-0.34375 -0.671875 -0.34375 -1.5625q0 -0.90625 0.34375 -1.578125q0.34375 -0.6875 0.984375 -1.0625q0.65625 -0.375 1.53125 -0.375q0.875 0 1.515625 0.375q0.65625 0.375 1.0 1.0625q0.34375 0.671875 0.34375 1.578125q0 0.890625 -0.34375 1.5625q-0.34375 0.671875 -1.0 1.046875q-0.640625 0.375 -1.515625 0.375zm0 -1.25q0.40625 0 0.671875 -0.21875q0.28125 -0.234375 0.40625 -0.625q0.140625 -0.40625 0.140625 -0.90625q0 -0.515625 -0.140625 -0.90625q-0.125 -0.390625 -0.40625 -0.609375q-0.265625 -0.21875 -0.671875 -0.21875q-0.40625 0 -0.671875 0.21875q-0.265625 0.21875 -0.40625 0.609375q-0.140625 0.390625 -0.140625 0.90625q0 0.5 0.140625 0.90625q0.140625 0.390625 0.40625 0.625q0.265625 0.21875 0.671875 0.21875zm6.191864 1.25q-0.875 0 -1.53125 -0.375q-0.640625 -0.375 -0.984375 -1.046875q-0.34375 -0.671875 -0.34375 -1.5625q0 -0.90625 0.34375 -1.578125q0.34375 -0.6875 0.984375 -1.0625q0.65625 -0.375 1.53125 -0.375q0.875 0 1.515625 0.375q0.65625 0.375 1.0 1.0625q0.34375 0.671875 0.34375 1.578125q0 0.890625 -0.34375 1.5625q-0.34375 0.671875 -1.0 1.046875q-0.640625 0.375 -1.515625 0.375zm0 -1.25q0.40625 0 0.671875 -0.21875q0.28125 -0.234375 0.40625 -0.625q0.140625 -0.40625 0.140625 -0.90625q0 -0.515625 -0.140625 -0.90625q-0.125 -0.390625 -0.40625 -0.609375q-0.265625 -0.21875 -0.671875 -0.21875q-0.40625 0 -0.671875 0.21875q-0.265625 0.21875 -0.40625 0.609375q-0.140625 0.390625 -0.140625 0.90625q0 0.5 0.140625 0.90625q0.140625 0.390625 0.40625 0.625q0.265625 0.21875 0.671875 0.21875zm8.394989 -3.015625l-1.46875 0.09375q-0.0625 -0.28125 -0.3125 -0.484375q-0.25 -0.203125 -0.671875 -0.203125q-0.359375 0 -0.625 0.15625q-0.25 0.15625 -0.25 0.421875q0 0.203125 0.15625 0.359375q0.171875 0.140625 0.578125 0.234375l1.046875 0.203125q0.859375 0.171875 1.265625 0.5625q0.421875 0.375 0.421875 1.0q0 0.578125 -0.34375 1.015625q-0.328125 0.421875 -0.90625 0.671875q-0.578125 0.234375 -1.34375 0.234375q-1.140625 0 -1.828125 -0.484375q-0.6875 -0.484375 -0.796875 -1.3125l1.578125 -0.078125q0.078125 0.359375 0.34375 0.546875q0.28125 0.171875 0.703125 0.171875q0.421875 0 0.6875 -0.15625q0.265625 -0.171875 0.265625 -0.4375q0 -0.421875 -0.75 -0.578125l-1.0 -0.203125q-0.84375 -0.171875 -1.265625 -0.578125q-0.421875 -0.421875 -0.421875 -1.078125q0 -0.5625 0.3125 -0.96875q0.3125 -0.40625 0.859375 -0.625q0.5625 -0.21875 1.296875 -0.21875q1.109375 0 1.734375 0.46875q0.640625 0.46875 0.734375 1.265625z" fill-rule="nonzero"/><path fill="#ffffff" d="m241.05882 341.5664q0.453125 -0.9375 0.734375 -1.71875q0.296875 -0.796875 0.4375 -1.5q0.140625 -0.71875 0.140625 -1.390625q0 -0.75 -0.15625 -1.609375q-0.15625 -0.875 -0.453125 -1.75q-0.296875 -0.890625 -0.703125 -1.703125l0.859375 0q0.40625 0.640625 0.703125 1.515625q0.296875 0.859375 0.46875 1.78125q0.171875 0.921875 0.171875 1.765625q0 1.140625 -0.34375 2.3125q-0.328125 1.171875 -1.0 2.296875l-0.859375 0z" fill-rule="nonzero"/></g></svg>