<svg version="1.1" viewBox="0.0 0.0 288.0 384.0" fill="none" stroke="none" stroke-linecap="square" stroke-miterlimit="10" xmlns:xlink="http://www.w3.org/1999/xlink" xmlns="http://www.w3.org/2000/svg"><clipPath id="g3b18a6c779a_0_4579.0"><path d="m0 0l288.0 0l0 384.0l-288.0 0l0 -384.0z" clip-rule="nonzero"/></clipPath><g clip-path="url(#g3b18a6c779a_0_4579.0)"><path fill="#ffffff" d="m0 0l288.0 0l0 384.0l-288.0 0z" fill-rule="evenodd"/><path fill="#51de18" d="m5.7007875 34.135216l0 0c0 -9.966135 8.079147 -18.045282 18.04528 -18.045282l240.50787 0c4.7858887 0 9.375793 1.9011936 12.759949 5.2853394c3.3841248 3.3841476 5.2853394 7.9740353 5.2853394 12.759943l0 324.2244c0 9.9661255 -8.079163 18.045288 -18.045288 18.045288l-240.50787 0l0 0c-9.966134 0 -18.04528 -8.079163 -18.04528 -18.045288z" fill-rule="evenodd"/><path stroke="#51de18" stroke-width="4.0" stroke-linejoin="round" stroke-linecap="butt" d="m5.7007875 34.135216l0 0c0 -9.966135 8.079147 -18.045282 18.04528 -18.045282l240.50787 0c4.7858887 0 9.375793 1.9011936 12.759949 5.2853394c3.3841248 3.3841476 5.2853394 7.9740353 5.2853394 12.759943l0 324.2244c0 9.9661255 -8.079163 18.045288 -18.045288 18.045288l-240.50787 0l0 0c-9.966134 0 -18.04528 -8.079163 -18.04528 -18.045288z" fill-rule="evenodd"/><path fill="#caffb5" d="m5.7007875 25.639769l0 0c0 -9.966133 8.079147 -18.04528 18.04528 -18.04528l240.50787 0c4.7858887 0 9.375793 1.9011936 12.759949 5.2853403c3.3841248 3.3841467 5.2853394 7.9740343 5.2853394 12.75994l0 324.2244c0 9.9661255 -8.079163 18.045288 -18.045288 18.045288l-240.50787 0l0 0c-9.966134 0 -18.04528 -8.079163 -18.04528 -18.045288z" fill-rule="evenodd"/><path stroke="#51de18" stroke-width="4.0" stroke-linejoin="round" stroke-linecap="butt" d="m5.7007875 25.639769l0 0c0 -9.966133 8.079147 -18.04528 18.04528 -18.04528l240.50787 0c4.7858887 0 9.375793 1.9011936 12.759949 5.2853403c3.3841248 3.3841467 5.2853394 7.9740343 5.2853394 12.75994l0 324.2244c0 9.9661255 -8.079163 18.045288 -18.045288 18.045288l-240.50787 0l0 0c-9.966134 0 -18.04528 -8.079163 -18.04528 -18.045288z" fill-rule="evenodd"/><path fill="#000000" fill-opacity="0.0" d="m21.700787 315.7533l266.29922 0l0 38.771637l-266.29922 0z" fill-rule="evenodd"/><path fill="#000000" d="m38.419537 340.36328q-2.140625 0 -3.75 -0.78125q-1.59375 -0.78125 -2.484375 -2.1875q-0.890625 -1.40625 -0.890625 -3.28125q0 -1.875 0.890625 -3.28125q0.890625 -1.40625 2.484375 -2.1875q1.609375 -0.78125 3.75 -0.78125q2.140625 0 3.734375 0.78125q1.609375 0.78125 2.5 2.1875q0.890625 1.40625 0.890625 3.28125q0 1.875 -0.890625 3.28125q-0.890625 1.40625 -2.5 2.1875q-1.59375 0.78125 -3.734375 0.78125zm0 -2.953125q1.15625 0 2.0 -0.390625q0.859375 -0.40625 1.3125 -1.140625q0.453125 -0.734375 0.453125 -1.765625q0 -1.03125 -0.453125 -1.765625q-0.453125 -0.734375 -1.3125 -1.125q-0.84375 -0.40625 -2.0 -0.40625q-1.15625 0 -2.015625 0.40625q-0.84375 0.390625 -1.3125 1.125q-0.453125 0.734375 -0.453125 1.765625q0 1.03125 0.453125 1.765625q0.46875 0.734375 1.3125 1.140625q0.859375 0.390625 2.015625 0.390625zm7.053787 2.703125l4.234375 -5.125l-0.015625 0.96875l-3.984375 -4.984375l3.640625 0l2.5625 3.15625l-0.953125 0l2.578125 -3.15625l3.578125 0l-4.125 5.015625l-0.15625 -1.296875l4.546875 5.421875l-3.71875 0l-2.796875 -3.375l1.015625 0l-2.765625 3.375l-3.640625 0zm15.597778 2.890625q-1.015625 0 -1.796875 -0.25q-0.78125 -0.234375 -1.515625 -0.75l0 -2.28125q0.75 0.484375 1.40625 0.6875q0.65625 0.21875 1.4375 0.21875q0.65625 0 1.171875 -0.296875q0.515625 -0.28125 0.828125 -1.046875l3.5000038 -8.3125l3.484375 0l-4.390625 9.3125q-0.46875 1.015625 -1.140625 1.609375q-0.6562538 0.609375 -1.4218788 0.859375q-0.765625 0.25 -1.5625 0.25zm0.109375 -3.734375l-3.890625 -8.296875l3.609375 0l3.4375038 8.296875l-3.1562538 0zm16.859394 -1.453125l0 -1.5625l0.109375 -0.375l0 -2.25l-0.109375 -0.328125l0 -2.328125l3.265625 0l0 6.703125q0 1.6875 -0.78125 2.875q-0.78125 1.203125 -2.1875 1.828125q-1.390625 0.625 -3.296875 0.625q-1.265625 0 -2.34375 -0.328125q-1.078125 -0.328125 -2.15625 -0.96875l0 -2.453125q1.0 0.734375 2.09375 1.0625q1.09375 0.328125 2.1875 0.328125q1.578125 0 2.390625 -0.671875q0.828125 -0.671875 0.828125 -2.15625zm-3.921875 1.34375q-1.296875 0 -2.3125 -0.53125q-1.0 -0.53125 -1.578125 -1.484375q-0.578125 -0.953125 -0.578125 -2.21875q0 -1.28125 0.578125 -2.21875q0.578125 -0.953125 1.578125 -1.46875q1.015625 -0.53125 2.3125 -0.53125q0.96875 0 1.765625 0.296875q0.796875 0.296875 1.421875 0.78125q0.625 0.484375 1.046875 1.0625q0.421875 0.5625 0.640625 1.125q0.234375 0.5625 0.234375 0.984375q0 0.59375 -0.34375 1.3125q-0.34375 0.71875 -1.0 1.375q-0.65625 0.65625 -1.609375 1.09375q-0.953125 0.421875 -2.15625 0.421875zm1.109375 -2.234375q0.953125 0 1.6875 -0.484375q0.734375 -0.5 1.234375 -1.515625q-0.515625 -1.015625 -1.265625 -1.5q-0.734375 -0.5 -1.65625 -0.5q-0.703125 0 -1.234375 0.25q-0.515625 0.234375 -0.78125 0.6875q-0.265625 0.453125 -0.265625 1.0625q0 0.59375 0.265625 1.046875q0.265625 0.453125 0.78125 0.703125q0.515625 0.25 1.234375 0.25zm13.195526 3.4375q-1.65625 0 -2.96875 -0.59375q-1.296875 -0.609375 -2.046875 -1.703125q-0.75 -1.109375 -0.75 -2.5625q0 -1.421875 0.71875 -2.5q0.71875 -1.078125 1.96875 -1.6875q1.265625 -0.609375 2.84375 -0.609375q1.640625 0 2.796875 0.71875q1.171875 0.703125 1.796875 2.0q0.640625 1.296875 0.640625 3.0625l-8.125 0l0 -1.96875l6.28125 0l-1.0625 0.6875q-0.078125 -0.703125 -0.359375 -1.1875q-0.28125 -0.5 -0.765625 -0.75q-0.46875 -0.265625 -1.125 -0.265625q-0.71875 0 -1.234375 0.296875q-0.5 0.28125 -0.796875 0.796875q-0.28125 0.5 -0.28125 1.171875q0 0.859375 0.390625 1.46875q0.390625 0.59375 1.140625 0.921875q0.765625 0.3125 1.875 0.3125q1.0 0 2.0 -0.265625q1.0 -0.265625 1.828125 -0.75l0 2.078125q-0.953125 0.640625 -2.171875 0.984375q-1.203125 0.34375 -2.59375 0.34375zm5.9147644 -9.390625l3.28125 0l0.59375 3.65625l0 5.484375l-3.265625 0l0 -5.984375l-0.609375 -3.15625zm7.234375 -0.265625q1.3125 0 2.234375 0.53125q0.921875 0.515625 1.40625 1.484375q0.5 0.953125 0.5 2.265625l0 5.125l-3.265625 0l0 -4.640625q0 -1.015625 -0.53125 -1.5625q-0.515625 -0.546875 -1.484375 -0.546875q-0.671875 0 -1.1875 0.296875q-0.5 0.28125 -0.765625 0.8125q-0.265625 0.515625 -0.265625 1.234375l-1.015625 -0.515625q0.1875 -1.46875 0.8125 -2.46875q0.625 -1.0 1.53125 -1.5q0.921875 -0.515625 2.03125 -0.515625z" fill-rule="nonzero"/><path fill="#000000" d="m114.876236 336.95703q0 -0.84375 0.171875 -1.765625q0.171875 -0.921875 0.46875 -1.78125q0.3125 -0.875 0.703125 -1.515625l0.859375 0q-0.40625 0.8125 -0.703125 1.703125q-0.296875 0.875 -0.453125 1.75q-0.15625 0.859375 -0.15625 1.609375q0 0.671875 0.140625 1.390625q0.140625 0.703125 0.421875 1.5q0.296875 0.78125 0.75 1.71875l-0.859375 0q-0.671875 -1.125 -1.015625 -2.296875q-0.328125 -1.171875 -0.328125 -2.3125z" fill-rule="nonzero"/><path fill="#000000" d="m122.917404 340.22266q-0.875 0 -1.53125 -0.375q-0.640625 -0.375 -0.984375 -1.046875q-0.34375 -0.671875 -0.34375 -1.5625q0 -0.90625 0.34375 -1.578125q0.34375 -0.6875 0.984375 -1.0625q0.65625 -0.375 1.53125 -0.375q0.875 0 1.515625 0.375q0.65625 0.375 1.0 1.0625q0.34375 0.671875 0.34375 1.578125q0 0.890625 -0.34375 1.5625q-0.34375 0.671875 -1.0 1.046875q-0.640625 0.375 -1.515625 0.375zm0 -1.25q0.40625 0 0.671875 -0.21875q0.28125 -0.234375 0.40625 -0.625q0.140625 -0.40625 0.140625 -0.90625q0 -0.515625 -0.140625 -0.90625q-0.125 -0.390625 -0.40625 -0.609375q-0.265625 -0.21875 -0.671875 -0.21875q-0.40625 0 -0.671875 0.21875q-0.265625 0.21875 -0.40625 0.609375q-0.140625 0.390625 -0.140625 0.90625q0 0.5 0.140625 0.90625q0.140625 0.390625 0.40625 0.625q0.265625 0.21875 0.671875 0.21875zm5.035614 -0.53125l0 -1.9375l0.234375 0l1.859375 -2.203125l1.84375 0l-2.5 2.921875l-0.390625 0l-1.046875 1.21875zm-1.46875 1.671875l0 -7.75l1.609375 0l0 7.75l-1.609375 0zm3.625 0l-1.703125 -2.53125l1.078125 -1.140625l2.515625 3.671875l-1.890625 0z" fill-rule="nonzero"/><path fill="#000000" d="m137.11153 338.6914q-0.453125 0 -0.84375 -0.21875q-0.375 -0.234375 -0.609375 -0.609375q-0.21875 -0.390625 -0.21875 -0.84375q0 -0.453125 0.21875 -0.828125q0.234375 -0.390625 0.609375 -0.609375q0.390625 -0.21875 0.84375 -0.21875q0.453125 0 0.828125 0.21875q0.390625 0.21875 0.609375 0.609375q0.21875 0.375 0.21875 0.828125q0 0.453125 -0.21875 0.84375q-0.21875 0.375 -0.609375 0.609375q-0.375 0.21875 -0.828125 0.21875zm9.430176 -3.078125l-0.8125 0.21875q-0.109375 -0.296875 -0.390625 -0.5625q-0.28125 -0.28125 -0.859375 -0.28125q-0.53125 0 -0.890625 0.25q-0.34375 0.25 -0.34375 0.625q0 0.328125 0.234375 0.53125q0.25 0.1875 0.765625 0.3125l0.859375 0.21875q0.765625 0.1875 1.140625 0.578125q0.390625 0.375 0.390625 0.984375q0 0.5 -0.28125 0.90625q-0.28125 0.390625 -0.796875 0.625q-0.515625 0.21875 -1.1875 0.21875q-0.890625 0 -1.46875 -0.390625q-0.578125 -0.390625 -0.734375 -1.125l0.84375 -0.21875q0.125 0.46875 0.453125 0.703125q0.34375 0.234375 0.90625 0.234375q0.609375 0 0.984375 -0.265625q0.375 -0.265625 0.375 -0.640625q0 -0.609375 -0.875 -0.8125l-0.953125 -0.234375q-0.8125 -0.1875 -1.1875 -0.578125q-0.375 -0.40625 -0.375 -1.0q0 -0.5 0.28125 -0.875q0.28125 -0.375 0.765625 -0.59375q0.484375 -0.21875 1.09375 -0.21875q0.859375 0 1.34375 0.390625q0.5 0.375 0.71875 1.0zm4.6148376 2.125l0 -3.4375l0.890625 0l0 5.8125l-0.890625 0l0 -0.984375l-0.0625 0q-0.203125 0.4375 -0.640625 0.75q-0.421875 0.3125 -1.078125 0.3125q-0.546875 0 -0.96875 -0.234375q-0.421875 -0.25 -0.671875 -0.734375q-0.234375 -0.484375 -0.234375 -1.234375l0 -3.6875l0.875 0l0 3.640625q0 0.625 0.359375 1.015625q0.375 0.375 0.921875 0.359375q0.328125 0 0.671875 -0.15625q0.359375 -0.171875 0.59375 -0.515625q0.234375 -0.359375 0.234375 -0.90625zm2.9111023 -1.125l0 3.5l-0.875 0l0 -7.75l0.875 0l0 2.84375l0.09375 0q0.203125 -0.453125 0.609375 -0.71875q0.40625 -0.265625 1.09375 -0.265625q0.59375 0 1.03125 0.234375q0.453125 0.234375 0.703125 0.734375q0.25 0.484375 0.25 1.234375l0 3.6875l-0.890625 0l0 -3.625q0 -0.703125 -0.359375 -1.078125q-0.359375 -0.390625 -1.0 -0.390625q-0.4375 0 -0.78125 0.1875q-0.34375 0.1875 -0.546875 0.546875q-0.203125 0.359375 -0.203125 0.859375zm9.601257 2.078125q-0.453125 0 -0.84375 -0.21875q-0.375 -0.234375 -0.609375 -0.609375q-0.21875 -0.390625 -0.21875 -0.84375q0 -0.453125 0.21875 -0.828125q0.234375 -0.390625 0.609375 -0.609375q0.390625 -0.21875 0.84375 -0.21875q0.453125 0 0.828125 0.21875q0.390625 0.21875 0.609375 0.609375q0.21875 0.375 0.21875 0.828125q0 0.453125 -0.21875 0.84375q-0.21875 0.375 -0.609375 0.609375q-0.375 0.21875 -0.828125 0.21875zm5.320801 -4.390625l0.875 0l0 6.234375q0.015625 0.546875 -0.171875 0.9375q-0.1875 0.390625 -0.5625 0.59375q-0.359375 0.21875 -0.921875 0.21875l-0.1875 0l0 -0.828125l0.171875 0q0.40625 0 0.59375 -0.234375q0.1875 -0.234375 0.203125 -0.6875l0 -6.234375zm0.421875 -0.96875q-0.25 0 -0.4375 -0.171875q-0.1875 -0.1875 -0.1875 -0.4375q0 -0.25 0.1875 -0.421875q0.1875 -0.1875 0.4375 -0.1875q0.265625 0 0.453125 0.1875q0.1875 0.171875 0.1875 0.421875q0 0.25 -0.1875 0.4375q-0.1875 0.171875 -0.453125 0.171875zm2.4823914 3.28125l0 3.5l-0.875 0l0 -5.8125l0.84375 0l0 0.90625l0.09375 0q0.203125 -0.4375 0.609375 -0.703125q0.421875 -0.28125 1.078125 -0.28125q0.59375 0 1.03125 0.25q0.4375 0.234375 0.6875 0.71875q0.25 0.484375 0.25 1.234375l0 3.6875l-0.890625 0l0 -3.625q0 -0.6875 -0.359375 -1.078125q-0.359375 -0.390625 -0.96875 -0.390625q-0.421875 0 -0.765625 0.1875q-0.34375 0.1875 -0.546875 0.546875q-0.1875 0.359375 -0.1875 0.859375zm7.0388184 4.953125q0.453125 -0.9375 0.734375 -1.71875q0.296875 -0.796875 0.4375 -1.5q0.140625 -0.71875 0.140625 -1.390625q0 -0.75 -0.15625 -1.609375q-0.15625 -0.875 -0.453125 -1.75q-0.296875 -0.890625 -0.703125 -1.703125l0.859375 0q0.40625 0.640625 0.703125 1.515625q0.296875 0.859375 0.46875 1.78125q0.171875 0.921875 0.171875 1.765625q0 1.140625 -0.34375 2.3125q-0.328125 1.171875 -1.0 2.296875l-0.859375 0z" fill-rule="nonzero"/><path fill="#51de18" d="m163.68439 158.92876l0 0c0 -5.789322 4.693161 -10.482483 10.482483 -10.482483l41.937332 0l0 0c2.780136 0 5.446396 1.1044006 7.4122467 3.0702362c1.9658508 1.9658508 3.0702515 4.6321106 3.0702515 7.4122467l0 41.92868c0 5.789322 -4.6931763 10.482483 -10.482498 10.482483l-41.937332 0c-5.789322 0 -10.482483 -4.693161 -10.482483 -10.482483z" fill-rule="evenodd"/><path fill="#51de18" d="m77.40426 178.54022l0 0c0 -0.8466034 0.6863098 -1.5329132 1.5329132 -1.5329132l146.12411 0c0.40655518 0 0.79644775 0.16149902 1.0839233 0.4489746c0.2874756 0.2874756 0.4489746 0.6773834 0.4489746 1.0839386l0 6.131439c0 0.84658813 -0.68629456 1.532898 -1.532898 1.532898l-146.12411 0c-0.8466034 0 -1.5329132 -0.6863098 -1.5329132 -1.532898z" fill-rule="evenodd"/><path fill="#51de18" d="m77.404724 158.92876l0 0c0 -5.789322 4.6931686 -10.482483 10.482483 -10.482483l41.937347 0l0 0c2.7801208 0 5.4463806 1.1044006 7.4122314 3.0702362c1.9658508 1.9658508 3.0702515 4.6321106 3.0702515 7.4122467l0 41.92868c0 5.789322 -4.6931763 10.482483 -10.482483 10.482483l-41.937347 0c-5.7893143 0 -10.482483 -4.693161 -10.482483 -10.482483z" fill-rule="evenodd"/><path fill="#51de18" d="m77.40426 167.90266l0 0c0 -1.1603851 0.9406891 -2.1010742 2.1010742 -2.1010742l144.98776 0c0.557251 0 1.0916595 0.22135925 1.4856873 0.61538696c0.3940277 0.3940277 0.61538696 0.92845154 0.61538696 1.4856873l0 8.404037c0 1.1604004 -0.9406738 2.1010742 -2.1010742 2.1010742l-144.98776 0c-1.1603851 0 -2.1010742 -0.9406738 -2.1010742 -2.1010742z" fill-rule="evenodd"/><path fill="#51de18" d="m77.40426 170.75204l0 0c0 -0.8466034 0.6863098 -1.5329132 1.5329132 -1.5329132l146.12411 0c0.40655518 0 0.79644775 0.16151428 1.0839233 0.44898987c0.2874756 0.2874756 0.4489746 0.67736816 0.4489746 1.0839233l0 6.131439c0 0.8466034 -0.68629456 1.5329132 -1.532898 1.5329132l-146.12411 0c-0.8466034 0 -1.5329132 -0.6863098 -1.5329132 -1.5329132z" fill-rule="evenodd"/><path fill="#51de18" d="m77.404724 151.14058l0 0c0 -5.7893066 4.6931686 -10.482483 10.482483 -10.482483l41.937347 0l0 0c2.7801208 0 5.4463806 1.1044006 7.4122314 3.0702515c1.9658508 1.9658508 3.0702515 4.6321106 3.0702515 7.4122314l0 41.928696c0 5.7893066 -4.6931763 10.482483 -10.482483 10.482483l-41.937347 0c-5.7893143 0 -10.482483 -4.6931763 -10.482483 -10.482483z" fill-rule="evenodd"/><path fill="#51de18" d="m82.419716 154.48474l0 0c0 -4.8668976 3.945404 -8.812302 8.812309 -8.812302l35.25544 0l0 0c2.3371658 0 4.5786057 0.9284363 6.2312393 2.58107c1.6526337 1.6526184 2.58107 3.8940735 2.58107 6.2312317l0 35.24817c0 4.8668976 -3.945404 8.812302 -8.812309 8.812302l-35.25544 0c-4.866905 0 -8.812309 -3.945404 -8.812309 -8.812302z" fill-rule="evenodd"/><path fill="#51de18" d="m87.434715 157.82509l0 0c0 -3.9423828 3.1959305 -7.1383057 7.1383133 -7.1383057l28.55828 0l0 0c1.8931961 0 3.7088547 0.7520752 5.0475388 2.0907593c1.3386993 1.3386993 2.0907745 3.154358 2.0907745 5.0475464l0 28.552383c0 3.9423828 -3.195938 7.1383057 -7.1383133 7.1383057l-28.55828 0c-3.9423828 0 -7.1383133 -3.1959229 -7.1383133 -7.1383057z" fill-rule="evenodd"/><path fill="#51de18" d="m77.404724 156.5088l4.9882507 0l0 31.206604l-4.9882507 0z" fill-rule="evenodd"/><path fill="#51de18" d="m135.29597 156.5088l4.9882507 0l0 31.206604l-4.9882507 0z" fill-rule="evenodd"/><path fill="#51de18" d="m82.419716 158.7846l4.9882584 0l0 26.653732l-4.9882584 0z" fill-rule="evenodd"/><path fill="#51de18" d="m130.28098 158.7846l4.988266 0l0 26.653732l-4.988266 0z" fill-rule="evenodd"/><path fill="#51de18" d="m92.19144 157.94221l0 0c0 -1.7521667 1.4204102 -3.1725922 3.172577 -3.1725922l26.970871 0c0.84142303 0 1.6483765 0.33425903 2.2433548 0.92922974c0.5949707 0.59498596 0.9292221 1.4019318 0.9292221 2.2433624l0 12.689941c0 1.7521667 -1.4204102 3.1725922 -3.172577 3.1725922l-26.970871 0c-1.7521667 0 -3.172577 -1.4204254 -3.172577 -3.1725922z" fill-rule="evenodd"/><path fill="#51de18" d="m163.68439 151.14058l0 0c0 -5.7893066 4.693161 -10.482483 10.482483 -10.482483l41.937332 0l0 0c2.780136 0 5.446396 1.1044006 7.4122467 3.0702515c1.9658508 1.9658508 3.0702515 4.6321106 3.0702515 7.4122314l0 41.928696c0 5.7893066 -4.6931763 10.482483 -10.482498 10.482483l-41.937332 0c-5.789322 0 -10.482483 -4.6931763 -10.482483 -10.482483z" fill-rule="evenodd"/><path fill="#51de18" d="m168.69939 154.48474l0 0c0 -4.8668976 3.9453888 -8.812302 8.812302 -8.812302l35.255432 0l0 0c2.3371735 0 4.5786133 0.9284363 6.231247 2.58107c1.6526184 1.6526184 2.5810547 3.8940735 2.5810547 6.2312317l0 35.24817c0 4.8668976 -3.945404 8.812302 -8.812302 8.812302l-35.255432 0c-4.866913 0 -8.812302 -3.945404 -8.812302 -8.812302z" fill-rule="evenodd"/><path fill="#51de18" d="m173.71437 157.82509l0 0c0 -3.9423828 3.195938 -7.1383057 7.138321 -7.1383057l28.558273 0l0 0c1.8932037 0 3.7088623 0.7520752 5.0475464 2.0907593c1.3386993 1.3386993 2.0907593 3.154358 2.0907593 5.0475464l0 28.552383c0 3.9423828 -3.1959229 7.1383057 -7.1383057 7.1383057l-28.558273 0c-3.9423828 0 -7.138321 -3.1959229 -7.138321 -7.1383057z" fill-rule="evenodd"/><path fill="#51de18" d="m221.57564 156.5088l4.9882507 0l0 31.206604l-4.9882507 0z" fill-rule="evenodd"/><path fill="#51de18" d="m168.69939 158.7846l4.9882507 0l0 26.653732l-4.9882507 0z" fill-rule="evenodd"/><path fill="#51de18" d="m216.56064 158.7846l4.9882507 0l0 26.653732l-4.9882507 0z" fill-rule="evenodd"/><path fill="#51de18" d="m178.4711 157.94221l0 0c0 -1.7521667 1.4204102 -3.1725922 3.172577 -3.1725922l26.970871 0c0.8414154 0 1.6483765 0.33425903 2.2433472 0.92922974c0.5949707 0.59498596 0.92922974 1.4019318 0.92922974 2.2433624l0 12.689941c0 1.7521667 -1.4204102 3.1725922 -3.172577 3.1725922l-26.970871 0c-1.7521667 0 -3.172577 -1.4204254 -3.172577 -3.1725922z" fill-rule="evenodd"/><path fill="#51de18" d="m163.68439 156.5088l4.9882507 0l0 31.206604l-4.9882507 0z" fill-rule="evenodd"/><path fill="#e03027" d="m147.68439 142.92876l0 0c0 -5.789322 4.693161 -10.482483 10.482483 -10.482483l41.937332 0l0 0c2.780136 0 5.446396 1.1044006 7.4122467 3.0702362c1.9658508 1.9658508 3.0702515 4.6321106 3.0702515 7.4122467l0 41.92868c0 5.789322 -4.6931763 10.482483 -10.482498 10.482483l-41.937332 0c-5.789322 0 -10.482483 -4.693161 -10.482483 -10.482483z" fill-rule="evenodd"/><path fill="#e03027" d="m61.404263 162.54022l0 0c0 -0.8466034 0.686306 -1.5329132 1.5329056 -1.5329132l146.12411 0c0.40655518 0 0.79644775 0.16149902 1.0839233 0.4489746c0.2874756 0.2874756 0.4489746 0.6773834 0.4489746 1.0839386l0 6.131439c0 0.84658813 -0.68629456 1.532898 -1.532898 1.532898l-146.12411 0c-0.8465996 0 -1.5329056 -0.6863098 -1.5329056 -1.532898z" fill-rule="evenodd"/><path fill="#e03027" d="m61.40472 142.92876l0 0c0 -5.789322 4.6931725 -10.482483 10.482487 -10.482483l41.93734 0l0 0c2.7801285 0 5.446396 1.1044006 7.412239 3.0702362c1.9658508 1.9658508 3.0702515 4.6321106 3.0702515 7.4122467l0 41.92868c0 5.789322 -4.6931686 10.482483 -10.482491 10.482483l-41.93734 0c-5.7893143 0 -10.482487 -4.693161 -10.482487 -10.482483z" fill-rule="evenodd"/><path fill="#ffaaa7" d="m61.404263 151.90266l0 0c0 -1.1603851 0.94068146 -2.1010742 2.1010742 -2.1010742l144.98776 0c0.557251 0 1.0916595 0.22135925 1.4856873 0.61538696c0.3940277 0.3940277 0.61538696 0.92845154 0.61538696 1.4856873l0 8.404037c0 1.1604004 -0.9406738 2.1010742 -2.1010742 2.1010742l-144.98776 0c-1.1603928 0 -2.1010742 -0.9406738 -2.1010742 -2.1010742z" fill-rule="evenodd"/><path fill="#f73d35" d="m61.404263 154.75204l0 0c0 -0.8466034 0.686306 -1.5329132 1.5329056 -1.5329132l146.12411 0c0.40655518 0 0.79644775 0.16151428 1.0839233 0.44898987c0.2874756 0.2874756 0.4489746 0.67736816 0.4489746 1.0839233l0 6.131439c0 0.8466034 -0.68629456 1.5329132 -1.532898 1.5329132l-146.12411 0c-0.8465996 0 -1.5329056 -0.6863098 -1.5329056 -1.5329132z" fill-rule="evenodd"/><path fill="#f73d35" d="m61.40472 135.14058l0 0c0 -5.7893066 4.6931725 -10.482483 10.482487 -10.482483l41.93734 0l0 0c2.7801285 0 5.446396 1.1044006 7.412239 3.0702515c1.9658508 1.9658508 3.0702515 4.6321106 3.0702515 7.4122314l0 41.928696c0 5.7893066 -4.6931686 10.482483 -10.482491 10.482483l-41.93734 0c-5.7893143 0 -10.482487 -4.6931763 -10.482487 -10.482483z" fill-rule="evenodd"/><path fill="#e03027" d="m66.419716 138.48474l0 0c0 -4.8668976 3.945404 -8.812302 8.812309 -8.812302l35.25544 0l0 0c2.3371658 0 4.5786133 0.9284363 6.2312393 2.58107c1.652626 1.6526184 2.5810623 3.8940735 2.5810623 6.2312317l0 35.24817c0 4.8668976 -3.945404 8.812302 -8.812302 8.812302l-35.25544 0c-4.866905 0 -8.812309 -3.945404 -8.812309 -8.812302z" fill-rule="evenodd"/><path fill="#fc8076" d="m71.434715 141.82509l0 0c0 -3.9423828 3.1959305 -7.1383057 7.1383133 -7.1383057l28.55828 0l0 0c1.8931961 0 3.7088547 0.7520752 5.0475464 2.0907593c1.3386917 1.3386993 2.0907593 3.154358 2.0907593 5.0475464l0 28.552383c0 3.9423828 -3.1959305 7.1383057 -7.1383057 7.1383057l-28.55828 0c-3.9423828 0 -7.1383133 -3.1959229 -7.1383133 -7.1383057z" fill-rule="evenodd"/><path fill="#fc8076" d="m61.40472 140.5088l4.9882545 0l0 31.206604l-4.9882545 0z" fill-rule="evenodd"/><path fill="#fc8076" d="m119.29598 140.5088l4.9882507 0l0 31.206604l-4.9882507 0z" fill-rule="evenodd"/><path fill="#f73d35" d="m66.419716 142.7846l4.9882584 0l0 26.653732l-4.9882584 0z" fill-rule="evenodd"/><path fill="#f73d35" d="m114.28098 142.7846l4.9882507 0l0 26.653732l-4.9882507 0z" fill-rule="evenodd"/><path fill="#ffaaa7" d="m76.19144 141.94221l0 0c0 -1.7521667 1.4204102 -3.1725922 3.172577 -3.1725922l26.970871 0c0.84142303 0 1.6483765 0.33425903 2.2433548 0.92922974c0.5949707 0.59498596 0.9292221 1.4019318 0.9292221 2.2433624l0 12.689941c0 1.7521667 -1.4204102 3.1725922 -3.172577 3.1725922l-26.970871 0c-1.7521667 0 -3.172577 -1.4204254 -3.172577 -3.1725922z" fill-rule="evenodd"/><path fill="#f73d35" d="m147.68439 135.14058l0 0c0 -5.7893066 4.693161 -10.482483 10.482483 -10.482483l41.937332 0l0 0c2.780136 0 5.446396 1.1044006 7.4122467 3.0702515c1.9658508 1.9658508 3.0702515 4.6321106 3.0702515 7.4122314l0 41.928696c0 5.7893066 -4.6931763 10.482483 -10.482498 10.482483l-41.937332 0c-5.789322 0 -10.482483 -4.6931763 -10.482483 -10.482483z" fill-rule="evenodd"/><path fill="#e03027" d="m152.69939 138.48474l0 0c0 -4.8668976 3.9453888 -8.812302 8.812302 -8.812302l35.255432 0l0 0c2.3371735 0 4.5786133 0.9284363 6.231247 2.58107c1.6526184 1.6526184 2.5810547 3.8940735 2.5810547 6.2312317l0 35.24817c0 4.8668976 -3.945404 8.812302 -8.812302 8.812302l-35.255432 0c-4.866913 0 -8.812302 -3.945404 -8.812302 -8.812302z" fill-rule="evenodd"/><path fill="#fc8076" d="m157.71437 141.82509l0 0c0 -3.9423828 3.195938 -7.1383057 7.138321 -7.1383057l28.558273 0l0 0c1.8932037 0 3.7088623 0.7520752 5.0475464 2.0907593c1.3386993 1.3386993 2.0907593 3.154358 2.0907593 5.0475464l0 28.552383c0 3.9423828 -3.1959229 7.1383057 -7.1383057 7.1383057l-28.558273 0c-3.9423828 0 -7.138321 -3.1959229 -7.138321 -7.1383057z" fill-rule="evenodd"/><path fill="#fc8076" d="m205.57564 140.5088l4.9882507 0l0 31.206604l-4.9882507 0z" fill-rule="evenodd"/><path fill="#f73d35" d="m152.69939 142.7846l4.9882507 0l0 26.653732l-4.9882507 0z" fill-rule="evenodd"/><path fill="#f73d35" d="m200.56064 142.7846l4.9882507 0l0 26.653732l-4.9882507 0z" fill-rule="evenodd"/><path fill="#ffaaa7" d="m162.4711 141.94221l0 0c0 -1.7521667 1.4204102 -3.1725922 3.172577 -3.1725922l26.970871 0c0.8414154 0 1.6483765 0.33425903 2.2433472 0.92922974c0.5949707 0.59498596 0.92922974 1.4019318 0.92922974 2.2433624l0 12.689941c0 1.7521667 -1.4204102 3.1725922 -3.172577 3.1725922l-26.970871 0c-1.7521667 0 -3.172577 -1.4204254 -3.172577 -3.1725922z" fill-rule="evenodd"/><path fill="#fc8076" d="m147.68439 140.5088l4.9882507 0l0 31.206604l-4.9882507 0z" fill-rule="evenodd"/></g></svg>