<svg version="1.1" viewBox="0.0 0.0 288.0 384.0" fill="none" stroke="none" stroke-linecap="square" stroke-miterlimit="10" xmlns:xlink="http://www.w3.org/1999/xlink" xmlns="http://www.w3.org/2000/svg"><clipPath id="g3b18a6c779a_0_6810.0"><path d="m0 0l288.0 0l0 384.0l-288.0 0l0 -384.0z" clip-rule="nonzero"/></clipPath><g clip-path="url(#g3b18a6c779a_0_6810.0)"><path fill="#161d25" d="m0 0l288.0 0l0 384.0l-288.0 0z" fill-rule="evenodd"/><path fill="#3b4652" d="m5.7007875 34.135216l0 0c0 -9.966135 8.079147 -18.045282 18.04528 -18.045282l240.50787 0c4.7858887 0 9.375793 1.9011936 12.759949 5.2853394c3.3841248 3.3841476 5.2853394 7.9740353 5.2853394 12.759943l0 324.2244c0 9.9661255 -8.079163 18.045288 -18.045288 18.045288l-240.50787 0l0 0c-9.966134 0 -18.04528 -8.079163 -18.04528 -18.045288z" fill-rule="evenodd"/><path stroke="#3b4652" stroke-width="4.0" stroke-linejoin="round" stroke-linecap="butt" d="m5.7007875 34.135216l0 0c0 -9.966135 8.079147 -18.045282 18.04528 -18.045282l240.50787 0c4.7858887 0 9.375793 1.9011936 12.759949 5.2853394c3.3841248 3.3841476 5.2853394 7.9740353 5.2853394 12.759943l0 324.2244c0 9.9661255 -8.079163 18.045288 -18.045288 18.045288l-240.50787 0l0 0c-9.966134 0 -18.04528 -8.079163 -18.04528 -18.045288z" fill-rule="evenodd"/><path fill="#29323c" d="m5.7007875 25.639769l0 0c0 -9.966133 8.079147 -18.04528 18.04528 -18.04528l240.50787 0c4.7858887 0 9.375793 1.9011936 12.759949 5.2853403c3.3841248 3.3841467 5.2853394 7.9740343 5.2853394 12.75994l0 324.2244c0 9.9661255 -8.079163 18.045288 -18.045288 18.045288l-240.50787 0l0 0c-9.966134 0 -18.04528 -8.079163 -18.04528 -18.045288z" fill-rule="evenodd"/><path stroke="#3b4652" stroke-width="4.0" stroke-linejoin="round" stroke-linecap="butt" d="m5.7007875 25.639769l0 0c0 -9.966133 8.079147 -18.04528 18.04528 -18.04528l240.50787 0c4.7858887 0 9.375793 1.9011936 12.759949 5.2853403c3.3841248 3.3841467 5.2853394 7.9740343 5.2853394 12.75994l0 324.2244c0 9.9661255 -8.079163 18.045288 -18.045288 18.045288l-240.50787 0l0 0c-9.966134 0 -18.04528 -8.079163 -18.04528 -18.045288z" fill-rule="evenodd"/><path fill="#3b4652" d="m69.849754 94.41273l0 0c0 -2.2555923 1.8285217 -4.084114 4.0841217 -4.084114l35.296234 0c1.0831757 0 2.1219864 0.43029022 2.8879013 1.1962128c0.76592255 0.7659149 1.1962128 1.8047256 1.1962128 2.8879013l0 16.335976c0 2.2555923 -1.8285217 4.084114 -4.084114 4.084114l-35.296234 0c-2.2556 0 -4.0841217 -1.8285217 -4.0841217 -4.084114z" fill-rule="evenodd"/><path fill="#3b4652" d="m132.00058 99.48992l0 0c0 -0.48735046 0.39508057 -0.88243103 0.88243103 -0.88243103l3.529602 0l0 0c0.23402405 0 0.45848083 0.0929718 0.6239624 0.258461c0.16549683 0.16548157 0.25846863 0.38993073 0.25846863 0.62397003l0 49.9878c0 0.48735046 -0.39508057 0.8824158 -0.88243103 0.8824158l-3.529602 0c-0.48735046 0 -0.88243103 -0.3950653 -0.88243103 -0.8824158z" fill-rule="evenodd"/><path fill="#3b4652" d="m128.19807 127.241875l0 0c0 -1.5870819 1.2865906 -2.8736649 2.8736725 -2.8736649l11.494308 0l0 0c0.762146 0 1.4930725 0.3027649 2.0319824 0.84168243c0.5389252 0.53891754 0.8416748 1.269844 0.8416748 2.0319824l0 18.756874c0 1.5870819 -1.2865753 2.8736725 -2.8736572 2.8736725l-11.494308 0c-1.5870819 0 -2.8736725 -1.2865906 -2.8736725 -2.8736725z" fill-rule="evenodd"/><path fill="#3b4652" d="m149.94684 122.18258l0 0c0 -1.0793228 0.8749542 -1.954277 1.9542694 -1.954277l7.8168793 0l0 0c0.5182953 0 1.0153809 0.20589447 1.3818817 0.5723953c0.36650085 0.36649323 0.5723877 0.86357117 0.5723877 1.3818817l0 21.371803c0 1.0793152 -0.8749542 1.9542694 -1.9542694 1.9542694l-7.8168793 0c-1.0793152 0 -1.9542694 -0.8749542 -1.9542694 -1.9542694z" fill-rule="evenodd"/><path fill="#3b4652" d="m104.8523 99.56846l0 0c0 -0.5307236 0.43023682 -0.960968 0.960968 -0.960968l30.510094 0c0.25486755 0 0.4992981 0.101242065 0.6795044 0.28146362c0.18022156 0.18021393 0.28146362 0.42464447 0.28146362 0.6795044l0 3.8437576c0 0.5307312 -0.43023682 0.960968 -0.960968 0.960968l-30.510094 0c-0.5307312 0 -0.960968 -0.43023682 -0.960968 -0.960968z" fill-rule="evenodd"/><path fill="#3b4652" d="m69.849754 94.41273l0 0c0 -2.2555923 1.8285217 -4.084114 4.0841217 -4.084114l35.296234 0c1.0831757 0 2.1219864 0.43029022 2.8879013 1.1962128c0.76592255 0.7659149 1.1962128 1.8047256 1.1962128 2.8879013l0 16.335976c0 2.2555923 -1.8285217 4.084114 -4.084114 4.084114l-35.296234 0c-2.2556 0 -4.0841217 -1.8285217 -4.0841217 -4.084114z" fill-rule="evenodd"/><path fill="#3b4652" d="m132.00058 111.719154l0 0c0 -0.48735046 0.39508057 -0.88243103 0.88243103 -0.88243103l3.529602 0l0 0c0.23402405 0 0.45848083 0.0929718 0.6239624 0.258461c0.16549683 0.1654892 0.25846863 0.38993835 0.25846863 0.62397003l0 37.76342c0 0.48735046 -0.39508057 0.8824158 -0.88243103 0.8824158l-3.529602 0c-0.48735046 0 -0.88243103 -0.3950653 -0.88243103 -0.8824158z" fill-rule="evenodd"/><path fill="#3b4652" d="m73.51578 94.239876l0 0c0 -0.7578201 0.6143341 -1.3721542 1.3721542 -1.3721542l18.239494 0c0.36392212 0 0.7129288 0.1445694 0.9702606 0.40189362c0.25733185 0.25733185 0.40189362 0.6063385 0.40189362 0.9702606l0 5.4884415c0 0.7578201 -0.6143341 1.3721542 -1.3721542 1.3721542l-18.239494 0l0 0c-0.7578201 0 -1.3721542 -0.6143341 -1.3721542 -1.3721542z" fill-rule="evenodd"/><path fill="#3b4652" d="m96.6265 94.239876l0 0c0 -0.7578201 0.6143341 -1.3721542 1.3721466 -1.3721542l5.9596786 0c0.36392212 0 0.7129288 0.1445694 0.9702606 0.40189362c0.25732422 0.25733185 0.40189362 0.6063385 0.40189362 0.9702606l0 5.4884415c0 0.7578201 -0.6143341 1.3721542 -1.3721542 1.3721542l-5.9596786 0c-0.7578125 0 -1.3721466 -0.6143341 -1.3721466 -1.3721542z" fill-rule="evenodd"/><path fill="#3b4652" d="m69.849754 107.97608l0 0c0 -0.7578201 0.6143341 -1.3721542 1.3721542 -1.3721542l40.72016 0c0.36392212 0 0.7129288 0.1445694 0.9702606 0.40189362c0.25732422 0.25733185 0.40189362 0.60634613 0.40189362 0.9702606l0 5.4884415c0 0.7578201 -0.6143341 1.3721542 -1.3721542 1.3721542l-40.72016 0l0 0c-0.7578201 0 -1.3721542 -0.6143341 -1.3721542 -1.3721542z" fill-rule="evenodd"/><path fill="#3b4652" d="m148.12614 147.40607l0 0c0 -3.0695496 2.4883575 -5.557907 5.557907 -5.557907l69.160385 0c1.47406 0 2.8877258 0.5855713 3.9300385 1.6278687c1.0423126 1.0423126 1.6278839 2.4559937 1.6278839 3.9300385l0 22.230972c0 3.0695496 -2.4883728 5.557907 -5.5579224 5.557907l-69.160385 0c-3.0695496 0 -5.557907 -2.4883575 -5.557907 -5.557907z" fill-rule="evenodd"/><path fill="#3b4652" d="m152.27364 159.97388l0 0c0 -1.681488 1.3631134 -3.0446014 3.0446167 -3.0446014l30.556198 0c0.80747986 0 1.5818939 0.32077026 2.1528625 0.8917389c0.5709839 0.5709686 0.89175415 1.3453827 0.89175415 2.1528625l0 12.178055c0 1.681488 -1.3631287 3.0446167 -3.0446167 3.0446167l-30.556198 0c-1.6815033 0 -3.0446167 -1.3631287 -3.0446167 -3.0446167z" fill-rule="evenodd"/><path fill="#3b4652" d="m216.84415 145.03137l0 0c0 -1.7580414 1.4251709 -3.1832123 3.1832123 -3.1832123l24.679626 0c0.8442383 0 1.6539001 0.33537292 2.2508698 0.9323425c0.5969696 0.5969696 0.9323425 1.4066315 0.9323425 2.2508698l0 12.732437c0 1.7580414 -1.4251709 3.1832123 -3.1832123 3.1832123l-24.679626 0c-1.7580414 0 -3.1832123 -1.4251709 -3.1832123 -3.1832123z" fill-rule="evenodd"/><path fill="#3b4652" d="m107.727875 151.47171l0 0c0 -5.3149414 4.308609 -9.62355 9.623543 -9.62355l38.49302 0l0 0c2.5523224 0 5.000107 1.0139008 6.8048706 2.8186646c1.8047638 1.8047638 2.8186646 4.2525635 2.8186646 6.804886l0 46.309967c0 5.314926 -4.3085938 9.623535 -9.623535 9.623535l-38.49302 0c-5.314934 0 -9.623543 -4.308609 -9.623543 -9.623535z" fill-rule="evenodd"/><path fill="#3b4652" d="m119.83116 188.27008l0 0c0 -2.1127014 1.7126923 -3.8253937 3.8253937 -3.8253937l30.29747 0c1.0145569 0 1.9875488 0.4030304 2.704956 1.1204376c0.7174072 0.71739197 1.1204376 1.6903992 1.1204376 2.704956l0 15.301117c0 2.1127014 -1.7126923 3.8253937 -3.8253937 3.8253937l-30.29747 0c-2.1127014 0 -3.8253937 -1.7126923 -3.8253937 -3.8253937z" fill-rule="evenodd"/><path fill="#3b4652" d="m139.33925 156.64551l0 0c0 -1.6968079 1.375534 -3.0723267 3.0723267 -3.0723267l12.28894 0l0 0c0.8148346 0 1.5962982 0.3236847 2.17247 0.89985657c0.5761719 0.5761719 0.89985657 1.3576355 0.89985657 2.17247l0 21.796783c0 1.6967926 -1.3755188 3.0723267 -3.0723267 3.0723267l-12.28894 0c-1.6967926 0 -3.0723267 -1.375534 -3.0723267 -3.0723267z" fill-rule="evenodd"/><path fill="#3b4652" d="m127.19998 144.229l0 0c0 -1.3140564 1.0652618 -2.3793182 2.3793182 -2.3793182l21.9077 0c0.6310272 0 1.2362213 0.2506714 1.6824341 0.69688416c0.44621277 0.44621277 0.69688416 1.0513916 0.69688416 1.6824341l0 9.516998c0 1.3140564 -1.0652618 2.3793182 -2.3793182 2.3793182l-21.9077 0c-1.3140564 0 -2.3793182 -1.0652618 -2.3793182 -2.3793182z" fill-rule="evenodd"/><path fill="#3b4652" d="m107.727875 159.63063l0 0c0 -1.115036 0.9039154 -2.0189514 2.018959 -2.0189514l8.075584 0l0 0c0.5354614 0 1.0489883 0.21270752 1.4276199 0.5913391c0.37862396 0.37861633 0.5913391 0.8921509 0.5913391 1.4276123l0 45.746643c0 1.115036 -0.9039154 2.0189514 -2.018959 2.0189514l-8.075584 0c-1.1150436 0 -2.018959 -0.9039154 -2.018959 -2.0189514z" fill-rule="evenodd"/><path fill="#3b4652" d="m170.70602 146.69029l0 0c0 -1.0793304 0.8749542 -1.9542847 1.9542847 -1.9542847l29.299622 0c0.51831055 0 1.0153809 0.2059021 1.3818817 0.57240295c0.36650085 0.3664856 0.57240295 0.86357117 0.57240295 1.3818817l0 7.816864c0 1.0793152 -0.8749695 1.9542847 -1.9542847 1.9542847l-29.299622 0c-1.0793304 0 -1.9542847 -0.8749695 -1.9542847 -1.9542847z" fill-rule="evenodd"/><path fill="#3b4652" d="m208.26009 146.23851l0 0c0 -0.82925415 0.6722412 -1.5015106 1.5015106 -1.5015106l6.0058746 0l0 0c0.39822388 0 0.7801361 0.15820312 1.0617218 0.43978882c0.2815857 0.2815857 0.43978882 0.6634979 0.43978882 1.0617218l0 9.193634c0 0.8292694 -0.67225647 1.5015106 -1.5015106 1.5015106l-6.0058746 0c-0.8292694 0 -1.5015106 -0.6722412 -1.5015106 -1.5015106z" fill-rule="evenodd"/><path fill="#3b4652" d="m237.38342 143.59999l0 0c0 -0.9670563 0.78393555 -1.7509918 1.7509918 -1.7509918l7.003769 0l0 0c0.464386 0 0.9097595 0.18447876 1.2381439 0.5128479c0.32836914 0.32836914 0.5128479 0.7737427 0.5128479 1.2381439l0 15.596878c0 0.967041 -0.7839508 1.7509918 -1.7509918 1.7509918l-7.003769 0c-0.9670563 0 -1.7509918 -0.7839508 -1.7509918 -1.7509918z" fill-rule="evenodd"/><path fill="#3b4652" d="m201.74576 163.32234l0 0c0 -1.3140564 1.0652466 -2.3793182 2.3793182 -2.3793182l21.9077 0c0.6310272 0 1.2362213 0.2506714 1.6824188 0.69688416c0.44621277 0.44621277 0.6968994 1.0513916 0.6968994 1.6824341l0 9.516998c0 1.3140564 -1.0652618 2.3793182 -2.3793182 2.3793182l-21.9077 0c-1.3140717 0 -2.3793182 -1.0652618 -2.3793182 -2.3793182z" fill-rule="evenodd"/><path fill="#3b4652" d="m69.849754 107.97608l0 0c0 -0.7578201 0.6143341 -1.3721542 1.3721542 -1.3721542l40.72016 0c0.36392212 0 0.7129288 0.1445694 0.9702606 0.40189362c0.25732422 0.25733185 0.40189362 0.60634613 0.40189362 0.9702606l0 5.4884415c0 0.7578201 -0.6143341 1.3721542 -1.3721542 1.3721542l-40.72016 0l0 0c-0.7578201 0 -1.3721542 -0.6143341 -1.3721542 -1.3721542z" fill-rule="evenodd"/><path fill="#3b4652" d="m85.15265 134.1957l0 0c0 -2.7072144 2.194641 -4.9018555 4.901863 -4.9018555l19.606857 0l0 0c1.3000565 0 2.5468674 0.516449 3.4661407 1.4357147c0.919281 0.919281 1.4357224 2.166092 1.4357224 3.4661407l0 27.118896c0 2.7072296 -2.1946335 4.9018707 -4.901863 4.9018707l-19.606857 0c-2.707222 0 -4.901863 -2.194641 -4.901863 -4.9018707z" fill-rule="evenodd"/><path fill="#3b4652" d="m86.40941 170.70929l0 0c0 -2.4775848 2.0084763 -4.4860687 4.486061 -4.4860687l17.943695 0l0 0c1.1897736 0 2.3308258 0.472641 3.1721191 1.3139343c0.84130096 0.8413086 1.313942 1.9823456 1.313942 3.1721344l0 21.15918c0 2.4775696 -2.008484 4.4860535 -4.486061 4.4860535l-17.943695 0c-2.4775848 0 -4.486061 -2.008484 -4.486061 -4.4860535z" fill-rule="evenodd"/><path fill="#3b4652" d="m85.15265 201.25319l0 0c0 -2.7072296 2.194641 -4.9018707 4.901863 -4.9018707l19.606857 0l0 0c1.3000565 0 2.5468674 0.516449 3.4661407 1.43573c0.919281 0.919281 1.4357224 2.166092 1.4357224 3.4661407l0 27.118896c0 2.7072144 -2.1946335 4.9018555 -4.901863 4.9018555l-19.606857 0c-2.707222 0 -4.901863 -2.194641 -4.901863 -4.9018555z" fill-rule="evenodd"/><path fill="#3b4652" d="m114.5756 207.28105l0 0c0 -2.870514 2.3270187 -5.1975403 5.197548 -5.1975403l53.2493 0c1.378479 0 2.7005005 0.54759216 3.675232 1.5223236c0.9747162 0.97473145 1.5223236 2.296753 1.5223236 3.6752167l0 20.789566c0 2.870514 -2.3270264 5.1975403 -5.1975555 5.1975403l-53.2493 0c-2.8705292 0 -5.197548 -2.3270264 -5.197548 -5.1975403z" fill-rule="evenodd"/><path fill="#3b4652" d="m149.94684 176.08386l0 0c0 -2.8705292 2.327011 -5.1975555 5.1975403 -5.1975555l48.592407 0c1.3784637 0 2.7004852 0.5476074 3.6752167 1.5223389c0.9747162 0.9747162 1.5223236 2.2967377 1.5223236 3.6752167l0 20.78955c0 2.8705292 -2.3270264 5.1975403 -5.1975403 5.1975403l-48.592407 0c-2.8705292 0 -5.1975403 -2.327011 -5.1975403 -5.1975403z" fill-rule="evenodd"/><path fill="#3b4652" d="m88.04149 133.94753l0 0c0 -0.9747009 0.7901535 -1.7648468 1.7648544 -1.7648468l7.0592117 0l0 0c0.46807098 0 0.9169693 0.1859436 1.2479401 0.51690674c0.33097076 0.3309784 0.51691437 0.7798767 0.51691437 1.2479401l0 21.750656c0 0.9747009 -0.7901535 1.7648468 -1.7648544 1.7648468l-7.0592117 0c-0.9747009 0 -1.7648544 -0.7901459 -1.7648544 -1.7648468z" fill-rule="evenodd"/><path fill="#3b4652" d="m88.04149 201.00502l0 0c0 -0.9747009 0.7901535 -1.7648468 1.7648544 -1.7648468l7.0592117 0l0 0c0.46807098 0 0.9169693 0.18592834 1.2479401 0.51690674c0.33097076 0.3309784 0.51691437 0.7798767 0.51691437 1.2479401l0 21.75064c0 0.9747009 -0.7901535 1.7648621 -1.7648544 1.7648621l-7.0592117 0c-0.9747009 0 -1.7648544 -0.79016113 -1.7648544 -1.7648621z" fill-rule="evenodd"/><path fill="#3b4652" d="m105.86264 130.74452l0 0c0 -0.80119324 0.649498 -1.4506836 1.4506912 -1.4506836l5.802597 0l0 0c0.38474274 0 0.7537384 0.15283203 1.025795 0.42489624c0.27205658 0.2720642 0.42489624 0.64105225 0.42489624 1.0257874l0 34.298447c0 0.80119324 -0.649498 1.4506836 -1.4506912 1.4506836l-5.802597 0c-0.80119324 0 -1.4506912 -0.64949036 -1.4506912 -1.4506836z" fill-rule="evenodd"/><path fill="#3b4652" d="m166.49512 204.0378l0 0c0 -1.0793304 0.8749542 -1.9542847 1.9542694 -1.9542847l7.8168793 0l0 0c0.5182953 0 1.0153809 0.2059021 1.3818817 0.57240295c0.36650085 0.3664856 0.5723877 0.86357117 0.5723877 1.3818817l0 27.276093c0 1.0793152 -0.8749542 1.9542694 -1.9542694 1.9542694l-7.8168793 0c-1.0793152 0 -1.9542694 -0.8749542 -1.9542694 -1.9542694z" fill-rule="evenodd"/><path fill="#3b4652" d="m194.16656 173.3488l0 0c0 -1.3600006 1.1024933 -2.462494 2.4624786 -2.462494l9.849625 0l0 0c0.65309143 0 1.2794342 0.2594452 1.7412415 0.72125244c0.46180725 0.46180725 0.7212372 1.08815 0.7212372 1.7412415l0 26.259674c0 1.3600006 -1.102478 2.4624786 -2.4624786 2.4624786l-9.849625 0c-1.3599854 0 -2.4624786 -1.102478 -2.4624786 -2.4624786z" fill-rule="evenodd"/><path fill="#3b4652" d="m122.83457 208.12875l0 0c0 -1.1941376 0.96804047 -2.1621704 2.1621857 -2.1621704l25.08622 0c0.5734558 0 1.1234131 0.22779846 1.5289001 0.6332855c0.40548706 0.40548706 0.6332855 0.95544434 0.6332855 1.5288849l0 8.648453c0 1.1941376 -0.9680481 2.1621857 -2.1621857 2.1621857l-25.08622 0c-1.1941452 0 -2.1621857 -0.9680481 -2.1621857 -2.1621857z" fill-rule="evenodd"/><path fill="#3b4652" d="m155.61172 176.80064l0 0c0 -1.1762695 0.9535675 -2.129837 2.129837 -2.129837l11.845459 0c0.5648804 0 1.1066132 0.22439575 1.5060272 0.6238098c0.39942932 0.39942932 0.6238098 0.9411621 0.6238098 1.5060272l0 8.519104c0 1.1762695 -0.95355225 2.129837 -2.129837 2.129837l-11.845459 0l0 0c-1.1762695 0 -2.129837 -0.9535675 -2.129837 -2.129837z" fill-rule="evenodd"/><path fill="#3b4652" d="m99.24617 170.96696l0 0c0 -0.9747162 0.7901535 -1.7648621 1.7648544 -1.7648621l7.0592117 0l0 0c0.46807098 0 0.9169693 0.1859436 1.2479401 0.516922c0.3309784 0.33096313 0.51691437 0.77986145 0.51691437 1.2479401l0 19.42218c0 0.9747009 -0.7901535 1.7648621 -1.7648544 1.7648621l-7.0592117 0c-0.9747009 0 -1.7648544 -0.79016113 -1.7648544 -1.7648621z" fill-rule="evenodd"/><path fill="#3b4652" d="m91.3047 182.48474l0 0c0 -1.0793152 0.87496185 -1.9542694 1.954277 -1.9542694l10.6442795 0c0.51831055 0 1.0153885 0.2059021 1.3818817 0.5723877c0.36650085 0.36650085 0.5723953 0.8635864 0.5723953 1.3818817l0 7.8168793c0 1.0793152 -0.8749542 1.9542694 -1.954277 1.9542694l-10.6442795 0l0 0c-1.0793152 0 -1.954277 -0.8749542 -1.954277 -1.9542694z" fill-rule="evenodd"/><path fill="#3b4652" d="m198.24393 181.10165l0 0c0 -0.60728455 0.4922943 -1.0995789 1.0995636 -1.0995789l4.3981476 0l0 0c0.29162598 0 0.5713043 0.115859985 0.7775116 0.32206726c0.20620728 0.20620728 0.322052 0.48588562 0.322052 0.7775116l0 10.773666c0 0.60728455 -0.4922943 1.0995789 -1.0995636 1.0995789l-4.3981476 0c-0.6072693 0 -1.0995636 -0.4922943 -1.0995636 -1.0995789z" fill-rule="evenodd"/><path fill="#51de18" d="m53.84976 78.41273l0 0c0 -2.2555923 1.8285179 -4.084114 4.084114 -4.084114l35.296238 0c1.0831757 0 2.1219864 0.43029022 2.8879013 1.1962128c0.76592255 0.7659149 1.1962128 1.8047256 1.1962128 2.8879013l0 16.335976c0 2.2555923 -1.8285217 4.084114 -4.084114 4.084114l-35.296238 0c-2.2555962 0 -4.084114 -1.8285217 -4.084114 -4.084114z" fill-rule="evenodd"/><path fill="#3fbe0c" d="m116.00058 83.48992l0 0c0 -0.48735046 0.39507294 -0.88243103 0.8824234 -0.88243103l3.5296097 0l0 0c0.23403168 0 0.45848083 0.0929718 0.62397003 0.258461c0.16548157 0.16548157 0.25845337 0.38993073 0.25845337 0.62397003l0 49.9878c0 0.48735046 -0.39507294 0.8824158 -0.8824234 0.8824158l-3.5296097 0c-0.48735046 0 -0.8824234 -0.3950653 -0.8824234 -0.8824158z" fill-rule="evenodd"/><path fill="#55a1ea" d="m112.198074 111.241875l0 0c0 -1.5870819 1.286583 -2.8736649 2.8736649 -2.8736649l11.494316 0l0 0c0.76213837 0 1.4930725 0.3027649 2.0319824 0.84168243c0.5389252 0.53891754 0.8416748 1.269844 0.8416748 2.0319824l0 18.756874c0 1.5870819 -1.2865753 2.8736725 -2.8736572 2.8736725l-11.494316 0c-1.5870819 0 -2.8736649 -1.2865906 -2.8736649 -2.8736725z" fill-rule="evenodd"/><path fill="#f73d35" d="m133.94684 106.18258l0 0c0 -1.0793228 0.8749542 -1.954277 1.9542694 -1.954277l7.8168793 0l0 0c0.5182953 0 1.0153809 0.20589447 1.3818817 0.5723953c0.36650085 0.36649323 0.5723877 0.86357117 0.5723877 1.3818817l0 21.371796c0 1.0793228 -0.8749542 1.954277 -1.9542694 1.954277l-7.8168793 0c-1.0793152 0 -1.9542694 -0.8749542 -1.9542694 -1.954277z" fill-rule="evenodd"/><path fill="#3fbe0c" d="m88.8523 83.56846l0 0c0 -0.5307236 0.43023682 -0.960968 0.960968 -0.960968l30.510094 0c0.25486755 0 0.49929047 0.101242065 0.679512 0.28146362c0.18021393 0.18021393 0.281456 0.42464447 0.281456 0.6795044l0 3.8437576c0 0.5307312 -0.43023682 0.960968 -0.960968 0.960968l-30.510094 0c-0.5307312 0 -0.960968 -0.43023682 -0.960968 -0.960968z" fill-rule="evenodd"/><path fill="#51de18" d="m53.84976 78.41273l0 0c0 -2.2555923 1.8285179 -4.084114 4.084114 -4.084114l35.296238 0c1.0831757 0 2.1219864 0.43029022 2.8879013 1.1962128c0.76592255 0.7659149 1.1962128 1.8047256 1.1962128 2.8879013l0 16.335976c0 2.2555923 -1.8285217 4.084114 -4.084114 4.084114l-35.296238 0c-2.2555962 0 -4.084114 -1.8285217 -4.084114 -4.084114z" fill-rule="evenodd"/><path fill="#35ad05" d="m116.00058 95.719154l0 0c0 -0.48735046 0.39507294 -0.88243103 0.8824234 -0.88243103l3.5296097 0l0 0c0.23403168 0 0.45848083 0.0929718 0.62397003 0.258461c0.16548157 0.1654892 0.25845337 0.38993835 0.25845337 0.62397003l0 37.76342c0 0.48735046 -0.39507294 0.8824158 -0.8824234 0.8824158l-3.5296097 0c-0.48735046 0 -0.8824234 -0.3950653 -0.8824234 -0.8824158z" fill-rule="evenodd"/><path fill="#60e62a" d="m57.515778 78.239876l0 0c0 -0.7578201 0.6143341 -1.3721542 1.3721542 -1.3721542l18.239494 0c0.36392212 0 0.7129288 0.1445694 0.9702606 0.40189362c0.25733185 0.25733185 0.40189362 0.6063385 0.40189362 0.9702606l0 5.4884415c0 0.7578201 -0.6143341 1.3721542 -1.3721542 1.3721542l-18.239494 0l0 0c-0.7578201 0 -1.3721542 -0.6143341 -1.3721542 -1.3721542z" fill-rule="evenodd"/><path fill="#60e62a" d="m80.6265 78.239876l0 0c0 -0.7578201 0.6143341 -1.3721542 1.3721466 -1.3721542l5.9596786 0c0.36392212 0 0.7129288 0.1445694 0.9702606 0.40189362c0.25732422 0.25733185 0.40189362 0.6063385 0.40189362 0.9702606l0 5.4884415c0 0.7578201 -0.6143341 1.3721542 -1.3721542 1.3721542l-5.9596786 0c-0.7578125 0 -1.3721466 -0.6143341 -1.3721466 -1.3721542z" fill-rule="evenodd"/><path fill="#35ad05" d="m53.84976 91.97608l0 0c0 -0.7578201 0.6143341 -1.3721542 1.3721504 -1.3721542l40.72016 0c0.36392212 0 0.7129288 0.1445694 0.9702606 0.40189362c0.25732422 0.25733185 0.40189362 0.60634613 0.40189362 0.9702606l0 5.4884415c0 0.7578201 -0.6143341 1.3721542 -1.3721542 1.3721542l-40.72016 0l0 0c-0.7578163 0 -1.3721504 -0.6143341 -1.3721504 -1.3721542z" fill-rule="evenodd"/><path fill="#ffc860" d="m132.12614 131.40607l0 0c0 -3.0695496 2.4883575 -5.557907 5.557907 -5.557907l69.160385 0c1.47406 0 2.8877258 0.58556366 3.9300385 1.6278763c1.0423126 1.042305 1.6278839 2.455986 1.6278839 3.9300308l0 22.230972c0 3.0695496 -2.4883728 5.557907 -5.5579224 5.557907l-69.160385 0c-3.0695496 0 -5.557907 -2.4883575 -5.557907 -5.557907z" fill-rule="evenodd"/><path fill="#fcb630" d="m136.27364 143.97388l0 0c0 -1.681488 1.3631134 -3.0446014 3.0446167 -3.0446014l30.556198 0c0.80747986 0 1.5818939 0.32077026 2.1528625 0.8917389c0.5709839 0.5709686 0.89175415 1.3453827 0.89175415 2.1528625l0 12.178055c0 1.681488 -1.3631287 3.0446167 -3.0446167 3.0446167l-30.556198 0c-1.6815033 0 -3.0446167 -1.3631287 -3.0446167 -3.0446167z" fill-rule="evenodd"/><path fill="#ffc860" d="m200.84415 129.03137l0 0c0 -1.7580414 1.4251709 -3.1832123 3.1832123 -3.1832123l24.679626 0c0.8442383 0 1.6539001 0.33537292 2.2508698 0.9323425c0.5969696 0.596962 0.9323425 1.4066315 0.9323425 2.2508698l0 12.732437c0 1.7580414 -1.4251709 3.1832123 -3.1832123 3.1832123l-24.679626 0c-1.7580414 0 -3.1832123 -1.4251709 -3.1832123 -3.1832123z" fill-rule="evenodd"/><path fill="#fcb630" d="m91.727875 135.47171l0 0c0 -5.3149414 4.308609 -9.62355 9.623543 -9.62355l38.49302 0l0 0c2.5523224 0 5.000107 1.0139084 6.8048706 2.8186646c1.8047638 1.8047638 2.8186646 4.2525635 2.8186646 6.804886l0 46.309967c0 5.314926 -4.3085938 9.623535 -9.623535 9.623535l-38.49302 0c-5.314934 0 -9.623543 -4.308609 -9.623543 -9.623535z" fill-rule="evenodd"/><path fill="#e09300" d="m103.83116 172.27008l0 0c0 -2.1127014 1.7126923 -3.8253937 3.8253937 -3.8253937l30.29747 0c1.0145569 0 1.9875488 0.4030304 2.704956 1.1204376c0.7174072 0.71739197 1.1204376 1.6903992 1.1204376 2.704956l0 15.301117c0 2.1127014 -1.7126923 3.8253937 -3.8253937 3.8253937l-30.29747 0c-2.1127014 0 -3.8253937 -1.7126923 -3.8253937 -3.8253937z" fill-rule="evenodd"/><path fill="#ffd992" d="m123.33926 140.64551l0 0c0 -1.6968079 1.3755264 -3.0723267 3.0723267 -3.0723267l12.288933 0l0 0c0.8148346 0 1.5962982 0.3236847 2.17247 0.89985657c0.5761719 0.5761719 0.89985657 1.3576355 0.89985657 2.17247l0 21.796783c0 1.6967926 -1.3755188 3.0723267 -3.0723267 3.0723267l-12.288933 0c-1.6968002 0 -3.0723267 -1.375534 -3.0723267 -3.0723267z" fill-rule="evenodd"/><path fill="#ffe9bf" d="m111.19998 128.229l0 0c0 -1.314064 1.0652542 -2.3793259 2.3793182 -2.3793259l21.9077 0c0.6310272 0 1.2362213 0.25067902 1.6824341 0.6968918c0.44621277 0.44620514 0.69688416 1.0513992 0.69688416 1.6824341l0 9.516998c0 1.3140564 -1.0652618 2.3793182 -2.3793182 2.3793182l-21.9077 0c-1.314064 0 -2.3793182 -1.0652618 -2.3793182 -2.3793182z" fill-rule="evenodd"/><path fill="#ffe9bf" d="m91.727875 143.63063l0 0c0 -1.115036 0.9039154 -2.0189514 2.018959 -2.0189514l8.075584 0l0 0c0.5354614 0 1.0489883 0.21270752 1.4276199 0.5913391c0.37862396 0.37861633 0.5913391 0.8921509 0.5913391 1.4276123l0 45.746643c0 1.115036 -0.9039154 2.0189514 -2.018959 2.0189514l-8.075584 0c-1.1150436 0 -2.018959 -0.9039154 -2.018959 -2.0189514z" fill-rule="evenodd"/><path fill="#ffe9bf" d="m154.70602 130.69029l0 0c0 -1.0793304 0.8749542 -1.9542847 1.9542847 -1.9542847l29.299622 0c0.51831055 0 1.0153809 0.2059021 1.3818817 0.57240295c0.36650085 0.3664856 0.57240295 0.86357117 0.57240295 1.3818817l0 7.816864c0 1.0793152 -0.8749695 1.9542847 -1.9542847 1.9542847l-29.299622 0c-1.0793304 0 -1.9542847 -0.8749695 -1.9542847 -1.9542847z" fill-rule="evenodd"/><path fill="#ffe9bf" d="m192.26009 130.23851l0 0c0 -0.82925415 0.6722412 -1.5015106 1.5015106 -1.5015106l6.0058746 0l0 0c0.39822388 0 0.7801361 0.15820312 1.0617218 0.43978882c0.2815857 0.2815857 0.43978882 0.6634979 0.43978882 1.0617218l0 9.193634c0 0.8292694 -0.67225647 1.5015106 -1.5015106 1.5015106l-6.0058746 0c-0.8292694 0 -1.5015106 -0.6722412 -1.5015106 -1.5015106z" fill-rule="evenodd"/><path fill="#e09300" d="m221.38342 127.59999l0 0c0 -0.96704865 0.78393555 -1.7509995 1.7509918 -1.7509995l7.003769 0l0 0c0.464386 0 0.9097595 0.18447876 1.2381439 0.5128555c0.32836914 0.32837677 0.5128479 0.7737503 0.5128479 1.2381439l0 15.596878c0 0.967041 -0.7839508 1.7509918 -1.7509918 1.7509918l-7.003769 0c-0.9670563 0 -1.7509918 -0.7839508 -1.7509918 -1.7509918z" fill-rule="evenodd"/><path fill="#e09300" d="m185.74576 147.32234l0 0c0 -1.3140564 1.0652466 -2.3793182 2.3793182 -2.3793182l21.9077 0c0.6310272 0 1.2362213 0.2506714 1.6824188 0.69688416c0.44621277 0.44621277 0.6968994 1.0513916 0.6968994 1.6824341l0 9.516998c0 1.3140564 -1.0652618 2.3793182 -2.3793182 2.3793182l-21.9077 0c-1.3140717 0 -2.3793182 -1.0652618 -2.3793182 -2.3793182z" fill-rule="evenodd"/><path fill="#35ad05" d="m53.84976 91.97608l0 0c0 -0.7578201 0.6143341 -1.3721542 1.3721504 -1.3721542l40.72016 0c0.36392212 0 0.7129288 0.1445694 0.9702606 0.40189362c0.25732422 0.25733185 0.40189362 0.60634613 0.40189362 0.9702606l0 5.4884415c0 0.7578201 -0.6143341 1.3721542 -1.3721542 1.3721542l-40.72016 0l0 0c-0.7578163 0 -1.3721504 -0.6143341 -1.3721504 -1.3721542z" fill-rule="evenodd"/><path fill="#f73d35" d="m69.15265 118.1957l0 0c0 -2.7072296 2.194641 -4.901863 4.901863 -4.901863l19.606857 0l0 0c1.3000565 0 2.5468674 0.51644135 3.4661407 1.4357224c0.919281 0.9192734 1.4357224 2.1660843 1.4357224 3.4661407l0 27.118889c0 2.7072296 -2.1946335 4.9018707 -4.901863 4.9018707l-19.606857 0c-2.707222 0 -4.901863 -2.194641 -4.901863 -4.9018707z" fill-rule="evenodd"/><path fill="#e03027" d="m70.40941 154.70929l0 0c0 -2.4775848 2.0084763 -4.4860687 4.486061 -4.4860687l17.943695 0l0 0c1.1897736 0 2.3308258 0.472641 3.1721191 1.3139343c0.84130096 0.8413086 1.313942 1.9823456 1.313942 3.1721344l0 21.15918c0 2.4775696 -2.008484 4.4860535 -4.486061 4.4860535l-17.943695 0c-2.4775848 0 -4.486061 -2.008484 -4.486061 -4.4860535z" fill-rule="evenodd"/><path fill="#f73d35" d="m69.15265 185.25319l0 0c0 -2.7072296 2.194641 -4.9018707 4.901863 -4.9018707l19.606857 0l0 0c1.3000565 0 2.5468674 0.516449 3.4661407 1.43573c0.919281 0.919281 1.4357224 2.166092 1.4357224 3.4661407l0 27.118896c0 2.7072144 -2.1946335 4.9018555 -4.901863 4.9018555l-19.606857 0c-2.707222 0 -4.901863 -2.194641 -4.901863 -4.9018555z" fill-rule="evenodd"/><path fill="#fb5c4e" d="m98.5756 191.28105l0 0c0 -2.870514 2.3270187 -5.1975403 5.197548 -5.1975403l53.2493 0c1.378479 0 2.7005005 0.54759216 3.675232 1.5223236c0.9747162 0.97473145 1.5223236 2.296753 1.5223236 3.6752167l0 20.789566c0 2.870514 -2.3270264 5.1975403 -5.1975555 5.1975403l-53.2493 0c-2.8705292 0 -5.197548 -2.3270264 -5.197548 -5.1975403z" fill-rule="evenodd"/><path fill="#fb5c4e" d="m133.94684 160.08386l0 0c0 -2.8705292 2.327011 -5.1975555 5.1975403 -5.1975555l48.592407 0c1.3784637 0 2.7004852 0.5476074 3.6752167 1.5223389c0.9747162 0.9747162 1.5223236 2.2967377 1.5223236 3.6752167l0 20.78955c0 2.8705292 -2.3270264 5.1975403 -5.1975403 5.1975403l-48.592407 0c-2.8705292 0 -5.1975403 -2.327011 -5.1975403 -5.1975403z" fill-rule="evenodd"/><path fill="#fb5c4e" d="m72.04149 117.94753l0 0c0 -0.9747009 0.7901535 -1.7648544 1.7648544 -1.7648544l7.0592117 0l0 0c0.46807098 0 0.9169693 0.18593597 1.2479401 0.51691437c0.33097076 0.33097076 0.51691437 0.7798691 0.51691437 1.2479401l0 21.750648c0 0.9747009 -0.7901535 1.7648468 -1.7648544 1.7648468l-7.0592117 0c-0.9747009 0 -1.7648544 -0.7901459 -1.7648544 -1.7648468z" fill-rule="evenodd"/><path fill="#fb5c4e" d="m72.04149 185.00502l0 0c0 -0.9747009 0.7901535 -1.7648468 1.7648544 -1.7648468l7.0592117 0l0 0c0.46807098 0 0.9169693 0.18592834 1.2479401 0.51690674c0.33097076 0.3309784 0.51691437 0.7798767 0.51691437 1.2479401l0 21.75064c0 0.9747009 -0.7901535 1.7648621 -1.7648544 1.7648621l-7.0592117 0c-0.9747009 0 -1.7648544 -0.79016113 -1.7648544 -1.7648621z" fill-rule="evenodd"/><path fill="#e03027" d="m89.86264 114.74453l0 0c0 -0.80119324 0.649498 -1.4506912 1.4506912 -1.4506912l5.802597 0l0 0c0.38474274 0 0.7537384 0.15283966 1.025795 0.42489624c0.27205658 0.27205658 0.42489624 0.6410446 0.42489624 1.025795l0 34.29844c0 0.80119324 -0.649498 1.4506836 -1.4506912 1.4506836l-5.802597 0c-0.80119324 0 -1.4506912 -0.64949036 -1.4506912 -1.4506836z" fill-rule="evenodd"/><path fill="#f73d35" d="m150.49512 188.0378l0 0c0 -1.0793304 0.8749542 -1.9542847 1.9542694 -1.9542847l7.8168793 0l0 0c0.5182953 0 1.0153809 0.2059021 1.3818817 0.57240295c0.36650085 0.3664856 0.5723877 0.86357117 0.5723877 1.3818817l0 27.276093c0 1.0793152 -0.8749542 1.9542694 -1.9542694 1.9542694l-7.8168793 0c-1.0793152 0 -1.9542694 -0.8749542 -1.9542694 -1.9542694z" fill-rule="evenodd"/><path fill="#f73d35" d="m178.16656 157.3488l0 0c0 -1.3600006 1.1024933 -2.462494 2.4624786 -2.462494l9.849625 0l0 0c0.65309143 0 1.2794342 0.2594452 1.7412415 0.72125244c0.46180725 0.46180725 0.7212372 1.08815 0.7212372 1.7412415l0 26.259674c0 1.3600006 -1.102478 2.4624786 -2.4624786 2.4624786l-9.849625 0c-1.3599854 0 -2.4624786 -1.102478 -2.4624786 -2.4624786z" fill-rule="evenodd"/><path fill="#fc8076" d="m106.83457 192.12875l0 0c0 -1.1941376 0.96804047 -2.1621704 2.1621857 -2.1621704l25.08622 0c0.5734558 0 1.1234131 0.22779846 1.5289001 0.6332855c0.40548706 0.40548706 0.6332855 0.95544434 0.6332855 1.5288849l0 8.648453c0 1.1941376 -0.9680481 2.1621857 -2.1621857 2.1621857l-25.08622 0c-1.1941452 0 -2.1621857 -0.9680481 -2.1621857 -2.1621857z" fill-rule="evenodd"/><path fill="#fc8076" d="m139.61172 160.80064l0 0c0 -1.1762695 0.9535675 -2.129837 2.129837 -2.129837l11.845459 0c0.5648804 0 1.1066132 0.22439575 1.5060272 0.6238098c0.39942932 0.39942932 0.6238098 0.9411621 0.6238098 1.5060272l0 8.519104c0 1.1762695 -0.95355225 2.129837 -2.129837 2.129837l-11.845459 0l0 0c-1.1762695 0 -2.129837 -0.9535675 -2.129837 -2.129837z" fill-rule="evenodd"/><path fill="#f73d35" d="m83.24617 154.96696l0 0c0 -0.9747162 0.7901535 -1.7648621 1.7648544 -1.7648621l7.0592117 0l0 0c0.46807098 0 0.9169693 0.1859436 1.2479401 0.516922c0.3309784 0.33096313 0.51691437 0.77986145 0.51691437 1.2479401l0 19.42218c0 0.9747009 -0.7901535 1.7648621 -1.7648544 1.7648621l-7.0592117 0c-0.9747009 0 -1.7648544 -0.79016113 -1.7648544 -1.7648621z" fill-rule="evenodd"/><path fill="#f73d35" d="m75.3047 166.48474l0 0c0 -1.0793152 0.87496185 -1.9542694 1.954277 -1.9542694l10.6442795 0c0.51831055 0 1.0153885 0.2059021 1.3818817 0.5723877c0.36650085 0.36650085 0.5723953 0.8635864 0.5723953 1.3818817l0 7.8168793c0 1.0793152 -0.8749542 1.9542694 -1.954277 1.9542694l-10.6442795 0l0 0c-1.0793152 0 -1.954277 -0.8749542 -1.954277 -1.9542694z" fill-rule="evenodd"/><path fill="#e03027" d="m182.24393 165.10165l0 0c0 -0.60728455 0.4922943 -1.0995789 1.0995636 -1.0995789l4.3981476 0l0 0c0.29162598 0 0.5713043 0.115859985 0.7775116 0.32206726c0.20620728 0.20620728 0.322052 0.48588562 0.322052 0.7775116l0 10.773666c0 0.60728455 -0.4922943 1.0995789 -1.0995636 1.0995789l-4.3981476 0c-0.6072693 0 -1.0995636 -0.4922943 -1.0995636 -1.0995789z" fill-rule="evenodd"/><path fill="#000000" fill-opacity="0.0" d="m21.700787 315.7533l266.29922 0l0 38.771637l-266.29922 0z" fill-rule="evenodd"/><path fill="#ffffff" d="m38.56016 328.11328q1.5 0 2.59375 0.515625q1.09375 0.515625 1.671875 1.453125q0.578125 0.921875 0.578125 2.171875q0 1.234375 -0.578125 2.171875q-0.578125 0.9375 -1.671875 1.453125q-1.09375 0.5 -2.59375 0.5l-5.203125 0l0 -2.65625l4.984375 0q0.8125 0 1.25 -0.390625q0.453125 -0.390625 0.453125 -1.078125q0 -0.703125 -0.453125 -1.09375q-0.4375 -0.390625 -1.25 -0.390625l-4.703125 0l1.5 -1.53125l0 10.875l-3.3125 0l0 -12.0l6.734375 0zm14.128906 12.0l-0.421875 -3.296875l0.4375 -1.265625l-0.4375 -1.265625l0.421875 -3.3125l3.390625 0l-0.578125 4.5625l0.578125 4.578125l-3.390625 0zm0.765625 -4.5625q-0.21875 1.4375 -0.890625 2.53125q-0.65625 1.09375 -1.671875 1.6875q-1.015625 0.59375 -2.3125 0.59375q-1.34375 0 -2.375 -0.59375q-1.015625 -0.59375 -1.59375 -1.6875q-0.5625 -1.109375 -0.5625 -2.53125q0 -1.453125 0.5625 -2.53125q0.578125 -1.09375 1.59375 -1.703125q1.03125 -0.609375 2.375 -0.609375q1.296875 0 2.3125 0.609375q1.015625 0.59375 1.6875 1.671875q0.671875 1.078125 0.875 2.5625zm-6.09375 0q0 0.671875 0.28125 1.203125q0.28125 0.53125 0.765625 0.828125q0.5 0.296875 1.140625 0.296875q0.671875 0 1.265625 -0.296875q0.59375 -0.296875 1.03125 -0.828125q0.453125 -0.53125 0.671875 -1.203125q-0.21875 -0.6875 -0.671875 -1.203125q-0.4375 -0.53125 -1.03125 -0.828125q-0.59375 -0.3125 -1.265625 -0.3125q-0.640625 0 -1.140625 0.3125q-0.484375 0.296875 -0.765625 0.828125q-0.28125 0.515625 -0.28125 1.203125zm9.856659 -4.578125l3.28125 0l0.59375 3.65625l0 5.484375l-3.265625 0l0 -5.984375l-0.609375 -3.15625zm7.234379 -0.265625q1.3125 0 2.234375 0.53125q0.921875 0.515625 1.40625 1.484375q0.5 0.953125 0.5 2.265625l0 5.125l-3.265625 0l0 -4.640625q0 -1.015625 -0.53125 -1.5625q-0.515625 -0.546875 -1.4843788 -0.546875q-0.671875 0 -1.1875 0.296875q-0.5 0.28125 -0.765625 0.8125q-0.265625 0.515625 -0.265625 1.234375l-1.015625 -0.515625q0.1875 -1.46875 0.8125 -2.46875q0.625 -1.0 1.53125 -1.5q0.921875 -0.515625 2.0312538 -0.515625zm16.717773 5.546875q-0.140625 1.234375 -0.90625 2.171875q-0.765625 0.921875 -1.984375 1.4375q-1.21875 0.5 -2.75 0.5q-1.671875 0 -2.953125 -0.59375q-1.28125 -0.609375 -2.0 -1.703125q-0.71875 -1.09375 -0.71875 -2.515625q0 -1.4375 0.71875 -2.515625q0.71875 -1.09375 2.0 -1.703125q1.28125 -0.625 2.953125 -0.625q1.53125 0 2.75 0.515625q1.21875 0.515625 1.984375 1.4375q0.765625 0.921875 0.90625 2.171875l-3.25 0q-0.171875 -0.8125 -0.8125 -1.25q-0.640625 -0.4375 -1.578125 -0.4375q-0.71875 0 -1.25 0.28125q-0.53125 0.265625 -0.828125 0.8125q-0.296875 0.53125 -0.296875 1.3125q0 0.765625 0.296875 1.3125q0.296875 0.53125 0.828125 0.8125q0.53125 0.28125 1.25 0.28125q0.9375 0 1.578125 -0.46875q0.65625 -0.46875 0.8125 -1.234375l3.25 0zm0.8159027 -5.28125l3.328125 0l0.546875 3.265625l0 5.875l-3.265625 0l0 -6.0625l-0.609375 -3.078125zm8.15625 -0.140625l0 2.78125q-0.484375 -0.09375 -0.90625 -0.125q-0.421875 -0.046875 -0.78125 -0.046875q-0.703125 0 -1.296875 0.28125q-0.578125 0.28125 -0.9375 0.921875q-0.359375 0.640625 -0.359375 1.703125l-0.625 -0.765625q0.125 -0.984375 0.375 -1.859375q0.265625 -0.875 0.703125 -1.546875q0.4375 -0.6875 1.09375 -1.078125q0.65625 -0.390625 1.59375 -0.390625q0.28125 0 0.5625 0.03125q0.296875 0.03125 0.578125 0.09375zm6.233017 9.53125q-1.65625 0 -2.96875 -0.59375q-1.296875 -0.609375 -2.046875 -1.703125q-0.75 -1.109375 -0.75 -2.5625q0 -1.421875 0.71875 -2.5q0.71875 -1.078125 1.96875 -1.6875q1.265625 -0.609375 2.84375 -0.609375q1.640625 0 2.796875 0.71875q1.171875 0.703125 1.796875 2.0q0.640625 1.296875 0.640625 3.0625l-8.125 0l0 -1.96875l6.28125 0l-1.0625 0.6875q-0.078125 -0.703125 -0.359375 -1.1875q-0.28125 -0.5 -0.765625 -0.75q-0.46875 -0.265625 -1.125 -0.265625q-0.71875 0 -1.234375 0.296875q-0.5 0.28125 -0.796875 0.796875q-0.28125 0.5 -0.28125 1.171875q0 0.859375 0.390625 1.46875q0.390625 0.59375 1.140625 0.921875q0.765625 0.3125 1.875 0.3125q1.0 0 2.0 -0.265625q1.0 -0.265625 1.828125 -0.75l0 2.078125q-0.953125 0.640625 -2.171875 0.984375q-1.203125 0.34375 -2.59375 0.34375zm14.650269 -0.25l-0.421875 -3.296875l0.4375 -1.265625l-0.4375 -1.265625l0.421875 -3.3125l3.390625 0l-0.578125 4.5625l0.578125 4.578125l-3.390625 0zm0.765625 -4.5625q-0.21875 1.4375 -0.890625 2.53125q-0.65625 1.09375 -1.671875 1.6875q-1.015625 0.59375 -2.3125 0.59375q-1.34375 0 -2.375 -0.59375q-1.015625 -0.59375 -1.59375 -1.6875q-0.5625 -1.109375 -0.5625 -2.53125q0 -1.453125 0.5625 -2.53125q0.578125 -1.09375 1.59375 -1.703125q1.03125 -0.609375 2.375 -0.609375q1.296875 0 2.3125 0.609375q1.015625 0.59375 1.6875 1.671875q0.671875 1.078125 0.875 2.5625zm-6.09375 0q0 0.671875 0.28125 1.203125q0.28125 0.53125 0.765625 0.828125q0.5 0.296875 1.140625 0.296875q0.671875 0 1.265625 -0.296875q0.59375 -0.296875 1.03125 -0.828125q0.453125 -0.53125 0.671875 -1.203125q-0.21875 -0.6875 -0.671875 -1.203125q-0.4375 -0.53125 -1.03125 -0.828125q-0.59375 -0.3125 -1.265625 -0.3125q-0.640625 0 -1.140625 0.3125q-0.484375 0.296875 -0.765625 0.828125q-0.28125 0.515625 -0.28125 1.203125zm20.840286 1.59375q0 1.046875 -0.640625 1.765625q-0.640625 0.71875 -1.828125 1.09375q-1.171875 0.359375 -2.84375 0.359375q-1.703125 0 -3.0 -0.40625q-1.28125 -0.421875 -2.0 -1.171875q-0.71875 -0.75 -0.765625 -1.75l3.3125 0q0.109375 0.375 0.4375 0.640625q0.328125 0.265625 0.859375 0.40625q0.546875 0.125 1.296875 0.125q0.984375 0 1.484375 -0.1875q0.5 -0.1875 0.5 -0.578125q0 -0.296875 -0.390625 -0.453125q-0.375 -0.15625 -1.296875 -0.234375l-1.625 -0.125q-1.609375 -0.109375 -2.5625 -0.484375q-0.953125 -0.390625 -1.375 -0.984375q-0.40625 -0.59375 -0.40625 -1.359375q0 -1.046875 0.640625 -1.71875q0.65625 -0.6875 1.8125 -1.03125q1.15625 -0.34375 2.71875 -0.34375q1.53125 0 2.734375 0.40625q1.203125 0.390625 1.921875 1.109375q0.71875 0.703125 0.828125 1.671875l-3.3125 0q-0.078125 -0.3125 -0.359375 -0.5625q-0.265625 -0.25 -0.75 -0.40625q-0.46875 -0.15625 -1.234375 -0.15625q-0.875 0 -1.328125 0.203125q-0.453125 0.1875 -0.453125 0.53125q0 0.265625 0.28125 0.4375q0.28125 0.15625 1.046875 0.21875l2.125 0.15625q1.578125 0.09375 2.484375 0.46875q0.921875 0.359375 1.296875 0.953125q0.390625 0.578125 0.390625 1.40625z" fill-rule="nonzero"/><path fill="#ffffff" d="m130.40918 336.95703q0 -0.84375 0.171875 -1.765625q0.171875 -0.921875 0.46875 -1.78125q0.3125 -0.875 0.703125 -1.515625l0.859375 0q-0.40625 0.8125 -0.703125 1.703125q-0.296875 0.875 -0.453125 1.75q-0.15625 0.859375 -0.15625 1.609375q0 0.671875 0.140625 1.390625q0.140625 0.703125 0.421875 1.5q0.296875 0.78125 0.75 1.71875l-0.859375 0q-0.671875 -1.125 -1.015625 -2.296875q-0.328125 -1.171875 -0.328125 -2.3125z" fill-rule="nonzero"/><path fill="#ffffff" d="m135.82535 342.28516l0 -7.984375l1.59375 0l0 0.984375l0.0625 0q0.109375 -0.25 0.3125 -0.484375q0.203125 -0.25 0.53125 -0.40625q0.328125 -0.171875 0.8125 -0.171875q0.640625 0 1.171875 0.328125q0.53125 0.328125 0.859375 1.0q0.328125 0.671875 0.328125 1.671875q0 0.953125 -0.3125 1.625q-0.3125 0.671875 -0.859375 1.015625q-0.53125 0.34375 -1.1875 0.34375q-0.46875 0 -0.796875 -0.15625q-0.328125 -0.15625 -0.53125 -0.390625q-0.203125 -0.234375 -0.328125 -0.484375l-0.046875 0l0 3.109375l-1.609375 0zm2.796875 -3.359375q0.390625 0 0.65625 -0.21875q0.28125 -0.21875 0.421875 -0.609375q0.140625 -0.390625 0.140625 -0.890625q0 -0.5 -0.140625 -0.875q-0.140625 -0.390625 -0.40625 -0.609375q-0.265625 -0.21875 -0.671875 -0.21875q-0.390625 0 -0.671875 0.21875q-0.265625 0.203125 -0.40625 0.59375q-0.140625 0.375 -0.140625 0.890625q0 0.515625 0.140625 0.90625q0.15625 0.375 0.421875 0.59375q0.265625 0.21875 0.65625 0.21875zm5.2281494 1.296875q-0.546875 0 -0.984375 -0.1875q-0.4375 -0.203125 -0.6875 -0.578125q-0.25 -0.390625 -0.25 -0.96875q0 -0.484375 0.171875 -0.8125q0.171875 -0.328125 0.484375 -0.53125q0.3125 -0.203125 0.703125 -0.296875q0.390625 -0.109375 0.828125 -0.15625q0.5 -0.046875 0.796875 -0.09375q0.3125 -0.046875 0.453125 -0.140625q0.140625 -0.09375 0.140625 -0.28125l0 -0.015625q0 -0.359375 -0.234375 -0.5625q-0.21875 -0.203125 -0.625 -0.203125q-0.421875 0 -0.6875 0.203125q-0.25 0.1875 -0.34375 0.46875l-1.484375 -0.109375q0.109375 -0.53125 0.4375 -0.921875q0.34375 -0.390625 0.859375 -0.59375q0.53125 -0.21875 1.234375 -0.21875q0.484375 0 0.921875 0.125q0.4375 0.109375 0.78125 0.34375q0.359375 0.234375 0.5625 0.609375q0.203125 0.375 0.203125 0.890625l0 3.921875l-1.546875 0l0 -0.8125l-0.03125 0q-0.140625 0.28125 -0.375 0.484375q-0.234375 0.203125 -0.5625 0.328125q-0.328125 0.109375 -0.765625 0.109375zm0.46875 -1.109375q0.34375 0 0.609375 -0.140625q0.28125 -0.15625 0.4375 -0.390625q0.15625 -0.25 0.15625 -0.546875l0 -0.609375q-0.078125 0.03125 -0.21875 0.078125q-0.125 0.046875 -0.28125 0.078125q-0.15625 0.03125 -0.328125 0.0625q-0.15625 0.015625 -0.28125 0.03125q-0.28125 0.046875 -0.5 0.140625q-0.21875 0.078125 -0.34375 0.234375q-0.109375 0.15625 -0.109375 0.390625q0 0.328125 0.234375 0.5q0.25 0.171875 0.625 0.171875zm5.3536377 -2.359375l0 3.359375l-1.609375 0l0 -5.8125l1.59375 0l0 1.03125l0.046875 0q0.203125 -0.515625 0.625 -0.8125q0.4375 -0.296875 1.09375 -0.296875q0.59375 0 1.046875 0.265625q0.453125 0.265625 0.703125 0.765625q0.25 0.484375 0.25 1.15625l0 3.703125l-1.609375 0l0 -3.40625q0 -0.53125 -0.28125 -0.828125q-0.265625 -0.3125 -0.75 -0.3125q-0.328125 0 -0.578125 0.140625q-0.25 0.140625 -0.390625 0.40625q-0.140625 0.265625 -0.140625 0.640625zm7.301132 5.65625q-1.171875 0 -1.84375 -0.46875q-0.671875 -0.453125 -0.8125 -1.15625l1.484375 -0.1875q0.078125 0.171875 0.21875 0.3125q0.140625 0.15625 0.375 0.25q0.25 0.09375 0.609375 0.09375q0.53125 0 0.875 -0.25q0.34375 -0.25 0.34375 -0.859375l0 -1.0625l-0.078125 0q-0.09375 0.234375 -0.3125 0.453125q-0.21875 0.21875 -0.546875 0.359375q-0.328125 0.140625 -0.796875 0.140625q-0.65625 0 -1.1875 -0.296875q-0.53125 -0.3125 -0.859375 -0.9375q-0.3125 -0.640625 -0.3125 -1.59375q0 -1.0 0.328125 -1.65625q0.328125 -0.671875 0.859375 -1.0q0.53125 -0.328125 1.171875 -0.328125q0.484375 0 0.8125 0.171875q0.34375 0.15625 0.546875 0.40625q0.203125 0.234375 0.3125 0.484375l0.0625 0l0 -0.984375l1.59375 0l0 5.875q0 0.734375 -0.375 1.234375q-0.359375 0.5 -1.0 0.75q-0.640625 0.25 -1.46875 0.25zm0.03125 -3.59375q0.578125 0 0.890625 -0.421875q0.328125 -0.4375 0.328125 -1.203125q0 -0.515625 -0.140625 -0.890625q-0.140625 -0.375 -0.421875 -0.578125q-0.265625 -0.21875 -0.65625 -0.21875q-0.40625 0 -0.671875 0.21875q-0.265625 0.21875 -0.40625 0.59375q-0.140625 0.375 -0.140625 0.875q0 0.5 0.140625 0.875q0.140625 0.359375 0.40625 0.5625q0.265625 0.1875 0.671875 0.1875z" fill-rule="nonzero"/><path fill="#ffffff" d="m165.53291 338.6914q-0.453125 0 -0.84375 -0.21875q-0.375 -0.234375 -0.609375 -0.609375q-0.21875 -0.390625 -0.21875 -0.84375q0 -0.453125 0.21875 -0.828125q0.234375 -0.390625 0.609375 -0.609375q0.390625 -0.21875 0.84375 -0.21875q0.453125 0 0.828125 0.21875q0.390625 0.21875 0.609375 0.609375q0.21875 0.375 0.21875 0.828125q0 0.453125 -0.21875 0.84375q-0.21875 0.375 -0.609375 0.609375q-0.375 0.21875 -0.828125 0.21875zm6.148926 -0.703125l-0.015625 -1.09375l0.1875 0l2.53125 -2.59375l1.109375 0l-2.703125 2.75l-0.09375 0l-1.015625 0.9375zm-0.828125 2.125l0 -7.75l0.875 0l0 7.75l-0.875 0zm3.671875 0l-2.265625 -2.875l0.640625 -0.625l2.78125 3.5l-1.15625 0zm1.6250305 0l0 -5.8125l0.84375 0l0 0.875l0.0625 0q0.171875 -0.421875 0.578125 -0.6875q0.421875 -0.28125 0.9375 -0.28125q0.109375 0 0.25 0.015625q0.140625 0 0.21875 0l0 0.90625q-0.046875 -0.015625 -0.203125 -0.03125q-0.15625 -0.015625 -0.34375 -0.015625q-0.421875 0 -0.75 0.171875q-0.328125 0.171875 -0.53125 0.484375q-0.1875 0.3125 -0.1875 0.703125l0 3.671875l-0.875 0zm5.7101593 0.125q-0.828125 0 -1.4375 -0.375q-0.609375 -0.375 -0.9375 -1.046875q-0.328125 -0.671875 -0.328125 -1.5625q0 -0.890625 0.3125 -1.578125q0.328125 -0.6875 0.90625 -1.0625q0.59375 -0.390625 1.375 -0.390625q0.453125 0 0.890625 0.15625q0.453125 0.140625 0.8125 0.484375q0.375 0.34375 0.59375 0.90625q0.21875 0.546875 0.21875 1.359375l0 0.375l-4.484375 0l0 -0.765625l4.0 0l-0.40625 0.296875q0 -0.578125 -0.1875 -1.03125q-0.171875 -0.453125 -0.546875 -0.71875q-0.359375 -0.265625 -0.890625 -0.265625q-0.53125 0 -0.921875 0.265625q-0.375 0.265625 -0.578125 0.6875q-0.203125 0.421875 -0.203125 0.90625l0 0.515625q0 0.65625 0.21875 1.109375q0.234375 0.453125 0.640625 0.703125q0.421875 0.234375 0.953125 0.234375q0.359375 0 0.640625 -0.09375q0.28125 -0.109375 0.484375 -0.3125q0.21875 -0.21875 0.328125 -0.515625l0.859375 0.25q-0.125 0.4375 -0.453125 0.765625q-0.3125 0.328125 -0.796875 0.515625q-0.46875 0.1875 -1.0625 0.1875zm5.681946 0q-0.828125 0 -1.4375 -0.375q-0.609375 -0.375 -0.9375 -1.046875q-0.328125 -0.671875 -0.328125 -1.5625q0 -0.890625 0.3125 -1.578125q0.328125 -0.6875 0.90625 -1.0625q0.59375 -0.390625 1.375 -0.390625q0.453125 0 0.890625 0.15625q0.453125 0.140625 0.8125 0.484375q0.375 0.34375 0.59375 0.90625q0.21875 0.546875 0.21875 1.359375l0 0.375l-4.484375 0l0 -0.765625l4.0 0l-0.40625 0.296875q0 -0.578125 -0.1875 -1.03125q-0.171875 -0.453125 -0.546875 -0.71875q-0.359375 -0.265625 -0.890625 -0.265625q-0.53125 0 -0.921875 0.265625q-0.375 0.265625 -0.578125 0.6875q-0.203125 0.421875 -0.203125 0.90625l0 0.515625q0 0.65625 0.21875 1.109375q0.234375 0.453125 0.640625 0.703125q0.421875 0.234375 0.953125 0.234375q0.359375 0 0.640625 -0.09375q0.28125 -0.109375 0.484375 -0.3125q0.21875 -0.21875 0.328125 -0.515625l0.859375 0.25q-0.125 0.4375 -0.453125 0.765625q-0.3125 0.328125 -0.796875 0.515625q-0.46875 0.1875 -1.0625 0.1875zm7.9295044 -1.546875q-0.453125 0 -0.84375 -0.21875q-0.375 -0.234375 -0.609375 -0.609375q-0.21875 -0.390625 -0.21875 -0.84375q0 -0.453125 0.21875 -0.828125q0.234375 -0.390625 0.609375 -0.609375q0.390625 -0.21875 0.84375 -0.21875q0.453125 0 0.828125 0.21875q0.390625 0.21875 0.609375 0.609375q0.21875 0.375 0.21875 0.828125q0 0.453125 -0.21875 0.84375q-0.21875 0.375 -0.609375 0.609375q-0.375 0.21875 -0.828125 0.21875zm8.977051 -0.953125l0 -3.4375l0.890625 0l0 5.8125l-0.890625 0l0 -0.984375l-0.0625 0q-0.203125 0.4375 -0.640625 0.75q-0.421875 0.3125 -1.078125 0.3125q-0.546875 0 -0.96875 -0.234375q-0.421875 -0.25 -0.671875 -0.734375q-0.234375 -0.484375 -0.234375 -1.234375l0 -3.6875l0.875 0l0 3.640625q0 0.625 0.359375 1.015625q0.375 0.375 0.921875 0.359375q0.328125 0 0.671875 -0.15625q0.359375 -0.171875 0.59375 -0.515625q0.234375 -0.359375 0.234375 -0.90625zm2.9111023 -1.125l0 3.5l-0.875 0l0 -7.75l0.875 0l0 2.84375l0.09375 0q0.203125 -0.453125 0.609375 -0.71875q0.40625 -0.265625 1.09375 -0.265625q0.59375 0 1.03125 0.234375q0.453125 0.234375 0.703125 0.734375q0.25 0.484375 0.25 1.234375l0 3.6875l-0.890625 0l0 -3.625q0 -0.703125 -0.359375 -1.078125q-0.359375 -0.390625 -1.0 -0.390625q-0.4375 0 -0.78125 0.1875q-0.34375 0.1875 -0.546875 0.546875q-0.203125 0.359375 -0.203125 0.859375zm9.041199 -1.0l-0.8125 0.21875q-0.109375 -0.296875 -0.390625 -0.5625q-0.28125 -0.28125 -0.859375 -0.28125q-0.53125 0 -0.890625 0.25q-0.34375 0.25 -0.34375 0.625q0 0.328125 0.234375 0.53125q0.25 0.1875 0.765625 0.3125l0.859375 0.21875q0.765625 0.1875 1.140625 0.578125q0.390625 0.375 0.390625 0.984375q0 0.5 -0.28125 0.90625q-0.28125 0.390625 -0.796875 0.625q-0.515625 0.21875 -1.1875 0.21875q-0.890625 0 -1.46875 -0.390625q-0.578125 -0.390625 -0.734375 -1.125l0.84375 -0.21875q0.125 0.46875 0.453125 0.703125q0.34375 0.234375 0.90625 0.234375q0.609375 0 0.984375 -0.265625q0.375 -0.265625 0.375 -0.640625q0 -0.609375 -0.875 -0.8125l-0.953125 -0.234375q-0.8125 -0.1875 -1.1875 -0.578125q-0.375 -0.40625 -0.375 -1.0q0 -0.5 0.28125 -0.875q0.28125 -0.375 0.765625 -0.59375q0.484375 -0.21875 1.09375 -0.21875q0.859375 0 1.34375 0.390625q0.5 0.375 0.71875 1.0zm3.1280212 5.953125q0.453125 -0.9375 0.734375 -1.71875q0.296875 -0.796875 0.4375 -1.5q0.140625 -0.71875 0.140625 -1.390625q0 -0.75 -0.15625 -1.609375q-0.15625 -0.875 -0.453125 -1.75q-0.296875 -0.890625 -0.703125 -1.703125l0.859375 0q0.40625 0.640625 0.703125 1.515625q0.296875 0.859375 0.46875 1.78125q0.171875 0.921875 0.171875 1.765625q0 1.140625 -0.34375 2.3125q-0.328125 1.171875 -1.0 2.296875l-0.859375 0z" fill-rule="nonzero"/></g></svg>