<svg version="1.1" viewBox="0.0 0.0 768.0 96.0" fill="none" stroke="none" stroke-linecap="square" stroke-miterlimit="10" xmlns:xlink="http://www.w3.org/1999/xlink" xmlns="http://www.w3.org/2000/svg"><clipPath id="g3b25f17da62_0_35.0"><path d="m0 0l768.0 0l0 96.0l-768.0 0l0 -96.0z" clip-rule="nonzero"/></clipPath><g clip-path="url(#g3b25f17da62_0_35.0)"><path fill="#ffffff" d="m0 0l768.0 0l0 96.0l-768.0 0z" fill-rule="evenodd"/><path fill="#2563eb" d="m7.4015746 27.722761l0 0c0 -2.282156 1.8500533 -4.13221 4.1322093 -4.13221l744.9324 0c1.0959473 0 2.1469727 0.43535614 2.921936 1.2102966c0.7749634 0.7749386 1.2103271 1.825983 1.2103271 2.9219131l0 55.074165c0 2.2821503 -1.8500977 4.132202 -4.132263 4.132202l-744.9324 0c-2.282156 0 -4.1322093 -1.8500519 -4.1322093 -4.132202z" fill-rule="evenodd"/><path stroke="#2563eb" stroke-width="4.0" stroke-linejoin="round" stroke-linecap="butt" d="m7.4015746 27.722761l0 0c0 -2.282156 1.8500533 -4.13221 4.1322093 -4.13221l744.9324 0c1.0959473 0 2.1469727 0.43535614 2.921936 1.2102966c0.7749634 0.7749386 1.2103271 1.825983 1.2103271 2.9219131l0 55.074165c0 2.2821503 -1.8500977 4.132202 -4.132263 4.132202l-744.9324 0c-2.282156 0 -4.1322093 -1.8500519 -4.1322093 -4.132202z" fill-rule="evenodd"/><path fill="#ffffff" d="m7.4015746 12.274121l0 0c0 -2.5692692 2.0828052 -4.652074 4.6520743 -4.652074l743.8927 0c1.2338257 0 2.4170532 0.49012756 3.2894897 1.3625612c0.8724365 0.8724327 1.3626099 2.055706 1.3626099 3.2895126l0 62.00294c0 2.5692673 -2.0828247 4.652069 -4.6520996 4.652069l-743.8927 0c-2.5692692 0 -4.6520743 -2.0828018 -4.6520743 -4.652069z" fill-rule="evenodd"/><path stroke="#2563eb" stroke-width="4.0" stroke-linejoin="round" stroke-linecap="butt" d="m7.4015746 12.274121l0 0c0 -2.5692692 2.0828052 -4.652074 4.6520743 -4.652074l743.8927 0c1.2338257 0 2.4170532 0.49012756 3.2894897 1.3625612c0.8724365 0.8724327 1.3626099 2.055706 1.3626099 3.2895126l0 62.00294c0 2.5692673 -2.0828247 4.652069 -4.6520996 4.652069l-743.8927 0c-2.5692692 0 -4.6520743 -2.0828018 -4.6520743 -4.652069z" fill-rule="evenodd"/><path fill="#2563eb" d="m346.08572 36.195587q1.578125 0 2.71875 0.5625q1.140625 0.5625 1.765625 1.5625q0.625 1.0 0.625 2.296875q0 1.3125 -0.625 2.3125q-0.625 1.0 -1.765625 1.5625q-1.140625 0.546875 -2.71875 0.546875l-6.28125 0l0 -2.125l6.1875 0q1.28125 0 1.984375 -0.609375q0.71875 -0.609375 0.71875 -1.6875q0 -1.0625 -0.71875 -1.671875q-0.703125 -0.609375 -1.984375 -0.609375l-5.953125 0l1.109375 -1.234375l0 13.09375l-2.46875 0l0 -14.0l7.40625 0zm6.345703 3.4375l2.421875 0l0.640625 3.84375l0 6.71875l-2.421875 0l0 -7.1875l-0.640625 -3.375zm8.421875 -0.078125l0 2.140625q-0.421875 -0.125 -0.90625 -0.171875q-0.484375 -0.0625 -0.90625 -0.0625q-1.03125 0 -1.84375 0.453125q-0.796875 0.453125 -1.25 1.34375q-0.453125 0.875 -0.453125 2.15625l-0.5625 -0.6875q0.078125 -1.109375 0.375 -2.09375q0.3125 -0.984375 0.859375 -1.703125q0.5625 -0.734375 1.359375 -1.140625q0.796875 -0.421875 1.875 -0.421875q0.359375 0 0.75 0.046875q0.40625 0.046875 0.703125 0.140625zm10.985596 10.640625l-0.40625 -3.921875l0.484375 -1.359375l-0.484375 -1.34375l0.40625 -3.9375l2.5 0l-0.5625 5.28125l0.5625 5.28125l-2.5 0zm0.75 -5.28125q-0.359375 1.65625 -1.1875 2.90625q-0.8125 1.25 -2.015625 1.953125q-1.203125 0.6875 -2.6875 0.6875q-1.546875 0 -2.734375 -0.703125q-1.1875 -0.703125 -1.859375 -1.953125q-0.671875 -1.25 -0.671875 -2.890625q0 -1.65625 0.671875 -2.890625q0.671875 -1.25 1.859375 -1.953125q1.1875 -0.703125 2.734375 -0.703125q1.484375 0 2.6875 0.703125q1.203125 0.6875 2.03125 1.9375q0.828125 1.234375 1.171875 2.90625zm-8.703125 0q0 1.0625 0.4375 1.875q0.4375 0.8125 1.203125 1.28125q0.765625 0.453125 1.75 0.453125q1.015625 0 1.875 -0.453125q0.859375 -0.46875 1.515625 -1.28125q0.671875 -0.8125 1.0625 -1.875q-0.390625 -1.0625 -1.0625 -1.875q-0.65625 -0.8125 -1.515625 -1.265625q-0.859375 -0.453125 -1.875 -0.453125q-0.984375 0 -1.75 0.453125q-0.765625 0.453125 -1.203125 1.265625q-0.4375 0.8125 -0.4375 1.875zm24.44806 1.125q-0.1875 1.296875 -1.03125 2.296875q-0.84375 1.0 -2.15625 1.5625q-1.296875 0.5625 -2.90625 0.5625q-1.828125 0 -3.21875 -0.703125q-1.390625 -0.703125 -2.171875 -1.953125q-0.78125 -1.25 -0.78125 -2.890625q0 -1.640625 0.78125 -2.890625q0.78125 -1.25 2.171875 -1.953125q1.390625 -0.703125 3.21875 -0.703125q1.609375 0 2.90625 0.5625q1.3125 0.5625 2.15625 1.5625q0.84375 1.0 1.03125 2.328125l-2.453125 0q-0.25 -1.203125 -1.25 -1.875q-0.984375 -0.671875 -2.390625 -0.671875q-1.109375 0 -1.953125 0.4375q-0.84375 0.4375 -1.296875 1.25q-0.453125 0.8125 -0.453125 1.953125q0 1.125 0.453125 1.953125q0.453125 0.8125 1.296875 1.25q0.84375 0.4375 1.953125 0.4375q1.421875 0 2.40625 -0.6875q1.0 -0.6875 1.234375 -1.828125l2.453125 0zm0.5357666 -4.53125l0 -1.109375l2.25 -0.578125l1.015625 -2.953125l1.421875 0l0 2.765625l4.90625 0l0 1.875l-4.90625 0l0 4.5625q0 1.328125 0.5625 1.859375q0.5625 0.53125 1.859375 0.53125q0.8125 0 1.453125 -0.171875q0.640625 -0.1875 1.21875 -0.515625l0 2.0q-0.484375 0.234375 -1.375 0.453125q-0.890625 0.234375 -1.828125 0.234375q-1.546875 0 -2.5 -0.515625q-0.9375 -0.515625 -1.390625 -1.421875q-0.4375 -0.90625 -0.4375 -2.078125l0 -4.9375l-2.25 0zm11.541718 -1.953125l1.21875 0.234375l1.21875 -0.234375l0 10.640625l-2.4375 0l0 -10.640625zm1.21875 -1.3125q-0.6875 0 -1.140625 -0.375q-0.453125 -0.390625 -0.453125 -1.015625q0 -0.609375 0.453125 -0.984375q0.453125 -0.390625 1.140625 -0.390625q0.703125 0 1.140625 0.390625q0.4375 0.375 0.4375 0.984375q0 0.625 -0.4375 1.015625q-0.4375 0.375 -1.140625 0.375zm15.453003 7.796875q-0.1875 1.296875 -1.03125 2.296875q-0.84375 1.0 -2.15625 1.5625q-1.296875 0.5625 -2.90625 0.5625q-1.828125 0 -3.21875 -0.703125q-1.390625 -0.703125 -2.171875 -1.953125q-0.78125 -1.25 -0.78125 -2.890625q0 -1.640625 0.78125 -2.890625q0.78125 -1.25 2.171875 -1.953125q1.390625 -0.703125 3.21875 -0.703125q1.609375 0 2.90625 0.5625q1.3125 0.5625 2.15625 1.5625q0.84375 1.0 1.03125 2.328125l-2.453125 0q-0.25 -1.203125 -1.25 -1.875q-0.984375 -0.671875 -2.390625 -0.671875q-1.109375 0 -1.953125 0.4375q-0.84375 0.4375 -1.296875 1.25q-0.453125 0.8125 -0.453125 1.953125q0 1.125 0.453125 1.953125q0.453125 0.8125 1.296875 1.25q0.84375 0.4375 1.953125 0.4375q1.421875 0 2.40625 -0.6875q1.0 -0.6875 1.234375 -1.828125l2.453125 0zm7.6008606 4.421875q-1.84375 0 -3.28125 -0.703125q-1.4375 -0.703125 -2.265625 -1.953125q-0.8125 -1.25 -0.8125 -2.90625q0 -1.640625 0.765625 -2.875q0.78125 -1.25 2.15625 -1.953125q1.375 -0.703125 3.140625 -0.703125q1.78125 0 3.078125 0.796875q1.296875 0.796875 2.0 2.234375q0.703125 1.4375 0.703125 3.375l-9.9375 0l0 -1.84375l8.734375 0l-1.21875 0.6875q-0.046875 -1.046875 -0.5 -1.78125q-0.4375 -0.75 -1.171875 -1.15625q-0.734375 -0.40625 -1.734375 -0.40625q-1.0625 0 -1.859375 0.4375q-0.796875 0.421875 -1.25 1.203125q-0.4375 0.765625 -0.4375 1.828125q0 1.1875 0.53125 2.046875q0.53125 0.84375 1.5 1.3125q0.984375 0.453125 2.328125 0.453125q1.21875 0 2.484375 -0.375q1.265625 -0.390625 2.234375 -1.078125l0 1.75q-0.96875 0.75 -2.359375 1.1875q-1.390625 0.421875 -2.828125 0.421875z" fill-rule="nonzero"/></g></svg>