<svg version="1.1" viewBox="0.0 0.0 864.0 864.0" fill="none" stroke="none" stroke-linecap="square" stroke-miterlimit="10" xmlns:xlink="http://www.w3.org/1999/xlink" xmlns="http://www.w3.org/2000/svg"><clipPath id="g3b77170c992_0_434.0"><path d="m0 0l864.0 0l0 864.0l-864.0 0l0 -864.0z" clip-rule="nonzero"/></clipPath><g clip-path="url(#g3b77170c992_0_434.0)"><path fill="#d1e8ff" d="m-0.01026483 474.15936l0 0c0 -19.726288 15.991315 -35.71759 35.7176 -35.71759l202.82513 0c9.472885 0 18.5578 3.763092 25.256165 10.461426c6.6983337 6.6983643 10.461426 15.783264 10.461426 25.256165l0 142.86615c0 19.726257 -15.9913025 35.71759 -35.71759 35.71759l-202.82513 0l0 0c-19.726286 0 -35.7176 -15.991333 -35.7176 -35.71759z" fill-rule="evenodd"/><path fill="#d1e8ff" d="m408.94443 165.49622l0 0c0 -10.927246 8.858276 -19.785522 19.785522 -19.785522l79.13974 0l0 0c5.2474365 0 10.279968 2.0845337 13.9904785 5.795044c3.7105103 3.7105103 5.795044 8.743042 5.795044 13.9904785l0 412.44452c0 10.927246 -8.858276 19.785522 -19.785522 19.785522l-79.13974 0c-10.927246 0 -19.785522 -8.858276 -19.785522 -19.785522z" fill-rule="evenodd"/><path fill="#d1e8ff" d="m322.0362 592.5366l0 0c0 -4.572937 3.7070923 -8.280029 8.280029 -8.280029l275.99158 0c2.196045 0 4.302063 0.8723755 5.8548584 2.425171c1.5528564 1.5527954 2.425171 3.6588745 2.425171 5.8548584l0 33.1192c0 4.572937 -3.7070923 8.280029 -8.280029 8.280029l-275.99158 0c-4.572937 0 -8.280029 -3.7070923 -8.280029 -8.280029z" fill-rule="evenodd"/><path fill="#d1e8ff" d="m380.96497 140.43845l0 0c0 -4.572937 3.7070923 -8.280045 8.280029 -8.280045l158.1222 0c2.196045 0 4.302063 0.8723602 5.8549194 2.425171c1.5527954 1.5528107 2.4251099 3.6588745 2.4251099 5.8548737l0 33.119186c0 4.572937 -3.7070923 8.280045 -8.280029 8.280045l-158.1222 0c-4.572937 0 -8.280029 -3.7071075 -8.280029 -8.280045z" fill-rule="evenodd"/><path fill="#e7f2ff" d="m257.8824 384.193l0 0c0 -10.928131 8.859009 -19.78714 19.78717 -19.78714l79.14627 0l0 0c5.247864 0 10.280823 2.0846863 13.991638 5.7955017c3.710785 3.7108154 5.7955017 8.743774 5.7955017 13.991638l0 123.06732c0 10.928162 -8.859009 19.78717 -19.78714 19.78717l-79.14627 0c-10.928162 0 -19.78717 -8.859009 -19.78717 -19.78717z" fill-rule="evenodd"/><path fill="#f3f8fe" d="m257.88315 372.60867l0 0c0 -4.530304 3.6725159 -8.20282 8.20282 -8.20282l32.810425 0l0 0c2.1755066 0 4.261963 0.8642273 5.800293 2.4025574c1.5383301 1.5383301 2.4025574 3.6247559 2.4025574 5.8002625l0 146.23593c0 4.5303345 -3.6725464 8.202881 -8.20285 8.202881l-32.810425 0c-4.530304 0 -8.20282 -3.6725464 -8.20282 -8.202881z" fill-rule="evenodd"/><path fill="#e7f2ff" d="m170.97565 544.31085l0 0c0 -20.714722 16.792603 -37.507355 37.50734 -37.507355l217.52287 0c9.947571 0 19.487701 3.9516602 26.521698 10.985626c7.0339966 7.0339966 10.985657 16.574158 10.985657 26.521729l0 150.0249c0 20.714722 -16.792633 37.507385 -37.507355 37.507385l-217.52287 0l0 0c-20.714737 0 -37.50734 -16.792664 -37.50734 -37.507385z" fill-rule="evenodd"/><path fill="#e7f2ff" d="m229.9029 359.1345l0 0c0 -4.5739136 3.707901 -8.281799 8.281815 -8.281799l158.1173 0c2.1964722 0 4.3029785 0.8725586 5.8561096 2.4256897c1.5531311 1.5531311 2.4256897 3.6596375 2.4256897 5.8561096l0 33.12625c0 4.5739136 -3.7078857 8.28183 -8.281799 8.28183l-158.1173 0c-4.5739136 0 -8.281815 -3.7079163 -8.281815 -8.28183z" fill-rule="evenodd"/><path fill="#f3f8fe" d="m196.27571 606.2365l0 0c0 -5.6692505 4.595871 -10.265137 10.265167 -10.265137l41.05945 0l0 0c2.7225037 0 5.333481 1.0814819 7.2585754 3.0065918c1.9250946 1.9251099 3.006607 4.536072 3.006607 7.258545l0 92.616516c0 5.6693115 -4.595886 10.265198 -10.2651825 10.265198l-41.05945 0c-5.6692963 0 -10.265167 -4.595886 -10.265167 -10.265198z" fill-rule="evenodd"/><path fill="#f3f8fe" d="m229.9029 359.1345l0 0c0 -4.5739136 3.707901 -8.281799 8.281815 -8.281799l98.50618 0c2.1964722 0 4.3029785 0.8725586 5.8561096 2.4256897c1.5531616 1.5531311 2.4256897 3.6596375 2.4256897 5.8561096l0 33.12625c0 4.5739136 -3.7078857 8.28183 -8.281799 8.28183l-98.50618 0c-4.5739136 0 -8.281815 -3.7079163 -8.281815 -8.28183z" fill-rule="evenodd"/><path fill="#f3f8fe" d="m196.27571 539.3728l0 0c0 -4.0146484 3.254547 -7.269226 7.269226 -7.269226l47.051346 0c1.9279175 0 3.7768707 0.76586914 5.140106 2.1291504c1.3632507 1.3632202 2.1291199 3.2121582 2.1291199 5.1400757l0 29.07605c0 4.0147095 -3.254547 7.269226 -7.269226 7.269226l-47.051346 0c-4.014679 0 -7.269226 -3.2545166 -7.269226 -7.269226z" fill-rule="evenodd"/><path fill="#c841ff" d="m196.27571 659.5383l0 0c0 -5.474365 4.4378204 -9.91217 9.912155 -9.91217l222.13159 0c2.6288757 0 5.150055 1.0443115 7.008972 2.9031982c1.8588867 1.8588867 2.9031982 4.380066 2.9031982 7.008972l0 39.64746c0 5.474304 -4.4378357 9.912109 -9.91217 9.912109l-222.13159 0c-5.4743347 0 -9.912155 -4.437805 -9.912155 -9.912109z" fill-rule="evenodd"/><path fill="#df91ff" d="m196.27571 659.5383l0 0c0 -5.474365 4.4378204 -9.91217 9.912155 -9.91217l41.765472 0l0 0c2.6288757 0 5.15007 1.0443115 7.008957 2.9031982c1.858902 1.8588867 2.9032135 4.380066 2.9032135 7.008972l0 39.64746c0 5.474304 -4.4378357 9.912109 -9.91217 9.912109l-41.765472 0c-5.4743347 0 -9.912155 -4.437805 -9.912155 -9.912109z" fill-rule="evenodd"/><path fill="#e7f2ff" d="m500.56204 336.40848l0 0c0 -33.454956 27.120575 -60.57553 60.57553 -60.57553l242.29486 0l0 0c16.065613 0 31.473206 6.3820496 42.833374 17.742157c11.360107 11.360107 17.742126 26.76773 17.742126 42.833374l0 334.85898c0 33.454895 -27.120605 60.5755 -60.5755 60.5755l-242.29486 0c-33.454956 0 -60.57553 -27.120605 -60.57553 -60.5755z" fill-rule="evenodd"/><path fill="#f3f8fe" d="m531.9927 469.27115l0 0c0 -7.0424194 5.7089844 -12.751434 12.751404 -12.751434l51.00421 0l0 0c3.381897 0 6.625244 1.3434448 9.016663 3.7348022c2.3913574 2.3913574 3.7348022 5.634735 3.7348022 9.016632l0 203.7698c0 7.0424194 -5.7090454 12.751404 -12.751465 12.751404l-51.00421 0c-7.0424194 0 -12.751404 -5.7089844 -12.751404 -12.751404z" fill-rule="evenodd"/><path fill="#f3f8fe" d="m531.9927 339.85162l0 0c0 -7.0424194 5.7089844 -12.751434 12.751404 -12.751434l51.00421 0l0 0c3.381897 0 6.625244 1.3434448 9.016663 3.7348022c2.3913574 2.3913574 3.7348022 5.634735 3.7348022 9.016632l0 62.885437c0 7.0424194 -5.7090454 12.751434 -12.751465 12.751434l-51.00421 0c-7.0424194 0 -12.751404 -5.709015 -12.751404 -12.751434z" fill-rule="evenodd"/><path fill="#51de18" d="m531.99274 542.0888l0 0c0 -15.869446 12.864746 -28.734253 28.734192 -28.734253l243.14124 0c7.6207886 0 14.929443 3.0274048 20.318176 8.416077c5.388672 5.388733 8.416077 12.697388 8.416077 20.318176l0 114.93347c0 15.869446 -12.864807 28.734192 -28.734253 28.734192l-243.14124 0c-15.869446 0 -28.734192 -12.864746 -28.734192 -28.734192z" fill-rule="evenodd"/><path fill="#a0f77c" d="m531.99274 526.09735l0 0c0 -7.0424194 5.7089844 -12.751404 12.751404 -12.751404l51.00421 0l0 0c3.381897 0 6.625244 1.3434448 9.016602 3.7348022c2.3913574 2.3913574 3.7348633 5.6347046 3.7348633 9.016602l0 146.89905c0 7.0424194 -5.7090454 12.751404 -12.751465 12.751404l-51.00421 0c-7.0424194 0 -12.751404 -5.7089844 -12.751404 -12.751404z" fill-rule="evenodd"/><path fill="#e7f2ff" d="m573.7681 224.39322l0 0c0 -5.683365 4.6073 -10.290634 10.290649 -10.290634l196.41248 0c2.729248 0 5.3467407 1.0841827 7.2766113 3.0140533c1.9298706 1.9298706 3.014038 4.547333 3.014038 7.276581l0 41.161285c0 5.6833496 -4.6073 10.290619 -10.290649 10.290619l-196.41248 0c-5.6833496 0 -10.290649 -4.6072693 -10.290649 -10.290619z" fill-rule="evenodd"/><path fill="#f3f8fe" d="m573.7681 224.39322l0 0c0 -5.683365 4.6073 -10.290634 10.290649 -10.290634l122.39105 0c2.729187 0 5.3466797 1.0841827 7.2765503 3.0140533c1.9298706 1.9298706 3.014038 4.547333 3.014038 7.276581l0 41.161285c0 5.6833496 -4.607239 10.290619 -10.290588 10.290619l-122.39105 0c-5.6833496 0 -10.290649 -4.6072693 -10.290649 -10.290619z" fill-rule="evenodd"/></g></svg>