<svg version="1.1" viewBox="0.0 0.0 960.0 540.0" fill="none" stroke="none" stroke-linecap="square" stroke-miterlimit="10" xmlns:xlink="http://www.w3.org/1999/xlink" xmlns="http://www.w3.org/2000/svg"><clipPath id="p.0"><path d="m0 0l960.0 0l0 540.0l-960.0 0l0 -540.0z" clip-rule="nonzero"/></clipPath><g clip-path="url(#p.0)"><path fill="#fcb630" d="m0 0l960.0 0l0 540.0l-960.0 0z" fill-rule="evenodd"/><path fill="#000000" fill-opacity="0.0" d="m424.70602 195.6693l374.26773 0l0 148.66142l-374.26773 0z" fill-rule="evenodd"/><path fill="#ffffff" d="m459.89352 215.8693q5.015625 0 8.65625 1.71875q3.65625 1.703125 5.578125 4.828125q1.921875 3.109375 1.921875 7.265625q0 4.109375 -1.921875 7.234375q-1.921875 3.109375 -5.578125 4.828125q-3.640625 1.703125 -8.65625 1.703125l-17.328125 0l0 -8.859375l16.625 0q2.671875 0 4.15625 -1.296875q1.5 -1.3125 1.5 -3.609375q0 -2.34375 -1.5 -3.640625q-1.484375 -1.3125 -4.15625 -1.3125l-15.671875 0l4.953125 -5.125l0 36.265625l-11.03125 0l0 -40.0l22.453125 0zm18.768402 9.546875l11.09375 0l1.8125 10.875l0 19.578125l-10.875 0l0 -20.21875l-2.03125 -10.234375zm27.203125 -0.484375l0 9.28125q-1.609375 -0.3125 -3.03125 -0.4375q-1.40625 -0.140625 -2.578125 -0.140625q-2.34375 0 -4.3125 0.9375q-1.96875 0.921875 -3.171875 3.0625q-1.203125 2.125 -1.203125 5.703125l-2.078125 -2.5625q0.421875 -3.296875 1.265625 -6.203125q0.859375 -2.90625 2.328125 -5.171875q1.46875 -2.28125 3.65625 -3.578125q2.1875 -1.3125 5.328125 -1.3125q0.90625 0 1.859375 0.109375q0.96875 0.109375 1.9375 0.3125zm3.7247925 0l5.5 1.078125l5.4375 -1.078125l0 30.9375l-10.9375 0l0 -30.9375zm5.453125 -2.5q-2.828125 0 -4.59375 -1.40625q-1.75 -1.421875 -1.75 -3.875q0 -2.390625 1.75 -3.828125q1.765625 -1.453125 4.59375 -1.453125q2.921875 0 4.65625 1.453125q1.734375 1.4375 1.734375 3.828125q0 2.453125 -1.734375 3.875q-1.734375 1.40625 -4.65625 1.40625zm30.967468 28.265625l-3.734375 -0.046875l10.5625 -25.234375l11.625 0l-14.234375 30.453125l-12.421875 0l-14.25 -30.453125l12.0625 0l10.390625 25.28125zm47.355957 5.171875l-1.390625 -10.984375l1.453125 -4.21875l-1.453125 -4.203125l1.390625 -11.046875l11.3125 0l-1.921875 15.203125l1.921875 15.25l-11.3125 0zm2.5625 -15.203125q-0.75 4.796875 -2.96875 8.4375q-2.203125 3.625 -5.59375 5.625q-3.375 2.0 -7.703125 2.0q-4.484375 0 -7.875 -2.0q-3.375 -2.0 -5.296875 -5.65625q-1.921875 -3.65625 -1.921875 -8.40625q0 -4.84375 1.921875 -8.46875q1.921875 -3.625 5.296875 -5.65625q3.390625 -2.03125 7.875 -2.03125q4.328125 0 7.703125 2.0q3.390625 2.0 5.625 5.609375q2.25 3.59375 2.9375 8.546875zm-20.3125 0q0 2.25 0.921875 4.015625q0.9375 1.75 2.59375 2.734375q1.65625 0.984375 3.78125 0.984375q2.25 0 4.21875 -0.984375q1.96875 -0.984375 3.453125 -2.734375q1.5 -1.765625 2.25 -4.015625q-0.75 -2.28125 -2.25 -4.046875q-1.484375 -1.765625 -3.453125 -2.765625q-1.96875 -1.015625 -4.21875 -1.015625q-2.125 0 -3.78125 1.015625q-1.65625 1.0 -2.59375 2.765625q-0.921875 1.765625 -0.921875 4.046875zm70.32916 2.34375q-0.421875 4.109375 -2.984375 7.203125q-2.5625 3.09375 -6.640625 4.8125q-4.078125 1.703125 -9.140625 1.703125q-5.59375 0 -9.859375 -2.03125q-4.265625 -2.03125 -6.671875 -5.65625q-2.40625 -3.625 -2.40625 -8.375q0 -4.796875 2.40625 -8.421875q2.40625 -3.625 6.671875 -5.671875q4.265625 -2.0625 9.859375 -2.0625q5.0625 0 9.140625 1.734375q4.078125 1.734375 6.640625 4.796875q2.5625 3.0625 2.984375 7.234375l-10.8125 0q-0.59375 -2.71875 -2.734375 -4.1875q-2.125 -1.46875 -5.21875 -1.46875q-2.40625 0 -4.1875 0.9375q-1.78125 0.921875 -2.78125 2.71875q-0.984375 1.78125 -0.984375 4.390625q0 2.5625 0.984375 4.359375q1.0 1.78125 2.78125 2.71875q1.78125 0.921875 4.1875 0.921875q3.09375 0 5.25 -1.546875q2.15625 -1.546875 2.703125 -4.109375l10.8125 0zm12.648071 22.515625q-3.359375 0 -5.984375 -0.828125q-2.609375 -0.828125 -5.0625 -2.53125l0 -7.578125q2.515625 1.59375 4.703125 2.28125q2.1875 0.703125 4.796875 0.703125q2.1875 0 3.890625 -0.96875q1.703125 -0.953125 2.765625 -3.5l11.6875 -27.6875l11.5625 0l-14.609375 31.046875q-1.546875 3.359375 -3.765625 5.359375q-2.203125 2.0 -4.765625 2.84375q-2.5625 0.859375 -5.21875 0.859375zm0.375 -12.484375l-12.96875 -27.625l12.0 0l11.46875 27.625l-10.5 0z" fill-rule="nonzero"/><path fill="#ffffff" d="m459.89352 279.8693q5.015625 0 8.65625 1.71875q3.65625 1.703125 5.578125 4.828125q1.921875 3.109375 1.921875 7.265625q0 4.109375 -1.921875 7.234375q-1.921875 3.109375 -5.578125 4.828125q-3.640625 1.703125 -8.65625 1.703125l-17.328125 0l0 -8.859375l16.625 0q2.671875 0 4.15625 -1.296875q1.5 -1.3125 1.5 -3.609375q0 -2.34375 -1.5 -3.640625q-1.484375 -1.3125 -4.15625 -1.3125l-15.671875 0l4.953125 -5.125l0 36.265625l-11.03125 0l0 -40.0l22.453125 0zm37.599854 40.859375q-5.875 0 -10.25 -2.0q-4.375 -2.0 -6.828125 -5.65625q-2.453125 -3.65625 -2.453125 -8.40625q0 -4.84375 2.453125 -8.46875q2.453125 -3.625 6.828125 -5.65625q4.375 -2.03125 10.25 -2.03125q5.8125 0 10.203125 2.03125q4.4062805 2.03125 6.8594055 5.65625q2.453125 3.625 2.453125 8.46875q0 4.75 -2.453125 8.40625q-2.453125 3.65625 -6.8594055 5.65625q-4.390625 2.0 -10.203125 2.0zm0 -8.0625q2.65625 0 4.546875 -0.953125q1.90625 -0.96875 2.90625 -2.78125q1.015625 -1.8125 1.015625 -4.265625q0 -2.5625 -1.015625 -4.34375q-1.0 -1.78125 -2.90625 -2.734375q-1.890625 -0.96875 -4.546875 -0.96875q-2.671875 0 -4.59375 0.96875q-1.921875 0.953125 -2.9375 2.734375q-1.015625 1.78125 -1.015625 4.296875q0 2.5 1.015625 4.3125q1.015625 1.8125 2.9375 2.78125q1.921875 0.953125 4.59375 0.953125zm24.095184 -33.859375l10.9375 0l0 41.0625l-10.9375 0l0 -41.0625zm16.904968 10.125l5.5 1.078125l5.4375 -1.078125l0 30.9375l-10.9375 0l0 -30.9375zm5.453125 -2.5q-2.828125 0 -4.59375 -1.40625q-1.75 -1.421875 -1.75 -3.875q0 -2.390625 1.75 -3.828125q1.765625 -1.453125 4.59375 -1.453125q2.921875 0 4.65625 1.453125q1.734375 1.4375 1.734375 3.828125q0 2.453125 -1.734375 3.875q-1.734375 1.40625 -4.65625 1.40625zm47.764404 20.578125q-0.421875 4.109375 -2.984375 7.203125q-2.5625 3.09375 -6.640625 4.8125q-4.078125 1.703125 -9.140625 1.703125q-5.59375 0 -9.859375 -2.03125q-4.265625 -2.03125 -6.671875 -5.65625q-2.40625 -3.625 -2.40625 -8.375q0 -4.796875 2.40625 -8.421875q2.40625 -3.625 6.671875 -5.671875q4.265625 -2.0625 9.859375 -2.0625q5.0625 0 9.140625 1.734375q4.078125 1.734375 6.640625 4.796875q2.5625 3.0625 2.984375 7.234375l-10.8125 0q-0.59375 -2.71875 -2.734375 -4.1875q-2.125 -1.46875 -5.21875 -1.46875q-2.40625 0 -4.1875 0.9375q-1.78125 0.921875 -2.78125 2.71875q-0.984375 1.78125 -0.984375 4.390625q0 2.5625 0.984375 4.359375q1.0 1.78125 2.78125 2.71875q1.78125 0.921875 4.1875 0.921875q3.09375 0 5.25 -1.546875q2.15625 -1.546875 2.703125 -4.109375l10.8125 0zm12.64801 22.515625q-3.359375 0 -5.984375 -0.828125q-2.609375 -0.828125 -5.0625 -2.53125l0 -7.578125q2.515625 1.59375 4.703125 2.28125q2.1875 0.703125 4.796875 0.703125q2.1875 0 3.890625 -0.96875q1.703125 -0.953125 2.765625 -3.5l11.6875 -27.6875l11.5625 0l-14.609375 31.046875q-1.546875 3.359375 -3.765625 5.359375q-2.203125 2.0 -4.765625 2.84375q-2.5625 0.859375 -5.21875 0.859375zm0.375 -12.484375l-12.96875 -27.625l12.0 0l11.46875 27.625l-10.5 0z" fill-rule="nonzero"/><path fill="#9f9f9f" d="m285.65927 208.77466l0 0c0 -7.3320923 5.9438477 -13.27594 13.27594 -13.27594l53.102142 0l0 0c3.520996 0 6.897766 1.3987122 9.387512 3.8884277c2.4897156 2.4897308 3.8884277 5.866516 3.8884277 9.387512l0 53.311676c0 7.3320923 -5.9438477 13.275909 -13.27594 13.275909l-53.102142 0l0 0c-7.3320923 0 -13.27594 -5.943817 -13.27594 -13.275909z" fill-rule="evenodd"/><path fill="#cfcfcf" d="m285.66052 201.68518l0 0c0 -3.416687 2.7697754 -6.1864624 6.1864624 -6.1864624l67.2811 0c1.6407471 0 3.2142944 0.65179443 4.374481 1.8119812c1.1601868 1.1601715 1.8119507 2.7337341 1.8119507 4.374481l0 24.745071c0 3.416687 -2.7697449 6.186447 -6.186432 6.186447l-67.2811 0c-3.416687 0 -6.1864624 -2.7697601 -6.1864624 -6.186447z" fill-rule="evenodd"/><path fill="#fcb630" d="m297.724 216.82631l0 0c0 -5.1167603 4.147949 -9.264709 9.264709 -9.264709l37.05774 0l0 0c2.4571533 0 4.81369 0.97610474 6.5511475 2.7135773c1.7374878 1.7374725 2.7135925 4.093979 2.7135925 6.551132l0 37.207413c0 5.1167603 -4.1479797 9.264709 -9.26474 9.264709l-37.05774 0c-5.1167603 0 -9.264709 -4.147949 -9.264709 -9.264709z" fill-rule="evenodd"/><path fill="#656565" d="m273.02594 257.0459l0 0c0 -9.6604 7.831299 -17.4917 17.4917 -17.4917l69.96469 0l0 0c4.639099 0 9.088165 1.842865 12.3685 5.1231995c3.2803345 3.2803345 5.1231995 7.729416 5.1231995 12.3685l0 69.96469c0 9.6604 -7.831299 17.49173 -17.4917 17.49173l-69.96469 0c-9.6604 0 -17.4917 -7.8313293 -17.4917 -17.49173z" fill-rule="evenodd"/><path fill="#3c3c3c" d="m281.3941 262.63016l0 0c0 -8.12291 6.5849 -14.707809 14.707794 -14.707809l58.829407 0l0 0c3.9007568 0 7.641754 1.5495605 10.399994 4.3078156c2.7582397 2.7582397 4.3078003 6.499237 4.3078003 10.399994l0 58.829407c0 8.122894 -6.5849 14.707794 -14.707794 14.707794l-58.829407 0c-8.122894 0 -14.707794 -6.5849 -14.707794 -14.707794z" fill-rule="evenodd"/><path fill="#9f9f9f" d="m289.76227 268.2044l0 0c0 -6.5798645 5.3340454 -11.91391 11.91391 -11.91391l47.654236 0l0 0c3.1597595 0 6.190094 1.2552185 8.424408 3.489502c2.2342834 2.2342834 3.489502 5.2646484 3.489502 8.424408l0 47.654236c0 6.5798645 -5.3340454 11.91391 -11.91391 11.91391l-47.654236 0c-6.5798645 0 -11.91391 -5.3340454 -11.91391 -11.91391z" fill-rule="evenodd"/><path fill="#656565" d="m313.45413 275.7465l0 0c0 -2.215332 1.7958679 -4.0112305 4.0112 -4.0112305l16.044403 0l0 0c1.0638428 0 2.0841064 0.42260742 2.8363342 1.1748657c0.7522583 0.7522583 1.1748657 1.772522 1.1748657 2.8363647l0 18.079895c0 2.215332 -1.7958679 4.0112 -4.0112 4.0112l-16.044403 0l0 0c-2.215332 0 -4.0112 -1.7958679 -4.0112 -4.0112z" fill-rule="evenodd"/><path fill="#656565" d="m318.90027 289.31146l0 0c0 -1.2123718 0.9828186 -2.1951904 2.1951904 -2.1951904l8.780518 0l0 0c0.58218384 0 1.140564 0.23129272 1.5522461 0.64297485c0.4116516 0.41168213 0.64294434 0.97003174 0.64294434 1.5522156l0 19.676453c0 1.2123718 -0.9828186 2.1951904 -2.1951904 2.1951904l-8.780518 0c-1.2123718 0 -2.1951904 -0.9828186 -2.1951904 -2.1951904z" fill-rule="evenodd"/></g></svg>