<svg version="1.1" viewBox="0.0 0.0 1536.0 192.0" fill="none" stroke="none" stroke-linecap="square" stroke-miterlimit="10" xmlns:xlink="http://www.w3.org/1999/xlink" xmlns="http://www.w3.org/2000/svg"><clipPath id="p.0"><path d="m0 0l1536.0 0l0 192.0l-1536.0 0l0 -192.0z" clip-rule="nonzero"/></clipPath><g clip-path="url(#p.0)"><path fill="#000000" d="m0 0l1536.0 0l0 192.0l-1536.0 0z" fill-rule="evenodd"/><defs><linearGradient id="p.1" gradientUnits="userSpaceOnUse" gradientTransform="matrix(13.06748691382662 0.0 0.0 13.06748691382662 0.0 0.0)" spreadMethod="pad" x1="11.799760101446244" y1="0.8021523684670286" x2="11.797098770838723" y2="13.869639011289717"><stop offset="0.0" stop-color="#737373" stop-opacity="0.6156863"/><stop offset="0.48" stop-color="#737373" stop-opacity="0.0"/><stop offset="0.48000002" stop-color="#ffffff" stop-opacity="0.0"/><stop offset="0.61" stop-color="#737373" stop-opacity="0.0"/><stop offset="1.0" stop-color="#737373" stop-opacity="0.6156863"/></linearGradient></defs><path fill="url(#p.1)" d="m220.57681 10.732121c-20.242905 0 -36.37442 6.15079 -48.3945 18.45237c-11.992783 12.3015785 -17.989151 28.45713 -17.989151 48.466663c0 18.685944 6.105667 33.933144 18.31697 45.74163c12.211319 11.782509 27.987686 17.67379 47.329086 17.67379c17.292542 0 31.47078 -4.373047 42.534714 -13.119095c11.063934 -8.772018 17.784271 -21.333115 20.16095 -37.68332l-34.421143 0c-1.2293243 8.175102 -4.302643 14.429695 -9.219955 18.763802c-4.9172974 4.3081436 -11.350784 6.462227 -19.30043 6.462227c-9.260925 0 -16.513962 -3.5425491 -21.759079 -10.627632c-5.2451324 -7.0850906 -7.867691 -16.544846 -7.867691 -28.379272c0 -11.8344345 2.6635437 -21.488838 7.990616 -28.963215c5.3270874 -7.4743767 12.785004 -11.211563 22.373749 -11.211563c7.703781 0 13.768463 1.7777634 18.194046 5.3332787c4.4255676 3.5295715 7.1710663 8.836895 8.236481 15.921978l35.035828 0c-0.9834595 -14.715179 -7.23938 -26.199245 -18.76773 -34.4522c-11.501053 -8.252958 -25.651947 -12.379437 -42.45276 -12.379437z" fill-rule="evenodd"/><defs><linearGradient id="p.2" gradientUnits="userSpaceOnUse" gradientTransform="matrix(13.06748691382662 0.0 0.0 13.06748691382662 0.0 0.0)" spreadMethod="pad" x1="11.799760101446244" y1="0.8021523684670286" x2="11.797098770838723" y2="13.869639011289717"><stop offset="0.0" stop-color="#737373" stop-opacity="0.6156863"/><stop offset="0.48" stop-color="#737373" stop-opacity="0.0"/><stop offset="0.48000002" stop-color="#ffffff" stop-opacity="0.0"/><stop offset="0.61" stop-color="#737373" stop-opacity="0.0"/><stop offset="1.0" stop-color="#737373" stop-opacity="0.6156863"/></linearGradient></defs><path fill="url(#p.2)" d="m302.8188 14.002162l0 77.42988c0 17.440208 3.8518982 30.07917 11.555664 37.916885c7.7037964 7.8117523 19.628265 11.717651 35.773438 11.717651c7.867676 0 15.366577 -1.7128906 22.496674 -5.1386414c7.1300964 -3.4257507 12.948914 -8.564392 17.456451 -15.415901l0.73757935 0l0 17.167717l34.05237 0l0 -123.67759l-35.773438 0l0 65.98473c0 11.523003 -2.158142 20.113335 -6.4744263 25.771034c-4.2890015 5.631729 -11.3508 8.447601 -21.185425 8.447601c-8.441376 0 -14.383118 -2.543373 -17.825226 -7.6300964c-3.4421082 -5.112686 -5.1631775 -12.3405075 -5.1631775 -21.68348l0 -70.88979z" fill-rule="evenodd"/><defs><linearGradient id="p.3" gradientUnits="userSpaceOnUse" gradientTransform="matrix(13.06748691382662 0.0 0.0 13.06748691382662 0.0 0.0)" spreadMethod="pad" x1="11.799760101446244" y1="0.8021523684670286" x2="11.797098770838723" y2="13.869639011289717"><stop offset="0.0" stop-color="#737373" stop-opacity="0.6156863"/><stop offset="0.48" stop-color="#737373" stop-opacity="0.0"/><stop offset="0.48000002" stop-color="#ffffff" stop-opacity="0.0"/><stop offset="0.61" stop-color="#737373" stop-opacity="0.0"/><stop offset="1.0" stop-color="#737373" stop-opacity="0.6156863"/></linearGradient></defs><path fill="url(#p.3)" d="m527.90857 10.732121c-8.851196 0 -17.03302 2.361699 -24.545593 7.085086c-7.4852295 4.697443 -13.1128235 11.09478 -16.882751 19.19202l-0.49172974 0l0 -23.007065l-33.929413 0l0 123.67759l35.650482 0l0 -56.75856c0 -11.756569 2.88208 -21.13847 8.646271 -28.145699c5.7914734 -7.007225 14.7109375 -10.510841 26.758362 -10.510841c2.6225586 0 4.8899536 0.10381317 6.802246 0.31143188c1.9396362 0.18167496 3.933838 0.46715164 5.982727 0.8564415l0 -31.532528c-1.1473999 -0.38928986 -2.376709 -0.67476654 -3.6879883 -0.85643864c-1.3112793 -0.20761871 -2.7454834 -0.31143284 -4.3026123 -0.31143284z" fill-rule="evenodd"/><defs><linearGradient id="p.4" gradientUnits="userSpaceOnUse" gradientTransform="matrix(13.06748691382662 0.0 0.0 13.06748691382662 0.0 0.0)" spreadMethod="pad" x1="11.799760101446244" y1="0.8021523684670286" x2="11.797098770838723" y2="13.869639011289717"><stop offset="0.0" stop-color="#737373" stop-opacity="0.6156863"/><stop offset="0.48" stop-color="#737373" stop-opacity="0.0"/><stop offset="0.48000002" stop-color="#ffffff" stop-opacity="0.0"/><stop offset="0.61" stop-color="#737373" stop-opacity="0.0"/><stop offset="1.0" stop-color="#737373" stop-opacity="0.6156863"/></linearGradient></defs><path fill="url(#p.4)" d="m627.23816 77.184006l0 13.196945c0 9.109398 -2.4450073 16.038765 -7.334961 20.788109c-4.862671 4.749344 -12.047424 7.124016 -21.5542 7.124016c-7.621826 0 -13.194824 -1.4014435 -16.718872 -4.204338c-3.5240479 -2.802887 -5.286133 -6.656868 -5.286133 -11.561928c0 -5.3722076 1.8986816 -9.550598 5.695923 -12.535149c3.824585 -3.010521 9.79364 -5.0218506 17.907166 -6.034004c9.097046 -1.2457275 15.380249 -2.2708664 18.84967 -3.0753937c3.4967651 -0.8304901 6.310547 -2.06324 8.441406 -3.6982574zm-21.267334 -66.45188c-18.357971 0 -32.932312 3.5036144 -43.723083 10.510842c-10.763428 7.007229 -16.636902 17.284498 -17.620361 30.831804l35.773438 0c0.65563965 -6.462219 2.9503784 -11.185608 6.8842163 -14.170174c3.933838 -3.0105095 9.588745 -4.515766 16.964722 -4.515766c8.523315 0 14.478699 1.3884697 17.86621 4.1654053c3.414795 2.7509918 5.1221924 6.890442 5.1221924 12.4183655c0 4.90506 -2.2127686 8.356773 -6.6383667 10.355129c-4.425598 1.9724083 -13.563599 3.5814705 -27.414001 4.827202c-19.9151 2.1021652 -33.64258 6.21566 -41.182434 12.3405075c-7.539856 6.098877 -11.309814 14.909821 -11.309814 26.432823c0 11.912285 4.015808 21.086555 12.047424 27.522835c8.031555 6.410309 18.7677 9.6154785 32.208374 9.6154785c9.342834 0 17.715942 -1.2976532 25.119202 -3.8929138c7.430603 -2.621231 13.645569 -6.3843536 18.644836 -11.289421c0.1638794 2.0243149 0.46435547 4.035637 0.90148926 6.034004c0.4644165 1.9723969 1.0244141 3.8928986 1.6800537 5.761505l36.265137 0c-1.6390991 -2.5693207 -2.8137817 -6.3454437 -3.5240479 -11.3283615c-0.6829834 -4.982918 -1.0244141 -9.965836 -1.0244141 -14.948753l0 -66.3351c0 -10.900131 -4.6987915 -19.347734 -14.096313 -25.342808c-9.370178 -5.9950733 -23.684998 -8.99261 -42.944458 -8.99261z" fill-rule="evenodd"/><defs><linearGradient id="p.5" gradientUnits="userSpaceOnUse" gradientTransform="matrix(13.06748691382662 0.0 0.0 13.06748691382662 0.0 0.0)" spreadMethod="pad" x1="11.799760101446244" y1="0.8021523684670286" x2="11.797098770838723" y2="13.869639011289717"><stop offset="0.0" stop-color="#737373" stop-opacity="0.6156863"/><stop offset="0.48" stop-color="#737373" stop-opacity="0.0"/><stop offset="0.48000002" stop-color="#ffffff" stop-opacity="0.0"/><stop offset="0.61" stop-color="#737373" stop-opacity="0.0"/><stop offset="1.0" stop-color="#737373" stop-opacity="0.6156863"/></linearGradient></defs><path fill="url(#p.5)" d="m766.6438 10.732121c-8.851135 0 -17.032959 2.361699 -24.545532 7.085086c-7.4852295 4.697443 -13.112793 11.09478 -16.882751 19.19202l-0.49176025 0l0 -23.007065l-33.929382 0l0 123.67759l35.65045 0l0 -56.75856c0 -11.756569 2.88208 -21.13847 8.646301 -28.145699c5.791504 -7.007225 14.7109375 -10.510841 26.7583 -10.510841c2.6226196 0 4.8900146 0.10381317 6.802307 0.31143188c1.9395752 0.18167496 3.933838 0.46715164 5.982727 0.8564415l0 -31.532528c-1.1473999 -0.38928986 -2.376709 -0.67476654 -3.6879883 -0.85643864c-1.3112793 -0.20761871 -2.7454834 -0.31143284 -4.3026733 -0.31143284z" fill-rule="evenodd"/><defs><linearGradient id="p.6" gradientUnits="userSpaceOnUse" gradientTransform="matrix(13.06748691382662 0.0 0.0 13.06748691382662 0.0 0.0)" spreadMethod="pad" x1="11.799760101446244" y1="0.8021523684670286" x2="11.797098770838723" y2="13.869639011289717"><stop offset="0.0" stop-color="#737373" stop-opacity="0.6156863"/><stop offset="0.48" stop-color="#737373" stop-opacity="0.0"/><stop offset="0.48000002" stop-color="#ffffff" stop-opacity="0.0"/><stop offset="0.61" stop-color="#737373" stop-opacity="0.0"/><stop offset="1.0" stop-color="#737373" stop-opacity="0.6156863"/></linearGradient></defs><path fill="url(#p.6)" d="m845.6896 36.308506c8.441345 0 14.888489 2.102169 19.34137 6.3065033c4.4802246 4.204338 7.5808716 10.861206 9.301941 19.9706l-58.147156 0c0.81951904 -8.175098 3.7698975 -14.598389 8.851135 -19.269875c5.081238 -4.671486 11.965454 -7.007229 20.65271 -7.007229zm1.2293091 -25.576385c-19.50531 0 -35.4729 6.267577 -47.90277 18.80273c-12.402527 12.535152 -18.60382 28.028912 -18.60382 46.481277c0 19.23095 6.0646973 34.880432 18.19403 46.948433c12.1293335 12.068001 28.23352 18.102013 48.31256 18.102013c15.653442 0 28.520386 -3.4387512 38.60083 -10.316208c10.080505 -6.9034195 17.538452 -17.36235 22.37378 -31.376808l-31.470764 0c-1.4752197 4.437912 -4.958313 8.239975 -10.44928 11.406212c-5.491028 3.140274 -11.473755 4.7104187 -17.948181 4.7104187c-9.998535 0 -17.68866 -2.5693207 -23.070374 -7.7079544c-5.35437 -5.1386337 -8.277466 -13.041229 -8.769165 -23.707787l93.92053 0l0.24591064 -6.306511c0 -19.542377 -5.764221 -35.59412 -17.292542 -48.155228c-11.501038 -12.587055 -26.881287 -18.880589 -46.140747 -18.880589z" fill-rule="evenodd"/><defs><linearGradient id="p.7" gradientUnits="userSpaceOnUse" gradientTransform="matrix(13.06748691382662 0.0 0.0 13.06748691382662 0.0 0.0)" spreadMethod="pad" x1="11.799760101446244" y1="0.8021523684670286" x2="11.797098770838723" y2="13.869639011289717"><stop offset="0.0" stop-color="#737373" stop-opacity="0.6156863"/><stop offset="0.48" stop-color="#737373" stop-opacity="0.0"/><stop offset="0.48000002" stop-color="#ffffff" stop-opacity="0.0"/><stop offset="0.61" stop-color="#737373" stop-opacity="0.0"/><stop offset="1.0" stop-color="#737373" stop-opacity="0.6156863"/></linearGradient></defs><path fill="url(#p.7)" d="m1066.4767 36.308506c10.326294 0 18.153076 3.6982574 23.480103 11.094776c5.3271484 7.3965187 7.9906006 17.011993 7.9906006 28.846428c0 12.457291 -2.690796 22.111694 -8.07251 28.963203c-5.35437 6.8515167 -12.989868 10.277275 -22.906494 10.277275c-10.162476 0 -17.907227 -3.5814743 -23.234253 -10.744423c-5.3271484 -7.162941 -7.9906006 -16.661629 -7.9906006 -28.496056c0 -12.613014 2.6634521 -22.423134 7.9906006 -29.430363c5.3270264 -7.007229 12.907959 -10.510841 22.742554 -10.510841zm8.113525 -25.576385c-8.441406 0 -15.967529 1.5571623 -22.578613 4.671486c-6.58374 3.1143236 -12.00647 7.9025965 -16.268066 14.364818l-0.4918213 0l0 -15.766263l-33.929382 0l0 167.23918l35.65045 0l0 -58.860725l0.6147461 0c4.2615967 5.995079 9.834595 10.614647 16.71875 13.858742c6.8842773 3.2181244 14.30127 4.8272095 22.250854 4.8272095c17.45642 0 31.3479 -6.072937 41.674194 -18.218796c10.326294 -12.145866 15.489502 -27.367126 15.489502 -45.663773c0 -19.775959 -5.245117 -35.78877 -15.735352 -48.038445c-10.490234 -12.275623 -24.955322 -18.41344 -43.395264 -18.41344z" fill-rule="evenodd"/><defs><linearGradient id="p.8" gradientUnits="userSpaceOnUse" gradientTransform="matrix(13.06748691382662 0.0 0.0 13.06748691382662 0.0 0.0)" spreadMethod="pad" x1="11.799760101446244" y1="0.8021523684670286" x2="11.797098770838723" y2="13.869639011289717"><stop offset="0.0" stop-color="#737373" stop-opacity="0.6156863"/><stop offset="0.48" stop-color="#737373" stop-opacity="0.0"/><stop offset="0.48000002" stop-color="#ffffff" stop-opacity="0.0"/><stop offset="0.61" stop-color="#737373" stop-opacity="0.0"/><stop offset="1.0" stop-color="#737373" stop-opacity="0.6156863"/></linearGradient></defs><path fill="url(#p.8)" d="m1230.9606 10.732121c-8.851074 0 -17.032959 2.361699 -24.545532 7.085086c-7.4852295 4.697443 -13.112793 11.09478 -16.882812 19.19202l-0.49169922 0l0 -23.007065l-33.929443 0l0 123.67759l35.650513 0l0 -56.75856c0 -11.756569 2.88208 -21.13847 8.64624 -28.145699c5.791504 -7.007225 14.7109375 -10.510841 26.758423 -10.510841c2.6225586 0 4.8898926 0.10381317 6.802246 0.31143188c1.9395752 0.18167496 3.933838 0.46715164 5.982666 0.8564415l0 -31.532528c-1.1473389 -0.38928986 -2.376587 -0.67476654 -3.6879883 -0.85643864c-1.3112793 -0.20761871 -2.7454834 -0.31143284 -4.3026123 -0.31143284z" fill-rule="evenodd"/><defs><linearGradient id="p.9" gradientUnits="userSpaceOnUse" gradientTransform="matrix(13.06748691382662 0.0 0.0 13.06748691382662 0.0 0.0)" spreadMethod="pad" x1="11.799760101446244" y1="0.8021523684670286" x2="11.797098770838723" y2="13.869639011289717"><stop offset="0.0" stop-color="#737373" stop-opacity="0.6156863"/><stop offset="0.48" stop-color="#737373" stop-opacity="0.0"/><stop offset="0.48000002" stop-color="#ffffff" stop-opacity="0.0"/><stop offset="0.61" stop-color="#737373" stop-opacity="0.0"/><stop offset="1.0" stop-color="#737373" stop-opacity="0.6156863"/></linearGradient></defs><path fill="url(#p.9)" d="m1314.0631 36.308506c10.654175 0 18.644775 3.5425415 23.971802 10.627628c5.3271484 7.085087 7.9907227 16.77842 7.9907227 29.079994c0 12.535156 -2.7454834 22.254433 -8.236572 29.15786c-5.490967 6.8774567 -13.317627 10.3162 -23.480103 10.3162c-9.752686 0 -17.442749 -3.3219528 -23.070312 -9.965836c-5.600342 -6.669853 -8.400513 -16.50592 -8.400513 -29.508224c0 -13.313728 2.800171 -23.253609 8.400513 -29.819645c5.6275635 -6.591984 13.235718 -9.887978 22.824463 -9.887978zm0.24584961 -25.576385c-20.570679 0 -36.920776 5.9950743 -49.05017 17.985218c-12.129272 11.990149 -18.19397 27.75641 -18.19397 47.29879c0 19.542381 6.1602783 35.269722 18.480835 47.182007c12.3479 11.9122925 28.602295 17.868439 48.763306 17.868439c20.16101 0 36.44275 -5.917221 48.845215 -17.751648c12.429932 -11.8344345 18.644775 -27.600693 18.644775 -47.298798c0 -19.620235 -6.1466064 -35.39947 -18.43982 -47.337715c-12.293335 -11.96419 -28.64331 -17.94629 -49.05017 -17.94629z" fill-rule="evenodd"/><path fill="#000000" fill-opacity="0.0" d="m0 42.432266l1536.0 0l0 91.74803l-1536.0 0z" fill-rule="evenodd"/><path fill="#737373" d="m152.12866 101.23105l0 -26.40625l26.734375 0l0 5.625l-19.40625 0l0 4.375l18.40625 0l0 5.625l-18.40625 0l0 5.15625l19.6875 0l0 5.625l-27.015625 0zm51.600876 0l-8.296875 0l-13.359375 -26.40625l7.96875 0l9.609375 19.875l9.578125 -19.875l7.953125 0l-13.453125 26.40625zm17.777725 0l0 -26.40625l26.734375 0l0 5.625l-19.40625 0l0 4.375l18.40625 0l0 5.625l-18.40625 0l0 5.15625l19.6875 0l0 5.625l-27.015625 0zm41.022766 0l-7.1406403 0l0 -26.40625l17.875015 0q2.890625 0 4.890625 0.59375q2.015625 0.59375 3.265625 1.6875q1.265625 1.09375 1.828125 2.65625q0.578125 1.546875 0.578125 3.4375q0 1.671875 -0.484375 2.921875q-0.46875 1.25 -1.265625 2.15625q-0.796875 0.890625 -1.859375 1.5q-1.046875 0.609375 -2.21875 1.015625l8.640625 10.4375l-8.328125 0l-8.0 -9.71875l-7.78125 0l0 9.71875zm14.078125 -18.0625q0 -0.765625 -0.203125 -1.296875q-0.1875 -0.546875 -0.6875 -0.875q-0.5 -0.34375 -1.34375 -0.5q-0.828125 -0.15625 -2.078125 -0.15625l-9.765625 0l0 5.65625l9.765625 0q1.25 0 2.078125 -0.15625q0.84375 -0.15625 1.34375 -0.484375q0.5 -0.34375 0.6875 -0.875q0.203125 -0.546875 0.203125 -1.3125zm30.182617 7.28125l0 10.78125l-7.109375 0l0 -10.78125l-12.8125 -15.625l8.0 0l8.375 10.625l8.34375 -10.625l8.0 0l-12.796875 15.625zm32.52008 -9.875l0 20.65625l-7.140625 0l0 -20.65625l-11.203125 0l0 -5.75l29.5625 0l0 5.75l-11.21875 0zm41.199036 20.65625l0 -11.015625l-18.140625 0l0 11.015625l-7.140625 0l0 -26.40625l7.140625 0l0 9.609375l18.140625 0l0 -9.609375l7.125 0l0 26.40625l-7.125 0zm15.38501 0l0 -26.40625l7.140625 0l0 26.40625l-7.140625 0zm40.347107 0l-17.8125 -18.140625l0 18.140625l-7.140625 0l0 -26.40625l7.75 0l17.84375 18.21875l0 -18.21875l7.078125 0l0 26.40625l-7.71875 0zm32.997803 -27.078125q3.875 0 7.203125 0.671875q3.34375 0.65625 6.140625 1.6875l0 6.46875q-1.109375 -0.625 -2.484375 -1.203125q-1.359375 -0.578125 -2.984375 -1.015625q-1.609375 -0.4375 -3.453125 -0.703125q-1.84375 -0.28125 -3.890625 -0.28125q-2.53125 0 -4.421875 0.375q-1.875 0.359375 -3.21875 0.984375q-1.34375 0.609375 -2.21875 1.421875q-0.859375 0.8125 -1.359375 1.734375q-0.5 0.921875 -0.6875 1.890625q-0.1875 0.953125 -0.1875 1.859375q0 0.796875 0.15625 1.71875q0.15625 0.921875 0.609375 1.84375q0.453125 0.921875 1.265625 1.765625q0.8125 0.84375 2.109375 1.5q1.296875 0.65625 3.109375 1.046875q1.828125 0.390625 4.34375 0.390625q1.28125 0 2.21875 -0.078125q0.9375 -0.078125 1.71875 -0.203125q0.78125 -0.140625 1.453125 -0.328125q0.6875 -0.203125 1.421875 -0.40625l0 -3.1875l-8.0 0l0 -5.78125l15.125 0l0 13.484375q-1.421875 0.484375 -3.1875 0.875q-1.75 0.390625 -3.625 0.671875q-1.875 0.28125 -3.765625 0.4375q-1.875 0.15625 -3.546875 0.15625q-2.59375 0 -4.984375 -0.359375q-2.375 -0.34375 -4.4375 -1.0625q-2.0625 -0.71875 -3.765625 -1.828125q-1.703125 -1.125 -2.90625 -2.65625q-1.203125 -1.53125 -1.875 -3.515625q-0.65625 -2.0 -0.65625 -4.484375q0 -2.453125 0.6875 -4.453125q0.703125 -2.0 1.9375 -3.53125q1.25 -1.546875 2.984375 -2.65625q1.734375 -1.125 3.8125 -1.84375q2.09375 -0.71875 4.46875 -1.0625q2.375 -0.34375 4.890625 -0.34375zm53.009033 16.296875l0 10.78125l-7.109375 0l0 -10.78125l-12.8125 -15.625l8.0 0l8.375 10.625l8.34375 -10.625l8.0 0l-12.796875 15.625zm51.110413 -2.40625q0 3.40625 -1.25 6.015625q-1.25 2.59375 -3.578125 4.34375q-2.3125 1.75 -5.640625 2.65625q-3.3125 0.890625 -7.4375 0.890625q-4.125 0 -7.46875 -0.890625q-3.328125 -0.90625 -5.671875 -2.65625q-2.34375 -1.75 -3.625 -4.34375q-1.265625 -2.609375 -1.265625 -6.015625q0 -3.390625 1.265625 -6.0q1.28125 -2.609375 3.625 -4.359375q2.34375 -1.75 5.671875 -2.640625q3.34375 -0.890625 7.46875 -0.890625q4.125 0 7.4375 0.890625q3.328125 0.890625 5.640625 2.640625q2.328125 1.75 3.578125 4.359375q1.25 2.609375 1.25 6.0zm-7.203125 0q0 -1.46875 -0.46875 -2.9375q-0.46875 -1.484375 -1.671875 -2.65625q-1.203125 -1.171875 -3.28125 -1.890625q-2.078125 -0.734375 -5.28125 -0.734375q-2.15625 0 -3.796875 0.34375q-1.625 0.328125 -2.8125 0.921875q-1.1875 0.59375 -2.0 1.390625q-0.8125 0.796875 -1.296875 1.71875q-0.46875 0.90625 -0.671875 1.90625q-0.203125 0.984375 -0.203125 1.9375q0 0.984375 0.203125 1.984375q0.203125 1.0 0.671875 1.921875q0.484375 0.90625 1.296875 1.703125q0.8125 0.78125 2.0 1.375q1.1875 0.578125 2.8125 0.921875q1.640625 0.328125 3.796875 0.328125q3.203125 0 5.28125 -0.734375q2.078125 -0.734375 3.28125 -1.90625q1.203125 -1.171875 1.671875 -2.640625q0.46875 -1.46875 0.46875 -2.953125zm44.869385 4.296875q0 1.96875 -0.984375 3.71875q-0.96875 1.75 -2.9375 3.0625q-1.953125 1.296875 -4.890625 2.0625q-2.921875 0.765625 -6.84375 0.765625q-3.921875 0 -6.875 -0.765625q-2.9375 -0.765625 -4.90625 -2.0625q-1.953125 -1.3125 -2.9375 -3.0625q-0.984375 -1.75 -0.984375 -3.71875l0 -17.515625l7.109375 0l0 14.953125q0 1.328125 0.328125 2.515625q0.34375 1.171875 1.28125 2.0625q0.9375 0.875 2.609375 1.40625q1.6875 0.515625 4.375 0.515625q2.671875 0 4.34375 -0.515625q1.671875 -0.53125 2.59375 -1.40625q0.9375 -0.890625 1.265625 -2.0625q0.328125 -1.1875 0.328125 -2.515625l0 -14.953125l7.125 0l0 17.515625l0 0zm47.214172 -10.078125q-0.75 -0.359375 -1.984375 -0.8125q-1.234375 -0.46875 -2.796875 -0.875q-1.546875 -0.421875 -3.375 -0.703125q-1.828125 -0.28125 -3.75 -0.28125q-1.53125 0 -2.625 0.09375q-1.078125 0.09375 -1.828125 0.25q-0.734375 0.15625 -1.171875 0.359375q-0.421875 0.203125 -0.65625 0.421875q-0.234375 0.203125 -0.296875 0.421875q-0.0625 0.203125 -0.0625 0.375q0 0.578125 0.5625 1.015625q0.578125 0.421875 1.578125 0.765625q1.0 0.328125 2.328125 0.625q1.328125 0.296875 2.8125 0.625q1.5 0.3125 3.078125 0.6875q1.59375 0.375 3.078125 0.875q1.484375 0.5 2.8125 1.171875q1.328125 0.65625 2.328125 1.546875q1.0 0.875 1.578125 2.03125q0.578125 1.15625 0.578125 2.625q0 1.90625 -0.671875 3.28125q-0.671875 1.359375 -1.796875 2.296875q-1.125 0.9375 -2.609375 1.515625q-1.484375 0.5625 -3.109375 0.859375q-1.609375 0.3125 -3.28125 0.40625q-1.65625 0.109375 -3.15625 0.109375q-3.921875 0 -7.265625 -0.65625q-3.328125 -0.640625 -5.890625 -1.59375l0 -6.3125q2.640625 1.46875 6.015625 2.296875q3.375 0.8125 7.21875 0.8125q2.265625 0 3.6875 -0.234375q1.4375 -0.234375 2.234375 -0.609375q0.8125 -0.375 1.09375 -0.8125q0.296875 -0.453125 0.296875 -0.859375q0 -0.625 -0.578125 -1.09375q-0.5625 -0.484375 -1.5625 -0.828125q-1.0 -0.359375 -2.328125 -0.65625q-1.328125 -0.296875 -2.828125 -0.59375q-1.484375 -0.296875 -3.0625 -0.640625q-1.5625 -0.359375 -3.0625 -0.828125q-1.484375 -0.46875 -2.8125 -1.09375q-1.328125 -0.625 -2.328125 -1.46875q-1.0 -0.859375 -1.578125 -1.984375q-0.578125 -1.125 -0.578125 -2.609375q0 -1.75 0.609375 -3.015625q0.625 -1.265625 1.671875 -2.15625q1.046875 -0.90625 2.421875 -1.453125q1.375 -0.5625 2.890625 -0.859375q1.515625 -0.3125 3.078125 -0.421875q1.5625 -0.125 2.953125 -0.125q1.546875 0 3.171875 0.15625q1.625 0.15625 3.1875 0.4375q1.578125 0.265625 3.046875 0.640625q1.484375 0.359375 2.734375 0.765625l0 6.109375zm34.20465 18.96875l0 -11.015625l-18.140625 0l0 11.015625l-7.140625 0l0 -26.40625l7.140625 0l0 9.609375l18.140625 0l0 -9.609375l7.125 0l0 26.40625l-7.125 0zm49.556885 -13.1875q0 3.40625 -1.25 6.015625q-1.25 2.59375 -3.578125 4.34375q-2.3125 1.75 -5.640625 2.65625q-3.3125 0.890625 -7.4375 0.890625q-4.125 0 -7.46875 -0.890625q-3.328125 -0.90625 -5.671875 -2.65625q-2.34375 -1.75 -3.625 -4.34375q-1.265625 -2.609375 -1.265625 -6.015625q0 -3.390625 1.265625 -6.0q1.28125 -2.609375 3.625 -4.359375q2.34375 -1.75 5.671875 -2.640625q3.34375 -0.890625 7.46875 -0.890625q4.125 0 7.4375 0.890625q3.328125 0.890625 5.640625 2.640625q2.328125 1.75 3.578125 4.359375q1.25 2.609375 1.25 6.0zm-7.203125 0q0 -1.46875 -0.46875 -2.9375q-0.46875 -1.484375 -1.671875 -2.65625q-1.203125 -1.171875 -3.28125 -1.890625q-2.078125 -0.734375 -5.28125 -0.734375q-2.15625 0 -3.796875 0.34375q-1.625 0.328125 -2.8125 0.921875q-1.1875 0.59375 -2.0 1.390625q-0.8125 0.796875 -1.296875 1.71875q-0.46875 0.90625 -0.671875 1.90625q-0.203125 0.984375 -0.203125 1.9375q0 0.984375 0.203125 1.984375q0.203125 1.0 0.671875 1.921875q0.484375 0.90625 1.296875 1.703125q0.8125 0.78125 2.0 1.375q1.1875 0.578125 2.8125 0.921875q1.640625 0.328125 3.796875 0.328125q3.203125 0 5.28125 -0.734375q2.078125 -0.734375 3.28125 -1.90625q1.203125 -1.171875 1.671875 -2.640625q0.46875 -1.46875 0.46875 -2.953125zm44.869385 4.296875q0 1.96875 -0.984375 3.71875q-0.96875 1.75 -2.9375 3.0625q-1.953125 1.296875 -4.890625 2.0625q-2.921875 0.765625 -6.84375 0.765625q-3.921875 0 -6.875 -0.765625q-2.9375 -0.765625 -4.90625 -2.0625q-1.953125 -1.3125 -2.9375 -3.0625q-0.984375 -1.75 -0.984375 -3.71875l0 -17.515625l7.109375 0l0 14.953125q0 1.328125 0.328125 2.515625q0.34375 1.171875 1.28125 2.0625q0.9375 0.875 2.609375 1.40625q1.6875 0.515625 4.375 0.515625q2.671875 0 4.34375 -0.515625q1.671875 -0.53125 2.59375 -1.40625q0.9375 -0.890625 1.265625 -2.0625q0.328125 -1.1875 0.328125 -2.515625l0 -14.953125l7.125 0l0 17.515625l0 0zm8.072205 8.890625l0 -26.40625l7.140625 0l0 20.625l19.265625 0l0 5.78125l-26.40625 0zm64.47339 -13.21875q0 2.53125 -0.5625 4.5q-0.5625 1.96875 -1.578125 3.4375q-1.0 1.453125 -2.421875 2.484375q-1.40625 1.015625 -3.140625 1.625q-1.71875 0.609375 -3.71875 0.890625q-2.0 0.28125 -4.171875 0.28125l-16.765625 0l0 -26.40625l16.734375 0q2.171875 0 4.15625 0.28125q2.0 0.28125 3.734375 0.890625q1.75 0.609375 3.171875 1.625q1.421875 1.015625 2.421875 2.484375q1.015625 1.46875 1.578125 3.4375q0.5625 1.953125 0.5625 4.46875zm-7.203125 0q0 -1.90625 -0.484375 -3.3125q-0.484375 -1.40625 -1.578125 -2.3125q-1.078125 -0.90625 -2.828125 -1.359375q-1.75 -0.453125 -4.265625 -0.453125l-8.859375 0l0 14.90625l8.859375 0q2.515625 0 4.265625 -0.453125q1.75 -0.453125 2.828125 -1.375q1.09375 -0.9375 1.578125 -2.328125q0.484375 -1.40625 0.484375 -3.3125zm35.654358 -3.109375l14.609375 -10.078125l9.546875 0l-17.765625 12.671875l18.96875 13.734375l-10.40625 0l-14.953125 -10.96875l0 10.96875l-7.171875 0l0 -26.40625l7.171875 0l0 10.078125zm54.430847 16.328125l-17.8125 -18.140625l0 18.140625l-7.140625 0l0 -26.40625l7.75 0l17.84375 18.21875l0 -18.21875l7.078125 0l0 26.40625l-7.71875 0zm50.154053 -13.1875q0 3.40625 -1.25 6.015625q-1.25 2.59375 -3.578125 4.34375q-2.3125 1.75 -5.640625 2.65625q-3.3125 0.890625 -7.4375 0.890625q-4.125 0 -7.46875 -0.890625q-3.328125 -0.90625 -5.671875 -2.65625q-2.34375 -1.75 -3.625 -4.34375q-1.265625 -2.609375 -1.265625 -6.015625q0 -3.390625 1.265625 -6.0q1.28125 -2.609375 3.625 -4.359375q2.34375 -1.75 5.671875 -2.640625q3.34375 -0.890625 7.46875 -0.890625q4.125 0 7.4375 0.890625q3.328125 0.890625 5.640625 2.640625q2.328125 1.75 3.578125 4.359375q1.25 2.609375 1.25 6.0zm-7.203125 0q0 -1.46875 -0.46875 -2.9375q-0.46875 -1.484375 -1.671875 -2.65625q-1.203125 -1.171875 -3.28125 -1.890625q-2.078125 -0.734375 -5.28125 -0.734375q-2.15625 0 -3.796875 0.34375q-1.625 0.328125 -2.8125 0.921875q-1.1875 0.59375 -2.0 1.390625q-0.8125 0.796875 -1.296875 1.71875q-0.46875 0.90625 -0.671875 1.90625q-0.203125 0.984375 -0.203125 1.9375q0 0.984375 0.203125 1.984375q0.203125 1.0 0.671875 1.921875q0.484375 0.90625 1.296875 1.703125q0.8125 0.78125 2.0 1.375q1.1875 0.578125 2.8125 0.921875q1.640625 0.328125 3.796875 0.328125q3.203125 0 5.28125 -0.734375q2.078125 -0.734375 3.28125 -1.90625q1.203125 -1.171875 1.671875 -2.640625q0.46875 -1.46875 0.46875 -2.953125zm39.161438 -13.21875l6.75 18.328125l7.3125 -18.328125l7.390625 0l-10.609375 26.40625l-7.921875 0l-6.890625 -17.765625l-6.875 17.765625l-7.921875 0l-10.625 -26.40625l7.40625 0l7.15625 17.953125l6.890625 -17.953125l7.9375 0zm40.781982 26.40625l0 -26.40625l7.140625 0l0 26.40625l-7.140625 0zm40.347046 0l-17.8125 -18.140625l0 18.140625l-7.140625 0l0 -26.40625l7.75 0l17.84375 18.21875l0 -18.21875l7.078125 0l0 26.40625l-7.71875 0z" fill-rule="nonzero"/><path fill="#ffffff" d="m1162.6951 101.23105l0 -18.546875l-9.796875 18.546875l-6.84375 0l-9.796875 -18.546875l0 18.546875l-7.140625 0l0 -26.40625l9.6875 0l10.671875 19.984375l10.671875 -19.984375l9.640625 0l0 26.40625l-7.09375 0zm15.352051 0l0 -26.40625l26.734375 0l0 5.625l-19.40625 0l0 4.375l18.40625 0l0 5.625l-18.40625 0l0 5.15625l19.6875 0l0 5.625l-27.015625 0zm66.241455 -13.21875q0 2.53125 -0.5625 4.5q-0.5625 1.96875 -1.578125 3.4375q-1.0 1.453125 -2.421875 2.484375q-1.40625 1.015625 -3.140625 1.625q-1.71875 0.609375 -3.71875 0.890625q-2.0 0.28125 -4.171875 0.28125l-16.765625 0l0 -26.40625l16.734375 0q2.171875 0 4.15625 0.28125q2.0 0.28125 3.734375 0.890625q1.75 0.609375 3.171875 1.625q1.421875 1.015625 2.421875 2.484375q1.015625 1.46875 1.578125 3.4375q0.5625 1.953125 0.5625 4.46875zm-7.203125 0q0 -1.90625 -0.484375 -3.3125q-0.484375 -1.40625 -1.578125 -2.3125q-1.078125 -0.90625 -2.828125 -1.359375q-1.75 -0.453125 -4.265625 -0.453125l-8.859375 0l0 14.90625l8.859375 0q2.515625 0 4.265625 -0.453125q1.75 -0.453125 2.828125 -1.375q1.09375 -0.9375 1.578125 -2.328125q0.484375 -1.40625 0.484375 -3.3125zm13.684326 13.21875l0 -26.40625l7.140625 0l0 26.40625l-7.140625 0zm44.503296 -1.8125q-1.390625 0.578125 -2.796875 1.046875q-1.390625 0.453125 -2.890625 0.78125q-1.5 0.34375 -3.171875 0.515625q-1.65625 0.1875 -3.5625 0.1875q-4.03125 0 -7.421875 -0.859375q-3.390625 -0.875 -5.84375 -2.609375q-2.453125 -1.75 -3.828125 -4.34375q-1.359375 -2.609375 -1.359375 -6.09375q0 -3.46875 1.359375 -6.078125q1.375 -2.609375 3.828125 -4.34375q2.453125 -1.734375 5.84375 -2.59375q3.390625 -0.875 7.421875 -0.875q1.90625 0 3.5625 0.171875q1.671875 0.171875 3.171875 0.515625q1.5 0.328125 2.890625 0.796875q1.40625 0.453125 2.796875 1.03125l0 6.421875q-1.09375 -0.59375 -2.3125 -1.171875q-1.203125 -0.59375 -2.671875 -1.0625q-1.453125 -0.484375 -3.203125 -0.78125q-1.75 -0.296875 -3.9375 -0.296875q-3.375 0 -5.59375 0.703125q-2.21875 0.6875 -3.546875 1.84375q-1.328125 1.140625 -1.859375 2.640625q-0.53125 1.484375 -0.53125 3.078125q0 1.0625 0.21875 2.09375q0.234375 1.015625 0.765625 1.9375q0.546875 0.90625 1.40625 1.6875q0.875 0.765625 2.15625 1.328125q1.28125 0.546875 3.0 0.875q1.734375 0.3125 3.984375 0.3125q2.1875 0 3.9375 -0.28125q1.75 -0.28125 3.203125 -0.734375q1.46875 -0.46875 2.671875 -1.046875q1.21875 -0.59375 2.3125 -1.203125l0 6.40625l0 0zm6.636963 1.8125l0 -26.40625l7.140625 0l0 26.40625l-7.140625 0zm40.347046 0l-17.8125 -18.140625l0 18.140625l-7.140625 0l0 -26.40625l7.75 0l17.84375 18.21875l0 -18.21875l7.078125 0l0 26.40625l-7.71875 0zm15.982178 0l0 -26.40625l26.734375 0l0 5.625l-19.40625 0l0 4.375l18.40625 0l0 5.625l-18.40625 0l0 5.15625l19.6875 0l0 5.625l-27.015625 0z" fill-rule="nonzero"/><g filter="url(#shadowFilter-p.10)"><use xlink:href="#p.10" transform="matrix(1.0 0.0 0.0 1.0 0.0 2.0)"/></g><defs><filter id="shadowFilter-p.10" filterUnits="userSpaceOnUse"><feGaussianBlur in="SourceAlpha" stdDeviation="2.5" result="blur"/><feComponentTransfer in="blur" color-interpolation-filters="sRGB"><feFuncR type="linear" slope="0" intercept="1.0"/><feFuncG type="linear" slope="0" intercept="1.0"/><feFuncB type="linear" slope="0" intercept="1.0"/><feFuncA type="linear" slope="0.4" intercept="0"/></feComponentTransfer></filter></defs><g id="p.10"><path fill="#000000" fill-opacity="0.0" d="m1099.2223 54.74728l314.9607 0l0 67.11812l-314.9607 0z" fill-rule="evenodd"/><path fill="#ffffff" d="m1162.9036 101.54607l0 -18.546875l-9.796875 18.546875l-6.84375 0l-9.796875 -18.546875l0 18.546875l-7.140625 0l0 -26.40625l9.6875 0l10.671875 19.984375l10.671875 -19.984375l9.640625 0l0 26.40625l-7.09375 0zm15.352051 0l0 -26.40625l26.734375 0l0 5.625l-19.40625 0l0 4.375l18.40625 0l0 5.625l-18.40625 0l0 5.15625l19.6875 0l0 5.625l-27.015625 0zm66.241455 -13.21875q0 2.53125 -0.5625 4.5q-0.5625 1.96875 -1.578125 3.4375q-1.0 1.453125 -2.421875 2.484375q-1.40625 1.015625 -3.140625 1.625q-1.71875 0.609375 -3.71875 0.890625q-2.0 0.28125 -4.171875 0.28125l-16.765625 0l0 -26.40625l16.734375 0q2.171875 0 4.15625 0.28125q2.0 0.28125 3.734375 0.890625q1.75 0.609375 3.171875 1.625q1.421875 1.015625 2.421875 2.484375q1.015625 1.46875 1.578125 3.4375q0.5625 1.953125 0.5625 4.46875zm-7.203125 0q0 -1.90625 -0.484375 -3.3125q-0.484375 -1.40625 -1.578125 -2.3125q-1.078125 -0.90625 -2.828125 -1.359375q-1.75 -0.453125 -4.265625 -0.453125l-8.859375 0l0 14.90625l8.859375 0q2.515625 0 4.265625 -0.453125q1.75 -0.453125 2.828125 -1.375q1.09375 -0.9375 1.578125 -2.328125q0.484375 -1.40625 0.484375 -3.3125zm13.684204 13.21875l0 -26.40625l7.140625 0l0 26.40625l-7.140625 0zm44.503418 -1.8125q-1.390625 0.578125 -2.796875 1.046875q-1.390625 0.453125 -2.890625 0.78125q-1.5 0.34375 -3.171875 0.515625q-1.65625 0.1875 -3.5625 0.1875q-4.03125 0 -7.421875 -0.859375q-3.390625 -0.875 -5.84375 -2.609375q-2.453125 -1.75 -3.828125 -4.34375q-1.359375 -2.609375 -1.359375 -6.09375q0 -3.46875 1.359375 -6.078125q1.375 -2.609375 3.828125 -4.34375q2.453125 -1.734375 5.84375 -2.59375q3.390625 -0.875 7.421875 -0.875q1.90625 0 3.5625 0.171875q1.671875 0.171875 3.171875 0.515625q1.5 0.328125 2.890625 0.796875q1.40625 0.453125 2.796875 1.03125l0 6.421875q-1.09375 -0.59375 -2.3125 -1.171875q-1.203125 -0.59375 -2.671875 -1.0625q-1.453125 -0.484375 -3.203125 -0.78125q-1.75 -0.296875 -3.9375 -0.296875q-3.375 0 -5.59375 0.703125q-2.21875 0.6875 -3.546875 1.84375q-1.328125 1.140625 -1.859375 2.640625q-0.53125 1.484375 -0.53125 3.078125q0 1.0625 0.21875 2.09375q0.234375 1.015625 0.765625 1.9375q0.546875 0.90625 1.40625 1.6875q0.875 0.765625 2.15625 1.328125q1.28125 0.546875 3.0 0.875q1.734375 0.3125 3.984375 0.3125q2.1875 0 3.9375 -0.28125q1.75 -0.28125 3.203125 -0.734375q1.46875 -0.46875 2.671875 -1.046875q1.21875 -0.59375 2.3125 -1.203125l0 6.40625l0 0zm6.636963 1.8125l0 -26.40625l7.140625 0l0 26.40625l-7.140625 0zm40.347046 0l-17.8125 -18.140625l0 18.140625l-7.140625 0l0 -26.40625l7.75 0l17.84375 18.21875l0 -18.21875l7.078125 0l0 26.40625l-7.71875 0zm15.982178 0l0 -26.40625l26.734375 0l0 5.625l-19.40625 0l0 4.375l18.40625 0l0 5.625l-18.40625 0l0 5.15625l19.6875 0l0 5.625l-27.015625 0z" fill-rule="nonzero"/></g><g filter="url(#shadowFilter-p.11)"><use xlink:href="#p.11" transform="matrix(1.0 0.0 0.0 1.0 -2.0 0.0)"/></g><defs><filter id="shadowFilter-p.11" filterUnits="userSpaceOnUse"><feGaussianBlur in="SourceAlpha" stdDeviation="2.5" result="blur"/><feComponentTransfer in="blur" color-interpolation-filters="sRGB"><feFuncR type="linear" slope="0" intercept="1.0"/><feFuncG type="linear" slope="0" intercept="1.0"/><feFuncB type="linear" slope="0" intercept="1.0"/><feFuncA type="linear" slope="0.4" intercept="0"/></feComponentTransfer></filter></defs><g id="p.11"><path fill="#000000" fill-opacity="0.0" d="m1099.2223 54.74728l314.9607 0l0 67.11812l-314.9607 0z" fill-rule="evenodd"/><path fill="#ffffff" d="m1162.9036 101.54607l0 -18.546875l-9.796875 18.546875l-6.84375 0l-9.796875 -18.546875l0 18.546875l-7.140625 0l0 -26.40625l9.6875 0l10.671875 19.984375l10.671875 -19.984375l9.640625 0l0 26.40625l-7.09375 0zm15.352051 0l0 -26.40625l26.734375 0l0 5.625l-19.40625 0l0 4.375l18.40625 0l0 5.625l-18.40625 0l0 5.15625l19.6875 0l0 5.625l-27.015625 0zm66.241455 -13.21875q0 2.53125 -0.5625 4.5q-0.5625 1.96875 -1.578125 3.4375q-1.0 1.453125 -2.421875 2.484375q-1.40625 1.015625 -3.140625 1.625q-1.71875 0.609375 -3.71875 0.890625q-2.0 0.28125 -4.171875 0.28125l-16.765625 0l0 -26.40625l16.734375 0q2.171875 0 4.15625 0.28125q2.0 0.28125 3.734375 0.890625q1.75 0.609375 3.171875 1.625q1.421875 1.015625 2.421875 2.484375q1.015625 1.46875 1.578125 3.4375q0.5625 1.953125 0.5625 4.46875zm-7.203125 0q0 -1.90625 -0.484375 -3.3125q-0.484375 -1.40625 -1.578125 -2.3125q-1.078125 -0.90625 -2.828125 -1.359375q-1.75 -0.453125 -4.265625 -0.453125l-8.859375 0l0 14.90625l8.859375 0q2.515625 0 4.265625 -0.453125q1.75 -0.453125 2.828125 -1.375q1.09375 -0.9375 1.578125 -2.328125q0.484375 -1.40625 0.484375 -3.3125zm13.684204 13.21875l0 -26.40625l7.140625 0l0 26.40625l-7.140625 0zm44.503418 -1.8125q-1.390625 0.578125 -2.796875 1.046875q-1.390625 0.453125 -2.890625 0.78125q-1.5 0.34375 -3.171875 0.515625q-1.65625 0.1875 -3.5625 0.1875q-4.03125 0 -7.421875 -0.859375q-3.390625 -0.875 -5.84375 -2.609375q-2.453125 -1.75 -3.828125 -4.34375q-1.359375 -2.609375 -1.359375 -6.09375q0 -3.46875 1.359375 -6.078125q1.375 -2.609375 3.828125 -4.34375q2.453125 -1.734375 5.84375 -2.59375q3.390625 -0.875 7.421875 -0.875q1.90625 0 3.5625 0.171875q1.671875 0.171875 3.171875 0.515625q1.5 0.328125 2.890625 0.796875q1.40625 0.453125 2.796875 1.03125l0 6.421875q-1.09375 -0.59375 -2.3125 -1.171875q-1.203125 -0.59375 -2.671875 -1.0625q-1.453125 -0.484375 -3.203125 -0.78125q-1.75 -0.296875 -3.9375 -0.296875q-3.375 0 -5.59375 0.703125q-2.21875 0.6875 -3.546875 1.84375q-1.328125 1.140625 -1.859375 2.640625q-0.53125 1.484375 -0.53125 3.078125q0 1.0625 0.21875 2.09375q0.234375 1.015625 0.765625 1.9375q0.546875 0.90625 1.40625 1.6875q0.875 0.765625 2.15625 1.328125q1.28125 0.546875 3.0 0.875q1.734375 0.3125 3.984375 0.3125q2.1875 0 3.9375 -0.28125q1.75 -0.28125 3.203125 -0.734375q1.46875 -0.46875 2.671875 -1.046875q1.21875 -0.59375 2.3125 -1.203125l0 6.40625l0 0zm6.636963 1.8125l0 -26.40625l7.140625 0l0 26.40625l-7.140625 0zm40.347046 0l-17.8125 -18.140625l0 18.140625l-7.140625 0l0 -26.40625l7.75 0l17.84375 18.21875l0 -18.21875l7.078125 0l0 26.40625l-7.71875 0zm15.982178 0l0 -26.40625l26.734375 0l0 5.625l-19.40625 0l0 4.375l18.40625 0l0 5.625l-18.40625 0l0 5.15625l19.6875 0l0 5.625l-27.015625 0z" fill-rule="nonzero"/></g><g filter="url(#shadowFilter-p.12)"><use xlink:href="#p.12" transform="matrix(1.0 0.0 0.0 1.0 0.0 -2.0)"/></g><defs><filter id="shadowFilter-p.12" filterUnits="userSpaceOnUse"><feGaussianBlur in="SourceAlpha" stdDeviation="2.5" result="blur"/><feComponentTransfer in="blur" color-interpolation-filters="sRGB"><feFuncR type="linear" slope="0" intercept="1.0"/><feFuncG type="linear" slope="0" intercept="1.0"/><feFuncB type="linear" slope="0" intercept="1.0"/><feFuncA type="linear" slope="0.4" intercept="0"/></feComponentTransfer></filter></defs><g id="p.12"><path fill="#000000" fill-opacity="0.0" d="m1099.2223 54.74728l314.9607 0l0 67.11812l-314.9607 0z" fill-rule="evenodd"/><path fill="#ffffff" d="m1162.9036 101.54607l0 -18.546875l-9.796875 18.546875l-6.84375 0l-9.796875 -18.546875l0 18.546875l-7.140625 0l0 -26.40625l9.6875 0l10.671875 19.984375l10.671875 -19.984375l9.640625 0l0 26.40625l-7.09375 0zm15.352051 0l0 -26.40625l26.734375 0l0 5.625l-19.40625 0l0 4.375l18.40625 0l0 5.625l-18.40625 0l0 5.15625l19.6875 0l0 5.625l-27.015625 0zm66.241455 -13.21875q0 2.53125 -0.5625 4.5q-0.5625 1.96875 -1.578125 3.4375q-1.0 1.453125 -2.421875 2.484375q-1.40625 1.015625 -3.140625 1.625q-1.71875 0.609375 -3.71875 0.890625q-2.0 0.28125 -4.171875 0.28125l-16.765625 0l0 -26.40625l16.734375 0q2.171875 0 4.15625 0.28125q2.0 0.28125 3.734375 0.890625q1.75 0.609375 3.171875 1.625q1.421875 1.015625 2.421875 2.484375q1.015625 1.46875 1.578125 3.4375q0.5625 1.953125 0.5625 4.46875zm-7.203125 0q0 -1.90625 -0.484375 -3.3125q-0.484375 -1.40625 -1.578125 -2.3125q-1.078125 -0.90625 -2.828125 -1.359375q-1.75 -0.453125 -4.265625 -0.453125l-8.859375 0l0 14.90625l8.859375 0q2.515625 0 4.265625 -0.453125q1.75 -0.453125 2.828125 -1.375q1.09375 -0.9375 1.578125 -2.328125q0.484375 -1.40625 0.484375 -3.3125zm13.684204 13.21875l0 -26.40625l7.140625 0l0 26.40625l-7.140625 0zm44.503418 -1.8125q-1.390625 0.578125 -2.796875 1.046875q-1.390625 0.453125 -2.890625 0.78125q-1.5 0.34375 -3.171875 0.515625q-1.65625 0.1875 -3.5625 0.1875q-4.03125 0 -7.421875 -0.859375q-3.390625 -0.875 -5.84375 -2.609375q-2.453125 -1.75 -3.828125 -4.34375q-1.359375 -2.609375 -1.359375 -6.09375q0 -3.46875 1.359375 -6.078125q1.375 -2.609375 3.828125 -4.34375q2.453125 -1.734375 5.84375 -2.59375q3.390625 -0.875 7.421875 -0.875q1.90625 0 3.5625 0.171875q1.671875 0.171875 3.171875 0.515625q1.5 0.328125 2.890625 0.796875q1.40625 0.453125 2.796875 1.03125l0 6.421875q-1.09375 -0.59375 -2.3125 -1.171875q-1.203125 -0.59375 -2.671875 -1.0625q-1.453125 -0.484375 -3.203125 -0.78125q-1.75 -0.296875 -3.9375 -0.296875q-3.375 0 -5.59375 0.703125q-2.21875 0.6875 -3.546875 1.84375q-1.328125 1.140625 -1.859375 2.640625q-0.53125 1.484375 -0.53125 3.078125q0 1.0625 0.21875 2.09375q0.234375 1.015625 0.765625 1.9375q0.546875 0.90625 1.40625 1.6875q0.875 0.765625 2.15625 1.328125q1.28125 0.546875 3.0 0.875q1.734375 0.3125 3.984375 0.3125q2.1875 0 3.9375 -0.28125q1.75 -0.28125 3.203125 -0.734375q1.46875 -0.46875 2.671875 -1.046875q1.21875 -0.59375 2.3125 -1.203125l0 6.40625l0 0zm6.636963 1.8125l0 -26.40625l7.140625 0l0 26.40625l-7.140625 0zm40.347046 0l-17.8125 -18.140625l0 18.140625l-7.140625 0l0 -26.40625l7.75 0l17.84375 18.21875l0 -18.21875l7.078125 0l0 26.40625l-7.71875 0zm15.982178 0l0 -26.40625l26.734375 0l0 5.625l-19.40625 0l0 4.375l18.40625 0l0 5.625l-18.40625 0l0 5.15625l19.6875 0l0 5.625l-27.015625 0z" fill-rule="nonzero"/></g><g filter="url(#shadowFilter-p.13)"><use xlink:href="#p.13" transform="matrix(1.0 0.0 0.0 1.0 2.0 0.0)"/></g><defs><filter id="shadowFilter-p.13" filterUnits="userSpaceOnUse"><feGaussianBlur in="SourceAlpha" stdDeviation="2.5" result="blur"/><feComponentTransfer in="blur" color-interpolation-filters="sRGB"><feFuncR type="linear" slope="0" intercept="1.0"/><feFuncG type="linear" slope="0" intercept="1.0"/><feFuncB type="linear" slope="0" intercept="1.0"/><feFuncA type="linear" slope="0.4" intercept="0"/></feComponentTransfer></filter></defs><g id="p.13"><path fill="#000000" fill-opacity="0.0" d="m1099.2223 54.74728l314.9607 0l0 67.11812l-314.9607 0z" fill-rule="evenodd"/><path fill="#ffffff" d="m1162.9036 101.54607l0 -18.546875l-9.796875 18.546875l-6.84375 0l-9.796875 -18.546875l0 18.546875l-7.140625 0l0 -26.40625l9.6875 0l10.671875 19.984375l10.671875 -19.984375l9.640625 0l0 26.40625l-7.09375 0zm15.352051 0l0 -26.40625l26.734375 0l0 5.625l-19.40625 0l0 4.375l18.40625 0l0 5.625l-18.40625 0l0 5.15625l19.6875 0l0 5.625l-27.015625 0zm66.241455 -13.21875q0 2.53125 -0.5625 4.5q-0.5625 1.96875 -1.578125 3.4375q-1.0 1.453125 -2.421875 2.484375q-1.40625 1.015625 -3.140625 1.625q-1.71875 0.609375 -3.71875 0.890625q-2.0 0.28125 -4.171875 0.28125l-16.765625 0l0 -26.40625l16.734375 0q2.171875 0 4.15625 0.28125q2.0 0.28125 3.734375 0.890625q1.75 0.609375 3.171875 1.625q1.421875 1.015625 2.421875 2.484375q1.015625 1.46875 1.578125 3.4375q0.5625 1.953125 0.5625 4.46875zm-7.203125 0q0 -1.90625 -0.484375 -3.3125q-0.484375 -1.40625 -1.578125 -2.3125q-1.078125 -0.90625 -2.828125 -1.359375q-1.75 -0.453125 -4.265625 -0.453125l-8.859375 0l0 14.90625l8.859375 0q2.515625 0 4.265625 -0.453125q1.75 -0.453125 2.828125 -1.375q1.09375 -0.9375 1.578125 -2.328125q0.484375 -1.40625 0.484375 -3.3125zm13.684204 13.21875l0 -26.40625l7.140625 0l0 26.40625l-7.140625 0zm44.503418 -1.8125q-1.390625 0.578125 -2.796875 1.046875q-1.390625 0.453125 -2.890625 0.78125q-1.5 0.34375 -3.171875 0.515625q-1.65625 0.1875 -3.5625 0.1875q-4.03125 0 -7.421875 -0.859375q-3.390625 -0.875 -5.84375 -2.609375q-2.453125 -1.75 -3.828125 -4.34375q-1.359375 -2.609375 -1.359375 -6.09375q0 -3.46875 1.359375 -6.078125q1.375 -2.609375 3.828125 -4.34375q2.453125 -1.734375 5.84375 -2.59375q3.390625 -0.875 7.421875 -0.875q1.90625 0 3.5625 0.171875q1.671875 0.171875 3.171875 0.515625q1.5 0.328125 2.890625 0.796875q1.40625 0.453125 2.796875 1.03125l0 6.421875q-1.09375 -0.59375 -2.3125 -1.171875q-1.203125 -0.59375 -2.671875 -1.0625q-1.453125 -0.484375 -3.203125 -0.78125q-1.75 -0.296875 -3.9375 -0.296875q-3.375 0 -5.59375 0.703125q-2.21875 0.6875 -3.546875 1.84375q-1.328125 1.140625 -1.859375 2.640625q-0.53125 1.484375 -0.53125 3.078125q0 1.0625 0.21875 2.09375q0.234375 1.015625 0.765625 1.9375q0.546875 0.90625 1.40625 1.6875q0.875 0.765625 2.15625 1.328125q1.28125 0.546875 3.0 0.875q1.734375 0.3125 3.984375 0.3125q2.1875 0 3.9375 -0.28125q1.75 -0.28125 3.203125 -0.734375q1.46875 -0.46875 2.671875 -1.046875q1.21875 -0.59375 2.3125 -1.203125l0 6.40625l0 0zm6.636963 1.8125l0 -26.40625l7.140625 0l0 26.40625l-7.140625 0zm40.347046 0l-17.8125 -18.140625l0 18.140625l-7.140625 0l0 -26.40625l7.75 0l17.84375 18.21875l0 -18.21875l7.078125 0l0 26.40625l-7.71875 0zm15.982178 0l0 -26.40625l26.734375 0l0 5.625l-19.40625 0l0 4.375l18.40625 0l0 5.625l-18.40625 0l0 5.15625l19.6875 0l0 5.625l-27.015625 0z" fill-rule="nonzero"/></g></g></svg>