<svg version="1.1" viewBox="0.0 0.0 288.0 384.0" fill="none" stroke="none" stroke-linecap="square" stroke-miterlimit="10" xmlns:xlink="http://www.w3.org/1999/xlink" xmlns="http://www.w3.org/2000/svg"><clipPath id="g3a6f757e31a_0_1454.0"><path d="m0 0l288.0 0l0 384.0l-288.0 0l0 -384.0z" clip-rule="nonzero"/></clipPath><g clip-path="url(#g3a6f757e31a_0_1454.0)"><path fill="#ffffff" d="m0 0l288.0 0l0 384.0l-288.0 0z" fill-rule="evenodd"/><path fill="#fcb630" d="m5.7007875 34.135216l0 0c0 -9.966135 8.079147 -18.045282 18.04528 -18.045282l240.50787 0c4.7858887 0 9.375793 1.9011936 12.759949 5.2853394c3.3841248 3.3841476 5.2853394 7.9740353 5.2853394 12.759943l0 324.2244c0 9.9661255 -8.079163 18.045288 -18.045288 18.045288l-240.50787 0l0 0c-9.966134 0 -18.04528 -8.079163 -18.04528 -18.045288z" fill-rule="evenodd"/><path stroke="#fcb630" stroke-width="4.0" stroke-linejoin="round" stroke-linecap="butt" d="m5.7007875 34.135216l0 0c0 -9.966135 8.079147 -18.045282 18.04528 -18.045282l240.50787 0c4.7858887 0 9.375793 1.9011936 12.759949 5.2853394c3.3841248 3.3841476 5.2853394 7.9740353 5.2853394 12.759943l0 324.2244c0 9.9661255 -8.079163 18.045288 -18.045288 18.045288l-240.50787 0l0 0c-9.966134 0 -18.04528 -8.079163 -18.04528 -18.045288z" fill-rule="evenodd"/><path fill="#ffe9bf" d="m5.7007875 25.639769l0 0c0 -9.966133 8.079147 -18.04528 18.04528 -18.04528l240.50787 0c4.7858887 0 9.375793 1.9011936 12.759949 5.2853403c3.3841248 3.3841467 5.2853394 7.9740343 5.2853394 12.75994l0 324.2244c0 9.9661255 -8.079163 18.045288 -18.045288 18.045288l-240.50787 0l0 0c-9.966134 0 -18.04528 -8.079163 -18.04528 -18.045288z" fill-rule="evenodd"/><path stroke="#fcb630" stroke-width="4.0" stroke-linejoin="round" stroke-linecap="butt" d="m5.7007875 25.639769l0 0c0 -9.966133 8.079147 -18.04528 18.04528 -18.04528l240.50787 0c4.7858887 0 9.375793 1.9011936 12.759949 5.2853403c3.3841248 3.3841467 5.2853394 7.9740343 5.2853394 12.75994l0 324.2244c0 9.9661255 -8.079163 18.045288 -18.045288 18.045288l-240.50787 0l0 0c-9.966134 0 -18.04528 -8.079163 -18.04528 -18.045288z" fill-rule="evenodd"/><path fill="#000000" fill-opacity="0.0" d="m21.700787 315.7533l253.70079 0l0 38.771637l-253.70079 0z" fill-rule="evenodd"/><path fill="#000000" d="m34.107037 333.36328l4.375 0q0.796875 0 1.234375 -0.359375q0.453125 -0.375 0.453125 -1.03125q0 -0.671875 -0.453125 -1.03125q-0.4375 -0.359375 -1.234375 -0.359375l-4.84375 0l1.5 -1.59375l0 11.125l-3.3125 0l0 -12.0l7.109375 0q1.375 0 2.390625 0.484375q1.03125 0.484375 1.609375 1.34375q0.578125 0.859375 0.578125 2.03125q0 1.125 -0.578125 2.0q-0.578125 0.859375 -1.609375 1.34375q-1.015625 0.484375 -2.390625 0.484375l-4.828125 0l0 -2.4375zm1.796875 1.140625l3.71875 0l4.3125 5.609375l-3.84375 0l-4.1875 -5.609375zm14.30864 5.859375q-1.765625 0 -3.078125 -0.59375q-1.3125 -0.59375 -2.046875 -1.6875q-0.734375 -1.109375 -0.734375 -2.53125q0 -1.453125 0.734375 -2.53125q0.734375 -1.09375 2.046875 -1.703125q1.3125 -0.609375 3.078125 -0.609375q1.734375 0 3.046875 0.609375q1.328125 0.609375 2.0625 1.703125q0.734375 1.078125 0.734375 2.53125q0 1.421875 -0.734375 2.53125q-0.734375 1.09375 -2.0625 1.6875q-1.3125 0.59375 -3.046875 0.59375zm0 -2.40625q0.796875 0 1.359375 -0.28125q0.5625 -0.296875 0.859375 -0.84375q0.3125 -0.546875 0.3125 -1.28125q0 -0.765625 -0.3125 -1.296875q-0.296875 -0.546875 -0.859375 -0.828125q-0.5625 -0.28125 -1.359375 -0.28125q-0.8125 0 -1.390625 0.28125q-0.5625 0.28125 -0.875 0.828125q-0.296875 0.53125 -0.296875 1.28125q0 0.75 0.296875 1.296875q0.3125 0.546875 0.875 0.84375q0.578125 0.28125 1.390625 0.28125zm18.125156 -1.703125q-0.140625 1.234375 -0.90625 2.171875q-0.765625 0.921875 -1.984375 1.4375q-1.21875 0.5 -2.7500038 0.5q-1.671875 0 -2.953125 -0.59375q-1.28125 -0.609375 -2.0 -1.703125q-0.71875 -1.09375 -0.71875 -2.515625q0 -1.4375 0.71875 -2.515625q0.71875 -1.09375 2.0 -1.703125q1.28125 -0.625 2.953125 -0.625q1.5312538 0 2.7500038 0.515625q1.21875 0.515625 1.984375 1.4375q0.765625 0.921875 0.90625 2.171875l-3.25 0q-0.171875 -0.8125 -0.8125 -1.25q-0.6406288 -0.4375 -1.5781288 -0.4375q-0.71875 0 -1.25 0.28125q-0.53125 0.265625 -0.828125 0.8125q-0.296875 0.53125 -0.296875 1.3125q0 0.765625 0.296875 1.3125q0.296875 0.53125 0.828125 0.8125q0.53125 0.28125 1.25 0.28125q0.9375 0 1.5781288 -0.46875q0.65625 -0.46875 0.8125 -1.234375l3.25 0zm4.567032 1.25l-0.890625 -0.296875l5.0625 -6.234375l3.4375 0l-7.953125 9.140625l-2.9375 0l0 -12.3125l3.28125 0l0 9.703125zm1.5625 -1.859375l2.453125 -1.71875l3.828125 6.1875l-3.671875 0l-2.609375 -4.46875z" fill-rule="nonzero"/><path fill="#000000" d="m89.004196 336.95703q0 -0.84375 0.171875 -1.765625q0.171875 -0.921875 0.46875 -1.78125q0.3125 -0.875 0.703125 -1.515625l0.859375 0q-0.40625 0.8125 -0.703125 1.703125q-0.296875 0.875 -0.453125 1.75q-0.15625 0.859375 -0.15625 1.609375q0 0.671875 0.140625 1.390625q0.140625 0.703125 0.421875 1.5q0.296875 0.78125 0.75 1.71875l-0.859375 0q-0.671875 -1.125 -1.015625 -2.296875q-0.328125 -1.171875 -0.328125 -2.3125zm5.525543 3.15625l0 -5.8125l0.84375 0l0 0.875l0.0625 0q0.171875 -0.421875 0.578125 -0.6875q0.421875 -0.28125 0.9375 -0.28125q0.109375 0 0.25 0.015625q0.140625 0 0.21875 0l0 0.90625q-0.046875 -0.015625 -0.203125 -0.03125q-0.15625 -0.015625 -0.34375 -0.015625q-0.421875 0 -0.75 0.171875q-0.328125 0.171875 -0.53125 0.484375q-0.1875 0.3125 -0.1875 0.703125l0 3.671875l-0.875 0zm5.6320343 0.125q-0.78125 0 -1.375 -0.375q-0.59375 -0.375 -0.921875 -1.046875q-0.328125 -0.6875 -0.328125 -1.578125q0 -0.90625 0.328125 -1.578125q0.328125 -0.6875 0.921875 -1.0625q0.59375 -0.375 1.375 -0.375q0.796875 0 1.390625 0.375q0.59375 0.375 0.921875 1.0625q0.328125 0.671875 0.328125 1.578125q0 0.890625 -0.328125 1.578125q-0.328125 0.671875 -0.921875 1.046875q-0.59375 0.375 -1.390625 0.375zm0 -0.796875q0.609375 0 0.984375 -0.3125q0.390625 -0.3125 0.578125 -0.8125q0.1875 -0.5 0.1875 -1.078125q0 -0.578125 -0.1875 -1.078125q-0.1875 -0.515625 -0.578125 -0.828125q-0.375 -0.3125 -0.984375 -0.3125q-0.59375 0 -0.984375 0.3125q-0.375 0.3125 -0.5625 0.828125q-0.1875 0.5 -0.1875 1.078125q0 0.578125 0.1875 1.078125q0.1875 0.5 0.5625 0.8125q0.390625 0.3125 0.984375 0.3125zm4.343231 -1.453125l-0.015625 -1.09375l0.1875 0l2.53125 -2.59375l1.109375 0l-2.703125 2.75l-0.09375 0l-1.015625 0.9375zm-0.828125 2.125l0 -7.75l0.875 0l0 7.75l-0.875 0zm3.671875 0l-2.265625 -2.875l0.640625 -0.625l2.78125 3.5l-1.15625 0zm3.794464 1.453125q0.453125 -0.9375 0.734375 -1.71875q0.296875 -0.796875 0.4375 -1.5q0.140625 -0.71875 0.140625 -1.390625q0 -0.75 -0.15625 -1.609375q-0.15625 -0.875 -0.453125 -1.75q-0.296875 -0.890625 -0.703125 -1.703125l0.859375 0q0.40625 0.640625 0.703125 1.515625q0.296875 0.859375 0.46875 1.78125q0.171875 0.921875 0.171875 1.765625q0 1.140625 -0.34375 2.3125q-0.328125 1.171875 -1.0 2.296875l-0.859375 0z" fill-rule="nonzero"/><path fill="#fcb630" d="m109.49366 133.8323l0 0c0 -4.3490295 3.525589 -7.8746185 7.874626 -7.8746185l69.28209 0c2.0884857 0 4.0914154 0.82964325 5.568207 2.306427c1.4767761 1.4767761 2.3064117 3.479721 2.3064117 5.5681915l0 31.497559c0 4.3490295 -3.525589 7.8746185 -7.8746185 7.8746185l-69.28209 0c-4.349037 0 -7.874626 -3.525589 -7.874626 -7.8746185z" fill-rule="evenodd"/><path fill="#fcb630" d="m77.165634 197.4298l0 0c0 -3.1605072 2.5620956 -5.722595 5.722603 -5.722595l138.24219 0c1.5177155 0 2.9732819 0.6029053 4.0464783 1.6761017c1.0731964 1.0731964 1.676117 2.5287628 1.676117 4.0464935l0 22.889725c0 3.1605072 -2.5621033 5.7226105 -5.722595 5.7226105l-138.24219 0c-3.1605072 0 -5.722603 -2.5621033 -5.722603 -5.7226105z" fill-rule="evenodd"/><path fill="#fcb630" d="m83.90366 154.19151l0 0c0 -5.328354 4.3194733 -9.647827 9.6478195 -9.647827l116.915695 0c2.5587616 0 5.012726 1.0164642 6.8220367 2.8257751c1.8093262 1.8093262 2.8257904 4.2632904 2.8257904 6.822052l0 38.590134c0 5.328354 -4.3194885 9.647827 -9.647827 9.647827l-116.915695 0c-5.3283463 0 -9.6478195 -4.3194733 -9.6478195 -9.647827z" fill-rule="evenodd"/><path fill="#fcb630" d="m68.5416 181.28864l0 0c0 -3.5522308 2.8796463 -6.431885 6.431877 -6.431885l154.0717 0c1.7058411 0 3.3418121 0.6776428 4.5480194 1.8838501c1.2062225 1.2062225 1.8838654 2.8421936 1.8838654 4.5480347l0 25.72676c0 3.5522308 -2.879654 6.431885 -6.431885 6.431885l-154.0717 0c-3.5522308 0 -6.431877 -2.879654 -6.431877 -6.431885z" fill-rule="evenodd"/><path fill="#fcb630" d="m156.34283 205.69646l0 0c0 -1.61586 1.3099213 -2.9257812 2.9257812 -2.9257812l43.603638 0c0.77597046 0 1.5201416 0.3082428 2.0688324 0.8569336c0.5486908 0.5486908 0.85694885 1.2928772 0.85694885 2.0688477l0 11.702774c0 1.61586 -1.3099213 2.9257812 -2.9257812 2.9257812l-43.603638 0c-1.61586 0 -2.9257812 -1.3099213 -2.9257812 -2.9257812z" fill-rule="evenodd"/><path fill="#fcb630" d="m97.997635 169.14238l0 0c0 -1.7583008 1.4253922 -3.1837006 3.1837082 -3.1837006l38.670998 0c0.84436035 0 1.6541595 0.33543396 2.2512207 0.9324951c0.5970459 0.59706116 0.93247986 1.4068451 0.93247986 2.2512054l0 12.734436c0 1.7583008 -1.4253998 3.1837006 -3.1837006 3.1837006l-38.670998 0c-1.758316 0 -3.1837082 -1.4253998 -3.1837082 -3.1837006z" fill-rule="evenodd"/><path fill="#fcb630" d="m190.64821 183.6004l0 0c0 -1.758316 1.4253998 -3.1837006 3.1837006 -3.1837006l23.099396 0c0.84436035 0 1.6541443 0.3354187 2.2512054 0.93247986c0.59706116 0.59706116 0.9324951 1.4068451 0.9324951 2.2512207l0 12.734421c0 1.758316 -1.4253998 3.1837006 -3.1837006 3.1837006l-23.099396 0c-1.7583008 0 -3.1837006 -1.4253845 -3.1837006 -3.1837006z" fill-rule="evenodd"/><path fill="#fcb630" d="m120.34221 145.78224l0 0c0 -0.68403625 0.55451965 -1.2385559 1.2385559 -1.2385559l86.18115 0c0.3284912 0 0.64352417 0.13049316 0.87579346 0.36276245c0.23226929 0.23226929 0.36276245 0.54730225 0.36276245 0.87579346l0 4.954056c0 0.68403625 -0.55451965 1.2385559 -1.2385559 1.2385559l-86.18115 0c-0.68403625 0 -1.2385559 -0.55451965 -1.2385559 -1.2385559z" fill-rule="evenodd"/><path fill="#fcb630" d="m89.51063 204.54924l0 0c0 -0.9822693 0.79629517 -1.7785645 1.7785721 -1.7785645l83.24736 0c0.47169495 0 0.9240875 0.18737793 1.2576294 0.52093506c0.33355713 0.33354187 0.52093506 0.78593445 0.52093506 1.2576294l0 7.11409c0 0.98228455 -0.79629517 1.7785797 -1.7785645 1.7785797l-83.24736 0c-0.9822769 0 -1.7785721 -0.79629517 -1.7785721 -1.7785797z" fill-rule="evenodd"/><path fill="#fcb630" d="m204.0383 182.19662l0 0c0 -0.98228455 0.79629517 -1.7785797 1.7785797 -1.7785797l17.511276 0c0.4717102 0 0.9240875 0.18737793 1.2576447 0.52093506c0.33354187 0.33354187 0.52093506 0.78593445 0.52093506 1.2576447l0 7.1140747c0 0.98228455 -0.79629517 1.7785797 -1.7785797 1.7785797l-17.511276 0c-0.98228455 0 -1.7785797 -0.79629517 -1.7785797 -1.7785797z" fill-rule="evenodd"/><path fill="#fcb630" d="m163.96208 157.23932l0 0c0 -0.98228455 0.79629517 -1.7785797 1.7785645 -1.7785797l45.898056 0c0.47169495 0 0.9240875 0.18739319 1.2576294 0.52093506c0.33355713 0.33354187 0.52093506 0.78593445 0.52093506 1.2576447l0 7.1140747c0 0.98228455 -0.79629517 1.7785797 -1.7785645 1.7785797l-45.898056 0c-0.9822693 0 -1.7785645 -0.79629517 -1.7785645 -1.7785797z" fill-rule="evenodd"/><path fill="#fcb630" d="m97.997635 158.33144l0 0c0 -1.4229736 1.1535492 -2.5765076 2.5765152 -2.5765076l10.305756 0l0 0c0.6833267 0 1.3386765 0.27145386 1.8218689 0.7546387c0.4831848 0.4831848 0.7546387 1.1385345 0.7546387 1.8218689l0 13.948807c0 1.4229584 -1.1535416 2.5765076 -2.5765076 2.5765076l-10.305756 0c-1.422966 0 -2.5765152 -1.1535492 -2.5765152 -2.5765076z" fill-rule="evenodd"/><path fill="#fcb630" d="m68.5228 188.01315l0 0c0 -1.6306915 1.3219452 -2.9526367 2.9526443 -2.9526367l23.561493 0c0.7830887 0 1.5341034 0.31108093 2.0878372 0.8648071c0.5537262 0.5537262 0.8648071 1.3047485 0.8648071 2.0878296l0 11.810242c0 1.6307068 -1.3219452 2.952652 -2.9526443 2.952652l-23.561493 0c-1.6306992 0 -2.9526443 -1.3219452 -2.9526443 -2.952652z" fill-rule="evenodd"/><path fill="#fcb630" d="m109.49366 129.05542l0 0c0 -1.7108307 1.3869019 -3.0977325 3.0977325 -3.0977325l28.236183 0c0.821579 0 1.6094971 0.32637024 2.1904297 0.90730286c0.5809326 0.58094025 0.90730286 1.3688507 0.90730286 2.1904297l0 12.390533c0 1.7108307 -1.3869019 3.0977325 -3.0977325 3.0977325l-28.236183 0c-1.7108307 0 -3.0977325 -1.3869019 -3.0977325 -3.0977325z" fill-rule="evenodd"/><path fill="#cfcfcf" d="m93.49366 117.83231l0 0c0 -4.349037 3.525589 -7.874626 7.874626 -7.874626l69.28209 0c2.0884857 0 4.0914154 0.82964325 5.568207 2.306427c1.4767761 1.4767761 2.3064117 3.4797134 2.3064117 5.568199l0 31.497551c0 4.3490295 -3.525589 7.8746185 -7.8746185 7.8746185l-69.28209 0c-4.349037 0 -7.874626 -3.525589 -7.874626 -7.8746185z" fill-rule="evenodd"/><path fill="#3c3c3c" d="m61.165634 181.4298l0 0c0 -3.1605072 2.5620956 -5.722595 5.722603 -5.722595l138.24219 0c1.5177155 0 2.9732819 0.6029053 4.0464783 1.6761017c1.0731964 1.0731964 1.676117 2.5287628 1.676117 4.0464935l0 22.889725c0 3.1605072 -2.5621033 5.7226105 -5.722595 5.7226105l-138.24219 0c-3.1605072 0 -5.722603 -2.5621033 -5.722603 -5.7226105z" fill-rule="evenodd"/><path fill="#9f9f9f" d="m67.90366 138.19151l0 0c0 -5.328354 4.3194733 -9.647827 9.6478195 -9.647827l116.915695 0c2.5587616 0 5.012726 1.0164642 6.8220367 2.8257751c1.8093262 1.8093262 2.8257904 4.2632904 2.8257904 6.822052l0 38.590134c0 5.328354 -4.3194885 9.647827 -9.647827 9.647827l-116.915695 0c-5.3283463 0 -9.6478195 -4.3194733 -9.6478195 -9.647827z" fill-rule="evenodd"/><path fill="#656565" d="m52.5416 165.28864l0 0c0 -3.5522308 2.879654 -6.431885 6.431885 -6.431885l154.0717 0c1.7058411 0 3.3418121 0.6776428 4.5480194 1.8838501c1.2062225 1.2062225 1.8838654 2.8421936 1.8838654 4.5480347l0 25.72676c0 3.5522308 -2.879654 6.431885 -6.431885 6.431885l-154.0717 0c-3.5522308 0 -6.431885 -2.879654 -6.431885 -6.431885z" fill-rule="evenodd"/><path fill="#656565" d="m140.34283 189.69646l0 0c0 -1.61586 1.3099213 -2.9257812 2.9257812 -2.9257812l43.603638 0c0.77597046 0 1.5201416 0.3082428 2.0688324 0.8569336c0.5486908 0.5486908 0.85694885 1.2928772 0.85694885 2.0688477l0 11.702774c0 1.61586 -1.3099213 2.9257812 -2.9257812 2.9257812l-43.603638 0c-1.61586 0 -2.9257812 -1.3099213 -2.9257812 -2.9257812z" fill-rule="evenodd"/><path fill="#9f9f9f" d="m81.997635 153.14238l0 0c0 -1.7583008 1.4253922 -3.1837006 3.1837082 -3.1837006l38.670998 0c0.844368 0 1.6541519 0.33543396 2.251213 0.9324951c0.59706116 0.59706116 0.9324875 1.4068451 0.9324875 2.2512054l0 12.734436c0 1.7583008 -1.4253922 3.1837006 -3.1837006 3.1837006l-38.670998 0c-1.758316 0 -3.1837082 -1.4253998 -3.1837082 -3.1837006z" fill-rule="evenodd"/><path fill="#9f9f9f" d="m174.64821 167.6004l0 0c0 -1.758316 1.4253998 -3.1837006 3.1837006 -3.1837006l23.099396 0c0.84436035 0 1.6541443 0.3354187 2.2512054 0.93247986c0.59706116 0.59706116 0.9324951 1.4068451 0.9324951 2.2512207l0 12.734421c0 1.758316 -1.4253998 3.1837006 -3.1837006 3.1837006l-23.099396 0c-1.7583008 0 -3.1837006 -1.4253845 -3.1837006 -3.1837006z" fill-rule="evenodd"/><path fill="#cfcfcf" d="m104.34221 129.78224l0 0c0 -0.68403625 0.55451965 -1.2385559 1.2385559 -1.2385559l86.18115 0c0.3284912 0 0.64352417 0.13049316 0.87579346 0.36276245c0.23226929 0.23226929 0.36276245 0.54730225 0.36276245 0.87579346l0 4.954056c0 0.68403625 -0.55451965 1.2385559 -1.2385559 1.2385559l-86.18115 0c-0.68403625 0 -1.2385559 -0.55451965 -1.2385559 -1.2385559z" fill-rule="evenodd"/><path fill="#3c3c3c" d="m73.51063 188.54924l0 0c0 -0.9822693 0.79629517 -1.7785645 1.7785721 -1.7785645l83.24736 0c0.47169495 0 0.9240875 0.18737793 1.2576294 0.52093506c0.33355713 0.33354187 0.52093506 0.78593445 0.52093506 1.2576294l0 7.11409c0 0.98228455 -0.79629517 1.7785797 -1.7785645 1.7785797l-83.24736 0c-0.9822769 0 -1.7785721 -0.79629517 -1.7785721 -1.7785797z" fill-rule="evenodd"/><path fill="#cfcfcf" d="m188.0383 166.19662l0 0c0 -0.98228455 0.79629517 -1.7785797 1.7785797 -1.7785797l17.511276 0c0.4717102 0 0.9240875 0.18737793 1.2576447 0.52093506c0.33354187 0.33354187 0.52093506 0.78593445 0.52093506 1.2576447l0 7.1140747c0 0.98228455 -0.79629517 1.7785797 -1.7785797 1.7785797l-17.511276 0c-0.98228455 0 -1.7785797 -0.79629517 -1.7785797 -1.7785797z" fill-rule="evenodd"/><path fill="#cfcfcf" d="m147.96208 141.23932l0 0c0 -0.98228455 0.79629517 -1.7785797 1.7785645 -1.7785797l45.898056 0c0.47169495 0 0.9240875 0.18739319 1.2576294 0.52093506c0.33355713 0.33354187 0.52093506 0.78593445 0.52093506 1.2576447l0 7.1140747c0 0.98228455 -0.79629517 1.7785797 -1.7785645 1.7785797l-45.898056 0c-0.9822693 0 -1.7785645 -0.79629517 -1.7785645 -1.7785797z" fill-rule="evenodd"/><path fill="#656565" d="m81.997635 142.33144l0 0c0 -1.4229736 1.1535492 -2.5765076 2.5765152 -2.5765076l10.305756 0l0 0c0.6833267 0 1.3386765 0.27145386 1.8218689 0.7546387c0.4831848 0.4831848 0.7546387 1.1385345 0.7546387 1.8218689l0 13.948807c0 1.4229584 -1.1535416 2.5765076 -2.5765076 2.5765076l-10.305756 0c-1.422966 0 -2.5765152 -1.1535492 -2.5765152 -2.5765076z" fill-rule="evenodd"/><path fill="#3c3c3c" d="m52.522793 172.01315l0 0c0 -1.6306915 1.321949 -2.9526367 2.9526482 -2.9526367l23.561493 0c0.7830887 0 1.5341034 0.31108093 2.0878372 0.8648071c0.5537262 0.5537262 0.8648071 1.3047485 0.8648071 2.0878296l0 11.810242c0 1.6307068 -1.3219452 2.952652 -2.9526443 2.952652l-23.561493 0c-1.6306992 0 -2.9526482 -1.3219452 -2.9526482 -2.952652z" fill-rule="evenodd"/><path fill="#9f9f9f" d="m93.49366 113.05541l0 0c0 -1.710823 1.3869019 -3.097725 3.0977325 -3.097725l28.23619 0c0.8215637 0 1.6094818 0.32637024 2.190422 0.90730286c0.5809326 0.58094025 0.90730286 1.3688583 0.90730286 2.190422l0 12.390541c0 1.7108307 -1.3869019 3.0977325 -3.097725 3.0977325l-28.23619 0c-1.7108307 0 -3.0977325 -1.3869019 -3.0977325 -3.0977325z" fill-rule="evenodd"/></g></svg>