<svg version="1.1" viewBox="0.0 0.0 288.0 384.0" fill="none" stroke="none" stroke-linecap="square" stroke-miterlimit="10" xmlns:xlink="http://www.w3.org/1999/xlink" xmlns="http://www.w3.org/2000/svg"><clipPath id="g3b18a6c779a_0_3587.0"><path d="m0 0l288.0 0l0 384.0l-288.0 0l0 -384.0z" clip-rule="nonzero"/></clipPath><g clip-path="url(#g3b18a6c779a_0_3587.0)"><path fill="#161d25" d="m0 0l288.0 0l0 384.0l-288.0 0z" fill-rule="evenodd"/><path fill="#51de18" d="m5.7007875 34.135216l0 0c0 -9.966135 8.079147 -18.045282 18.04528 -18.045282l240.50787 0c4.7858887 0 9.375793 1.9011936 12.759949 5.2853394c3.3841248 3.3841476 5.2853394 7.9740353 5.2853394 12.759943l0 324.2244c0 9.9661255 -8.079163 18.045288 -18.045288 18.045288l-240.50787 0l0 0c-9.966134 0 -18.04528 -8.079163 -18.04528 -18.045288z" fill-rule="evenodd"/><path stroke="#51de18" stroke-width="4.0" stroke-linejoin="round" stroke-linecap="butt" d="m5.7007875 34.135216l0 0c0 -9.966135 8.079147 -18.045282 18.04528 -18.045282l240.50787 0c4.7858887 0 9.375793 1.9011936 12.759949 5.2853394c3.3841248 3.3841476 5.2853394 7.9740353 5.2853394 12.759943l0 324.2244c0 9.9661255 -8.079163 18.045288 -18.045288 18.045288l-240.50787 0l0 0c-9.966134 0 -18.04528 -8.079163 -18.04528 -18.045288z" fill-rule="evenodd"/><path fill="#1f5d07" d="m5.7007875 25.639769l0 0c0 -9.966133 8.079147 -18.04528 18.04528 -18.04528l240.50787 0c4.7858887 0 9.375793 1.9011936 12.759949 5.2853403c3.3841248 3.3841467 5.2853394 7.9740343 5.2853394 12.75994l0 324.2244c0 9.9661255 -8.079163 18.045288 -18.045288 18.045288l-240.50787 0l0 0c-9.966134 0 -18.04528 -8.079163 -18.04528 -18.045288z" fill-rule="evenodd"/><path stroke="#51de18" stroke-width="4.0" stroke-linejoin="round" stroke-linecap="butt" d="m5.7007875 25.639769l0 0c0 -9.966133 8.079147 -18.04528 18.04528 -18.04528l240.50787 0c4.7858887 0 9.375793 1.9011936 12.759949 5.2853403c3.3841248 3.3841467 5.2853394 7.9740343 5.2853394 12.75994l0 324.2244c0 9.9661255 -8.079163 18.045288 -18.045288 18.045288l-240.50787 0l0 0c-9.966134 0 -18.04528 -8.079163 -18.04528 -18.045288z" fill-rule="evenodd"/><path fill="#51de18" d="m108.39294 82.769264l0 0c0 -3.4230042 2.7748947 -6.197899 6.197899 -6.197899l74.817505 0c1.6437836 0 3.2202454 0.65299225 4.3825836 1.8153229c1.162323 1.1623306 1.8153229 2.7387924 1.8153229 4.382576l0 24.790863c0 3.4230042 -2.7749023 6.197899 -6.1979065 6.197899l-74.817505 0c-3.4230042 0 -6.197899 -2.7748947 -6.197899 -6.197899z" fill-rule="evenodd"/><path fill="#51de18" d="m135.5605 82.769264l0 0c0 -3.4230042 2.7749023 -6.197899 6.1979065 -6.197899l34.16057 0c1.6437988 0 3.2202454 0.65299225 4.3825836 1.8153229c1.1623383 1.1623306 1.8153229 2.7387924 1.8153229 4.382576l0 24.790863c0 3.4230042 -2.774887 6.197899 -6.1979065 6.197899l-34.16057 0l0 0c-3.4230042 0 -6.1979065 -2.7748947 -6.1979065 -6.197899z" fill-rule="evenodd"/><path fill="#51de18" d="m108.39294 98.77505l0 0c0 -1.654335 1.3411026 -2.9954453 2.9954453 -2.9954453l81.22241 0c0.79444885 0 1.5563507 0.3155899 2.118103 0.87734985c0.5617523 0.5617523 0.87734985 1.3236542 0.87734985 2.1180954l0 11.981438c0 1.6543427 -1.3411102 2.995453 -2.995453 2.995453l-81.22241 0c-1.6543427 0 -2.9954453 -1.3411102 -2.9954453 -2.995453z" fill-rule="evenodd"/><path fill="#51de18" d="m135.5605 98.77505l0 0c0 -1.654335 1.3411102 -2.9954453 2.995453 -2.9954453l40.565475 0c0.79444885 0 1.5563507 0.3155899 2.118103 0.87734985c0.5617523 0.5617523 0.87734985 1.3236542 0.87734985 2.1180954l0 11.981438c0 1.6543427 -1.3411102 2.995453 -2.995453 2.995453l-40.565475 0l0 0c-1.6543427 0 -2.995453 -1.3411102 -2.995453 -2.995453z" fill-rule="evenodd"/><path fill="#51de18" d="m106.758255 130.42018l0 0c0 -8.328873 6.7518845 -15.0807495 15.0807495 -15.0807495l60.321167 0l0 0c3.9996643 0 7.8355103 1.5888596 10.663696 4.4170456c2.828186 2.8281937 4.417053 6.6640396 4.417053 10.663704l0 123.71748c0 8.328857 -6.751877 15.0807495 -15.0807495 15.0807495l-60.321167 0c-8.328865 0 -15.0807495 -6.751892 -15.0807495 -15.0807495z" fill-rule="evenodd"/><path fill="#51de18" d="m101.26062 132.25276l0 0c0 -9.340973 7.572357 -16.91333 16.91333 -16.91333l67.651276 0l0 0c4.4857025 0 8.787674 1.7819366 11.959534 4.9537964c3.1718597 3.1718674 4.9537964 7.473839 4.9537964 11.959534l0 126.26228c0 9.340973 -7.572357 16.91333 -16.91333 16.91333l-67.651276 0c-9.340973 0 -16.91333 -7.572357 -16.91333 -16.91333z" fill-rule="evenodd"/><path fill="#51de18" d="m142.05426 125.39414l0 0c0 -1.8308716 1.4842224 -3.3150864 3.315094 -3.3150864l13.259933 0l0 0c0.8792114 0 1.7224274 0.34926605 2.3441162 0.97097015c0.6217041 0.6216965 0.9709778 1.4648972 0.9709778 2.3441162l0 133.76956c0 1.8308716 -1.4842224 3.315094 -3.315094 3.315094l-13.259933 0c-1.8308716 0 -3.315094 -1.4842224 -3.315094 -3.315094z" fill-rule="evenodd"/><path fill="#51de18" d="m118.58152 125.39414l0 0c0 -1.8308716 1.4842148 -3.3150864 3.3150864 -3.3150864l13.259933 0l0 0c0.8792267 0 1.7224274 0.34926605 2.3441315 0.97097015c0.62168884 0.6216965 0.9709625 1.4648972 0.9709625 2.3441162l0 133.76956c0 1.8308716 -1.4842224 3.315094 -3.315094 3.315094l-13.259933 0c-1.8308716 0 -3.3150864 -1.4842224 -3.3150864 -3.315094z" fill-rule="evenodd"/><path fill="#51de18" d="m165.52701 125.39414l0 0c0 -1.8308716 1.4842072 -3.3150864 3.3150787 -3.3150864l13.259949 0l0 0c0.8792114 0 1.7224121 0.34926605 2.3441162 0.97097015c0.6217041 0.6216965 0.9709625 1.4648972 0.9709625 2.3441162l0 133.76956c0 1.8308716 -1.4842072 3.315094 -3.3150787 3.315094l-13.259949 0c-1.8308716 0 -3.3150787 -1.4842224 -3.3150787 -3.315094z" fill-rule="evenodd"/><path fill="#51de18" d="m102.904434 110.14927l0 0c0 -0.5733032 0.4647522 -1.0380554 1.0380554 -1.0380554l96.1142 0c0.27531433 0 0.53933716 0.10936737 0.73402405 0.304039c0.19467163 0.19467163 0.30403137 0.45870972 0.30403137 0.7340164l0 4.1521072c0 0.5733032 -0.4647522 1.0380554 -1.0380554 1.0380554l-96.1142 0c-0.5733032 0 -1.0380554 -0.4647522 -1.0380554 -1.0380554z" fill-rule="evenodd"/><path fill="#51de18" d="m133.49301 110.14927l0 0c0 -0.5733032 0.4647522 -1.0380554 1.0380554 -1.0380554l50.3432 0c0.27531433 0 0.53933716 0.10936737 0.7340088 0.304039c0.19468689 0.19467163 0.30404663 0.45870972 0.30404663 0.7340164l0 4.1521072c0 0.5733032 -0.4647522 1.0380554 -1.0380554 1.0380554l-50.3432 0c-0.5733032 0 -1.0380554 -0.4647522 -1.0380554 -1.0380554z" fill-rule="evenodd"/><path fill="#51de18" d="m102.904434 95.356346l0 0c0 -0.5732956 0.4647522 -1.0380554 1.0380554 -1.0380554l96.1142 0c0.27531433 0 0.53933716 0.10936737 0.73402405 0.304039c0.19467163 0.19467926 0.30403137 0.45870972 0.30403137 0.7340164l0 4.1521072c0 0.5733032 -0.4647522 1.0380554 -1.0380554 1.0380554l-96.1142 0c-0.5733032 0 -1.0380554 -0.4647522 -1.0380554 -1.0380554z" fill-rule="evenodd"/><path fill="#51de18" d="m133.49301 95.356346l0 0c0 -0.5732956 0.4647522 -1.0380554 1.0380554 -1.0380554l50.3432 0c0.27531433 0 0.53933716 0.10936737 0.7340088 0.304039c0.19468689 0.19467926 0.30404663 0.45870972 0.30404663 0.7340164l0 4.1521072c0 0.5733032 -0.4647522 1.0380554 -1.0380554 1.0380554l-50.3432 0c-0.5733032 0 -1.0380554 -0.4647522 -1.0380554 -1.0380554z" fill-rule="evenodd"/><path fill="#656565" d="m92.39294 66.769264l0 0c0 -3.4230042 2.7748947 -6.197899 6.197899 -6.197899l74.817505 0c1.6437836 0 3.2202454 0.65299225 4.3825836 1.8153229c1.162323 1.1623306 1.8153229 2.7387924 1.8153229 4.382576l0 24.790863c0 3.4230042 -2.7749023 6.197899 -6.1979065 6.197899l-74.817505 0c-3.4230042 0 -6.197899 -2.7748947 -6.197899 -6.197899z" fill-rule="evenodd"/><path fill="#9f9f9f" d="m119.5605 66.769264l0 0c0 -3.4230042 2.7748947 -6.197899 6.197899 -6.197899l34.160576 0c1.6437988 0 3.2202454 0.65299225 4.3825836 1.8153229c1.1623383 1.1623306 1.8153229 2.7387924 1.8153229 4.382576l0 24.790863c0 3.4230042 -2.774887 6.197899 -6.1979065 6.197899l-34.160576 0l0 0c-3.4230042 0 -6.197899 -2.7748947 -6.197899 -6.197899z" fill-rule="evenodd"/><path fill="#656565" d="m92.39294 82.77505l0 0c0 -1.654335 1.3411026 -2.9954453 2.9954453 -2.9954453l81.22241 0c0.79444885 0 1.5563507 0.3155899 2.118103 0.87734985c0.5617523 0.5617523 0.87734985 1.3236542 0.87734985 2.1180954l0 11.981438c0 1.6543427 -1.3411102 2.995453 -2.995453 2.995453l-81.22241 0c-1.6543427 0 -2.9954453 -1.3411102 -2.9954453 -2.995453z" fill-rule="evenodd"/><path fill="#9f9f9f" d="m119.5605 82.77505l0 0c0 -1.654335 1.3411102 -2.9954453 2.995453 -2.9954453l40.565475 0c0.79444885 0 1.5563507 0.3155899 2.118103 0.87734985c0.5617523 0.5617523 0.87734985 1.3236542 0.87734985 2.1180954l0 11.981438c0 1.6543427 -1.3411102 2.995453 -2.995453 2.995453l-40.565475 0l0 0c-1.6543427 0 -2.995453 -1.3411102 -2.995453 -2.995453z" fill-rule="evenodd"/><path fill="#e7f2ff" d="m90.758255 114.42017l0 0c0 -8.328865 6.7518845 -15.080742 15.0807495 -15.080742l60.321167 0l0 0c3.9996643 0 7.8355103 1.5888596 10.663696 4.4170456c2.828186 2.8281937 4.417053 6.6640396 4.417053 10.663696l0 123.71749c0 8.328857 -6.751877 15.0807495 -15.0807495 15.0807495l-60.321167 0c-8.328865 0 -15.0807495 -6.751892 -15.0807495 -15.0807495z" fill-rule="evenodd"/><path fill="#f3f8fe" fill-opacity="0.5506" d="m85.26062 116.25276l0 0c0 -9.340973 7.572357 -16.91333 16.91333 -16.91333l67.651276 0l0 0c4.4857025 0 8.787674 1.7819366 11.959534 4.9537964c3.1718597 3.1718674 4.9537964 7.473839 4.9537964 11.959534l0 126.26227c0 9.340973 -7.572357 16.913345 -16.91333 16.913345l-67.651276 0c-9.340973 0 -16.91333 -7.5723724 -16.91333 -16.913345z" fill-rule="evenodd"/><path fill="#f3f8fe" d="m126.05426 109.39414l0 0c0 -1.8308716 1.4842148 -3.3150864 3.315094 -3.3150864l13.259933 0l0 0c0.8792114 0 1.7224274 0.34926605 2.3441162 0.97097015c0.6217041 0.6216965 0.9709778 1.4648972 0.9709778 2.3441162l0 133.76956c0 1.8308716 -1.4842224 3.3150787 -3.315094 3.3150787l-13.259933 0c-1.8308792 0 -3.315094 -1.4842072 -3.315094 -3.3150787z" fill-rule="evenodd"/><path fill="#f3f8fe" d="m102.58152 109.39414l0 0c0 -1.8308716 1.4842148 -3.3150864 3.3150864 -3.3150864l13.259941 0l0 0c0.8792114 0 1.7224197 0.34926605 2.3441162 0.97097015c0.6217041 0.6216965 0.97097015 1.4648972 0.97097015 2.3441162l0 133.76956c0 1.8308716 -1.4842148 3.3150787 -3.3150864 3.3150787l-13.259941 0c-1.8308716 0 -3.3150864 -1.4842072 -3.3150864 -3.3150787z" fill-rule="evenodd"/><path fill="#f3f8fe" d="m149.52701 109.39414l0 0c0 -1.8308716 1.4842072 -3.3150864 3.3150787 -3.3150864l13.259949 0l0 0c0.8792114 0 1.7224121 0.34926605 2.3441162 0.97097015c0.6217041 0.6216965 0.9709625 1.4648972 0.9709625 2.3441162l0 133.76956c0 1.8308716 -1.4842072 3.3150787 -3.3150787 3.3150787l-13.259949 0c-1.8308716 0 -3.3150787 -1.4842072 -3.3150787 -3.3150787z" fill-rule="evenodd"/><path fill="#9f9f9f" d="m86.904434 94.14927l0 0c0 -0.5733032 0.4647522 -1.0380554 1.0380554 -1.0380554l96.1142 0c0.27531433 0 0.53933716 0.10936737 0.73402405 0.304039c0.19467163 0.19467163 0.30403137 0.45870972 0.30403137 0.7340164l0 4.1521072c0 0.5733032 -0.4647522 1.0380554 -1.0380554 1.0380554l-96.1142 0c-0.5733032 0 -1.0380554 -0.4647522 -1.0380554 -1.0380554z" fill-rule="evenodd"/><path fill="#cfcfcf" d="m117.49302 94.14927l0 0c0 -0.5733032 0.4647522 -1.0380554 1.0380554 -1.0380554l50.343193 0c0.27531433 0 0.53933716 0.10936737 0.7340088 0.304039c0.19468689 0.19467163 0.30404663 0.45870972 0.30404663 0.7340164l0 4.1521072c0 0.5733032 -0.4647522 1.0380554 -1.0380554 1.0380554l-50.343193 0c-0.5733032 0 -1.0380554 -0.4647522 -1.0380554 -1.0380554z" fill-rule="evenodd"/><path fill="#9f9f9f" d="m86.904434 79.356346l0 0c0 -0.5732956 0.4647522 -1.0380554 1.0380554 -1.0380554l96.1142 0c0.27531433 0 0.53933716 0.10936737 0.73402405 0.304039c0.19467163 0.19467926 0.30403137 0.45870972 0.30403137 0.7340164l0 4.1521072c0 0.5733032 -0.4647522 1.0380554 -1.0380554 1.0380554l-96.1142 0c-0.5733032 0 -1.0380554 -0.4647522 -1.0380554 -1.0380554z" fill-rule="evenodd"/><path fill="#cfcfcf" d="m117.49302 79.356346l0 0c0 -0.5732956 0.4647522 -1.0380554 1.0380554 -1.0380554l50.343193 0c0.27531433 0 0.53933716 0.10936737 0.7340088 0.304039c0.19468689 0.19467926 0.30404663 0.45870972 0.30404663 0.7340164l0 4.1521072c0 0.5733032 -0.4647522 1.0380554 -1.0380554 1.0380554l-50.343193 0c-0.5733032 0 -1.0380554 -0.4647522 -1.0380554 -1.0380554z" fill-rule="evenodd"/><path fill="#000000" fill-opacity="0.0" d="m21.700787 315.7533l266.29922 0l0 38.771637l-266.29922 0z" fill-rule="evenodd"/><path fill="#ffffff" d="m31.278912 336.17578l3.375 0q0.078125 0.5 0.453125 0.875q0.390625 0.359375 1.03125 0.5625q0.65625 0.203125 1.53125 0.203125q1.21875 0 1.921875 -0.3125q0.703125 -0.3125 0.703125 -0.921875q0 -0.46875 -0.40625 -0.71875q-0.390625 -0.265625 -1.53125 -0.375l-2.234375 -0.203125q-2.484375 -0.234375 -3.609375 -1.125q-1.109375 -0.90625 -1.109375 -2.453125q0 -1.234375 0.71875 -2.09375q0.734375 -0.875 2.046875 -1.3125q1.328125 -0.4375 3.09375 -0.4375q1.71875 0 3.0625 0.484375q1.34375 0.484375 2.140625 1.390625q0.796875 0.890625 0.859375 2.078125l-3.359375 0q-0.0625 -0.4375 -0.40625 -0.75q-0.34375 -0.3125 -0.9375 -0.484375q-0.59375 -0.171875 -1.421875 -0.171875q-1.125 0 -1.78125 0.296875q-0.65625 0.296875 -0.65625 0.875q0 0.421875 0.390625 0.6875q0.390625 0.25 1.421875 0.34375l2.375 0.234375q1.71875 0.15625 2.734375 0.5625q1.03125 0.390625 1.484375 1.078125q0.46875 0.6875 0.46875 1.703125q0 1.265625 -0.75 2.203125q-0.75 0.9375 -2.109375 1.453125q-1.359375 0.515625 -3.171875 0.515625q-1.84375 0 -3.265625 -0.515625q-1.421875 -0.515625 -2.21875 -1.46875q-0.796875 -0.953125 -0.84375 -2.203125zm22.018143 3.9375l-0.421875 -3.296875l0.4375 -1.265625l-0.4375 -1.265625l0.421875 -3.3125l3.390625 0l-0.578125 4.5625l0.578125 4.578125l-3.390625 0zm0.765625 -4.5625q-0.21875 1.4375 -0.890625 2.53125q-0.65625 1.09375 -1.671875 1.6875q-1.015625 0.59375 -2.3125 0.59375q-1.34375 0 -2.375 -0.59375q-1.015625 -0.59375 -1.59375 -1.6875q-0.5625 -1.109375 -0.5625 -2.53125q0 -1.453125 0.5625 -2.53125q0.578125 -1.09375 1.59375 -1.703125q1.03125 -0.609375 2.375 -0.609375q1.296875 0 2.3125 0.609375q1.015625 0.59375 1.6875 1.671875q0.671875 1.078125 0.875 2.5625zm-6.09375 0q0 0.671875 0.28125 1.203125q0.28125 0.53125 0.765625 0.828125q0.5 0.296875 1.140625 0.296875q0.671875 0 1.265625 -0.296875q0.59375 -0.296875 1.03125 -0.828125q0.453125 -0.53125 0.671875 -1.203125q-0.21875 -0.6875 -0.671875 -1.203125q-0.4375 -0.53125 -1.03125 -0.828125q-0.59375 -0.3125 -1.265625 -0.3125q-0.640625 0 -1.140625 0.3125q-0.484375 0.296875 -0.765625 0.828125q-0.28125 0.515625 -0.28125 1.203125zm10.278534 -7.75l3.28125 0l0 12.3125l-3.28125 0l0 -12.3125zm4.275131 5.59375l0 -1.421875l1.8593788 -0.75l1.40625 -2.703125l1.859375 0l0 2.453125l3.84375 0l0 2.421875l-3.84375 0l0 2.6875q0 0.984375 0.390625 1.390625q0.40625 0.40625 1.46875 0.40625q0.671875 0 1.1875 -0.125q0.515625 -0.125 0.953125 -0.3125l0 2.46875q-0.484375 0.171875 -1.265625 0.3125q-0.78125 0.140625 -1.609375 0.140625q-1.53125 0 -2.5 -0.453125q-0.96875 -0.46875 -1.4375 -1.34375q-0.453125 -0.875 -0.453125 -2.03125l0 -3.140625l-1.8593788 0z" fill-rule="nonzero"/><path fill="#ffffff" d="m80.460175 336.95703q0 -0.84375 0.171875 -1.765625q0.171875 -0.921875 0.46875 -1.78125q0.3125 -0.875 0.703125 -1.515625l0.859375 0q-0.40625 0.8125 -0.703125 1.703125q-0.296875 0.875 -0.453125 1.75q-0.15625 0.859375 -0.15625 1.609375q0 0.671875 0.140625 1.390625q0.140625 0.703125 0.421875 1.5q0.296875 0.78125 0.75 1.71875l-0.859375 0q-0.671875 -1.125 -1.015625 -2.296875q-0.328125 -1.171875 -0.328125 -2.3125zm9.634918 -1.34375l-0.8125 0.21875q-0.109375 -0.296875 -0.390625 -0.5625q-0.28125 -0.28125 -0.859375 -0.28125q-0.53125 0 -0.890625 0.25q-0.34375 0.25 -0.34375 0.625q0 0.328125 0.234375 0.53125q0.25 0.1875 0.765625 0.3125l0.859375 0.21875q0.765625 0.1875 1.140625 0.578125q0.390625 0.375 0.390625 0.984375q0 0.5 -0.28125 0.90625q-0.28125 0.390625 -0.796875 0.625q-0.515625 0.21875 -1.1875 0.21875q-0.890625 0 -1.46875 -0.390625q-0.578125 -0.390625 -0.734375 -1.125l0.84375 -0.21875q0.125 0.46875 0.453125 0.703125q0.34375 0.234375 0.90625 0.234375q0.609375 0 0.984375 -0.265625q0.375 -0.265625 0.375 -0.640625q0 -0.609375 -0.875 -0.8125l-0.953125 -0.234375q-0.8125 -0.1875 -1.1875 -0.578125q-0.375 -0.40625 -0.375 -1.0q0 -0.5 0.28125 -0.875q0.28125 -0.375 0.765625 -0.59375q0.484375 -0.21875 1.09375 -0.21875q0.859375 0 1.34375 0.390625q0.5 0.375 0.71875 1.0zm3.3023376 4.625q-0.78125 0 -1.375 -0.375q-0.59375 -0.375 -0.921875 -1.046875q-0.328125 -0.6875 -0.328125 -1.578125q0 -0.90625 0.328125 -1.578125q0.328125 -0.6875 0.921875 -1.0625q0.59375 -0.375 1.375 -0.375q0.796875 0 1.390625 0.375q0.59375 0.375 0.921875 1.0625q0.328125 0.671875 0.328125 1.578125q0 0.890625 -0.328125 1.578125q-0.328125 0.671875 -0.921875 1.046875q-0.59375 0.375 -1.390625 0.375zm0 -0.796875q0.609375 0 0.984375 -0.3125q0.390625 -0.3125 0.578125 -0.8125q0.1875 -0.5 0.1875 -1.078125q0 -0.578125 -0.1875 -1.078125q-0.1875 -0.515625 -0.578125 -0.828125q-0.375 -0.3125 -0.984375 -0.3125q-0.59375 0 -0.984375 0.3125q-0.375 0.3125 -0.5625 0.828125q-0.1875 0.5 -0.1875 1.078125q0 0.578125 0.1875 1.078125q0.1875 0.5 0.5625 0.8125q0.390625 0.3125 0.984375 0.3125zm4.390106 -7.078125l0 7.75l-0.875 0l0 -7.75l0.875 0zm3.6698914 1.9375l0 0.75l-3.015625 0l0 -0.75l3.015625 0zm-2.140625 -1.390625l0.890625 0l0 5.53125q0 0.453125 0.1875 0.671875q0.1875 0.203125 0.59375 0.203125q0.078125 0 0.171875 0q0.109375 -0.015625 0.21875 -0.03125l0.1875 0.796875q-0.125 0.046875 -0.3125 0.078125q-0.171875 0.03125 -0.34375 0.03125q-0.703125 0 -1.15625 -0.421875q-0.4375 -0.421875 -0.4375 -1.078125l0 -5.78125zm5.1661377 8.65625q0.453125 -0.9375 0.734375 -1.71875q0.296875 -0.796875 0.4375 -1.5q0.140625 -0.71875 0.140625 -1.390625q0 -0.75 -0.15625 -1.609375q-0.15625 -0.875 -0.453125 -1.75q-0.296875 -0.890625 -0.703125 -1.703125l0.859375 0q0.40625 0.640625 0.703125 1.515625q0.296875 0.859375 0.46875 1.78125q0.171875 0.921875 0.171875 1.765625q0 1.140625 -0.34375 2.3125q-0.328125 1.171875 -1.0 2.296875l-0.859375 0z" fill-rule="nonzero"/></g></svg>