<svg version="1.1" viewBox="0.0 0.0 480.0 96.0" fill="none" stroke="none" stroke-linecap="square" stroke-miterlimit="10" xmlns:xlink="http://www.w3.org/1999/xlink" xmlns="http://www.w3.org/2000/svg"><clipPath id="g3b6cfa48ab7_0_13.0"><path d="m0 0l480.0 0l0 96.0l-480.0 0l0 -96.0z" clip-rule="nonzero"/></clipPath><g clip-path="url(#g3b6cfa48ab7_0_13.0)"><path fill="#d0d1d2" d="m5.7007875 21.081635l0 0c0 -7.433525 6.026062 -13.459587 13.459586 -13.459587l153.67926 0c3.5697021 0 6.9931946 1.4180593 9.5173645 3.9422216c2.5241547 2.5241623 3.942215 5.9476614 3.942215 9.517365l0 53.83673c0 7.433525 -6.026062 13.459587 -13.459579 13.459587l-153.67926 0c-7.433524 0 -13.459586 -6.026062 -13.459586 -13.459587z" fill-rule="evenodd"/><path stroke="#d0d1d2" stroke-width="4.0" stroke-linejoin="round" stroke-linecap="butt" d="m5.7007875 21.081635l0 0c0 -7.433525 6.026062 -13.459587 13.459586 -13.459587l153.67926 0c3.5697021 0 6.9931946 1.4180593 9.5173645 3.9422216c2.5241547 2.5241623 3.942215 5.9476614 3.942215 9.517365l0 53.83673c0 7.433525 -6.026062 13.459587 -13.459579 13.459587l-153.67926 0c-7.433524 0 -13.459586 -6.026062 -13.459586 -13.459587z" fill-rule="evenodd"/><path fill="#f9f9f9" d="m5.7007875 19.746962l0 0c0 -6.69713 5.429096 -12.126226 12.126227 -12.126226l156.34598 0c3.2160797 0 6.3004303 1.2775807 8.574539 3.5516896c2.274109 2.274109 3.5516815 5.3584614 3.5516815 8.574537l0 48.50345c0 6.6971283 -5.4290924 12.126228 -12.126221 12.126228l-156.34598 0l0 0c-6.697131 0 -12.126227 -5.4291 -12.126227 -12.126228z" fill-rule="evenodd"/><path stroke="#d0d1d2" stroke-width="4.0" stroke-linejoin="round" stroke-linecap="butt" d="m5.7007875 19.746962l0 0c0 -6.69713 5.429096 -12.126226 12.126227 -12.126226l156.34598 0c3.2160797 0 6.3004303 1.2775807 8.574539 3.5516896c2.274109 2.274109 3.5516815 5.3584614 3.5516815 8.574537l0 48.50345c0 6.6971283 -5.4290924 12.126228 -12.126221 12.126228l-156.34598 0l0 0c-6.697131 0 -12.126227 -5.4291 -12.126227 -12.126228z" fill-rule="evenodd"/><path fill="#d0d1d2" d="m46.751003 46.228687l4.5 0q0.109375 0.671875 0.625 1.15625q0.515625 0.484375 1.375 0.75q0.859375 0.265625 2.03125 0.265625q1.625 0 2.5625 -0.40625q0.9375 -0.421875 0.9375 -1.234375q0 -0.609375 -0.53125 -0.953125q-0.53125 -0.34375 -2.046875 -0.484375l-2.984375 -0.28125q-3.3125 -0.296875 -4.8125 -1.5q-1.484375 -1.21875 -1.484375 -3.265625q0 -1.65625 0.96875 -2.8125q0.96875 -1.15625 2.734375 -1.734375q1.765625 -0.59375 4.109375 -0.59375q2.296875 0 4.078125 0.65625q1.796875 0.65625 2.859375 1.859375q1.0625 1.1875 1.140625 2.765625l-4.484375 0q-0.078125 -0.578125 -0.546875 -1.0q-0.453125 -0.421875 -1.25 -0.640625q-0.78125 -0.21875 -1.890625 -0.21875q-1.484375 0 -2.359375 0.390625q-0.875 0.390625 -0.875 1.15625q0 0.5625 0.515625 0.90625q0.53125 0.34375 1.890625 0.46875l3.171875 0.3125q2.28125 0.21875 3.640625 0.75q1.375 0.515625 1.984375 1.4375q0.625 0.90625 0.625 2.28125q0 1.671875 -1.0 2.921875q-1.0 1.25 -2.8125 1.953125q-1.8125 0.6875 -4.21875 0.6875q-2.484375 0 -4.375 -0.6875q-1.875 -0.703125 -2.953125 -1.96875q-1.0625 -1.265625 -1.125 -2.9375zm18.316227 -7.125l2.203125 0.4375l2.171875 -0.4375l0 12.375l-4.375 0l0 -12.375zm2.1875 -1.0q-1.125 0 -1.828125 -0.5625q-0.703125 -0.5625 -0.703125 -1.546875q0 -0.953125 0.703125 -1.53125q0.703125 -0.578125 1.828125 -0.578125q1.171875 0 1.859375 0.578125q0.703125 0.578125 0.703125 1.53125q0 0.984375 -0.703125 1.546875q-0.6875 0.5625 -1.859375 0.5625zm15.229797 10.296875l0 -2.0625l0.140625 -0.515625l0 -2.984375l-0.140625 -0.4375l0 -3.09375l4.34375 0l0 8.9375q0 2.234375 -1.046875 3.828125q-1.046875 1.609375 -2.921875 2.4375q-1.859375 0.828125 -4.390625 0.828125q-1.6875 0 -3.125 -0.4375q-1.4375 -0.4375 -2.875 -1.28125l0 -3.296875q1.328125 0.984375 2.78125 1.421875q1.46875 0.4375 2.9375 0.4375q2.09375 0 3.1875 -0.890625q1.109375 -0.90625 1.109375 -2.890625zm-5.234375 1.796875q-1.71875 0 -3.0625 -0.703125q-1.34375 -0.703125 -2.125 -1.96875q-0.78125 -1.265625 -0.78125 -2.953125q0 -1.703125 0.78125 -2.96875q0.78125 -1.265625 2.125 -1.96875q1.34375 -0.703125 3.0625 -0.703125q1.28125 0 2.34375 0.40625q1.078125 0.390625 1.90625 1.046875q0.828125 0.640625 1.390625 1.40625q0.5625 0.75 0.859375 1.5q0.3125 0.75 0.3125 1.3125q0 0.796875 -0.46875 1.765625q-0.453125 0.953125 -1.328125 1.828125q-0.875 0.875 -2.140625 1.4375q-1.265625 0.5625 -2.875 0.5625zm1.46875 -2.96875q1.265625 0 2.234375 -0.65625q0.984375 -0.65625 1.671875 -2.0q-0.703125 -1.375 -1.6875 -2.015625q-0.96875 -0.65625 -2.21875 -0.65625q-0.9375 0 -1.625 0.328125q-0.6875 0.3125 -1.0625 0.921875q-0.359375 0.609375 -0.359375 1.421875q0 0.78125 0.359375 1.390625q0.375 0.609375 1.046875 0.9375q0.6875 0.328125 1.640625 0.328125zm9.8867035 -7.921875l4.359375 0l0.796875 4.859375l0 7.3125l-4.359375 0l0 -7.984375l-0.796875 -4.1875zm9.640625 -0.375q1.734375 0 2.96875 0.703125q1.25 0.703125 1.890625 1.984375q0.65625 1.28125 0.65625 3.03125l0 6.828125l-4.34375 0l0 -6.1875q0 -1.359375 -0.703125 -2.078125q-0.6875 -0.734375 -1.984375 -0.734375q-0.90625 0 -1.578125 0.390625q-0.671875 0.375 -1.03125 1.078125q-0.359375 0.703125 -0.359375 1.671875l-1.34375 -0.703125q0.25 -1.953125 1.078125 -3.28125q0.84375 -1.328125 2.046875 -2.015625q1.21875 -0.6875 2.703125 -0.6875zm17.53923 5.40625q0 1.078125 0.421875 1.890625q0.421875 0.796875 1.234375 1.21875q0.828125 0.421875 2.015625 0.421875q1.21875 0 2.03125 -0.421875q0.8125 -0.421875 1.21875 -1.21875q0.40625 -0.8125 0.40625 -1.890625l0 -8.859375l4.4375 0l0 9.0625q0 2.203125 -1.015625 3.84375q-1.015625 1.625 -2.828125 2.53125q-1.8125 0.90625 -4.25 0.90625q-2.40625 0 -4.234375 -0.90625q-1.8125 -0.90625 -2.828125 -2.53125q-1.015625 -1.640625 -1.015625 -3.84375l0 -9.0625l4.40625 0l0 8.859375zm14.034164 -5.03125l4.375 0l0 3.484375l-0.1875 0.515625l0 3.421875l0.1875 1.0l0 7.265625l-4.375 0l0 -15.6875zm3.0 6.09375q0.265625 -1.984375 1.15625 -3.421875q0.890625 -1.4375 2.25 -2.234375q1.359375 -0.8125 3.09375 -0.8125q1.796875 0 3.140625 0.8125q1.359375 0.8125 2.109375 2.265625q0.765625 1.453125 0.765625 3.390625q0 1.890625 -0.765625 3.359375q-0.75 1.453125 -2.109375 2.265625q-1.34375 0.796875 -3.140625 0.796875q-1.734375 0 -3.09375 -0.796875q-1.359375 -0.8125 -2.234375 -2.25q-0.875 -1.453125 -1.171875 -3.375zm8.125 0q0 -0.921875 -0.375 -1.625q-0.375 -0.703125 -1.046875 -1.109375q-0.671875 -0.40625 -1.53125 -0.40625q-0.875 0 -1.671875 0.40625q-0.78125 0.40625 -1.375 1.109375q-0.59375 0.703125 -0.921875 1.625q0.328125 0.890625 0.921875 1.59375q0.59375 0.703125 1.375 1.109375q0.796875 0.390625 1.671875 0.390625q0.859375 0 1.53125 -0.390625q0.671875 -0.40625 1.046875 -1.109375q0.375 -0.703125 0.375 -1.59375z" fill-rule="nonzero"/></g></svg>