<svg version="1.1" viewBox="0.0 0.0 288.0 384.0" fill="none" stroke="none" stroke-linecap="square" stroke-miterlimit="10" xmlns:xlink="http://www.w3.org/1999/xlink" xmlns="http://www.w3.org/2000/svg"><clipPath id="g3b18a6c779a_0_1626.0"><path d="m0 0l288.0 0l0 384.0l-288.0 0l0 -384.0z" clip-rule="nonzero"/></clipPath><g clip-path="url(#g3b18a6c779a_0_1626.0)"><path fill="#ffffff" d="m0 0l288.0 0l0 384.0l-288.0 0z" fill-rule="evenodd"/><path fill="#d0d1d2" d="m5.7007875 34.135216l0 0c0 -9.966135 8.079147 -18.045282 18.04528 -18.045282l240.50787 0c4.7858887 0 9.375793 1.9011936 12.759949 5.2853394c3.3841248 3.3841476 5.2853394 7.9740353 5.2853394 12.759943l0 324.2244c0 9.9661255 -8.079163 18.045288 -18.045288 18.045288l-240.50787 0l0 0c-9.966134 0 -18.04528 -8.079163 -18.04528 -18.045288z" fill-rule="evenodd"/><path stroke="#d0d1d2" stroke-width="4.0" stroke-linejoin="round" stroke-linecap="butt" d="m5.7007875 34.135216l0 0c0 -9.966135 8.079147 -18.045282 18.04528 -18.045282l240.50787 0c4.7858887 0 9.375793 1.9011936 12.759949 5.2853394c3.3841248 3.3841476 5.2853394 7.9740353 5.2853394 12.759943l0 324.2244c0 9.9661255 -8.079163 18.045288 -18.045288 18.045288l-240.50787 0l0 0c-9.966134 0 -18.04528 -8.079163 -18.04528 -18.045288z" fill-rule="evenodd"/><path fill="#f9f9f9" d="m5.7007875 25.639769l0 0c0 -9.966133 8.079147 -18.04528 18.04528 -18.04528l240.50787 0c4.7858887 0 9.375793 1.9011936 12.759949 5.2853403c3.3841248 3.3841467 5.2853394 7.9740343 5.2853394 12.75994l0 324.2244c0 9.9661255 -8.079163 18.045288 -18.045288 18.045288l-240.50787 0l0 0c-9.966134 0 -18.04528 -8.079163 -18.04528 -18.045288z" fill-rule="evenodd"/><path stroke="#d0d1d2" stroke-width="4.0" stroke-linejoin="round" stroke-linecap="butt" d="m5.7007875 25.639769l0 0c0 -9.966133 8.079147 -18.04528 18.04528 -18.04528l240.50787 0c4.7858887 0 9.375793 1.9011936 12.759949 5.2853403c3.3841248 3.3841467 5.2853394 7.9740343 5.2853394 12.75994l0 324.2244c0 9.9661255 -8.079163 18.045288 -18.045288 18.045288l-240.50787 0l0 0c-9.966134 0 -18.04528 -8.079163 -18.04528 -18.045288z" fill-rule="evenodd"/><path fill="#000000" fill-opacity="0.0" d="m21.700787 315.7533l266.29922 0l0 38.771637l-266.29922 0z" fill-rule="evenodd"/><path fill="#000000" d="m31.278912 336.17578l3.375 0q0.078125 0.5 0.453125 0.875q0.390625 0.359375 1.03125 0.5625q0.65625 0.203125 1.53125 0.203125q1.21875 0 1.921875 -0.3125q0.703125 -0.3125 0.703125 -0.921875q0 -0.46875 -0.40625 -0.71875q-0.390625 -0.265625 -1.53125 -0.375l-2.234375 -0.203125q-2.484375 -0.234375 -3.609375 -1.125q-1.109375 -0.90625 -1.109375 -2.453125q0 -1.234375 0.71875 -2.09375q0.734375 -0.875 2.046875 -1.3125q1.328125 -0.4375 3.09375 -0.4375q1.71875 0 3.0625 0.484375q1.34375 0.484375 2.140625 1.390625q0.796875 0.890625 0.859375 2.078125l-3.359375 0q-0.0625 -0.4375 -0.40625 -0.75q-0.34375 -0.3125 -0.9375 -0.484375q-0.59375 -0.171875 -1.421875 -0.171875q-1.125 0 -1.78125 0.296875q-0.65625 0.296875 -0.65625 0.875q0 0.421875 0.390625 0.6875q0.390625 0.25 1.421875 0.34375l2.375 0.234375q1.71875 0.15625 2.734375 0.5625q1.03125 0.390625 1.484375 1.078125q0.46875 0.6875 0.46875 1.703125q0 1.265625 -0.75 2.203125q-0.75 0.9375 -2.109375 1.453125q-1.359375 0.515625 -3.171875 0.515625q-1.84375 0 -3.265625 -0.515625q-1.421875 -0.515625 -2.21875 -1.46875q-0.796875 -0.953125 -0.84375 -2.203125zm17.017776 1.328125l-0.890625 -0.296875l5.0625 -6.234375l3.4375 0l-7.953125 9.140625l-2.9375 0l0 -12.3125l3.28125 0l0 9.703125zm1.5625 -1.859375l2.453125 -1.71875l3.828125 6.1875l-3.671875 0l-2.609375 -4.46875zm7.044281 -4.8125l1.65625 0.328125l1.625 -0.328125l0 9.28125l-3.28125 0l0 -9.28125zm1.640625 -0.75q-0.84375 0 -1.375 -0.421875q-0.53125 -0.421875 -0.53125 -1.15625q0 -0.734375 0.53125 -1.15625q0.53125 -0.4375 1.375 -0.4375q0.875 0 1.390625 0.4375q0.53125 0.421875 0.53125 1.15625q0 0.734375 -0.53125 1.15625q-0.515625 0.421875 -1.390625 0.421875zm3.0095062 0.890625l3.2812538 0l0.59375 3.65625l0 5.484375l-3.2656288 0l0 -5.984375l-0.609375 -3.15625zm7.234379 -0.265625q1.3125 0 2.234375 0.53125q0.921875 0.515625 1.40625 1.484375q0.5 0.953125 0.5 2.265625l0 5.125l-3.265625 0l0 -4.640625q0 -1.015625 -0.53125 -1.5625q-0.515625 -0.546875 -1.484375 -0.546875q-0.671875 0 -1.1875 0.296875q-0.5 0.28125 -0.765625 0.8125q-0.265625 0.515625 -0.265625 1.234375l-1.015625 -0.515625q0.1875 -1.46875 0.8125 -2.46875q0.625 -1.0 1.53125 -1.5q0.921875 -0.515625 2.03125 -0.515625z" fill-rule="nonzero"/><path fill="#000000" d="m82.09218 336.95703q0 -0.84375 0.171875 -1.765625q0.171875 -0.921875 0.46875 -1.78125q0.3125 -0.875 0.703125 -1.515625l0.859375 0q-0.40625 0.8125 -0.703125 1.703125q-0.296875 0.875 -0.453125 1.75q-0.15625 0.859375 -0.15625 1.609375q0 0.671875 0.140625 1.390625q0.140625 0.703125 0.421875 1.5q0.296875 0.78125 0.75 1.71875l-0.859375 0q-0.671875 -1.125 -1.015625 -2.296875q-0.328125 -1.171875 -0.328125 -2.3125zm9.634918 -1.34375l-0.8125 0.21875q-0.109375 -0.296875 -0.390625 -0.5625q-0.28125 -0.28125 -0.859375 -0.28125q-0.53125 0 -0.890625 0.25q-0.34375 0.25 -0.34375 0.625q0 0.328125 0.234375 0.53125q0.25 0.1875 0.765625 0.3125l0.859375 0.21875q0.765625 0.1875 1.140625 0.578125q0.390625 0.375 0.390625 0.984375q0 0.5 -0.28125 0.90625q-0.28125 0.390625 -0.796875 0.625q-0.515625 0.21875 -1.1875 0.21875q-0.890625 0 -1.46875 -0.390625q-0.578125 -0.390625 -0.734375 -1.125l0.84375 -0.21875q0.125 0.46875 0.453125 0.703125q0.34375 0.234375 0.90625 0.234375q0.609375 0 0.984375 -0.265625q0.375 -0.265625 0.375 -0.640625q0 -0.609375 -0.875 -0.8125l-0.953125 -0.234375q-0.8125 -0.1875 -1.1875 -0.578125q-0.375 -0.40625 -0.375 -1.0q0 -0.5 0.28125 -0.875q0.28125 -0.375 0.765625 -0.59375q0.484375 -0.21875 1.09375 -0.21875q0.859375 0 1.34375 0.390625q0.5 0.375 0.71875 1.0zm1.7867126 2.375l-0.015625 -1.09375l0.1875 0l2.53125 -2.59375l1.109375 0l-2.703125 2.75l-0.09375 0l-1.015625 0.9375zm-0.828125 2.125l0 -7.75l0.875 0l0 7.75l-0.875 0zm3.671875 0l-2.265625 -2.875l0.640625 -0.625l2.78125 3.5l-1.15625 0zm1.6250305 0l0 -5.8125l0.875 0l0 5.8125l-0.875 0zm0.4375 -6.78125q-0.25 0 -0.4375 -0.171875q-0.1875 -0.1875 -0.1875 -0.4375q0 -0.25 0.1875 -0.421875q0.1875 -0.1875 0.4375 -0.1875q0.265625 0 0.453125 0.1875q0.1875 0.171875 0.1875 0.421875q0 0.25 -0.1875 0.4375q-0.1875 0.171875 -0.453125 0.171875zm2.4667664 3.28125l0 3.5l-0.875 0l0 -5.8125l0.84375 0l0 0.90625l0.09375 0q0.203125 -0.4375 0.609375 -0.703125q0.421875 -0.28125 1.078125 -0.28125q0.59375 0 1.03125 0.25q0.4375 0.234375 0.6875 0.71875q0.25 0.484375 0.25 1.234375l0 3.6875l-0.890625 0l0 -3.625q0 -0.6875 -0.359375 -1.078125q-0.359375 -0.390625 -0.96875 -0.390625q-0.421875 0 -0.765625 0.1875q-0.34375 0.1875 -0.546875 0.546875q-0.1875 0.359375 -0.1875 0.859375zm7.0388184 4.953125q0.453125 -0.9375 0.734375 -1.71875q0.296875 -0.796875 0.4375 -1.5q0.140625 -0.71875 0.140625 -1.390625q0 -0.75 -0.15625 -1.609375q-0.15625 -0.875 -0.453125 -1.75q-0.296875 -0.890625 -0.703125 -1.703125l0.859375 0q0.40625 0.640625 0.703125 1.515625q0.296875 0.859375 0.46875 1.78125q0.171875 0.921875 0.171875 1.765625q0 1.140625 -0.34375 2.3125q-0.328125 1.171875 -1.0 2.296875l-0.859375 0z" fill-rule="nonzero"/><path fill="#d0d1d2" d="m227.1449 243.5623l0 0c0 6.527893 -5.291916 11.819809 -11.819809 11.819809l-126.66153 0c-3.1348114 0 -6.1412277 -1.2453003 -8.357872 -3.4619446c-2.2166443 -2.2166443 -3.4619446 -5.223053 -3.4619446 -8.357864l0 -47.277832c0 -6.527893 5.2919083 -11.819809 11.819817 -11.819809l126.66153 0c6.527893 0 11.819809 5.291916 11.819809 11.819809z" fill-rule="evenodd"/><path fill="#d0d1d2" d="m227.15012 148.06639l0 0c0 4.744644 -3.8462982 8.590942 -8.590942 8.590942l-133.11926 0c-2.2784576 0 -4.4636 -0.90512085 -6.0747147 -2.5162354c-1.6111145 -1.6111145 -2.5162277 -3.7962494 -2.5162277 -6.074707l0 -34.362747c0 -4.744644 3.8462982 -8.590942 8.590942 -8.590942l133.11926 0c4.744644 0 8.590942 3.8462982 8.590942 8.590942z" fill-rule="evenodd"/><path fill="#d0d1d2" d="m227.15709 212.73175l0 0c0 7.9994354 -6.4848175 14.484253 -14.484253 14.484253l-121.33266 0c-3.8414612 0 -7.525589 -1.5260162 -10.241913 -4.24234c-2.7163239 -2.7163239 -4.2423325 -6.4004517 -4.2423325 -10.241913l0 -57.935257c0 -7.99942 6.4848175 -14.484238 14.484245 -14.484238l121.33266 0c7.9994354 0 14.484253 6.4848175 14.484253 14.484238z" fill-rule="evenodd"/><path fill="#d0d1d2" d="m227.1449 172.3044l0 0c0 5.331421 -4.3219757 9.653397 -9.653397 9.653397l-130.99435 0c-2.5602417 0 -5.015625 -1.0170441 -6.825989 -2.8274078c-1.8103638 -1.8103638 -2.8274155 -4.265747 -2.8274155 -6.825989l0 -38.612442c0 -5.331421 4.3219757 -9.653389 9.653404 -9.653389l130.99435 0l0 0c5.331421 0 9.653397 4.321968 9.653397 9.653389z" fill-rule="evenodd"/><path fill="#d0d1d2" d="m130.46233 135.65427l0 0c0 2.4250336 -1.9658966 4.390915 -4.39093 4.390915l-24.734612 0c-1.1645432 0 -2.281395 -0.4626007 -3.1048508 -1.2860718c-0.82346344 -0.8234558 -1.2860718 -1.9403076 -1.2860718 -3.1048431l0 -17.563187c0 -2.4250412 1.9658813 -4.3909225 4.3909225 -4.3909225l24.734612 0l0 0c2.4250336 0 4.39093 1.9658813 4.39093 4.3909225z" fill-rule="evenodd"/><path fill="#d0d1d2" d="m169.99779 190.53856l0 0c0 2.640503 -2.1405487 4.7810516 -4.7810364 4.7810516l-20.966278 0c-1.2680054 0 -2.484085 -0.50372314 -3.3807068 -1.4003296c-0.8966217 -0.8966217 -1.4003448 -2.1127014 -1.4003448 -3.380722l0 -19.123611c0 -2.640503 2.1405487 -4.7810364 4.7810516 -4.7810364l20.966278 0c2.6404877 0 4.7810364 2.1405334 4.7810364 4.7810364z" fill-rule="evenodd"/><path fill="#d0d1d2" d="m107.216545 170.28195l0 0c0 1.8382568 -1.4902039 3.328476 -3.3284683 3.328476l-13.313492 0l0 0c-0.8827667 0 -1.7293777 -0.3506775 -2.3535843 -0.9748993c-0.62420654 -0.62420654 -0.97488403 -1.4708099 -0.97488403 -2.3535767l0 -22.028763c0 -1.8382721 1.4902039 -3.328476 3.3284683 -3.328476l13.313492 0c1.8382645 0 3.3284683 1.4902039 3.3284683 3.328476z" fill-rule="evenodd"/><path fill="#d0d1d2" d="m154.85681 225.61565l0 0c0 1.0268707 -0.832428 1.8592987 -1.8592834 1.8592987l-56.34211 0c-0.4931183 0 -0.96604156 -0.19589233 -1.3147278 -0.5445709c-0.3486786 -0.34869385 -0.5445709 -0.8216095 -0.5445709 -1.3147278l0 -7.4369507c0 -1.0268707 0.8324356 -1.8592987 1.8592987 -1.8592987l56.34211 0l0 0c1.0268555 0 1.8592834 0.832428 1.8592834 1.8592987z" fill-rule="evenodd"/><path fill="#d0d1d2" d="m175.7487 137.37245l0 0c0 1.4761047 -1.1966248 2.6727295 -2.6727295 2.6727295l-53.470192 0c-0.7088547 0 -1.3886719 -0.2815857 -1.8899078 -0.78282166c-0.50123596 -0.50123596 -0.7828293 -1.1810608 -0.7828293 -1.8899078l0 -10.690636c0 -1.4761124 1.1966248 -2.6727371 2.6727371 -2.6727371l53.470192 0l0 0c1.4761047 0 2.6727295 1.1966248 2.6727295 2.6727371z" fill-rule="evenodd"/><path fill="#d0d1d2" d="m98.14325 171.22618l0 0c0 1.3156586 -1.0665588 2.3822174 -2.382225 2.3822174l-9.528603 0l0 0c-0.6318054 0 -1.2377319 -0.25097656 -1.6844864 -0.6977234c-0.44675446 -0.44676208 -0.69773865 -1.0526886 -0.69773865 -1.684494l0 -11.2716675c0 -1.3156586 1.0665588 -2.3822174 2.382225 -2.3822174l9.528603 0c1.3156662 0 2.382225 1.0665588 2.382225 2.3822174z" fill-rule="evenodd"/><path fill="#d0d1d2" d="m125.29942 208.40988l0 0c0 1.47612 -1.1966248 2.6727448 -2.6727371 2.6727448l-28.170982 0c-0.7088547 0 -1.3886795 -0.28160095 -1.8899155 -0.7828369c-0.50123596 -0.5012207 -0.78282166 -1.1810455 -0.78282166 -1.8899078l0 -10.690628c0 -1.4761047 1.1966248 -2.6727295 2.6727371 -2.6727295l28.170982 0c1.4761124 0 2.6727371 1.1966248 2.6727371 2.6727295z" fill-rule="evenodd"/><path fill="#d0d1d2" d="m227.15398 205.86093l0 0c0 2.640503 -2.1405334 4.7810516 -4.7810364 4.7810516l-58.06845 0c-1.2680054 0 -2.484085 -0.5037079 -3.3807068 -1.4003296c-0.8966217 -0.8966217 -1.4003296 -2.1127014 -1.4003296 -3.380722l0 -19.123611c0 -2.6404877 2.1405334 -4.7810364 4.7810364 -4.7810364l58.06845 0c2.640503 0 4.7810364 2.1405487 4.7810364 4.7810364z" fill-rule="evenodd"/><path fill="#d0d1d2" d="m227.15599 162.20493l0 0c0 2.4479675 -1.9844666 4.432434 -4.432419 4.432434l-48.257553 0c-1.1755524 0 -2.3029633 -0.46699524 -3.134201 -1.298233c-0.8312378 -0.8312378 -1.298233 -1.9586487 -1.298233 -3.134201l0 -17.729187c0 -2.4479523 1.9844666 -4.432419 4.432434 -4.432419l48.257553 0l0 0c2.4479523 0 4.432419 1.9844666 4.432419 4.432419z" fill-rule="evenodd"/><path fill="#d0d1d2" d="m227.15709 251.47261l0 0c0 2.1591492 -1.750351 3.9095001 -3.9095001 3.9095001l-63.94507 0c-1.0368652 0 -2.0312653 -0.41189575 -2.7644348 -1.1450653c-0.7331848 -0.7331848 -1.1450653 -1.7275696 -1.1450653 -2.7644348l0 -15.637543c0 -2.1591644 1.7503357 -3.9095001 3.9095001 -3.9095001l63.94507 0c2.1591492 0 3.9095001 1.7503357 3.9095001 3.9095001z" fill-rule="evenodd"/><path fill="#e8c482" d="m211.1449 227.5623l0 0c0 6.527893 -5.291916 11.819809 -11.819809 11.819809l-126.66153 0c-3.1348114 0 -6.1412277 -1.2453003 -8.357872 -3.4619446c-2.2166443 -2.2166443 -3.4619408 -5.223053 -3.4619408 -8.357864l0 -47.277832c0 -6.527893 5.2919044 -11.819809 11.819813 -11.819809l126.66153 0c6.527893 0 11.819809 5.291916 11.819809 11.819809z" fill-rule="evenodd"/><path fill="#fff8eb" d="m211.15012 132.06639l0 0c0 4.744644 -3.8462982 8.590942 -8.590942 8.590942l-133.11926 0c-2.2784576 0 -4.4636 -0.90512085 -6.0747147 -2.5162354c-1.6111145 -1.6111145 -2.5162277 -3.7962494 -2.5162277 -6.074707l0 -34.362747c0 -4.744644 3.8462982 -8.590942 8.590942 -8.590942l133.11926 0c4.744644 0 8.590942 3.8462982 8.590942 8.590942z" fill-rule="evenodd"/><path fill="#ffe7bc" d="m211.15709 196.73175l0 0c0 7.9994354 -6.4848175 14.484253 -14.484253 14.484253l-121.33266 0c-3.8414612 0 -7.525589 -1.5260162 -10.241913 -4.24234c-2.71632 -2.7163239 -4.2423363 -6.4004517 -4.2423363 -10.241913l0 -57.935257c0 -7.99942 6.4848213 -14.484245 14.484249 -14.484245l121.33266 0c7.9994354 0 14.484253 6.484825 14.484253 14.484245z" fill-rule="evenodd"/><path fill="#fdf0d9" d="m211.1449 156.3044l0 0c0 5.331421 -4.3219757 9.653397 -9.653397 9.653397l-130.99435 0c-2.5602417 0 -5.015625 -1.0170441 -6.825985 -2.8274078c-1.8103638 -1.8103638 -2.8274155 -4.265747 -2.8274155 -6.825989l0 -38.612434c0 -5.3314285 4.321972 -9.653397 9.6534 -9.653397l130.99435 0l0 0c5.331421 0 9.653397 4.321968 9.653397 9.653397z" fill-rule="evenodd"/><path fill="#fdf0d9" d="m114.46232 119.65426l0 0c0 2.4250412 -1.9658813 4.39093 -4.3909225 4.39093l-24.734612 0c-1.1645432 0 -2.281395 -0.46261597 -3.1048508 -1.2860718c-0.82346344 -0.82346344 -1.2860718 -1.9403076 -1.2860718 -3.1048584l0 -17.563179c0 -2.4250412 1.9658813 -4.3909225 4.3909225 -4.3909225l24.734612 0l0 0c2.4250412 0 4.3909225 1.9658813 4.3909225 4.3909225z" fill-rule="evenodd"/><path fill="#ffe7bc" d="m153.99779 174.53856l0 0c0 2.640503 -2.1405487 4.7810516 -4.7810364 4.7810516l-20.966278 0c-1.268013 0 -2.4840927 -0.50372314 -3.3807068 -1.4003296c-0.8966217 -0.8966217 -1.4003372 -2.1127014 -1.4003372 -3.380722l0 -19.123611c0 -2.640503 2.1405487 -4.7810364 4.781044 -4.7810364l20.966278 0c2.6404877 0 4.7810364 2.1405334 4.7810364 4.7810364z" fill-rule="evenodd"/><path fill="#fff8eb" d="m91.216545 154.28195l0 0c0 1.8382568 -1.4902039 3.328476 -3.3284683 3.328476l-13.313492 0l0 0c-0.8827667 0 -1.7293777 -0.3506775 -2.3535843 -0.9748993c-0.62420654 -0.62420654 -0.97488403 -1.4708099 -0.97488403 -2.3535767l0 -22.028763c0 -1.8382721 1.4902039 -3.328476 3.3284683 -3.328476l13.313492 0c1.8382645 0 3.3284683 1.4902039 3.3284683 3.328476z" fill-rule="evenodd"/><path fill="#e8c482" d="m138.85681 209.61565l0 0c0 1.0268707 -0.832428 1.8592987 -1.8592834 1.8592987l-56.34211 0c-0.4931183 0 -0.96604156 -0.19589233 -1.3147278 -0.5445709c-0.3486786 -0.34869385 -0.5445709 -0.8216095 -0.5445709 -1.3147278l0 -7.4369507c0 -1.0268707 0.8324356 -1.8592987 1.8592987 -1.8592987l56.34211 0l0 0c1.0268555 0 1.8592834 0.832428 1.8592834 1.8592987z" fill-rule="evenodd"/><path fill="#fff8eb" d="m159.7487 121.37245l0 0c0 1.4761124 -1.1966248 2.6727371 -2.6727295 2.6727371l-53.470192 0c-0.7088547 0 -1.3886719 -0.28159332 -1.8899078 -0.7828293c-0.50123596 -0.50123596 -0.7828293 -1.1810532 -0.7828293 -1.8899078l0 -10.690636c0 -1.4761124 1.1966248 -2.6727371 2.6727371 -2.6727371l53.470192 0l0 0c1.4761047 0 2.6727295 1.1966248 2.6727295 2.6727371z" fill-rule="evenodd"/><path fill="#ffe7bc" d="m82.14325 155.22618l0 0c0 1.3156586 -1.0665588 2.3822174 -2.382225 2.3822174l-9.528603 0l0 0c-0.6318054 0 -1.2377319 -0.25097656 -1.6844864 -0.6977234c-0.44675446 -0.44676208 -0.69773865 -1.0526886 -0.69773865 -1.684494l0 -11.2716675c0 -1.3156586 1.0665588 -2.3822174 2.382225 -2.3822174l9.528603 0c1.3156662 0 2.382225 1.0665588 2.382225 2.3822174z" fill-rule="evenodd"/><path fill="#e8c482" d="m109.29942 192.40988l0 0c0 1.47612 -1.1966248 2.6727448 -2.6727371 2.6727448l-28.170982 0c-0.7088547 0 -1.3886795 -0.28160095 -1.8899155 -0.7828369c-0.50123596 -0.5012207 -0.78282166 -1.1810455 -0.78282166 -1.8899078l0 -10.690628c0 -1.4761047 1.1966248 -2.6727295 2.6727371 -2.6727295l28.170982 0c1.4761124 0 2.6727371 1.1966248 2.6727371 2.6727295z" fill-rule="evenodd"/><path fill="#fdf0d9" d="m211.15398 189.86093l0 0c0 2.640503 -2.1405334 4.7810516 -4.7810364 4.7810516l-58.06845 0c-1.2680054 0 -2.484085 -0.5037079 -3.3807068 -1.4003296c-0.8966217 -0.8966217 -1.4003296 -2.1127014 -1.4003296 -3.380722l0 -19.123611c0 -2.6404877 2.1405334 -4.7810364 4.7810364 -4.7810364l58.06845 0c2.640503 0 4.7810364 2.1405487 4.7810364 4.7810364z" fill-rule="evenodd"/><path fill="#fff8eb" d="m211.15599 146.20493l0 0c0 2.4479675 -1.9844666 4.432434 -4.432419 4.432434l-48.257553 0c-1.1755524 0 -2.3029633 -0.46699524 -3.134201 -1.298233c-0.8312378 -0.8312378 -1.298233 -1.9586487 -1.298233 -3.134201l0 -17.729187c0 -2.44796 1.9844666 -4.4324265 4.432434 -4.4324265l48.257553 0l0 0c2.4479523 0 4.432419 1.9844666 4.432419 4.4324265z" fill-rule="evenodd"/><path fill="#ffe7bc" d="m211.15709 235.47261l0 0c0 2.1591492 -1.750351 3.9095001 -3.9095001 3.9095001l-63.94507 0c-1.0368652 0 -2.0312653 -0.41189575 -2.7644348 -1.1450653c-0.7331848 -0.7331848 -1.1450653 -1.7275696 -1.1450653 -2.7644348l0 -15.637543c0 -2.1591644 1.7503357 -3.9095001 3.9095001 -3.9095001l63.94507 0c2.1591492 0 3.9095001 1.7503357 3.9095001 3.9095001z" fill-rule="evenodd"/></g></svg>