<svg version="1.1" viewBox="0.0 0.0 288.0 384.0" fill="none" stroke="none" stroke-linecap="square" stroke-miterlimit="10" xmlns:xlink="http://www.w3.org/1999/xlink" xmlns="http://www.w3.org/2000/svg"><clipPath id="g3a72db97a13_0_1375.0"><path d="m0 0l288.0 0l0 384.0l-288.0 0l0 -384.0z" clip-rule="nonzero"/></clipPath><g clip-path="url(#g3a72db97a13_0_1375.0)"><path fill="#161d25" d="m0 0l288.0 0l0 384.0l-288.0 0z" fill-rule="evenodd"/><path fill="#51de18" d="m5.7007875 34.135216l0 0c0 -9.966135 8.079147 -18.045282 18.04528 -18.045282l240.50787 0c4.7858887 0 9.375793 1.9011936 12.759949 5.2853394c3.3841248 3.3841476 5.2853394 7.9740353 5.2853394 12.759943l0 324.2244c0 9.9661255 -8.079163 18.045288 -18.045288 18.045288l-240.50787 0l0 0c-9.966134 0 -18.04528 -8.079163 -18.04528 -18.045288z" fill-rule="evenodd"/><path stroke="#51de18" stroke-width="4.0" stroke-linejoin="round" stroke-linecap="butt" d="m5.7007875 34.135216l0 0c0 -9.966135 8.079147 -18.045282 18.04528 -18.045282l240.50787 0c4.7858887 0 9.375793 1.9011936 12.759949 5.2853394c3.3841248 3.3841476 5.2853394 7.9740353 5.2853394 12.759943l0 324.2244c0 9.9661255 -8.079163 18.045288 -18.045288 18.045288l-240.50787 0l0 0c-9.966134 0 -18.04528 -8.079163 -18.04528 -18.045288z" fill-rule="evenodd"/><path fill="#1f5d07" d="m5.7007875 25.639769l0 0c0 -9.966133 8.079147 -18.04528 18.04528 -18.04528l240.50787 0c4.7858887 0 9.375793 1.9011936 12.759949 5.2853403c3.3841248 3.3841467 5.2853394 7.9740343 5.2853394 12.75994l0 324.2244c0 9.9661255 -8.079163 18.045288 -18.045288 18.045288l-240.50787 0l0 0c-9.966134 0 -18.04528 -8.079163 -18.04528 -18.045288z" fill-rule="evenodd"/><path stroke="#51de18" stroke-width="4.0" stroke-linejoin="round" stroke-linecap="butt" d="m5.7007875 25.639769l0 0c0 -9.966133 8.079147 -18.04528 18.04528 -18.04528l240.50787 0c4.7858887 0 9.375793 1.9011936 12.759949 5.2853403c3.3841248 3.3841467 5.2853394 7.9740343 5.2853394 12.75994l0 324.2244c0 9.9661255 -8.079163 18.045288 -18.045288 18.045288l-240.50787 0l0 0c-9.966134 0 -18.04528 -8.079163 -18.04528 -18.045288z" fill-rule="evenodd"/><path fill="#000000" fill-opacity="0.0" d="m21.700787 315.7533l266.29922 0l0 38.771637l-266.29922 0z" fill-rule="evenodd"/><path fill="#ffffff" d="m31.278912 336.17578l3.375 0q0.078125 0.5 0.453125 0.875q0.390625 0.359375 1.03125 0.5625q0.65625 0.203125 1.53125 0.203125q1.21875 0 1.921875 -0.3125q0.703125 -0.3125 0.703125 -0.921875q0 -0.46875 -0.40625 -0.71875q-0.390625 -0.265625 -1.53125 -0.375l-2.234375 -0.203125q-2.484375 -0.234375 -3.609375 -1.125q-1.109375 -0.90625 -1.109375 -2.453125q0 -1.234375 0.71875 -2.09375q0.734375 -0.875 2.046875 -1.3125q1.328125 -0.4375 3.09375 -0.4375q1.71875 0 3.0625 0.484375q1.34375 0.484375 2.140625 1.390625q0.796875 0.890625 0.859375 2.078125l-3.359375 0q-0.0625 -0.4375 -0.40625 -0.75q-0.34375 -0.3125 -0.9375 -0.484375q-0.59375 -0.171875 -1.421875 -0.171875q-1.125 0 -1.78125 0.296875q-0.65625 0.296875 -0.65625 0.875q0 0.421875 0.390625 0.6875q0.390625 0.25 1.421875 0.34375l2.375 0.234375q1.71875 0.15625 2.734375 0.5625q1.03125 0.390625 1.484375 1.078125q0.46875 0.6875 0.46875 1.703125q0 1.265625 -0.75 2.203125q-0.75 0.9375 -2.109375 1.453125q-1.359375 0.515625 -3.171875 0.515625q-1.84375 0 -3.265625 -0.515625q-1.421875 -0.515625 -2.21875 -1.46875q-0.796875 -0.953125 -0.84375 -2.203125zm17.017776 1.328125l-0.890625 -0.296875l5.0625 -6.234375l3.4375 0l-7.953125 9.140625l-2.9375 0l0 -12.3125l3.28125 0l0 9.703125zm1.5625 -1.859375l2.453125 -1.71875l3.828125 6.1875l-3.671875 0l-2.609375 -4.46875zm10.981781 4.71875q-1.28125 0 -2.1875 -0.515625q-0.890625 -0.53125 -1.375 -1.5q-0.484375 -0.96875 -0.484375 -2.265625l0 -5.109375l3.265625 0l0 4.640625q0 1.015625 0.5 1.5625q0.5 0.53125 1.421875 0.53125q0.6875 0 1.140625 -0.265625q0.46875 -0.28125 0.71875 -0.8125q0.2656288 -0.53125 0.2656288 -1.265625l1.015625 0.53125q-0.1875 1.453125 -0.796875 2.453125q-0.6093788 1.0 -1.5156288 1.515625q-0.890625 0.5 -1.96875 0.5zm3.8593788 -0.25l-0.59375 -3.65625l0 -5.484375l3.265625 0l0 5.984375l0.59375 3.15625l-3.265625 0zm4.635147 -12.3125l3.28125 0l0 12.3125l-3.28125 0l0 -12.3125zm5.072006 0l3.28125 0l0 12.3125l-3.28125 0l0 -12.3125z" fill-rule="nonzero"/><path fill="#ffffff" d="m86.97218 336.95703q0 -0.84375 0.171875 -1.765625q0.171875 -0.921875 0.46875 -1.78125q0.3125 -0.875 0.703125 -1.515625l0.859375 0q-0.40625 0.8125 -0.703125 1.703125q-0.296875 0.875 -0.453125 1.75q-0.15625 0.859375 -0.15625 1.609375q0 0.671875 0.140625 1.390625q0.140625 0.703125 0.421875 1.5q0.296875 0.78125 0.75 1.71875l-0.859375 0q-0.671875 -1.125 -1.015625 -2.296875q-0.328125 -1.171875 -0.328125 -2.3125zm9.634918 -1.34375l-0.8125 0.21875q-0.109375 -0.296875 -0.390625 -0.5625q-0.28125 -0.28125 -0.859375 -0.28125q-0.53125 0 -0.890625 0.25q-0.34375 0.25 -0.34375 0.625q0 0.328125 0.234375 0.53125q0.25 0.1875 0.765625 0.3125l0.859375 0.21875q0.765625 0.1875 1.140625 0.578125q0.390625 0.375 0.390625 0.984375q0 0.5 -0.28125 0.90625q-0.28125 0.390625 -0.796875 0.625q-0.515625 0.21875 -1.1875 0.21875q-0.890625 0 -1.46875 -0.390625q-0.578125 -0.390625 -0.734375 -1.125l0.84375 -0.21875q0.125 0.46875 0.453125 0.703125q0.34375 0.234375 0.90625 0.234375q0.609375 0 0.984375 -0.265625q0.375 -0.265625 0.375 -0.640625q0 -0.609375 -0.875 -0.8125l-0.953125 -0.234375q-0.8125 -0.1875 -1.1875 -0.578125q-0.375 -0.40625 -0.375 -1.0q0 -0.5 0.28125 -0.875q0.28125 -0.375 0.765625 -0.59375q0.484375 -0.21875 1.09375 -0.21875q0.859375 0 1.34375 0.390625q0.5 0.375 0.71875 1.0zm1.7867126 2.375l-0.015625 -1.09375l0.1875 0l2.53125 -2.59375l1.109375 0l-2.703125 2.75l-0.09375 0l-1.015625 0.9375zm-0.828125 2.125l0 -7.75l0.875 0l0 7.75l-0.875 0zm3.671875 0l-2.265625 -2.875l0.640625 -0.625l2.78125 3.5l-1.15625 0zm5.2812805 -2.375l0 -3.4375l0.890625 0l0 5.8125l-0.890625 0l0 -0.984375l-0.0625 0q-0.203125 0.4375 -0.640625 0.75q-0.421875 0.3125 -1.078125 0.3125q-0.546875 0 -0.96875 -0.234375q-0.421875 -0.25 -0.671875 -0.734375q-0.234375 -0.484375 -0.234375 -1.234375l0 -3.6875l0.875 0l0 3.640625q0 0.625 0.359375 1.015625q0.375 0.375 0.921875 0.359375q0.328125 0 0.671875 -0.15625q0.359375 -0.171875 0.59375 -0.515625q0.234375 -0.359375 0.234375 -0.90625zm2.9111023 -1.125l0 3.5l-0.875 0l0 -7.75l0.875 0l0 2.84375l0.09375 0q0.203125 -0.453125 0.609375 -0.71875q0.40625 -0.265625 1.09375 -0.265625q0.59375 0 1.03125 0.234375q0.453125 0.234375 0.703125 0.734375q0.25 0.484375 0.25 1.234375l0 3.6875l-0.890625 0l0 -3.625q0 -0.703125 -0.359375 -1.078125q-0.359375 -0.390625 -1.0 -0.390625q-0.4375 0 -0.78125 0.1875q-0.34375 0.1875 -0.546875 0.546875q-0.203125 0.359375 -0.203125 0.859375zm5.8068237 -4.25l0 7.75l-0.875 0l0 -7.75l0.875 0zm3.3237 9.203125q0.453125 -0.9375 0.734375 -1.71875q0.296875 -0.796875 0.4375 -1.5q0.140625 -0.71875 0.140625 -1.390625q0 -0.75 -0.15625 -1.609375q-0.15625 -0.875 -0.453125 -1.75q-0.296875 -0.890625 -0.703125 -1.703125l0.859375 0q0.40625 0.640625 0.703125 1.515625q0.296875 0.859375 0.46875 1.78125q0.171875 0.921875 0.171875 1.765625q0 1.140625 -0.34375 2.3125q-0.328125 1.171875 -1.0 2.296875l-0.859375 0z" fill-rule="nonzero"/><path fill="#51de18" d="m109.03755 111.83224l0 0c0 -3.270668 2.6514053 -5.9220734 5.922081 -5.9220734l74.08103 0c1.5706329 0 3.0769348 0.6239319 4.1875305 1.7345352c1.110611 1.1106033 1.7345428 2.6169128 1.7345428 4.187538l0 23.687584c0 3.2706757 -2.6513977 5.9220734 -5.9220734 5.9220734l-74.08103 0c-3.2706757 0 -5.922081 -2.6513977 -5.922081 -5.9220734z" fill-rule="evenodd"/><path fill="#51de18" d="m99.65586 203.41l0 0c0 -3.0358887 2.4610748 -5.4969635 5.4969635 -5.4969635l21.987206 0l0 0c1.4578857 0 2.8560638 0.5791321 3.8869324 1.6100159c1.0308838 1.0308838 1.6100311 2.429062 1.6100311 3.8869476l0 24.537796c0 3.0358887 -2.4610748 5.4969635 -5.4969635 5.4969635l-21.987206 0c-3.0358887 0 -5.4969635 -2.4610748 -5.4969635 -5.4969635z" fill-rule="evenodd"/><path fill="#51de18" d="m171.3633 203.41l0 0c0 -3.0358887 2.4610748 -5.4969635 5.4969635 -5.4969635l21.987198 0l0 0c1.4578857 0 2.8560638 0.5791321 3.8869476 1.6100159c1.0308838 1.0308838 1.6100159 2.429062 1.6100159 3.8869476l0 24.537796c0 3.0358887 -2.4610748 5.4969635 -5.4969635 5.4969635l-21.987198 0c-3.0358887 0 -5.4969635 -2.4610748 -5.4969635 -5.4969635z" fill-rule="evenodd"/><path fill="#51de18" d="m121.02036 180.34099l0 0c0 -5.7033386 4.6234665 -10.326813 10.326805 -10.326813l41.305954 0l0 0c2.7388458 0 5.365509 1.0879974 7.3021545 3.0246582c1.9366608 1.9366455 3.0246582 4.5633087 3.0246582 7.3021545l0 55.422684c0 5.7033386 -4.623474 10.326813 -10.326813 10.326813l-41.305954 0c-5.7033386 0 -10.326805 -4.623474 -10.326805 -10.326813z" fill-rule="evenodd"/><path fill="#51de18" d="m93.00156 130.92612l0 0c0 -5.954384 4.8269806 -10.781372 10.781372 -10.781372l96.43443 0c2.8594055 0 5.6016846 1.1358948 7.623581 3.1577911c2.0218964 2.021904 3.1577911 4.7641907 3.1577911 7.623581l0 43.124207c0 5.9543915 -4.8269806 10.781372 -10.781372 10.781372l-96.43443 0c-5.9543915 0 -10.781372 -4.8269806 -10.781372 -10.781372z" fill-rule="evenodd"/><path fill="#51de18" d="m142.57426 178.17448l0 0c0 -1.7352905 1.406723 -3.1420288 3.1420135 -3.1420288l12.567734 0l0 0c0.833313 0 1.6324921 0.33103943 2.2217407 0.9202881c0.58924866 0.5892334 0.9202728 1.3884277 0.9202728 2.2217407l0 15.396118c0 1.7352905 -1.406723 3.1420288 -3.1420135 3.1420288l-12.567734 0c-1.7352905 0 -3.1420135 -1.4067383 -3.1420135 -3.1420288z" fill-rule="evenodd"/><path fill="#51de18" d="m121.018745 208.98256l0 0c0 -1.4261322 1.1560974 -2.5822296 2.582222 -2.5822296l10.328598 0l0 0c0.684845 0 1.3416443 0.27204895 1.8259125 0.75631714c0.48425293 0.48425293 0.75631714 1.1410522 0.75631714 1.8259125l0 10.328598c0 1.426117 -1.1561127 2.5822144 -2.5822296 2.5822144l-10.328598 0c-1.4261246 0 -2.582222 -1.1560974 -2.582222 -2.5822144z" fill-rule="evenodd"/><path fill="#51de18" d="m136.50864 208.98256l0 0c0 -1.4261322 1.1560974 -2.5822296 2.5822296 -2.5822296l10.328598 0l0 0c0.684845 0 1.3416443 0.27204895 1.8258972 0.75631714c0.4842682 0.48425293 0.75631714 1.1410522 0.75631714 1.8259125l0 10.328598c0 1.426117 -1.1560974 2.5822144 -2.5822144 2.5822144l-10.328598 0c-1.4261322 0 -2.5822296 -1.1560974 -2.5822296 -2.5822144z" fill-rule="evenodd"/><path fill="#51de18" d="m151.99852 208.98256l0 0c0 -1.4261322 1.1561127 -2.5822296 2.5822296 -2.5822296l10.328598 0l0 0c0.684845 0 1.3416443 0.27204895 1.8259125 0.75631714c0.48425293 0.48425293 0.75631714 1.1410522 0.75631714 1.8259125l0 10.328598c0 1.426117 -1.1560974 2.5822144 -2.5822296 2.5822144l-10.328598 0c-1.426117 0 -2.5822296 -1.1560974 -2.5822296 -2.5822144z" fill-rule="evenodd"/><path fill="#51de18" d="m167.48842 208.98256l0 0c0 -1.4261322 1.1560974 -2.5822296 2.5822296 -2.5822296l10.328598 0l0 0c0.684845 0 1.3416443 0.27204895 1.8259125 0.75631714c0.48425293 0.48425293 0.7563019 1.1410522 0.7563019 1.8259125l0 10.328598c0 1.426117 -1.1560974 2.5822144 -2.5822144 2.5822144l-10.328598 0c-1.4261322 0 -2.5822296 -1.1560974 -2.5822296 -2.5822144z" fill-rule="evenodd"/><path fill="#51de18" d="m121.01927 220.53395l0 0c0 -1.4261322 1.1560974 -2.5822296 2.582222 -2.5822296l10.32859 0l0 0c0.6848602 0 1.3416595 0.27204895 1.8259125 0.75631714c0.4842682 0.48425293 0.75631714 1.1410522 0.75631714 1.8259125l0 10.328598c0 1.426117 -1.1560974 2.5822144 -2.5822296 2.5822144l-10.32859 0c-1.4261246 0 -2.582222 -1.1560974 -2.582222 -2.5822144z" fill-rule="evenodd"/><path fill="#51de18" d="m136.50916 220.53395l0 0c0 -1.4261322 1.1561127 -2.5822296 2.5822296 -2.5822296l10.328598 0l0 0c0.684845 0 1.3416443 0.27204895 1.8259125 0.75631714c0.48425293 0.48425293 0.75631714 1.1410522 0.75631714 1.8259125l0 10.328598c0 1.426117 -1.1561127 2.5822144 -2.5822296 2.5822144l-10.328598 0c-1.426117 0 -2.5822296 -1.1560974 -2.5822296 -2.5822144z" fill-rule="evenodd"/><path fill="#51de18" d="m151.99905 220.53395l0 0c0 -1.4261322 1.1560974 -2.5822296 2.5822296 -2.5822296l10.328598 0l0 0c0.684845 0 1.3416443 0.27204895 1.8258972 0.75631714c0.4842682 0.48425293 0.75631714 1.1410522 0.75631714 1.8259125l0 10.328598c0 1.426117 -1.1560974 2.5822144 -2.5822144 2.5822144l-10.328598 0c-1.4261322 0 -2.5822296 -1.1560974 -2.5822296 -2.5822144z" fill-rule="evenodd"/><path fill="#51de18" d="m167.48894 220.53395l0 0c0 -1.4261322 1.1561127 -2.5822296 2.5822296 -2.5822296l10.328598 0l0 0c0.684845 0 1.3416443 0.27204895 1.8259125 0.75631714c0.4842682 0.48425293 0.75631714 1.1410522 0.75631714 1.8259125l0 10.328598c0 1.426117 -1.1560974 2.5822144 -2.5822296 2.5822144l-10.328598 0c-1.426117 0 -2.5822296 -1.1560974 -2.5822296 -2.5822144z" fill-rule="evenodd"/><path fill="#51de18" d="m109.03755 142.31221l0 0c0 -3.2706604 2.6514053 -5.9220734 5.922081 -5.9220734l24.028511 0l0 0c1.5706329 0 3.0769348 0.6239319 4.1875305 1.7345428c1.110611 1.1105957 1.7345428 2.6168976 1.7345428 4.1875305l0 23.687592c0 3.2706757 -2.651413 5.9220734 -5.9220734 5.9220734l-24.028511 0c-3.2706757 0 -5.922081 -2.6513977 -5.922081 -5.9220734z" fill-rule="evenodd"/><path fill="#51de18" d="m135.45065 137.94643l0 0c0 -0.87171936 0.70666504 -1.5783844 1.5783844 -1.5783844l6.313324 0l0 0c0.41860962 0 0.82006836 0.16629028 1.1160736 0.46229553c0.29600525 0.29600525 0.46229553 0.69747925 0.46229553 1.1160889l0 32.37497c0 0.87171936 -0.70666504 1.5783844 -1.5783691 1.5783844l-6.313324 0c-0.87171936 0 -1.5783844 -0.70666504 -1.5783844 -1.5783844z" fill-rule="evenodd"/><path fill="#51de18" d="m143.34236 162.53282l0 0c0.8717041 0 1.5783691 0.70666504 1.5783691 1.5783691l0 6.313324l0 0c0 0.41860962 -0.16629028 0.8200836 -0.46229553 1.1160889c-0.29600525 0.29600525 -0.697464 0.46229553 -1.1160736 0.46229553l-23.877167 0c-0.87171173 0 -1.5783768 -0.70666504 -1.5783768 -1.5783844l0 -6.313324c0 -0.8717041 0.70666504 -1.5783691 1.5783768 -1.5783691z" fill-rule="evenodd"/><path fill="#51de18" d="m159.07956 142.31221l0 0c0 -3.2706604 2.6513977 -5.9220734 5.9220734 -5.9220734l24.028503 0l0 0c1.5706329 0 3.0769348 0.6239319 4.187546 1.7345428c1.1105957 1.1105957 1.7345276 2.6168976 1.7345276 4.1875305l0 23.687592c0 3.2706757 -2.6513977 5.9220734 -5.9220734 5.9220734l-24.028503 0c-3.2706757 0 -5.9220734 -2.6513977 -5.9220734 -5.9220734z" fill-rule="evenodd"/><path fill="#51de18" d="m185.49266 137.94643l0 0c0 -0.87171936 0.70666504 -1.5783844 1.5783691 -1.5783844l6.313324 0l0 0c0.41860962 0 0.8200836 0.16629028 1.1160889 0.46229553c0.29600525 0.29600525 0.46229553 0.69747925 0.46229553 1.1160889l0 32.37497c0 0.87171936 -0.70666504 1.5783844 -1.5783844 1.5783844l-6.313324 0c-0.8717041 0 -1.5783691 -0.70666504 -1.5783691 -1.5783844z" fill-rule="evenodd"/><path fill="#51de18" d="m193.38435 162.53282l0 0c0.87171936 0 1.5783844 0.70666504 1.5783844 1.5783691l0 6.313324l0 0c0 0.41860962 -0.16629028 0.8200836 -0.46229553 1.1160889c-0.29600525 0.29600525 -0.69747925 0.46229553 -1.1160889 0.46229553l-23.877151 0c-0.87171936 0 -1.5783844 -0.70666504 -1.5783844 -1.5783844l0 -6.313324c0 -0.8717041 0.70666504 -1.5783691 1.5783844 -1.5783691z" fill-rule="evenodd"/><path fill="#51de18" d="m176.56558 171.51057l0 0c0 -3.2706757 2.6513977 -5.9220734 5.9220734 -5.9220734l31.238388 0c1.5706329 0 3.0769348 0.6239319 4.187546 1.7345276c1.1105957 1.110611 1.7345276 2.6169128 1.7345276 4.187546l0 23.687592c0 3.2706604 -2.6513977 5.9220734 -5.9220734 5.9220734l-31.238388 0l0 0c-3.2706757 0 -5.9220734 -2.651413 -5.9220734 -5.9220734z" fill-rule="evenodd"/><path fill="#51de18" d="m179.77274 171.37793l0 0c0 -1.4261322 1.1560974 -2.5822296 2.5822144 -2.5822296l10.328598 0l0 0c0.6848602 0 1.3416595 0.27204895 1.8259125 0.75631714c0.4842682 0.48425293 0.75631714 1.1410522 0.75631714 1.8259125l0 10.328583c0 1.4261322 -1.1560974 2.5822296 -2.5822296 2.5822296l-10.328598 0c-1.426117 0 -2.5822144 -1.1560974 -2.5822144 -2.5822296z" fill-rule="evenodd"/><path fill="#51de18" d="m84.352264 171.51057l0 0c0 -3.2706757 2.6513977 -5.9220734 5.9220734 -5.9220734l31.238396 0c1.5706329 0 3.0769348 0.6239319 4.187538 1.7345276c1.1106033 1.110611 1.7345352 2.6169128 1.7345352 4.187546l0 23.687592c0 3.2706604 -2.6514053 5.9220734 -5.9220734 5.9220734l-31.238396 0l0 0c-3.2706757 0 -5.9220734 -2.651413 -5.9220734 -5.9220734z" fill-rule="evenodd"/><path fill="#51de18" d="m90.76662 174.58513l0 0c0 -1.4261322 1.156105 -2.5822296 2.5822296 -2.5822296l10.32859 0l0 0c0.6848526 0 1.3416519 0.27204895 1.8259125 0.75631714c0.48426056 0.48425293 0.75631714 1.1410522 0.75631714 1.8259125l0 10.328598c0 1.426117 -1.156105 2.5822144 -2.5822296 2.5822144l-10.32859 0c-1.4261246 0 -2.5822296 -1.1560974 -2.5822296 -2.5822144z" fill-rule="evenodd"/><path fill="#51de18" d="m100.09675 131.58676l0 0c0 -1.7120361 1.387886 -3.0999298 3.0999374 -3.0999298l12.399361 0l0 0c0.8221588 0 1.6106339 0.32659912 2.191986 0.907959c0.58135223 0.5813446 0.90795135 1.3698273 0.90795135 2.1919708l0 16.477814c0 1.7120514 -1.387886 3.099945 -3.0999374 3.099945l-12.399361 0c-1.7120514 0 -3.0999374 -1.3878937 -3.0999374 -3.099945z" fill-rule="evenodd"/><path fill="#fff8eb" d="m93.03755 95.83224l0 0c0 -3.270668 2.6514053 -5.9220734 5.922081 -5.9220734l74.08103 0c1.5706329 0 3.0769348 0.6239319 4.1875305 1.7345352c1.110611 1.1106033 1.7345428 2.6169128 1.7345428 4.187538l0 23.687592c0 3.270668 -2.6513977 5.9220734 -5.9220734 5.9220734l-74.08103 0c-3.2706757 0 -5.922081 -2.6514053 -5.922081 -5.9220734z" fill-rule="evenodd"/><path fill="#eacea7" d="m83.65586 187.41l0 0c0 -3.0358887 2.4610748 -5.4969635 5.4969635 -5.4969635l21.987206 0l0 0c1.4578857 0 2.8560562 0.5791321 3.88694 1.6100159c1.0308762 1.0308838 1.6100235 2.429062 1.6100235 3.8869476l0 24.537796c0 3.0358887 -2.4610748 5.4969635 -5.4969635 5.4969635l-21.987206 0c-3.0358887 0 -5.4969635 -2.4610748 -5.4969635 -5.4969635z" fill-rule="evenodd"/><path fill="#eacea7" d="m155.3633 187.41l0 0c0 -3.0358887 2.4610748 -5.4969635 5.4969635 -5.4969635l21.987198 0l0 0c1.4578857 0 2.8560638 0.5791321 3.8869476 1.6100159c1.0308838 1.0308838 1.6100159 2.429062 1.6100159 3.8869476l0 24.537796c0 3.0358887 -2.4610748 5.4969635 -5.4969635 5.4969635l-21.987198 0c-3.0358887 0 -5.4969635 -2.4610748 -5.4969635 -5.4969635z" fill-rule="evenodd"/><path fill="#f1dfc6" d="m105.02036 164.34099l0 0c0 -5.7033386 4.6234665 -10.326813 10.3267975 -10.326813l41.30596 0l0 0c2.7388458 0 5.365509 1.0879974 7.3021545 3.0246582c1.9366608 1.9366455 3.0246582 4.5633087 3.0246582 7.3021545l0 55.422684c0 5.7033386 -4.623474 10.326813 -10.326813 10.326813l-41.30596 0c-5.703331 0 -10.3267975 -4.623474 -10.3267975 -10.326813z" fill-rule="evenodd"/><path fill="#fdf0d9" d="m77.00156 114.92612l0 0c0 -5.954384 4.8269806 -10.781372 10.781372 -10.781372l96.43443 0c2.8594055 0 5.6016846 1.1358948 7.623581 3.1577911c2.0218964 2.021904 3.1577911 4.764183 3.1577911 7.623581l0 43.124207c0 5.9543915 -4.8269806 10.781372 -10.781372 10.781372l-96.43443 0c-5.9543915 0 -10.781372 -4.8269806 -10.781372 -10.781372z" fill-rule="evenodd"/><path fill="#f1dfc6" d="m126.57426 162.17448l0 0c0 -1.7352905 1.4067383 -3.1420288 3.1420212 -3.1420288l12.567734 0l0 0c0.833313 0 1.6324921 0.33103943 2.2217407 0.9202881c0.58924866 0.5892334 0.9202728 1.3884277 0.9202728 2.2217407l0 15.396118c0 1.7352905 -1.406723 3.1420288 -3.1420135 3.1420288l-12.567734 0c-1.7352829 0 -3.1420212 -1.4067383 -3.1420212 -3.1420288z" fill-rule="evenodd"/><path fill="#fdf0d9" d="m105.018745 192.98256l0 0c0 -1.4261322 1.1560974 -2.5822296 2.582222 -2.5822296l10.328598 0l0 0c0.684845 0 1.3416443 0.27204895 1.8259125 0.75631714c0.48426056 0.48425293 0.75631714 1.1410522 0.75631714 1.8259125l0 10.328598c0 1.426117 -1.156105 2.5822144 -2.5822296 2.5822144l-10.328598 0c-1.4261246 0 -2.582222 -1.1560974 -2.582222 -2.5822144z" fill-rule="evenodd"/><path fill="#fdf0d9" d="m120.50864 192.98256l0 0c0 -1.4261322 1.1560974 -2.5822296 2.582222 -2.5822296l10.328606 0l0 0c0.684845 0 1.3416443 0.27204895 1.8258972 0.75631714c0.4842682 0.48425293 0.75631714 1.1410522 0.75631714 1.8259125l0 10.328598c0 1.426117 -1.1560974 2.5822144 -2.5822144 2.5822144l-10.328606 0c-1.4261246 0 -2.582222 -1.1560974 -2.582222 -2.5822144z" fill-rule="evenodd"/><path fill="#fdf0d9" d="m135.99852 192.98256l0 0c0 -1.4261322 1.1561127 -2.5822296 2.5822296 -2.5822296l10.328598 0l0 0c0.684845 0 1.3416443 0.27204895 1.8259125 0.75631714c0.48425293 0.48425293 0.75631714 1.1410522 0.75631714 1.8259125l0 10.328598c0 1.426117 -1.1560974 2.5822144 -2.5822296 2.5822144l-10.328598 0c-1.426117 0 -2.5822296 -1.1560974 -2.5822296 -2.5822144z" fill-rule="evenodd"/><path fill="#fdf0d9" d="m151.48842 192.98256l0 0c0 -1.4261322 1.1560974 -2.5822296 2.5822296 -2.5822296l10.328598 0l0 0c0.684845 0 1.3416443 0.27204895 1.8259125 0.75631714c0.48425293 0.48425293 0.7563019 1.1410522 0.7563019 1.8259125l0 10.328598c0 1.426117 -1.1560974 2.5822144 -2.5822144 2.5822144l-10.328598 0c-1.4261322 0 -2.5822296 -1.1560974 -2.5822296 -2.5822144z" fill-rule="evenodd"/><path fill="#fff8eb" d="m105.01927 204.53395l0 0c0 -1.4261322 1.1560974 -2.5822296 2.582222 -2.5822296l10.328598 0l0 0c0.684845 0 1.3416443 0.27204895 1.8259125 0.75631714c0.48426056 0.48425293 0.7563095 1.1410522 0.7563095 1.8259125l0 10.328598c0 1.426117 -1.1560974 2.5822144 -2.582222 2.5822144l-10.328598 0c-1.4261246 0 -2.582222 -1.1560974 -2.582222 -2.5822144z" fill-rule="evenodd"/><path fill="#fff8eb" d="m120.50916 204.53395l0 0c0 -1.4261322 1.1560974 -2.5822296 2.582222 -2.5822296l10.328598 0l0 0c0.684845 0 1.3416443 0.27204895 1.8259125 0.75631714c0.48425293 0.48425293 0.75631714 1.1410522 0.75631714 1.8259125l0 10.328598c0 1.426117 -1.1561127 2.5822144 -2.5822296 2.5822144l-10.328598 0c-1.4261246 0 -2.582222 -1.1560974 -2.582222 -2.5822144z" fill-rule="evenodd"/><path fill="#fff8eb" d="m135.99905 204.53395l0 0c0 -1.4261322 1.1560974 -2.5822296 2.5822296 -2.5822296l10.328598 0l0 0c0.684845 0 1.3416443 0.27204895 1.8258972 0.75631714c0.4842682 0.48425293 0.75631714 1.1410522 0.75631714 1.8259125l0 10.328598c0 1.426117 -1.1560974 2.5822144 -2.5822144 2.5822144l-10.328598 0c-1.4261322 0 -2.5822296 -1.1560974 -2.5822296 -2.5822144z" fill-rule="evenodd"/><path fill="#fff8eb" d="m151.48894 204.53395l0 0c0 -1.4261322 1.1561127 -2.5822296 2.5822296 -2.5822296l10.328598 0l0 0c0.684845 0 1.3416443 0.27204895 1.8259125 0.75631714c0.4842682 0.48425293 0.75631714 1.1410522 0.75631714 1.8259125l0 10.328598c0 1.426117 -1.1560974 2.5822144 -2.5822296 2.5822144l-10.328598 0c-1.426117 0 -2.5822296 -1.1560974 -2.5822296 -2.5822144z" fill-rule="evenodd"/><path fill="#f1dfc6" d="m93.03755 126.31222l0 0c0 -3.2706757 2.6514053 -5.922081 5.922081 -5.922081l24.028503 0l0 0c1.5706329 0 3.0769348 0.6239319 4.187538 1.7345352c1.110611 1.110611 1.7345428 2.6169128 1.7345428 4.187546l0 23.687584c0 3.2706757 -2.6514053 5.9220734 -5.922081 5.9220734l-24.028503 0c-3.2706757 0 -5.922081 -2.6513977 -5.922081 -5.9220734z" fill-rule="evenodd"/><path fill="#eacea7" d="m119.45065 121.94642l0 0c0 -0.87171173 0.70666504 -1.5783768 1.5783844 -1.5783768l6.3133163 0l0 0c0.41861725 0 0.820076 0.16629791 1.1160812 0.46229553c0.29600525 0.29600525 0.46229553 0.6974716 0.46229553 1.1160812l0 32.374977c0 0.87171936 -0.70666504 1.5783844 -1.5783768 1.5783844l-6.3133163 0c-0.87171936 0 -1.5783844 -0.70666504 -1.5783844 -1.5783844z" fill-rule="evenodd"/><path fill="#eacea7" d="m127.342354 146.53282l0 0c0.87171173 0 1.5783768 0.70666504 1.5783768 1.5783691l0 6.313324l0 0c0 0.41860962 -0.16629028 0.8200836 -0.46229553 1.1160889c-0.29600525 0.29600525 -0.697464 0.46229553 -1.1160812 0.46229553l-23.87716 0c-0.87171173 0 -1.5783768 -0.70666504 -1.5783768 -1.5783844l0 -6.313324c0 -0.8717041 0.70666504 -1.5783691 1.5783768 -1.5783691z" fill-rule="evenodd"/><path fill="#f1dfc6" d="m143.07956 126.31222l0 0c0 -3.2706757 2.6513977 -5.922081 5.9220734 -5.922081l24.028503 0l0 0c1.5706329 0 3.0769348 0.6239319 4.187546 1.7345352c1.1105957 1.110611 1.7345276 2.6169128 1.7345276 4.187546l0 23.687584c0 3.2706757 -2.6513977 5.9220734 -5.9220734 5.9220734l-24.028503 0c-3.2706757 0 -5.9220734 -2.6513977 -5.9220734 -5.9220734z" fill-rule="evenodd"/><path fill="#eacea7" d="m169.49266 121.94642l0 0c0 -0.87171173 0.70666504 -1.5783768 1.5783691 -1.5783768l6.313324 0l0 0c0.41860962 0 0.8200836 0.16629791 1.1160889 0.46229553c0.29600525 0.29600525 0.46229553 0.6974716 0.46229553 1.1160812l0 32.374977c0 0.87171936 -0.70666504 1.5783844 -1.5783844 1.5783844l-6.313324 0c-0.8717041 0 -1.5783691 -0.70666504 -1.5783691 -1.5783844z" fill-rule="evenodd"/><path fill="#eacea7" d="m177.38435 146.53282l0 0c0.87171936 0 1.5783844 0.70666504 1.5783844 1.5783691l0 6.313324l0 0c0 0.41860962 -0.16629028 0.8200836 -0.46229553 1.1160889c-0.29600525 0.29600525 -0.69747925 0.46229553 -1.1160889 0.46229553l-23.877151 0c-0.87171936 0 -1.5783844 -0.70666504 -1.5783844 -1.5783844l0 -6.313324c0 -0.8717041 0.70666504 -1.5783691 1.5783844 -1.5783691z" fill-rule="evenodd"/><path fill="#fdf0d9" d="m160.56558 155.51057l0 0c0 -3.2706757 2.6513977 -5.9220734 5.9220734 -5.9220734l31.238388 0c1.5706329 0 3.0769348 0.6239319 4.187546 1.7345276c1.1105957 1.110611 1.7345276 2.6169128 1.7345276 4.187546l0 23.687592c0 3.2706604 -2.6513977 5.9220734 -5.9220734 5.9220734l-31.238388 0l0 0c-3.2706757 0 -5.9220734 -2.651413 -5.9220734 -5.9220734z" fill-rule="evenodd"/><path fill="#fffbf5" d="m163.77274 155.37793l0 0c0 -1.4261322 1.1560974 -2.5822296 2.5822144 -2.5822296l10.328598 0l0 0c0.6848602 0 1.3416595 0.27204895 1.8259125 0.75631714c0.4842682 0.48425293 0.75631714 1.1410522 0.75631714 1.8259125l0 10.328583c0 1.4261322 -1.1560974 2.5822296 -2.5822296 2.5822296l-10.328598 0c-1.426117 0 -2.5822144 -1.1560974 -2.5822144 -2.5822296z" fill-rule="evenodd"/><path fill="#fdf0d9" d="m68.352264 155.51057l0 0c0 -3.2706757 2.6513977 -5.9220734 5.9220734 -5.9220734l31.238396 0c1.5706329 0 3.0769348 0.6239319 4.187538 1.7345276c1.1106033 1.110611 1.7345352 2.6169128 1.7345352 4.187546l0 23.687592c0 3.2706604 -2.6514053 5.9220734 -5.9220734 5.9220734l-31.238396 0l0 0c-3.2706757 0 -5.9220734 -2.651413 -5.9220734 -5.9220734z" fill-rule="evenodd"/><path fill="#fffbf5" d="m74.76662 158.58513l0 0c0 -1.4261322 1.156105 -2.5822296 2.5822296 -2.5822296l10.32859 0l0 0c0.6848526 0 1.3416519 0.27204895 1.8259125 0.75631714c0.48426056 0.48425293 0.75631714 1.1410522 0.75631714 1.8259125l0 10.328598c0 1.426117 -1.156105 2.5822144 -2.5822296 2.5822144l-10.32859 0c-1.4261246 0 -2.5822296 -1.1560974 -2.5822296 -2.5822144z" fill-rule="evenodd"/><path fill="#fffbf5" d="m84.09675 115.58677l0 0c0 -1.7120514 1.387886 -3.0999374 3.0999374 -3.0999374l12.399361 0l0 0c0.8221588 0 1.6106339 0.32659912 2.191986 0.90795135c0.58135223 0.58135223 0.90795135 1.3698273 0.90795135 2.191986l0 16.477806c0 1.7120514 -1.387886 3.099945 -3.0999374 3.099945l-12.399361 0c-1.7120514 0 -3.0999374 -1.3878937 -3.0999374 -3.099945z" fill-rule="evenodd"/></g></svg>