<svg version="1.1" viewBox="0.0 0.0 288.0 384.0" fill="none" stroke="none" stroke-linecap="square" stroke-miterlimit="10" xmlns:xlink="http://www.w3.org/1999/xlink" xmlns="http://www.w3.org/2000/svg"><clipPath id="g3b44d2ab5cb_3_360.0"><path d="m0 0l288.0 0l0 384.0l-288.0 0l0 -384.0z" clip-rule="nonzero"/></clipPath><g clip-path="url(#g3b44d2ab5cb_3_360.0)"><path fill="#ffffff" d="m0 0l288.0 0l0 384.0l-288.0 0z" fill-rule="evenodd"/><path fill="#f73d35" d="m5.7007875 34.135216l0 0c0 -9.966135 8.079147 -18.045282 18.04528 -18.045282l240.50787 0c4.7858887 0 9.375793 1.9011936 12.759949 5.2853394c3.3841248 3.3841476 5.2853394 7.9740353 5.2853394 12.759943l0 324.2244c0 9.9661255 -8.079163 18.045288 -18.045288 18.045288l-240.50787 0l0 0c-9.966134 0 -18.04528 -8.079163 -18.04528 -18.045288z" fill-rule="evenodd"/><path stroke="#f73d35" stroke-width="4.0" stroke-linejoin="round" stroke-linecap="butt" d="m5.7007875 34.135216l0 0c0 -9.966135 8.079147 -18.045282 18.04528 -18.045282l240.50787 0c4.7858887 0 9.375793 1.9011936 12.759949 5.2853394c3.3841248 3.3841476 5.2853394 7.9740353 5.2853394 12.759943l0 324.2244c0 9.9661255 -8.079163 18.045288 -18.045288 18.045288l-240.50787 0l0 0c-9.966134 0 -18.04528 -8.079163 -18.04528 -18.045288z" fill-rule="evenodd"/><path fill="#ffaaa7" d="m5.7007875 25.639769l0 0c0 -9.966133 8.079147 -18.04528 18.04528 -18.04528l240.50787 0c4.7858887 0 9.375793 1.9011936 12.759949 5.2853403c3.3841248 3.3841467 5.2853394 7.9740343 5.2853394 12.75994l0 324.2244c0 9.9661255 -8.079163 18.045288 -18.045288 18.045288l-240.50787 0l0 0c-9.966134 0 -18.04528 -8.079163 -18.04528 -18.045288z" fill-rule="evenodd"/><path stroke="#f73d35" stroke-width="4.0" stroke-linejoin="round" stroke-linecap="butt" d="m5.7007875 25.639769l0 0c0 -9.966133 8.079147 -18.04528 18.04528 -18.04528l240.50787 0c4.7858887 0 9.375793 1.9011936 12.759949 5.2853403c3.3841248 3.3841467 5.2853394 7.9740343 5.2853394 12.75994l0 324.2244c0 9.9661255 -8.079163 18.045288 -18.045288 18.045288l-240.50787 0l0 0c-9.966134 0 -18.04528 -8.079163 -18.04528 -18.045288z" fill-rule="evenodd"/><path fill="#f73d35" d="m135.5472 91.67587l0 0c0 -2.7153015 2.2011871 -4.9164886 4.9164886 -4.9164886l23.071182 0c1.3039398 0 2.5544739 0.5179825 3.4764862 1.4400101c0.9220276 0.92201996 1.4400177 2.1725464 1.4400177 3.4764786l0 19.665382c0 2.7153015 -2.2011871 4.9164886 -4.916504 4.9164886l-23.071182 0c-2.7153015 0 -4.9164886 -2.2011871 -4.9164886 -4.9164886z" fill-rule="evenodd"/><path fill="#f73d35" d="m143.27615 87.345406l0 0c0 -0.32364655 0.26235962 -0.5860214 0.5860138 -0.5860214l2.3440247 0l0 0c0.15542603 0 0.30448914 0.06174469 0.41438293 0.17163849c0.10990906 0.10990143 0.17164612 0.25896454 0.17164612 0.41438293l0 15.081795c0 0.32365417 -0.26237488 0.58602905 -0.58602905 0.58602905l-2.3440247 0c-0.32365417 0 -0.5860138 -0.26237488 -0.5860138 -0.58602905z" fill-rule="evenodd"/><path fill="#f73d35" d="m150.24052 87.345406l0 0c0 -0.32364655 0.26237488 -0.5860214 0.58602905 -0.5860214l2.3440247 0l0 0c0.15541077 0 0.30447388 0.06174469 0.41438293 0.17163849c0.1098938 0.10990143 0.17163086 0.25896454 0.17163086 0.41438293l0 15.081795c0 0.32365417 -0.26235962 0.58602905 -0.5860138 0.58602905l-2.3440247 0c-0.32365417 0 -0.58602905 -0.26237488 -0.58602905 -0.58602905z" fill-rule="evenodd"/><path fill="#f73d35" d="m157.20634 87.345406l0 0c0 -0.32364655 0.26235962 -0.5860214 0.5860138 -0.5860214l2.3440247 0l0 0c0.15542603 0 0.30448914 0.06174469 0.41438293 0.17163849c0.10990906 0.10990143 0.17164612 0.25896454 0.17164612 0.41438293l0 15.081795c0 0.32365417 -0.26237488 0.58602905 -0.58602905 0.58602905l-2.3440247 0c-0.32365417 0 -0.5860138 -0.26237488 -0.5860138 -0.58602905z" fill-rule="evenodd"/><path fill="#f73d35" d="m164.17094 87.345406l0 0c0 -0.32364655 0.26235962 -0.5860214 0.5860138 -0.5860214l2.3440247 0l0 0c0.15542603 0 0.30448914 0.06174469 0.41438293 0.17163849c0.10990906 0.10990143 0.17164612 0.25896454 0.17164612 0.41438293l0 15.081795c0 0.32365417 -0.26237488 0.58602905 -0.58602905 0.58602905l-2.3440247 0c-0.32365417 0 -0.5860138 -0.26237488 -0.5860138 -0.58602905z" fill-rule="evenodd"/><path fill="#f73d35" d="m136.31033 87.345406l0 0c0 -0.32364655 0.26237488 -0.5860214 0.58602905 -0.5860214l2.3440247 0l0 0c0.15542603 0 0.30447388 0.06174469 0.41438293 0.17163849c0.1098938 0.10990143 0.17163086 0.25896454 0.17163086 0.41438293l0 15.081795c0 0.32365417 -0.26235962 0.58602905 -0.5860138 0.58602905l-2.3440247 0c-0.32365417 0 -0.58602905 -0.26237488 -0.58602905 -0.58602905z" fill-rule="evenodd"/><path fill="#f73d35" d="m129.15353 107.92829l0 0c0 -3.6187897 2.933609 -6.5524063 6.552414 -6.5524063l32.58667 0c1.7378082 0 3.4044342 0.69033813 4.633255 1.9191589c1.2288055 1.2288132 1.9191589 2.8954391 1.9191589 4.6332474l0 26.20884c0 3.6187897 -2.9336243 6.552414 -6.552414 6.552414l-32.58667 0c-3.618805 0 -6.552414 -2.9336243 -6.552414 -6.552414z" fill-rule="evenodd"/><path fill="#f73d35" d="m122.18261 112.37229l0 0c0 -3.6187897 2.933609 -6.5524063 6.5524063 -6.5524063l46.528534 0c1.7378082 0 3.4044342 0.69033813 4.6332397 1.9191589c1.2288208 1.2288132 1.9191589 2.8954391 1.9191589 4.6332474l0 26.20884c0 3.6187897 -2.933609 6.552414 -6.5523987 6.552414l-46.528534 0c-3.6187973 0 -6.5524063 -2.9336243 -6.5524063 -6.552414z" fill-rule="evenodd"/><path fill="#f73d35" d="m129.15353 106.35855l0 0c0 -2.7518463 2.2308197 -4.982666 4.982666 -4.982666l19.930054 0l0 0c1.3214874 0 2.588852 0.52495575 3.523285 1.4593887c0.934433 0.934433 1.4593811 2.2017899 1.4593811 3.5232773l0 29.348328c0 2.7518463 -2.2308044 4.982666 -4.982666 4.982666l-19.930054 0c-2.7518463 0 -4.982666 -2.2308197 -4.982666 -4.982666z" fill-rule="evenodd"/><path fill="#f73d35" d="m122.18261 112.37229l0 0c0 -3.6187897 2.933609 -6.5524063 6.5524063 -6.5524063l29.630371 0c1.7378082 0 3.4044342 0.69033813 4.633255 1.9191589c1.2288208 1.2288132 1.9191589 2.8954391 1.9191589 4.6332474l0 26.20884c0 3.6187897 -2.933609 6.552414 -6.552414 6.552414l-29.630371 0c-3.6187973 0 -6.5524063 -2.9336243 -6.5524063 -6.552414z" fill-rule="evenodd"/><path fill="#f73d35" d="m114.144615 233.66083l0 0c0 -3.4883423 2.8278656 -6.316208 6.316208 -6.316208l63.076912 0c1.6751709 0 3.281723 0.6654663 4.4662323 1.8499756c1.1845245 1.1845245 1.8499756 2.7910767 1.8499756 4.4662323l0 25.264069c0 3.4883423 -2.8278656 6.3161926 -6.316208 6.3161926l-63.076912 0c-3.4883423 0 -6.316208 -2.8278503 -6.316208 -6.3161926z" fill-rule="evenodd"/><path fill="#f73d35" d="m118.71901 220.86237l0 0c0 -0.71507263 0.57967377 -1.2947388 1.2947388 -1.2947388l63.97107 0c0.3433838 0 0.672699 0.13639832 0.9155121 0.37921143c0.24281311 0.24281311 0.37921143 0.5721283 0.37921143 0.91552734l0 5.178772c0 0.71507263 -0.57966614 1.2947388 -1.2947235 1.2947388l-63.97107 0c-0.715065 0 -1.2947388 -0.57966614 -1.2947388 -1.2947388z" fill-rule="evenodd"/><path fill="#f73d35" d="m118.71901 175.18889l0 0c0 -0.7150574 0.57967377 -1.2947388 1.2947388 -1.2947388l63.97107 0c0.3433838 0 0.672699 0.13641357 0.9155121 0.37922668c0.24281311 0.24279785 0.37921143 0.5721283 0.37921143 0.9155121l0 5.178787c0 0.7150574 -0.57966614 1.2947235 -1.2947235 1.2947235l-63.97107 0c-0.715065 0 -1.2947388 -0.57966614 -1.2947388 -1.2947235z" fill-rule="evenodd"/><path fill="#f73d35" d="m118.71901 129.51541l0 0c0 -0.7150574 0.57967377 -1.2947388 1.2947388 -1.2947388l63.97107 0c0.3433838 0 0.672699 0.13641357 0.9155121 0.37922668c0.24281311 0.24281311 0.37921143 0.5721283 0.37921143 0.9155121l0 5.178787c0 0.7150574 -0.57966614 1.2947388 -1.2947235 1.2947388l-63.97107 0c-0.715065 0 -1.2947388 -0.5796814 -1.2947388 -1.2947388z" fill-rule="evenodd"/><path fill="#f73d35" d="m114.144615 233.65645l0 0c0 -3.4883423 2.8278656 -6.3161926 6.316208 -6.3161926l47.000923 0c1.6751709 0 3.281723 0.66545105 4.4662323 1.8499603c1.1845245 1.1845245 1.8499756 2.7910767 1.8499756 4.4662323l0 25.264084c0 3.4883423 -2.8278503 6.3161926 -6.316208 6.3161926l-47.000923 0c-3.4883423 0 -6.316208 -2.8278503 -6.316208 -6.3161926z" fill-rule="evenodd"/><path fill="#f73d35" d="m118.71901 220.86237l0 0c0 -0.71507263 0.57967377 -1.2947388 1.2947388 -1.2947388l47.142883 0c0.3433838 0 0.672699 0.13639832 0.9155121 0.37921143c0.24281311 0.24281311 0.37922668 0.5721283 0.37922668 0.91552734l0 5.178772c0 0.71507263 -0.5796814 1.2947388 -1.2947388 1.2947388l-47.142883 0c-0.715065 0 -1.2947388 -0.57966614 -1.2947388 -1.2947388z" fill-rule="evenodd"/><path fill="#f73d35" d="m118.71901 175.18889l0 0c0 -0.7150574 0.57967377 -1.2947388 1.2947388 -1.2947388l47.142883 0c0.3433838 0 0.672699 0.13641357 0.9155121 0.37922668c0.24281311 0.24279785 0.37922668 0.5721283 0.37922668 0.9155121l0 5.178787c0 0.7150574 -0.5796814 1.2947235 -1.2947388 1.2947235l-47.142883 0c-0.715065 0 -1.2947388 -0.57966614 -1.2947388 -1.2947235z" fill-rule="evenodd"/><path fill="#f73d35" d="m118.71901 129.51541l0 0c0 -0.7150574 0.57967377 -1.2947388 1.2947388 -1.2947388l47.142883 0c0.3433838 0 0.672699 0.13641357 0.9155121 0.37922668c0.24281311 0.24281311 0.37922668 0.5721283 0.37922668 0.9155121l0 5.178787c0 0.7150574 -0.5796814 1.2947388 -1.2947388 1.2947388l-47.142883 0c-0.715065 0 -1.2947388 -0.5796814 -1.2947388 -1.2947388z" fill-rule="evenodd"/><path fill="#f73d35" d="m125.609764 109.908165l0 0c0 -0.840683 0.6815033 -1.5221863 1.5221863 -1.5221863l15.410652 0c0.40370178 0 0.7908783 0.16036987 1.0763397 0.44583893c0.28547668 0.28546143 0.44584656 0.67263794 0.44584656 1.0763474l0 6.0885696c0 0.84067535 -0.6815033 1.5221863 -1.5221863 1.5221863l-15.410652 0c-0.840683 0 -1.5221863 -0.6815109 -1.5221863 -1.5221863z" fill-rule="evenodd"/><path fill="#f73d35" d="m120.17092 234.22482l0 0c0 -1.072403 0.86935425 -1.941742 1.9417572 -1.941742l7.766777 0l0 0c0.51498413 0 1.0088806 0.20457458 1.3730164 0.5687256c0.364151 0.36413574 0.56874084 0.8580322 0.56874084 1.3730164l0 17.829117c0 1.072403 -0.86935425 1.941742 -1.9417572 1.941742l-7.766777 0c-1.072403 0 -1.9417572 -0.869339 -1.9417572 -1.941742z" fill-rule="evenodd"/><path fill="#f73d35" d="m114.144615 187.98299l0 0c0 -3.4883423 2.8278656 -6.316208 6.316208 -6.316208l63.076912 0c1.6751709 0 3.281723 0.66545105 4.4662323 1.8499756c1.1845245 1.1845093 1.8499756 2.7910614 1.8499756 4.4662323l0 25.264053c0 3.4883423 -2.8278656 6.316208 -6.316208 6.316208l-63.076912 0c-3.4883423 0 -6.316208 -2.8278656 -6.316208 -6.316208z" fill-rule="evenodd"/><path fill="#f73d35" d="m114.144615 187.9786l0 0c0 -3.4883423 2.8278656 -6.316208 6.316208 -6.316208l47.000923 0c1.6751709 0 3.281723 0.6654663 4.4662323 1.8499756c1.1845245 1.1845245 1.8499756 2.7910767 1.8499756 4.4662323l0 25.264069c0 3.4883423 -2.8278503 6.3161926 -6.316208 6.3161926l-47.000923 0c-3.4883423 0 -6.316208 -2.8278503 -6.316208 -6.3161926z" fill-rule="evenodd"/><path fill="#f73d35" d="m120.17092 188.54698l0 0c0 -1.072403 0.86935425 -1.9417572 1.9417572 -1.9417572l7.766777 0l0 0c0.51498413 0 1.0088806 0.20457458 1.3730164 0.5687256c0.364151 0.364151 0.56874084 0.8580475 0.56874084 1.3730316l0 17.829102c0 1.072403 -0.86935425 1.9417572 -1.9417572 1.9417572l-7.766777 0c-1.072403 0 -1.9417572 -0.86935425 -1.9417572 -1.9417572z" fill-rule="evenodd"/><path fill="#f73d35" d="m114.144615 142.30077l0 0c0 -3.4883423 2.8278656 -6.316208 6.316208 -6.316208l63.076912 0c1.6751709 0 3.281723 0.66545105 4.4662323 1.8499756c1.1845245 1.1845093 1.8499756 2.7910614 1.8499756 4.4662323l0 25.264053c0 3.4883423 -2.8278656 6.316208 -6.316208 6.316208l-63.076912 0c-3.4883423 0 -6.316208 -2.8278656 -6.316208 -6.316208z" fill-rule="evenodd"/><path fill="#f73d35" d="m114.144615 142.29639l0 0c0 -3.4883423 2.8278656 -6.316208 6.316208 -6.316208l47.000923 0c1.6751709 0 3.281723 0.6654663 4.4662323 1.8499756c1.1845245 1.1845245 1.8499756 2.7910767 1.8499756 4.4662323l0 25.264069c0 3.4883423 -2.8278503 6.3161926 -6.316208 6.3161926l-47.000923 0c-3.4883423 0 -6.316208 -2.8278503 -6.316208 -6.3161926z" fill-rule="evenodd"/><path fill="#f73d35" d="m120.17092 142.86476l0 0c0 -1.072403 0.86935425 -1.9417572 1.9417572 -1.9417572l7.766777 0l0 0c0.51498413 0 1.0088806 0.20457458 1.3730164 0.5687256c0.364151 0.364151 0.56874084 0.8580475 0.56874084 1.3730316l0 17.829102c0 1.072403 -0.86935425 1.9417572 -1.9417572 1.9417572l-7.766777 0c-1.072403 0 -1.9417572 -0.86935425 -1.9417572 -1.9417572z" fill-rule="evenodd"/><path fill="#f73d35" d="m119.51715 75.66652l0 0c0 -2.7153015 2.2011871 -4.9164886 4.9164886 -4.9164886l23.071182 0c1.3039398 0 2.5544739 0.5179825 3.4764862 1.4400101c0.9220276 0.92201996 1.4400177 2.1725464 1.4400177 3.4764786l0 19.665382c0 2.7153015 -2.2012024 4.9164886 -4.916504 4.9164886l-23.071182 0c-2.7153015 0 -4.9164886 -2.2011871 -4.9164886 -4.9164886z" fill-rule="evenodd"/><path fill="#e03027" d="m127.2461 71.33605l0 0c0 -0.32364655 0.26237488 -0.5860214 0.5860214 -0.5860214l2.3440247 0l0 0c0.15542603 0 0.30448914 0.06174469 0.41438293 0.17164612c0.10990906 0.1098938 0.17164612 0.2589569 0.17164612 0.4143753l0 15.081795c0 0.32365417 -0.26237488 0.58602905 -0.58602905 0.58602905l-2.3440247 0c-0.32364655 0 -0.5860214 -0.26237488 -0.5860214 -0.58602905z" fill-rule="evenodd"/><path fill="#e03027" d="m134.21048 71.33605l0 0c0 -0.32364655 0.26235962 -0.5860214 0.5860138 -0.5860214l2.34404 0l0 0c0.15541077 0 0.30447388 0.06174469 0.41436768 0.17164612c0.10990906 0.1098938 0.17164612 0.2589569 0.17164612 0.4143753l0 15.081795c0 0.32365417 -0.26237488 0.58602905 -0.5860138 0.58602905l-2.34404 0c-0.32365417 0 -0.5860138 -0.26237488 -0.5860138 -0.58602905z" fill-rule="evenodd"/><path fill="#e03027" d="m141.17628 71.33605l0 0c0 -0.32364655 0.26237488 -0.5860214 0.58602905 -0.5860214l2.3440247 0l0 0c0.15542603 0 0.30448914 0.06174469 0.41438293 0.17164612c0.10990906 0.1098938 0.17164612 0.2589569 0.17164612 0.4143753l0 15.081795c0 0.32365417 -0.26237488 0.58602905 -0.58602905 0.58602905l-2.3440247 0c-0.32365417 0 -0.58602905 -0.26237488 -0.58602905 -0.58602905z" fill-rule="evenodd"/><path fill="#e03027" d="m148.14088 71.33605l0 0c0 -0.32364655 0.26237488 -0.5860214 0.58602905 -0.5860214l2.3440247 0l0 0c0.15542603 0 0.30448914 0.06174469 0.41438293 0.17164612c0.10990906 0.1098938 0.17164612 0.2589569 0.17164612 0.4143753l0 15.081795c0 0.32365417 -0.26237488 0.58602905 -0.58602905 0.58602905l-2.3440247 0c-0.32365417 0 -0.58602905 -0.26237488 -0.58602905 -0.58602905z" fill-rule="evenodd"/><path fill="#e03027" d="m120.28028 71.33605l0 0c0 -0.32364655 0.26237488 -0.5860214 0.58602905 -0.5860214l2.3440247 0l0 0c0.15542603 0 0.3044815 0.06174469 0.41438293 0.17164612c0.10990143 0.1098938 0.17164612 0.2589569 0.17164612 0.4143753l0 15.081795c0 0.32365417 -0.26237488 0.58602905 -0.58602905 0.58602905l-2.3440247 0c-0.32365417 0 -0.58602905 -0.26237488 -0.58602905 -0.58602905z" fill-rule="evenodd"/><path fill="#592901" d="m113.12349 91.91894l0 0c0 -3.6187897 2.933609 -6.5524063 6.5524063 -6.5524063l32.586678 0c1.7378082 0 3.4044342 0.69034576 4.633255 1.9191589c1.2288055 1.2288132 1.9191437 2.8954468 1.9191437 4.6332474l0 26.20884c0 3.6187973 -2.933609 6.5524063 -6.5523987 6.5524063l-32.586678 0c-3.6187973 0 -6.5524063 -2.933609 -6.5524063 -6.5524063z" fill-rule="evenodd"/><path fill="#9a4600" d="m106.152565 96.36294l0 0c0 -3.6187897 2.933609 -6.5524063 6.5524063 -6.5524063l46.528534 0c1.737793 0 3.4044342 0.69034576 4.6332397 1.9191589c1.2288208 1.2288132 1.9191589 2.8954391 1.9191589 4.6332474l0 26.20884c0 3.6187973 -2.933609 6.552414 -6.5523987 6.552414l-46.528534 0c-3.6187973 0 -6.5524063 -2.9336166 -6.5524063 -6.552414z" fill-rule="evenodd"/><path fill="#9a4600" d="m113.12349 90.3492l0 0c0 -2.7518463 2.230812 -4.982666 4.982666 -4.982666l19.930054 0l0 0c1.3214874 0 2.588852 0.52495575 3.523285 1.4593887c0.934433 0.934433 1.4593811 2.2017899 1.4593811 3.5232773l0 29.348328c0 2.7518463 -2.2308044 4.9826584 -4.982666 4.9826584l-19.930054 0c-2.751854 0 -4.982666 -2.230812 -4.982666 -4.9826584z" fill-rule="evenodd"/><path fill="#592901" d="m106.152565 96.36294l0 0c0 -3.6187897 2.933609 -6.5524063 6.5524063 -6.5524063l29.630371 0c1.7378082 0 3.4044342 0.69034576 4.633255 1.9191589c1.2288055 1.2288132 1.9191589 2.8954391 1.9191589 4.6332474l0 26.20884c0 3.6187973 -2.9336243 6.552414 -6.552414 6.552414l-29.630371 0c-3.6187973 0 -6.5524063 -2.9336166 -6.5524063 -6.552414z" fill-rule="evenodd"/><path fill="#9a4600" d="m98.11457 217.65147l0 0c0 -3.4883423 2.827858 -6.316208 6.3162003 -6.316208l63.07692 0c1.6751709 0 3.281723 0.6654663 4.4662323 1.8499756c1.1845245 1.1845245 1.8499756 2.7910767 1.8499756 4.4662323l0 25.264069c0 3.4883423 -2.8278656 6.316208 -6.316208 6.316208l-63.07692 0c-3.4883423 0 -6.3162003 -2.8278656 -6.3162003 -6.316208z" fill-rule="evenodd"/><path fill="#592901" d="m102.688965 204.85301l0 0c0 -0.71507263 0.57967377 -1.2947388 1.2947388 -1.2947388l63.97107 0c0.3433838 0 0.672699 0.13641357 0.9155121 0.37921143c0.24281311 0.24281311 0.37921143 0.5721283 0.37921143 0.91552734l0 5.178772c0 0.71507263 -0.57966614 1.2947388 -1.2947235 1.2947388l-63.97107 0c-0.715065 0 -1.2947388 -0.57966614 -1.2947388 -1.2947388z" fill-rule="evenodd"/><path fill="#592901" d="m102.688965 159.17953l0 0c0 -0.7150574 0.57967377 -1.2947388 1.2947388 -1.2947388l63.97107 0c0.3433838 0 0.672699 0.13641357 0.9155121 0.37922668c0.24281311 0.24279785 0.37921143 0.5721283 0.37921143 0.9155121l0 5.178787c0 0.7150574 -0.57966614 1.2947235 -1.2947235 1.2947235l-63.97107 0c-0.715065 0 -1.2947388 -0.57966614 -1.2947388 -1.2947235z" fill-rule="evenodd"/><path fill="#592901" d="m102.688965 113.50606l0 0c0 -0.7150574 0.57967377 -1.2947311 1.2947388 -1.2947311l63.97107 0c0.3433838 0 0.672699 0.13640594 0.9155121 0.37921906c0.24281311 0.24280548 0.37921143 0.5721283 0.37921143 0.9155121l0 5.178787c0 0.7150574 -0.57966614 1.2947311 -1.2947235 1.2947311l-63.97107 0c-0.715065 0 -1.2947388 -0.57967377 -1.2947388 -1.2947311z" fill-rule="evenodd"/><path fill="#592901" d="m98.11457 217.6471l0 0c0 -3.4883423 2.827858 -6.3161926 6.3162003 -6.3161926l47.00093 0c1.6751709 0 3.281723 0.66545105 4.4662323 1.8499756c1.1845245 1.1845093 1.8499756 2.7910614 1.8499756 4.466217l0 25.264069c0 3.4883423 -2.8278656 6.316208 -6.316208 6.316208l-47.00093 0c-3.4883423 0 -6.3162003 -2.8278656 -6.3162003 -6.316208z" fill-rule="evenodd"/><path fill="#321903" d="m102.688965 204.85301l0 0c0 -0.71507263 0.57967377 -1.2947388 1.2947388 -1.2947388l47.142883 0c0.3433838 0 0.672699 0.13641357 0.9155121 0.37921143c0.24281311 0.24281311 0.37922668 0.5721283 0.37922668 0.91552734l0 5.178772c0 0.71507263 -0.5796814 1.2947388 -1.2947388 1.2947388l-47.142883 0c-0.715065 0 -1.2947388 -0.57966614 -1.2947388 -1.2947388z" fill-rule="evenodd"/><path fill="#321903" d="m102.688965 159.17953l0 0c0 -0.7150574 0.57967377 -1.2947388 1.2947388 -1.2947388l47.142883 0c0.3433838 0 0.672699 0.13641357 0.9155121 0.37922668c0.24281311 0.24279785 0.37922668 0.5721283 0.37922668 0.9155121l0 5.178787c0 0.7150574 -0.5796814 1.2947235 -1.2947388 1.2947235l-47.142883 0c-0.715065 0 -1.2947388 -0.57966614 -1.2947388 -1.2947235z" fill-rule="evenodd"/><path fill="#321903" d="m102.688965 113.50606l0 0c0 -0.7150574 0.57967377 -1.2947311 1.2947388 -1.2947311l47.142883 0c0.3433838 0 0.672699 0.13640594 0.9155121 0.37921906c0.24281311 0.24280548 0.37922668 0.5721283 0.37922668 0.9155121l0 5.178787c0 0.7150574 -0.5796814 1.2947311 -1.2947388 1.2947311l-47.142883 0c-0.715065 0 -1.2947388 -0.57967377 -1.2947388 -1.2947311z" fill-rule="evenodd"/><path fill="#9a4600" d="m109.57972 93.89881l0 0c0 -0.840683 0.6815033 -1.5221863 1.5221863 -1.5221863l15.410645 0c0.4037094 0 0.7908859 0.16036987 1.0763474 0.44583893c0.28546906 0.28546143 0.44584656 0.67263794 0.44584656 1.0763474l0 6.0885696c0 0.840683 -0.6815109 1.5221863 -1.5221939 1.5221863l-15.410645 0c-0.840683 0 -1.5221863 -0.6815033 -1.5221863 -1.5221863z" fill-rule="evenodd"/><path fill="#9a4600" d="m104.14088 218.21547l0 0c0 -1.072403 0.86935425 -1.941742 1.9417572 -1.941742l7.7667694 0l0 0c0.51498413 0 1.0088806 0.20457458 1.3730316 0.5687256c0.36414337 0.36413574 0.5687256 0.8580322 0.5687256 1.3730164l0 17.829117c0 1.072403 -0.86935425 1.941742 -1.9417572 1.941742l-7.7667694 0c-1.072403 0 -1.9417572 -0.869339 -1.9417572 -1.941742z" fill-rule="evenodd"/><path fill="#9a4600" d="m98.11457 171.97363l0 0c0 -3.4883423 2.827858 -6.316208 6.3162003 -6.316208l63.07692 0c1.6751709 0 3.281723 0.66545105 4.4662323 1.8499756c1.1845245 1.1845093 1.8499756 2.7910614 1.8499756 4.4662323l0 25.264053c0 3.4883423 -2.8278656 6.316208 -6.316208 6.316208l-63.07692 0c-3.4883423 0 -6.3162003 -2.8278656 -6.3162003 -6.316208z" fill-rule="evenodd"/><path fill="#592901" d="m98.11457 171.96925l0 0c0 -3.4883423 2.827858 -6.316208 6.3162003 -6.316208l47.00093 0c1.6751709 0 3.281723 0.6654663 4.4662323 1.8499756c1.1845245 1.1845245 1.8499756 2.7910767 1.8499756 4.4662323l0 25.264069c0 3.4883423 -2.8278656 6.316208 -6.316208 6.316208l-47.00093 0c-3.4883423 0 -6.3162003 -2.8278656 -6.3162003 -6.316208z" fill-rule="evenodd"/><path fill="#9a4600" d="m104.14088 172.53763l0 0c0 -1.072403 0.86935425 -1.9417572 1.9417572 -1.9417572l7.7667694 0l0 0c0.51498413 0 1.0088806 0.20457458 1.3730316 0.5687256c0.36414337 0.364151 0.5687256 0.8580475 0.5687256 1.3730316l0 17.829102c0 1.072403 -0.86935425 1.9417572 -1.9417572 1.9417572l-7.7667694 0c-1.072403 0 -1.9417572 -0.86935425 -1.9417572 -1.9417572z" fill-rule="evenodd"/><path fill="#f73d35" d="m98.11457 126.29141l0 0c0 -3.48835 2.827858 -6.316208 6.3162003 -6.316208l63.07692 0c1.6751709 0 3.281723 0.66545105 4.4662323 1.8499756c1.1845245 1.1845169 1.8499756 2.791069 1.8499756 4.4662323l0 25.264053c0 3.4883423 -2.8278656 6.316208 -6.316208 6.316208l-63.07692 0c-3.4883423 0 -6.3162003 -2.8278656 -6.3162003 -6.316208z" fill-rule="evenodd"/><path fill="#e03027" d="m98.11457 126.28703l0 0c0 -3.4883423 2.827858 -6.3162003 6.3162003 -6.3162003l47.00093 0c1.6751709 0 3.281723 0.66545105 4.4662323 1.849968c1.1845245 1.1845245 1.8499756 2.791069 1.8499756 4.4662323l0 25.264069c0 3.4883423 -2.8278656 6.316208 -6.316208 6.316208l-47.00093 0c-3.4883423 0 -6.3162003 -2.8278656 -6.3162003 -6.316208z" fill-rule="evenodd"/><path fill="#f73d35" d="m104.14088 126.85541l0 0c0 -1.072403 0.86935425 -1.9417572 1.9417572 -1.9417572l7.7667694 0l0 0c0.51498413 0 1.0088806 0.20458221 1.3730316 0.5687332c0.36414337 0.36414337 0.5687256 0.85803986 0.5687256 1.373024l0 17.829102c0 1.072403 -0.86935425 1.9417572 -1.9417572 1.9417572l-7.7667694 0c-1.072403 0 -1.9417572 -0.86935425 -1.9417572 -1.9417572z" fill-rule="evenodd"/><path fill="#000000" fill-opacity="0.0" d="m21.700787 315.7533l266.29922 0l0 38.771637l-266.29922 0z" fill-rule="evenodd"/><path fill="#000000" d="m31.278912 336.17578l3.375 0q0.078125 0.5 0.453125 0.875q0.390625 0.359375 1.03125 0.5625q0.65625 0.203125 1.53125 0.203125q1.21875 0 1.921875 -0.3125q0.703125 -0.3125 0.703125 -0.921875q0 -0.46875 -0.40625 -0.71875q-0.390625 -0.265625 -1.53125 -0.375l-2.234375 -0.203125q-2.484375 -0.234375 -3.609375 -1.125q-1.109375 -0.90625 -1.109375 -2.453125q0 -1.234375 0.71875 -2.09375q0.734375 -0.875 2.046875 -1.3125q1.328125 -0.4375 3.09375 -0.4375q1.71875 0 3.0625 0.484375q1.34375 0.484375 2.140625 1.390625q0.796875 0.890625 0.859375 2.078125l-3.359375 0q-0.0625 -0.4375 -0.40625 -0.75q-0.34375 -0.3125 -0.9375 -0.484375q-0.59375 -0.171875 -1.421875 -0.171875q-1.125 0 -1.78125 0.296875q-0.65625 0.296875 -0.65625 0.875q0 0.421875 0.390625 0.6875q0.390625 0.25 1.421875 0.34375l2.375 0.234375q1.71875 0.15625 2.734375 0.5625q1.03125 0.390625 1.484375 1.078125q0.46875 0.6875 0.46875 1.703125q0 1.265625 -0.75 2.203125q-0.75 0.9375 -2.109375 1.453125q-1.359375 0.515625 -3.171875 0.515625q-1.84375 0 -3.265625 -0.515625q-1.421875 -0.515625 -2.21875 -1.46875q-0.796875 -0.953125 -0.84375 -2.203125zm19.205643 4.1875q-1.765625 0 -3.078125 -0.59375q-1.3125 -0.59375 -2.046875 -1.6875q-0.734375 -1.109375 -0.734375 -2.53125q0 -1.453125 0.734375 -2.53125q0.734375 -1.09375 2.046875 -1.703125q1.3125 -0.609375 3.078125 -0.609375q1.734375 0 3.046875 0.609375q1.328125 0.609375 2.0625 1.703125q0.734375 1.078125 0.734375 2.53125q0 1.421875 -0.734375 2.53125q-0.734375 1.09375 -2.0625 1.6875q-1.3125 0.59375 -3.046875 0.59375zm0 -2.40625q0.796875 0 1.359375 -0.28125q0.5625 -0.296875 0.859375 -0.84375q0.3125 -0.546875 0.3125 -1.28125q0 -0.765625 -0.3125 -1.296875q-0.296875 -0.546875 -0.859375 -0.828125q-0.5625 -0.28125 -1.359375 -0.28125q-0.8125 0 -1.390625 0.28125q-0.5625 0.28125 -0.875 0.828125q-0.296875 0.53125 -0.296875 1.28125q0 0.75 0.296875 1.296875q0.3125 0.546875 0.875 0.84375q0.578125 0.28125 1.390625 0.28125zm15.547031 2.15625l-0.4375 -3.421875l0.5625 -1.125l-0.546875 -1.40625l0.765625 -6.359375l3.390625 0l-0.9375 7.5l0.578125 4.8125l-3.375 0zm0.703125 -4.5625q-0.21875 1.4375 -0.890625 2.53125q-0.65625 1.09375 -1.671875 1.6875q-1.0156288 0.59375 -2.3125038 0.59375q-1.34375 0 -2.375 -0.59375q-1.015625 -0.59375 -1.59375 -1.6875q-0.5625 -1.109375 -0.5625 -2.53125q0 -1.453125 0.5625 -2.53125q0.578125 -1.09375 1.59375 -1.703125q1.03125 -0.609375 2.375 -0.609375q1.296875 0 2.3125038 0.609375q1.015625 0.59375 1.6875 1.671875q0.671875 1.078125 0.875 2.5625zm-6.093754 0q0 0.671875 0.28125 1.203125q0.28125 0.53125 0.765625 0.828125q0.5 0.296875 1.140625 0.296875q0.671875 0 1.2656288 -0.296875q0.59375 -0.296875 1.03125 -0.828125q0.453125 -0.53125 0.671875 -1.203125q-0.21875 -0.6875 -0.671875 -1.203125q-0.4375 -0.53125 -1.03125 -0.828125q-0.5937538 -0.3125 -1.2656288 -0.3125q-0.640625 0 -1.140625 0.3125q-0.484375 0.296875 -0.765625 0.828125q-0.28125 0.515625 -0.28125 1.203125zm18.528156 4.5625l-0.421875 -3.296875l0.4375 -1.265625l-0.4375 -1.265625l0.421875 -3.3125l3.390625 0l-0.578125 4.5625l0.578125 4.578125l-3.390625 0zm0.765625 -4.5625q-0.21875 1.4375 -0.890625 2.53125q-0.65625 1.09375 -1.671875 1.6875q-1.015625 0.59375 -2.3125 0.59375q-1.34375 0 -2.375 -0.59375q-1.015625 -0.59375 -1.59375 -1.6875q-0.5625 -1.109375 -0.5625 -2.53125q0 -1.453125 0.5625 -2.53125q0.578125 -1.09375 1.59375 -1.703125q1.03125 -0.609375 2.375 -0.609375q1.296875 0 2.3125 0.609375q1.015625 0.59375 1.6875 1.671875q0.671875 1.078125 0.875 2.5625zm-6.09375 0q0 0.671875 0.28125 1.203125q0.28125 0.53125 0.765625 0.828125q0.5 0.296875 1.140625 0.296875q0.671875 0 1.265625 -0.296875q0.59375 -0.296875 1.03125 -0.828125q0.453125 -0.53125 0.671875 -1.203125q-0.21875 -0.6875 -0.671875 -1.203125q-0.4375 -0.53125 -1.03125 -0.828125q-0.59375 -0.3125 -1.265625 -0.3125q-0.640625 0 -1.140625 0.3125q-0.484375 0.296875 -0.765625 0.828125q-0.28125 0.515625 -0.28125 1.203125z" fill-rule="nonzero"/><path fill="#000000" d="m91.6122 336.95703q0 -0.84375 0.171875 -1.765625q0.171875 -0.921875 0.46875 -1.78125q0.3125 -0.875 0.703125 -1.515625l0.859375 0q-0.40625 0.8125 -0.703125 1.703125q-0.296875 0.875 -0.453125 1.75q-0.15625 0.859375 -0.15625 1.609375q0 0.671875 0.140625 1.390625q0.140625 0.703125 0.421875 1.5q0.296875 0.78125 0.75 1.71875l-0.859375 0q-0.671875 -1.125 -1.015625 -2.296875q-0.328125 -1.171875 -0.328125 -2.3125z" fill-rule="nonzero"/><path fill="#000000" d="m101.85649 335.95703l-1.46875 0.09375q-0.0625 -0.28125 -0.3125 -0.484375q-0.25 -0.203125 -0.671875 -0.203125q-0.359375 0 -0.625 0.15625q-0.25 0.15625 -0.25 0.421875q0 0.203125 0.15625 0.359375q0.171875 0.140625 0.578125 0.234375l1.046875 0.203125q0.859375 0.171875 1.265625 0.5625q0.421875 0.375 0.421875 1.0q0 0.578125 -0.34375 1.015625q-0.328125 0.421875 -0.90625 0.671875q-0.578125 0.234375 -1.34375 0.234375q-1.140625 0 -1.828125 -0.484375q-0.6875 -0.484375 -0.796875 -1.3125l1.578125 -0.078125q0.078125 0.359375 0.34375 0.546875q0.28125 0.171875 0.703125 0.171875q0.421875 0 0.6875 -0.15625q0.265625 -0.171875 0.265625 -0.4375q0 -0.421875 -0.75 -0.578125l-1.0 -0.203125q-0.84375 -0.171875 -1.265625 -0.578125q-0.421875 -0.421875 -0.421875 -1.078125q0 -0.5625 0.3125 -0.96875q0.3125 -0.40625 0.859375 -0.625q0.5625 -0.21875 1.296875 -0.21875q1.109375 0 1.734375 0.46875q0.640625 0.46875 0.734375 1.265625zm3.4319916 4.265625q-0.875 0 -1.53125 -0.375q-0.640625 -0.375 -0.984375 -1.046875q-0.34375 -0.671875 -0.34375 -1.5625q0 -0.90625 0.34375 -1.578125q0.34375 -0.6875 0.984375 -1.0625q0.65625 -0.375 1.53125 -0.375q0.875 0 1.515625 0.375q0.65625 0.375 1.0 1.0625q0.34375 0.671875 0.34375 1.578125q0 0.890625 -0.34375 1.5625q-0.34375 0.671875 -1.0 1.046875q-0.640625 0.375 -1.515625 0.375zm0 -1.25q0.40625 0 0.671875 -0.21875q0.28125 -0.234375 0.40625 -0.625q0.140625 -0.40625 0.140625 -0.90625q0 -0.515625 -0.140625 -0.90625q-0.125 -0.390625 -0.40625 -0.609375q-0.265625 -0.21875 -0.671875 -0.21875q-0.40625 0 -0.671875 0.21875q-0.265625 0.21875 -0.40625 0.609375q-0.140625 0.390625 -0.140625 0.90625q0 0.5 0.140625 0.90625q0.140625 0.390625 0.40625 0.625q0.265625 0.21875 0.671875 0.21875zm4.566864 1.140625l-1.578125 -5.8125l1.640625 0l0.890625 3.90625l0.0625 0l0.9375 -3.90625l1.59375 0l0.953125 3.875l0.046875 0l0.890625 -3.875l1.625 0l-1.578125 5.8125l-1.703125 0l-1.0 -3.65625l-0.078125 0l-1.0 3.65625l-1.703125 0z" fill-rule="nonzero"/><path fill="#000000" d="m122.203766 338.6914q-0.453125 0 -0.84375 -0.21875q-0.375 -0.234375 -0.609375 -0.609375q-0.21875 -0.390625 -0.21875 -0.84375q0 -0.453125 0.21875 -0.828125q0.234375 -0.390625 0.609375 -0.609375q0.390625 -0.21875 0.84375 -0.21875q0.453125 0 0.828125 0.21875q0.390625 0.21875 0.609375 0.609375q0.21875 0.375 0.21875 0.828125q0 0.453125 -0.21875 0.84375q-0.21875 0.375 -0.609375 0.609375q-0.375 0.21875 -0.828125 0.21875zm7.492676 1.546875q-0.71875 0 -1.28125 -0.359375q-0.546875 -0.375 -0.859375 -1.046875q-0.3125 -0.6875 -0.3125 -1.609375q0 -0.921875 0.3125 -1.59375q0.3125 -0.671875 0.859375 -1.03125q0.5625 -0.375 1.296875 -0.375q0.578125 0 0.90625 0.1875q0.328125 0.1875 0.5 0.421875q0.1875 0.234375 0.28125 0.390625l0.078125 0l0 -2.859375l0.875 0l0 7.75l-0.84375 0l0 -0.890625l-0.109375 0q-0.09375 0.15625 -0.28125 0.40625q-0.1875 0.234375 -0.53125 0.421875q-0.328125 0.1875 -0.890625 0.1875zm0.125 -0.796875q0.53125 0 0.90625 -0.28125q0.375 -0.296875 0.5625 -0.796875q0.1875 -0.5 0.1875 -1.15625q0 -0.65625 -0.1875 -1.140625q-0.1875 -0.5 -0.5625 -0.765625q-0.359375 -0.28125 -0.90625 -0.28125q-0.5625 0 -0.9375 0.296875q-0.375 0.296875 -0.5625 0.796875q-0.1875 0.484375 -0.1875 1.09375q0 0.625 0.1875 1.125q0.1875 0.5 0.5625 0.8125q0.375 0.296875 0.9375 0.296875zm7.343109 -1.703125l0 -3.4375l0.890625 0l0 5.8125l-0.890625 0l0 -0.984375l-0.0625 0q-0.203125 0.4375 -0.640625 0.75q-0.421875 0.3125 -1.078125 0.3125q-0.546875 0 -0.96875 -0.234375q-0.421875 -0.25 -0.671875 -0.734375q-0.234375 -0.484375 -0.234375 -1.234375l0 -3.6875l0.875 0l0 3.640625q0 0.625 0.359375 1.015625q0.375 0.375 0.921875 0.359375q0.328125 0 0.671875 -0.15625q0.359375 -0.171875 0.59375 -0.515625q0.234375 -0.359375 0.234375 -0.90625zm2.9111023 -1.125l0 3.5l-0.875 0l0 -7.75l0.875 0l0 2.84375l0.09375 0q0.203125 -0.453125 0.609375 -0.71875q0.40625 -0.265625 1.09375 -0.265625q0.59375 0 1.03125 0.234375q0.453125 0.234375 0.703125 0.734375q0.25 0.484375 0.25 1.234375l0 3.6875l-0.890625 0l0 -3.625q0 -0.703125 -0.359375 -1.078125q-0.359375 -0.390625 -1.0 -0.390625q-0.4375 0 -0.78125 0.1875q-0.34375 0.1875 -0.546875 0.546875q-0.203125 0.359375 -0.203125 0.859375zm7.1012573 4.953125q0.453125 -0.9375 0.734375 -1.71875q0.296875 -0.796875 0.4375 -1.5q0.140625 -0.71875 0.140625 -1.390625q0 -0.75 -0.15625 -1.609375q-0.15625 -0.875 -0.453125 -1.75q-0.296875 -0.890625 -0.703125 -1.703125l0.859375 0q0.40625 0.640625 0.703125 1.515625q0.296875 0.859375 0.46875 1.78125q0.171875 0.921875 0.171875 1.765625q0 1.140625 -0.34375 2.3125q-0.328125 1.171875 -1.0 2.296875l-0.859375 0z" fill-rule="nonzero"/></g></svg>