<svg version="1.1" viewBox="0.0 0.0 768.0 96.0" fill="none" stroke="none" stroke-linecap="square" stroke-miterlimit="10" xmlns:xlink="http://www.w3.org/1999/xlink" xmlns="http://www.w3.org/2000/svg"><clipPath id="g3b144c962b2_0_23.0"><path d="m0 0l768.0 0l0 96.0l-768.0 0l0 -96.0z" clip-rule="nonzero"/></clipPath><g clip-path="url(#g3b144c962b2_0_23.0)"><path fill="#161d25" d="m0 0l768.0 0l0 96.0l-768.0 0z" fill-rule="evenodd"/><path fill="#2563eb" d="m7.4015746 27.722761l0 0c0 -2.282156 1.8500533 -4.13221 4.1322093 -4.13221l744.9324 0c1.0959473 0 2.1469727 0.43535614 2.921936 1.2102966c0.7749634 0.7749386 1.2103271 1.825983 1.2103271 2.9219131l0 55.074165c0 2.2821503 -1.8500977 4.132202 -4.132263 4.132202l-744.9324 0c-2.282156 0 -4.1322093 -1.8500519 -4.1322093 -4.132202z" fill-rule="evenodd"/><path stroke="#2563eb" stroke-width="4.0" stroke-linejoin="round" stroke-linecap="butt" d="m7.4015746 27.722761l0 0c0 -2.282156 1.8500533 -4.13221 4.1322093 -4.13221l744.9324 0c1.0959473 0 2.1469727 0.43535614 2.921936 1.2102966c0.7749634 0.7749386 1.2103271 1.825983 1.2103271 2.9219131l0 55.074165c0 2.2821503 -1.8500977 4.132202 -4.132263 4.132202l-744.9324 0c-2.282156 0 -4.1322093 -1.8500519 -4.1322093 -4.132202z" fill-rule="evenodd"/><path fill="#0c2969" d="m7.4015746 20.274122l0 0c0 -2.569271 2.0828052 -4.652075 4.6520743 -4.652075l743.8927 0c1.2338257 0 2.4170532 0.49012756 3.2894897 1.3625603c0.8724365 0.8724346 1.3626099 2.055708 1.3626099 3.2895145l0 62.002937c0 2.5692673 -2.0828247 4.652069 -4.6520996 4.652069l-743.8927 0c-2.5692692 0 -4.6520743 -2.0828018 -4.6520743 -4.652069z" fill-rule="evenodd"/><path stroke="#2563eb" stroke-width="4.0" stroke-linejoin="round" stroke-linecap="butt" d="m7.4015746 20.274122l0 0c0 -2.569271 2.0828052 -4.652075 4.6520743 -4.652075l743.8927 0c1.2338257 0 2.4170532 0.49012756 3.2894897 1.3625603c0.8724365 0.8724346 1.3626099 2.055708 1.3626099 3.2895145l0 62.002937c0 2.5692673 -2.0828247 4.652069 -4.6520996 4.652069l-743.8927 0c-2.5692692 0 -4.6520743 -2.0828018 -4.6520743 -4.652069z" fill-rule="evenodd"/><path fill="#ffffff" d="m352.86307 53.601837l3.9375 0q0.09375 0.578125 0.53125 1.015625q0.453125 0.421875 1.203125 0.65625q0.765625 0.234375 1.796875 0.234375q1.40625 0 2.21875 -0.359375q0.828125 -0.375 0.828125 -1.078125q0 -0.546875 -0.46875 -0.84375q-0.453125 -0.296875 -1.78125 -0.421875l-2.609375 -0.25q-2.890625 -0.25 -4.203125 -1.296875q-1.296875 -1.0625 -1.296875 -2.859375q0 -1.453125 0.84375 -2.453125q0.84375 -1.015625 2.375 -1.53125q1.546875 -0.515625 3.609375 -0.515625q2.0 0 3.5625 0.578125q1.578125 0.5625 2.5 1.609375q0.921875 1.046875 1.0 2.421875l-3.921875 0q-0.0625 -0.5 -0.46875 -0.859375q-0.40625 -0.359375 -1.09375 -0.5625q-0.6875 -0.203125 -1.65625 -0.203125q-1.3125 0 -2.078125 0.359375q-0.765625 0.34375 -0.765625 1.015625q0 0.484375 0.453125 0.78125q0.46875 0.296875 1.65625 0.40625l2.78125 0.28125q2.0 0.1875 3.1875 0.640625q1.203125 0.453125 1.734375 1.265625q0.546875 0.796875 0.546875 1.984375q0 1.484375 -0.875 2.578125q-0.875 1.078125 -2.46875 1.6875q-1.578125 0.609375 -3.6875 0.609375q-2.171875 0 -3.828125 -0.609375q-1.640625 -0.609375 -2.578125 -1.71875q-0.921875 -1.109375 -0.984375 -2.5625zm14.996704 -3.234375l0 -1.671875l2.171875 -0.875l1.640625 -3.15625l2.15625 0l0 2.875l4.484375 0l0 2.828125l-4.484375 0l0 3.125q0 1.15625 0.46875 1.625q0.46875 0.46875 1.703125 0.46875q0.78125 0 1.390625 -0.140625q0.609375 -0.140625 1.109375 -0.359375l0 2.859375q-0.5625 0.21875 -1.484375 0.375q-0.90625 0.171875 -1.875 0.171875q-1.78125 0 -2.90625 -0.53125q-1.125 -0.546875 -1.671875 -1.5625q-0.53125 -1.015625 -0.53125 -2.375l0 -3.65625l-2.171875 0zm21.550903 7.828125l-0.484375 -3.84375l0.5 -1.46875l-0.5 -1.484375l0.484375 -3.859375l3.953125 0l-0.671875 5.328125l0.671875 5.328125l-3.953125 0zm0.890625 -5.3125q-0.25 1.671875 -1.03125 2.953125q-0.78125 1.265625 -1.96875 1.96875q-1.171875 0.6875 -2.6875 0.6875q-1.5625 0 -2.75 -0.6875q-1.1875 -0.703125 -1.859375 -1.984375q-0.671875 -1.28125 -0.671875 -2.9375q0 -1.703125 0.671875 -2.96875q0.671875 -1.265625 1.859375 -1.96875q1.1875 -0.71875 2.75 -0.71875q1.515625 0 2.6875 0.703125q1.1875 0.6875 1.96875 1.953125q0.796875 1.265625 1.03125 3.0zm-7.109375 0q0 0.78125 0.328125 1.40625q0.328125 0.609375 0.90625 0.953125q0.578125 0.34375 1.328125 0.34375q0.78125 0 1.46875 -0.34375q0.6875 -0.34375 1.203125 -0.953125q0.53125 -0.625 0.796875 -1.40625q-0.265625 -0.8125 -0.796875 -1.421875q-0.515625 -0.609375 -1.203125 -0.96875q-0.6875 -0.359375 -1.46875 -0.359375q-0.75 0 -1.328125 0.359375q-0.578125 0.359375 -0.90625 0.96875q-0.328125 0.609375 -0.328125 1.421875zm11.503815 -5.34375l3.875 0l0.640625 3.8125l0 6.84375l-3.8125 0l0 -7.078125l-0.703125 -3.578125zm9.515625 -0.171875l0 3.25q-0.5625 -0.109375 -1.0625 -0.15625q-0.5 -0.046875 -0.90625 -0.046875q-0.8125 0 -1.515625 0.328125q-0.6875 0.328125 -1.109375 1.078125q-0.40625 0.734375 -0.40625 1.984375l-0.734375 -0.890625q0.15625 -1.15625 0.453125 -2.171875q0.296875 -1.015625 0.796875 -1.8125q0.515625 -0.796875 1.28125 -1.25q0.765625 -0.453125 1.875 -0.453125q0.3125 0 0.640625 0.046875q0.34375 0.03125 0.6875 0.09375zm0.4571228 3.0l0 -1.671875l2.171875 -0.875l1.640625 -3.15625l2.15625 0l0 2.875l4.484375 0l0 2.828125l-4.484375 0l0 3.125q0 1.15625 0.46875 1.625q0.46875 0.46875 1.703125 0.46875q0.78125 0 1.390625 -0.140625q0.609375 -0.140625 1.109375 -0.359375l0 2.859375q-0.5625 0.21875 -1.484375 0.375q-0.90625 0.171875 -1.875 0.171875q-1.78125 0 -2.90625 -0.53125q-1.125 -0.546875 -1.671875 -1.5625q-0.53125 -1.015625 -0.53125 -2.375l0 -3.65625l-2.171875 0z" fill-rule="nonzero"/></g></svg>