<svg version="1.1" viewBox="0.0 0.0 288.0 384.0" fill="none" stroke="none" stroke-linecap="square" stroke-miterlimit="10" xmlns:xlink="http://www.w3.org/1999/xlink" xmlns="http://www.w3.org/2000/svg"><clipPath id="g3a72db97a13_0_2151.0"><path d="m0 0l288.0 0l0 384.0l-288.0 0l0 -384.0z" clip-rule="nonzero"/></clipPath><g clip-path="url(#g3a72db97a13_0_2151.0)"><path fill="#161d25" d="m0 0l288.0 0l0 384.0l-288.0 0z" fill-rule="evenodd"/><path fill="#51de18" d="m5.7007875 34.135216l0 0c0 -9.966135 8.079147 -18.045282 18.04528 -18.045282l240.50787 0c4.7858887 0 9.375793 1.9011936 12.759949 5.2853394c3.3841248 3.3841476 5.2853394 7.9740353 5.2853394 12.759943l0 324.2244c0 9.9661255 -8.079163 18.045288 -18.045288 18.045288l-240.50787 0l0 0c-9.966134 0 -18.04528 -8.079163 -18.04528 -18.045288z" fill-rule="evenodd"/><path stroke="#51de18" stroke-width="4.0" stroke-linejoin="round" stroke-linecap="butt" d="m5.7007875 34.135216l0 0c0 -9.966135 8.079147 -18.045282 18.04528 -18.045282l240.50787 0c4.7858887 0 9.375793 1.9011936 12.759949 5.2853394c3.3841248 3.3841476 5.2853394 7.9740353 5.2853394 12.759943l0 324.2244c0 9.9661255 -8.079163 18.045288 -18.045288 18.045288l-240.50787 0l0 0c-9.966134 0 -18.04528 -8.079163 -18.04528 -18.045288z" fill-rule="evenodd"/><path fill="#1f5d07" d="m5.7007875 25.639769l0 0c0 -9.966133 8.079147 -18.04528 18.04528 -18.04528l240.50787 0c4.7858887 0 9.375793 1.9011936 12.759949 5.2853403c3.3841248 3.3841467 5.2853394 7.9740343 5.2853394 12.75994l0 324.2244c0 9.9661255 -8.079163 18.045288 -18.045288 18.045288l-240.50787 0l0 0c-9.966134 0 -18.04528 -8.079163 -18.04528 -18.045288z" fill-rule="evenodd"/><path stroke="#51de18" stroke-width="4.0" stroke-linejoin="round" stroke-linecap="butt" d="m5.7007875 25.639769l0 0c0 -9.966133 8.079147 -18.04528 18.04528 -18.04528l240.50787 0c4.7858887 0 9.375793 1.9011936 12.759949 5.2853403c3.3841248 3.3841467 5.2853394 7.9740343 5.2853394 12.75994l0 324.2244c0 9.9661255 -8.079163 18.045288 -18.045288 18.045288l-240.50787 0l0 0c-9.966134 0 -18.04528 -8.079163 -18.04528 -18.045288z" fill-rule="evenodd"/><path fill="#000000" fill-opacity="0.0" d="m21.700787 315.7533l266.29922 0l0 38.771637l-266.29922 0z" fill-rule="evenodd"/><path fill="#ffffff" d="m31.278912 336.17578l3.375 0q0.078125 0.5 0.453125 0.875q0.390625 0.359375 1.03125 0.5625q0.65625 0.203125 1.53125 0.203125q1.21875 0 1.921875 -0.3125q0.703125 -0.3125 0.703125 -0.921875q0 -0.46875 -0.40625 -0.71875q-0.390625 -0.265625 -1.53125 -0.375l-2.234375 -0.203125q-2.484375 -0.234375 -3.609375 -1.125q-1.109375 -0.90625 -1.109375 -2.453125q0 -1.234375 0.71875 -2.09375q0.734375 -0.875 2.046875 -1.3125q1.328125 -0.4375 3.09375 -0.4375q1.71875 0 3.0625 0.484375q1.34375 0.484375 2.140625 1.390625q0.796875 0.890625 0.859375 2.078125l-3.359375 0q-0.0625 -0.4375 -0.40625 -0.75q-0.34375 -0.3125 -0.9375 -0.484375q-0.59375 -0.171875 -1.421875 -0.171875q-1.125 0 -1.78125 0.296875q-0.65625 0.296875 -0.65625 0.875q0 0.421875 0.390625 0.6875q0.390625 0.25 1.421875 0.34375l2.375 0.234375q1.71875 0.15625 2.734375 0.5625q1.03125 0.390625 1.484375 1.078125q0.46875 0.6875 0.46875 1.703125q0 1.265625 -0.75 2.203125q-0.75 0.9375 -2.109375 1.453125q-1.359375 0.515625 -3.171875 0.515625q-1.84375 0 -3.265625 -0.515625q-1.421875 -0.515625 -2.21875 -1.46875q-0.796875 -0.953125 -0.84375 -2.203125zm12.85965 -2.78125l0 -1.421875l1.859375 -0.75l1.40625 -2.703125l1.859375 0l0 2.453125l3.84375 0l0 2.421875l-3.84375 0l0 2.6875q0 0.984375 0.390625 1.390625q0.40625 0.40625 1.46875 0.40625q0.671875 0 1.1875 -0.125q0.515625 -0.125 0.953125 -0.3125l0 2.46875q-0.484375 0.171875 -1.265625 0.3125q-0.78125 0.140625 -1.609375 0.140625q-1.53125 0 -2.5 -0.453125q-0.96875 -0.46875 -1.4375 -1.34375q-0.453125 -0.875 -0.453125 -2.03125l0 -3.140625l-1.859375 0zm15.610031 6.96875q-1.765625 0 -3.078125 -0.59375q-1.3125 -0.59375 -2.046875 -1.6875q-0.734375 -1.109375 -0.734375 -2.53125q0 -1.453125 0.734375 -2.53125q0.734375 -1.09375 2.046875 -1.703125q1.3125 -0.609375 3.078125 -0.609375q1.734375 0 3.046875 0.609375q1.3281288 0.609375 2.0625038 1.703125q0.734375 1.078125 0.734375 2.53125q0 1.421875 -0.734375 2.53125q-0.734375 1.09375 -2.0625038 1.6875q-1.3125 0.59375 -3.046875 0.59375zm0 -2.40625q0.796875 0 1.359375 -0.28125q0.5625 -0.296875 0.859375 -0.84375q0.3125 -0.546875 0.3125 -1.28125q0 -0.765625 -0.3125 -1.296875q-0.296875 -0.546875 -0.859375 -0.828125q-0.5625 -0.28125 -1.359375 -0.28125q-0.8125 0 -1.390625 0.28125q-0.5625 0.28125 -0.875 0.828125q-0.296875 0.53125 -0.296875 1.28125q0 0.75 0.296875 1.296875q0.3125 0.546875 0.875 0.84375q0.578125 0.28125 1.390625 0.28125zm6.733036 -6.984375l3.28125 0l0.59375 3.65625l0 5.484375l-3.265625 0l0 -5.984375l-0.609375 -3.15625zm7.015625 -0.265625q1.265625 0 2.140625 0.53125q0.890625 0.515625 1.34375 1.484375q0.46875 0.953125 0.46875 2.265625l0 5.125l-3.265625 0l0 -4.640625q0 -1.015625 -0.46875 -1.5625q-0.453125 -0.546875 -1.328125 -0.546875q-0.625 0 -1.09375 0.296875q-0.453125 0.28125 -0.703125 0.8125q-0.234375 0.515625 -0.234375 1.234375l-1.015625 -0.515625q0.1875 -1.46875 0.78125 -2.46875q0.59375 -1.0 1.46875 -1.5q0.875 -0.515625 1.90625 -0.515625zm7.09375 0q1.265625 0 2.140625 0.53125q0.890625 0.515625 1.359375 1.484375q0.46875 0.953125 0.46875 2.265625l0 5.125l-3.265625 0l0 -4.640625q0 -1.015625 -0.46875 -1.5625q-0.453125 -0.546875 -1.34375 -0.546875q-0.625 0 -1.078125 0.296875q-0.453125 0.28125 -0.703125 0.8125q-0.25 0.515625 -0.25 1.234375l-1.0 -0.515625q0.1875 -1.46875 0.765625 -2.46875q0.59375 -1.0 1.46875 -1.5q0.875 -0.515625 1.90625 -0.515625zm13.906158 9.40625l-0.421875 -3.296875l0.4375 -1.265625l-0.4375 -1.265625l0.421875 -3.3125l3.390625 0l-0.578125 4.5625l0.578125 4.578125l-3.390625 0zm0.765625 -4.5625q-0.21875 1.4375 -0.890625 2.53125q-0.65625 1.09375 -1.671875 1.6875q-1.015625 0.59375 -2.3125 0.59375q-1.34375 0 -2.375 -0.59375q-1.015625 -0.59375 -1.59375 -1.6875q-0.5625 -1.109375 -0.5625 -2.53125q0 -1.453125 0.5625 -2.53125q0.578125 -1.09375 1.59375 -1.703125q1.03125 -0.609375 2.375 -0.609375q1.296875 0 2.3125 0.609375q1.015625 0.59375 1.6875 1.671875q0.671875 1.078125 0.875 2.5625zm-6.09375 0q0 0.671875 0.28125 1.203125q0.28125 0.53125 0.765625 0.828125q0.5 0.296875 1.140625 0.296875q0.671875 0 1.265625 -0.296875q0.59375 -0.296875 1.03125 -0.828125q0.453125 -0.53125 0.671875 -1.203125q-0.21875 -0.6875 -0.671875 -1.203125q-0.4375 -0.53125 -1.03125 -0.828125q-0.59375 -0.3125 -1.265625 -0.3125q-0.640625 0 -1.140625 0.3125q-0.484375 0.296875 -0.765625 0.828125q-0.28125 0.515625 -0.28125 1.203125zm21.104782 0.703125q-0.140625 1.234375 -0.90625 2.171875q-0.765625 0.921875 -1.984375 1.4375q-1.21875 0.5 -2.75 0.5q-1.671875 0 -2.953125 -0.59375q-1.28125 -0.609375 -2.0 -1.703125q-0.71875 -1.09375 -0.71875 -2.515625q0 -1.4375 0.71875 -2.515625q0.71875 -1.09375 2.0 -1.703125q1.28125 -0.625 2.953125 -0.625q1.53125 0 2.75 0.515625q1.21875 0.515625 1.984375 1.4375q0.765625 0.921875 0.90625 2.171875l-3.25 0q-0.171875 -0.8125 -0.8125 -1.25q-0.640625 -0.4375 -1.578125 -0.4375q-0.71875 0 -1.25 0.28125q-0.53125 0.265625 -0.828125 0.8125q-0.296875 0.53125 -0.296875 1.3125q0 0.765625 0.296875 1.3125q0.296875 0.53125 0.828125 0.8125q0.53125 0.28125 1.25 0.28125q0.9375 0 1.578125 -0.46875q0.65625 -0.46875 0.8125 -1.234375l3.25 0zm1.2857819 -8.453125l3.28125 0l0 12.3125l-3.28125 0l0 -12.3125zm6.625 2.90625q1.328125 0 2.25 0.53125q0.921875 0.515625 1.421875 1.484375q0.5 0.953125 0.5 2.265625l0 5.125l-3.28125 0l0 -4.640625q0 -1.015625 -0.53125 -1.5625q-0.515625 -0.546875 -1.484375 -0.546875q-0.671875 0 -1.1875 0.296875q-0.5 0.28125 -0.765625 0.8125q-0.265625 0.515625 -0.265625 1.234375l-1.015625 -0.515625q0.1875 -1.46875 0.8125 -2.46875q0.625 -1.0 1.546875 -1.5q0.921875 -0.515625 2.0 -0.515625z" fill-rule="nonzero"/><path fill="#ffffff" d="m131.5163 336.95703q0 -0.84375 0.171875 -1.765625q0.171875 -0.921875 0.46875 -1.78125q0.3125 -0.875 0.703125 -1.515625l0.859375 0q-0.40625 0.8125 -0.703125 1.703125q-0.296875 0.875 -0.453125 1.75q-0.15625 0.859375 -0.15625 1.609375q0 0.671875 0.140625 1.390625q0.140625 0.703125 0.421875 1.5q0.296875 0.78125 0.75 1.71875l-0.859375 0q-0.671875 -1.125 -1.015625 -2.296875q-0.328125 -1.171875 -0.328125 -2.3125z" fill-rule="nonzero"/><path fill="#ffffff" d="m141.76059 335.95703l-1.46875 0.09375q-0.0625 -0.28125 -0.3125 -0.484375q-0.25 -0.203125 -0.671875 -0.203125q-0.359375 0 -0.625 0.15625q-0.25 0.15625 -0.25 0.421875q0 0.203125 0.15625 0.359375q0.171875 0.140625 0.578125 0.234375l1.046875 0.203125q0.859375 0.171875 1.265625 0.5625q0.421875 0.375 0.421875 1.0q0 0.578125 -0.34375 1.015625q-0.328125 0.421875 -0.90625 0.671875q-0.578125 0.234375 -1.34375 0.234375q-1.140625 0 -1.828125 -0.484375q-0.6875 -0.484375 -0.796875 -1.3125l1.578125 -0.078125q0.078125 0.359375 0.34375 0.546875q0.28125 0.171875 0.703125 0.171875q0.421875 0 0.6875 -0.15625q0.265625 -0.171875 0.265625 -0.4375q0 -0.421875 -0.75 -0.578125l-1.0 -0.203125q-0.84375 -0.171875 -1.265625 -0.578125q-0.421875 -0.421875 -0.421875 -1.078125q0 -0.5625 0.3125 -0.96875q0.3125 -0.40625 0.859375 -0.625q0.5625 -0.21875 1.296875 -0.21875q1.109375 0 1.734375 0.46875q0.640625 0.46875 0.734375 1.265625zm3.9007416 -1.65625l0 1.21875l-3.5 0l0 -1.21875l3.5 0zm-2.703125 -1.390625l1.609375 0l0 5.40625q0 0.296875 0.125 0.4375q0.125 0.140625 0.40625 0.140625q0.09375 0 0.203125 -0.015625q0.125 -0.015625 0.203125 -0.046875l0.265625 1.21875q-0.265625 0.078125 -0.515625 0.109375q-0.25 0.03125 -0.484375 0.03125q-0.875 0 -1.34375 -0.421875q-0.46875 -0.4375 -0.46875 -1.234375l0 -5.625zm7.131714 4.734375l0 -3.34375l1.609375 0l0 5.8125l-1.546875 0l0 -1.0625l-0.0625 0q-0.203125 0.515625 -0.65625 0.828125q-0.453125 0.3125 -1.109375 0.3125q-0.578125 0 -1.03125 -0.265625q-0.4375 -0.265625 -0.6875 -0.75q-0.25 -0.5 -0.25 -1.171875l0 -3.703125l1.609375 0l0 3.421875q0 0.5 0.28125 0.8125q0.28125 0.296875 0.734375 0.28125q0.28125 0 0.53125 -0.125q0.25 -0.140625 0.40625 -0.40625q0.171875 -0.265625 0.171875 -0.640625zm4.155319 -0.890625l0 3.359375l-1.609375 0l0 -7.75l1.5625 0l0 2.96875l0.078125 0q0.1875 -0.515625 0.625 -0.8125q0.4375 -0.296875 1.109375 -0.296875q0.59375 0 1.046875 0.265625q0.453125 0.265625 0.703125 0.75q0.265625 0.484375 0.265625 1.171875l0 3.703125l-1.625 0l0 -3.40625q0 -0.546875 -0.28125 -0.84375q-0.265625 -0.296875 -0.75 -0.296875q-0.34375 0 -0.59375 0.140625q-0.234375 0.140625 -0.390625 0.40625q-0.140625 0.265625 -0.140625 0.640625z" fill-rule="nonzero"/><path fill="#ffffff" d="m163.74182 338.6914q-0.453125 0 -0.84375 -0.21875q-0.375 -0.234375 -0.609375 -0.609375q-0.21875 -0.390625 -0.21875 -0.84375q0 -0.453125 0.21875 -0.828125q0.234375 -0.390625 0.609375 -0.609375q0.390625 -0.21875 0.84375 -0.21875q0.453125 0 0.828125 0.21875q0.390625 0.21875 0.609375 0.609375q0.21875 0.375 0.21875 0.828125q0 0.453125 -0.21875 0.84375q-0.21875 0.375 -0.609375 0.609375q-0.375 0.21875 -0.828125 0.21875zm5.320801 1.421875l0 -5.8125l0.84375 0l0 0.90625l0.09375 0q0.171875 -0.46875 0.578125 -0.71875q0.40625 -0.265625 0.96875 -0.265625q0.578125 0 0.953125 0.265625q0.390625 0.25 0.609375 0.71875l0.0625 0q0.21875 -0.453125 0.65625 -0.71875q0.453125 -0.265625 1.078125 -0.265625q0.78125 0 1.28125 0.484375q0.5 0.484375 0.5 1.515625l0 3.890625l-0.890625 0l0 -3.890625q0 -0.640625 -0.359375 -0.921875q-0.359375 -0.28125 -0.828125 -0.28125q-0.609375 0 -0.953125 0.375q-0.328125 0.375 -0.328125 0.9375l0 3.78125l-0.921875 0l0 -3.984375q0 -0.5 -0.328125 -0.796875q-0.3125 -0.3125 -0.8125 -0.3125q-0.34375 0 -0.65625 0.1875q-0.296875 0.1875 -0.484375 0.515625q-0.1875 0.328125 -0.1875 0.765625l0 3.625l-0.875 0zm12.428925 -2.375l0 -3.4375l0.890625 0l0 5.8125l-0.890625 0l0 -0.984375l-0.0625 0q-0.203125 0.4375 -0.640625 0.75q-0.421875 0.3125 -1.078125 0.3125q-0.546875 0 -0.96875 -0.234375q-0.421875 -0.25 -0.671875 -0.734375q-0.234375 -0.484375 -0.234375 -1.234375l0 -3.6875l0.875 0l0 3.640625q0 0.625 0.359375 1.015625q0.375 0.375 0.921875 0.359375q0.328125 0 0.671875 -0.15625q0.359375 -0.171875 0.59375 -0.515625q0.234375 -0.359375 0.234375 -0.90625zm2.9111023 -1.125l0 3.5l-0.875 0l0 -7.75l0.875 0l0 2.84375l0.09375 0q0.203125 -0.453125 0.609375 -0.71875q0.40625 -0.265625 1.09375 -0.265625q0.59375 0 1.03125 0.234375q0.453125 0.234375 0.703125 0.734375q0.25 0.484375 0.25 1.234375l0 3.6875l-0.890625 0l0 -3.625q0 -0.703125 -0.359375 -1.078125q-0.359375 -0.390625 -1.0 -0.390625q-0.4375 0 -0.78125 0.1875q-0.34375 0.1875 -0.546875 0.546875q-0.203125 0.359375 -0.203125 0.859375zm5.7599487 1.375l-0.015625 -1.09375l0.1875 0l2.53125 -2.59375l1.109375 0l-2.703125 2.75l-0.09375 0l-1.015625 0.9375zm-0.828125 2.125l0 -7.75l0.875 0l0 7.75l-0.875 0zm3.671875 0l-2.265625 -2.875l0.640625 -0.625l2.78125 3.5l-1.15625 0zm1.2969055 1.453125q0.453125 -0.9375 0.734375 -1.71875q0.296875 -0.796875 0.4375 -1.5q0.140625 -0.71875 0.140625 -1.390625q0 -0.75 -0.15625 -1.609375q-0.15625 -0.875 -0.453125 -1.75q-0.296875 -0.890625 -0.703125 -1.703125l0.859375 0q0.40625 0.640625 0.703125 1.515625q0.296875 0.859375 0.46875 1.78125q0.171875 0.921875 0.171875 1.765625q0 1.140625 -0.34375 2.3125q-0.328125 1.171875 -1.0 2.296875l-0.859375 0z" fill-rule="nonzero"/><path fill="#51de18" d="m92.04496 187.9615l0 0c0 -2.841507 2.3034973 -5.1450043 5.1449966 -5.1450043l20.579376 0l0 0c1.3645401 0 2.6731873 0.5420685 3.6380615 1.5069427c0.96487427 0.96487427 1.5069351 2.2735138 1.5069351 3.6380615l0 20.579376c0 2.841507 -2.3034897 5.144989 -5.1449966 5.144989l-20.579376 0c-2.8414993 0 -5.1449966 -2.303482 -5.1449966 -5.144989z" fill-rule="evenodd"/><path fill="#51de18" d="m101.378555 204.5967l0 0c0 -4.0982056 3.3222504 -7.4204407 7.4204483 -7.4204407l43.310005 0c1.9680328 0 3.8554535 0.78178406 5.247055 2.1733856c1.3916016 1.3916168 2.1734009 3.2790375 2.1734009 5.247055l0 29.680893c0 4.0982056 -3.3222504 7.4204407 -7.420456 7.4204407l-43.310005 0l0 0c-4.098198 0 -7.4204483 -3.322235 -7.4204483 -7.4204407z" fill-rule="evenodd"/><path fill="#51de18" d="m132.96838 113.41422l0 0c0 -1.7177734 1.3925171 -3.1102982 3.1102905 -3.1102982l12.440811 0l0 0c0.8249054 0 1.6160278 0.32769012 2.1993103 0.91098785c0.5832977 0.5832901 0.9109955 1.3744049 0.9109955 2.1993103l0 38.301186c0 1.7177734 -1.3925323 3.1103058 -3.1103058 3.1103058l-12.440811 0c-1.7177734 0 -3.1102905 -1.3925323 -3.1102905 -3.1103058z" fill-rule="evenodd"/><path fill="#51de18" d="m127.94233 142.13512l0 0c0 -4.0981903 3.3222427 -7.4204407 7.4204483 -7.4204407l69.17038 0c1.9680328 0 3.8554535 0.7817993 5.247055 2.1734009c1.3916016 1.3916016 2.1734009 3.2790222 2.1734009 5.24704l0 29.680908c0 4.0981903 -3.3222504 7.4204407 -7.420456 7.4204407l-69.17038 0c-4.0982056 0 -7.4204483 -3.3222504 -7.4204483 -7.4204407z" fill-rule="evenodd"/><path fill="#51de18" d="m146.60835 167.24504l0 0c0 -4.956009 4.017639 -8.973648 8.973648 -8.973648l35.89354 0l0 0c2.379959 0 4.662445 0.9454346 6.345337 2.6283264c1.6828766 1.6828766 2.6283112 3.9653625 2.6283112 6.3453217l0 51.805832c0 4.956009 -4.017639 8.973648 -8.973648 8.973648l-35.89354 0c-4.956009 0 -8.973648 -4.017639 -8.973648 -8.973648z" fill-rule="evenodd"/><path fill="#51de18" d="m96.97171 189.51218l0 0c0 -0.8685303 0.7040863 -1.5726166 1.5726166 -1.5726166l6.2902985 0l0 0c0.41709137 0 0.8170929 0.16567993 1.1120148 0.4606018c0.29492188 0.29493713 0.46060944 0.69493103 0.46060944 1.1120148l0 11.136215c0 0.8685303 -0.7040863 1.5726166 -1.5726242 1.5726166l-6.2902985 0c-0.8685303 0 -1.5726166 -0.7040863 -1.5726166 -1.5726166z" fill-rule="evenodd"/><path fill="#51de18" d="m101.378555 215.59848l0 0c0 -1.0551147 0.85533905 -1.9104462 1.9104462 -1.9104462l7.641548 0l0 0c0.50668335 0 0.9926071 0.20127869 1.3508911 0.55955505c0.35827637 0.35827637 0.55955505 0.84420776 0.55955505 1.3508911l0 24.182861c0 1.0551147 -0.85533905 1.9104462 -1.9104462 1.9104462l-7.641548 0c-1.0551071 0 -1.9104462 -0.8553314 -1.9104462 -1.9104462z" fill-rule="evenodd"/><path fill="#51de18" d="m106.22586 225.16801l0 0c0 -0.70983887 0.57543945 -1.2852783 1.2852783 -1.2852783l28.298813 0c0.34088135 0 0.66778564 0.13542175 0.90882874 0.37644958c0.24102783 0.24104309 0.37644958 0.5679474 0.37644958 0.90882874l0 5.1409607c0 0.70983887 -0.57543945 1.2852783 -1.2852783 1.2852783l-28.298813 0l0 0c-0.70983887 0 -1.2852783 -0.57543945 -1.2852783 -1.2852783z" fill-rule="evenodd"/><path fill="#51de18" d="m186.89972 175.90633l0 0c0 -1.2481232 1.011795 -2.2599182 2.2599182 -2.2599182l9.039383 0l0 0c0.59936523 0 1.1741943 0.23809814 1.5980072 0.661911c0.42381287 0.42381287 0.661911 0.99864197 0.661911 1.5980072l0 49.856842c0 1.2481232 -1.011795 2.2599182 -2.2599182 2.2599182l-9.039383 0c-1.2481232 0 -2.2599182 -1.011795 -2.2599182 -2.2599182z" fill-rule="evenodd"/><path fill="#51de18" d="m172.27136 167.39957l0 0c0 -0.70983887 0.57543945 -1.2852783 1.2852783 -1.2852783l12.0603485 0c0.34088135 0 0.6678009 0.1354065 0.90882874 0.37644958c0.24104309 0.24102783 0.37644958 0.5679474 0.37644958 0.90882874l0 5.1409607c0 0.70983887 -0.5754242 1.2852783 -1.2852783 1.2852783l-12.0603485 0l0 0c-0.70983887 0 -1.2852783 -0.57543945 -1.2852783 -1.2852783z" fill-rule="evenodd"/><path fill="#51de18" d="m139.34207 199.13329l0 0c0 -1.0808411 0.8761902 -1.9570312 1.9570465 -1.9570312l10.716827 0c0.51904297 0 1.0168304 0.20617676 1.3838348 0.5731964c0.36701965 0.36701965 0.57321167 0.8648071 0.57321167 1.3838348l0 7.8279266c0 1.0808563 -0.87620544 1.9570465 -1.9570465 1.9570465l-10.716827 0l0 0c-1.0808563 0 -1.9570465 -0.8761902 -1.9570465 -1.9570465z" fill-rule="evenodd"/><path fill="#51de18" d="m146.60835 160.41093l0 0c0 -1.1816406 0.957901 -2.1395416 2.1395416 -2.1395416l8.557907 0l0 0c0.56744385 0 1.1116486 0.22541809 1.5128937 0.6266632c0.40124512 0.40122986 0.62664795 0.9454346 0.62664795 1.5128784l0 34.627975c0 1.1816254 -0.957901 2.1395416 -2.1395416 2.1395416l-8.557907 0c-1.1816406 0 -2.1395416 -0.95791626 -2.1395416 -2.1395416z" fill-rule="evenodd"/><path fill="#51de18" d="m172.27136 198.73271l0 0c0 -1.3467712 1.0917664 -2.4385376 2.4385376 -2.4385376l9.753845 0l0 0c0.6467285 0 1.266983 0.25691223 1.7243042 0.7142334c0.4573059 0.4573059 0.71421814 1.0775604 0.71421814 1.7243042l0 16.789734c0 1.346756 -1.0917664 2.4385223 -2.4385223 2.4385223l-9.753845 0c-1.3467712 0 -2.4385376 -1.0917664 -2.4385376 -2.4385223z" fill-rule="evenodd"/><path fill="#51de18" d="m151.62856 136.46591l0 0c0 -0.96717834 0.7840576 -1.751236 1.7512512 -1.751236l30.954727 0c0.46444702 0 0.9098816 0.18450928 1.2383118 0.5129242c0.32841492 0.32843018 0.5129242 0.77386475 0.5129242 1.2383118l0 7.0047607c0 0.96717834 -0.7840576 1.751236 -1.751236 1.751236l-30.954727 0c-0.9671936 0 -1.7512512 -0.7840576 -1.7512512 -1.751236z" fill-rule="evenodd"/><path fill="#51de18" d="m127.94233 167.3216l0 0c0 -1.3146057 1.0656967 -2.3802948 2.3802872 -2.3802948l13.900833 0c0.6312866 0 1.2367249 0.2507782 1.6831207 0.6971741c0.44638062 0.44638062 0.6971588 1.0518188 0.6971588 1.6831207l0 9.520859c0 1.3146057 -1.0656891 2.3802948 -2.3802795 2.3802948l-13.900833 0l0 0c-1.3145905 0 -2.3802872 -1.0656891 -2.3802872 -2.3802948z" fill-rule="evenodd"/><path fill="#e03027" d="m76.04496 171.9615l0 0c0 -2.841507 2.3034973 -5.1450043 5.1449966 -5.1450043l20.579376 0l0 0c1.3645401 0 2.6731873 0.5420685 3.6380615 1.5069427c0.96487427 0.96487427 1.5069351 2.2735138 1.5069351 3.6380615l0 20.579376c0 2.841507 -2.3034897 5.144989 -5.1449966 5.144989l-20.579376 0c-2.8414993 0 -5.1449966 -2.303482 -5.1449966 -5.144989z" fill-rule="evenodd"/><path fill="#e03027" d="m85.378555 188.5967l0 0c0 -4.0982056 3.3222504 -7.4204407 7.4204483 -7.4204407l43.310005 0c1.9680328 0 3.8554535 0.78178406 5.247055 2.1733856c1.3916016 1.3916168 2.1734009 3.2790375 2.1734009 5.247055l0 29.680893c0 4.0982056 -3.3222504 7.4204407 -7.420456 7.4204407l-43.310005 0l0 0c-4.098198 0 -7.4204483 -3.322235 -7.4204483 -7.4204407z" fill-rule="evenodd"/><path fill="#fb5c4e" d="m116.968376 97.41422l0 0c0 -1.7177734 1.3925323 -3.1102982 3.1102982 -3.1102982l12.440811 0l0 0c0.8249054 0 1.6160278 0.32769012 2.1993103 0.91098785c0.5832977 0.5832901 0.9109955 1.3744049 0.9109955 2.1993103l0 38.301186c0 1.7177734 -1.3925323 3.1103058 -3.1103058 3.1103058l-12.440811 0c-1.7177658 0 -3.1102982 -1.3925323 -3.1102982 -3.1103058z" fill-rule="evenodd"/><path fill="#fb5c4e" d="m111.94233 126.135124l0 0c0 -4.098198 3.3222427 -7.4204483 7.4204407 -7.4204483l69.17039 0c1.9680328 0 3.8554535 0.7817993 5.247055 2.1734009c1.3916016 1.3916016 2.1734009 3.2790222 2.1734009 5.2470474l0 29.6809c0 4.0981903 -3.3222504 7.4204407 -7.420456 7.4204407l-69.17039 0c-4.098198 0 -7.4204407 -3.3222504 -7.4204407 -7.4204407z" fill-rule="evenodd"/><path fill="#f73d35" d="m130.60835 151.24504l0 0c0 -4.956009 4.017639 -8.973648 8.973648 -8.973648l35.89354 0l0 0c2.379959 0 4.662445 0.9454346 6.345337 2.6283264c1.6828766 1.6828766 2.6283112 3.9653625 2.6283112 6.3453217l0 51.805832c0 4.956009 -4.017639 8.973648 -8.973648 8.973648l-35.89354 0c-4.956009 0 -8.973648 -4.017639 -8.973648 -8.973648z" fill-rule="evenodd"/><path fill="#f73d35" d="m80.97171 173.51218l0 0c0 -0.8685303 0.7040863 -1.5726166 1.5726166 -1.5726166l6.2902985 0l0 0c0.41709137 0 0.8170929 0.16567993 1.1120148 0.4606018c0.29492188 0.29493713 0.46060944 0.69493103 0.46060944 1.1120148l0 11.136215c0 0.8685303 -0.7040863 1.5726166 -1.5726242 1.5726166l-6.2902985 0c-0.8685303 0 -1.5726166 -0.7040863 -1.5726166 -1.5726166z" fill-rule="evenodd"/><path fill="#f73d35" d="m85.378555 199.59848l0 0c0 -1.0551147 0.85533905 -1.9104462 1.9104462 -1.9104462l7.641548 0l0 0c0.50668335 0 0.9926071 0.20127869 1.3508911 0.55955505c0.35827637 0.35827637 0.55955505 0.84420776 0.55955505 1.3508911l0 24.182861c0 1.0551147 -0.85533905 1.9104462 -1.9104462 1.9104462l-7.641548 0c-1.0551071 0 -1.9104462 -0.8553314 -1.9104462 -1.9104462z" fill-rule="evenodd"/><path fill="#f73d35" d="m90.22586 209.16801l0 0c0 -0.70983887 0.57543945 -1.2852783 1.2852783 -1.2852783l28.298813 0c0.34087372 0 0.6677933 0.13542175 0.90882874 0.37644958c0.24103546 0.24104309 0.37644958 0.5679474 0.37644958 0.90882874l0 5.1409607c0 0.70983887 -0.57543945 1.2852783 -1.2852783 1.2852783l-28.298813 0l0 0c-0.70983887 0 -1.2852783 -0.57543945 -1.2852783 -1.2852783z" fill-rule="evenodd"/><path fill="#e03027" d="m170.89972 159.90633l0 0c0 -1.2481232 1.011795 -2.2599182 2.2599182 -2.2599182l9.039383 0l0 0c0.59936523 0 1.1741943 0.23809814 1.5980072 0.661911c0.42381287 0.42381287 0.661911 0.99864197 0.661911 1.5980072l0 49.856842c0 1.2481232 -1.011795 2.2599182 -2.2599182 2.2599182l-9.039383 0c-1.2481232 0 -2.2599182 -1.011795 -2.2599182 -2.2599182z" fill-rule="evenodd"/><path fill="#e03027" d="m156.27136 151.39957l0 0c0 -0.70983887 0.57543945 -1.2852783 1.2852783 -1.2852783l12.0603485 0c0.34088135 0 0.6678009 0.1354065 0.90882874 0.37644958c0.24104309 0.24102783 0.37644958 0.5679474 0.37644958 0.90882874l0 5.1409607c0 0.70983887 -0.5754242 1.2852783 -1.2852783 1.2852783l-12.0603485 0l0 0c-0.70983887 0 -1.2852783 -0.57543945 -1.2852783 -1.2852783z" fill-rule="evenodd"/><path fill="#f73d35" d="m123.34207 183.13329l0 0c0 -1.0808411 0.8761978 -1.9570312 1.9570389 -1.9570312l10.716835 0c0.51904297 0 1.0168304 0.20617676 1.3838348 0.5731964c0.36701965 0.36701965 0.57321167 0.8648071 0.57321167 1.3838348l0 7.8279266c0 1.0808563 -0.87620544 1.9570465 -1.9570465 1.9570465l-10.716835 0l0 0c-1.0808411 0 -1.9570389 -0.8761902 -1.9570389 -1.9570465z" fill-rule="evenodd"/><path fill="#fb5c4e" d="m130.60835 144.41093l0 0c0 -1.1816406 0.957901 -2.1395416 2.1395416 -2.1395416l8.557907 0l0 0c0.56744385 0 1.1116486 0.22541809 1.5128937 0.6266632c0.40124512 0.40122986 0.62664795 0.9454346 0.62664795 1.5128784l0 34.627975c0 1.1816254 -0.957901 2.1395416 -2.1395416 2.1395416l-8.557907 0c-1.1816406 0 -2.1395416 -0.95791626 -2.1395416 -2.1395416z" fill-rule="evenodd"/><path fill="#fb5c4e" d="m156.27136 182.73271l0 0c0 -1.3467712 1.0917664 -2.4385376 2.4385376 -2.4385376l9.753845 0l0 0c0.6467285 0 1.266983 0.25691223 1.7243042 0.7142334c0.4573059 0.4573059 0.71421814 1.0775604 0.71421814 1.7243042l0 16.789734c0 1.346756 -1.0917664 2.4385223 -2.4385223 2.4385223l-9.753845 0c-1.3467712 0 -2.4385376 -1.0917664 -2.4385376 -2.4385223z" fill-rule="evenodd"/><path fill="#fc8076" d="m135.62856 120.46592l0 0c0 -0.967186 0.7840576 -1.7512436 1.7512512 -1.7512436l30.954727 0c0.46444702 0 0.9098816 0.18450928 1.2383118 0.5129318c0.32841492 0.32841492 0.5129242 0.7738495 0.5129242 1.2383118l0 7.004753c0 0.96717834 -0.7840576 1.751236 -1.751236 1.751236l-30.954727 0c-0.9671936 0 -1.7512512 -0.7840576 -1.7512512 -1.751236z" fill-rule="evenodd"/><path fill="#f73d35" d="m111.94233 151.3216l0 0c0 -1.3146057 1.0656891 -2.3802948 2.3802872 -2.3802948l13.900833 0c0.6312866 0 1.2367249 0.2507782 1.6831207 0.6971741c0.44638062 0.44638062 0.6971588 1.0518188 0.6971588 1.6831207l0 9.520859c0 1.3146057 -1.0656891 2.3802948 -2.3802795 2.3802948l-13.900833 0l0 0c-1.3145981 0 -2.3802872 -1.0656891 -2.3802872 -2.3802948z" fill-rule="evenodd"/></g></svg>