<svg version="1.1" viewBox="0.0 0.0 192.0 96.0" fill="none" stroke="none" stroke-linecap="square" stroke-miterlimit="10" xmlns:xlink="http://www.w3.org/1999/xlink" xmlns="http://www.w3.org/2000/svg"><clipPath id="g3a618092b6c_0_28.0"><path d="m0 0l192.0 0l0 96.0l-192.0 0l0 -96.0z" clip-rule="nonzero"/></clipPath><g clip-path="url(#g3a618092b6c_0_28.0)"><path fill="#161d25" d="m0 0l192.0 0l0 96.0l-192.0 0z" fill-rule="evenodd"/><path fill="#fcb630" d="m5.7007875 40.506466l0 0c0 -1.8452454 1.4958658 -3.3411102 3.3411102 -3.3411102l173.9162 0c0.88612366 0 1.7359467 0.35200882 2.3625183 0.9785881c0.6265869 0.6265793 0.9785919 1.4764023 0.9785919 2.3625221l0 44.530376c0 1.8452454 -1.4958649 3.3411102 -3.3411102 3.3411102l-173.9162 0c-1.8452444 0 -3.3411102 -1.4958649 -3.3411102 -3.3411102z" fill-rule="evenodd"/><path stroke="#fcb630" stroke-width="4.0" stroke-linejoin="round" stroke-linecap="butt" d="m5.7007875 40.506466l0 0c0 -1.8452454 1.4958658 -3.3411102 3.3411102 -3.3411102l173.9162 0c0.88612366 0 1.7359467 0.35200882 2.3625183 0.9785881c0.6265869 0.6265793 0.9785919 1.4764023 0.9785919 2.3625221l0 44.530376c0 1.8452454 -1.4958649 3.3411102 -3.3411102 3.3411102l-173.9162 0c-1.8452444 0 -3.3411102 -1.4958649 -3.3411102 -3.3411102z" fill-rule="evenodd"/><path fill="#6a490b" d="m5.7007875 12.368643l0 0c0 -2.6214724 2.125123 -4.7465954 4.7465954 -4.7465954l171.10522 0c1.2588806 0 2.4662018 0.50008583 3.3563538 1.3902454c0.89016724 0.8901596 1.3902435 2.097474 1.3902435 3.35635l0 63.26271c0 2.6214752 -2.125122 4.7465973 -4.7465973 4.7465973l-171.10522 0c-2.6214724 0 -4.7465954 -2.125122 -4.7465954 -4.7465973z" fill-rule="evenodd"/><path stroke="#fcb630" stroke-width="4.0" stroke-linejoin="round" stroke-linecap="butt" d="m5.7007875 12.368643l0 0c0 -2.6214724 2.125123 -4.7465954 4.7465954 -4.7465954l171.10522 0c1.2588806 0 2.4662018 0.50008583 3.3563538 1.3902454c0.89016724 0.8901596 1.3902435 2.097474 1.3902435 3.35635l0 63.26271c0 2.6214752 -2.125122 4.7465973 -4.7465973 4.7465973l-171.10522 0c-2.6214724 0 -4.7465954 -2.125122 -4.7465954 -4.7465973z" fill-rule="evenodd"/><path fill="#ffffff" d="m30.52587 44.277107q0 0.953125 0.359375 1.65625q0.375 0.703125 1.09375 1.09375q0.7343769 0.375 1.7968769 0.375q1.0625 0 1.78125 -0.375q0.71875 -0.390625 1.0625 -1.09375q0.359375 -0.703125 0.359375 -1.65625l0 -7.8125l3.921875 0l0 8.0q0 1.9375 -0.90625 3.375q-0.890625 1.4375 -2.484375 2.234375q-1.59375 0.796875 -3.734375 0.796875q-2.125002 0 -3.734377 -0.796875q-1.609375 -0.796875 -2.515625 -2.234375q-0.890625 -1.4375 -0.890625 -3.375l0 -8.0l3.890625 0l0 7.8125zm11.916765 -4.4375l3.859375 0l0.6875 4.28125l0 6.453125l-3.828125 0l0 -7.03125l-0.71875 -3.703125zm8.5 -0.328125q1.546875 0 2.640625 0.625q1.09375 0.625 1.65625 1.75q0.578125 1.125 0.578125 2.671875l0 6.015625l-3.84375 0l0 -5.453125q0 -1.203125 -0.609375 -1.84375q-0.609375 -0.640625 -1.75 -0.640625q-0.796875 0 -1.390625 0.34375q-0.59375 0.328125 -0.921875 0.953125q-0.3125 0.625 -0.3125 1.46875l-1.1875 -0.625q0.234375 -1.703125 0.96875 -2.875q0.734375 -1.1875 1.796875 -1.78125q1.078125 -0.609375 2.375 -0.609375zm16.639877 11.0625l-0.515625 -4.03125l0.65625 -1.3125l-0.640625 -1.65625l0.90625 -7.484375l3.984375 0l-1.109375 8.828125l0.6875 5.65625l-3.96875 0zm0.8125 -5.359375q-0.25 1.6875 -1.03125 2.96875q-0.78125 1.28125 -1.984375 1.984375q-1.1875 0.703125 -2.71875 0.703125q-1.578125 0 -2.78125 -0.703125q-1.1875 -0.703125 -1.859375 -1.984375q-0.671875 -1.296875 -0.671875 -2.96875q0 -1.71875 0.671875 -2.984375q0.671875 -1.28125 1.859375 -2.0q1.203125 -0.71875 2.78125 -0.71875q1.53125 0 2.71875 0.703125q1.203125 0.703125 1.984375 1.984375q0.796875 1.265625 1.03125 3.015625zm-7.15625 0q0 0.78125 0.328125 1.40625q0.328125 0.625 0.90625 0.96875q0.59375 0.34375 1.34375 0.34375q0.78125 0 1.46875 -0.34375q0.703125 -0.34375 1.234375 -0.96875q0.53125 -0.625 0.796875 -1.40625q-0.265625 -0.8125 -0.796875 -1.421875q-0.53125 -0.625 -1.234375 -0.984375q-0.6875 -0.359375 -1.46875 -0.359375q-0.75 0 -1.34375 0.359375q-0.578125 0.359375 -0.90625 0.984375q-0.328125 0.609375 -0.328125 1.421875zm18.360748 5.65625q-1.953125 0 -3.5 -0.703125q-1.53125 -0.71875 -2.421875 -2.0q-0.875 -1.296875 -0.875 -3.015625q0 -1.671875 0.84375 -2.9375q0.84375 -1.265625 2.328125 -1.984375q1.484375 -0.71875 3.34375 -0.71875q1.9375 0 3.296875 0.84375q1.359375 0.828125 2.09375 2.359375q0.75 1.515625 0.75 3.59375l-9.546875 0l0 -2.3125l7.390625 0l-1.265625 0.796875q-0.078125 -0.828125 -0.421875 -1.390625q-0.328125 -0.578125 -0.890625 -0.875q-0.546875 -0.3125 -1.3125 -0.3125q-0.84375 0 -1.453125 0.34375q-0.609375 0.34375 -0.953125 0.9375q-0.328125 0.59375 -0.328125 1.375q0 1.015625 0.453125 1.734375q0.46875 0.703125 1.359375 1.078125q0.90625 0.375 2.203125 0.375q1.171875 0 2.34375 -0.3125q1.1875 -0.3125 2.140625 -0.875l0 2.4375q-1.109375 0.75 -2.53125 1.15625q-1.40625 0.40625 -3.046875 0.40625zm6.939331 -11.03125l3.90625 0l0.640625 3.828125l0 6.90625l-3.828125 0l0 -7.125l-0.71875 -3.609375zm9.59375 -0.171875l0 3.265625q-0.5625 -0.109375 -1.0625 -0.15625q-0.5 -0.046875 -0.90625 -0.046875q-0.828125 0 -1.53125 0.328125q-0.703125 0.328125 -1.125 1.078125q-0.421875 0.75 -0.421875 2.015625l-0.734375 -0.90625q0.15625 -1.15625 0.453125 -2.1875q0.296875 -1.03125 0.8125 -1.828125q0.53125 -0.796875 1.296875 -1.25q0.765625 -0.46875 1.875 -0.46875q0.328125 0 0.65625 0.046875q0.34375 0.03125 0.6875 0.109375zm13.574387 7.40625q0 1.25 -0.75 2.09375q-0.75 0.84375 -2.140625 1.28125q-1.390625 0.421875 -3.34375 0.421875q-2.015625 0 -3.53125 -0.484375q-1.515625 -0.484375 -2.359375 -1.375q-0.84375 -0.890625 -0.90625 -2.046875l3.890625 0q0.140625 0.4375 0.515625 0.75q0.390625 0.296875 1.03125 0.46875q0.640625 0.15625 1.53125 0.15625q1.140625 0 1.734375 -0.21875q0.59375 -0.234375 0.59375 -0.6875q0 -0.359375 -0.453125 -0.53125q-0.453125 -0.1875 -1.546875 -0.28125l-1.890625 -0.140625q-1.90625 -0.140625 -3.03125 -0.578125q-1.109375 -0.4375 -1.609375 -1.140625q-0.484375 -0.71875 -0.484375 -1.625q0 -1.21875 0.765625 -2.015625q0.765625 -0.796875 2.125 -1.203125q1.359375 -0.40625 3.1875 -0.40625q1.8125 0 3.21875 0.46875q1.40625 0.46875 2.25 1.3125q0.859375 0.828125 0.984375 1.96875l-3.890625 0q-0.09375 -0.359375 -0.421875 -0.65625q-0.3125 -0.296875 -0.875 -0.484375q-0.5625 -0.1875 -1.453125 -0.1875q-1.03125 0 -1.578125 0.234375q-0.53125 0.21875 -0.53125 0.640625q0 0.3125 0.328125 0.5q0.328125 0.1875 1.234375 0.265625l2.5 0.1875q1.859375 0.109375 2.9375 0.546875q1.078125 0.421875 1.515625 1.125q0.453125 0.6875 0.453125 1.640625zm0.51161194 -4.40625l0 -1.671875l2.1875 -0.875l1.65625 -3.1875l2.1875 0l0 2.90625l4.5 0l0 2.828125l-4.5 0l0 3.171875q0 1.15625 0.46875 1.625q0.46875 0.46875 1.703125 0.46875q0.796875 0 1.40625 -0.140625q0.609375 -0.140625 1.125 -0.359375l0 2.890625q-0.578125 0.21875 -1.5 0.375q-0.921875 0.171875 -1.890625 0.171875q-1.796875 0 -2.9375 -0.546875q-1.125 -0.546875 -1.671875 -1.5625q-0.546875 -1.03125 -0.546875 -2.40625l0 -3.6875l-2.1875 0zm18.348747 8.203125q-2.0781174 0 -3.6249924 -0.703125q-1.53125 -0.703125 -2.40625 -1.984375q-0.859375 -1.296875 -0.859375 -2.96875q0 -1.71875 0.859375 -2.984375q0.875 -1.28125 2.40625 -2.0q1.546875 -0.71875 3.6249924 -0.71875q2.046875 0 3.59375 0.71875q1.5625 0.71875 2.421875 2.0q0.859375 1.265625 0.859375 2.984375q0 1.671875 -0.859375 2.96875q-0.859375 1.28125 -2.421875 1.984375q-1.546875 0.703125 -3.59375 0.703125zm0 -2.84375q0.9375 0 1.59375 -0.328125q0.671875 -0.34375 1.03125 -0.984375q0.359375 -0.640625 0.359375 -1.5q0 -0.90625 -0.359375 -1.53125q-0.359375 -0.640625 -1.03125 -0.96875q-0.65625 -0.34375 -1.59375 -0.34375q-0.9374924 0 -1.6249924 0.34375q-0.671875 0.328125 -1.03125 0.96875q-0.359375 0.625 -0.359375 1.515625q0 0.875 0.359375 1.515625q0.359375 0.640625 1.03125 0.984375q0.6875 0.328125 1.6249924 0.328125zm14.899445 2.84375q-2.078125 0 -3.625 -0.703125q-1.53125 -0.703125 -2.40625 -1.984375q-0.859375 -1.296875 -0.859375 -2.96875q0 -1.71875 0.859375 -2.984375q0.875 -1.28125 2.40625 -2.0q1.546875 -0.71875 3.625 -0.71875q2.046875 0 3.59375 0.71875q1.5625 0.71875 2.421875 2.0q0.859375 1.265625 0.859375 2.984375q0 1.671875 -0.859375 2.96875q-0.859375 1.28125 -2.421875 1.984375q-1.546875 0.703125 -3.59375 0.703125zm0 -2.84375q0.9375 0 1.59375 -0.328125q0.671875 -0.34375 1.03125 -0.984375q0.359375 -0.640625 0.359375 -1.5q0 -0.90625 -0.359375 -1.53125q-0.359375 -0.640625 -1.03125 -0.96875q-0.65625 -0.34375 -1.59375 -0.34375q-0.9375 0 -1.625 0.34375q-0.671875 0.328125 -1.03125 0.96875q-0.359375 0.625 -0.359375 1.515625q0 0.875 0.359375 1.515625q0.359375 0.640625 1.03125 0.984375q0.6875 0.328125 1.625 0.328125zm18.29004 2.546875l-0.515625 -4.03125l0.65625 -1.3125l-0.640625 -1.65625l0.90625 -7.484375l3.984375 0l-1.109375 8.828125l0.6875 5.65625l-3.96875 0zm0.8125 -5.359375q-0.25 1.6875 -1.03125 2.96875q-0.78125 1.28125 -1.984375 1.984375q-1.1875 0.703125 -2.71875 0.703125q-1.578125 0 -2.78125 -0.703125q-1.1875 -0.703125 -1.859375 -1.984375q-0.671875 -1.296875 -0.671875 -2.96875q0 -1.71875 0.671875 -2.984375q0.671875 -1.28125 1.859375 -2.0q1.203125 -0.71875 2.78125 -0.71875q1.53125 0 2.71875 0.703125q1.203125 0.703125 1.984375 1.984375q0.796875 1.265625 1.03125 3.015625zm-7.15625 0q0 0.78125 0.328125 1.40625q0.328125 0.625 0.90625 0.96875q0.59375 0.34375 1.34375 0.34375q0.78125 0 1.46875 -0.34375q0.703125 -0.34375 1.234375 -0.96875q0.53125 -0.625 0.796875 -1.40625q-0.265625 -0.8125 -0.796875 -1.421875q-0.53125 -0.625 -1.234375 -0.984375q-0.6875 -0.359375 -1.46875 -0.359375q-0.75 0 -1.34375 0.359375q-0.578125 0.359375 -0.90625 0.984375q-0.328125 0.609375 -0.328125 1.421875z" fill-rule="nonzero"/></g></svg>