<svg version="1.1" viewBox="0.0 0.0 192.0 96.0" fill="none" stroke="none" stroke-linecap="square" stroke-miterlimit="10" xmlns:xlink="http://www.w3.org/1999/xlink" xmlns="http://www.w3.org/2000/svg"><clipPath id="g3b25e67761d_0_10.0"><path d="m0 0l192.0 0l0 96.0l-192.0 0l0 -96.0z" clip-rule="nonzero"/></clipPath><g clip-path="url(#g3b25e67761d_0_10.0)"><path fill="#ffffff" d="m0 0l192.0 0l0 96.0l-192.0 0z" fill-rule="evenodd"/><path fill="#2563eb" d="m5.7007875 40.506466l0 0c0 -1.8452454 1.4958658 -3.3411102 3.3411102 -3.3411102l173.9162 0c0.88612366 0 1.7359467 0.35200882 2.3625183 0.9785881c0.6265869 0.6265793 0.9785919 1.4764023 0.9785919 2.3625221l0 44.530376c0 1.8452454 -1.4958649 3.3411102 -3.3411102 3.3411102l-173.9162 0c-1.8452444 0 -3.3411102 -1.4958649 -3.3411102 -3.3411102z" fill-rule="evenodd"/><path stroke="#2563eb" stroke-width="4.0" stroke-linejoin="round" stroke-linecap="butt" d="m5.7007875 40.506466l0 0c0 -1.8452454 1.4958658 -3.3411102 3.3411102 -3.3411102l173.9162 0c0.88612366 0 1.7359467 0.35200882 2.3625183 0.9785881c0.6265869 0.6265793 0.9785919 1.4764023 0.9785919 2.3625221l0 44.530376c0 1.8452454 -1.4958649 3.3411102 -3.3411102 3.3411102l-173.9162 0c-1.8452444 0 -3.3411102 -1.4958649 -3.3411102 -3.3411102z" fill-rule="evenodd"/><path fill="#a8c3ff" d="m5.7007875 12.368643l0 0c0 -2.6214724 2.125123 -4.7465954 4.7465954 -4.7465954l171.10522 0c1.2588806 0 2.4662018 0.50008583 3.3563538 1.3902454c0.89016724 0.8901596 1.3902435 2.097474 1.3902435 3.35635l0 63.26271c0 2.6214752 -2.125122 4.7465973 -4.7465973 4.7465973l-171.10522 0c-2.6214724 0 -4.7465954 -2.125122 -4.7465954 -4.7465973z" fill-rule="evenodd"/><path stroke="#2563eb" stroke-width="4.0" stroke-linejoin="round" stroke-linecap="butt" d="m5.7007875 12.368643l0 0c0 -2.6214724 2.125123 -4.7465954 4.7465954 -4.7465954l171.10522 0c1.2588806 0 2.4662018 0.50008583 3.3563538 1.3902454c0.89016724 0.8901596 1.3902435 2.097474 1.3902435 3.35635l0 63.26271c0 2.6214752 -2.125122 4.7465973 -4.7465973 4.7465973l-171.10522 0c-2.6214724 0 -4.7465954 -2.125122 -4.7465954 -4.7465973z" fill-rule="evenodd"/><path fill="#000000" d="m53.817238 45.948982l3.96875 0q0.09375 0.578125 0.546875 1.015625q0.453125 0.4375 1.21875 0.671875q0.765625 0.234375 1.796875 0.234375q1.421875 0 2.25 -0.359375q0.828125 -0.375 0.828125 -1.09375q0 -0.546875 -0.46875 -0.84375q-0.46875 -0.3125 -1.796875 -0.4375l-2.640625 -0.25q-2.90625 -0.25 -4.234375 -1.3125q-1.3125 -1.078125 -1.3125 -2.875q0 -1.46875 0.859375 -2.484375q0.859375 -1.015625 2.40625 -1.53125q1.546875 -0.515625 3.625 -0.515625q2.03125 0 3.609375 0.578125q1.578125 0.5625 2.5 1.625q0.9375 1.046875 1.015625 2.4375l-3.953125 0q-0.078125 -0.5 -0.484375 -0.859375q-0.390625 -0.375 -1.09375 -0.578125q-0.703125 -0.203125 -1.671875 -0.203125q-1.3125 0 -2.09375 0.359375q-0.765625 0.34375 -0.765625 1.015625q0 0.5 0.453125 0.796875q0.46875 0.296875 1.671875 0.40625l2.796875 0.28125q2.015625 0.1875 3.21875 0.65625q1.203125 0.453125 1.75 1.265625q0.546875 0.8125 0.546875 2.015625q0 1.484375 -0.890625 2.59375q-0.875 1.09375 -2.484375 1.703125q-1.59375 0.609375 -3.71875 0.609375q-2.1875 0 -3.859375 -0.609375q-1.65625 -0.609375 -2.59375 -1.71875q-0.9375 -1.125 -1.0 -2.59375zm20.818008 4.921875q-1.515625 0 -2.578125 -0.609375q-1.0625 -0.625 -1.625 -1.765625q-0.5625 -1.140625 -0.5625 -2.65625l0 -6.0l3.84375 0l0 5.453125q0 1.1875 0.578125 1.828125q0.578125 0.625 1.671875 0.625q0.8125 0 1.359375 -0.328125q0.546875 -0.328125 0.84375 -0.9375q0.296875 -0.625 0.296875 -1.5l1.1875 0.625q-0.203125 1.71875 -0.9375 2.890625q-0.71875 1.171875 -1.78125 1.78125q-1.046875 0.59375 -2.296875 0.59375zm4.53125 -0.296875l-0.703125 -4.3125l0 -6.421875l3.84375 0l0 7.03125l0.6875 3.703125l-3.828125 0zm5.4453735 -14.484375l3.859375 0l0 6.859375l-0.5 0.984375l0 2.703125l0.5 0.953125l0 2.984375l-3.859375 0l0 -14.484375zm2.625 9.125q0.265625 -1.75 1.03125 -3.015625q0.765625 -1.28125 1.984375 -1.984375q1.21875 -0.703125 2.71875 -0.703125q1.578125 0 2.765625 0.71875q1.203125 0.71875 1.875 2.0q0.671875 1.265625 0.671875 2.984375q0 1.671875 -0.671875 2.96875q-0.671875 1.28125 -1.875 1.984375q-1.1875 0.703125 -2.765625 0.703125q-1.53125 0 -2.734375 -0.703125q-1.203125 -0.703125 -1.96875 -1.984375q-0.765625 -1.28125 -1.03125 -2.96875zm7.171875 0q0 -0.8125 -0.34375 -1.421875q-0.328125 -0.625 -0.90625 -0.984375q-0.578125 -0.359375 -1.359375 -0.359375q-0.765625 0 -1.46875 0.359375q-0.6875 0.359375 -1.21875 0.984375q-0.53125 0.609375 -0.8125 1.421875q0.28125 0.78125 0.8125 1.40625q0.53125 0.625 1.21875 0.96875q0.703125 0.34375 1.46875 0.34375q0.78125 0 1.359375 -0.34375q0.578125 -0.34375 0.90625 -0.96875q0.34375 -0.625 0.34375 -1.40625zm4.9599457 -5.375l3.859375 0l0.6875 4.28125l0 6.453125l-3.828125 0l0 -7.03125l-0.71875 -3.703125zm8.25 -0.328125q1.5 0 2.53125 0.625q1.03125 0.625 1.578125 1.75q0.546875 1.125 0.546875 2.671875l0 6.015625l-3.84375 0l0 -5.453125q0 -1.203125 -0.546875 -1.84375q-0.546875 -0.640625 -1.578125 -0.640625q-0.734375 0 -1.265625 0.34375q-0.53125 0.328125 -0.828125 0.953125q-0.296875 0.625 -0.296875 1.46875l-1.1875 -0.625q0.234375 -1.703125 0.921875 -2.875q0.703125 -1.1875 1.71875 -1.78125q1.03125 -0.609375 2.25 -0.609375zm8.34375 0q1.484375 0 2.53125 0.625q1.046875 0.625 1.578125 1.75q0.546875 1.125 0.546875 2.671875l0 6.015625l-3.828125 0l0 -5.453125q0 -1.203125 -0.546875 -1.84375q-0.546875 -0.640625 -1.578125 -0.640625q-0.734375 0 -1.28125 0.34375q-0.53125 0.328125 -0.828125 0.953125q-0.28125 0.625 -0.28125 1.46875l-1.1875 -0.625q0.21875 -1.703125 0.90625 -2.875q0.6875 -1.1875 1.71875 -1.78125q1.046875 -0.609375 2.25 -0.609375zm6.631653 0.15625l1.9375 0.375l1.921875 -0.375l0 10.90625l-3.859375 0l0 -10.90625zm1.921875 -0.890625q-0.984375 0 -1.609375 -0.5q-0.625 -0.5 -0.625 -1.359375q0 -0.84375 0.625 -1.34375q0.625 -0.515625 1.609375 -0.515625q1.046875 0 1.65625 0.515625q0.609375 0.5 0.609375 1.34375q0 0.859375 -0.609375 1.359375q-0.609375 0.5 -1.65625 0.5zm3.1041565 3.890625l0 -1.671875l2.1874924 -0.875l1.65625 -3.1875l2.1875 0l0 2.90625l4.5000153 0l0 2.828125l-4.5000153 0l0 3.171875q0 1.15625 0.46875 1.625q0.46875 0.46875 1.7031403 0.46875q0.796875 0 1.40625 -0.140625q0.609375 -0.140625 1.125 -0.359375l0 2.890625q-0.578125 0.21875 -1.5 0.375q-0.921875 0.171875 -1.8906403 0.171875q-1.796875 0 -2.9375 -0.546875q-1.125 -0.546875 -1.671875 -1.5625q-0.546875 -1.03125 -0.546875 -2.40625l0 -3.6875l-2.1874924 0z" fill-rule="nonzero"/></g></svg>