<svg version="1.1" viewBox="0.0 0.0 288.0 384.0" fill="none" stroke="none" stroke-linecap="square" stroke-miterlimit="10" xmlns:xlink="http://www.w3.org/1999/xlink" xmlns="http://www.w3.org/2000/svg"><clipPath id="g3a6f757e31a_0_902.0"><path d="m0 0l288.0 0l0 384.0l-288.0 0l0 -384.0z" clip-rule="nonzero"/></clipPath><g clip-path="url(#g3a6f757e31a_0_902.0)"><path fill="#ffffff" d="m0 0l288.0 0l0 384.0l-288.0 0z" fill-rule="evenodd"/><path fill="#d0d1d2" d="m5.7007875 34.135216l0 0c0 -9.966135 8.079147 -18.045282 18.04528 -18.045282l240.50787 0c4.7858887 0 9.375793 1.9011936 12.759949 5.2853394c3.3841248 3.3841476 5.2853394 7.9740353 5.2853394 12.759943l0 324.2244c0 9.9661255 -8.079163 18.045288 -18.045288 18.045288l-240.50787 0l0 0c-9.966134 0 -18.04528 -8.079163 -18.04528 -18.045288z" fill-rule="evenodd"/><path stroke="#d0d1d2" stroke-width="4.0" stroke-linejoin="round" stroke-linecap="butt" d="m5.7007875 34.135216l0 0c0 -9.966135 8.079147 -18.045282 18.04528 -18.045282l240.50787 0c4.7858887 0 9.375793 1.9011936 12.759949 5.2853394c3.3841248 3.3841476 5.2853394 7.9740353 5.2853394 12.759943l0 324.2244c0 9.9661255 -8.079163 18.045288 -18.045288 18.045288l-240.50787 0l0 0c-9.966134 0 -18.04528 -8.079163 -18.04528 -18.045288z" fill-rule="evenodd"/><path fill="#ffffff" d="m5.7007875 25.639769l0 0c0 -9.966133 8.079147 -18.04528 18.04528 -18.04528l240.50787 0c4.7858887 0 9.375793 1.9011936 12.759949 5.2853403c3.3841248 3.3841467 5.2853394 7.9740343 5.2853394 12.75994l0 324.2244c0 9.9661255 -8.079163 18.045288 -18.045288 18.045288l-240.50787 0l0 0c-9.966134 0 -18.04528 -8.079163 -18.04528 -18.045288z" fill-rule="evenodd"/><path stroke="#d0d1d2" stroke-width="4.0" stroke-linejoin="round" stroke-linecap="butt" d="m5.7007875 25.639769l0 0c0 -9.966133 8.079147 -18.04528 18.04528 -18.04528l240.50787 0c4.7858887 0 9.375793 1.9011936 12.759949 5.2853403c3.3841248 3.3841467 5.2853394 7.9740343 5.2853394 12.75994l0 324.2244c0 9.9661255 -8.079163 18.045288 -18.045288 18.045288l-240.50787 0l0 0c-9.966134 0 -18.04528 -8.079163 -18.04528 -18.045288z" fill-rule="evenodd"/><path fill="#d0d1d2" d="m100.07469 125.75866l0 0c0 -1.2662506 1.0264969 -2.2927475 2.2927475 -2.2927475l9.170723 0l0 0c0.608078 0 1.191246 0.24155426 1.6212234 0.6715317c0.4299698 0.4299698 0.67152405 1.0131454 0.67152405 1.6212158l0 10.408058c0 1.2662506 -1.0264969 2.2927551 -2.2927475 2.2927551l-9.170723 0l0 0c-1.2662506 0 -2.2927475 -1.0265045 -2.2927475 -2.2927551z" fill-rule="evenodd"/><path fill="#d0d1d2" d="m81.86729 125.75866l0 0c0 -1.2662506 1.0265045 -2.2927475 2.2927551 -2.2927475l9.170723 0l0 0c0.608078 0 1.191246 0.24155426 1.6212158 0.6715317c0.42997742 0.4299698 0.6715317 1.0131454 0.6715317 1.6212158l0 10.408058c0 1.2662506 -1.0264969 2.2927551 -2.2927475 2.2927551l-9.170723 0l0 0c-1.2662506 0 -2.2927551 -1.0265045 -2.2927551 -2.2927551z" fill-rule="evenodd"/><path fill="#d0d1d2" d="m118.34278 125.75866l0 0c0 -1.2662506 1.0264969 -2.2927475 2.2927475 -2.2927475l9.170731 0l0 0c0.60806274 0 1.1912384 0.24155426 1.6212158 0.6715317c0.42997742 0.4299698 0.67152405 1.0131454 0.67152405 1.6212158l0 10.408058c0 1.2662506 -1.0264893 2.2927551 -2.2927399 2.2927551l-9.170731 0l0 0c-1.2662506 0 -2.2927475 -1.0265045 -2.2927475 -2.2927551z" fill-rule="evenodd"/><path fill="#d0d1d2" d="m98.594215 164.12311l0 0c0 -2.4990082 2.0258484 -4.5248566 4.524849 -4.5248566l18.098839 0l0 0c1.200058 0 2.350975 0.47673035 3.1995468 1.3253021c0.8485718 0.8485718 1.3252945 1.9994812 1.3252945 3.1995544l0 70.333664c0 2.498993 -2.0258408 4.5248413 -4.5248413 4.5248413l-18.098839 0c-2.4990005 0 -4.524849 -2.0258484 -4.524849 -4.5248413z" fill-rule="evenodd"/><path fill="#d0d1d2" d="m98.594215 161.55539l0 0c0 -1.0809021 0.87623596 -1.9571381 1.9571304 -1.9571381l7.82827 0l0 0c0.51906586 0 1.0168686 0.20620728 1.3839035 0.5732269c0.36702728 0.3670349 0.5732269 0.86483765 0.5732269 1.3839111l0 75.4691c0 1.0808868 -0.87623596 1.9571228 -1.9571304 1.9571228l-7.82827 0c-1.0808945 0 -1.9571304 -0.87623596 -1.9571304 -1.9571228z" fill-rule="evenodd"/><path fill="#d0d1d2" d="m61.95659 142.24768l0 0c0 -2.7312622 2.2141266 -4.945389 4.945389 -4.945389l19.780945 0l0 0c1.3115921 0 2.5694733 0.5210266 3.49691 1.4484711c0.92744446 0.92744446 1.4484711 2.185318 1.4484711 3.4969177l0 20.896973c0 2.7312622 -2.2141266 4.9453735 -4.945381 4.9453735l-19.780945 0l0 0c-2.7312622 0 -4.945389 -2.2141113 -4.945389 -4.9453735z" fill-rule="evenodd"/><path fill="#d0d1d2" d="m70.36672 139.49539l0 0c0 -3.6468964 2.9563904 -6.6032867 6.603279 -6.6032867l78.13768 0c1.751297 0 3.4308624 0.69569397 4.66922 1.9340515c1.2383575 1.2383575 1.9340515 2.9179382 1.9340515 4.669235l0 26.412323c0 3.6468964 -2.9563904 6.6032867 -6.6032715 6.6032867l-78.13768 0c-3.6468887 0 -6.603279 -2.9563904 -6.603279 -6.6032867z" fill-rule="evenodd"/><path fill="#d0d1d2" d="m70.36672 146.13866l0 0c0 -0.30148315 0.24440002 -0.5458832 0.5458908 -0.5458832l73.609116 0c0.14479065 0 0.28363037 0.057510376 0.3860016 0.15988159c0.102386475 0.102371216 0.15989685 0.2412262 0.15989685 0.3860016l0 2.1835175c0 0.30148315 -0.24440002 0.5458832 -0.54589844 0.5458832l-73.609116 0c-0.30149078 0 -0.5458908 -0.24440002 -0.5458908 -0.5458832z" fill-rule="evenodd"/><path fill="#d0d1d2" d="m139.33435 135.18921l0 0c0 -4.837204 3.921341 -8.758545 8.758545 -8.758545l67.66475 0c2.3229065 0 4.5506744 0.92277527 6.193222 2.5653229c1.6425476 1.6425476 2.5653229 3.8703156 2.5653229 6.193222l0 35.033142c0 4.837204 -3.921341 8.758545 -8.758545 8.758545l-67.66475 0c-4.837204 0 -8.758545 -3.921341 -8.758545 -8.758545z" fill-rule="evenodd"/><path fill="#d0d1d2" d="m197.40471 130.9555l0 0c0 -2.498993 2.0258331 -4.5248413 4.5248413 -4.5248413l18.098831 0l0 0c1.2000732 0 2.3509827 0.47672272 3.1995544 1.3252945c0.8485718 0.8485794 1.3253021 1.9994888 1.3253021 3.1995468l0 43.50055c0 2.498993 -2.0258484 4.5248413 -4.5248566 4.5248413l-18.098831 0c-2.4990082 0 -4.5248413 -2.0258484 -4.5248413 -4.5248413z" fill-rule="evenodd"/><path fill="#d0d1d2" d="m208.58687 118.58826l0 0c0 -3.0796509 2.4965515 -5.576195 5.5762024 -5.576195l22.304108 0l0 0c1.4788971 0 2.8972168 0.5874939 3.9429626 1.6332321c1.0457306 1.0457382 1.6332245 2.4640656 1.6332245 3.9429626l0 68.23097c0 3.0796509 -2.4965363 5.576187 -5.576187 5.576187l-22.304108 0c-3.0796509 0 -5.5762024 -2.4965363 -5.5762024 -5.576187z" fill-rule="evenodd"/><path fill="#d0d1d2" d="m162.03772 127.33644l0 0c0 -0.50024414 0.40551758 -0.905777 0.905777 -0.905777l3.623001 0l0 0c0.24021912 0 0.47061157 0.09542847 0.6404724 0.26529694c0.1698761 0.16986847 0.26530457 0.4002533 0.26530457 0.64048004l0 50.738678c0 0.50024414 -0.40553284 0.905777 -0.905777 0.905777l-3.623001 0c-0.5002594 0 -0.905777 -0.40553284 -0.905777 -0.905777z" fill-rule="evenodd"/><path fill="#d0d1d2" d="m220.71774 124.051575l0 0c0 -1.5387039 1.2473755 -2.7860718 2.786087 -2.7860718l11.143951 0l0 0c0.7389221 0 1.4475708 0.2935257 1.9700623 0.81601715c0.52249146 0.52249146 0.8160248 1.2311401 0.8160248 1.9700546l0 31.596344c0 1.5386963 -1.2473755 2.7860718 -2.786087 2.7860718l-11.143951 0c-1.5387115 0 -2.786087 -1.2473755 -2.786087 -2.7860718z" fill-rule="evenodd"/><path fill="#d0d1d2" d="m220.71774 165.70337l0 0c0 -1.3801422 1.1188354 -2.4989777 2.4989777 -2.4989777l11.71817 0c0.6627655 0 1.2983856 0.26327515 1.7670441 0.7319336c0.4686432 0.4686432 0.7319336 1.1042786 0.7319336 1.7670441l0 9.995605c0 1.3801422 -1.1188354 2.4989777 -2.4989777 2.4989777l-11.71817 0c-1.3801422 0 -2.4989777 -1.1188354 -2.4989777 -2.4989777z" fill-rule="evenodd"/><path fill="#d0d1d2" d="m79.59165 158.02919l0 0c0 -1.1143799 0.9033966 -2.0177765 2.017784 -2.0177765l34.32174 0c0.5351486 0 1.048378 0.21258545 1.4267883 0.5910034c0.3784027 0.3784027 0.59098816 0.8916321 0.59098816 1.4267731l0 8.070892c0 1.1143951 -0.903389 2.0177765 -2.0177765 2.0177765l-34.32174 0c-1.1143875 0 -2.017784 -0.90338135 -2.017784 -2.0177765z" fill-rule="evenodd"/><path fill="#d0d1d2" d="m87.9619 225.56435l0 0c0 -1.4828796 1.2021103 -2.6849976 2.6849823 -2.6849976l43.031555 0c0.7121124 0 1.39505 0.2828827 1.8985748 0.7864227c0.50354004 0.5035248 0.7864227 1.1864624 0.7864227 1.8985748l0 10.739609c0 1.4828796 -1.2021179 2.6849823 -2.6849976 2.6849823l-43.031555 0c-1.482872 0 -2.6849823 -1.2021027 -2.6849823 -2.6849823z" fill-rule="evenodd"/><path fill="#d0d1d2" d="m114.23501 181.55518l0 0c0 -0.76153564 0.6173477 -1.3788757 1.3788834 -1.3788757l5.515381 0l0 0c0.36569977 0 0.71642303 0.14526367 0.97501373 0.40385437c0.2585907 0.2585907 0.40386963 0.60931396 0.40386963 0.97502136l0 28.029968c0 0.76153564 -0.6173477 1.378891 -1.3788834 1.378891l-5.515381 0c-0.76153564 0 -1.3788834 -0.61735535 -1.3788834 -1.378891z" fill-rule="evenodd"/><path fill="#83909f" d="m84.07469 109.75866l0 0c0 -1.2662506 1.0264969 -2.2927475 2.2927475 -2.2927475l9.170723 0l0 0c0.608078 0 1.191246 0.24155426 1.6212234 0.6715317c0.4299698 0.4299698 0.67152405 1.0131454 0.67152405 1.6212158l0 10.408058c0 1.2662506 -1.0264969 2.2927475 -2.2927475 2.2927475l-9.170723 0l0 0c-1.2662506 0 -2.2927475 -1.0264969 -2.2927475 -2.2927475z" fill-rule="evenodd"/><path fill="#83909f" d="m65.86729 109.75866l0 0c0 -1.2662506 1.0265045 -2.2927475 2.2927551 -2.2927475l9.170723 0l0 0c0.608078 0 1.191246 0.24155426 1.6212158 0.6715317c0.42997742 0.4299698 0.6715317 1.0131454 0.6715317 1.6212158l0 10.408058c0 1.2662506 -1.0264969 2.2927475 -2.2927475 2.2927475l-9.170723 0l0 0c-1.2662506 0 -2.2927551 -1.0264969 -2.2927551 -2.2927475z" fill-rule="evenodd"/><path fill="#f73d35" d="m102.34278 109.75866l0 0c0 -1.2662506 1.0264969 -2.2927475 2.2927475 -2.2927475l9.170723 0l0 0c0.608078 0 1.191246 0.24155426 1.6212234 0.6715317c0.4299698 0.4299698 0.6715317 1.0131454 0.6715317 1.6212158l0 10.408058c0 1.2662506 -1.0265045 2.2927475 -2.2927551 2.2927475l-9.170723 0l0 0c-1.2662506 0 -2.2927475 -1.0264969 -2.2927475 -2.2927475z" fill-rule="evenodd"/><path fill="#83909f" d="m82.594215 148.12311l0 0c0 -2.4990082 2.0258484 -4.5248566 4.524849 -4.5248566l18.098839 0l0 0c1.200058 0 2.350975 0.47673035 3.1995468 1.3253021c0.8485718 0.8485718 1.3252945 1.9994812 1.3252945 3.1995544l0 70.333664c0 2.498993 -2.0258408 4.5248413 -4.5248413 4.5248413l-18.098839 0c-2.4990005 0 -4.524849 -2.0258484 -4.524849 -4.5248413z" fill-rule="evenodd"/><path fill="#3b4652" d="m82.594215 145.55539l0 0c0 -1.0809021 0.87623596 -1.9571381 1.9571304 -1.9571381l7.82827 0l0 0c0.51906586 0 1.0168686 0.20620728 1.3839035 0.5732269c0.36702728 0.3670349 0.5732269 0.86483765 0.5732269 1.3839111l0 75.4691c0 1.0808868 -0.87623596 1.9571228 -1.9571304 1.9571228l-7.82827 0c-1.0808945 0 -1.9571304 -0.87623596 -1.9571304 -1.9571228z" fill-rule="evenodd"/><path fill="#3b4652" d="m45.95659 126.24768l0 0c0 -2.7312622 2.2141266 -4.945389 4.945385 -4.945389l19.780949 0l0 0c1.3115921 0 2.5694733 0.52103424 3.49691 1.4484711c0.92744446 0.92744446 1.4484711 2.185318 1.4484711 3.4969177l0 20.896973c0 2.7312622 -2.2141266 4.9453735 -4.945381 4.9453735l-19.780949 0l0 0c-2.7312584 0 -4.945385 -2.2141113 -4.945385 -4.9453735z" fill-rule="evenodd"/><path fill="#c8d6e5" d="m54.366722 123.495384l0 0c0 -3.6468887 2.9563904 -6.603279 6.603279 -6.603279l78.13768 0c1.751297 0 3.4308624 0.6957016 4.66922 1.9340591c1.2383575 1.2383499 1.9340515 2.917923 1.9340515 4.66922l0 26.41233c0 3.6468964 -2.9563904 6.6032867 -6.6032715 6.6032867l-78.13768 0c-3.6468887 0 -6.603279 -2.9563904 -6.603279 -6.6032867z" fill-rule="evenodd"/><path fill="#83909f" d="m54.366722 130.13866l0 0c0 -0.30148315 0.24440384 -0.5458832 0.5458908 -0.5458832l73.609116 0c0.14479065 0 0.28363037 0.057510376 0.3860016 0.15988159c0.102386475 0.102371216 0.15989685 0.2412262 0.15989685 0.3860016l0 2.1835175c0 0.30148315 -0.24440002 0.5458832 -0.54589844 0.5458832l-73.609116 0c-0.30148697 0 -0.5458908 -0.24440002 -0.5458908 -0.5458832z" fill-rule="evenodd"/><path fill="#e7f2ff" d="m123.33435 119.18921l0 0c0 -4.8372116 3.9213333 -8.758545 8.758545 -8.758545l67.66475 0c2.3229065 0 4.5506744 0.92277527 6.193222 2.5653152c1.6425476 1.6425476 2.5653229 3.8703232 2.5653229 6.1932297l0 35.033142c0 4.837204 -3.921341 8.758545 -8.758545 8.758545l-67.66475 0c-4.8372116 0 -8.758545 -3.921341 -8.758545 -8.758545z" fill-rule="evenodd"/><path fill="#3b4652" d="m181.40471 114.955505l0 0c0 -2.4990005 2.0258331 -4.5248413 4.5248413 -4.5248413l18.098831 0l0 0c1.2000732 0 2.3509827 0.47672272 3.1995544 1.3252945c0.8485718 0.8485718 1.3253021 1.9994888 1.3253021 3.1995468l0 43.50055c0 2.498993 -2.0258484 4.5248413 -4.5248566 4.5248413l-18.098831 0c-2.4990082 0 -4.5248413 -2.0258484 -4.5248413 -4.5248413z" fill-rule="evenodd"/><path fill="#e7f2ff" d="m192.58687 102.58826l0 0c0 -3.0796509 2.4965515 -5.576195 5.5762024 -5.576195l22.304108 0l0 0c1.4788971 0 2.8972168 0.5874939 3.9429626 1.6332321c1.0457306 1.0457382 1.6332245 2.4640656 1.6332245 3.9429626l0 68.23097c0 3.0796509 -2.4965363 5.576187 -5.576187 5.576187l-22.304108 0c-3.0796509 0 -5.5762024 -2.4965363 -5.5762024 -5.576187z" fill-rule="evenodd"/><path fill="#c8d6e5" d="m146.03772 111.33644l0 0c0 -0.50024414 0.40551758 -0.905777 0.905777 -0.905777l3.623001 0l0 0c0.24021912 0 0.47061157 0.09542847 0.6404724 0.26529694c0.1698761 0.16986847 0.26530457 0.4002533 0.26530457 0.64048004l0 50.738678c0 0.50024414 -0.40553284 0.905777 -0.905777 0.905777l-3.623001 0c-0.5002594 0 -0.905777 -0.40553284 -0.905777 -0.905777z" fill-rule="evenodd"/><path fill="#f3f8fe" d="m204.71774 108.051575l0 0c0 -1.5387039 1.2473755 -2.7860718 2.786087 -2.7860718l11.143951 0l0 0c0.7389221 0 1.4475708 0.2935257 1.9700623 0.81601715c0.52249146 0.52249146 0.8160248 1.2311401 0.8160248 1.9700546l0 31.596344c0 1.5386963 -1.2473755 2.7860718 -2.786087 2.7860718l-11.143951 0c-1.5387115 0 -2.786087 -1.2473755 -2.786087 -2.7860718z" fill-rule="evenodd"/><path fill="#f3f8fe" d="m204.71774 149.70337l0 0c0 -1.3801422 1.1188354 -2.4989777 2.4989777 -2.4989777l11.71817 0c0.6627655 0 1.2983856 0.26327515 1.7670441 0.7319336c0.4686432 0.4686432 0.7319336 1.1042786 0.7319336 1.7670441l0 9.995605c0 1.3801422 -1.1188354 2.4989777 -2.4989777 2.4989777l-11.71817 0c-1.3801422 0 -2.4989777 -1.1188354 -2.4989777 -2.4989777z" fill-rule="evenodd"/><path fill="#83909f" d="m63.591656 142.02919l0 0c0 -1.1143799 0.9033928 -2.0177765 2.0177803 -2.0177765l34.32174 0c0.5351486 0 1.048378 0.21258545 1.4267883 0.5910034c0.3784027 0.3784027 0.59098816 0.8916321 0.59098816 1.4267731l0 8.070892c0 1.1143951 -0.903389 2.0177765 -2.0177765 2.0177765l-34.32174 0c-1.1143875 0 -2.0177803 -0.90338135 -2.0177803 -2.0177765z" fill-rule="evenodd"/><path fill="#3b4652" d="m71.9619 209.56435l0 0c0 -1.4828796 1.2021103 -2.6849976 2.6849823 -2.6849976l43.031563 0c0.7121048 0 1.3950348 0.2828827 1.8985672 0.7864227c0.5035324 0.5035248 0.7864151 1.1864624 0.7864151 1.8985748l0 10.739609c0 1.4828796 -1.2021103 2.6849823 -2.6849823 2.6849823l-43.031563 0c-1.482872 0 -2.6849823 -1.2021027 -2.6849823 -2.6849823z" fill-rule="evenodd"/><path fill="#c8d6e5" d="m98.23501 165.55518l0 0c0 -0.76153564 0.6173477 -1.3788757 1.3788834 -1.3788757l5.515381 0l0 0c0.36569977 0 0.71642303 0.14526367 0.97501373 0.40385437c0.2585907 0.2585907 0.40386963 0.60931396 0.40386963 0.97502136l0 28.029968c0 0.76153564 -0.6173477 1.378891 -1.3788834 1.378891l-5.515381 0c-0.76153564 0 -1.3788834 -0.61735535 -1.3788834 -1.378891z" fill-rule="evenodd"/><path fill="#000000" fill-opacity="0.0" d="m21.700787 315.7533l253.70079 0l0 38.771637l-253.70079 0z" fill-rule="evenodd"/><path fill="#000000" d="m35.575787 329.5664l3.328125 0l0 10.546875l-3.328125 0l0 -10.546875zm-4.578125 -1.453125l12.484375 0l0 2.9375l-12.484375 0l0 -2.9375zm16.897156 12.25q-1.65625 0 -2.96875 -0.59375q-1.296875 -0.609375 -2.046875 -1.703125q-0.75 -1.109375 -0.75 -2.5625q0 -1.421875 0.71875 -2.5q0.71875 -1.078125 1.96875 -1.6875q1.265625 -0.609375 2.84375 -0.609375q1.640625 0 2.796875 0.71875q1.171875 0.703125 1.796875 2.0q0.640625 1.296875 0.640625 3.0625l-8.125 0l0 -1.96875l6.28125 0l-1.0625 0.6875q-0.078125 -0.703125 -0.359375 -1.1875q-0.28125 -0.5 -0.765625 -0.75q-0.46875 -0.265625 -1.125 -0.265625q-0.71875 0 -1.234375 0.296875q-0.5 0.28125 -0.796875 0.796875q-0.28125 0.5 -0.28125 1.171875q0 0.859375 0.390625 1.46875q0.390625 0.59375 1.140625 0.921875q0.765625 0.3125 1.875 0.3125q1.0 0 2.0 -0.265625q1.0 -0.265625 1.828125 -0.75l0 2.078125q-0.953125 0.640625 -2.171875 0.984375q-1.203125 0.34375 -2.59375 0.34375zm6.3846436 -12.5625l3.28125 0l0 12.3125l-3.28125 0l0 -12.3125zm10.431385 12.5625q-1.6562538 0 -2.9687538 -0.59375q-1.296875 -0.609375 -2.046875 -1.703125q-0.75 -1.109375 -0.75 -2.5625q0 -1.421875 0.71875 -2.5q0.71875 -1.078125 1.96875 -1.6875q1.265625 -0.609375 2.8437538 -0.609375q1.640625 0 2.796875 0.71875q1.171875 0.703125 1.796875 2.0q0.640625 1.296875 0.640625 3.0625l-8.125004 0l0 -1.96875l6.281254 0l-1.0625 0.6875q-0.078125 -0.703125 -0.359375 -1.1875q-0.28125 -0.5 -0.765625 -0.75q-0.46875 -0.265625 -1.125 -0.265625q-0.7187538 0 -1.2343788 0.296875q-0.5 0.28125 -0.796875 0.796875q-0.28125 0.5 -0.28125 1.171875q0 0.859375 0.390625 1.46875q0.390625 0.59375 1.140625 0.921875q0.7656288 0.3125 1.8750038 0.3125q1.0 0 2.0 -0.265625q1.0 -0.265625 1.828125 -0.75l0 2.078125q-0.953125 0.640625 -2.171875 0.984375q-1.203125 0.34375 -2.59375 0.34375zm16.978394 -3.21875q0 1.046875 -0.640625 1.765625q-0.640625 0.71875 -1.828125 1.09375q-1.171875 0.359375 -2.84375 0.359375q-1.703125 0 -3.0 -0.40625q-1.28125 -0.421875 -2.0 -1.171875q-0.71875 -0.75 -0.765625 -1.75l3.3125 0q0.109375 0.375 0.4375 0.640625q0.328125 0.265625 0.859375 0.40625q0.546875 0.125 1.296875 0.125q0.984375 0 1.484375 -0.1875q0.5 -0.1875 0.5 -0.578125q0 -0.296875 -0.390625 -0.453125q-0.375 -0.15625 -1.296875 -0.234375l-1.625 -0.125q-1.609375 -0.109375 -2.5625 -0.484375q-0.953125 -0.390625 -1.375 -0.984375q-0.40625 -0.59375 -0.40625 -1.359375q0 -1.046875 0.640625 -1.71875q0.65625 -0.6875 1.8125 -1.03125q1.15625 -0.34375 2.71875 -0.34375q1.53125 0 2.734375 0.40625q1.203125 0.390625 1.921875 1.109375q0.71875 0.703125 0.828125 1.671875l-3.3125 0q-0.078125 -0.3125 -0.359375 -0.5625q-0.265625 -0.25 -0.75 -0.40625q-0.46875 -0.15625 -1.234375 -0.15625q-0.875 0 -1.328125 0.203125q-0.453125 0.1875 -0.453125 0.53125q0 0.265625 0.28125 0.4375q0.28125 0.15625 1.046875 0.21875l2.125 0.15625q1.578125 0.09375 2.484375 0.46875q0.921875 0.359375 1.296875 0.953125q0.390625 0.578125 0.390625 1.40625zm12.280518 -0.890625q-0.140625 1.234375 -0.90625 2.171875q-0.765625 0.921875 -1.984375 1.4375q-1.21875 0.5 -2.75 0.5q-1.671875 0 -2.953125 -0.59375q-1.28125 -0.609375 -2.0 -1.703125q-0.71875 -1.09375 -0.71875 -2.515625q0 -1.4375 0.71875 -2.515625q0.71875 -1.09375 2.0 -1.703125q1.28125 -0.625 2.953125 -0.625q1.53125 0 2.75 0.515625q1.21875 0.515625 1.984375 1.4375q0.765625 0.921875 0.90625 2.171875l-3.25 0q-0.171875 -0.8125 -0.8125 -1.25q-0.640625 -0.4375 -1.578125 -0.4375q-0.71875 0 -1.25 0.28125q-0.53125 0.265625 -0.828125 0.8125q-0.296875 0.53125 -0.296875 1.3125q0 0.765625 0.296875 1.3125q0.296875 0.53125 0.828125 0.8125q0.53125 0.28125 1.25 0.28125q0.9375 0 1.578125 -0.46875q0.65625 -0.46875 0.8125 -1.234375l3.25 0zm6.738907 4.109375q-1.765625 0 -3.078125 -0.59375q-1.3125 -0.59375 -2.046875 -1.6875q-0.734375 -1.109375 -0.734375 -2.53125q0 -1.453125 0.734375 -2.53125q0.734375 -1.09375 2.046875 -1.703125q1.3125 -0.609375 3.078125 -0.609375q1.734375 0 3.046875 0.609375q1.328125 0.609375 2.0625 1.703125q0.734375 1.078125 0.734375 2.53125q0 1.421875 -0.734375 2.53125q-0.734375 1.09375 -2.0625 1.6875q-1.3125 0.59375 -3.046875 0.59375zm0 -2.40625q0.796875 0 1.359375 -0.28125q0.5625 -0.296875 0.859375 -0.84375q0.3125 -0.546875 0.3125 -1.28125q0 -0.765625 -0.3125 -1.296875q-0.296875 -0.546875 -0.859375 -0.828125q-0.5625 -0.28125 -1.359375 -0.28125q-0.8125 0 -1.390625 0.28125q-0.5625 0.28125 -0.875 0.828125q-0.296875 0.53125 -0.296875 1.28125q0 0.75 0.296875 1.296875q0.3125 0.546875 0.875 0.84375q0.578125 0.28125 1.390625 0.28125zm7.2189026 -6.984375l3.28125 0l0 2.625l-0.140625 0.390625l0 2.5625l0.140625 0.75l0 5.453125l-3.28125 0l0 -11.78125zm2.25 4.578125q0.203125 -1.484375 0.859375 -2.5625q0.671875 -1.078125 1.6875 -1.671875q1.03125 -0.609375 2.328125 -0.609375q1.34375 0 2.359375 0.609375q1.015625 0.609375 1.578125 1.703125q0.578125 1.078125 0.578125 2.53125q0 1.421875 -0.578125 2.53125q-0.5625 1.09375 -1.578125 1.6875q-1.015625 0.59375 -2.359375 0.59375q-1.296875 0 -2.328125 -0.59375q-1.015625 -0.59375 -1.671875 -1.6875q-0.65625 -1.09375 -0.875 -2.53125zm6.09375 0q0 -0.6875 -0.28125 -1.203125q-0.28125 -0.53125 -0.796875 -0.828125q-0.5 -0.3125 -1.125 -0.3125q-0.65625 0 -1.25 0.3125q-0.59375 0.296875 -1.046875 0.828125q-0.453125 0.515625 -0.6875 1.203125q0.234375 0.671875 0.6875 1.203125q0.453125 0.53125 1.046875 0.828125q0.59375 0.296875 1.25 0.296875q0.625 0 1.125 -0.296875q0.515625 -0.296875 0.796875 -0.828125q0.28125 -0.53125 0.28125 -1.203125zm10.055649 4.8125q-1.65625 0 -2.96875 -0.59375q-1.296875 -0.609375 -2.046875 -1.703125q-0.75 -1.109375 -0.75 -2.5625q0 -1.421875 0.71875 -2.5q0.71875 -1.078125 1.96875 -1.6875q1.265625 -0.609375 2.84375 -0.609375q1.640625 0 2.796875 0.71875q1.171875 0.703125 1.796875 2.0q0.640625 1.296875 0.640625 3.0625l-8.125 0l0 -1.96875l6.28125 0l-1.0625 0.6875q-0.078125 -0.703125 -0.359375 -1.1875q-0.28125 -0.5 -0.765625 -0.75q-0.46875 -0.265625 -1.125 -0.265625q-0.71875 0 -1.234375 0.296875q-0.5 0.28125 -0.796875 0.796875q-0.28125 0.5 -0.28125 1.171875q0 0.859375 0.390625 1.46875q0.390625 0.59375 1.140625 0.921875q0.765625 0.3125 1.875 0.3125q1.0 0 2.0 -0.265625q1.0 -0.265625 1.828125 -0.75l0 2.078125q-0.953125 0.640625 -2.171875 0.984375q-1.203125 0.34375 -2.59375 0.34375z" fill-rule="nonzero"/><path fill="#000000" d="m140.20428 336.95703q0 -0.84375 0.171875 -1.765625q0.171875 -0.921875 0.46875 -1.78125q0.3125 -0.875 0.703125 -1.515625l0.859375 0q-0.40625 0.8125 -0.703125 1.703125q-0.296875 0.875 -0.453125 1.75q-0.15625 0.859375 -0.15625 1.609375q0 0.671875 0.140625 1.390625q0.140625 0.703125 0.421875 1.5q0.296875 0.78125 0.75 1.71875l-0.859375 0q-0.671875 -1.125 -1.015625 -2.296875q-0.328125 -1.171875 -0.328125 -2.3125z" fill-rule="nonzero"/><path fill="#000000" d="m148.7142 334.30078l0 1.21875l-3.5 0l0 -1.21875l3.5 0zm-2.703125 -1.390625l1.609375 0l0 5.40625q0 0.296875 0.125 0.4375q0.125 0.140625 0.40625 0.140625q0.09375 0 0.203125 -0.015625q0.125 -0.015625 0.203125 -0.046875l0.265625 1.21875q-0.265625 0.078125 -0.515625 0.109375q-0.25 0.03125 -0.484375 0.03125q-0.875 0 -1.34375 -0.421875q-0.46875 -0.4375 -0.46875 -1.234375l0 -5.625zm5.996292 7.3125q-0.890625 0 -1.546875 -0.359375q-0.65625 -0.359375 -1.0 -1.03125q-0.34375 -0.6875 -0.34375 -1.59375q0 -0.90625 0.34375 -1.578125q0.34375 -0.671875 0.96875 -1.046875q0.640625 -0.390625 1.5 -0.390625q0.578125 0 1.078125 0.1875q0.5 0.1875 0.875 0.5625q0.375 0.359375 0.578125 0.921875q0.203125 0.546875 0.203125 1.28125l0 0.4375l-4.90625 0l0 -0.984375l4.125 0l-0.75 0.25q0 -0.4375 -0.140625 -0.765625q-0.125 -0.328125 -0.390625 -0.5q-0.265625 -0.1875 -0.671875 -0.1875q-0.390625 0 -0.671875 0.1875q-0.265625 0.171875 -0.40625 0.484375q-0.140625 0.3125 -0.140625 0.71875l0 0.703125q0 0.46875 0.15625 0.8125q0.171875 0.328125 0.46875 0.515625q0.296875 0.171875 0.6875 0.171875q0.265625 0 0.484375 -0.078125q0.21875 -0.078125 0.375 -0.21875q0.171875 -0.15625 0.25 -0.375l1.484375 0.109375q-0.109375 0.53125 -0.453125 0.9375q-0.34375 0.390625 -0.890625 0.609375q-0.546875 0.21875 -1.265625 0.21875zm4.952469 -3.46875l0 3.359375l-1.609375 0l0 -7.75l1.5625 0l0 2.96875l0.078125 0q0.1875 -0.515625 0.625 -0.8125q0.4375 -0.296875 1.109375 -0.296875q0.59375 0 1.046875 0.265625q0.453125 0.265625 0.703125 0.75q0.265625 0.484375 0.265625 1.171875l0 3.703125l-1.625 0l0 -3.40625q0 -0.546875 -0.28125 -0.84375q-0.265625 -0.296875 -0.75 -0.296875q-0.34375 0 -0.59375 0.140625q-0.234375 0.140625 -0.390625 0.40625q-0.140625 0.265625 -0.140625 0.640625z" fill-rule="nonzero"/><path fill="#000000" d="m166.45642 338.6914q-0.453125 0 -0.84375 -0.21875q-0.375 -0.234375 -0.609375 -0.609375q-0.21875 -0.390625 -0.21875 -0.84375q0 -0.453125 0.21875 -0.828125q0.234375 -0.390625 0.609375 -0.609375q0.390625 -0.21875 0.84375 -0.21875q0.453125 0 0.828125 0.21875q0.390625 0.21875 0.609375 0.609375q0.21875 0.375 0.21875 0.828125q0 0.453125 -0.21875 0.84375q-0.21875 0.375 -0.609375 0.609375q-0.375 0.21875 -0.828125 0.21875zm6.195801 -6.328125l0 7.75l-0.875 0l0 -7.75l0.875 0zm4.8105164 5.375l0 -3.4375l0.890625 0l0 5.8125l-0.890625 0l0 -0.984375l-0.0625 0q-0.203125 0.4375 -0.640625 0.75q-0.421875 0.3125 -1.078125 0.3125q-0.546875 0 -0.96875 -0.234375q-0.421875 -0.25 -0.671875 -0.734375q-0.234375 -0.484375 -0.234375 -1.234375l0 -3.6875l0.875 0l0 3.640625q0 0.625 0.359375 1.015625q0.375 0.375 0.921875 0.359375q0.328125 0 0.671875 -0.15625q0.359375 -0.171875 0.59375 -0.515625q0.234375 -0.359375 0.234375 -0.90625zm2.9111023 -1.125l0 3.5l-0.875 0l0 -7.75l0.875 0l0 2.84375l0.09375 0q0.203125 -0.453125 0.609375 -0.71875q0.40625 -0.265625 1.09375 -0.265625q0.59375 0 1.03125 0.234375q0.453125 0.234375 0.703125 0.734375q0.25 0.484375 0.25 1.234375l0 3.6875l-0.890625 0l0 -3.625q0 -0.703125 -0.359375 -1.078125q-0.359375 -0.390625 -1.0 -0.390625q-0.4375 0 -0.78125 0.1875q-0.34375 0.1875 -0.546875 0.546875q-0.203125 0.359375 -0.203125 0.859375zm9.601257 2.078125q-0.453125 0 -0.84375 -0.21875q-0.375 -0.234375 -0.609375 -0.609375q-0.21875 -0.390625 -0.21875 -0.84375q0 -0.453125 0.21875 -0.828125q0.234375 -0.390625 0.609375 -0.609375q0.390625 -0.21875 0.84375 -0.21875q0.453125 0 0.828125 0.21875q0.390625 0.21875 0.609375 0.609375q0.21875 0.375 0.21875 0.828125q0 0.453125 -0.21875 0.84375q-0.21875 0.375 -0.609375 0.609375q-0.375 0.21875 -0.828125 0.21875zm9.430176 -3.078125l-0.8125 0.21875q-0.109375 -0.296875 -0.390625 -0.5625q-0.28125 -0.28125 -0.859375 -0.28125q-0.53125 0 -0.890625 0.25q-0.34375 0.25 -0.34375 0.625q0 0.328125 0.234375 0.53125q0.25 0.1875 0.765625 0.3125l0.859375 0.21875q0.765625 0.1875 1.140625 0.578125q0.390625 0.375 0.390625 0.984375q0 0.5 -0.28125 0.90625q-0.28125 0.390625 -0.796875 0.625q-0.515625 0.21875 -1.1875 0.21875q-0.890625 0 -1.46875 -0.390625q-0.578125 -0.390625 -0.734375 -1.125l0.84375 -0.21875q0.125 0.46875 0.453125 0.703125q0.34375 0.234375 0.90625 0.234375q0.609375 0 0.984375 -0.265625q0.375 -0.265625 0.375 -0.640625q0 -0.609375 -0.875 -0.8125l-0.953125 -0.234375q-0.8125 -0.1875 -1.1875 -0.578125q-0.375 -0.40625 -0.375 -1.0q0 -0.5 0.28125 -0.875q0.28125 -0.375 0.765625 -0.59375q0.484375 -0.21875 1.09375 -0.21875q0.859375 0 1.34375 0.390625q0.5 0.375 0.71875 1.0zm1.7867126 2.375l-0.015625 -1.09375l0.1875 0l2.53125 -2.59375l1.109375 0l-2.703125 2.75l-0.09375 0l-1.015625 0.9375zm-0.828125 2.125l0 -7.75l0.875 0l0 7.75l-0.875 0zm3.671875 0l-2.265625 -2.875l0.640625 -0.625l2.78125 3.5l-1.15625 0zm3.7292023 0.125q-0.78125 0 -1.375 -0.375q-0.59375 -0.375 -0.921875 -1.046875q-0.328125 -0.6875 -0.328125 -1.578125q0 -0.90625 0.328125 -1.578125q0.328125 -0.6875 0.921875 -1.0625q0.59375 -0.375 1.375 -0.375q0.796875 0 1.390625 0.375q0.59375 0.375 0.921875 1.0625q0.328125 0.671875 0.328125 1.578125q0 0.890625 -0.328125 1.578125q-0.328125 0.671875 -0.921875 1.046875q-0.59375 0.375 -1.390625 0.375zm0 -0.796875q0.609375 0 0.984375 -0.3125q0.390625 -0.3125 0.578125 -0.8125q0.1875 -0.5 0.1875 -1.078125q0 -0.578125 -0.1875 -1.078125q-0.1875 -0.515625 -0.578125 -0.828125q-0.375 -0.3125 -0.984375 -0.3125q-0.59375 0 -0.984375 0.3125q-0.375 0.3125 -0.5625 0.828125q-0.1875 0.5 -0.1875 1.078125q0 0.578125 0.1875 1.078125q0.1875 0.5 0.5625 0.8125q0.390625 0.3125 0.984375 0.3125zm4.634903 0.671875l-1.78125 -5.8125l0.9375 0l1.265625 4.453125l0.0625 0l1.234375 -4.453125l0.953125 0l1.21875 4.4375l0.0625 0l1.265625 -4.4375l0.9375 0l-1.765625 5.8125l-0.875 0l-1.28125 -4.46875l-0.09375 0l-1.28125 4.46875l-0.859375 0zm6.8461914 2.171875l0 -7.984375l0.84375 0l0 0.921875l0.109375 0q0.09375 -0.15625 0.265625 -0.390625q0.1875 -0.234375 0.515625 -0.421875q0.34375 -0.1875 0.90625 -0.1875q0.734375 0 1.28125 0.375q0.5625 0.359375 0.875 1.03125q0.3125 0.671875 0.3125 1.59375q0 0.921875 -0.3125 1.609375q-0.3125 0.671875 -0.875 1.046875q-0.546875 0.359375 -1.28125 0.359375q-0.546875 0 -0.890625 -0.1875q-0.328125 -0.1875 -0.515625 -0.421875q-0.1875 -0.25 -0.28125 -0.40625l-0.078125 0l0 3.0625l-0.875 0zm2.53125 -2.84375q0.5625 0 0.9375 -0.296875q0.375 -0.3125 0.5625 -0.8125q0.1875 -0.5 0.1875 -1.125q0 -0.609375 -0.1875 -1.09375q-0.1875 -0.5 -0.5625 -0.796875q-0.375 -0.296875 -0.9375 -0.296875q-0.546875 0 -0.921875 0.28125q-0.359375 0.265625 -0.546875 0.765625q-0.1875 0.484375 -0.1875 1.140625q0 0.65625 0.1875 1.15625q0.1875 0.5 0.5625 0.796875q0.375 0.28125 0.90625 0.28125zm3.0045624 2.125q0.453125 -0.9375 0.734375 -1.71875q0.296875 -0.796875 0.4375 -1.5q0.140625 -0.71875 0.140625 -1.390625q0 -0.75 -0.15625 -1.609375q-0.15625 -0.875 -0.453125 -1.75q-0.296875 -0.890625 -0.703125 -1.703125l0.859375 0q0.40625 0.640625 0.703125 1.515625q0.296875 0.859375 0.46875 1.78125q0.171875 0.921875 0.171875 1.765625q0 1.140625 -0.34375 2.3125q-0.328125 1.171875 -1.0 2.296875l-0.859375 0z" fill-rule="nonzero"/></g></svg>