<svg version="1.1" viewBox="0.0 0.0 960.0 540.0" fill="none" stroke="none" stroke-linecap="square" stroke-miterlimit="10" xmlns:xlink="http://www.w3.org/1999/xlink" xmlns="http://www.w3.org/2000/svg"><clipPath id="p.0"><path d="m0 0l960.0 0l0 540.0l-960.0 0l0 -540.0z" clip-rule="nonzero"/></clipPath><g clip-path="url(#p.0)"><path fill="#fcb630" d="m0 0l960.0 0l0 540.0l-960.0 0z" fill-rule="evenodd"/><path fill="#d1e8ff" d="m209.30971 229.36188l0 0c0 -11.337494 9.190872 -20.528366 20.528366 -20.528366l82.11099 0l0 0c5.444458 0 10.665924 2.1628113 14.515747 6.012619c3.849823 3.849823 6.0126038 9.071289 6.0126038 14.515747l0 94.628784c0 11.337494 -9.190857 20.528381 -20.52835 20.528381l-82.11099 0c-11.337494 0 -20.528366 -9.190887 -20.528366 -20.528381z" fill-rule="evenodd"/><path fill="#f3f8fe" d="m235.18471 216.00996l0 0c0 -11.337494 9.190872 -20.528366 20.528366 -20.528366l82.11099 0l0 0c5.444458 0 10.665924 2.1628113 14.515747 6.012619c3.849823 3.849823 6.0126038 9.071289 6.0126038 14.515747l0 94.6288c0 11.337494 -9.190857 20.52835 -20.52835 20.52835l-82.11099 0c-11.337494 0 -20.528366 -9.190857 -20.528366 -20.52835z" fill-rule="evenodd"/><path fill="#d1e8ff" d="m253.85002 214.92212l0 0c0 -2.1169739 1.7161407 -3.8331146 3.8331146 -3.8331146l78.17087 0c1.0166016 0 1.9915771 0.4038391 2.7104187 1.1226959c0.71884155 0.71884155 1.1226807 1.6938019 1.1226807 2.7104187l0 15.33197c0 2.1169586 -1.7161255 3.8330994 -3.8330994 3.8330994l-78.17087 0c-2.1169739 0 -3.8331146 -1.7161407 -3.8331146 -3.8330994z" fill-rule="evenodd"/><path fill="#d1e8ff" d="m253.85002 248.9603l0 0c0 -2.1169586 1.7161407 -3.8330994 3.8331146 -3.8330994l78.17087 0c1.0166016 0 1.9915771 0.4038391 2.7104187 1.1226807c0.71884155 0.7188568 1.1226807 1.6938171 1.1226807 2.7104187l0 15.33197c0 2.1169739 -1.7161255 3.83313 -3.8330994 3.83313l-78.17087 0c-2.1169739 0 -3.8331146 -1.716156 -3.8331146 -3.83313z" fill-rule="evenodd"/><path fill="#d1e8ff" d="m253.85002 282.9985l0 0c0 -2.1169739 1.7161407 -3.83313 3.8331146 -3.83313l78.17087 0c1.0166016 0 1.9915771 0.4038391 2.7104187 1.1227112c0.71884155 0.71884155 1.1226807 1.6937866 1.1226807 2.7104187l0 15.33197c0 2.1169434 -1.7161255 3.8330994 -3.8330994 3.8330994l-78.17087 0c-2.1169739 0 -3.8331146 -1.716156 -3.8331146 -3.8330994z" fill-rule="evenodd"/><path fill="#e03027" d="m312.45023 300.8937l0 0c0 -3.5727844 2.8963013 -6.4690857 6.469116 -6.4690857l25.87564 0l0 0c1.7156982 0 3.361145 0.6815491 4.574341 1.8947449c1.2131958 1.2131958 1.8947449 2.8586426 1.8947449 4.574341l0 25.875671c0 3.5727844 -2.8963013 6.4690857 -6.4690857 6.4690857l-25.87564 0c-3.572815 0 -6.469116 -2.8963013 -6.469116 -6.4690857z" fill-rule="evenodd"/><path fill="#f73d35" d="m318.14407 304.68958l0 0c0 -2.5245361 2.0465698 -4.571106 4.5711365 -4.571106l18.283905 0l0 0c1.2123413 0 2.375 0.4815979 3.2322693 1.3388672c0.85723877 0.85723877 1.3388367 2.019928 1.3388367 3.2322388l0 18.283936c0 2.5245361 -2.0465698 4.571106 -4.571106 4.571106l-18.283905 0c-2.5245667 0 -4.5711365 -2.0465698 -4.5711365 -4.571106z" fill-rule="evenodd"/><path fill="#000000" fill-opacity="0.0" d="m383.03674 195.6693l399.65356 0l0 148.66142l-399.65356 0z" fill-rule="evenodd"/><path fill="#ffffff" d="m408.30237 220.72867l11.09375 0l0 35.140625l-11.09375 0l0 -35.140625zm-15.25 -4.859375l41.59375 0l0 9.8125l-41.59375 0l0 -9.8125zm56.303802 40.859375q-5.53125 0 -9.890625 -2.03125q-4.34375 -2.03125 -6.859375 -5.671875q-2.5 -3.65625 -2.5 -8.515625q0 -4.75 2.40625 -8.34375q2.40625 -3.59375 6.578125 -5.625q4.1875 -2.03125 9.46875 -2.03125q5.5 0 9.359375 2.375q3.875 2.375 5.96875 6.703125q2.109375 4.3125 2.109375 10.171875l-27.078125 0l0 -6.5625l20.953125 0l-3.578125 2.296875q-0.203125 -2.34375 -1.171875 -3.96875q-0.953125 -1.625 -2.53125 -2.46875q-1.578125 -0.859375 -3.765625 -0.859375q-2.390625 0 -4.109375 0.953125q-1.703125 0.953125 -2.671875 2.640625q-0.953125 1.6875 -0.953125 3.921875q0 2.875 1.3125 4.875q1.3125 2.0 3.84375 3.078125q2.53125 1.0625 6.203125 1.0625q3.359375 0 6.6875 -0.875q3.34375 -0.890625 6.0625 -2.484375l0 6.921875q-3.140625 2.140625 -7.171875 3.296875q-4.03125 1.140625 -8.671875 1.140625zm19.685883 -31.3125l11.09375 0l1.8125 10.875l0 19.578125l-10.875 0l0 -20.21875l-2.03125 -10.234375zm27.203125 -0.484375l0 9.28125q-1.609375 -0.3125 -3.03125 -0.4375q-1.40625 -0.140625 -2.578125 -0.140625q-2.34375 0 -4.3125 0.9375q-1.96875 0.921875 -3.171875 3.0625q-1.203125 2.125 -1.203125 5.703125l-2.078125 -2.5625q0.421875 -3.296875 1.265625 -6.203125q0.859375 -2.90625 2.328125 -5.171875q1.46875 -2.28125 3.65625 -3.578125q2.1875 -1.3125 5.328125 -1.3125q0.90625 0 1.859375 0.109375q0.96875 0.109375 1.9375 0.3125zm2.2872925 0.484375l10.9375 0l1.96875 12.15625l0 18.296875l-10.875 0l0 -19.9375l-2.03125 -10.515625zm23.40625 -0.90625q4.21875 0 7.140625 1.765625q2.9375 1.75 4.484375 4.953125q1.546875 3.203125 1.546875 7.578125l0 17.0625l-10.875 0l0 -15.46875q0 -3.40625 -1.546875 -5.21875q-1.546875 -1.8125 -4.484375 -1.8125q-2.078125 0 -3.59375 0.96875q-1.515625 0.953125 -2.34375 2.71875q-0.828125 1.75 -0.828125 4.140625l-3.359375 -1.75q0.640625 -4.859375 2.609375 -8.1875q1.96875 -3.328125 4.875 -5.03125q2.90625 -1.71875 6.375 -1.71875zm23.625 0q4.21875 0 7.171875 1.765625q2.96875 1.75 4.515625 4.953125q1.546875 3.203125 1.546875 7.578125l0 17.0625l-10.890625 0l0 -15.46875q0 -3.40625 -1.546875 -5.21875q-1.546875 -1.8125 -4.46875 -1.8125q-2.078125 0 -3.609375 0.96875q-1.515625 0.953125 -2.34375 2.71875q-0.828125 1.75 -0.828125 4.140625l-3.359375 -1.75q0.640625 -4.859375 2.578125 -8.1875q1.953125 -3.328125 4.890625 -5.03125q2.9375 -1.71875 6.34375 -1.71875zm54.139038 21.4375q0 3.515625 -2.140625 5.921875q-2.140625 2.40625 -6.09375 3.640625q-3.9375 1.21875 -9.484375 1.21875q-5.703125 0 -10.0 -1.390625q-4.28125 -1.390625 -6.6875 -3.890625q-2.390625 -2.515625 -2.5625 -5.8125l11.046875 0q0.375 1.21875 1.46875 2.109375q1.09375 0.875 2.90625 1.328125q1.8125 0.453125 4.3125 0.453125q3.25 0 4.921875 -0.640625q1.6875 -0.640625 1.6875 -1.921875q0 -1.015625 -1.28125 -1.515625q-1.265625 -0.515625 -4.359375 -0.78125l-5.390625 -0.421875q-5.390625 -0.375 -8.5625 -1.625q-3.171875 -1.25 -4.5625 -3.25q-1.375 -2.0 -1.375 -4.5625q0 -3.46875 2.15625 -5.734375q2.15625 -2.265625 6.015625 -3.40625q3.875 -1.15625 9.046875 -1.15625q5.125 0 9.125 1.34375q4.0 1.328125 6.390625 3.703125q2.40625 2.375 2.78125 5.5625l-11.046875 0q-0.265625 -1.015625 -1.171875 -1.828125q-0.90625 -0.828125 -2.515625 -1.359375q-1.59375 -0.546875 -4.09375 -0.546875q-2.9375 0 -4.453125 0.640625q-1.515625 0.640625 -1.515625 1.8125q0 0.90625 0.921875 1.453125q0.9375 0.53125 3.5 0.734375l7.09375 0.53125q5.28125 0.328125 8.3125 1.53125q3.046875 1.203125 4.328125 3.171875q1.28125 1.96875 1.28125 4.6875zm54.864685 -18.71875l-10.828125 0q-0.265625 -1.96875 -1.734375 -3.265625q-1.453125 -1.3125 -4.1875 -1.3125q-1.59375 0 -2.75 0.421875q-1.140625 0.421875 -1.734375 1.234375q-0.578125 0.796875 -0.578125 1.8125q0 0.84375 0.5 1.703125q0.515625 0.84375 1.6875 1.8125l30.453125 26.234375l-13.59375 0l-25.171875 -21.546875q-2.296875 -1.96875 -3.875 -4.171875q-1.5625 -2.21875 -1.5625 -4.78125q0 -3.09375 1.859375 -5.40625q1.875 -2.328125 5.5 -3.625q3.625 -1.3125 8.84375 -1.3125q5.328125 0 9.09375 1.59375q3.765625 1.59375 5.8125 4.375q2.0625 2.765625 2.265625 6.234375zm-2.828125 6.5625l11.3125 0l-12.75 14.40625q-2.671875 3.03125 -5.34375 4.921875q-2.65625 1.890625 -5.75 2.75q-3.09375 0.859375 -7.03125 0.859375q-5.015625 0 -8.625 -1.578125q-3.59375 -1.578125 -5.515625 -4.234375q-1.921875 -2.671875 -1.921875 -6.078125q0 -3.0 1.59375 -5.453125q1.609375 -2.453125 5.015625 -4.09375q3.421875 -1.65625 8.921875 -2.1875l2.234375 4.265625q-3.3125 0.6875 -5.125 2.265625q-1.8125 1.5625 -1.8125 3.75q0 1.453125 0.875 2.65625q0.890625 1.1875 2.40625 1.890625q1.515625 0.6875 3.609375 0.6875q3.71875 0 6.203125 -1.4375q2.484375 -1.4375 4.234375 -3.6875l7.46875 -9.703125z" fill-rule="nonzero"/><path fill="#ffffff" d="m440.193 303.1193q-0.59375 5.28125 -3.640625 9.265625q-3.03125 3.96875 -7.96875 6.15625q-4.921875 2.1875 -11.328125 2.1875q-6.984375 0 -12.21875 -2.609375q-5.21875 -2.625 -8.125 -7.3125q-2.90625 -4.703125 -2.90625 -10.9375q0 -6.234375 2.90625 -10.921875q2.90625 -4.703125 8.125 -7.3125q5.234375 -2.609375 12.21875 -2.609375q6.40625 0 11.328125 2.1875q4.9375 2.1875 7.96875 6.15625q3.046875 3.96875 3.640625 9.25l-11.09375 0q-0.53125 -2.5625 -2.078125 -4.34375q-1.546875 -1.796875 -4.03125 -2.75q-2.46875 -0.953125 -5.734375 -0.953125q-3.734375 0 -6.453125 1.359375q-2.71875 1.359375 -4.15625 3.890625q-1.4375 2.53125 -1.4375 6.046875q0 3.515625 1.4375 6.0625q1.4375 2.53125 4.15625 3.890625q2.71875 1.359375 6.453125 1.359375q3.265625 0 5.734375 -0.90625q2.484375 -0.90625 4.03125 -2.71875q1.546875 -1.8125 2.078125 -4.4375l11.09375 0zm22.617126 17.609375q-5.875 0 -10.25 -2.0q-4.375 -2.0 -6.828125 -5.65625q-2.453125 -3.65625 -2.453125 -8.40625q0 -4.84375 2.453125 -8.46875q2.453125 -3.625 6.828125 -5.65625q4.375 -2.03125 10.25 -2.03125q5.8125 0 10.203125 2.03125q4.40625 2.03125 6.859375 5.65625q2.453125 3.625 2.453125 8.46875q0 4.75 -2.453125 8.40625q-2.453125 3.65625 -6.859375 5.65625q-4.390625 2.0 -10.203125 2.0zm0 -8.0625q2.65625 0 4.546875 -0.953125q1.90625 -0.96875 2.90625 -2.78125q1.015625 -1.8125 1.015625 -4.265625q0 -2.5625 -1.015625 -4.34375q-1.0 -1.78125 -2.90625 -2.734375q-1.890625 -0.96875 -4.546875 -0.96875q-2.671875 0 -4.59375 0.96875q-1.921875 0.953125 -2.9375 2.734375q-1.015625 1.78125 -1.015625 4.296875q0 2.5 1.015625 4.3125q1.015625 1.8125 2.9375 2.78125q1.921875 0.953125 4.59375 0.953125zm22.444366 -23.25l10.9375 0l1.96875 12.15625l0 18.296875l-10.875 0l0 -19.9375l-2.03125 -10.515625zm24.109375 -0.90625q4.3749695 0 7.4530945 1.765625q3.09375 1.75 4.71875 4.953125q1.640625 3.203125 1.640625 7.578125l0 17.0625l-10.890625 0l0 -15.46875q0 -3.40625 -1.7343445 -5.21875q-1.71875 -1.8125 -4.984375 -1.8125q-2.234375 0 -3.921875 0.96875q-1.671875 0.953125 -2.578125 2.71875q-0.90625 1.75 -0.90625 4.140625l-3.359375 -1.75q0.640625 -4.859375 2.71875 -8.1875q2.078125 -3.328125 5.109375 -5.03125q3.046875 -1.71875 6.734375 -1.71875zm47.138336 31.359375l-1.4375 -11.40625l1.859375 -3.734375l-1.8125 -4.703125l2.5625 -21.21875l11.3125 0l-3.15625 25.015625l1.921875 16.046875l-11.25 0zm2.34375 -15.203125q-0.75 4.796875 -2.96875 8.4375q-2.203125 3.625 -5.59375 5.625q-3.375 2.0 -7.703125 2.0q-4.484375 0 -7.875 -2.0q-3.375 -2.0 -5.296875 -5.65625q-1.921875 -3.65625 -1.921875 -8.40625q0 -4.84375 1.921875 -8.46875q1.921875 -3.625 5.296875 -5.65625q3.390625 -2.03125 7.875 -2.03125q4.328125 0 7.703125 2.0q3.390625 2.0 5.625 5.609375q2.25 3.59375 2.9375 8.546875zm-20.3125 0q0 2.25 0.921875 4.015625q0.9375 1.75 2.59375 2.734375q1.65625 0.984375 3.78125 0.984375q2.25 0 4.21875 -0.984375q1.96875 -0.984375 3.453125 -2.734375q1.5 -1.765625 2.25 -4.015625q-0.75 -2.28125 -2.25 -4.046875q-1.484375 -1.765625 -3.453125 -2.765625q-1.96875 -1.015625 -4.21875 -1.015625q-2.125 0 -3.78125 1.015625q-1.65625 1.0 -2.59375 2.765625q-0.921875 1.765625 -0.921875 4.046875zm34.389954 -15.734375l5.5 1.078125l5.4375 -1.078125l0 30.9375l-10.9375 0l0 -30.9375zm5.453125 -2.5q-2.828125 0 -4.59375 -1.40625q-1.75 -1.421875 -1.75 -3.875q0 -2.390625 1.75 -3.828125q1.765625 -1.453125 4.59375 -1.453125q2.921875 0 4.65625 1.453125q1.734375 1.4375 1.734375 3.828125q0 2.453125 -1.734375 3.875q-1.734375 1.40625 -4.65625 1.40625zm8.779968 11.046875l0 -4.75l6.1875 -2.515625l4.703125 -9.0l6.1875 0l0 8.203125l12.796875 0l0 8.0625l-12.796875 0l0 8.953125q0 3.3125 1.328125 4.640625q1.328125 1.328125 4.859375 1.328125q2.234375 0 3.96875 -0.390625q1.734375 -0.40625 3.171875 -1.046875l0 8.21875q-1.609375 0.578125 -4.21875 1.0625q-2.609375 0.484375 -5.375 0.484375q-5.078125 0 -8.3125 -1.546875q-3.21875 -1.546875 -4.765625 -4.453125q-1.546875 -2.90625 -1.546875 -6.8125l0 -10.4375l-6.1875 0zm34.828674 -8.546875l5.5 1.078125l5.4375 -1.078125l0 30.9375l-10.9375 0l0 -30.9375zm5.453125 -2.5q-2.828125 0 -4.59375 -1.40625q-1.75 -1.421875 -1.75 -3.875q0 -2.390625 1.75 -3.828125q1.765625 -1.453125 4.59375 -1.453125q2.921875 0 4.65625 1.453125q1.734375 1.4375 1.734375 3.828125q0 2.453125 -1.734375 3.875q-1.734375 1.40625 -4.65625 1.40625zm29.59253 34.296875q-5.875 0 -10.25 -2.0q-4.375 -2.0 -6.828125 -5.65625q-2.453125 -3.65625 -2.453125 -8.40625q0 -4.84375 2.453125 -8.46875q2.453125 -3.625 6.828125 -5.65625q4.375 -2.03125 10.25 -2.03125q5.8125 0 10.203125 2.03125q4.40625 2.03125 6.859375 5.65625q2.453125 3.625 2.453125 8.46875q0 4.75 -2.453125 8.40625q-2.453125 3.65625 -6.859375 5.65625q-4.390625 2.0 -10.203125 2.0zm0 -8.0625q2.65625 0 4.546875 -0.953125q1.90625 -0.96875 2.90625 -2.78125q1.015625 -1.8125 1.015625 -4.265625q0 -2.5625 -1.015625 -4.34375q-1.0 -1.78125 -2.90625 -2.734375q-1.890625 -0.96875 -4.546875 -0.96875q-2.671875 0 -4.59375 0.96875q-1.921875 0.953125 -2.9375 2.734375q-1.015625 1.78125 -1.015625 4.296875q0 2.5 1.015625 4.3125q1.015625 1.8125 2.9375 2.78125q1.921875 0.953125 4.59375 0.953125zm22.444336 -23.25l10.9375 0l1.96875 12.15625l0 18.296875l-10.875 0l0 -19.9375l-2.03125 -10.515625zm24.109375 -0.90625q4.375 0 7.453125 1.765625q3.09375 1.75 4.71875 4.953125q1.640625 3.203125 1.640625 7.578125l0 17.0625l-10.890625 0l0 -15.46875q0 -3.40625 -1.734375 -5.21875q-1.71875 -1.8125 -4.984375 -1.8125q-2.234375 0 -3.921875 0.96875q-1.671875 0.953125 -2.578125 2.71875q-0.90625 1.75 -0.90625 4.140625l-3.359375 -1.75q0.640625 -4.859375 2.71875 -8.1875q2.078125 -3.328125 5.109375 -5.03125q3.046875 -1.71875 6.734375 -1.71875zm54.71643 21.4375q0 3.515625 -2.140625 5.921875q-2.140625 2.40625 -6.09375 3.640625q-3.9375 1.21875 -9.484375 1.21875q-5.703125 0 -10.0 -1.390625q-4.28125 -1.390625 -6.6875 -3.890625q-2.390625 -2.515625 -2.5625 -5.8125l11.046875 0q0.375 1.21875 1.46875 2.109375q1.09375 0.875 2.90625 1.328125q1.8125 0.453125 4.3125 0.453125q3.25 0 4.921875 -0.640625q1.6875 -0.640625 1.6875 -1.921875q0 -1.015625 -1.28125 -1.515625q-1.265625 -0.515625 -4.359375 -0.78125l-5.390625 -0.421875q-5.390625 -0.375 -8.5625 -1.625q-3.171875 -1.25 -4.5625 -3.25q-1.375 -2.0 -1.375 -4.5625q0 -3.46875 2.15625 -5.734375q2.15625 -2.265625 6.015625 -3.40625q3.875 -1.15625 9.046875 -1.15625q5.125 0 9.125 1.34375q4.0 1.328125 6.390625 3.703125q2.40625 2.375 2.78125 5.5625l-11.046875 0q-0.265625 -1.015625 -1.171875 -1.828125q-0.90625 -0.828125 -2.515625 -1.359375q-1.59375 -0.546875 -4.09375 -0.546875q-2.9375 0 -4.453125 0.640625q-1.515625 0.640625 -1.515625 1.8125q0 0.90625 0.921875 1.453125q0.9375 0.53125 3.5 0.734375l7.09375 0.53125q5.28125 0.328125 8.3125 1.53125q3.046875 1.203125 4.328125 3.171875q1.28125 1.96875 1.28125 4.6875z" fill-rule="nonzero"/></g></svg>