<svg version="1.1" viewBox="0.0 0.0 288.0 384.0" fill="none" stroke="none" stroke-linecap="square" stroke-miterlimit="10" xmlns:xlink="http://www.w3.org/1999/xlink" xmlns="http://www.w3.org/2000/svg"><clipPath id="g3b18a6c779a_0_2770.0"><path d="m0 0l288.0 0l0 384.0l-288.0 0l0 -384.0z" clip-rule="nonzero"/></clipPath><g clip-path="url(#g3b18a6c779a_0_2770.0)"><path fill="#ffffff" d="m0 0l288.0 0l0 384.0l-288.0 0z" fill-rule="evenodd"/><path fill="#2563eb" d="m5.7007875 34.135216l0 0c0 -9.966135 8.079147 -18.045282 18.04528 -18.045282l240.50787 0c4.7858887 0 9.375793 1.9011936 12.759949 5.2853394c3.3841248 3.3841476 5.2853394 7.9740353 5.2853394 12.759943l0 324.2244c0 9.9661255 -8.079163 18.045288 -18.045288 18.045288l-240.50787 0l0 0c-9.966134 0 -18.04528 -8.079163 -18.04528 -18.045288z" fill-rule="evenodd"/><path stroke="#2563eb" stroke-width="4.0" stroke-linejoin="round" stroke-linecap="butt" d="m5.7007875 34.135216l0 0c0 -9.966135 8.079147 -18.045282 18.04528 -18.045282l240.50787 0c4.7858887 0 9.375793 1.9011936 12.759949 5.2853394c3.3841248 3.3841476 5.2853394 7.9740353 5.2853394 12.759943l0 324.2244c0 9.9661255 -8.079163 18.045288 -18.045288 18.045288l-240.50787 0l0 0c-9.966134 0 -18.04528 -8.079163 -18.04528 -18.045288z" fill-rule="evenodd"/><path fill="#a8c3ff" d="m5.7007875 25.639769l0 0c0 -9.966133 8.079147 -18.04528 18.04528 -18.04528l240.50787 0c4.7858887 0 9.375793 1.9011936 12.759949 5.2853403c3.3841248 3.3841467 5.2853394 7.9740343 5.2853394 12.75994l0 324.2244c0 9.9661255 -8.079163 18.045288 -18.045288 18.045288l-240.50787 0l0 0c-9.966134 0 -18.04528 -8.079163 -18.04528 -18.045288z" fill-rule="evenodd"/><path stroke="#2563eb" stroke-width="4.0" stroke-linejoin="round" stroke-linecap="butt" d="m5.7007875 25.639769l0 0c0 -9.966133 8.079147 -18.04528 18.04528 -18.04528l240.50787 0c4.7858887 0 9.375793 1.9011936 12.759949 5.2853403c3.3841248 3.3841467 5.2853394 7.9740343 5.2853394 12.75994l0 324.2244c0 9.9661255 -8.079163 18.045288 -18.045288 18.045288l-240.50787 0l0 0c-9.966134 0 -18.04528 -8.079163 -18.04528 -18.045288z" fill-rule="evenodd"/><path fill="#000000" fill-opacity="0.0" d="m21.700787 315.7533l266.29922 0l0 38.771637l-266.29922 0z" fill-rule="evenodd"/><path fill="#000000" d="m35.575787 329.5664l3.328125 0l0 10.546875l-3.328125 0l0 -10.546875zm-4.578125 -1.453125l12.484375 0l0 2.9375l-12.484375 0l0 -2.9375zm16.990906 12.25q-1.765625 0 -3.078125 -0.59375q-1.3125 -0.59375 -2.046875 -1.6875q-0.734375 -1.109375 -0.734375 -2.53125q0 -1.453125 0.734375 -2.53125q0.734375 -1.09375 2.046875 -1.703125q1.3125 -0.609375 3.078125 -0.609375q1.734375 0 3.046875 0.609375q1.328125 0.609375 2.0625 1.703125q0.734375 1.078125 0.734375 2.53125q0 1.421875 -0.734375 2.53125q-0.734375 1.09375 -2.0625 1.6875q-1.3125 0.59375 -3.046875 0.59375zm0 -2.40625q0.796875 0 1.359375 -0.28125q0.5625 -0.296875 0.859375 -0.84375q0.3125 -0.546875 0.3125 -1.28125q0 -0.765625 -0.3125 -1.296875q-0.296875 -0.546875 -0.859375 -0.828125q-0.5625 -0.28125 -1.359375 -0.28125q-0.8125 0 -1.390625 0.28125q-0.5625 0.28125 -0.875 0.828125q-0.296875 0.53125 -0.296875 1.28125q0 0.75 0.296875 1.296875q0.3125 0.546875 0.875 0.84375q0.578125 0.28125 1.390625 0.28125zm6.733032 -6.984375l3.28125 0l0.59375 3.65625l0 5.484375l-3.265625 0l0 -5.984375l-0.609375 -3.15625zm7.234375 -0.265625q1.3125 0 2.2343788 0.53125q0.921875 0.515625 1.40625 1.484375q0.5 0.953125 0.5 2.265625l0 5.125l-3.2656288 0l0 -4.640625q0 -1.015625 -0.53125 -1.5625q-0.515625 -0.546875 -1.484375 -0.546875q-0.671875 0 -1.1875 0.296875q-0.5 0.28125 -0.765625 0.8125q-0.265625 0.515625 -0.265625 1.234375l-1.015625 -0.515625q0.1875 -1.46875 0.8125 -2.46875q0.625 -1.0 1.53125 -1.5q0.921875 -0.515625 2.03125 -0.515625zm13.795902 7.109375l0 -1.5625l0.109375 -0.375l0 -2.25l-0.109375 -0.328125l0 -2.328125l3.265625 0l0 6.703125q0 1.6875 -0.78125 2.875q-0.78125 1.203125 -2.1875 1.828125q-1.390625 0.625 -3.296875 0.625q-1.265625 0 -2.34375 -0.328125q-1.078125 -0.328125 -2.15625 -0.96875l0 -2.453125q1.0 0.734375 2.09375 1.0625q1.09375 0.328125 2.1875 0.328125q1.578125 0 2.390625 -0.671875q0.828125 -0.671875 0.828125 -2.15625zm-3.921875 1.34375q-1.296875 0 -2.3125 -0.53125q-1.0 -0.53125 -1.578125 -1.484375q-0.578125 -0.953125 -0.578125 -2.21875q0 -1.28125 0.578125 -2.21875q0.578125 -0.953125 1.578125 -1.46875q1.015625 -0.53125 2.3125 -0.53125q0.96875 0 1.765625 0.296875q0.796875 0.296875 1.421875 0.78125q0.625 0.484375 1.046875 1.0625q0.421875 0.5625 0.640625 1.125q0.234375 0.5625 0.234375 0.984375q0 0.59375 -0.34375 1.3125q-0.34375 0.71875 -1.0 1.375q-0.65625 0.65625 -1.609375 1.09375q-0.953125 0.421875 -2.15625 0.421875zm1.109375 -2.234375q0.953125 0 1.6875 -0.484375q0.734375 -0.5 1.234375 -1.515625q-0.515625 -1.015625 -1.265625 -1.5q-0.734375 -0.5 -1.65625 -0.5q-0.703125 0 -1.234375 0.25q-0.515625 0.234375 -0.78125 0.6875q-0.265625 0.453125 -0.265625 1.0625q0 0.59375 0.265625 1.046875q0.265625 0.453125 0.78125 0.703125q0.515625 0.25 1.234375 0.25zm11.773651 3.4375q-1.28125 0 -2.1875 -0.515625q-0.890625 -0.53125 -1.375 -1.5q-0.484375 -0.96875 -0.484375 -2.265625l0 -5.109375l3.265625 0l0 4.640625q0 1.015625 0.5 1.5625q0.5 0.53125 1.421875 0.53125q0.6875 0 1.140625 -0.265625q0.46875 -0.28125 0.71875 -0.8125q0.265625 -0.53125 0.265625 -1.265625l1.015625 0.53125q-0.1875 1.453125 -0.796875 2.453125q-0.609375 1.0 -1.515625 1.515625q-0.890625 0.5 -1.96875 0.5zm3.859375 -0.25l-0.59375 -3.65625l0 -5.484375l3.265625 0l0 5.984375l0.59375 3.15625l-3.265625 0zm9.930527 0.25q-1.65625 0 -2.96875 -0.59375q-1.296875 -0.609375 -2.046875 -1.703125q-0.75 -1.109375 -0.75 -2.5625q0 -1.421875 0.71875 -2.5q0.71875 -1.078125 1.96875 -1.6875q1.265625 -0.609375 2.84375 -0.609375q1.640625 0 2.796875 0.71875q1.171875 0.703125 1.796875 2.0q0.640625 1.296875 0.640625 3.0625l-8.125 0l0 -1.96875l6.28125 0l-1.0625 0.6875q-0.078125 -0.703125 -0.359375 -1.1875q-0.28125 -0.5 -0.765625 -0.75q-0.46875 -0.265625 -1.125 -0.265625q-0.71875 0 -1.234375 0.296875q-0.5 0.28125 -0.796875 0.796875q-0.28125 0.5 -0.28125 1.171875q0 0.859375 0.390625 1.46875q0.390625 0.59375 1.140625 0.921875q0.765625 0.3125 1.875 0.3125q1.0 0 2.0 -0.265625q1.0 -0.265625 1.828125 -0.75l0 2.078125q-0.953125 0.640625 -2.171875 0.984375q-1.203125 0.34375 -2.59375 0.34375z" fill-rule="nonzero"/><path fill="#000000" d="m112.38025 336.95703q0 -0.84375 0.171875 -1.765625q0.171875 -0.921875 0.46875 -1.78125q0.3125 -0.875 0.703125 -1.515625l0.859375 0q-0.40625 0.8125 -0.703125 1.703125q-0.296875 0.875 -0.453125 1.75q-0.15625 0.859375 -0.15625 1.609375q0 0.671875 0.140625 1.390625q0.140625 0.703125 0.421875 1.5q0.296875 0.78125 0.75 1.71875l-0.859375 0q-0.671875 -1.125 -1.015625 -2.296875q-0.328125 -1.171875 -0.328125 -2.3125zm8.041168 -2.65625l0 0.75l-3.015625 0l0 -0.75l3.015625 0zm-2.140625 -1.390625l0.890625 0l0 5.53125q0 0.453125 0.1875 0.671875q0.1875 0.203125 0.59375 0.203125q0.078125 0 0.171875 0q0.109375 -0.015625 0.21875 -0.03125l0.1875 0.796875q-0.125 0.046875 -0.3125 0.078125q-0.171875 0.03125 -0.34375 0.03125q-0.703125 0 -1.15625 -0.421875q-0.4375 -0.421875 -0.4375 -1.078125l0 -5.78125zm6.652954 4.828125l0 -3.4375l0.890625 0l0 5.8125l-0.890625 0l0 -0.984375l-0.0625 0q-0.203125 0.4375 -0.640625 0.75q-0.421875 0.3125 -1.078125 0.3125q-0.546875 0 -0.96875 -0.234375q-0.421875 -0.25 -0.671875 -0.734375q-0.234375 -0.484375 -0.234375 -1.234375l0 -3.6875l0.875 0l0 3.640625q0 0.625 0.359375 1.015625q0.375 0.375 0.921875 0.359375q0.328125 0 0.671875 -0.15625q0.359375 -0.171875 0.59375 -0.515625q0.234375 -0.359375 0.234375 -0.90625zm2.9111023 -1.125l0 3.5l-0.875 0l0 -7.75l0.875 0l0 2.84375l0.09375 0q0.203125 -0.453125 0.609375 -0.71875q0.40625 -0.265625 1.09375 -0.265625q0.59375 0 1.03125 0.234375q0.453125 0.234375 0.703125 0.734375q0.25 0.484375 0.25 1.234375l0 3.6875l-0.890625 0l0 -3.625q0 -0.703125 -0.359375 -1.078125q-0.359375 -0.390625 -1.0 -0.390625q-0.4375 0 -0.78125 0.1875q-0.34375 0.1875 -0.546875 0.546875q-0.203125 0.359375 -0.203125 0.859375zm5.8068237 0l0 3.5l-0.875 0l0 -5.8125l0.84375 0l0 0.90625l0.09375 0q0.203125 -0.4375 0.609375 -0.703125q0.421875 -0.28125 1.078125 -0.28125q0.59375 0 1.03125 0.25q0.4375 0.234375 0.6875 0.71875q0.25 0.484375 0.25 1.234375l0 3.6875l-0.890625 0l0 -3.625q0 -0.6875 -0.359375 -1.078125q-0.359375 -0.390625 -0.96875 -0.390625q-0.421875 0 -0.765625 0.1875q-0.34375 0.1875 -0.546875 0.546875q-0.1875 0.359375 -0.1875 0.859375zm7.19751 5.796875q-0.96875 0 -1.53125 -0.359375q-0.5625 -0.34375 -0.828125 -0.796875l0.703125 -0.5q0.125 0.15625 0.3125 0.359375q0.1875 0.203125 0.5 0.359375q0.328125 0.15625 0.84375 0.15625q0.703125 0 1.15625 -0.34375q0.46875 -0.34375 0.46875 -1.0625l0 -1.1875l-0.078125 0q-0.09375 0.15625 -0.28125 0.390625q-0.171875 0.234375 -0.515625 0.421875q-0.328125 0.171875 -0.90625 0.171875q-0.6875 0 -1.25 -0.328125q-0.5625 -0.34375 -0.890625 -0.96875q-0.3125 -0.640625 -0.3125 -1.546875q0 -0.890625 0.3125 -1.546875q0.3125 -0.671875 0.875 -1.03125q0.5625 -0.375 1.296875 -0.375q0.5625 0 0.890625 0.1875q0.34375 0.1875 0.515625 0.421875q0.1875 0.234375 0.28125 0.390625l0.09375 0l0 -0.921875l0.859375 0l0 5.984375q0 0.75 -0.34375 1.21875q-0.328125 0.46875 -0.90625 0.6875q-0.5625 0.21875 -1.265625 0.21875zm-0.03125 -3.1875q0.8125 0 1.234375 -0.546875q0.4375 -0.546875 0.4375 -1.515625q0 -0.625 -0.1875 -1.109375q-0.1875 -0.484375 -0.5625 -0.75q-0.375 -0.28125 -0.921875 -0.28125q-0.5625 0 -0.9375 0.296875q-0.375 0.28125 -0.5625 0.765625q-0.1875 0.484375 -0.1875 1.078125q0 0.59375 0.1875 1.0625q0.1875 0.46875 0.5625 0.734375q0.390625 0.265625 0.9375 0.265625zm5.866699 2.34375q0.453125 -0.9375 0.734375 -1.71875q0.296875 -0.796875 0.4375 -1.5q0.140625 -0.71875 0.140625 -1.390625q0 -0.75 -0.15625 -1.609375q-0.15625 -0.875 -0.453125 -1.75q-0.296875 -0.890625 -0.703125 -1.703125l0.859375 0q0.40625 0.640625 0.703125 1.515625q0.296875 0.859375 0.46875 1.78125q0.171875 0.921875 0.171875 1.765625q0 1.140625 -0.34375 2.3125q-0.328125 1.171875 -1.0 2.296875l-0.859375 0z" fill-rule="nonzero"/><path fill="#2563eb" d="m55.616604 133.88126l0 0c0 -9.110832 7.385784 -16.49662 16.496609 -16.49662l159.7752 0c4.375168 0 8.571152 1.7380371 11.664871 4.831749c3.0937042 3.0937119 4.8317413 7.289688 4.8317413 11.664871l0 65.98445c0 9.110825 -7.385788 16.496613 -16.496613 16.496613l-159.7752 0c-9.110825 0 -16.496609 -7.385788 -16.496609 -16.496613z" fill-rule="evenodd"/><path fill="#2563eb" d="m67.33068 140.85745l0 0c0 -7.184845 5.824463 -13.009308 13.009308 -13.009308l143.33917 0c3.4502869 0 6.759262 1.3706207 9.198975 3.8103485c2.4397125 2.4397125 3.8103333 5.7486877 3.8103333 9.198959l0 52.03569c0 7.1848297 -5.824463 13.009308 -13.009308 13.009308l-143.33917 0c-7.184845 0 -13.009308 -5.824478 -13.009308 -13.009308z" fill-rule="evenodd"/><path fill="#2563eb" d="m79.88871 147.33255l0 0c0 -5.396881 4.3750305 -9.771912 9.771904 -9.771912l124.68002 0c2.5916595 0 5.077179 1.029541 6.909775 2.8621368c1.8325806 1.8325806 2.8621216 4.3181 2.8621216 6.909775l0 39.086426c0 5.396881 -4.3750305 9.771912 -9.771896 9.771912l-124.68002 0l0 0c-5.3968735 0 -9.771904 -4.3750305 -9.771904 -9.771912z" fill-rule="evenodd"/><path fill="#2563eb" d="m133.42068 129.46686l0 0c0 -0.8939972 0.72473145 -1.6187134 1.6187134 -1.6187134l33.937607 0c0.42930603 0 0.8410187 0.17054749 1.1445923 0.47410583c0.30355835 0.3035736 0.47410583 0.7153015 0.47410583 1.1446075l0 6.4746094c0 0.8939972 -0.7247162 1.6187134 -1.6186981 1.6187134l-33.937607 0l0 0c-0.89398193 0 -1.6187134 -0.7247162 -1.6187134 -1.6187134z" fill-rule="evenodd"/><path fill="#2563eb" d="m133.42068 197.80875l0 0c0 -0.89398193 0.72473145 -1.6186981 1.6187134 -1.6186981l33.937607 0c0.42930603 0 0.8410187 0.17053223 1.1445923 0.47410583c0.30355835 0.30355835 0.47410583 0.71528625 0.47410583 1.1445923l0 6.4746246c0 0.89398193 -0.7247162 1.6187134 -1.6186981 1.6187134l-33.937607 0l0 0c-0.89398193 0 -1.6187134 -0.72473145 -1.6187134 -1.6187134z" fill-rule="evenodd"/><path fill="#2563eb" d="m124.30599 207.64806l0 0c0 -0.9640198 0.78149414 -1.7455139 1.7455139 -1.7455139l51.9022 0c0.4629364 0 0.9069214 0.18389893 1.2342682 0.5112457c0.3273468 0.3273468 0.5112457 0.7713318 0.5112457 1.2342682l0 6.9818573c0 0.9640198 -0.78149414 1.7455139 -1.7455139 1.7455139l-51.9022 0l0 0c-0.9640198 0 -1.7455139 -0.78149414 -1.7455139 -1.7455139z" fill-rule="evenodd"/><path fill="#2563eb" d="m124.30599 119.13016l0 0c0 -0.9640274 0.78149414 -1.7455215 1.7455139 -1.7455215l51.9022 0c0.4629364 0 0.9069214 0.18390656 1.2342682 0.51125336c0.3273468 0.3273468 0.5112457 0.77132416 0.5112457 1.2342682l0 6.9818497c0 0.9640198 -0.78149414 1.7455139 -1.7455139 1.7455139l-51.9022 0l0 0c-0.9640198 0 -1.7455139 -0.78149414 -1.7455139 -1.7455139z" fill-rule="evenodd"/><path fill="#2563eb" d="m125.816666 159.61206l0 0c0 -3.34729 2.7135162 -6.0608063 6.0608215 -6.0608063l40.250137 0c1.6074371 0 3.1490326 0.6385498 4.2856445 1.7751617c1.1366272 1.1366272 1.775177 2.6782227 1.775177 4.2856445l0 24.242538c0 3.3473053 -2.7135162 6.0608215 -6.0608215 6.0608215l-40.250137 0c-3.3473053 0 -6.0608215 -2.7135162 -6.0608215 -6.0608215z" fill-rule="evenodd"/><path fill="#2563eb" d="m117.132385 142.30487l0 0c0 -2.620163 2.1240616 -4.744232 4.7442245 -4.744232l21.10653 0c1.2582397 0 2.4649506 0.4998474 3.35466 1.3895569c0.88972473 0.8897095 1.3895569 2.0964203 1.3895569 3.3546753l0 18.976303c0 2.620163 -2.1240692 4.744232 -4.744217 4.744232l-21.10653 0c-2.620163 0 -4.7442245 -2.1240692 -4.7442245 -4.744232z" fill-rule="evenodd"/><path fill="#2563eb" d="m156.29184 142.30487l0 0c0 -2.620163 2.124054 -4.744232 4.744217 -4.744232l21.106522 0c1.258255 0 2.4649658 0.4998474 3.3546753 1.3895569c0.8897095 0.8897095 1.3895416 2.0964203 1.3895416 3.3546753l0 18.976303c0 2.620163 -2.124054 4.744232 -4.744217 4.744232l-21.106522 0c-2.620163 0 -4.744217 -2.1240692 -4.744217 -4.744232z" fill-rule="evenodd"/><path fill="#2563eb" d="m118.96377 151.62007l0 0c0 -1.2379761 1.0035858 -2.241562 2.2415695 -2.241562l22.44133 0c0.5944977 0 1.1646423 0.23616028 1.585022 0.6565399c0.42037964 0.42036438 0.6565399 0.9905243 0.6565399 1.585022l0 8.966019c0 1.2379761 -1.0035858 2.241562 -2.241562 2.241562l-22.44133 0c-1.2379837 0 -2.2415695 -1.0035858 -2.2415695 -2.241562z" fill-rule="evenodd"/><path fill="#2563eb" d="m158.12321 151.62007l0 0c0 -1.2379761 1.0035858 -2.241562 2.2415771 -2.241562l22.441315 0c0.59451294 0 1.1646576 0.23616028 1.5850372 0.6565399c0.42037964 0.42036438 0.6565399 0.9905243 0.6565399 1.585022l0 8.966019c0 1.2379761 -1.0035858 2.241562 -2.2415771 2.241562l-22.441315 0c-1.2379913 0 -2.2415771 -1.0035858 -2.2415771 -2.241562z" fill-rule="evenodd"/><path fill="#2563eb" d="m110.077286 185.75526l0 0c0 -5.396881 4.3750305 -9.771912 9.771904 -9.771912l64.318184 0c2.5916748 0 5.077194 1.029541 6.909775 2.8621216c1.8325958 1.8325958 2.8621216 4.318115 2.8621216 6.90979l0 39.086426c0 5.396881 -4.3750305 9.771896 -9.771896 9.771896l-64.318184 0c-5.3968735 0 -9.771904 -4.3750153 -9.771904 -9.771896z" fill-rule="evenodd"/><path fill="#2563eb" d="m114.242195 185.79958l0 0c0 -3.3930817 2.7506485 -6.1437225 6.143738 -6.1437225l24.574211 0l0 0c1.6294098 0 3.192093 0.64727783 4.344269 1.7994537c1.1521759 1.1521759 1.7994537 2.714859 1.7994537 4.344269l0 36.20555c0 3.393097 -2.7506409 6.143738 -6.1437225 6.143738l-24.574211 0c-3.3930893 0 -6.143738 -2.7506409 -6.143738 -6.143738z" fill-rule="evenodd"/><path fill="#2563eb" d="m152.89528 185.06508l0 0c0 -3.3930817 2.7506409 -6.143738 6.143738 -6.143738l24.574203 0l0 0c1.6294098 0 3.192093 0.6472931 4.344269 1.799469c1.1521759 1.1521759 1.7994537 2.714859 1.7994537 4.344269l0 36.988785c0 3.393097 -2.7506409 6.143738 -6.1437225 6.143738l-24.574203 0c-3.393097 0 -6.143738 -2.7506409 -6.143738 -6.143738z" fill-rule="evenodd"/><path fill="#f73d35" d="m39.616604 117.88125l0 0c0 -9.110825 7.385784 -16.496613 16.496609 -16.496613l159.7752 0c4.375168 0 8.571152 1.7380371 11.664871 4.831749c3.0937042 3.0937119 4.8317413 7.289688 4.8317413 11.664864l0 65.98446c0 9.110825 -7.385788 16.496613 -16.496613 16.496613l-159.7752 0c-9.110825 0 -16.496609 -7.385788 -16.496609 -16.496613z" fill-rule="evenodd"/><path fill="#e03027" d="m51.33068 124.85746l0 0c0 -7.184845 5.8244667 -13.0093155 13.009308 -13.0093155l143.33917 0c3.4502869 0 6.759262 1.3706207 9.198975 3.810341c2.4397125 2.4397202 3.8103333 5.7486877 3.8103333 9.198975l0 52.035683c0 7.1848297 -5.824463 13.009308 -13.009308 13.009308l-143.33917 0c-7.184841 0 -13.009308 -5.824478 -13.009308 -13.009308z" fill-rule="evenodd"/><path fill="#b0120a" d="m63.88871 131.33255l0 0c0 -5.3968735 4.3750305 -9.771904 9.771904 -9.771904l124.68002 0c2.5916595 0 5.077179 1.0295334 6.909775 2.8621216c1.8325806 1.8325882 2.8621216 4.3181076 2.8621216 6.9097824l0 39.086426c0 5.396881 -4.3750305 9.771912 -9.771896 9.771912l-124.68002 0l0 0c-5.3968735 0 -9.771904 -4.3750305 -9.771904 -9.771912z" fill-rule="evenodd"/><path fill="#f73d35" d="m117.42069 113.46685l0 0c0 -0.89398193 0.7247162 -1.6187057 1.6187057 -1.6187057l33.937607 0c0.42930603 0 0.8410187 0.17054749 1.1445923 0.47411346c0.30355835 0.30356598 0.47410583 0.71528625 0.47410583 1.1445923l0 6.4746246c0 0.89398193 -0.7247162 1.6187057 -1.6186981 1.6187057l-33.937607 0l0 0c-0.89398956 0 -1.6187057 -0.7247238 -1.6187057 -1.6187057z" fill-rule="evenodd"/><path fill="#f73d35" d="m117.42069 181.80875l0 0c0 -0.89398193 0.7247162 -1.6186981 1.6187057 -1.6186981l33.937607 0c0.42930603 0 0.8410187 0.17053223 1.1445923 0.47410583c0.30355835 0.30355835 0.47410583 0.71528625 0.47410583 1.1445923l0 6.4746246c0 0.89398193 -0.7247162 1.6187134 -1.6186981 1.6187134l-33.937607 0l0 0c-0.89398956 0 -1.6187057 -0.72473145 -1.6187057 -1.6187134z" fill-rule="evenodd"/><path fill="#fb5c4e" d="m108.30599 191.64806l0 0c0 -0.9640198 0.78149414 -1.7455139 1.7455139 -1.7455139l51.9022 0c0.4629364 0 0.9069214 0.18389893 1.2342682 0.5112457c0.3273468 0.3273468 0.5112457 0.7713318 0.5112457 1.2342682l0 6.9818573c0 0.9640198 -0.78149414 1.7455139 -1.7455139 1.7455139l-51.9022 0l0 0c-0.9640198 0 -1.7455139 -0.78149414 -1.7455139 -1.7455139z" fill-rule="evenodd"/><path fill="#fb5c4e" d="m108.30599 103.13016l0 0c0 -0.9640274 0.78149414 -1.7455215 1.7455139 -1.7455215l51.9022 0c0.4629364 0 0.9069214 0.18390656 1.2342682 0.51125336c0.3273468 0.3273468 0.5112457 0.77132416 0.5112457 1.2342682l0 6.9818497c0 0.9640198 -0.78149414 1.7455139 -1.7455139 1.7455139l-51.9022 0l0 0c-0.9640198 0 -1.7455139 -0.78149414 -1.7455139 -1.7455139z" fill-rule="evenodd"/><path fill="#760701" d="m109.816666 143.61206l0 0c0 -3.34729 2.7135239 -6.0608063 6.0608215 -6.0608063l40.250137 0c1.6074371 0 3.1490326 0.6385498 4.2856445 1.7751617c1.1366272 1.1366272 1.775177 2.6782227 1.775177 4.2856445l0 24.242538c0 3.3473053 -2.7135162 6.0608215 -6.0608215 6.0608215l-40.250137 0c-3.3472977 0 -6.0608215 -2.7135162 -6.0608215 -6.0608215z" fill-rule="evenodd"/><path fill="#f3f8fe" d="m101.132385 126.30486l0 0c0 -2.6201553 2.1240616 -4.744217 4.7442245 -4.744217l21.106522 0c1.2582474 0 2.4649582 0.49983215 3.3546677 1.3895493c0.88972473 0.8897171 1.3895569 2.096428 1.3895569 3.3546677l0 18.97631c0 2.620163 -2.1240692 4.744232 -4.7442245 4.744232l-21.106522 0c-2.620163 0 -4.7442245 -2.1240692 -4.7442245 -4.744232z" fill-rule="evenodd"/><path fill="#f3f8fe" d="m140.29184 126.30486l0 0c0 -2.6201553 2.124054 -4.744217 4.744217 -4.744217l21.106522 0c1.258255 0 2.4649658 0.49983215 3.3546753 1.3895493c0.8897095 0.8897171 1.3895416 2.096428 1.3895416 3.3546677l0 18.97631c0 2.620163 -2.124054 4.744232 -4.744217 4.744232l-21.106522 0c-2.620163 0 -4.744217 -2.1240692 -4.744217 -4.744232z" fill-rule="evenodd"/><path fill="#e7f2ff" d="m102.96377 135.62007l0 0c0 -1.2379761 1.0035858 -2.241562 2.2415695 -2.241562l22.441322 0c0.5945053 0 1.16465 0.23616028 1.5850296 0.6565399c0.42037964 0.42036438 0.6565399 0.9905243 0.6565399 1.585022l0 8.966019c0 1.2379761 -1.0035858 2.241562 -2.2415695 2.241562l-22.441322 0c-1.2379837 0 -2.2415695 -1.0035858 -2.2415695 -2.241562z" fill-rule="evenodd"/><path fill="#e7f2ff" d="m142.12321 135.62007l0 0c0 -1.2379761 1.0035858 -2.241562 2.2415771 -2.241562l22.441315 0c0.59451294 0 1.1646576 0.23616028 1.5850372 0.6565399c0.42037964 0.42036438 0.6565399 0.9905243 0.6565399 1.585022l0 8.966019c0 1.2379761 -1.0035858 2.241562 -2.2415771 2.241562l-22.441315 0c-1.2379913 0 -2.2415771 -1.0035858 -2.2415771 -2.241562z" fill-rule="evenodd"/><path fill="#fb5c4e" d="m94.077286 169.75526l0 0c0 -5.396881 4.3750305 -9.771912 9.771904 -9.771912l64.318184 0c2.5916748 0 5.077194 1.029541 6.909775 2.8621216c1.8325958 1.8325958 2.8621216 4.318115 2.8621216 6.90979l0 39.086426c0 5.396881 -4.3750305 9.771896 -9.771896 9.771896l-64.318184 0c-5.3968735 0 -9.771904 -4.3750153 -9.771904 -9.771896z" fill-rule="evenodd"/><path fill="#fc8076" d="m98.242195 169.79958l0 0c0 -3.3930817 2.7506485 -6.1437225 6.143738 -6.1437225l24.574211 0l0 0c1.6294098 0 3.192093 0.64727783 4.344269 1.7994537c1.1521759 1.1521759 1.7994537 2.714859 1.7994537 4.344269l0 36.20555c0 3.393097 -2.7506409 6.143738 -6.1437225 6.143738l-24.574211 0c-3.3930893 0 -6.143738 -2.7506409 -6.143738 -6.143738z" fill-rule="evenodd"/><path fill="#fc8076" d="m136.89528 169.06508l0 0c0 -3.3930817 2.7506409 -6.143738 6.143738 -6.143738l24.574203 0l0 0c1.6294098 0 3.192093 0.6472931 4.344269 1.799469c1.1521759 1.1521759 1.7994537 2.714859 1.7994537 4.344269l0 36.988785c0 3.393097 -2.7506409 6.143738 -6.1437225 6.143738l-24.574203 0c-3.393097 0 -6.143738 -2.7506409 -6.143738 -6.143738z" fill-rule="evenodd"/></g></svg>