<svg version="1.1" viewBox="0.0 0.0 288.0 384.0" fill="none" stroke="none" stroke-linecap="square" stroke-miterlimit="10" xmlns:xlink="http://www.w3.org/1999/xlink" xmlns="http://www.w3.org/2000/svg"><clipPath id="g3b18a6c779a_0_6228.0"><path d="m0 0l288.0 0l0 384.0l-288.0 0l0 -384.0z" clip-rule="nonzero"/></clipPath><g clip-path="url(#g3b18a6c779a_0_6228.0)"><path fill="#161d25" d="m0 0l288.0 0l0 384.0l-288.0 0z" fill-rule="evenodd"/><path fill="#3b4652" d="m5.7007875 34.135216l0 0c0 -9.966135 8.079147 -18.045282 18.04528 -18.045282l240.50787 0c4.7858887 0 9.375793 1.9011936 12.759949 5.2853394c3.3841248 3.3841476 5.2853394 7.9740353 5.2853394 12.759943l0 324.2244c0 9.9661255 -8.079163 18.045288 -18.045288 18.045288l-240.50787 0l0 0c-9.966134 0 -18.04528 -8.079163 -18.04528 -18.045288z" fill-rule="evenodd"/><path stroke="#3b4652" stroke-width="4.0" stroke-linejoin="round" stroke-linecap="butt" d="m5.7007875 34.135216l0 0c0 -9.966135 8.079147 -18.045282 18.04528 -18.045282l240.50787 0c4.7858887 0 9.375793 1.9011936 12.759949 5.2853394c3.3841248 3.3841476 5.2853394 7.9740353 5.2853394 12.759943l0 324.2244c0 9.9661255 -8.079163 18.045288 -18.045288 18.045288l-240.50787 0l0 0c-9.966134 0 -18.04528 -8.079163 -18.04528 -18.045288z" fill-rule="evenodd"/><path fill="#161d25" d="m5.7007875 25.639769l0 0c0 -9.966133 8.079147 -18.04528 18.04528 -18.04528l240.50787 0c4.7858887 0 9.375793 1.9011936 12.759949 5.2853403c3.3841248 3.3841467 5.2853394 7.9740343 5.2853394 12.75994l0 324.2244c0 9.9661255 -8.079163 18.045288 -18.045288 18.045288l-240.50787 0l0 0c-9.966134 0 -18.04528 -8.079163 -18.04528 -18.045288z" fill-rule="evenodd"/><path stroke="#3b4652" stroke-width="4.0" stroke-linejoin="round" stroke-linecap="butt" d="m5.7007875 25.639769l0 0c0 -9.966133 8.079147 -18.04528 18.04528 -18.04528l240.50787 0c4.7858887 0 9.375793 1.9011936 12.759949 5.2853403c3.3841248 3.3841467 5.2853394 7.9740343 5.2853394 12.75994l0 324.2244c0 9.9661255 -8.079163 18.045288 -18.045288 18.045288l-240.50787 0l0 0c-9.966134 0 -18.04528 -8.079163 -18.04528 -18.045288z" fill-rule="evenodd"/><path fill="#000000" fill-opacity="0.0" d="m21.700787 315.7533l266.29922 0l0 38.771637l-266.29922 0z" fill-rule="evenodd"/><path fill="#ffffff" d="m38.919537 338.6289l-1.40625 0l4.625 -10.515625l3.5 0l-5.578125 12.0l-3.765625 0l-5.578125 -12.0l3.546875 0l4.65625 10.515625zm7.631912 -7.796875l1.65625 0.328125l1.625 -0.328125l0 9.28125l-3.28125 0l0 -9.28125zm1.640625 -0.75q-0.84375 0 -1.375 -0.421875q-0.53125 -0.421875 -0.53125 -1.15625q0 -0.734375 0.53125 -1.15625q0.53125 -0.4375 1.375 -0.4375q0.875 0 1.390625 0.4375q0.53125 0.421875 0.53125 1.15625q0 0.734375 -0.53125 1.15625q-0.515625 0.421875 -1.390625 0.421875zm3.0095062 0.890625l3.328125 0l0.546875 3.265625l0 5.875l-3.265625 0l0 -6.0625l-0.609375 -3.078125zm8.15625 -0.140625l0 2.78125q-0.484375 -0.09375 -0.90625 -0.125q-0.421875 -0.046875 -0.78125 -0.046875q-0.703125 0 -1.296875 0.28125q-0.578125 0.28125 -0.9375 0.921875q-0.359375 0.640625 -0.359375 1.703125l-0.625 -0.765625q0.125 -0.984375 0.375 -1.859375q0.265625 -0.875 0.703125 -1.546875q0.4375 -0.6875 1.09375 -1.078125q0.65625 -0.390625 1.59375 -0.390625q0.28125 0 0.5625 0.03125q0.296875 0.03125 0.578125 0.09375zm5.0511513 9.53125q-1.2812538 0 -2.1875038 -0.515625q-0.890625 -0.53125 -1.375 -1.5q-0.484375 -0.96875 -0.484375 -2.265625l0 -5.109375l3.265625 0l0 4.640625q0 1.015625 0.5000038 1.5625q0.5 0.53125 1.421875 0.53125q0.6875 0 1.140625 -0.265625q0.46875 -0.28125 0.71875 -0.8125q0.265625 -0.53125 0.265625 -1.265625l1.015625 0.53125q-0.1875 1.453125 -0.796875 2.453125q-0.609375 1.0 -1.515625 1.515625q-0.890625 0.5 -1.96875 0.5zm3.859375 -0.25l-0.59375 -3.65625l0 -5.484375l3.265625 0l0 5.984375l0.59375 3.15625l-3.265625 0zm15.228897 -2.96875q0 1.046875 -0.640625 1.765625q-0.640625 0.71875 -1.828125 1.09375q-1.171875 0.359375 -2.84375 0.359375q-1.703125 0 -3.0 -0.40625q-1.28125 -0.421875 -2.0 -1.171875q-0.71875 -0.75 -0.765625 -1.75l3.3125 0q0.109375 0.375 0.4375 0.640625q0.328125 0.265625 0.859375 0.40625q0.546875 0.125 1.296875 0.125q0.984375 0 1.484375 -0.1875q0.5 -0.1875 0.5 -0.578125q0 -0.296875 -0.390625 -0.453125q-0.375 -0.15625 -1.296875 -0.234375l-1.625 -0.125q-1.609375 -0.109375 -2.5625 -0.484375q-0.953125 -0.390625 -1.375 -0.984375q-0.40625 -0.59375 -0.40625 -1.359375q0 -1.046875 0.640625 -1.71875q0.65625 -0.6875 1.8125 -1.03125q1.15625 -0.34375 2.71875 -0.34375q1.53125 0 2.734375 0.40625q1.203125 0.390625 1.921875 1.109375q0.71875 0.703125 0.828125 1.671875l-3.3125 0q-0.078125 -0.3125 -0.359375 -0.5625q-0.265625 -0.25 -0.75 -0.40625q-0.46875 -0.15625 -1.234375 -0.15625q-0.875 0 -1.328125 0.203125q-0.453125 0.1875 -0.453125 0.53125q0 0.265625 0.28125 0.4375q0.28125 0.15625 1.046875 0.21875l2.125 0.15625q1.578125 0.09375 2.484375 0.46875q0.921875 0.359375 1.296875 0.953125q0.390625 0.578125 0.390625 1.40625z" fill-rule="nonzero"/><path fill="#ffffff" d="m87.36908 336.95703q0 -0.84375 0.171875 -1.765625q0.171875 -0.921875 0.46875 -1.78125q0.3125 -0.875 0.703125 -1.515625l0.859375 0q-0.40625 0.8125 -0.703125 1.703125q-0.296875 0.875 -0.453125 1.75q-0.15625 0.859375 -0.15625 1.609375q0 0.671875 0.140625 1.390625q0.140625 0.703125 0.421875 1.5q0.296875 0.78125 0.75 1.71875l-0.859375 0q-0.671875 -1.125 -1.015625 -2.296875q-0.328125 -1.171875 -0.328125 -2.3125z" fill-rule="nonzero"/><path fill="#ffffff" d="m98.20712 334.30078l-2.03125 5.8125l-1.828125 0l-2.015625 -5.8125l1.703125 0l1.21875 4.15625l0.0625 0l1.203125 -4.15625l1.6875 0zm1.9682007 5.921875q-0.546875 0 -0.984375 -0.1875q-0.4375 -0.203125 -0.6875 -0.578125q-0.25 -0.390625 -0.25 -0.96875q0 -0.484375 0.171875 -0.8125q0.171875 -0.328125 0.484375 -0.53125q0.3125 -0.203125 0.703125 -0.296875q0.390625 -0.109375 0.828125 -0.15625q0.5 -0.046875 0.796875 -0.09375q0.3125 -0.046875 0.453125 -0.140625q0.140625 -0.09375 0.140625 -0.28125l0 -0.015625q0 -0.359375 -0.234375 -0.5625q-0.21875 -0.203125 -0.625 -0.203125q-0.421875 0 -0.6875 0.203125q-0.25 0.1875 -0.34375 0.46875l-1.484375 -0.109375q0.109375 -0.53125 0.4375 -0.921875q0.34375 -0.390625 0.859375 -0.59375q0.53125 -0.21875 1.234375 -0.21875q0.484375 0 0.921875 0.125q0.4375 0.109375 0.78125 0.34375q0.359375 0.234375 0.5625 0.609375q0.203125 0.375 0.203125 0.890625l0 3.921875l-1.546875 0l0 -0.8125l-0.03125 0q-0.140625 0.28125 -0.375 0.484375q-0.234375 0.203125 -0.5625 0.328125q-0.328125 0.109375 -0.765625 0.109375zm0.46875 -1.109375q0.34375 0 0.609375 -0.140625q0.28125 -0.15625 0.4375 -0.390625q0.15625 -0.25 0.15625 -0.546875l0 -0.609375q-0.078125 0.03125 -0.21875 0.078125q-0.125 0.046875 -0.28125 0.078125q-0.15625 0.03125 -0.328125 0.0625q-0.15625 0.015625 -0.28125 0.03125q-0.28125 0.046875 -0.5 0.140625q-0.21875 0.078125 -0.34375 0.234375q-0.109375 0.15625 -0.109375 0.390625q0 0.328125 0.234375 0.5q0.25 0.171875 0.625 0.171875zm3.7442627 1.0l0 -5.8125l1.609375 0l0 5.8125l-1.609375 0zm0.8125 -6.5625q-0.359375 0 -0.625 -0.234375q-0.25 -0.25 -0.25 -0.578125q0 -0.34375 0.25 -0.578125q0.265625 -0.234375 0.625 -0.234375q0.359375 0 0.609375 0.234375q0.265625 0.234375 0.265625 0.578125q0 0.328125 -0.265625 0.578125q-0.25 0.234375 -0.609375 0.234375zm1.7422943 6.5625l0 -5.8125l1.5625 0l0 1.015625l0.0625 0q0.15625 -0.546875 0.53125 -0.8125q0.375 -0.28125 0.859375 -0.28125q0.125 0 0.265625 0.015625q0.140625 0 0.25 0.03125l0 1.4375q-0.125 -0.046875 -0.328125 -0.0625q-0.1875 -0.03125 -0.359375 -0.03125q-0.359375 0 -0.640625 0.15625q-0.265625 0.15625 -0.4375 0.4375q-0.15625 0.265625 -0.15625 0.625l0 3.28125l-1.609375 0z" fill-rule="nonzero"/><path fill="#ffffff" d="m115.72844 338.6914q-0.453125 0 -0.84375 -0.21875q-0.375 -0.234375 -0.609375 -0.609375q-0.21875 -0.390625 -0.21875 -0.84375q0 -0.453125 0.21875 -0.828125q0.234375 -0.390625 0.609375 -0.609375q0.390625 -0.21875 0.84375 -0.21875q0.453125 0 0.828125 0.21875q0.390625 0.21875 0.609375 0.609375q0.21875 0.375 0.21875 0.828125q0 0.453125 -0.21875 0.84375q-0.21875 0.375 -0.609375 0.609375q-0.375 0.21875 -0.828125 0.21875zm5.320801 1.421875l0 -5.8125l0.84375 0l0 0.875l0.0625 0q0.171875 -0.421875 0.578125 -0.6875q0.421875 -0.28125 0.9375 -0.28125q0.109375 0 0.25 0.015625q0.140625 0 0.21875 0l0 0.90625q-0.046875 -0.015625 -0.203125 -0.03125q-0.15625 -0.015625 -0.34375 -0.015625q-0.421875 0 -0.75 0.171875q-0.328125 0.171875 -0.53125 0.484375q-0.1875 0.3125 -0.1875 0.703125l0 3.671875l-0.875 0zm7.1216125 -2.375l0 -3.4375l0.890625 0l0 5.8125l-0.890625 0l0 -0.984375l-0.0625 0q-0.203125 0.4375 -0.640625 0.75q-0.421875 0.3125 -1.078125 0.3125q-0.546875 0 -0.96875 -0.234375q-0.421875 -0.25 -0.671875 -0.734375q-0.234375 -0.484375 -0.234375 -1.234375l0 -3.6875l0.875 0l0 3.640625q0 0.625 0.359375 1.015625q0.375 0.375 0.921875 0.359375q0.328125 0 0.671875 -0.15625q0.359375 -0.171875 0.59375 -0.515625q0.234375 -0.359375 0.234375 -0.90625zm2.9111023 -1.125l0 3.5l-0.875 0l0 -7.75l0.875 0l0 2.84375l0.09375 0q0.203125 -0.453125 0.609375 -0.71875q0.40625 -0.265625 1.09375 -0.265625q0.59375 0 1.03125 0.234375q0.453125 0.234375 0.703125 0.734375q0.25 0.484375 0.25 1.234375l0 3.6875l-0.890625 0l0 -3.625q0 -0.703125 -0.359375 -1.078125q-0.359375 -0.390625 -1.0 -0.390625q-0.4375 0 -0.78125 0.1875q-0.34375 0.1875 -0.546875 0.546875q-0.203125 0.359375 -0.203125 0.859375zm9.041199 -1.0l-0.8125 0.21875q-0.109375 -0.296875 -0.390625 -0.5625q-0.28125 -0.28125 -0.859375 -0.28125q-0.53125 0 -0.890625 0.25q-0.34375 0.25 -0.34375 0.625q0 0.328125 0.234375 0.53125q0.25 0.1875 0.765625 0.3125l0.859375 0.21875q0.765625 0.1875 1.140625 0.578125q0.390625 0.375 0.390625 0.984375q0 0.5 -0.28125 0.90625q-0.28125 0.390625 -0.796875 0.625q-0.515625 0.21875 -1.1875 0.21875q-0.890625 0 -1.46875 -0.390625q-0.578125 -0.390625 -0.734375 -1.125l0.84375 -0.21875q0.125 0.46875 0.453125 0.703125q0.34375 0.234375 0.90625 0.234375q0.609375 0 0.984375 -0.265625q0.375 -0.265625 0.375 -0.640625q0 -0.609375 -0.875 -0.8125l-0.953125 -0.234375q-0.8125 -0.1875 -1.1875 -0.578125q-0.375 -0.40625 -0.375 -1.0q0 -0.5 0.28125 -0.875q0.28125 -0.375 0.765625 -0.59375q0.484375 -0.21875 1.09375 -0.21875q0.859375 0 1.34375 0.390625q0.5 0.375 0.71875 1.0zm3.1280212 5.953125q0.453125 -0.9375 0.734375 -1.71875q0.296875 -0.796875 0.4375 -1.5q0.140625 -0.71875 0.140625 -1.390625q0 -0.75 -0.15625 -1.609375q-0.15625 -0.875 -0.453125 -1.75q-0.296875 -0.890625 -0.703125 -1.703125l0.859375 0q0.40625 0.640625 0.703125 1.515625q0.296875 0.859375 0.46875 1.78125q0.171875 0.921875 0.171875 1.765625q0 1.140625 -0.34375 2.3125q-0.328125 1.171875 -1.0 2.296875l-0.859375 0z" fill-rule="nonzero"/><path fill="#3b4652" d="m126.79718 221.5502l0 0c0 -0.8981476 0.7280884 -1.626236 1.626236 -1.626236l6.50473 0l0 0c0.43130493 0 0.8449402 0.17134094 1.1499176 0.47631836c0.30497742 0.30497742 0.4763031 0.7186127 0.4763031 1.1499176l0 47.529266c0 0.89816284 -0.7280884 1.6262512 -1.6262207 1.6262512l-6.50473 0c-0.8981476 0 -1.626236 -0.7280884 -1.626236 -1.6262512z" fill-rule="evenodd"/><path fill="#3b4652" d="m131.30618 220.79869l0 0c0 -0.48309326 0.39163208 -0.87472534 0.87472534 -0.87472534l3.4987488 0l0 0c0.23199463 0 0.45448303 0.092163086 0.618515 0.25619507c0.16404724 0.16404724 0.25619507 0.38653564 0.25619507 0.6185303l0 49.032303c0 0.48309326 -0.39161682 0.87472534 -0.8747101 0.87472534l-3.4987488 0c-0.48309326 0 -0.87472534 -0.39163208 -0.87472534 -0.87472534z" fill-rule="evenodd"/><path fill="#3b4652" d="m151.2723 221.5502l0 0c0 -0.8981476 0.7280884 -1.626236 1.6262207 -1.626236l6.50473 0l0 0c0.43130493 0 0.8449402 0.17134094 1.1499176 0.47631836c0.30497742 0.30497742 0.47631836 0.7186127 0.47631836 1.1499176l0 47.529266c0 0.89816284 -0.7280884 1.6262512 -1.626236 1.6262512l-6.50473 0c-0.8981323 0 -1.6262207 -0.7280884 -1.6262207 -1.6262512z" fill-rule="evenodd"/><path fill="#3b4652" d="m155.7813 220.79869l0 0c0 -0.48309326 0.39161682 -0.87472534 0.8747101 -0.87472534l3.498764 0l0 0c0.23197937 0 0.45446777 0.092163086 0.618515 0.25619507c0.16403198 0.16404724 0.25619507 0.38653564 0.25619507 0.6185303l0 49.032303c0 0.48309326 -0.39161682 0.87472534 -0.8747101 0.87472534l-3.498764 0c-0.48309326 0 -0.8747101 -0.39163208 -0.8747101 -0.87472534z" fill-rule="evenodd"/><path fill="#3b4652" d="m175.74739 221.5502l0 0c0 -0.8981476 0.7280884 -1.626236 1.626236 -1.626236l6.50473 0l0 0c0.43130493 0 0.8449402 0.17134094 1.1499176 0.47631836c0.30497742 0.30497742 0.47631836 0.7186127 0.47631836 1.1499176l0 47.529266c0 0.89816284 -0.7280884 1.6262512 -1.626236 1.6262512l-6.50473 0c-0.8981476 0 -1.626236 -0.7280884 -1.626236 -1.6262512z" fill-rule="evenodd"/><path fill="#3b4652" d="m180.25641 220.79869l0 0c0 -0.48309326 0.39161682 -0.87472534 0.8747101 -0.87472534l3.4987488 0l0 0c0.23199463 0 0.45448303 0.092163086 0.618515 0.25619507c0.16404724 0.16404724 0.25621033 0.38653564 0.25621033 0.6185303l0 49.032303c0 0.48309326 -0.39163208 0.87472534 -0.87472534 0.87472534l-3.4987488 0c-0.48309326 0 -0.8747101 -0.39163208 -0.8747101 -0.87472534z" fill-rule="evenodd"/><path fill="#3b4652" d="m126.79718 221.34076l0 0c0 -0.7824707 0.6343231 -1.4167938 1.4167938 -1.4167938l55.882034 0c0.37576294 0 0.73612976 0.14927673 1.0018158 0.41497803c0.2657013 0.2657013 0.41497803 0.6260681 0.41497803 1.0018158l0 5.6670074c0 0.7824707 -0.6343231 1.4167786 -1.4167938 1.4167786l-55.882034 0c-0.7824707 0 -1.4167938 -0.63430786 -1.4167938 -1.4167786z" fill-rule="evenodd"/><path fill="#3b4652" d="m114.28038 221.5502l0 0c0 -0.8981476 0.7280884 -1.626236 1.626236 -1.626236l6.5047226 0l0 0c0.43130493 0 0.8449402 0.17134094 1.1499176 0.47631836c0.30497742 0.30497742 0.47631836 0.7186127 0.47631836 1.1499176l0 47.529266c0 0.89816284 -0.7280884 1.6262512 -1.626236 1.6262512l-6.5047226 0c-0.8981476 0 -1.626236 -0.7280884 -1.626236 -1.6262512z" fill-rule="evenodd"/><path fill="#3b4652" d="m118.78938 220.79869l0 0c0 -0.48309326 0.39162445 -0.87472534 0.8747177 -0.87472534l3.4987564 0l0 0c0.231987 0 0.4544754 0.092163086 0.618515 0.25619507c0.16403961 0.16404724 0.2562027 0.38653564 0.2562027 0.6185303l0 49.032303c0 0.48309326 -0.39162445 0.87472534 -0.8747177 0.87472534l-3.4987564 0c-0.48309326 0 -0.8747177 -0.39163208 -0.8747177 -0.87472534z" fill-rule="evenodd"/><path fill="#3b4652" d="m138.7555 221.5502l0 0c0 -0.8981476 0.7280884 -1.626236 1.6262207 -1.626236l6.50473 0l0 0c0.43130493 0 0.8449402 0.17134094 1.1499176 0.47631836c0.30497742 0.30497742 0.47631836 0.7186127 0.47631836 1.1499176l0 47.529266c0 0.89816284 -0.7280884 1.6262512 -1.626236 1.6262512l-6.50473 0c-0.8981323 0 -1.6262207 -0.7280884 -1.6262207 -1.6262512z" fill-rule="evenodd"/><path fill="#3b4652" d="m143.2645 220.79869l0 0c0 -0.48309326 0.39161682 -0.87472534 0.8747101 -0.87472534l3.498764 0l0 0c0.23197937 0 0.45446777 0.092163086 0.618515 0.25619507c0.16403198 0.16404724 0.25619507 0.38653564 0.25619507 0.6185303l0 49.032303c0 0.48309326 -0.39161682 0.87472534 -0.8747101 0.87472534l-3.498764 0c-0.48309326 0 -0.8747101 -0.39163208 -0.8747101 -0.87472534z" fill-rule="evenodd"/><path fill="#3b4652" d="m163.23059 221.5502l0 0c0 -0.8981476 0.7280884 -1.626236 1.626236 -1.626236l6.50473 0l0 0c0.43130493 0 0.8449402 0.17134094 1.1499176 0.47631836c0.30497742 0.30497742 0.47631836 0.7186127 0.47631836 1.1499176l0 47.529266c0 0.89816284 -0.7280884 1.6262512 -1.626236 1.6262512l-6.50473 0c-0.8981476 0 -1.626236 -0.7280884 -1.626236 -1.6262512z" fill-rule="evenodd"/><path fill="#3b4652" d="m167.73961 220.79869l0 0c0 -0.48309326 0.39161682 -0.87472534 0.8747101 -0.87472534l3.4987488 0l0 0c0.23199463 0 0.45448303 0.092163086 0.618515 0.25619507c0.16404724 0.16404724 0.25621033 0.38653564 0.25621033 0.6185303l0 49.032303c0 0.48309326 -0.39163208 0.87472534 -0.87472534 0.87472534l-3.4987488 0c-0.48309326 0 -0.8747101 -0.39163208 -0.8747101 -0.87472534z" fill-rule="evenodd"/><path fill="#3b4652" d="m114.28038 221.34076l0 0c0 -0.7824707 0.6343231 -1.4167938 1.4167938 -1.4167938l55.882034 0c0.37576294 0 0.73612976 0.14927673 1.0018158 0.41497803c0.2657013 0.2657013 0.41497803 0.6260681 0.41497803 1.0018158l0 5.6670074c0 0.7824707 -0.6343231 1.4167786 -1.4167938 1.4167786l-55.882034 0c-0.7824707 0 -1.4167938 -0.63430786 -1.4167938 -1.4167786z" fill-rule="evenodd"/><path fill="#3b4652" d="m145.01389 123.682625l0 0c0 -0.8981476 0.7280884 -1.626236 1.626236 -1.626236l6.50473 0l0 0c0.43130493 0 0.8449402 0.17134094 1.1499176 0.47631836c0.30497742 0.30497742 0.4763031 0.7186127 0.4763031 1.1499176l0 94.61512c0 0.8981323 -0.7280884 1.6262207 -1.6262207 1.6262207l-6.50473 0c-0.8981476 0 -1.626236 -0.7280884 -1.626236 -1.6262207z" fill-rule="evenodd"/><path fill="#3b4652" d="m149.52289 122.93111l0 0c0 -0.48309326 0.39163208 -0.8747177 0.87472534 -0.8747177l3.4987488 0l0 0c0.23199463 0 0.45448303 0.092163086 0.618515 0.2562027c0.16404724 0.16403961 0.25619507 0.38652802 0.25619507 0.618515l0 96.11815c0 0.48309326 -0.39161682 0.8747101 -0.8747101 0.8747101l-3.4987488 0c-0.48309326 0 -0.87472534 -0.39161682 -0.87472534 -0.8747101z" fill-rule="evenodd"/><path fill="#3b4652" d="m109.74347 92.37028l0 0c0 -6.11689 4.958725 -11.075615 11.075615 -11.075615l50.534904 0c2.937439 0 5.7545624 1.166893 7.83165 3.2439728c2.0770721 2.0770798 3.2439728 4.894211 3.2439728 7.831642l0 44.30114c0 6.1168976 -4.958725 11.075623 -11.075623 11.075623l-50.534904 0c-6.11689 0 -11.075615 -4.958725 -11.075615 -11.075623z" fill-rule="evenodd"/><path fill="#3b4652" d="m117.35619 98.18104l0 0c0 -5.4750366 4.4384003 -9.913437 9.9134445 -9.913437l45.245697 0c2.6292114 0 5.1507263 1.0444489 7.009857 2.9035797c1.8591309 1.8591309 2.9035797 4.3806534 2.9035797 7.009857l0 39.652565c0 5.4750366 -4.4384003 9.913437 -9.913437 9.913437l-45.245697 0c-5.4750443 0 -9.9134445 -4.4384003 -9.9134445 -9.913437z" fill-rule="evenodd"/><path fill="#3b4652" d="m113.537094 94.696625l0 0c0 -5.4750443 4.4384003 -9.913437 9.913437 -9.913437l45.245697 0c2.6292114 0 5.1507263 1.0444489 7.009857 2.903572c1.8591309 1.8591309 2.9035797 4.3806534 2.9035797 7.009865l0 39.652557c0 5.475052 -4.438385 9.913437 -9.913437 9.913437l-45.245697 0c-5.4750366 0 -9.913437 -4.438385 -9.913437 -9.913437z" fill-rule="evenodd"/><path fill="#3b4652" d="m118.588165 94.764275l0 0c0 -2.5333939 2.0537262 -4.58712 4.58712 -4.58712l18.347939 0l0 0c1.2165833 0 2.3833313 0.483284 3.243576 1.3435364c0.86026 0.8602524 1.3435364 2.0270004 1.3435364 3.2435837l0 39.51316c0 2.5333862 -2.0537262 4.5871124 -4.5871124 4.5871124l-18.347939 0c-2.5333939 0 -4.58712 -2.0537262 -4.58712 -4.5871124z" fill-rule="evenodd"/><path fill="#3b4652" d="m138.37358 158.86765l0 0c0 -1.0750427 0.8714905 -1.9465485 1.9465485 -1.9465485l19.144714 0c0.5162506 0 1.0113678 0.20509338 1.3764191 0.5701294c0.36505127 0.36505127 0.5701294 0.86016846 0.5701294 1.3764191l0 7.785965c0 1.075058 -0.87150574 1.9465485 -1.9465485 1.9465485l-19.144714 0c-1.075058 0 -1.9465485 -0.8714905 -1.9465485 -1.9465485z" fill-rule="evenodd"/><path fill="#3b4652" d="m138.37358 170.5467l0 0c0 -1.0750427 0.8714905 -1.9465485 1.9465485 -1.9465485l19.144714 0c0.5162506 0 1.0113678 0.20507812 1.3764191 0.5701294c0.36505127 0.36505127 0.5701294 0.86016846 0.5701294 1.3764191l0 7.785965c0 1.075058 -0.87150574 1.9465485 -1.9465485 1.9465485l-19.144714 0c-1.075058 0 -1.9465485 -0.8714905 -1.9465485 -1.9465485z" fill-rule="evenodd"/><path fill="#3b4652" d="m138.37358 182.22577l0 0c0 -1.0750427 0.8714905 -1.9465485 1.9465485 -1.9465485l19.144714 0c0.5162506 0 1.0113678 0.20507812 1.3764191 0.5701294c0.36505127 0.36505127 0.5701294 0.86016846 0.5701294 1.3764191l0 7.785965c0 1.075058 -0.87150574 1.9465485 -1.9465485 1.9465485l-19.144714 0c-1.075058 0 -1.9465485 -0.8714905 -1.9465485 -1.9465485z" fill-rule="evenodd"/><path fill="#3b4652" d="m138.37358 193.90483l0 0c0 -1.0750427 0.8714905 -1.9465485 1.9465485 -1.9465485l19.144714 0c0.5162506 0 1.0113678 0.20507812 1.3764191 0.5701294c0.36505127 0.36505127 0.5701294 0.86016846 0.5701294 1.3764191l0 7.785965c0 1.075058 -0.87150574 1.9465485 -1.9465485 1.9465485l-19.144714 0c-1.075058 0 -1.9465485 -0.8714905 -1.9465485 -1.9465485z" fill-rule="evenodd"/><path fill="#3b4652" d="m147.29303 158.86765l0 0c0 -1.0750427 0.87150574 -1.9465485 1.9465485 -1.9465485l10.2252655 0c0.5162506 0 1.0113678 0.20509338 1.3764191 0.5701294c0.36505127 0.36505127 0.5701294 0.86016846 0.5701294 1.3764191l0 7.785965c0 1.075058 -0.87150574 1.9465485 -1.9465485 1.9465485l-10.2252655 0c-1.0750427 0 -1.9465485 -0.8714905 -1.9465485 -1.9465485z" fill-rule="evenodd"/><path fill="#3b4652" d="m147.29303 170.5467l0 0c0 -1.0750427 0.87150574 -1.9465485 1.9465485 -1.9465485l10.2252655 0c0.5162506 0 1.0113678 0.20507812 1.3764191 0.5701294c0.36505127 0.36505127 0.5701294 0.86016846 0.5701294 1.3764191l0 7.785965c0 1.075058 -0.87150574 1.9465485 -1.9465485 1.9465485l-10.2252655 0c-1.0750427 0 -1.9465485 -0.8714905 -1.9465485 -1.9465485z" fill-rule="evenodd"/><path fill="#3b4652" d="m147.29303 182.22577l0 0c0 -1.0750427 0.87150574 -1.9465485 1.9465485 -1.9465485l10.2252655 0c0.5162506 0 1.0113678 0.20507812 1.3764191 0.5701294c0.36505127 0.36505127 0.5701294 0.86016846 0.5701294 1.3764191l0 7.785965c0 1.075058 -0.87150574 1.9465485 -1.9465485 1.9465485l-10.2252655 0c-1.0750427 0 -1.9465485 -0.8714905 -1.9465485 -1.9465485z" fill-rule="evenodd"/><path fill="#3b4652" d="m147.29303 193.90483l0 0c0 -1.0750427 0.87150574 -1.9465485 1.9465485 -1.9465485l10.2252655 0c0.5162506 0 1.0113678 0.20507812 1.3764191 0.5701294c0.36505127 0.36505127 0.5701294 0.86016846 0.5701294 1.3764191l0 7.785965c0 1.075058 -0.87150574 1.9465485 -1.9465485 1.9465485l-10.2252655 0c-1.0750427 0 -1.9465485 -0.8714905 -1.9465485 -1.9465485z" fill-rule="evenodd"/><path fill="#004d28" d="m110.79718 205.5502l0 0c0 -0.8981476 0.7280884 -1.626236 1.626236 -1.626236l6.5047226 0l0 0c0.43130493 0 0.8449402 0.17134094 1.1499252 0.47631836c0.30497742 0.30497742 0.47631073 0.7186127 0.47631073 1.1499176l0 47.52928c0 0.8981476 -0.7280884 1.626236 -1.626236 1.626236l-6.5047226 0c-0.8981476 0 -1.626236 -0.7280884 -1.626236 -1.626236z" fill-rule="evenodd"/><path fill="#004d28" d="m115.30618 204.79869l0 0c0 -0.48309326 0.39162445 -0.87472534 0.8747177 -0.87472534l3.4987564 0l0 0c0.231987 0 0.4544754 0.092163086 0.618515 0.25619507c0.16403961 0.16404724 0.2562027 0.38653564 0.2562027 0.6185303l0 49.032303c0 0.48309326 -0.39162445 0.87472534 -0.8747177 0.87472534l-3.4987564 0c-0.48309326 0 -0.8747177 -0.39163208 -0.8747177 -0.87472534z" fill-rule="evenodd"/><path fill="#004d28" d="m135.2723 205.5502l0 0c0 -0.8981476 0.7280884 -1.626236 1.6262207 -1.626236l6.50473 0l0 0c0.43130493 0 0.8449402 0.17134094 1.1499176 0.47631836c0.30497742 0.30497742 0.47631836 0.7186127 0.47631836 1.1499176l0 47.52928c0 0.8981476 -0.7280884 1.626236 -1.626236 1.626236l-6.50473 0c-0.8981323 0 -1.6262207 -0.7280884 -1.6262207 -1.626236z" fill-rule="evenodd"/><path fill="#004d28" d="m139.7813 204.79869l0 0c0 -0.48309326 0.39161682 -0.87472534 0.8747101 -0.87472534l3.498764 0l0 0c0.23197937 0 0.45446777 0.092163086 0.618515 0.25619507c0.16403198 0.16404724 0.25619507 0.38653564 0.25619507 0.6185303l0 49.032303c0 0.48309326 -0.39161682 0.87472534 -0.8747101 0.87472534l-3.498764 0c-0.48309326 0 -0.8747101 -0.39163208 -0.8747101 -0.87472534z" fill-rule="evenodd"/><path fill="#004d28" d="m159.74739 205.5502l0 0c0 -0.8981476 0.7280884 -1.626236 1.626236 -1.626236l6.50473 0l0 0c0.43130493 0 0.8449402 0.17134094 1.1499176 0.47631836c0.30497742 0.30497742 0.47631836 0.7186127 0.47631836 1.1499176l0 47.52928c0 0.8981476 -0.7280884 1.626236 -1.626236 1.626236l-6.50473 0c-0.8981476 0 -1.626236 -0.7280884 -1.626236 -1.626236z" fill-rule="evenodd"/><path fill="#004d28" d="m164.25641 204.79869l0 0c0 -0.48309326 0.39161682 -0.87472534 0.8747101 -0.87472534l3.4987488 0l0 0c0.23199463 0 0.45448303 0.092163086 0.618515 0.25619507c0.16404724 0.16404724 0.25621033 0.38653564 0.25621033 0.6185303l0 49.032303c0 0.48309326 -0.39163208 0.87472534 -0.87472534 0.87472534l-3.4987488 0c-0.48309326 0 -0.8747101 -0.39163208 -0.8747101 -0.87472534z" fill-rule="evenodd"/><path fill="#004d28" d="m110.79718 205.34076l0 0c0 -0.7824707 0.6343231 -1.4167938 1.4167938 -1.4167938l55.882034 0c0.37576294 0 0.73612976 0.14927673 1.0018158 0.41497803c0.2657013 0.2657013 0.41497803 0.6260681 0.41497803 1.0018158l0 5.6670074c0 0.7824707 -0.6343231 1.4167786 -1.4167938 1.4167786l-55.882034 0c-0.7824707 0 -1.4167938 -0.63430786 -1.4167938 -1.4167786z" fill-rule="evenodd"/><path fill="#008544" d="m98.28038 205.5502l0 0c0 -0.8981476 0.7280884 -1.626236 1.626236 -1.626236l6.5047226 0l0 0c0.43130493 0 0.8449402 0.17134094 1.1499176 0.47631836c0.30497742 0.30497742 0.47631836 0.7186127 0.47631836 1.1499176l0 47.52928c0 0.8981476 -0.7280884 1.626236 -1.626236 1.626236l-6.5047226 0c-0.8981476 0 -1.626236 -0.7280884 -1.626236 -1.626236z" fill-rule="evenodd"/><path fill="#004d28" d="m102.78938 204.79869l0 0c0 -0.48309326 0.39162445 -0.87472534 0.8747177 -0.87472534l3.4987564 0l0 0c0.231987 0 0.4544754 0.092163086 0.618515 0.25619507c0.16403961 0.16404724 0.2562027 0.38653564 0.2562027 0.6185303l0 49.032303c0 0.48309326 -0.39162445 0.87472534 -0.8747177 0.87472534l-3.4987564 0c-0.48309326 0 -0.8747177 -0.39163208 -0.8747177 -0.87472534z" fill-rule="evenodd"/><path fill="#008544" d="m122.755486 205.5502l0 0c0 -0.8981476 0.7280884 -1.626236 1.626236 -1.626236l6.5047226 0l0 0c0.43130493 0 0.8449402 0.17134094 1.1499176 0.47631836c0.30497742 0.30497742 0.47631836 0.7186127 0.47631836 1.1499176l0 47.52928c0 0.8981476 -0.7280884 1.626236 -1.626236 1.626236l-6.5047226 0c-0.8981476 0 -1.626236 -0.7280884 -1.626236 -1.626236z" fill-rule="evenodd"/><path fill="#004d28" d="m127.264496 204.79869l0 0c0 -0.48309326 0.39162445 -0.87472534 0.8747101 -0.87472534l3.498764 0l0 0c0.23197937 0 0.45446777 0.092163086 0.618515 0.25619507c0.16403198 0.16404724 0.25619507 0.38653564 0.25619507 0.6185303l0 49.032303c0 0.48309326 -0.39161682 0.87472534 -0.8747101 0.87472534l-3.498764 0c-0.48308563 0 -0.8747101 -0.39163208 -0.8747101 -0.87472534z" fill-rule="evenodd"/><path fill="#008544" d="m147.23059 205.5502l0 0c0 -0.8981476 0.7280884 -1.626236 1.626236 -1.626236l6.50473 0l0 0c0.43130493 0 0.8449402 0.17134094 1.1499176 0.47631836c0.30497742 0.30497742 0.47631836 0.7186127 0.47631836 1.1499176l0 47.52928c0 0.8981476 -0.7280884 1.626236 -1.626236 1.626236l-6.50473 0c-0.8981476 0 -1.626236 -0.7280884 -1.626236 -1.626236z" fill-rule="evenodd"/><path fill="#004d28" d="m151.73961 204.79869l0 0c0 -0.48309326 0.39161682 -0.87472534 0.8747101 -0.87472534l3.4987488 0l0 0c0.23199463 0 0.45448303 0.092163086 0.618515 0.25619507c0.16404724 0.16404724 0.25621033 0.38653564 0.25621033 0.6185303l0 49.032303c0 0.48309326 -0.39163208 0.87472534 -0.87472534 0.87472534l-3.4987488 0c-0.48309326 0 -0.8747101 -0.39163208 -0.8747101 -0.87472534z" fill-rule="evenodd"/><path fill="#008544" d="m98.28038 205.34076l0 0c0 -0.7824707 0.6343231 -1.4167938 1.4167938 -1.4167938l55.882034 0c0.37576294 0 0.73612976 0.14927673 1.0018158 0.41497803c0.2657013 0.2657013 0.41497803 0.6260681 0.41497803 1.0018158l0 5.6670074c0 0.7824707 -0.6343231 1.4167786 -1.4167938 1.4167786l-55.882034 0c-0.7824707 0 -1.4167938 -0.63430786 -1.4167938 -1.4167786z" fill-rule="evenodd"/><path fill="#008544" d="m129.01389 107.682625l0 0c0 -0.8981476 0.7280884 -1.626236 1.626236 -1.626236l6.50473 0l0 0c0.43130493 0 0.8449402 0.17134094 1.1499176 0.47631836c0.30497742 0.30497742 0.4763031 0.7186127 0.4763031 1.1499176l0 94.61512c0 0.8981323 -0.7280884 1.6262207 -1.6262207 1.6262207l-6.50473 0c-0.8981476 0 -1.626236 -0.7280884 -1.626236 -1.6262207z" fill-rule="evenodd"/><path fill="#004d28" d="m133.52289 106.93111l0 0c0 -0.48309326 0.39163208 -0.8747177 0.87472534 -0.8747177l3.4987488 0l0 0c0.23199463 0 0.45448303 0.092163086 0.618515 0.2562027c0.16404724 0.16403961 0.25619507 0.38652802 0.25619507 0.618515l0 96.11815c0 0.48309326 -0.39161682 0.8747101 -0.8747101 0.8747101l-3.4987488 0c-0.48309326 0 -0.87472534 -0.39161682 -0.87472534 -0.8747101z" fill-rule="evenodd"/><path fill="#008544" d="m93.74347 76.37028l0 0c0 -6.11689 4.958725 -11.075615 11.075615 -11.075615l50.534904 0c2.937439 0 5.7545624 1.166893 7.83165 3.2439728c2.0770721 2.0770798 3.2439728 4.894211 3.2439728 7.831642l0 44.301147c0 6.11689 -4.958725 11.075615 -11.075623 11.075615l-50.534904 0c-6.11689 0 -11.075615 -4.958725 -11.075615 -11.075615z" fill-rule="evenodd"/><path fill="#004d28" d="m101.35619 82.18104l0 0c0 -5.4750366 4.4384003 -9.913437 9.9134445 -9.913437l45.245697 0c2.6292114 0 5.1507263 1.0444489 7.009857 2.9035797c1.8591309 1.8591309 2.9035797 4.3806534 2.9035797 7.009857l0 39.652565c0 5.4750443 -4.4384003 9.913437 -9.913437 9.913437l-45.245697 0c-5.4750443 0 -9.9134445 -4.4383926 -9.9134445 -9.913437z" fill-rule="evenodd"/><path fill="#14b065" d="m97.537094 78.696625l0 0c0 -5.4750443 4.4384003 -9.913437 9.913437 -9.913437l45.245697 0c2.6292114 0 5.1507263 1.0444489 7.009857 2.903572c1.8591309 1.8591309 2.9035797 4.3806534 2.9035797 7.009865l0 39.652565c0 5.4750366 -4.438385 9.913429 -9.913437 9.913429l-45.245697 0c-5.4750366 0 -9.913437 -4.4383926 -9.913437 -9.913429z" fill-rule="evenodd"/><path fill="#46ef9d" d="m102.588165 78.764275l0 0c0 -2.5333939 2.0537262 -4.58712 4.58712 -4.58712l18.347939 0l0 0c1.2165756 0 2.3833313 0.483284 3.243576 1.3435364c0.86026 0.8602524 1.3435364 2.0270004 1.3435364 3.2435837l0 39.513153c0 2.5333939 -2.0537262 4.58712 -4.5871124 4.58712l-18.347939 0c-2.5333939 0 -4.58712 -2.0537262 -4.58712 -4.58712z" fill-rule="evenodd"/><path fill="#14b065" d="m122.37358 142.86765l0 0c0 -1.0750427 0.8714981 -1.9465485 1.9465485 -1.9465485l19.144714 0c0.5162506 0 1.0113678 0.20509338 1.3764191 0.5701294c0.36505127 0.36505127 0.5701294 0.86016846 0.5701294 1.3764191l0 7.785965c0 1.075058 -0.87150574 1.9465485 -1.9465485 1.9465485l-19.144714 0c-1.0750504 0 -1.9465485 -0.8714905 -1.9465485 -1.9465485z" fill-rule="evenodd"/><path fill="#14b065" d="m122.37358 154.5467l0 0c0 -1.0750427 0.8714981 -1.9465485 1.9465485 -1.9465485l19.144714 0c0.5162506 0 1.0113678 0.20507812 1.3764191 0.5701294c0.36505127 0.36505127 0.5701294 0.86016846 0.5701294 1.3764191l0 7.785965c0 1.075058 -0.87150574 1.9465485 -1.9465485 1.9465485l-19.144714 0c-1.0750504 0 -1.9465485 -0.8714905 -1.9465485 -1.9465485z" fill-rule="evenodd"/><path fill="#14b065" d="m122.37358 166.22577l0 0c0 -1.0750427 0.8714981 -1.9465485 1.9465485 -1.9465485l19.144714 0c0.5162506 0 1.0113678 0.20507812 1.3764191 0.5701294c0.36505127 0.36505127 0.5701294 0.86016846 0.5701294 1.3764191l0 7.785965c0 1.075058 -0.87150574 1.9465485 -1.9465485 1.9465485l-19.144714 0c-1.0750504 0 -1.9465485 -0.8714905 -1.9465485 -1.9465485z" fill-rule="evenodd"/><path fill="#14b065" d="m122.37358 177.90483l0 0c0 -1.0750427 0.8714981 -1.9465485 1.9465485 -1.9465485l19.144714 0c0.5162506 0 1.0113678 0.20507812 1.3764191 0.5701294c0.36505127 0.36505127 0.5701294 0.86016846 0.5701294 1.3764191l0 7.785965c0 1.075058 -0.87150574 1.9465485 -1.9465485 1.9465485l-19.144714 0c-1.0750504 0 -1.9465485 -0.8714905 -1.9465485 -1.9465485z" fill-rule="evenodd"/><path fill="#008544" d="m131.29303 142.86765l0 0c0 -1.0750427 0.87150574 -1.9465485 1.9465485 -1.9465485l10.2252655 0c0.5162506 0 1.0113678 0.20509338 1.3764191 0.5701294c0.36505127 0.36505127 0.5701294 0.86016846 0.5701294 1.3764191l0 7.785965c0 1.075058 -0.87150574 1.9465485 -1.9465485 1.9465485l-10.2252655 0c-1.0750427 0 -1.9465485 -0.8714905 -1.9465485 -1.9465485z" fill-rule="evenodd"/><path fill="#008544" d="m131.29303 154.5467l0 0c0 -1.0750427 0.87150574 -1.9465485 1.9465485 -1.9465485l10.2252655 0c0.5162506 0 1.0113678 0.20507812 1.3764191 0.5701294c0.36505127 0.36505127 0.5701294 0.86016846 0.5701294 1.3764191l0 7.785965c0 1.075058 -0.87150574 1.9465485 -1.9465485 1.9465485l-10.2252655 0c-1.0750427 0 -1.9465485 -0.8714905 -1.9465485 -1.9465485z" fill-rule="evenodd"/><path fill="#008544" d="m131.29303 166.22577l0 0c0 -1.0750427 0.87150574 -1.9465485 1.9465485 -1.9465485l10.2252655 0c0.5162506 0 1.0113678 0.20507812 1.3764191 0.5701294c0.36505127 0.36505127 0.5701294 0.86016846 0.5701294 1.3764191l0 7.785965c0 1.075058 -0.87150574 1.9465485 -1.9465485 1.9465485l-10.2252655 0c-1.0750427 0 -1.9465485 -0.8714905 -1.9465485 -1.9465485z" fill-rule="evenodd"/><path fill="#008544" d="m131.29303 177.90483l0 0c0 -1.0750427 0.87150574 -1.9465485 1.9465485 -1.9465485l10.2252655 0c0.5162506 0 1.0113678 0.20507812 1.3764191 0.5701294c0.36505127 0.36505127 0.5701294 0.86016846 0.5701294 1.3764191l0 7.785965c0 1.075058 -0.87150574 1.9465485 -1.9465485 1.9465485l-10.2252655 0c-1.0750427 0 -1.9465485 -0.8714905 -1.9465485 -1.9465485z" fill-rule="evenodd"/></g></svg>