<svg version="1.1" viewBox="0.0 0.0 288.0 384.0" fill="none" stroke="none" stroke-linecap="square" stroke-miterlimit="10" xmlns:xlink="http://www.w3.org/1999/xlink" xmlns="http://www.w3.org/2000/svg"><clipPath id="g3b18a6c779a_0_1581.0"><path d="m0 0l288.0 0l0 384.0l-288.0 0l0 -384.0z" clip-rule="nonzero"/></clipPath><g clip-path="url(#g3b18a6c779a_0_1581.0)"><path fill="#ffffff" d="m0 0l288.0 0l0 384.0l-288.0 0z" fill-rule="evenodd"/><path fill="#f73d35" d="m5.7007875 34.135216l0 0c0 -9.966135 8.079147 -18.045282 18.04528 -18.045282l240.50787 0c4.7858887 0 9.375793 1.9011936 12.759949 5.2853394c3.3841248 3.3841476 5.2853394 7.9740353 5.2853394 12.759943l0 324.2244c0 9.9661255 -8.079163 18.045288 -18.045288 18.045288l-240.50787 0l0 0c-9.966134 0 -18.04528 -8.079163 -18.04528 -18.045288z" fill-rule="evenodd"/><path stroke="#f73d35" stroke-width="4.0" stroke-linejoin="round" stroke-linecap="butt" d="m5.7007875 34.135216l0 0c0 -9.966135 8.079147 -18.045282 18.04528 -18.045282l240.50787 0c4.7858887 0 9.375793 1.9011936 12.759949 5.2853394c3.3841248 3.3841476 5.2853394 7.9740353 5.2853394 12.759943l0 324.2244c0 9.9661255 -8.079163 18.045288 -18.045288 18.045288l-240.50787 0l0 0c-9.966134 0 -18.04528 -8.079163 -18.04528 -18.045288z" fill-rule="evenodd"/><path fill="#ffaaa7" d="m5.7007875 25.639769l0 0c0 -9.966133 8.079147 -18.04528 18.04528 -18.04528l240.50787 0c4.7858887 0 9.375793 1.9011936 12.759949 5.2853403c3.3841248 3.3841467 5.2853394 7.9740343 5.2853394 12.75994l0 324.2244c0 9.9661255 -8.079163 18.045288 -18.045288 18.045288l-240.50787 0l0 0c-9.966134 0 -18.04528 -8.079163 -18.04528 -18.045288z" fill-rule="evenodd"/><path stroke="#f73d35" stroke-width="4.0" stroke-linejoin="round" stroke-linecap="butt" d="m5.7007875 25.639769l0 0c0 -9.966133 8.079147 -18.04528 18.04528 -18.04528l240.50787 0c4.7858887 0 9.375793 1.9011936 12.759949 5.2853403c3.3841248 3.3841467 5.2853394 7.9740343 5.2853394 12.75994l0 324.2244c0 9.9661255 -8.079163 18.045288 -18.045288 18.045288l-240.50787 0l0 0c-9.966134 0 -18.04528 -8.079163 -18.04528 -18.045288z" fill-rule="evenodd"/><path fill="#000000" fill-opacity="0.0" d="m21.700787 315.7533l266.29922 0l0 38.771637l-266.29922 0z" fill-rule="evenodd"/><path fill="#000000" d="m46.84141 338.70703l-1.03125 0l2.984375 -10.59375l3.5 0l-3.640625 12.0l-4.265625 0l-3.484375 -10.234375l1.359375 0l-3.484375 10.234375l-4.25 0l-3.671875 -12.0l3.53125 0l2.984375 10.59375l-1.03125 -0.015625l3.5 -10.578125l3.5 0l3.5 10.59375zm13.831665 1.40625l-0.421875 -3.296875l0.4375 -1.265625l-0.4375 -1.265625l0.421875 -3.3125l3.3906288 0l-0.5781288 4.5625l0.5781288 4.578125l-3.3906288 0zm0.765625 -4.5625q-0.21875 1.4375 -0.890625 2.53125q-0.65625 1.09375 -1.671875 1.6875q-1.015625 0.59375 -2.3125 0.59375q-1.34375 0 -2.375 -0.59375q-1.015625 -0.59375 -1.59375 -1.6875q-0.5625 -1.109375 -0.5625 -2.53125q0 -1.453125 0.5625 -2.53125q0.578125 -1.09375 1.59375 -1.703125q1.03125 -0.609375 2.375 -0.609375q1.296875 0 2.3125 0.609375q1.015625 0.59375 1.6875 1.671875q0.671875 1.078125 0.875 2.5625zm-6.09375 0q0 0.671875 0.28125 1.203125q0.28125 0.53125 0.765625 0.828125q0.5 0.296875 1.140625 0.296875q0.671875 0 1.265625 -0.296875q0.59375 -0.296875 1.03125 -0.828125q0.453125 -0.53125 0.671875 -1.203125q-0.21875 -0.6875 -0.671875 -1.203125q-0.4375 -0.53125 -1.03125 -0.828125q-0.59375 -0.3125 -1.265625 -0.3125q-0.640625 0 -1.140625 0.3125q-0.484375 0.296875 -0.765625 0.828125q-0.28125 0.515625 -0.28125 1.203125zm10.278538 -7.75l3.28125 0l0 12.3125l-3.28125 0l0 -12.3125zm5.072006 0l3.28125 0l0 12.3125l-3.28125 0l0 -12.3125z" fill-rule="nonzero"/><path fill="#000000" d="m83.26018 336.95703q0 -0.84375 0.171875 -1.765625q0.171875 -0.921875 0.46875 -1.78125q0.3125 -0.875 0.703125 -1.515625l0.859375 0q-0.40625 0.8125 -0.703125 1.703125q-0.296875 0.875 -0.453125 1.75q-0.15625 0.859375 -0.15625 1.609375q0 0.671875 0.140625 1.390625q0.140625 0.703125 0.421875 1.5q0.296875 0.78125 0.75 1.71875l-0.859375 0q-0.671875 -1.125 -1.015625 -2.296875q-0.328125 -1.171875 -0.328125 -2.3125zm6.838043 3.15625l-1.78125 -5.8125l0.9375 0l1.265625 4.453125l0.0625 0l1.234375 -4.453125l0.953125 0l1.21875 4.4375l0.0625 0l1.265625 -4.4375l0.9375 0l-1.765625 5.8125l-0.875 0l-1.28125 -4.46875l-0.09375 0l-1.28125 4.46875l-0.859375 0zm8.549316 0.140625q-0.546875 0 -1.0 -0.203125q-0.453125 -0.21875 -0.71875 -0.625q-0.265625 -0.40625 -0.265625 -0.96875q0 -0.5 0.1875 -0.796875q0.203125 -0.3125 0.53125 -0.484375q0.328125 -0.1875 0.71875 -0.28125q0.40625 -0.09375 0.8125 -0.140625q0.53125 -0.0625 0.859375 -0.09375q0.328125 -0.046875 0.484375 -0.125q0.15625 -0.09375 0.15625 -0.3125l0 -0.03125q0 -0.5625 -0.3125 -0.859375q-0.296875 -0.3125 -0.921875 -0.3125q-0.625 0 -1.0 0.28125q-0.359375 0.265625 -0.5 0.59375l-0.859375 -0.3125q0.234375 -0.53125 0.609375 -0.828125q0.390625 -0.296875 0.84375 -0.40625q0.453125 -0.125 0.875 -0.125q0.28125 0 0.640625 0.0625q0.375 0.0625 0.71875 0.28125q0.34375 0.203125 0.5625 0.625q0.234375 0.40625 0.234375 1.09375l0 3.828125l-0.890625 0l0 -0.796875l-0.046875 0q-0.078125 0.1875 -0.296875 0.40625q-0.21875 0.21875 -0.578125 0.375q-0.34375 0.15625 -0.84375 0.15625zm0.140625 -0.8125q0.515625 0 0.875 -0.203125q0.375 -0.203125 0.5625 -0.53125q0.1875 -0.34375 0.1875 -0.703125l0 -0.8125q-0.0625 0.0625 -0.25 0.125q-0.1875 0.046875 -0.4375 0.09375q-0.25 0.03125 -0.484375 0.0625q-0.21875 0.03125 -0.359375 0.046875q-0.359375 0.046875 -0.65625 0.15625q-0.296875 0.09375 -0.484375 0.296875q-0.1875 0.1875 -0.1875 0.53125q0 0.46875 0.34375 0.703125q0.34375 0.234375 0.890625 0.234375zm4.984192 0.671875l-1.78125 -5.8125l0.9375 0l1.265625 4.453125l0.0625 0l1.234375 -4.453125l0.953125 0l1.21875 4.4375l0.0625 0l1.265625 -4.4375l0.9375 0l-1.765625 5.8125l-0.875 0l-1.28125 -4.46875l-0.09375 0l-1.28125 4.46875l-0.859375 0zm7.7211914 -7.75l0 7.75l-0.875 0l0 -7.75l0.875 0zm3.3237 9.203125q0.453125 -0.9375 0.734375 -1.71875q0.296875 -0.796875 0.4375 -1.5q0.140625 -0.71875 0.140625 -1.390625q0 -0.75 -0.15625 -1.609375q-0.15625 -0.875 -0.453125 -1.75q-0.296875 -0.890625 -0.703125 -1.703125l0.859375 0q0.40625 0.640625 0.703125 1.515625q0.296875 0.859375 0.46875 1.78125q0.171875 0.921875 0.171875 1.765625q0 1.140625 -0.34375 2.3125q-0.328125 1.171875 -1.0 2.296875l-0.859375 0z" fill-rule="nonzero"/><path fill="#f73d35" d="m84.11887 126.49337l0 0c0 -11.386398 9.230499 -20.616898 20.616898 -20.616898l82.896416 0l0 0c5.4679413 0 10.711929 2.1721268 14.578354 6.0385513c3.8664093 3.866417 6.0385437 9.110405 6.0385437 14.578346l0 82.465096c0 11.386398 -9.230499 20.616898 -20.616898 20.616898l-82.896416 0c-11.386398 0 -20.616898 -9.230499 -20.616898 -20.616898z" fill-rule="evenodd"/><path fill="#f73d35" d="m95.51999 126.49337l0 0c0 -11.386398 9.230499 -20.616898 20.616898 -20.616898l82.89642 0l0 0c5.4679413 0 10.711929 2.1721268 14.578339 6.0385513c3.8664246 3.866417 6.038559 9.110405 6.038559 14.578346l0 82.465096c0 11.386398 -9.230499 20.616898 -20.616898 20.616898l-82.89642 0c-11.386398 0 -20.616898 -9.230499 -20.616898 -20.616898z" fill-rule="evenodd"/><path fill="#f73d35" d="m123.21483 124.60947l0 0c0 -0.70471954 0.57128906 -1.2760162 1.2760162 -1.2760162l10.064072 0c0.33842468 0 0.6629791 0.13443756 0.9022827 0.37374115c0.23928833 0.23929596 0.37373352 0.56385803 0.37373352 0.9022751l0 5.103897c0 0.7047272 -0.57128906 1.2760162 -1.2760162 1.2760162l-10.064072 0c-0.7047272 0 -1.2760162 -0.57128906 -1.2760162 -1.2760162z" fill-rule="evenodd"/><path fill="#f73d35" d="m138.68938 124.83528l0 0c0 -0.6435089 0.5216675 -1.165184 1.1651917 -1.165184l9.171478 0c0.309021 0 0.60539246 0.12276459 0.8239136 0.34127808c0.21850586 0.21851349 0.34127808 0.51488495 0.34127808 0.82390594l0 4.6605988c0 0.64352417 -0.52168274 1.1651917 -1.1651917 1.1651917l-9.171478 0c-0.64352417 0 -1.1651917 -0.5216675 -1.1651917 -1.1651917z" fill-rule="evenodd"/><path fill="#f73d35" d="m131.76193 135.01323l0 0c0 -0.64352417 0.5216675 -1.1651917 1.1651764 -1.1651917l9.171494 0c0.309021 0 0.60539246 0.12275696 0.8239136 0.34127808c0.21850586 0.21850586 0.34126282 0.5148773 0.34126282 0.8239136l0 4.6605988c0 0.6435089 -0.5216675 1.1651764 -1.1651764 1.1651764l-9.171494 0c-0.6435089 0 -1.1651764 -0.5216675 -1.1651764 -1.1651764z" fill-rule="evenodd"/><path fill="#f73d35" d="m168.34052 183.55669l0 0c0 -0.6435089 0.5216675 -1.1651917 1.1651764 -1.1651917l9.171494 0c0.309021 0 0.60539246 0.12277222 0.8238983 0.34127808c0.21852112 0.21852112 0.34127808 0.5148926 0.34127808 0.8239136l0 4.6605988c0 0.6435089 -0.5216675 1.1651917 -1.1651764 1.1651917l-9.171494 0c-0.6435089 0 -1.1651764 -0.52168274 -1.1651764 -1.1651917z" fill-rule="evenodd"/><path fill="#f73d35" d="m176.11893 193.39798l0 0c0 -0.6435089 0.5216675 -1.1651917 1.1651917 -1.1651917l9.171478 0c0.30903625 0 0.60539246 0.12277222 0.8239136 0.34127808c0.21852112 0.21852112 0.34127808 0.5148926 0.34127808 0.8239136l0 4.6605988c0 0.6435089 -0.5216675 1.1651917 -1.1651917 1.1651917l-9.171478 0c-0.64352417 0 -1.1651917 -0.52168274 -1.1651917 -1.1651917z" fill-rule="evenodd"/><path fill="#f73d35" d="m118.05384 209.19136l0 0c0 -0.6435089 0.5216751 -1.1651764 1.165184 -1.1651764l9.171494 0c0.309021 0 0.60539246 0.12275696 0.8239136 0.34127808c0.21850586 0.21850586 0.34126282 0.5148773 0.34126282 0.8238983l0 4.660614c0 0.6435089 -0.5216675 1.1651764 -1.1651764 1.1651764l-9.171494 0c-0.6435089 0 -1.165184 -0.5216675 -1.165184 -1.1651764z" fill-rule="evenodd"/><path fill="#f73d35" d="m132.40623 209.19136l0 0c0 -0.6435089 0.5216675 -1.1651764 1.1651764 -1.1651764l9.171494 0c0.309021 0 0.60539246 0.12275696 0.8239136 0.34127808c0.21850586 0.21850586 0.34127808 0.5148773 0.34127808 0.8238983l0 4.660614c0 0.6435089 -0.52168274 1.1651764 -1.1651917 1.1651764l-9.171494 0c-0.6435089 0 -1.1651764 -0.5216675 -1.1651764 -1.1651764z" fill-rule="evenodd"/><path fill="#f73d35" d="m88.180145 193.17502l0 0c0 -2.749405 2.2288437 -4.978241 4.9782486 -4.978241l32.45661 0c1.3203125 0 2.5865479 0.52449036 3.5201569 1.4580994c0.93359375 0.93359375 1.4580841 2.199829 1.4580841 3.5201416l0 19.9124c0 2.749405 -2.228836 4.978241 -4.978241 4.978241l-32.45661 0c-2.749405 0 -4.9782486 -2.228836 -4.9782486 -4.978241z" fill-rule="evenodd"/><path fill="#f73d35" d="m179.84262 204.20206l0 0c0 -2.749405 2.228836 -4.978241 4.978241 -4.978241l43.778748 0c1.3203125 0 2.5865479 0.52449036 3.5201569 1.4580994c0.933609 0.93359375 1.4580994 2.199829 1.4580994 3.5201416l0 19.9124c0 2.749405 -2.228836 4.978241 -4.978256 4.978241l-43.778748 0c-2.749405 0 -4.978241 -2.228836 -4.978241 -4.978241z" fill-rule="evenodd"/><path fill="#f73d35" d="m150.19148 213.1281l0 0c0 -2.9876251 2.4219513 -5.4095764 5.4095764 -5.4095764l36.661957 0c1.4347076 0 2.8106537 0.56993103 3.8251495 1.5844269c1.0144958 1.0144958 1.5844269 2.390442 1.5844269 3.8251495l0 21.63765c0 2.9876251 -2.4219513 5.4095764 -5.4095764 5.4095764l-36.661957 0c-2.9876251 0 -5.4095764 -2.4219513 -5.4095764 -5.4095764z" fill-rule="evenodd"/><path fill="#f73d35" d="m93.24014 195.78447l0 0c0 -1.8329315 1.4858932 -3.3188324 3.3188324 -3.3188324l13.274925 0l0 0c0.8802109 0 1.7243652 0.3496704 2.3467712 0.97206116c0.6223984 0.622406 0.97206116 1.466568 0.97206116 2.3467712l0 17.552185c0 1.8329468 -1.4858932 3.3188324 -3.3188324 3.3188324l-13.274925 0c-1.8329391 0 -3.3188324 -1.4858856 -3.3188324 -3.3188324z" fill-rule="evenodd"/><path fill="#f73d35" d="m70.421074 212.85852l0 0c0 -2.838745 2.3012543 -5.1399994 5.1399994 -5.1399994l34.50537 0c1.363205 0 2.6705856 0.5415344 3.6345215 1.5054779c0.96393585 0.9639282 1.5054703 2.2713013 1.5054703 3.6345215l0 20.559357c0 2.838745 -2.3012543 5.1399994 -5.1399918 5.1399994l-34.50537 0c-2.838745 0 -5.1399994 -2.3012543 -5.1399994 -5.1399994z" fill-rule="evenodd"/><path fill="#f73d35" d="m76.26377 214.47778l0 0c0 -0.92970276 0.75367737 -1.6833801 1.6833801 -1.6833801l6.7333145 0l0 0c0.4464569 0 0.8746338 0.1773529 1.1903305 0.493042c0.3156891 0.31570435 0.49304962 0.7438812 0.49304962 1.1903381l0 12.933533c0 0.92970276 -0.75367737 1.6833801 -1.6833801 1.6833801l-6.7333145 0c-0.92970276 0 -1.6833801 -0.75367737 -1.6833801 -1.6833801z" fill-rule="evenodd"/><path fill="#f73d35" d="m146.75862 215.17393l0 0c0 -1.5930634 1.2914429 -2.8845062 2.8845062 -2.8845062l29.88675 0c0.76501465 0 1.498703 0.3039093 2.0396576 0.84484863c0.54093933 0.5409546 0.84484863 1.274643 0.84484863 2.0396576l0 11.537689c0 1.5930786 -1.2914429 2.8845062 -2.8845062 2.8845062l-29.88675 0c-1.5930634 0 -2.8845062 -1.2914276 -2.8845062 -2.8845062z" fill-rule="evenodd"/><path fill="#f73d35" d="m101.412254 204.16441l0 0c0 -4.30278 3.4880905 -7.7908783 7.790863 -7.7908783l38.15351 0c2.066269 0 4.0478973 0.8208313 5.508972 2.2819061c1.4610748 1.4610596 2.2818909 3.4427032 2.2818909 5.508972l0 31.162537c0 4.30278 -3.488083 7.790863 -7.790863 7.790863l-38.15351 0c-4.3027725 0 -7.790863 -3.488083 -7.790863 -7.790863z" fill-rule="evenodd"/><path fill="#f73d35" d="m148.36143 225.96606l0 0c0 -2.226654 1.805069 -4.031723 4.031723 -4.031723l60.33667 0c1.0692749 0 2.094757 0.42477417 2.8508606 1.1808624c0.75608826 0.7561035 1.1808624 1.7815857 1.1808624 2.8508606l0 16.126404c0 2.226654 -1.805069 4.031723 -4.031723 4.031723l-60.33667 0c-2.226654 0 -4.031723 -1.805069 -4.031723 -4.031723z" fill-rule="evenodd"/><path fill="#f73d35" d="m110.635445 207.50589l0 0c0 -1.5930786 1.2914429 -2.8845062 2.8845139 -2.8845062l14.14357 0c0.76501465 0 1.498703 0.30389404 2.0396576 0.84484863c0.5409546 0.5409546 0.84484863 1.2746277 0.84484863 2.0396576l0 11.537674c0 1.5930786 -1.2914276 2.8845215 -2.8845062 2.8845215l-14.14357 0c-1.593071 0 -2.8845139 -1.2914429 -2.8845139 -2.8845215z" fill-rule="evenodd"/><path fill="#f73d35" d="m156.71683 227.30475l0 0c0 -1.0339203 0.8381653 -1.8720856 1.8720856 -1.8720856l21.955292 0c0.49650574 0 0.97268677 0.1972351 1.3237762 0.5483246c0.35107422 0.35107422 0.5483093 0.82725525 0.5483093 1.323761l0 7.4881134c0 1.0339203 -0.83815 1.8720856 -1.8720856 1.8720856l-21.955292 0c-1.0339203 0 -1.8720856 -0.8381653 -1.8720856 -1.8720856z" fill-rule="evenodd"/><path fill="#fc8076" d="m68.11887 110.49337l0 0c0 -11.386398 9.230499 -20.616898 20.616898 -20.616898l82.896416 0l0 0c5.4679413 0 10.711929 2.1721268 14.578354 6.0385513c3.8664093 3.866417 6.0385437 9.110405 6.0385437 14.578346l0 82.465096c0 11.386398 -9.230499 20.616898 -20.616898 20.616898l-82.896416 0c-11.386398 0 -20.616898 -9.230499 -20.616898 -20.616898z" fill-rule="evenodd"/><path fill="#f73d35" d="m79.51999 110.49337l0 0c0 -11.386398 9.230499 -20.616898 20.616898 -20.616898l82.89642 0l0 0c5.4679413 0 10.711929 2.1721268 14.578339 6.0385513c3.8664246 3.866417 6.038559 9.110405 6.038559 14.578346l0 82.465096c0 11.386398 -9.230499 20.616898 -20.616898 20.616898l-82.89642 0c-11.386398 0 -20.616898 -9.230499 -20.616898 -20.616898z" fill-rule="evenodd"/><path fill="#e03027" d="m107.21483 108.60947l0 0c0 -0.70471954 0.57128906 -1.2760162 1.2760162 -1.2760162l10.064072 0c0.33841705 0 0.6629791 0.13443756 0.9022751 0.37374115c0.23930359 0.23929596 0.37374115 0.56385803 0.37374115 0.9022751l0 5.103897c0 0.70471954 -0.5712967 1.2760162 -1.2760162 1.2760162l-10.064072 0c-0.7047272 0 -1.2760162 -0.5712967 -1.2760162 -1.2760162z" fill-rule="evenodd"/><path fill="#e03027" d="m122.68938 108.83528l0 0c0 -0.6435089 0.5216675 -1.165184 1.165184 -1.165184l9.171486 0c0.309021 0 0.60539246 0.12276459 0.8239136 0.34127808c0.21850586 0.21851349 0.34127808 0.51488495 0.34127808 0.82390594l0 4.6606064c0 0.64351654 -0.52168274 1.165184 -1.1651917 1.165184l-9.171486 0c-0.64351654 0 -1.165184 -0.5216675 -1.165184 -1.165184z" fill-rule="evenodd"/><path fill="#e03027" d="m115.761925 119.01322l0 0c0 -0.6435089 0.5216751 -1.165184 1.165184 -1.165184l9.171486 0c0.30902863 0 0.6054001 0.12276459 0.8239136 0.34127808c0.21851349 0.21851349 0.34127808 0.51488495 0.34127808 0.82390594l0 4.6606064c0 0.6435089 -0.5216751 1.165184 -1.1651917 1.165184l-9.171486 0c-0.6435089 0 -1.165184 -0.5216751 -1.165184 -1.165184z" fill-rule="evenodd"/><path fill="#e03027" d="m152.34052 167.55669l0 0c0 -0.6435089 0.5216675 -1.1651917 1.1651764 -1.1651917l9.171494 0c0.309021 0 0.60539246 0.12277222 0.8238983 0.34127808c0.21852112 0.21852112 0.34127808 0.5148926 0.34127808 0.8239136l0 4.6605988c0 0.6435089 -0.5216675 1.1651917 -1.1651764 1.1651917l-9.171494 0c-0.6435089 0 -1.1651764 -0.52168274 -1.1651764 -1.1651917z" fill-rule="evenodd"/><path fill="#e03027" d="m160.11893 177.39798l0 0c0 -0.6435089 0.5216675 -1.1651917 1.1651917 -1.1651917l9.171478 0c0.30903625 0 0.60539246 0.12277222 0.8239136 0.34127808c0.21852112 0.21852112 0.34127808 0.5148926 0.34127808 0.8239136l0 4.6605988c0 0.6435089 -0.5216675 1.1651917 -1.1651917 1.1651917l-9.171478 0c-0.64352417 0 -1.1651917 -0.52168274 -1.1651917 -1.1651917z" fill-rule="evenodd"/><path fill="#e03027" d="m102.05384 193.19136l0 0c0 -0.6435089 0.5216751 -1.1651764 1.165184 -1.1651764l9.171486 0c0.30902863 0 0.6054001 0.12275696 0.8239136 0.34127808c0.21851349 0.21850586 0.34127808 0.5148773 0.34127808 0.8238983l0 4.660614c0 0.6435089 -0.5216751 1.1651764 -1.1651917 1.1651764l-9.171486 0c-0.6435089 0 -1.165184 -0.5216675 -1.165184 -1.1651764z" fill-rule="evenodd"/><path fill="#e03027" d="m116.40623 193.19136l0 0c0 -0.6435089 0.5216751 -1.1651764 1.1651917 -1.1651764l9.171486 0c0.30902863 0 0.60539246 0.12275696 0.82390594 0.34127808c0.21852112 0.21850586 0.34127808 0.5148773 0.34127808 0.8238983l0 4.660614c0 0.6435089 -0.5216675 1.1651764 -1.165184 1.1651764l-9.171486 0c-0.64351654 0 -1.1651917 -0.5216675 -1.1651917 -1.1651764z" fill-rule="evenodd"/><path fill="#227600" d="m72.180145 177.17502l0 0c0 -2.749405 2.2288437 -4.978241 4.9782486 -4.978241l32.45661 0c1.3203125 0 2.5865479 0.52449036 3.5201492 1.4580994c0.9336014 0.93359375 1.4580917 2.199829 1.4580917 3.5201416l0 19.9124c0 2.749405 -2.228836 4.978241 -4.978241 4.978241l-32.45661 0c-2.749405 0 -4.9782486 -2.228836 -4.9782486 -4.978241z" fill-rule="evenodd"/><path fill="#227600" d="m163.84262 188.20206l0 0c0 -2.749405 2.228836 -4.978241 4.978241 -4.978241l43.778748 0c1.3203125 0 2.5865479 0.52449036 3.5201569 1.4580994c0.933609 0.93359375 1.4580994 2.199829 1.4580994 3.5201416l0 19.9124c0 2.749405 -2.228836 4.978241 -4.978256 4.978241l-43.778748 0c-2.749405 0 -4.978241 -2.228836 -4.978241 -4.978241z" fill-rule="evenodd"/><path fill="#35ad05" d="m134.19148 197.1281l0 0c0 -2.9876251 2.4219513 -5.4095764 5.4095764 -5.4095764l36.661957 0c1.4347076 0 2.8106537 0.56993103 3.8251495 1.5844269c1.0144958 1.0144958 1.5844269 2.390442 1.5844269 3.8251495l0 21.63765c0 2.9876251 -2.4219513 5.4095764 -5.4095764 5.4095764l-36.661957 0c-2.9876251 0 -5.4095764 -2.4219513 -5.4095764 -5.4095764z" fill-rule="evenodd"/><path fill="#3fbe0c" d="m77.24014 179.78447l0 0c0 -1.8329315 1.4858932 -3.3188324 3.3188324 -3.3188324l13.274925 0l0 0c0.8802109 0 1.7243652 0.3496704 2.3467712 0.97206116c0.6223984 0.622406 0.97206116 1.466568 0.97206116 2.3467712l0 17.552185c0 1.8329468 -1.4858932 3.3188324 -3.3188324 3.3188324l-13.274925 0c-1.8329391 0 -3.3188324 -1.4858856 -3.3188324 -3.3188324z" fill-rule="evenodd"/><path fill="#35ad05" d="m54.421078 196.85852l0 0c0 -2.838745 2.3012543 -5.1399994 5.1399956 -5.1399994l34.50537 0c1.363205 0 2.6705856 0.5415344 3.6345215 1.5054779c0.96393585 0.9639282 1.5054703 2.2713013 1.5054703 3.6345215l0 20.559357c0 2.838745 -2.3012543 5.1399994 -5.1399918 5.1399994l-34.50537 0c-2.8387413 0 -5.1399956 -2.3012543 -5.1399956 -5.1399994z" fill-rule="evenodd"/><path fill="#51de18" d="m60.263775 198.47778l0 0c0 -0.92970276 0.75367355 -1.6833801 1.6833763 -1.6833801l6.7333145 0l0 0c0.4464569 0 0.8746338 0.1773529 1.1903305 0.493042c0.3156891 0.31570435 0.49304962 0.7438812 0.49304962 1.1903381l0 12.933533c0 0.92970276 -0.75367737 1.6833801 -1.6833801 1.6833801l-6.7333145 0c-0.92970276 0 -1.6833763 -0.75367737 -1.6833763 -1.6833801z" fill-rule="evenodd"/><path fill="#3fbe0c" d="m130.75862 199.17393l0 0c0 -1.5930634 1.2914429 -2.8845062 2.8845062 -2.8845062l29.88675 0c0.76501465 0 1.498703 0.3039093 2.0396576 0.84484863c0.54093933 0.5409546 0.84484863 1.274643 0.84484863 2.0396576l0 11.537689c0 1.5930786 -1.2914429 2.8845062 -2.8845062 2.8845062l-29.88675 0c-1.5930634 0 -2.8845062 -1.2914276 -2.8845062 -2.8845062z" fill-rule="evenodd"/><path fill="#3fbe0c" d="m85.412254 188.16441l0 0c0 -4.30278 3.4880905 -7.7908783 7.790863 -7.7908783l38.15351 0c2.066269 0 4.0478973 0.8208313 5.508972 2.2819061c1.4610748 1.4610596 2.2818909 3.4427032 2.2818909 5.508972l0 31.162537c0 4.30278 -3.488083 7.790863 -7.790863 7.790863l-38.15351 0c-4.3027725 0 -7.790863 -3.488083 -7.790863 -7.790863z" fill-rule="evenodd"/><path fill="#51de18" d="m132.36143 209.96606l0 0c0 -2.226654 1.805069 -4.031723 4.031723 -4.031723l60.33667 0c1.0692749 0 2.094757 0.42477417 2.8508606 1.1808624c0.75608826 0.7561035 1.1808624 1.7815857 1.1808624 2.8508606l0 16.126404c0 2.226654 -1.805069 4.031723 -4.031723 4.031723l-60.33667 0c-2.226654 0 -4.031723 -1.805069 -4.031723 -4.031723z" fill-rule="evenodd"/><path fill="#60e62a" d="m94.635445 191.50589l0 0c0 -1.5930786 1.2914429 -2.8845062 2.8845139 -2.8845062l14.14357 0c0.7650223 0 1.4987106 0.30389404 2.0396576 0.84484863c0.54094696 0.5409546 0.84485626 1.2746277 0.84485626 2.0396576l0 11.537674c0 1.5930786 -1.2914429 2.8845215 -2.8845139 2.8845215l-14.14357 0c-1.593071 0 -2.8845139 -1.2914429 -2.8845139 -2.8845215z" fill-rule="evenodd"/><path fill="#60e62a" d="m140.71683 211.30475l0 0c0 -1.0339203 0.8381653 -1.8720856 1.8720856 -1.8720856l21.955292 0c0.49650574 0 0.97268677 0.1972351 1.3237762 0.5483246c0.35107422 0.35107422 0.5483093 0.82725525 0.5483093 1.323761l0 7.4881134c0 1.0339203 -0.83815 1.8720856 -1.8720856 1.8720856l-21.955292 0c-1.0339203 0 -1.8720856 -0.8381653 -1.8720856 -1.8720856z" fill-rule="evenodd"/></g></svg>