<svg version="1.1" viewBox="0 0 512 512" fill="none" xmlns="http://www.w3.org/2000/svg">
  <!-- Rounded white square background -->
  <rect x="0" y="0" width="512" height="512" rx="96" ry="96" fill="#ffffff"/>
  
  <!-- Logo content - scaled and centered -->
  <g transform="translate(64, 64) scale(0.2666667)">
    <path fill="#2563eb" d="m174.10805 96.061775l-41.38867 -43.739014l-44.514008 -3.1254654l-69.50493 95.28293l81.217606 -51.543915l33.578278 4.68528l25.773727 19.523949l12.495453 -4.68528z" fill-rule="evenodd"/>
    <path fill="#2563eb" d="m164.7379 14.057697l-21.8656 5.462265l-1.5655823 23.43224l27.333466 13.278854l17.963333 -17.181305z" fill-rule="evenodd"/>
    <path fill="#2563eb" d="m250.64058 -0.0039839894l-17.180542 38.270905l-28.116257 -1.5598106l-10.147079 13.27301l10.147079 13.278854l21.088654 3.9024544l-22.648392 18.746964l2.3425293 14.838661l19.523071 3.9024582l22.648407 -10.153389l18.74028 21.866585l11.718506 -13.27301l-15.620789 -51.543922l2.3425293 -36.711094z" fill-rule="evenodd"/>
    <path fill="#2563eb" d="m300.62244 19.519962l-21.8656 7.033762l-3.1253357 24.209227l17.180542 10.93037l24.990936 -10.93037z" fill-rule="evenodd"/>
    <path fill="#2563eb" d="m370.12738 79.657455l-16.403595 17.964134l17.180542 24.209229l23.431183 -1.5598145l7.027588 -24.99205z" fill-rule="evenodd"/>
    <path fill="#2563eb" d="m315.46045 71.069725l-17.180542 11.713196l5.467865 48.41845l-37.48639 -3.1196136l-30.458801 17.181305l33.584106 16.398468l46.856537 28.894516l12.495483 27.334686l28.110413 -11.713196l-7.0276184 -32.802795l36.703613 0l22.648407 -12.496033l-16.397766 -17.181305l-38.269165 -17.95829l-20.305878 -33.585632z" fill-rule="evenodd"/>
    <path fill="#2563eb" d="m135.0619 142.13759l-24.990929 -16.398476l-21.865608 1.5598145l6.244812 29.67733l-17.180534 13.278854l4.685074 20.300934l38.269188 0.78282166l43.7312 23.432251l22.648407 10.147537l2.3425293 -24.986206l-20.305862 -25.774887l31.241577 -12.496033l16.39775 -21.866577l-20.305862 -12.496025l-32.01854 17.964134z" fill-rule="evenodd"/>
    <path fill="#2563eb" d="m114.230286 203.62459l-16.946861 13.267166l8.102478 24.32022l36.849648 -7.372589z" fill-rule="evenodd"/>
    <path fill="#2563eb" d="m64.11407 226.47263l-21.369057 16.947632l8.108322 30.220642l28.741325 -3.6863098l4.422188 -29.478699z" fill-rule="evenodd"/>
    <path fill="#2563eb" d="m28.006319 184.46284l-28.005266 35.373276l0.73605824 64.85782l20.632998 35.37912l21.3749 -11.058899l-13.266575 -32.428894l-0.7360592 -36.85132l14.738691 -36.10936z" fill-rule="evenodd"/>
    <path fill="#2563eb" d="m108.335976 285.43002l-35.377525 41.273712l12.53051 25.062164l-30.955338 -10.322815l-36.849648 0.74194336l10.322342 26.528473l40.529938 21.375885l17.688766 44.95999l28.005264 2.9443665l5.89431 -44.21808l30.219276 14.003265l19.160889 -18.42566l-30.21344 -25.062134l-14.002632 -45.696106z" fill-rule="evenodd"/>
    <path fill="#2563eb" d="m160.66037 314.17264l-19.896942 9.586731l8.844391 31.686981l29.477386 4.422394l5.158249 -33.16501z" fill-rule="evenodd"/>
    <path fill="#2563eb" d="m224.77924 385.667l-19.160889 11.789124l2.9500732 25.798248l31.685562 5.1585083l13.266571 -27.270447z" fill-rule="evenodd"/>
    <path fill="#2563eb" d="m361.11942 382.71677l-14.738678 34.643036l30.955322 14.003265l22.110962 -26.534332z" fill-rule="evenodd"/>
    <path fill="#2563eb" d="m204.8823 435.04938l-31.691406 -14.003265l-13.266571 11.789124l17.688766 33.16501l55.274475 14.003265l51.588333 -25.792389l5.8943176 -29.484558l-25.055206 1.4780273l-33.90541 14.739349z" fill-rule="evenodd"/>
    <path fill="#2563eb" d="m242.46799 196.25198l-20.63884 9.580872l0 21.37587l22.847015 8.102844l24.324966 -16.947632z" fill-rule="evenodd"/>
    <path fill="#2563eb" d="m394.2888 208.04698l-17.688782 12.525223l11.052551 35.37912l33.163513 -19.897827z" fill-rule="evenodd"/>
    <path fill="#2563eb" d="m192.35178 236.0535l49.380157 14.003265l38.321777 -15.481293l25.055176 1.4780273l-12.524658 30.950897l-19.160889 9.580872l16.210815 28.0065l5.1582336 42.75174l-20.632996 13.267151l-16.952698 -42.75171l-5.158264 34.643036l-17.688766 20.633911l-19.896942 -12.525238l0 -53.068665l-6.6362 -23.584137l-29.477386 -18.42566l-2.9500732 -22.848038z" fill-rule="evenodd"/>
    <path fill="#2563eb" d="m326.4838 271.4268l-11.052551 30.956726l8.102478 48.64044l-17.682922 50.11847l38.321747 -20.633911l38.321777 -16.953491l44.957977 5.158478l-32.42746 -36.115204l-2.9500732 -43.481964l-11.052582 -26.534332l-17.688751 5.158478l-12.530518 42.015625z" fill-rule="evenodd"/>
    <path fill="#2563eb" d="m420.78687 170.69327l-8.710022 17.420822l17.420044 31.932343l-7.7461243 52.262497l-11.607513 25.161469l26.124207 14.511505l17.420044 -31.932343l6.776428 -72.58095l-24.196472 -35.805588z" fill-rule="evenodd"/>
    <path fill="#2563eb" d="m615.8589 172.11023c-11.581604 0 -22.03064 2.6491852 -31.347107 7.9475555c-9.296814 5.2786713 -16.653442 12.989868 -22.070007 23.13359c-5.3969116 10.124023 -8.095276 22.394974 -8.095276 36.812836c0 14.299698 2.6885376 26.501709 8.065735 36.60605c5.377136 10.104309 12.704285 17.815521 21.981384 23.133575c9.277039 5.3180847 19.765503 7.977112 31.465271 7.977112c8.449829 0 16.042847 -1.2802734 22.779053 -3.8408203c6.736267 -2.5802612 12.55658 -6.066559 17.46106 -10.458862c4.904419 -4.4120483 8.784607 -9.424805 11.640625 -15.03833c2.8757324 -5.6135254 4.668091 -11.463379 5.3771973 -17.549622l-28.185791 0c-0.5909424 3.5453796 -1.7333374 6.696808 -3.427246 9.454346c-1.6741943 2.7378235 -3.7521973 5.0521545 -6.2339478 6.9430237c-2.4817505 1.8908691 -5.318054 3.338562 -8.508911 4.343109c-3.190857 1.0045166 -6.647583 1.5067749 -10.370239 1.5067749c-6.677124 0 -12.55658 -1.6249695 -17.638306 -4.8749084c-5.081726 -3.2499084 -9.04071 -8.075592 -11.877014 -14.476959c-2.8363037 -6.4210815 -4.2544556 -14.329239 -4.2544556 -23.724487c0 -9.217972 1.3984375 -17.027649 4.1953735 -23.429031c2.8165894 -6.4210815 6.7755737 -11.325516 11.877014 -14.713318c5.1210938 -3.4075012 11.049805 -5.111252 17.78601 -5.111252c3.8408203 0 7.366516 0.5514984 10.577087 1.6545105c3.2302246 1.0832977 6.0960693 2.629486 8.597534 4.6385345c2.5211792 2.0090485 4.5597534 4.461258 6.1157837 7.356659c1.5757446 2.8953857 2.6295166 6.1453247 3.161316 9.749786l28.185791 0c-0.88635254 -7.6225586 -2.9249268 -14.398178 -6.1157837 -20.326843c-3.190857 -5.948349 -7.317322 -10.970963 -12.3793335 -15.067856c-5.0422974 -4.116577 -10.842957 -7.2483215 -17.401917 -9.395248c-6.55896 -2.166626 -13.67926 -3.2499237 -21.3609 -3.2499237z" fill-rule="evenodd"/>
    <path fill="#2563eb" d="m723.46124 173.88292l0 85.70952c0 9.631592 2.2749634 18.071564 6.82489 25.319916c4.5498657 7.228607 10.93158 12.85199 19.14508 16.870087c8.21344 4.018097 17.78601 6.02713 28.71759 6.02713c10.93158 0 20.50415 -2.0090332 28.71759 -6.02713c8.213501 -4.018097 14.6050415 -9.6414795 19.174622 -16.870087c4.5892944 -7.248352 6.883972 -15.688324 6.883972 -25.319916l0 -85.70952l-27.919922 0l0 83.405014c0 5.0226135 -1.112854 9.503571 -3.338562 13.442902c-2.2059937 3.9196167 -5.318054 6.9922485 -9.336182 9.217987c-4.0180664 2.2059937 -8.7453 3.309021 -14.181519 3.309021c-5.3771973 0 -10.074829 -1.1030273 -14.0928955 -3.309021c-4.0181274 -2.2257385 -7.1498413 -5.2983704 -9.395264 -9.217987c-2.2454224 -3.939331 -3.368103 -8.420288 -3.368103 -13.442902l0 -83.405014z" fill-rule="evenodd"/>
    <path fill="#2563eb" d="m932.81616 196.75061c5.377136 0 9.83844 0.78785706 13.383789 2.3635712c3.5454102 1.5560303 6.1847534 3.8309937 7.91803 6.8248596c1.7529907 2.9741821 2.6295166 6.677124 2.6295166 11.108856c0 4.372635 -0.8765259 8.006638 -2.6295166 10.902039c-1.7332764 2.8953857 -4.362793 5.081711 -7.888489 6.5589447c-3.5059814 1.4772491 -7.947571 2.215866 -13.324707 2.215866l-18.967834 0l0 -39.974136zm-46.71045 -22.867691l0 132.06532l27.831238 0l0 -46.79898l20.413452 0l25.056091 46.79898l30.844849 0l-28.043518 -51.249252l0 0c0.41027832 -0.17573547 0.81585693 -0.35665894 1.2167969 -0.5428009c7.18927 -3.3484192 12.674744 -8.183914 16.456482 -14.5065155c3.7817383 -6.322586 5.6726074 -13.856506 5.6726074 -22.601776c0 -8.74527 -1.8810425 -16.34813 -5.6430664 -22.808609c-3.7423706 -6.4801636 -9.149048 -11.492935 -16.220093 -15.0383c-7.0513916 -3.5453796 -15.57019 -5.3180695 -25.556335 -5.3180695z" fill-rule="evenodd"/>
    <path fill="#2563eb" d="m1092.447 204.01863l16.257568 49.989838l-33.578735 0l16.257568 -49.989838zm-18.524658 -30.135712l-45.558105 132.06532l29.869873 0l9.800659 -30.135712l47.760864 0l9.800659 30.135712l29.78125 0l-45.469482 -132.06532z" fill-rule="evenodd"/>
    <path fill="#2563eb" d="m1248.0894 196.75061c5.3771973 0 9.838501 0.78785706 13.383789 2.3635712c3.5454102 1.5560303 6.1846924 3.8309937 7.918091 6.8248596c1.7529297 2.9741821 2.6295166 6.677124 2.6295166 11.108856c0 4.372635 -0.8765869 8.006638 -2.6295166 10.902039c-1.7333984 2.8953857 -4.362793 5.081711 -7.88855 6.5589447c-3.5059814 1.4772491 -7.94751 2.215866 -13.324707 2.215866l-18.967773 0l0 -39.974136zm-46.71045 -22.867691l0 132.06532l27.831299 0l0 -46.79898l20.413452 0l25.05603 46.79898l30.844849 0l-28.043457 -51.249252l0 0c0.41027832 -0.17573547 0.8157959 -0.35665894 1.2167969 -0.5428009c7.189209 -3.3484192 12.674683 -8.183914 16.45642 -14.5065155c3.7817383 -6.322586 5.6726074 -13.856506 5.6726074 -22.601776c0 -8.74527 -1.8809814 -16.34813 -5.6430664 -22.808609c-3.7423096 -6.4801636 -9.149048 -11.492935 -16.220093 -15.0383c-7.0513916 -3.5453796 -15.57019 -5.3180695 -25.556274 -5.3180695z" fill-rule="evenodd"/>
    <path fill="#2563eb" d="m1350.8169 173.88292l0 132.06532l89.16638 0l0 -23.044952l-61.335205 0l0 -32.351578l56.54895 0l0 -22.601776l-56.54895 0l0 -31.022064l61.157837 0l0 -23.044952z" fill-rule="evenodd"/>
  </g>
</svg>

