<svg version="1.1" viewBox="0.0 0.0 864.0 864.0" fill="none" stroke="none" stroke-linecap="square" stroke-miterlimit="10" xmlns:xlink="http://www.w3.org/1999/xlink" xmlns="http://www.w3.org/2000/svg"><clipPath id="g3b77ef49a04_0_325.0"><path d="m0 0l864.0 0l0 864.0l-864.0 0l0 -864.0z" clip-rule="nonzero"/></clipPath><g clip-path="url(#g3b77ef49a04_0_325.0)"><path fill="#2563eb" d="m304.14304 246.87563l77.90042 0l0 123.47148l-77.90042 0z" fill-rule="evenodd"/><path fill="#2563eb" d="m459.87854 246.87563l77.90045 0l0 123.47148l-77.90045 0z" fill-rule="evenodd"/><path fill="#2563eb" d="m304.14166 617.1208l77.90045 0l0 123.4715l-77.90045 0z" fill-rule="evenodd"/><path fill="#2563eb" d="m382.00943 617.1208l77.90042 0l0 123.4715l-77.90042 0z" fill-rule="evenodd"/><path fill="#2563eb" d="m459.87717 617.1208l77.90042 0l0 123.4715l-77.90042 0z" fill-rule="evenodd"/><path fill="#2563eb" d="m537.7457 493.7245l77.90045 0l0 123.4715l-77.90045 0z" fill-rule="evenodd"/><path fill="#2563eb" d="m226.27364 493.7245l77.90044 0l0 123.4715l-77.90044 0z" fill-rule="evenodd"/><path fill="#000000" fill-opacity="0.0" d="m226.28227 637.6991l0 0c0 -11.3619995 9.210709 -20.572754 20.572708 -20.572754l348.20526 0c5.456238 0 10.688965 2.1674805 14.547119 6.025635c3.8581543 3.8581543 6.025635 9.090881 6.025635 14.547119l0 82.28839c0 11.3619995 -9.210754 20.572693 -20.572754 20.572693l-348.20526 0c-11.3619995 0 -20.572708 -9.210693 -20.572708 -20.572693z" fill-rule="evenodd"/><path stroke="#2563eb" stroke-width="19.78477690288714" stroke-linejoin="round" stroke-linecap="butt" d="m226.28227 637.6991l0 0c0 -11.3619995 9.210709 -20.572754 20.572708 -20.572754l348.20526 0c5.456238 0 10.688965 2.1674805 14.547119 6.025635c3.8581543 3.8581543 6.025635 9.090881 6.025635 14.547119l0 82.28839c0 11.3619995 -9.210754 20.572693 -20.572754 20.572693l-348.20526 0c-11.3619995 0 -20.572708 -9.210693 -20.572708 -20.572693z" fill-rule="evenodd"/><path fill="#000000" fill-opacity="0.0" d="m148.41376 390.8617l0 0c0 -11.3619995 9.210724 -20.572723 20.572723 -20.572723l503.92587 0c5.456238 0 10.688965 2.1674805 14.547119 6.0256042c3.8581543 3.8581238 6.025635 9.090881 6.025635 14.547119l0 82.28839c0 11.3619995 -9.210754 20.572723 -20.572754 20.572723l-503.92587 0c-11.3619995 0 -20.572723 -9.210724 -20.572723 -20.572723z" fill-rule="evenodd"/><path stroke="#2563eb" stroke-width="19.78477690288714" stroke-linejoin="round" stroke-linecap="butt" d="m148.41376 390.8617l0 0c0 -11.3619995 9.210724 -20.572723 20.572723 -20.572723l503.92587 0c5.456238 0 10.688965 2.1674805 14.547119 6.0256042c3.8581543 3.8581238 6.025635 9.090881 6.025635 14.547119l0 82.28839c0 11.3619995 -9.210754 20.572723 -20.572754 20.572723l-503.92587 0c-11.3619995 0 -20.572723 -9.210724 -20.572723 -20.572723z" fill-rule="evenodd"/><path fill="#000000" fill-opacity="0.0" d="m148.41376 514.29553l0 0c0 -11.3619995 9.210724 -20.572723 20.572723 -20.572723l503.92587 0c5.456238 0 10.688965 2.1674805 14.547119 6.0256042c3.8581543 3.8581238 6.025635 9.090881 6.025635 14.547119l0 82.28839c0 11.3619995 -9.210754 20.572754 -20.572754 20.572754l-503.92587 0c-11.3619995 0 -20.572723 -9.210754 -20.572723 -20.572754z" fill-rule="evenodd"/><path stroke="#2563eb" stroke-width="19.78477690288714" stroke-linejoin="round" stroke-linecap="butt" d="m148.41376 514.29553l0 0c0 -11.3619995 9.210724 -20.572723 20.572723 -20.572723l503.92587 0c5.456238 0 10.688965 2.1674805 14.547119 6.0256042c3.8581543 3.8581238 6.025635 9.090881 6.025635 14.547119l0 82.28839c0 11.3619995 -9.210754 20.572754 -20.572754 20.572754l-503.92587 0c-11.3619995 0 -20.572723 -9.210754 -20.572723 -20.572754z" fill-rule="evenodd"/><path fill="#000000" fill-opacity="0.0" d="m148.41376 267.45813l0 0c0 -11.3619995 9.210724 -20.572708 20.572723 -20.572708l503.92587 0c5.456238 0 10.688965 2.1674652 14.547119 6.0256042c3.8581543 3.858139 6.025635 9.090897 6.025635 14.547104l0 82.28842c0 11.3619995 -9.210754 20.572693 -20.572754 20.572693l-503.92587 0c-11.3619995 0 -20.572723 -9.210693 -20.572723 -20.572693z" fill-rule="evenodd"/><path stroke="#2563eb" stroke-width="19.78477690288714" stroke-linejoin="round" stroke-linecap="butt" d="m148.41376 267.45813l0 0c0 -11.3619995 9.210724 -20.572708 20.572723 -20.572708l503.92587 0c5.456238 0 10.688965 2.1674652 14.547119 6.0256042c3.8581543 3.858139 6.025635 9.090897 6.025635 14.547104l0 82.28842c0 11.3619995 -9.210754 20.572693 -20.572754 20.572693l-503.92587 0c-11.3619995 0 -20.572723 -9.210693 -20.572723 -20.572693z" fill-rule="evenodd"/><path fill="#000000" fill-opacity="0.0" d="m226.28227 144.02429l0 0c0 -11.3619995 9.210709 -20.572723 20.572708 -20.572723l348.20526 0c5.456238 0 10.688965 2.1674805 14.547119 6.0256195c3.8581543 3.8581238 6.025635 9.090881 6.025635 14.547104l0 82.28841c0 11.3619995 -9.210754 20.572723 -20.572754 20.572723l-348.20526 0c-11.3619995 0 -20.572708 -9.210724 -20.572708 -20.572723z" fill-rule="evenodd"/><path stroke="#2563eb" stroke-width="19.78477690288714" stroke-linejoin="round" stroke-linecap="butt" d="m226.28227 144.02429l0 0c0 -11.3619995 9.210709 -20.572723 20.572708 -20.572723l348.20526 0c5.456238 0 10.688965 2.1674805 14.547119 6.0256195c3.8581543 3.8581238 6.025635 9.090881 6.025635 14.547104l0 82.28841c0 11.3619995 -9.210754 20.572723 -20.572754 20.572723l-348.20526 0c-11.3619995 0 -20.572708 -9.210724 -20.572708 -20.572723z" fill-rule="evenodd"/><path fill="#000000" fill-opacity="0.0" d="m382.01654 12.984455l0 0c0 -7.1684947 5.8112183 -12.979708 12.979706 -12.979708l51.917267 0l0 0c3.4424438 0 6.7438965 1.3675011 9.17804 3.8016684c2.4341736 2.4341674 3.8016663 5.735607 3.8016663 9.17804l0 838.0256c0 7.168518 -5.8111877 12.979736 -12.979706 12.979736l-51.917267 0c-7.1684875 0 -12.979706 -5.8112183 -12.979706 -12.979736z" fill-rule="evenodd"/><path stroke="#2563eb" stroke-width="19.78477690288714" stroke-linejoin="round" stroke-linecap="butt" d="m382.01654 12.984455l0 0c0 -7.1684947 5.8112183 -12.979708 12.979706 -12.979708l51.917267 0l0 0c3.4424438 0 6.7438965 1.3675011 9.17804 3.8016684c2.4341736 2.4341674 3.8016663 5.735607 3.8016663 9.17804l0 838.0256c0 7.168518 -5.8111877 12.979736 -12.979706 12.979736l-51.917267 0c-7.1684875 0 -12.979706 -5.8112183 -12.979706 -12.979736z" fill-rule="evenodd"/><path fill="#000000" fill-opacity="0.0" d="m459.88232 12.984455l0 0c0 -7.1684947 5.8111877 -12.979708 12.979706 -12.979708l51.917267 0l0 0c3.4424438 0 6.7438965 1.3675011 9.17804 3.8016684c2.434143 2.4341674 3.8016968 5.735607 3.8016968 9.17804l0 838.0256c0 7.168518 -5.8112183 12.979736 -12.979736 12.979736l-51.917267 0c-7.168518 0 -12.979706 -5.8112183 -12.979706 -12.979736z" fill-rule="evenodd"/><path stroke="#2563eb" stroke-width="19.78477690288714" stroke-linejoin="round" stroke-linecap="butt" d="m459.88232 12.984455l0 0c0 -7.1684947 5.8111877 -12.979708 12.979706 -12.979708l51.917267 0l0 0c3.4424438 0 6.7438965 1.3675011 9.17804 3.8016684c2.434143 2.4341674 3.8016968 5.735607 3.8016968 9.17804l0 838.0256c0 7.168518 -5.8112183 12.979736 -12.979736 12.979736l-51.917267 0c-7.168518 0 -12.979706 -5.8112183 -12.979706 -12.979736z" fill-rule="evenodd"/><path fill="#000000" fill-opacity="0.0" d="m304.15076 12.984455l0 0c0 -7.1684947 5.8112183 -12.979708 12.979706 -12.979708l51.917297 0l0 0c3.4424133 0 6.743866 1.3675011 9.17804 3.8016684c2.4341736 2.4341674 3.8016663 5.735607 3.8016663 9.17804l0 838.0256c0 7.168518 -5.8112183 12.979736 -12.979706 12.979736l-51.917297 0c-7.1684875 0 -12.979706 -5.8112183 -12.979706 -12.979736z" fill-rule="evenodd"/><path stroke="#2563eb" stroke-width="19.78477690288714" stroke-linejoin="round" stroke-linecap="butt" d="m304.15076 12.984455l0 0c0 -7.1684947 5.8112183 -12.979708 12.979706 -12.979708l51.917297 0l0 0c3.4424133 0 6.743866 1.3675011 9.17804 3.8016684c2.4341736 2.4341674 3.8016663 5.735607 3.8016663 9.17804l0 838.0256c0 7.168518 -5.8112183 12.979736 -12.979706 12.979736l-51.917297 0c-7.1684875 0 -12.979706 -5.8112183 -12.979706 -12.979736z" fill-rule="evenodd"/><path fill="#000000" fill-opacity="0.0" d="m537.75903 136.42696l0 0c0 -7.168503 5.811157 -12.979713 12.979675 -12.979713l51.917297 0l0 0c3.4424438 0 6.7438354 1.3675003 9.17804 3.801674c2.434143 2.4341583 3.8016357 5.735611 3.8016357 9.17804l0 591.1579c0 7.168457 -5.8112183 12.979675 -12.979675 12.979675l-51.917297 0c-7.168518 0 -12.979675 -5.8112183 -12.979675 -12.979675z" fill-rule="evenodd"/><path stroke="#2563eb" stroke-width="19.78477690288714" stroke-linejoin="round" stroke-linecap="butt" d="m537.75903 136.42696l0 0c0 -7.168503 5.811157 -12.979713 12.979675 -12.979713l51.917297 0l0 0c3.4424438 0 6.7438354 1.3675003 9.17804 3.801674c2.434143 2.4341583 3.8016357 5.735611 3.8016357 9.17804l0 591.1579c0 7.168457 -5.8112183 12.979675 -12.979675 12.979675l-51.917297 0c-7.168518 0 -12.979675 -5.8112183 -12.979675 -12.979675z" fill-rule="evenodd"/><path fill="#000000" fill-opacity="0.0" d="m615.61383 259.8651l0 0c0 -7.1684875 5.8112183 -12.979691 12.979736 -12.979691l51.917297 0l0 0c3.4423828 0 6.7438354 1.3674927 9.17804 3.8016663c2.434143 2.4341583 3.8016357 5.735611 3.8016357 9.178024l0 344.3421c0 7.168518 -5.8112183 12.979736 -12.979675 12.979736l-51.917297 0c-7.168518 0 -12.979736 -5.8112183 -12.979736 -12.979736z" fill-rule="evenodd"/><path stroke="#2563eb" stroke-width="19.78477690288714" stroke-linejoin="round" stroke-linecap="butt" d="m615.61383 259.8651l0 0c0 -7.1684875 5.8112183 -12.979691 12.979736 -12.979691l51.917297 0l0 0c3.4423828 0 6.7438354 1.3674927 9.17804 3.8016663c2.434143 2.4341583 3.8016357 5.735611 3.8016357 9.178024l0 344.3421c0 7.168518 -5.8112183 12.979736 -12.979675 12.979736l-51.917297 0c-7.168518 0 -12.979736 -5.8112183 -12.979736 -12.979736z" fill-rule="evenodd"/><path fill="#000000" fill-opacity="0.0" d="m226.27408 136.43127l0 0c0 -7.1684875 5.811203 -12.979706 12.979706 -12.979706l51.917267 0l0 0c3.4424438 0 6.743866 1.3675079 9.17804 3.801674c2.4341736 2.434166 3.8016663 5.7356033 3.8016663 9.178032l0 591.1579c0 7.168457 -5.8112183 12.979675 -12.979706 12.979675l-51.917267 0c-7.168503 0 -12.979706 -5.8112183 -12.979706 -12.979675z" fill-rule="evenodd"/><path stroke="#2563eb" stroke-width="19.78477690288714" stroke-linejoin="round" stroke-linecap="butt" d="m226.27408 136.43127l0 0c0 -7.1684875 5.811203 -12.979706 12.979706 -12.979706l51.917267 0l0 0c3.4424438 0 6.743866 1.3675079 9.17804 3.801674c2.4341736 2.434166 3.8016663 5.7356033 3.8016663 9.178032l0 591.1579c0 7.168457 -5.8112183 12.979675 -12.979706 12.979675l-51.917267 0c-7.168503 0 -12.979706 -5.8112183 -12.979706 -12.979675z" fill-rule="evenodd"/><path fill="#000000" fill-opacity="0.0" d="m148.41922 259.82617l0 0c0 -7.1684875 5.8112183 -12.979706 12.979706 -12.979706l51.917282 0l0 0c3.4424286 0 6.743866 1.3675079 9.17804 3.8016663c2.4341736 2.4341736 3.8016663 5.735626 3.8016663 9.17804l0 344.3421c0 7.168518 -5.8112183 12.979736 -12.979706 12.979736l-51.917282 0c-7.1684875 0 -12.979706 -5.8112183 -12.979706 -12.979736z" fill-rule="evenodd"/><path stroke="#2563eb" stroke-width="19.78477690288714" stroke-linejoin="round" stroke-linecap="butt" d="m148.41922 259.82617l0 0c0 -7.1684875 5.8112183 -12.979706 12.979706 -12.979706l51.917282 0l0 0c3.4424286 0 6.743866 1.3675079 9.17804 3.8016663c2.4341736 2.4341736 3.8016663 5.735626 3.8016663 9.17804l0 344.3421c0 7.168518 -5.8112183 12.979736 -12.979706 12.979736l-51.917282 0c-7.1684875 0 -12.979706 -5.8112183 -12.979706 -12.979736z" fill-rule="evenodd"/><path fill="#000000" fill-opacity="0.0" d="m304.1453 20.620739l0 0c0 -11.361999 9.210724 -20.572718 20.572723 -20.572718l192.48462 0c5.456238 0 10.689026 2.1674764 14.547119 6.0256095c3.8581543 3.8581333 6.025635 9.090885 6.025635 14.547109l0 82.28841c0 11.3619995 -9.210754 20.572723 -20.572754 20.572723l-192.48462 0c-11.3619995 0 -20.572723 -9.210724 -20.572723 -20.572723z" fill-rule="evenodd"/><path stroke="#2563eb" stroke-width="19.78477690288714" stroke-linejoin="round" stroke-linecap="butt" d="m304.1453 20.620739l0 0c0 -11.361999 9.210724 -20.572718 20.572723 -20.572718l192.48462 0c5.456238 0 10.689026 2.1674764 14.547119 6.0256095c3.8581543 3.8581333 6.025635 9.090885 6.025635 14.547109l0 82.28841c0 11.3619995 -9.210754 20.572723 -20.572754 20.572723l-192.48462 0c-11.3619995 0 -20.572723 -9.210724 -20.572723 -20.572723z" fill-rule="evenodd"/><path fill="#000000" fill-opacity="0.0" d="m304.1344 761.13293l0 0c0 -11.3619995 9.210693 -20.572754 20.572693 -20.572754l192.48468 0c5.4561768 0 10.688965 2.1674805 14.547058 6.025635c3.8581543 3.8581543 6.025635 9.090881 6.025635 14.547119l0 82.28839c0 11.3619995 -9.210693 20.572693 -20.572693 20.572693l-192.48468 0c-11.3619995 0 -20.572693 -9.210693 -20.572693 -20.572693z" fill-rule="evenodd"/><path stroke="#2563eb" stroke-width="19.78477690288714" stroke-linejoin="round" stroke-linecap="butt" d="m304.1344 761.13293l0 0c0 -11.3619995 9.210693 -20.572754 20.572693 -20.572754l192.48468 0c5.4561768 0 10.688965 2.1674805 14.547058 6.025635c3.8581543 3.8581543 6.025635 9.090881 6.025635 14.547119l0 82.28839c0 11.3619995 -9.210693 20.572693 -20.572693 20.572693l-192.48468 0c-11.3619995 0 -20.572693 -9.210693 -20.572693 -20.572693z" fill-rule="evenodd"/></g></svg>