<svg version="1.1" viewBox="0.0 0.0 864.0 864.0" fill="none" stroke="none" stroke-linecap="square" stroke-miterlimit="10" xmlns:xlink="http://www.w3.org/1999/xlink" xmlns="http://www.w3.org/2000/svg"><clipPath id="g3b286219087_0_138.0"><path d="m0 0l864.0 0l0 864.0l-864.0 0l0 -864.0z" clip-rule="nonzero"/></clipPath><g clip-path="url(#g3b286219087_0_138.0)"><path fill="#3c3c3c" d="m647.0055 325.39532l0 0c-2.069397 -3.7272644 -0.72546387 -8.426392 3.00177 -10.495789l26.994263 -14.98761l0 0c1.789856 -0.9937744 3.901245 -1.2358093 5.869568 -0.6728821c1.9683228 0.56295776 3.6323853 1.8847656 4.6261597 3.674652l81.81146 147.35165c2.069458 3.727234 0.7255249 8.426361 -3.00177 10.495789l-26.994202 14.987579c-3.727234 2.0694275 -8.426392 0.7254944 -10.495789 -3.0017395z" fill-rule="evenodd"/><path fill="#3c3c3c" d="m712.71313 490.50735l0 0c-2.9502563 -9.298706 2.1932983 -19.237335 11.488525 -22.198547l67.32001 -21.44635l0 0c4.463745 -1.4219971 9.307434 -1.0119324 13.465576 1.1400757c4.158142 2.1519775 7.290161 5.8695984 8.706909 10.334991l44.96118 141.70795c2.9502563 9.298706 -2.1932983 19.237305 -11.488525 22.198547l-67.32001 21.44629c-9.295227 2.9612427 -19.222168 -2.1763306 -22.172485 -11.475037z" fill-rule="evenodd"/><path fill="#3c3c3c" d="m171.03902 334.65305l0 0c0 -23.255249 18.852097 -42.10733 42.107315 -42.10733l433.11118 0c11.1675415 0 21.877686 4.43631 29.774353 12.332947c7.8966675 7.8966675 12.332947 18.606812 12.332947 29.774384l0 168.4242c0 23.255219 -18.85205 42.10727 -42.1073 42.10727l-433.11118 0l0 0c-23.255219 0 -42.107315 -18.85205 -42.107315 -42.10727z" fill-rule="evenodd"/><path fill="#3c3c3c" d="m171.03902 300.07108l0 0c0 -12.1649475 9.861664 -22.026611 22.026642 -22.026611l473.27252 0c5.841797 0 11.444397 2.3206482 15.575195 6.4514465c4.1307983 4.1307983 6.451416 9.733337 6.451416 15.575165l0 88.10391c0 12.164978 -9.861633 22.026642 -22.026611 22.026642l-473.27252 0l0 0c-12.164978 0 -22.026642 -9.861664 -22.026642 -22.026642z" fill-rule="evenodd"/><path fill="#3c3c3c" d="m282.19473 312.15027l0 0c0 -10.827301 8.777222 -19.604553 19.604523 -19.604553l144.867 0c5.1994324 0 10.185944 2.0654907 13.862488 5.742035c3.6765747 3.6765747 5.742035 8.663055 5.742035 13.862518l0 78.41577c0 10.827301 -8.777252 19.604553 -19.604523 19.604553l-144.867 0c-10.827301 0 -19.604523 -8.777252 -19.604523 -19.604553z" fill-rule="evenodd"/><path fill="#3c3c3c" d="m0.004780315 236.9735l0 0c0 -12.164978 9.861661 -22.026642 22.026638 -22.026642l815.341 0c5.841797 0 11.444397 2.3206635 15.575195 6.4514465c4.1307983 4.1307983 6.451416 9.733368 6.451416 15.575195l0 88.1039c0 12.164978 -9.861633 22.026642 -22.026611 22.026642l-815.341 0c-12.164976 0 -22.026638 -9.861664 -22.026638 -22.026642z" fill-rule="evenodd"/><path fill="#3c3c3c" d="m105.51937 236.9735l0 0c0 -12.164978 9.861656 -22.026642 22.026634 -22.026642l243.23955 0c5.8418274 0 11.444366 2.3206635 15.575165 6.4514465c4.1307983 4.1307983 6.451477 9.733368 6.451477 15.575195l0 88.1039c0 12.164978 -9.861664 22.026642 -22.026642 22.026642l-243.23955 0c-12.164978 0 -22.026634 -9.861664 -22.026634 -22.026642z" fill-rule="evenodd"/><path fill="#3c3c3c" d="m286.0555 432.22827l0 0c0 -12.164978 9.861664 -22.026642 22.026642 -22.026642l136.17236 0c5.8418274 0 11.444366 2.3206482 15.575165 6.4514465c4.1307983 4.1307983 6.4514465 9.733368 6.4514465 15.575195l0 88.10388c0 12.164978 -9.861664 22.026672 -22.026611 22.026672l-136.17236 0c-12.164978 0 -22.026642 -9.861694 -22.026642 -22.026672z" fill-rule="evenodd"/></g></svg>