<svg version="1.1" viewBox="0.0 0.0 864.0 864.0" fill="none" stroke="none" stroke-linecap="square" stroke-miterlimit="10" xmlns:xlink="http://www.w3.org/1999/xlink" xmlns="http://www.w3.org/2000/svg"><clipPath id="g3b7998113dd_0_0.0"><path d="m0 0l864.0 0l0 864.0l-864.0 0l0 -864.0z" clip-rule="nonzero"/></clipPath><g clip-path="url(#g3b7998113dd_0_0.0)"><path fill="#656565" d="m-0.001312336 644.88l0 0c0 -19.621704 15.9065485 -35.52826 35.52827 -35.52826l440.94348 0c9.422668 0 18.459442 3.743164 25.122284 10.406006c6.662842 6.662842 10.405975 15.699585 10.405975 25.122253l0 142.10883c0 19.621765 -15.906555 35.52826 -35.52826 35.52826l-440.94348 0l0 0c-19.621723 0 -35.52827 -15.906494 -35.52827 -35.52826z" fill-rule="evenodd"/><path fill="#cfcfcf" d="m19.9703 624.90845l0 0c0 -19.621704 15.906549 -35.52826 35.528267 -35.52826l440.94345 0c9.422699 0 18.459473 3.743164 25.122314 10.406006c6.662842 6.662842 10.405945 15.699585 10.405945 25.122253l0 142.10883c0 19.621704 -15.906494 35.52826 -35.52826 35.52826l-440.94345 0l0 0c-19.62172 0 -35.528267 -15.906555 -35.528267 -35.52826z" fill-rule="evenodd"/><path fill="#000000" d="m279.56796 699.90924l2.015625 0.265625q-0.328125 2.078125 -1.6875 3.25q-1.359375 1.171875 -3.34375 1.171875q-2.484375 0 -4.0 -1.609375q-1.5 -1.625 -1.5 -4.65625q0 -1.953125 0.640625 -3.421875q0.65625 -1.46875 1.984375 -2.203125q1.328125 -0.734375 2.890625 -0.734375q1.96875 0 3.21875 1.0q1.25 1.0 1.59375 2.828125l-1.984375 0.3125q-0.28125 -1.21875 -1.015625 -1.828125q-0.71875 -0.625 -1.734375 -0.625q-1.546875 0 -2.515625 1.109375q-0.96875 1.109375 -0.96875 3.515625q0 2.421875 0.921875 3.53125q0.9375 1.109375 2.4375 1.109375q1.21875 0 2.015625 -0.734375q0.8125 -0.75 1.03125 -2.28125z" fill-rule="nonzero"/><path fill="#3c3c3c" d="m91.72934 643.06146l0 0c0 -6.4420166 5.222275 -11.664307 11.664276 -11.664307l46.6557 0l0 0c3.0935516 0 6.0604095 1.2289429 8.247879 3.4163818c2.1874847 2.1875 3.416397 5.154358 3.416397 8.247925l0 46.6557c0 6.4419556 -5.222275 11.664246 -11.664276 11.664246l-46.6557 0c-6.4420013 0 -11.664276 -5.22229 -11.664276 -11.664246z" fill-rule="evenodd"/><path fill="#3c3c3c" d="m77.581985 727.35004l0 0c0 -8.309082 6.73584 -15.044922 15.044922 -15.044922l68.209366 0c3.990158 0 7.8168945 1.585083 10.638367 4.406555c2.8214722 2.8214722 4.406555 6.6481934 4.406555 10.638367l0 60.177917c0 8.309082 -6.73584 15.044922 -15.044922 15.044922l-68.209366 0c-8.309082 0 -15.044922 -6.73584 -15.044922 -15.044922z" fill-rule="evenodd"/><path fill="#3c3c3c" d="m235.21883 684.3727l0 0c0 -3.6124268 2.928421 -6.5408325 6.540802 -6.5408325l247.95775 0c1.7347412 0 3.398407 0.6890869 4.625061 1.9157715c1.2266235 1.2266235 1.915741 2.8903198 1.915741 4.625061l0 26.162415c0 3.6124268 -2.9284058 6.5408325 -6.540802 6.5408325l-247.95775 0c-3.612381 0 -6.540802 -2.9284058 -6.540802 -6.5408325z" fill-rule="evenodd"/><path fill="#3c3c3c" d="m501.3866 711.3552l0 0c-2.4966736 4.79126 -8.404663 6.651306 -13.195862 4.154663l-34.69995 -18.08197l0 0c-2.3008118 -1.1989746 -4.031128 -3.2628174 -4.810272 -5.737488c-0.7791443 -2.4747314 -0.54330444 -5.157593 0.65563965 -7.458435l28.76413 -55.19934c2.4966736 -4.79126 8.404663 -6.651306 13.195892 -4.154663l34.69992 18.08197c4.7911987 2.496704 6.651306 8.404663 4.154663 13.195923z" fill-rule="evenodd"/><path fill="#ffe7bc" d="m564.84735 659.4145l0 0c-5.2425537 10.060608 -17.648132 13.96637 -27.70868 8.723877l-72.862946 -37.968506l0 0c-4.8312683 -2.517517 -8.464539 -6.8511963 -10.100586 -12.047546c-1.6360474 -5.196411 -1.1408386 -10.829895 1.376709 -15.661133l59.205658 -113.61777c5.2424927 -10.060577 17.648132 -13.96637 27.70868 -8.723846l72.862915 37.968506c10.060608 5.2424927 13.96637 17.648071 8.723877 27.70868z" fill-rule="evenodd"/><path fill="#fdf0d9" d="m560.0542 668.61273l0 0c-2.595337 4.98053 -8.736816 6.9141235 -13.717346 4.3187866l-36.071198 -18.796509l0 0c-2.3917542 -1.2463379 -4.1904297 -3.3917236 -5.000366 -5.9642334c-0.8099365 -2.5725098 -0.5647888 -5.361389 0.6815491 -7.753113l68.79193 -132.01419c2.595337 -4.9805603 8.736816 -6.914154 13.717346 -4.318817l36.071228 18.796509c4.98053 2.595337 6.9141235 8.736816 4.3187866 13.717346z" fill-rule="evenodd"/><path fill="#fc8076" d="m793.0104 221.56148l0 0c-5.2425537 10.060562 -17.648132 13.96637 -27.70874 8.723862l-72.862915 -37.968506l0 0c-4.831238 -2.5175323 -8.464539 -6.851181 -10.100586 -12.047562c-1.6360474 -5.196396 -1.1408081 -10.8298645 1.376709 -15.661118l52.120544 -100.0212c5.2425537 -10.06057 17.648132 -13.966377 27.70868 -8.7238655l72.862976 37.968502c10.060547 5.2425156 13.96637 17.648117 8.723816 27.708687z" fill-rule="evenodd"/><path fill="#656565" d="m791.0243 225.35858l0 0c-4.1488647 7.9618225 -13.966492 11.052826 -21.928284 6.903961l-80.46326 -41.92897c-3.8233643 -1.9923553 -6.6987305 -5.421936 -7.993469 -9.534302c-1.2947388 -4.1123505 -0.90283203 -8.570602 1.0895386 -12.394012l30.04779 -57.662804c4.1488647 -7.961815 13.966492 -11.052818 21.928345 -6.903961l80.463196 41.928978l0 0c7.961792 4.1488495 11.052795 13.966492 6.9039307 21.928299z" fill-rule="evenodd"/><path fill="#9f9f9f" d="m772.0081 224.96564l0 0c-1.9949951 3.828476 -6.7158813 5.314804 -10.544312 3.319809l-27.727478 -14.448624l0 0c-1.83844 -0.95803833 -3.2210693 -2.6071625 -3.843689 -4.58461c-0.6225586 -1.9774475 -0.43414307 -4.121216 0.5239258 -5.959717l37.847595 -72.63095c1.9949951 -3.828476 6.7158813 -5.314804 10.544373 -3.319809l27.727417 14.448624c3.8284302 1.9949951 5.3147583 6.715851 3.3197632 10.544327z" fill-rule="evenodd"/><path fill="#fcb630" d="m608.7384 575.1743l0 0c-5.2425537 10.060547 -17.648132 13.96637 -27.70868 8.723877l-72.862946 -37.968506l0 0c-4.8312683 -2.5175781 -8.464569 -6.8511963 -10.100586 -12.047607c-1.6360474 -5.19635 -1.1408386 -10.829834 1.376709 -15.661072l169.89676 -326.03802c5.2424927 -10.060562 17.648071 -13.96637 27.70868 -8.723862l72.862915 37.968506c10.060547 5.242508 13.96637 17.648117 8.723877 27.70868z" fill-rule="evenodd"/><path fill="#e09300" d="m529.5513 549.3521l0 0c-1.7474976 3.3535156 -5.8826904 4.6554565 -9.236267 2.907959l-24.287628 -12.656189l0 0c-1.6104126 -0.83917236 -2.8215027 -2.2836914 -3.3668518 -4.015869c-0.5453491 -1.7321167 -0.38027954 -3.6099243 0.45889282 -5.220337l182.55331 -350.32635c1.7474976 -3.353531 5.8826904 -4.6554565 9.236206 -2.907959l24.287659 12.656174c3.3535156 1.7474976 4.6554565 5.8827057 2.907959 9.236221z" fill-rule="evenodd"/><path fill="#fcb630" d="m565.9821 568.33606l0 0c-1.7474976 3.3535156 -5.8826904 4.6554565 -9.236206 2.907959l-24.287659 -12.656189l0 0c-1.6104126 -0.83917236 -2.8215332 -2.2837524 -3.3668823 -4.015869c-0.5453491 -1.7321167 -0.38024902 -3.6099243 0.45892334 -5.220337l182.55328 -350.32635c1.7474976 -3.3535156 5.8826904 -4.6554565 9.236206 -2.907959l24.287659 12.656174c3.3535156 1.7475128 4.6554565 5.8827057 2.907959 9.236237z" fill-rule="evenodd"/><path fill="#ffc860" d="m602.4159 587.3215l0 0c-1.7474976 3.3535156 -5.8826904 4.6554565 -9.236267 2.907959l-24.287598 -12.656128l0 0c-1.6104126 -0.8392334 -2.8215332 -2.2837524 -3.3668823 -4.015869c-0.5453491 -1.7321167 -0.38024902 -3.6099854 0.45892334 -5.220398l182.55328 -350.32632c1.7474976 -3.353531 5.8826904 -4.655472 9.236206 -2.907959l24.287659 12.656174c3.3535156 1.7474976 4.6554565 5.8826904 2.907959 9.236221z" fill-rule="evenodd"/><path fill="#9f9f9f" d="m795.50635 239.64125l0 0c-1.4448242 2.7726746 -4.8637695 3.8491058 -7.6364746 2.4042816l-118.01099 -61.49495c-1.3314819 -0.6938324 -2.3328247 -1.8881683 -2.7836914 -3.320282c-0.45092773 -1.4321136 -0.31445312 -2.9846954 0.37939453 -4.3161774l10.46405 -20.080887c1.4448242 -2.7726746 4.8637695 -3.8491058 7.6364746 -2.4042816l118.01099 61.49495l0 0c2.772705 1.4448395 3.849121 4.8638 2.4042969 7.6364746z" fill-rule="evenodd"/><path fill="#cfcfcf" d="m777.79596 230.41246l0 0c-1.4448242 2.7726746 -4.8637695 3.8491058 -7.6364746 2.4042816l-38.697693 -20.165192c-1.3314819 -0.6938324 -2.3328247 -1.8881683 -2.7836914 -3.320282c-0.45092773 -1.4321136 -0.31445312 -2.9846954 0.37939453 -4.3161774l10.46405 -20.080887c1.4448242 -2.7726746 4.8637695 -3.8491058 7.6364746 -2.4042816l38.697693 20.165192c2.772705 1.4448242 3.849121 4.863785 2.4042969 7.6364594z" fill-rule="evenodd"/><path fill="#9f9f9f" d="m821.6985 189.39178l0 0c-1.7960205 3.4465942 -6.0459595 4.784668 -9.492554 2.9886627l-115.57056 -60.223236c-1.6550903 -0.86247253 -2.8998413 -2.347107 -3.4603271 -4.127304c-0.5604248 -1.7802048 -0.3908081 -3.7101364 0.4716797 -5.3652496l13.007385 -24.961647c1.7960205 -3.4465942 6.0459595 -4.7846603 9.492554 -2.988655l115.57056 60.223236c3.4465942 1.7960052 4.784668 6.0459595 2.9886475 9.492538z" fill-rule="evenodd"/><path fill="#cfcfcf" d="m803.9881 180.163l0 0c-1.7960205 3.446579 -6.0459595 4.7846527 -9.492554 2.9886475l-36.257263 -18.893478c-1.6550903 -0.8624573 -2.8998413 -2.3470917 -3.460266 -4.127304c-0.56048584 -1.7801971 -0.39086914 -3.7101288 0.47161865 -5.3652344l13.007385 -24.961655c1.7960205 -3.4465866 6.0459595 -4.7846527 9.492554 -2.988655l36.257263 18.89347l0 0c3.4465942 1.7960052 4.784668 6.0459595 2.9886475 9.492554z" fill-rule="evenodd"/><path fill="#ffaaa7" d="m824.35547 133.22952l0 0c-1.3428345 2.5769196 -4.5203857 3.5773468 -7.09729 2.2345276l-42.718628 -22.260445c-1.2374878 -0.64484406 -2.1680908 -1.7548599 -2.5871582 -3.0858688c-0.41906738 -1.3310013 -0.29223633 -2.773964 0.35266113 -4.011444l9.72522 -18.663132c1.3428345 -2.5769196 4.5203857 -3.5773544 7.097351 -2.2345352l42.718567 22.260445c2.5769043 1.3428192 3.5773926 4.5203934 2.234558 7.097313z" fill-rule="evenodd"/></g></svg>