<svg version="1.1" viewBox="0.0 0.0 864.0 864.0" fill="none" stroke="none" stroke-linecap="square" stroke-miterlimit="10" xmlns:xlink="http://www.w3.org/1999/xlink" xmlns="http://www.w3.org/2000/svg"><clipPath id="g3b60f47b366_0_0.0"><path d="m0 0l864.0 0l0 864.0l-864.0 0l0 -864.0z" clip-rule="nonzero"/></clipPath><g clip-path="url(#g3b60f47b366_0_0.0)"><path fill="#9a4600" d="m-0.0010963255 461.24146l0 0c0 -15.8463745 12.846029 -28.692413 28.69241 -28.692413l807.35864 0c7.60968 0 14.907715 3.0229492 20.288574 8.403839c5.3808594 5.3808594 8.403809 12.678894 8.403809 20.288574l0 114.766174c0 15.8463745 -12.846008 28.692444 -28.692383 28.692444l-807.35864 0l0 0c-15.84638 0 -28.69241 -12.846069 -28.69241 -28.692444z" fill-rule="evenodd"/><path fill="#c16a22" d="m-0.0010963255 238.95137l0 0c0 -33.550873 27.198353 -60.74922 60.74922 -60.74922l743.245 0c16.111694 0 31.563477 6.400345 42.956177 17.79303c11.3927 11.3927 17.79303 26.844498 17.79303 42.956192l0 242.98961c0 33.550842 -27.198364 60.749207 -60.749207 60.749207l-743.245 0c-33.550873 0 -60.74922 -27.198364 -60.74922 -60.749207z" fill-rule="evenodd"/><path fill="#592901" d="m73.44457 330.26913l0 0c0 -7.537323 6.110214 -13.6475525 13.6475525 -13.6475525l209.97214 0c3.6195374 0 7.090851 1.4378662 9.650269 3.997284c2.5593872 2.5594177 3.9972534 6.030731 3.9972534 9.650269l0 54.588562c0 7.537323 -6.110199 13.6475525 -13.647522 13.6475525l-209.97214 0c-7.5373383 0 -13.6475525 -6.1102295 -13.6475525 -13.6475525z" fill-rule="evenodd"/><path fill="#592901" d="m272.86978 462.767l0 0c0 -5.06485 4.1058655 -9.170715 9.170715 -9.170715l119.29797 0c2.4322205 0 4.7648315 0.9661865 6.48468 2.6860352c1.7198486 1.7198486 2.6860352 4.0524597 2.6860352 6.48468l0 36.681763c0 5.06485 -4.1058655 9.170715 -9.170715 9.170715l-119.29797 0l0 0c-5.06485 0 -9.170715 -4.1058655 -9.170715 -9.170715z" fill-rule="evenodd"/><path fill="#ffffff" d="m515.9364 499.19165l0 0c0 -12.669617 10.270752 -22.940338 22.940369 -22.940338l91.75873 0l0 0c6.0841675 0 11.919128 2.4169006 16.221252 6.719055c4.302185 4.3021545 6.719055 10.1371155 6.719055 16.221283l0 291.66547c0 12.669617 -10.270691 22.940369 -22.940308 22.940369l-91.75873 0c-12.669617 0 -22.940369 -10.270752 -22.940369 -22.940369z" fill-rule="evenodd"/><path fill="#ffffff" d="m610.9586 421.44562l0 0c0 -12.669617 10.270752 -22.940369 22.940369 -22.940369l91.75867 0l0 0c6.0841675 0 11.919128 2.4169312 16.221313 6.7190857c4.302124 4.302124 6.719055 10.1371155 6.719055 16.221283l0 291.66547c0 12.669617 -10.270752 22.940369 -22.940369 22.940369l-91.75867 0c-12.669617 0 -22.940369 -10.270752 -22.940369 -22.940369z" fill-rule="evenodd"/><path fill="#ffffff" d="m727.1029 397.29193l0 0c0 -23.3013 18.889404 -42.190704 42.190735 -42.190704l168.75781 0l0 0c11.189697 0 21.921082 4.4450684 29.833374 12.357361c7.9122925 7.9122925 12.357361 18.643677 12.357361 29.833344l0 253.16473c0 23.30133 -18.889404 42.190735 -42.190735 42.190735l-168.75781 0c-23.30133 0 -42.190735 -18.889404 -42.190735 -42.190735z" fill-rule="evenodd"/><path fill="#9a4600" d="m610.9247 476.2513l-72.71326 0l0 0c-5.907715 0 -11.573425 2.3468018 -15.750793 6.5242004c-4.177368 4.177368 -6.524231 9.843109 -6.524231 15.750793l0 39.74817l94.98828 0z" fill-rule="evenodd"/><path fill="#9a4600" d="m727.1029 398.50525l-93.87604 0l0 0c-5.907715 0 -11.573425 2.3468323 -15.7508545 6.5242004c-4.177368 4.177368 -6.52417 9.843109 -6.52417 15.750793l0 39.7482l116.15106 0z" fill-rule="evenodd"/><path fill="#9a4600" d="m864.7423 355.10123l-106.62781 0l0 0c-8.2247925 0 -16.112732 3.267273 -21.928528 9.083069c-5.815796 5.815796 -9.083069 13.703735 -9.083069 21.928528l0 31.011597l137.6394 0z" fill-rule="evenodd"/><path fill="#592901" d="m396.7127 248.39233l0 0c0 -8.826035 7.1548767 -15.9809265 15.9809265 -15.9809265l278.2355 0c4.2384033 0 8.303223 1.6837006 11.300232 4.6806946c2.9970093 2.9970093 4.680725 7.0618134 4.680725 11.300232l0 63.921783c0 8.826019 -7.154907 15.9809265 -15.980957 15.9809265l-278.2355 0c-8.82605 0 -15.9809265 -7.154907 -15.9809265 -15.9809265z" fill-rule="evenodd"/><path fill="#9a4600" d="m576.36566 598.0595l0 0c0 -5.1921997 4.2091064 -9.401306 9.401306 -9.401306l101.66235 0c2.4933472 0 4.8846436 0.9904785 6.647705 2.75354c1.7631226 1.7631226 2.753601 4.154358 2.753601 6.647766l0 37.604248c0 5.1921997 -4.2091064 9.401367 -9.401306 9.401367l-101.66235 0l0 0c-5.1921997 0 -9.401306 -4.2091675 -9.401306 -9.401367z" fill-rule="evenodd"/><path fill="#c16a22" d="m576.36566 593.8947l0 0c0 -2.8920898 2.3444214 -5.236511 5.236511 -5.236511l109.99194 0c1.388794 0 2.7207642 0.5516968 3.7027588 1.5336914c0.98205566 0.98205566 1.5337524 2.3140259 1.5337524 3.7028198l0 20.945496c0 2.8920898 -2.3444824 5.236511 -5.236511 5.236511l-109.99194 0c-2.8920898 0 -5.236511 -2.3444214 -5.236511 -5.236511z" fill-rule="evenodd"/><path fill="#9a4600" d="m804.5098 545.17285l0 0c0 -2.5249634 2.046814 -4.5717773 4.5717773 -4.5717773l18.286621 0l0 0c1.2125244 0 2.3753662 0.48162842 3.232727 1.3389893c0.8574219 0.8574219 1.3390503 2.0202637 1.3390503 3.232788l0 47.263306c0 2.5249634 -2.046875 4.5718384 -4.5717773 4.5718384l-18.286621 0c-2.5249634 0 -4.5717773 -2.046875 -4.5717773 -4.5718384z" fill-rule="evenodd"/><path fill="#c16a22" d="m804.5098 545.17285l0 0c0 -2.5249634 2.046814 -4.5717773 4.5717773 -4.5717773l18.286621 0l0 0c1.2125244 0 2.3753662 0.48162842 3.232727 1.3389893c0.8574219 0.8574219 1.3390503 2.0202637 1.3390503 3.232788l0 22.274963c0 2.5249634 -2.046875 4.5718384 -4.5717773 4.5718384l-18.286621 0c-2.5249634 0 -4.5717773 -2.046875 -4.5717773 -4.5718384z" fill-rule="evenodd"/></g></svg>