<svg version="1.1" viewBox="0.0 0.0 864.0 864.0" fill="none" stroke="none" stroke-linecap="square" stroke-miterlimit="10" xmlns:xlink="http://www.w3.org/1999/xlink" xmlns="http://www.w3.org/2000/svg"><clipPath id="g3b29b7a8fcc_0_46.0"><path d="m0 0l864.0 0l0 864.0l-864.0 0l0 -864.0z" clip-rule="nonzero"/></clipPath><g clip-path="url(#g3b29b7a8fcc_0_46.0)"><path fill="#e09300" d="m665.0297 246.83267l0 0c0 -6.5949707 5.3462524 -11.941254 11.941284 -11.941254l47.76355 0l0 0c3.1670532 0 6.2043457 1.2580872 8.443787 3.4975128c2.23938 2.2394257 3.4974976 5.2767334 3.4974976 8.443741l0 226.26083c0 6.5949707 -5.3462524 11.941254 -11.941284 11.941254l-47.76355 0c-6.5950317 0 -11.941284 -5.346283 -11.941284 -11.941254z" fill-rule="evenodd"/><path fill="#e09300" d="m792.34985 246.83267l0 0c0 -6.5949707 5.3462524 -11.941254 11.941284 -11.941254l47.76355 0l0 0c3.1670532 0 6.2043457 1.2580872 8.443787 3.4975128c2.23938 2.2394257 3.4974976 5.2767334 3.4974976 8.443741l0 226.26083c0 6.5949707 -5.3462524 11.941254 -11.941284 11.941254l-47.76355 0c-6.5950317 0 -11.941284 -5.346283 -11.941284 -11.941254z" fill-rule="evenodd"/><path fill="#e09300" d="m40.961327 318.84708l0 0c0 -34.27112 27.782227 -62.053345 62.053345 -62.053345l248.20593 0l0 0c16.45755 0 32.24106 6.5377502 43.878326 18.175018c11.637268 11.637238 18.174988 27.420776 18.174988 43.878326l0 248.20596c0 34.271057 -27.782227 62.053345 -62.053314 62.053345l-248.20593 0c-34.27112 0 -62.053345 -27.782288 -62.053345 -62.053345z" fill-rule="evenodd"/><path fill="#fcb630" d="m0.0053257216 318.84708l0 0c0 -34.27112 27.782228 -62.053345 62.053345 -62.053345l248.20592 0l0 0c16.45758 0 32.24109 6.5377502 43.878357 18.175018c11.637238 11.637238 18.174988 27.420776 18.174988 43.878326l0 248.20596c0 34.271057 -27.782227 62.053345 -62.053345 62.053345l-248.20592 0c-34.27112 0 -62.053345 -27.782288 -62.053345 -62.053345z" fill-rule="evenodd"/><path fill="#fcb630" d="m161.24046 414.89386l0 0c0 -7.7477417 6.280777 -14.028534 14.028519 -14.028534l633.7425 0c3.720581 0 7.2887573 1.4780273 9.919617 4.108856c2.6308594 2.6308594 4.1088867 6.199066 4.1088867 9.919678l0 56.112366c0 7.7477417 -6.2807617 14.028534 -14.028503 14.028534l-633.7425 0c-7.7477417 0 -14.028519 -6.280792 -14.028519 -14.028534z" fill-rule="evenodd"/><path fill="#fcb630" d="m751.39386 246.83267l0 0c0 -6.5949707 5.3462524 -11.941254 11.941223 -11.941254l47.76361 0l0 0c3.1670532 0 6.2043457 1.2580872 8.443787 3.4975128c2.23938 2.2394257 3.4974976 5.2767334 3.4974976 8.443741l0 226.26083c0 6.5949707 -5.3463135 11.941254 -11.941284 11.941254l-47.76361 0c-6.5949707 0 -11.941223 -5.346283 -11.941223 -11.941254z" fill-rule="evenodd"/><path fill="#fcb630" d="m624.0737 246.83267l0 0c0 -6.5949707 5.3462524 -11.941254 11.941223 -11.941254l47.76361 0l0 0c3.1670532 0 6.2043457 1.2580872 8.443787 3.4975128c2.23938 2.2394257 3.4974976 5.2767334 3.4974976 8.443741l0 226.26083c0 6.5949707 -5.3463135 11.941254 -11.941284 11.941254l-47.76361 0c-6.5949707 0 -11.941223 -5.346283 -11.941223 -11.941254z" fill-rule="evenodd"/><path fill="#e09300" d="m71.67833 335.29288l0 0c0 -3.7699585 3.05616 -6.8261414 6.8261337 -6.8261414l27.303726 0l0 0c1.8104019 0 3.5466614 0.71917725 4.826805 1.9993286c1.2801514 1.2801514 1.9993286 3.0164185 1.9993286 4.8268127l0 215.31436c0 3.7699585 -3.05616 6.826111 -6.8261337 6.826111l-27.303726 0c-3.7699738 0 -6.8261337 -3.0561523 -6.8261337 -6.826111z" fill-rule="evenodd"/></g></svg>