<svg version="1.1" viewBox="0.0 0.0 864.0 864.0" fill="none" stroke="none" stroke-linecap="square" stroke-miterlimit="10" xmlns:xlink="http://www.w3.org/1999/xlink" xmlns="http://www.w3.org/2000/svg"><clipPath id="g3b77170c992_0_30.0"><path d="m0 0l864.0 0l0 864.0l-864.0 0l0 -864.0z" clip-rule="nonzero"/></clipPath><g clip-path="url(#g3b77170c992_0_30.0)"><path fill="#9f9f9f" d="m219.51596 70.802826l0 0c0 -39.1045 31.70047 -70.80497 70.80496 -70.80497l283.21136 0l0 0c18.778687 0 36.788208 7.459788 50.06671 20.738295c13.278503 13.278509 20.738281 31.28803 20.738281 50.066673l0 284.32892c0 39.104492 -31.70044 70.80496 -70.80499 70.80496l-283.21136 0l0 0c-39.104492 0 -70.80496 -31.70047 -70.80496 -70.80496z" fill-rule="evenodd"/><path fill="#cfcfcf" d="m219.52261 32.992283l0 0c0 -18.222317 14.77211 -32.994423 32.99443 -32.994423l358.83246 0c8.750671 0 17.142944 3.4761882 23.330627 9.663843c6.187622 6.1876545 9.663818 14.579916 9.663818 23.33058l0 131.97374c0 18.22232 -14.772095 32.99443 -32.994446 32.99443l-358.83246 0c-18.22232 0 -32.99443 -14.77211 -32.99443 -32.99443z" fill-rule="evenodd"/><path fill="#3c3c3c" d="m152.13808 397.56805l0 0c0 -51.522156 41.766937 -93.28909 93.28906 -93.28909l373.14514 0l0 0c24.74176 0 48.470215 9.828644 65.96533 27.323761c17.495056 17.495087 27.32373 41.22351 27.32373 65.96533l0 373.14508c0 51.522156 -41.766968 93.28906 -93.28906 93.28906l-373.14514 0c-51.522125 0 -93.28906 -41.766907 -93.28906 -93.28906z" fill-rule="evenodd"/><path fill="#656565" d="m152.13808 328.24948l0 0c0 -51.522156 41.766937 -93.28908 93.28906 -93.28908l373.14514 0l0 0c24.74176 0 48.470215 9.828644 65.96533 27.323746c17.495056 17.495087 27.32373 41.22351 27.32373 65.96533l0 373.1451c0 51.522095 -41.766968 93.28906 -93.28906 93.28906l-373.14514 0c-51.522125 0 -93.28906 -41.766968 -93.28906 -93.28906z" fill-rule="evenodd"/><path fill="#3c3c3c" d="m196.76831 358.0321l0 0c0 -43.322083 35.11949 -78.44159 78.44159 -78.44159l313.7569 0l0 0c20.804016 0 40.75592 8.264374 55.466553 22.975006c14.710693 14.710663 22.975037 34.662598 22.975037 55.466583l0 313.7569c0 43.322083 -35.119507 78.44159 -78.44159 78.44159l-313.7569 0c-43.322098 0 -78.44159 -35.119507 -78.44159 -78.44159z" fill-rule="evenodd"/><path fill="#9f9f9f" d="m241.39853 387.76154l0 0c0 -35.09265 28.448212 -63.540863 63.540894 -63.540863l254.15585 0l0 0c16.852112 0 33.013977 6.694458 44.930176 18.610687c11.91626 11.916229 18.610718 28.078094 18.610718 44.930176l0 254.15588c0 35.09265 -28.448242 63.540833 -63.540894 63.540833l-254.15585 0c-35.09268 0 -63.540894 -28.448181 -63.540894 -63.540833z" fill-rule="evenodd"/><path fill="#9f9f9f" d="m152.13808 376.03955l44.381927 0l0 277.7862l-44.381927 0z" fill-rule="evenodd"/><path fill="#9f9f9f" d="m667.3327 376.03955l44.381897 0l0 277.7862l-44.381897 0z" fill-rule="evenodd"/><path fill="#656565" d="m196.76831 396.29532l44.381927 0l0 237.23581l-44.381927 0z" fill-rule="evenodd"/><path fill="#656565" d="m622.70245 396.29532l44.381958 0l0 237.23581l-44.381958 0z" fill-rule="evenodd"/><path fill="#cfcfcf" d="m283.73022 388.79153l0 0c0 -15.591827 12.639679 -28.231506 28.231506 -28.231506l240.00189 0c7.487488 0 14.668274 2.9743652 19.962708 8.268799c5.2944336 5.294464 8.268799 12.47525 8.268799 19.962708l0 112.9227c0 15.591858 -12.639648 28.231506 -28.231506 28.231506l-240.00189 0c-15.591827 0 -28.231506 -12.639648 -28.231506 -28.231506z" fill-rule="evenodd"/><path fill="#656565" d="m367.7551 427.98593l0 0c0 -11.815094 9.578033 -21.393158 21.393158 -21.393158l85.57007 0l0 0c5.6737976 0 11.115234 2.2539368 15.127228 6.26593c4.0119934 4.0119934 6.26593 9.45343 6.26593 15.127228l0 96.42612c0 11.815063 -9.578064 21.393127 -21.393158 21.393127l-85.57007 0l0 0c-11.8151245 0 -21.393158 -9.578064 -21.393158 -21.393127z" fill-rule="evenodd"/><path fill="#656565" d="m396.8012 500.33255l0 0c0 -6.465973 5.2417297 -11.707703 11.707703 -11.707703l46.829407 0l0 0c3.105072 0 6.0829773 1.23349 8.278595 3.4291077c2.1956177 2.1956177 3.4291077 5.173523 3.4291077 8.278595l0 104.94101c0 6.4659424 -5.2417297 11.707703 -11.707703 11.707703l-46.829407 0c-6.465973 0 -11.707703 -5.2417603 -11.707703 -11.707703z" fill-rule="evenodd"/><path fill="#3c3c3c" d="m367.7551 418.14084l0 0c0 -6.3778076 5.170227 -11.548065 11.548035 -11.548065l105.260284 0c3.0627441 0 6.0000305 1.2166748 8.16571 3.3823547c2.16568 2.16568 3.3823547 5.1029663 3.3823547 8.16571l0 46.190796c0 6.3778076 -5.1702576 11.548065 -11.548065 11.548065l-105.260284 0c-6.3778076 0 -11.548035 -5.1702576 -11.548035 -11.548065z" fill-rule="evenodd"/><path fill="#656565" d="m283.86044 75.883965l0 0c0 -6.3778152 5.1702576 -11.54805 11.548065 -11.54805l273.36884 0c3.0627441 0 6.0 1.2166672 8.16571 3.382347c2.1656494 2.16568 3.3823242 5.1029663 3.3823242 8.165703l0 46.190804c0 6.3778076 -5.170227 11.54805 -11.548035 11.54805l-273.36884 0c-6.3778076 0 -11.548065 -5.1702423 -11.548065 -11.54805z" fill-rule="evenodd"/></g></svg>