<svg version="1.1" viewBox="0.0 0.0 864.0 864.0" fill="none" stroke="none" stroke-linecap="square" stroke-miterlimit="10" xmlns:xlink="http://www.w3.org/1999/xlink" xmlns="http://www.w3.org/2000/svg"><clipPath id="g3b4c178a3f4_0_0.0"><path d="m0 0l864.0 0l0 864.0l-864.0 0l0 -864.0z" clip-rule="nonzero"/></clipPath><g clip-path="url(#g3b4c178a3f4_0_0.0)"><path fill="#3c3c3c" d="m362.83475 118.47753l0 0c-0.5580139 -6.620697 4.3563538 -12.44487 10.9765625 -13.008667l47.94635 -4.0832214l0 0c3.1791077 -0.27074432 6.334503 0.73259735 8.771973 2.7893066c2.4374695 2.056717 3.957367 4.998314 4.225342 8.177681l7.766449 92.14488c0.5580139 6.620697 -4.3563538 12.44487 -10.9765625 13.008667l-47.94635 4.0832214c-6.6202087 0.563797 -12.439301 -4.346283 -12.997314 -10.96698z" fill-rule="evenodd"/><path fill="#656565" d="m83.929794 314.95264l0 0c-5.1438828 -60.645508 39.849075 -113.97835 100.49458 -119.12222l439.22046 -37.25418l0 0c29.122986 -2.4701843 58.034485 6.7298737 80.37421 25.576263c22.339783 18.84639 36.277832 45.79532 38.748047 74.918304l37.25415 439.22046c5.14386 60.645508 -39.84906 113.97833 -100.49457 119.12225l-439.22046 37.25415c-60.645508 5.143921 -113.97834 -39.84906 -119.12222 -100.49457z" fill-rule="evenodd"/><path fill="#3c3c3c" d="m100.44736 509.3517l0 0c-3.3246384 -39.174896 25.737862 -73.62607 64.9129 -76.94885l516.9719 -43.84897c18.8125 -1.5956421 37.48877 4.3472595 51.920166 16.521362c14.431335 12.174133 23.43573 29.582184 25.032288 48.394623l24.07843 283.7211c3.324646 39.174866 -25.737854 73.62604 -64.9129 76.94879l-516.9719 43.849c-39.175034 3.322754 -73.62783 -25.741089 -76.95246 -64.915955z" fill-rule="evenodd"/><path fill="#9f9f9f" d="m220.04248 315.89975l0 0c-3.748413 -44.150757 29.003708 -82.985825 73.15393 -86.74057l319.75452 -27.193436l0 0c21.20166 -1.8031006 42.25006 4.890091 58.51471 18.607147c16.26471 13.717056 26.41333 33.33435 28.213379 54.53627l35.172424 414.2781c3.748413 44.150757 -29.003662 82.98584 -73.15393 86.74054l-319.7545 27.193481c-44.150208 3.7547607 -82.979706 -28.992676 -86.728134 -73.14343z" fill-rule="evenodd"/><path fill="#ffffff" d="m266.11737 340.7392l0 0c-3.0705566 -36.117493 23.71939 -67.88431 59.837006 -70.95322l261.57907 -22.226212l0 0c17.3443 -1.4737396 34.563965 4.0028534 47.87085 15.224991c13.306946 11.222137 21.611023 27.270538 23.085571 44.614746l30.365723 357.17856c3.0705566 36.11743 -23.71936 67.88428 -59.836975 70.953186l-261.5791 22.226196c-36.117615 3.0689087 -67.885895 -23.722229 -70.95642 -59.83972z" fill-rule="evenodd"/><path fill="#3c3c3c" d="m257.88153 42.07889l0 0c-0.9009094 -10.688814 7.0331726 -20.09086 17.721283 -21.000057l228.5174 -19.439098c5.1326294 -0.43661165 10.226898 1.1837155 14.162079 4.504528c3.9352417 3.3208127 6.389099 8.070087 6.8217163 13.203037l6.524719 77.41292c0.90093994 10.688812 -7.033203 20.090858 -17.721313 21.000053l-228.51736 19.439095c-10.68811 0.90919495 -20.082886 -7.018738 -20.983795 -17.707558z" fill-rule="evenodd"/><path fill="#656565" d="m316.17572 37.127865l0 0c-0.9009094 -10.688812 7.0333557 -20.08894 17.72168 -20.995768l170.42484 -14.4593525c5.1326904 -0.4354744 10.22702 1.1859435 14.162323 4.5075603c3.9353027 3.3216166 6.38916 8.071342 6.8217773 13.204292l6.5247803 77.41292c0.9008789 10.68882 -7.033386 20.088943 -17.72168 20.995773l-170.42484 14.459351c-10.688293 0.90682983 -20.083221 -7.023041 -20.98413 -17.711853z" fill-rule="evenodd"/><path fill="#656565" d="m636.7427 557.07367l0 0c2.6281738 1.1135864 3.854004 4.146057 2.738037 6.7732544l-8.082214 19.026978l0 0c-0.5359497 1.2615967 -1.5512695 2.2590942 -2.8226318 2.7730713c-1.2713623 0.513916 -2.694641 0.5022583 -3.956726 -0.03253174l-161.4115 -68.3927c-2.6281738 -1.1135864 -3.854065 -4.146057 -2.7380981 -6.773224l8.082275 -19.026978c1.1159363 -2.6271667 4.1511536 -3.8541565 6.7793274 -2.74057z" fill-rule="evenodd"/><path fill="#f73d35" d="m441.42963 289.13562l0 0c-0.38589478 -4.539215 2.9811707 -8.529938 7.5205994 -8.913574l32.87628 -2.7782593l0 0c2.1799011 -0.18423462 4.344116 0.5050354 6.016571 1.9161377c1.6724854 1.4110718 2.716156 3.4284363 2.9014893 5.608246l18.80838 221.23346c0.38589478 4.539215 -2.9811707 8.529938 -7.5205994 8.913544l-32.87628 2.7783203c-4.539398 0.38360596 -8.532166 -2.9851685 -8.91806 -7.524414z" fill-rule="evenodd"/></g></svg>