<svg version="1.1" viewBox="0.0 0.0 864.0 864.0" fill="none" stroke="none" stroke-linecap="square" stroke-miterlimit="10" xmlns:xlink="http://www.w3.org/1999/xlink" xmlns="http://www.w3.org/2000/svg"><clipPath id="g3b77ef49a04_0_369.0"><path d="m0 0l864.0 0l0 864.0l-864.0 0l0 -864.0z" clip-rule="nonzero"/></clipPath><g clip-path="url(#g3b77ef49a04_0_369.0)"><path fill="#e09300" d="m193.69562 90.84093l0 0c0 -50.174255 40.67427 -90.848526 90.84851 -90.848526l363.38324 0l0 0c24.094482 0 47.20215 9.571513 64.23956 26.608917c17.037415 17.037403 26.608948 40.14508 26.608948 64.23961l0 682.3179c0 50.174255 -40.674255 90.84851 -90.84851 90.84851l-363.38324 0c-50.17424 0 -90.84851 -40.674255 -90.84851 -90.84851z" fill-rule="evenodd"/><path fill="#fcb630" d="m125.22361 90.84093l0 0c0 -50.174255 40.67428 -90.848526 90.84853 -90.848526l363.38318 0l0 0c24.094543 0 47.20221 9.571513 64.239624 26.608917c17.037415 17.037403 26.608948 40.14508 26.608948 64.23961l0 682.3179c0 50.174255 -40.674316 90.84851 -90.84857 90.84851l-363.38318 0c-50.174255 0 -90.84853 -40.674255 -90.84853 -90.84851z" fill-rule="evenodd"/><path fill="#ffc860" d="m125.22361 57.727493l0 0c0 -31.886211 25.848885 -57.735092 57.7351 -57.735092l230.93344 0l0 0c15.312286 0 29.997437 6.082787 40.82486 16.910217c10.827423 10.827429 16.910217 25.512577 16.910217 40.824875l0 748.54474c0 31.88623 -25.848877 57.735107 -57.735077 57.735107l-230.93344 0c-31.886215 0 -57.7351 -25.848877 -57.7351 -57.735107z" fill-rule="evenodd"/><path fill="#ffe9bf" d="m173.81897 92.7562l0 0c0 -9.960411 8.074509 -18.034912 18.034912 -18.034912l72.13748 0l0 0c4.7831726 0 9.370422 1.9001007 12.7526245 5.282303c3.3822021 3.3822021 5.2822876 7.969452 5.2822876 12.752609l0 140.57892c0 9.960403 -8.074493 18.034912 -18.034912 18.034912l-72.13748 0c-9.960403 0 -18.034912 -8.074509 -18.034912 -18.034912z" fill-rule="evenodd"/><path fill="#ffe9bf" d="m173.81897 312.81937l0 0c0 -9.960419 8.074509 -18.034943 18.034912 -18.034943l72.13748 0l0 0c4.7831726 0 9.370422 1.900116 12.7526245 5.282318c3.3822021 3.3822021 5.2822876 7.969452 5.2822876 12.7526245l0 427.38742c0 9.960388 -8.074493 18.034912 -18.034912 18.034912l-72.13748 0c-9.960403 0 -18.034912 -8.074524 -18.034912 -18.034912z" fill-rule="evenodd"/><path fill="#000000" d="m292.82275 221.8842l0 0c0 -6.441757 5.2220764 -11.663834 11.663849 -11.663834l46.65393 0l0 0c3.0934448 0 6.0601807 1.2288666 8.247589 3.4162598c2.187378 2.1873932 3.4162598 5.154129 3.4162598 8.247574l0 87.60124c0 6.4417725 -5.2220764 11.663849 -11.663849 11.663849l-46.65393 0c-6.4417725 0 -11.663849 -5.2220764 -11.663849 -11.663849z" fill-rule="evenodd"/><path fill="#000000" d="m432.7276 221.8842l0 0c0 -6.441757 5.2220764 -11.663834 11.663818 -11.663834l46.65396 0l0 0c3.0934448 0 6.0601807 1.2288666 8.247559 3.4162598c2.1874084 2.1873932 3.4162598 5.154129 3.4162598 8.247574l0 87.60124c0 6.4417725 -5.2220764 11.663849 -11.663818 11.663849l-46.65396 0c-6.441742 0 -11.663818 -5.2220764 -11.663818 -11.663849z" fill-rule="evenodd"/><path fill="#000000" d="m222.8681 443.6566l0 0c0 -6.4417725 5.2220764 -11.663849 11.663834 -11.663849l46.653946 0l0 0c3.0934448 0 6.0601807 1.2288818 8.247589 3.4162598c2.187378 2.1874084 3.4162598 5.1541443 3.4162598 8.247589l0 198.44467c0 6.4417725 -5.2220764 11.663879 -11.663849 11.663879l-46.653946 0c-6.441757 0 -11.663834 -5.222107 -11.663834 -11.663879z" fill-rule="evenodd"/><path fill="#000000" d="m502.67776 443.6566l0 0c0 -6.4417725 5.2220764 -11.663849 11.663849 -11.663849l46.65393 0l0 0c3.0934448 0 6.0601807 1.2288818 8.247559 3.4162598c2.187439 2.1874084 3.4162598 5.1541443 3.4162598 8.247589l0 198.44467c0 6.4417725 -5.222046 11.663879 -11.663818 11.663879l-46.65393 0c-6.4417725 0 -11.663849 -5.222107 -11.663849 -11.663879z" fill-rule="evenodd"/><path fill="#000000" d="m222.8681 561.339l0 0c0 -10.2109375 8.277588 -18.488525 18.488525 -18.488525l312.82324 0c4.9034424 0 9.606079 1.947876 13.073303 5.415161c3.4672852 3.4672241 5.415161 8.169861 5.415161 13.073364l0 73.95184c0 10.2109375 -8.277588 18.488525 -18.488464 18.488525l-312.82324 0c-10.2109375 0 -18.488525 -8.277588 -18.488525 -18.488525z" fill-rule="evenodd"/></g></svg>