<svg version="1.1" viewBox="0.0 0.0 864.0 864.0" fill="none" stroke="none" stroke-linecap="square" stroke-miterlimit="10" xmlns:xlink="http://www.w3.org/1999/xlink" xmlns="http://www.w3.org/2000/svg"><clipPath id="p.0"><path d="m0 0l864.0 0l0 864.0l-864.0 0l0 -864.0z" clip-rule="nonzero"/></clipPath><g clip-path="url(#p.0)"><path fill="#e7f2ff" d="m56.489437 384.37845l0 0c0 -25.793335 20.909634 -46.702972 46.70297 -46.702972l657.62354 0c12.386414 0 24.265503 4.9205017 33.023987 13.678986c8.758545 8.758514 13.679016 20.637604 13.679016 33.023987l0 186.8063c0 25.793335 -20.909668 46.70294 -46.703003 46.70294l-657.62354 0l0 0c-25.793335 0 -46.70297 -20.909607 -46.70297 -46.70294z" fill-rule="evenodd"/><path fill="#83909f" d="m0.010351444 308.31296l0 0c0 -7.636627 6.190724 -13.827362 13.82737 -13.827362l836.3329 0c3.6672974 0 7.184326 1.4568176 9.777466 4.0499573c2.5931396 2.5931396 4.0499268 6.1101685 4.0499268 9.777405l0 55.30783c0 7.6366577 -6.190735 13.827362 -13.827393 13.827362l-836.3329 0l0 0c-7.6366453 0 -13.82737 -6.1907043 -13.82737 -13.827362z" fill-rule="evenodd"/><path fill="#e7f2ff" d="m288.00623 207.22084l0 0c0 -26.509827 21.490448 -48.000275 48.000275 -48.000275l191.99533 0l0 0c12.730469 0 24.939514 5.0571594 33.941345 14.058945c9.00177 9.001801 14.05896 21.210861 14.05896 33.94133l0 362.66663c0 26.509766 -21.490479 48.000244 -48.000305 48.000244l-191.99533 0c-26.509827 0 -48.000275 -21.490479 -48.000275 -48.000244z" fill-rule="evenodd"/><path fill="#83909f" d="m196.026 138.30617l0 0c0 -7.6366425 6.190735 -13.827362 13.827377 -13.827362l444.30157 0c3.6672363 0 7.184265 1.45681 9.777405 4.049942c2.5931396 2.5931396 4.049988 6.1101837 4.049988 9.77742l0 55.30783c0 7.6366425 -6.190735 13.827362 -13.827393 13.827362l-444.30157 0c-7.6366425 0 -13.827377 -6.1907196 -13.827377 -13.827362z" fill-rule="evenodd"/><path fill="#f73d35" d="m390.71274 256.1054l0 0c0 -7.6017 6.162384 -13.764084 13.764099 -13.764084l55.054688 0l0 0c3.6504517 0 7.1513977 1.4501343 9.732666 4.0314026c2.5812683 2.5812683 4.0314026 6.0822144 4.0314026 9.732681l0 142.57355c0 7.6016846 -6.162384 13.764099 -13.764069 13.764099l-55.054688 0c-7.601715 0 -13.764099 -6.1624146 -13.764099 -13.764099z" fill-rule="evenodd"/><path fill="#f73d35" d="m503.29095 286.10074l0 0c7.6016846 0 13.764099 6.1624146 13.764099 13.764099l0 55.054688l0 0c0 3.6504822 -1.4501343 7.151428 -4.031433 9.732697c-2.5812683 2.5812683 -6.0822144 4.0314026 -9.732666 4.0314026l-142.57355 0c-7.601715 0 -13.764099 -6.162384 -13.764099 -13.764099l0 -55.054688c0 -7.6016846 6.162384 -13.764099 13.764099 -13.764099z" fill-rule="evenodd"/><path fill="#3b4652" d="m332.8098 482.55994l0 0c0 -15.657745 12.693115 -28.35086 28.35086 -28.35086l141.68701 0c7.519104 0 14.730255 2.986969 20.047089 8.3038025c5.3167725 5.316803 8.303772 12.527954 8.303772 20.047058l0 113.400024c0 15.657715 -12.693115 28.35083 -28.35086 28.35083l-141.68701 0c-15.657745 0 -28.35086 -12.693115 -28.35086 -28.35083z" fill-rule="evenodd"/><path fill="#227600" d="m143.08348 523.4953l0 0c0 -11.890503 9.63916 -21.529663 21.529648 -21.529663l189.33194 0c5.710022 0 11.186157 2.2683105 15.223755 6.3058777c4.0375977 4.037628 6.3058777 9.513763 6.3058777 15.223785l0 86.11603c0 11.890503 -9.63916 21.529663 -21.529633 21.529663l-189.33194 0c-11.890488 0 -21.529648 -9.63916 -21.529648 -21.529663z" fill-rule="evenodd"/><path fill="#35ad05" d="m14.849903 562.09814l0 0c0 -12.920715 10.474314 -23.39508 23.395035 -23.39508l158.55362 0c6.2047424 0 12.155365 2.4648438 16.542786 6.852295c4.3874207 4.38739 6.852249 10.338013 6.852249 16.542786l0 93.57733c0 12.920715 -10.474319 23.39502 -23.395035 23.39502l-158.55362 0c-12.920721 0 -23.395035 -10.474304 -23.395035 -23.39502z" fill-rule="evenodd"/><path fill="#3fbe0c" d="m0.0036345574 570.94586l0 0c0 -6.8896484 5.585141 -12.474731 12.474762 -12.474731l129.25255 0c3.3085175 0 6.4815216 1.31427 8.820984 3.6537476c2.3394775 2.3394775 3.653778 5.512451 3.653778 8.820984l0 49.897522c0 6.8896484 -5.585144 12.4747925 -12.474762 12.4747925l-129.25255 0c-6.889621 0 -12.474762 -5.585144 -12.474762 -12.4747925z" fill-rule="evenodd"/><path fill="#51de18" d="m6.9353976 617.6191l0 0c0 -9.629761 7.806438 -17.436157 17.436167 -17.436157l260.94073 0c4.624359 0 9.059296 1.8369751 12.329224 5.1069336c3.2698975 3.2698975 5.1069336 7.704834 5.1069336 12.329224l0 69.74255c0 9.629761 -7.8064575 17.436157 -17.436157 17.436157l-260.94073 0c-9.629729 0 -17.436167 -7.8063965 -17.436167 -17.436157z" fill-rule="evenodd"/><path fill="#227600" d="m791.1313 523.49335l0 0c0 -11.883087 -9.633118 -21.516266 -21.516235 -21.516266l-131.05597 0c-5.706421 0 -11.179199 2.2669067 -15.214294 6.3019714c-4.035034 4.035095 -6.301941 9.5078125 -6.301941 15.214294l0 86.0625c0 11.883118 9.633179 21.516296 21.516235 21.516296l131.05597 0c11.883118 0 21.516235 -9.633179 21.516235 -21.516296z" fill-rule="evenodd"/><path fill="#35ad05" d="m863.99365 608.64014l0 0c0 -12.285034 -9.958984 -22.244019 -22.244019 -22.244019l-139.28253 0c-5.899475 0 -11.557373 2.343567 -15.728943 6.5151367c-4.17157 4.17157 -6.5151367 9.829407 -6.5151367 15.728882l0 88.97345c0 12.285034 9.959045 22.244019 22.24408 22.244019l139.28253 0c12.285034 0 22.244019 -9.958984 22.244019 -22.244019z" fill-rule="evenodd"/><path fill="#3fbe0c" d="m736.84235 571.0346l0 0c0 -18.611023 -15.08728 -33.698242 -33.698303 -33.698242l-153.01428 0c-8.937317 0 -17.508606 3.550354 -23.828247 9.869995c-6.319641 6.319641 -9.869995 14.89093 -9.869995 23.828247l0 134.78912c0 18.611023 15.087219 33.698242 33.698242 33.698242l153.01428 0c18.611023 0 33.698303 -15.087219 33.698303 -33.698242z" fill-rule="evenodd"/></g></svg>