<svg version="1.1" viewBox="0.0 0.0 864.0 864.0" fill="none" stroke="none" stroke-linecap="square" stroke-miterlimit="10" xmlns:xlink="http://www.w3.org/1999/xlink" xmlns="http://www.w3.org/2000/svg"><clipPath id="g3b286219087_0_199.0"><path d="m0 0l864.0 0l0 864.0l-864.0 0l0 -864.0z" clip-rule="nonzero"/></clipPath><g clip-path="url(#g3b286219087_0_199.0)"><path fill="#f73d35" d="m156.10306 144.66768l0 0c0 -19.837341 16.081345 -35.918694 35.9187 -35.918694l502.35037 0c9.526245 0 18.662292 3.7842865 25.398376 10.520348c6.736084 6.736061 10.520325 15.872116 10.520325 25.398346l0 143.67049c0 19.837341 -16.08136 35.9187 -35.9187 35.9187l-502.35037 0l0 0c-19.837357 0 -35.9187 -16.08136 -35.9187 -35.9187z" fill-rule="evenodd"/><path fill="#e03027" d="m522.1557 194.44502l0 0c0 -7.9467773 6.4421387 -14.388916 14.388916 -14.388916l119.94745 0c3.816162 0 7.476074 1.515976 10.1744995 4.2144165c2.6984253 2.6984406 4.2144165 6.358322 4.2144165 10.1744995l0 57.55397c0 7.9467773 -6.4421387 14.388916 -14.388916 14.388916l-119.94745 0c-7.9467773 0 -14.388916 -6.4421387 -14.388916 -14.388916z" fill-rule="evenodd"/><path fill="#e03027" d="m216.25323 171.98074l0 0c0 -3.837204 3.1106567 -6.9478607 6.9478607 -6.9478607l158.8881 0c1.8426819 0 3.6098938 0.7320099 4.9128723 2.0349884c1.3029785 1.3029633 2.0349731 3.0701904 2.0349731 4.9128723l0 27.790588c0 3.8371887 -3.1106567 6.9478455 -6.9478455 6.9478455l-158.8881 0l0 0c-3.837204 0 -6.9478607 -3.1106567 -6.9478607 -6.9478455z" fill-rule="evenodd"/><path fill="#e03027" d="m273.1862 185.12515l0 0c0 -4.4883423 3.6385193 -8.126877 8.126862 -8.126877l32.50656 0l0 0c2.155365 0 4.222473 0.8562317 5.7465515 2.38031c1.5240784 1.5240936 2.38031 3.5911865 2.38031 5.746567l0 70.078064c0 4.4883423 -3.6385193 8.126862 -8.126862 8.126862l-32.50656 0c-4.4883423 0 -8.126862 -3.6385193 -8.126862 -8.126862z" fill-rule="evenodd"/><path fill="#e03027" d="m240.66826 428.88083l0 0c0 -36.05069 29.224869 -65.27554 65.27553 -65.27554l328.74774 0c17.312134 0 33.915222 6.877228 46.15674 19.118774c12.241516 12.241516 19.118774 28.844604 19.118774 46.15677l0 261.09427c0 36.05072 -29.224854 65.27557 -65.27551 65.27557l-328.74774 0c-36.05066 0 -65.27553 -29.224854 -65.27553 -65.27557z" fill-rule="evenodd"/><path fill="#fb5c4e" d="m39.704586 276.02014l0 0c0 -21.14009 17.137436 -38.277527 38.27754 -38.277527l747.7383 0c10.151855 0 19.887878 4.032791 27.066284 11.211227c7.178467 7.178421 11.211243 16.914474 11.211243 27.0663l0 153.10556c0 21.140106 -17.137451 38.277527 -38.277527 38.277527l-747.7383 0c-21.140102 0 -38.27754 -17.13742 -38.27754 -38.277527z" fill-rule="evenodd"/><path fill="#fb5c4e" d="m0.0010813648 465.58704l0 0c0 -25.924744 21.016163 -46.940918 46.940914 -46.940918l247.44022 0c12.449493 0 24.3891 4.9455566 33.19223 13.748657c8.803131 8.803131 13.748688 20.742737 13.748688 33.19226l0 187.758c0 25.924744 -21.016174 46.940918 -46.940918 46.940918l-247.44022 0c-25.92475 0 -46.940914 -21.016174 -46.940914 -46.940918z" fill-rule="evenodd"/><path fill="#f73d35" d="m98.77792 629.9681l0 0c0 -7.757263 6.2885284 -14.045837 14.0458145 -14.045837l214.42328 0c3.7251892 0 7.2977905 1.4798584 9.931885 4.1139526c2.6340942 2.6340942 4.113922 6.206726 4.113922 9.931885l0 56.18158c0 7.757324 -6.288513 14.045837 -14.045807 14.045837l-214.42328 0c-7.757286 0 -14.0458145 -6.288513 -14.0458145 -14.045837z" fill-rule="evenodd"/><path fill="#f73d35" d="m240.66826 508.1309l0 0c0 -9.260925 7.5074615 -16.768402 16.768387 -16.768402l67.07153 0l0 0c4.4472656 0 8.712372 1.7666626 11.857025 4.9113464c3.1446838 3.1446838 4.9113464 7.40979 4.9113464 11.857056l0 175.28067c0 9.260925 -7.5074463 16.768433 -16.768372 16.768433l-67.07153 0c-9.260925 0 -16.768387 -7.5075073 -16.768387 -16.768433z" fill-rule="evenodd"/><path fill="#fc8076" d="m39.704586 427.6526l0 0c0 -4.974121 4.032337 -9.00647 9.006477 -9.00647l112.8293 0c2.3886719 0 4.6795044 0.94888306 6.3685455 2.6379395c1.6890411 1.6890259 2.6379395 3.9798584 2.6379395 6.3685303l0 36.02484c0 4.9741516 -4.0323486 9.00647 -9.006485 9.00647l-112.8293 0c-4.97414 0 -9.006477 -4.032318 -9.006477 -9.00647z" fill-rule="evenodd"/><path fill="#f73d35" d="m450.63885 395.4238l0 0c0 -7.9467773 6.4421387 -14.388916 14.388916 -14.388916l250.78973 0c3.816162 0 7.476074 1.5159607 10.1744995 4.2144165c2.6984253 2.6984558 4.2144165 6.3583374 4.2144165 10.1744995l0 57.553986c0 7.9467773 -6.4421387 14.388916 -14.388916 14.388916l-250.78973 0c-7.9467773 0 -14.388916 -6.4421387 -14.388916 -14.388916z" fill-rule="evenodd"/><path fill="#f73d35" d="m730.2185 304.8456l0 0c0 -4.488373 3.6385498 -8.126892 8.126892 -8.126892l32.50653 0l0 0c2.1553955 0 4.222473 0.8562317 5.746582 2.38031c1.5240479 1.5240784 2.38031 3.5911865 2.38031 5.746582l0 68.01947c0 4.4883423 -3.6385498 8.126862 -8.126892 8.126862l-32.50653 0c-4.4883423 0 -8.126892 -3.6385193 -8.126892 -8.126862z" fill-rule="evenodd"/><path fill="#f73d35" d="m112.27166 310.4337l0 0c0 -3.8372192 3.1106644 -6.947876 6.9478607 -6.947876l183.33258 0c1.8426819 0 3.6099243 0.73202515 4.9128723 2.0350037c1.3029785 1.302948 2.0350037 3.0701904 2.0350037 4.9128723l0 27.790588c0 3.8371887 -3.1106567 6.9478455 -6.947876 6.9478455l-183.33258 0c-3.8371964 0 -6.9478607 -3.1106567 -6.9478607 -6.9478455z" fill-rule="evenodd"/><path fill="#fc8076" d="m273.1862 387.1267l0 0c0 -3.481903 2.8226318 -6.304535 6.304535 -6.304535l118.233185 0c1.6720581 0 3.2756348 0.6642151 4.4579773 1.8465576c1.1823425 1.182312 1.8465576 2.7859192 1.8465576 4.4579773l0 25.217377c0 3.481903 -2.8226318 6.304535 -6.304535 6.304535l-118.233185 0c-3.481903 0 -6.304535 -2.8226318 -6.304535 -6.304535z" fill-rule="evenodd"/><path fill="#f73d35" d="m404.00235 508.1309l0 0c0 -9.260925 7.507477 -16.768402 16.768402 -16.768402l67.0715 0l0 0c4.4472656 0 8.712372 1.7666626 11.857056 4.9113464c3.1446838 3.1446838 4.9113464 7.40979 4.9113464 11.857056l0 132.69376c0 9.260925 -7.507477 16.768372 -16.768402 16.768372l-67.0715 0c-9.260925 0 -16.768402 -7.5074463 -16.768402 -16.768372z" fill-rule="evenodd"/><path fill="#f73d35" d="m501.6359 669.61035l0 0c0 -6.632141 5.3764343 -12.008606 12.008636 -12.008606l76.591 0c3.1848755 0 6.239319 1.2651978 8.491394 3.517212c2.2520752 2.2520752 3.517273 5.3065186 3.517273 8.491394l0 48.033142c0 6.632202 -5.376465 12.008606 -12.008667 12.008606l-76.591 0c-6.632202 0 -12.008636 -5.376404 -12.008636 -12.008606z" fill-rule="evenodd"/></g></svg>