<svg version="1.1" viewBox="0.0 0.0 864.0 864.0" fill="none" stroke="none" stroke-linecap="square" stroke-miterlimit="10" xmlns:xlink="http://www.w3.org/1999/xlink" xmlns="http://www.w3.org/2000/svg"><clipPath id="g3b6dc279172_0_0.0"><path d="m0 0l864.0 0l0 864.0l-864.0 0l0 -864.0z" clip-rule="nonzero"/></clipPath><g clip-path="url(#g3b6dc279172_0_0.0)"><path fill="#2563eb" d="m196.14514 470.89563l0 0c0 -43.420685 35.199417 -78.62012 78.62009 -78.62012l314.47098 0l0 0c20.85138 0 40.848694 8.283173 55.592834 23.027313c14.74408 14.74411 23.027283 34.741455 23.027283 55.592804l0 314.47095c0 43.420715 -35.1994 78.62012 -78.62012 78.62012l-314.47098 0c-43.42067 0 -78.62009 -35.1994 -78.62009 -78.62012z" fill-rule="evenodd"/><path fill="#ffffff" d="m224.62912 489.8267l0 0c0 -38.1882 30.957672 -69.145874 69.145905 -69.145874l276.57526 0l0 0c18.338623 0 35.926147 7.284973 48.893555 20.25235c12.967346 12.967377 20.25238 30.554901 20.25238 48.893524l0 276.5753c0 38.188232 -30.957703 69.145874 -69.145935 69.145874l-276.57526 0c-38.188232 0 -69.145905 -30.957642 -69.145905 -69.145874z" fill-rule="evenodd"/><path fill="#0c2969" d="m253.1525 541.73773l0 0c0 -29.296753 23.749756 -53.04651 53.04654 -53.04651l251.56812 0c14.068787 0 27.561401 5.588806 37.509583 15.536957c9.94812 9.948151 15.536926 23.440765 15.536926 37.509552l0 212.17975c0 29.296753 -23.749695 53.04651 -53.04651 53.04651l-251.56812 0c-29.296783 0 -53.04654 -23.749756 -53.04654 -53.04651z" fill-rule="evenodd"/><path fill="#2563eb" d="m253.1525 502.3217l0 0c0 -29.296783 23.749756 -53.04651 53.04654 -53.04651l251.56812 0c14.068787 0 27.561401 5.588806 37.509583 15.536957c9.94812 9.948151 15.536926 23.440735 15.536926 37.509552l0 212.17972c0 29.296814 -23.749695 53.04651 -53.04651 53.04651l-251.56812 0c-29.296783 0 -53.04654 -23.749695 -53.04654 -53.04651z" fill-rule="evenodd"/><path fill="#0c2969" d="m281.67322 519.25775l0 0c0 -24.634613 19.970306 -44.60492 44.60492 -44.60492l211.56201 0c11.829956 0 23.175415 4.6994324 31.540466 13.064484c8.36499 8.365051 13.064453 19.71048 13.064453 31.540436l0 178.41425c0 24.634644 -19.970276 44.60492 -44.60492 44.60492l-211.56201 0c-24.634613 0 -44.60492 -19.970276 -44.60492 -44.60492z" fill-rule="evenodd"/><path fill="#ffffff" d="m310.19394 536.1561l0 0c0 -19.95166 16.17398 -36.12564 36.12561 -36.12564l171.35995 0c9.581116 0 18.769775 3.8060913 25.544678 10.580963c6.7748413 6.7748413 10.580933 15.963562 10.580933 25.544678l0 144.49805c0 19.9516 -16.17395 36.12561 -36.12561 36.12561l-171.35995 0c-19.95163 0 -36.12561 -16.174011 -36.12561 -36.12561z" fill-rule="evenodd"/><path fill="#5e8ef7" d="m253.1525 529.49585l28.354218 0l0 157.96063l-28.354218 0z" fill-rule="evenodd"/><path fill="#5e8ef7" d="m582.385 529.49585l28.354248 0l0 157.96063l-28.354248 0z" fill-rule="evenodd"/><path fill="#2563eb" d="m281.67322 541.01373l28.354218 0l0 134.8974l-28.354218 0z" fill-rule="evenodd"/><path fill="#2563eb" d="m553.8643 541.01373l28.354187 0l0 134.8974l-28.354187 0z" fill-rule="evenodd"/><defs><linearGradient id="g3b6dc279172_0_0.1" gradientUnits="userSpaceOnUse" gradientTransform="matrix(22.74513455305932 0.0 0.0 22.74513455305932 0.0 0.0)" spreadMethod="pad" x1="13.637868254170547" y1="8.767546496818525" x2="13.637785314105486" y2="31.51268104972662"><stop offset="0.0" stop-color="#ffffff" stop-opacity="0.0"/><stop offset="0.17" stop-color="#ffffff" stop-opacity="0.0"/><stop offset="1.0" stop-color="#ffffff"/></linearGradient></defs><path fill="url(#g3b6dc279172_0_0.1)" d="m310.19513 240.02257l0 0c0 -22.42424 18.178436 -40.602676 40.60269 -40.602676l162.40579 0l0 0c10.768494 0 21.095947 4.277771 28.71045 11.892258c7.614502 7.6144714 11.892273 17.941925 11.892273 28.710419l0 436.1349c0 22.424194 -18.178467 40.60266 -40.602722 40.60266l-162.40579 0c-22.424255 0 -40.60269 -18.178467 -40.60269 -40.60266z" fill-rule="evenodd"/><path fill="#f73d35" d="m281.36005 19.625248l0 0c0 -10.831236 8.780426 -19.611687 19.611664 -19.611687l274.2559 0c5.201294 0 10.189636 2.0662253 13.867554 5.74413c3.6778564 3.6779041 5.7440796 8.666214 5.7440796 13.867557l0 78.4444c0 10.831238 -8.7803955 19.611687 -19.611633 19.611687l-274.2559 0l0 0c-10.831238 0 -19.611664 -8.780449 -19.611664 -19.611687z" fill-rule="evenodd"/><path fill="#e03027" d="m481.20383 46.79758l0 0c0 -4.3374863 3.5162354 -7.853718 7.8536987 -7.853718l65.466156 0c2.0829468 0 4.0805664 0.82744217 5.553406 2.3003006c1.4728394 1.4728584 2.300293 3.4704819 2.300293 5.553417l0 31.413937c0 4.3374863 -3.5162354 7.8537216 -7.8536987 7.8537216l-65.466156 0c-4.3374634 0 -7.8536987 -3.5162354 -7.8536987 -7.8537216z" fill-rule="evenodd"/><path fill="#e03027" d="m345.28073 41.71382l0 0c0 -2.451805 1.9875793 -4.4393845 4.439392 -4.4393845l17.756989 0l0 0c1.1773987 0 2.3065796 0.46772003 3.1391296 1.3002663c0.83255005 0.83254623 1.3002625 1.9617195 1.3002625 3.1391182l0 38.2426c0 2.451805 -1.9875793 4.4393845 -4.439392 4.4393845l-17.756989 0c-2.4518127 0 -4.439392 -1.9875793 -4.439392 -4.4393845z" fill-rule="evenodd"/><path fill="#e03027" d="m327.5278 174.79623l0 0c0 -19.685211 15.958008 -35.643234 35.64322 -35.643234l179.42456 0c9.453186 0 18.519165 3.7552643 25.203613 10.439667c6.684387 6.6844025 10.439636 15.750397 10.439636 25.203568l0 142.5686c0 19.685211 -15.958008 35.64322 -35.64325 35.64322l-179.42456 0c-19.685211 0 -35.64322 -15.958008 -35.64322 -35.64322z" fill-rule="evenodd"/><path fill="#fb5c4e" d="m217.81313 91.3385l0 0c0 -11.543053 9.357498 -20.900543 20.900543 -20.900543l408.24872 0c5.543152 0 10.859314 2.202011 14.778931 6.121628c3.9196167 3.919609 6.121582 9.235748 6.121582 14.778915l0 83.599655c0 11.543045 -9.357483 20.900543 -20.900513 20.900543l-408.24872 0c-11.543045 0 -20.900543 -9.357498 -20.900543 -20.900543z" fill-rule="evenodd"/><path fill="#fb5c4e" d="m196.13728 194.82903l0 0c0 -14.15303 11.473297 -25.626343 25.626343 -25.626343l135.06215 0c6.7965393 0 13.314697 2.6999054 18.120575 7.505783c4.805847 4.8058777 7.505768 11.324036 7.505768 18.12056l0 102.50227c0 14.153046 -11.473297 25.626343 -25.626343 25.626343l-135.06215 0c-14.153046 0 -25.626343 -11.473297 -25.626343 -25.626343z" fill-rule="evenodd"/><path fill="#f73d35" d="m250.06378 284.57138l0 0c0 -4.2333984 3.4318695 -7.665283 7.665283 -7.665283l117.07959 0c2.032959 0 3.982666 0.80758667 5.420166 2.2451172c1.4375305 1.4375305 2.2451172 3.387207 2.2451172 5.420166l0 30.660248c0 4.233429 -3.4318542 7.665283 -7.665283 7.665283l-117.07959 0c-4.2334137 0 -7.665283 -3.4318542 -7.665283 -7.665283z" fill-rule="evenodd"/><path fill="#f73d35" d="m327.5278 218.05249l0 0c0 -5.053467 4.096649 -9.150116 9.150116 -9.150116l36.599335 0l0 0c2.4267578 0 4.75412 0.9640198 6.470093 2.680008c1.7160034 1.7159729 2.6800232 4.04335 2.6800232 6.470108l0 95.70456c0 5.053467 -4.096649 9.150116 -9.150116 9.150116l-36.599335 0c-5.053467 0 -9.150116 -4.096649 -9.150116 -9.150116z" fill-rule="evenodd"/><path fill="#fc8076" d="m217.81313 174.12445l0 0c0 -2.718216 2.2035522 -4.921768 4.921768 -4.921768l61.6073 0c1.3053284 0 2.55719 0.5185394 3.4802246 1.4415588c0.92300415 0.92300415 1.4415283 2.174881 1.4415283 3.4802094l0 19.686462c0 2.718216 -2.2035217 4.921768 -4.921753 4.921768l-61.6073 0c-2.718216 0 -4.921768 -2.2035522 -4.921768 -4.921768z" fill-rule="evenodd"/><path fill="#f73d35" d="m442.15973 156.52246l0 0c0 -4.337494 3.5162354 -7.8537292 7.8536987 -7.8537292l136.91699 0c2.0829468 0 4.0805664 0.8274536 5.553406 2.3003082c1.4728394 1.4728546 2.300293 3.4704895 2.300293 5.553421l0 31.413925c0 4.337494 -3.5162354 7.8537292 -7.8536987 7.8537292l-136.91699 0c-4.3374634 0 -7.8536987 -3.5162354 -7.8536987 -7.8537292z" fill-rule="evenodd"/><path fill="#f73d35" d="m594.79425 107.0755l0 0c0 -2.451805 1.9875488 -4.4393845 4.439392 -4.4393845l17.757019 0l0 0c1.1773682 0 2.3065186 0.46772003 3.1390991 1.3002625c0.83251953 0.83255005 1.3002319 1.9617233 1.3002319 3.139122l0 37.112045c0 2.4518127 -1.9875488 4.439392 -4.439331 4.439392l-17.757019 0c-2.4518433 0 -4.439392 -1.9875793 -4.439392 -4.439392z" fill-rule="evenodd"/><path fill="#f73d35" d="m257.4306 110.12936l0 0c0 -2.0979767 1.7007446 -3.798729 3.7987366 -3.798729l100.07623 0c1.0074768 0 1.9736938 0.40022278 2.6860962 1.1126251c0.71240234 0.7123947 1.1126099 1.6786194 1.1126099 2.6861038l0 15.194458c0 2.0979767 -1.7007446 3.798729 -3.798706 3.798729l-100.07623 0l0 0c-2.097992 0 -3.7987366 -1.7007523 -3.7987366 -3.798729z" fill-rule="evenodd"/><path fill="#fc8076" d="m345.28073 151.99709l0 0c0 -1.9023285 1.5421448 -3.4444733 3.444458 -3.4444733l64.56189 0c0.9135437 0 1.7896423 0.36289978 2.435608 1.0088654c0.6459656 0.6459656 1.0088806 1.5220795 1.0088806 2.435608l0 13.777512c0 1.9023438 -1.5421448 3.4444885 -3.4444885 3.4444885l-64.56189 0c-1.9023132 0 -3.444458 -1.5421448 -3.444458 -3.4444885z" fill-rule="evenodd"/><path fill="#f73d35" d="m416.69885 218.05249l0 0c0 -5.053467 4.096649 -9.150116 9.150116 -9.150116l36.599365 0l0 0c2.4267578 0 4.75412 0.9640198 6.470093 2.680008c1.7159729 1.7159729 2.6799927 4.04335 2.6799927 6.470108l0 72.46042c0 5.053467 -4.0966187 9.150116 -9.150085 9.150116l-36.599365 0c-5.053467 0 -9.150116 -4.096649 -9.150116 -9.150116z" fill-rule="evenodd"/><path fill="#f73d35" d="m470.0012 306.2109l0 0c0 -3.61734 2.932434 -6.5498047 6.549774 -6.5498047l41.799988 0c1.7371216 0 3.4030762 0.6900635 4.6314087 1.918396c1.2283325 1.2283325 1.918396 2.894287 1.918396 4.6314087l0 26.198364c0 3.6173706 -2.932434 6.5498047 -6.5498047 6.5498047l-41.799988 0c-3.61734 0 -6.549774 -2.932434 -6.549774 -6.5498047z" fill-rule="evenodd"/><path fill="#ffaaa7" d="m347.34723 195.83385l31.35019 -125.400734l128.0123 0l-31.35019 125.400734z" fill-rule="evenodd"/><path fill="#ffaaa7" d="m517.2036 195.8327l29.29486 -125.40074l42.155945 0l-29.2948 125.40074z" fill-rule="evenodd"/><path fill="#fc8076" d="m382.47928 352.94858l42.5459 -157.1466l116.81662 0l-42.5459 157.1466z" fill-rule="evenodd"/><path fill="#fc8076" d="m281.36066 322.96637l36.509735 -127.1644l53.979584 0l-36.509735 127.1644z" fill-rule="evenodd"/><path fill="#fc8076" d="m448.0054 70.46923l18.381256 -70.455956l99.37695 0l-18.381226 70.455956z" fill-rule="evenodd"/></g></svg>