<svg version="1.1" viewBox="0.0 0.0 864.0 864.0" fill="none" stroke="none" stroke-linecap="square" stroke-miterlimit="10" xmlns:xlink="http://www.w3.org/1999/xlink" xmlns="http://www.w3.org/2000/svg"><clipPath id="g3b286219087_0_562.0"><path d="m0 0l864.0 0l0 864.0l-864.0 0l0 -864.0z" clip-rule="nonzero"/></clipPath><g clip-path="url(#g3b286219087_0_562.0)"><path fill="#656565" d="m333.77597 39.662827l0 0c7.1533813 -21.885635 30.694458 -33.82936 52.580444 -26.67706l158.5076 51.800007l0 0c10.51001 3.4346542 19.224976 10.903664 24.227661 20.763924c5.0026245 9.860252 5.8832397 21.304062 2.448059 31.813911l-115.48111 353.31204c-7.1533813 21.88562 -30.694427 33.829346 -52.580444 26.677032l-158.50758 -51.799988c-21.885986 -7.152313 -33.829132 -30.6922 -26.675735 -52.57785z" fill-rule="evenodd"/><path fill="#3c3c3c" d="m334.7987 36.53385l0 0c6.5885315 -20.15755 28.270966 -31.158688 48.429047 -24.571726l145.99326 47.70556l0 0c9.680298 3.1631699 17.707153 10.042145 22.31488 19.123634c4.607727 9.081497 5.4188843 19.62159 2.2549438 29.301582l-117.52658 359.57c-6.5885315 20.157532 -28.270966 31.15866 -48.429047 24.571716l-145.99329 -47.705566c-20.158066 -6.5869446 -31.15834 -28.26767 -24.569778 -48.425232z" fill-rule="evenodd"/><path fill="#3c3c3c" d="m539.6332 165.00078l0 0c0.31341553 -0.9595337 1.345398 -1.4835663 2.3050537 -1.1704559l6.9500732 2.2677002l0 0c0.46081543 0.1503601 0.8430176 0.4776001 1.062439 0.9097595c0.21942139 0.43214417 0.2581787 0.9337921 0.107666016 1.394577l-15.715454 48.115753c-0.31341553 0.9595337 -1.345398 1.4835663 -2.3050537 1.1704559l-6.9500732 -2.2677002c-0.9595947 -0.31311035 -1.4835205 -1.3447876 -1.170105 -2.3043365z" fill-rule="evenodd"/><path fill="#3c3c3c" d="m519.9637 225.18237l0 0c0.31341553 -0.9595337 1.345398 -1.4835663 2.3050537 -1.1704559l6.950012 2.2677002l0 0c0.46087646 0.1503601 0.8430176 0.4776001 1.062439 0.9097595c0.21948242 0.43214417 0.2581787 0.9337921 0.107666016 1.394577l-15.715454 48.115753c-0.31341553 0.9595337 -1.345398 1.4835815 -2.3050537 1.1704712l-6.9500427 -2.2677002c-0.95962524 -0.31311035 -1.48349 -1.3448181 -1.170105 -2.3043518z" fill-rule="evenodd"/><path fill="#ffffff" d="m341.0404 43.639908l0 0c6.12265 -18.734716 26.273376 -28.95846 45.007965 -22.83537l135.68369 44.346012l0 0c8.996643 2.9404144 16.456848 9.334328 20.73938 17.775162c4.282593 8.440834 5.036743 18.237152 2.0965576 27.23388l-114.520905 350.42328c-6.12265 18.734741 -26.273376 28.958466 -45.007965 22.835388l-135.68367 -44.34601c-18.734573 -6.123108 -28.958557 -26.274323 -22.835922 -45.009064z" fill-rule="evenodd"/><path fill="#0c2969" d="m331.70987 404.7114l0 0c-1.829956 -11.9348755 6.381439 -22.958649 18.340637 -24.622284l121.52756 -16.90567c5.7430115 -0.7989197 11.599884 0.7116699 16.282196 4.199402c4.682312 3.4877625 7.806488 8.666992 8.685242 14.398315l13.253235 86.43744c1.8299255 11.9348755 -6.381439 22.958649 -18.340637 24.622284l-121.52756 16.90567l0 0c-11.959198 1.6636353 -23.137512 -6.662842 -24.967438 -18.597717z" fill-rule="evenodd"/><path fill="#2563eb" d="m329.24792 388.65463l0 0c-1.8299255 -11.9348755 6.381439 -22.958649 18.340637 -24.622314l121.52756 -16.90564c5.7430115 -0.7989197 11.599884 0.7116699 16.282196 4.199402c4.682312 3.4877625 7.806488 8.666992 8.685242 14.398315l13.253235 86.43744c1.829956 11.9348755 -6.381439 22.958649 -18.340637 24.622284l-121.52756 16.90567l0 0c-11.959198 1.6636353 -23.137512 -6.662842 -24.967438 -18.597717z" fill-rule="evenodd"/><path fill="#5e8ef7" d="m352.5431 396.9819l0 0c-1.3511353 -8.812195 4.711792 -16.95169 13.541962 -18.180054l89.742065 -12.484009c4.2404175 -0.58987427 8.56488 0.5254822 12.022095 3.1006775c3.4572144 2.5752258 5.763977 6.3993225 6.4128113 10.6311035l9.785614 63.821747c1.3511658 8.812195 -4.7117615 16.95169 -13.541931 18.180054l-89.742096 12.484009l0 0c-8.830139 1.2283325 -17.08374 -4.919586 -18.434906 -13.731781z" fill-rule="evenodd"/><path fill="#0c2969" d="m352.7719 227.36844l0 0c0.9444885 -9.477066 9.379852 -16.273697 18.840942 -15.18071l91.06851 10.520721c4.5433655 0.5248718 8.7204895 2.8361511 11.612427 6.4253693c2.8919373 3.5892181 4.26178 8.162369 3.8082275 12.713425l-6.8403625 68.63692c-0.9444885 9.477051 -9.379883 16.273682 -18.840973 15.180695l-91.06848 -10.520721c-9.46109 -1.0929871 -16.365143 -9.661713 -15.420654 -19.138794z" fill-rule="evenodd"/><path fill="#2563eb" d="m354.04257 214.61832l0 0c0.9444885 -9.477066 9.379883 -16.273697 18.840973 -15.180695l91.06848 10.520721c4.543396 0.5248718 8.7204895 2.8361359 11.612427 6.425354c2.8919373 3.5892181 4.2618103 8.162384 3.808258 12.713425l-6.8403625 68.63692c-0.9444885 9.477081 -9.379883 16.273712 -18.840973 15.180695l-91.06848 -10.520721c-9.46109 -1.0929871 -16.365173 -9.661713 -15.420685 -19.138763z" fill-rule="evenodd"/><path fill="#5e8ef7" d="m369.53796 225.50578l0 0c0.6973572 -6.997467 6.9256897 -12.015808 13.911346 -11.208801l67.249695 7.769058c3.3546448 0.38754272 6.438843 2.0940857 8.574127 4.744217c2.1352844 2.650116 3.1467285 6.0267487 2.8118591 9.387039l-5.050659 50.67859c-0.6973572 6.997467 -6.9256897 12.015808 -13.911377 11.208801l-67.249664 -7.769043c-6.9856873 -0.80703735 -12.0833435 -7.1338196 -11.385986 -14.131287z" fill-rule="evenodd"/><path fill="#0c2969" d="m377.88364 111.254326l0 0c2.028473 -6.267952 8.716156 -9.591827 14.937347 -7.42408l82.950226 28.903778c2.9875183 1.0409851 5.4656982 3.2350464 6.889374 6.099518c1.4236755 2.8644714 1.676239 6.1647034 0.7021179 9.174683l-14.691254 45.395203c-2.0285034 6.2679443 -8.716156 9.591827 -14.937347 7.4240723l-82.950226 -28.903778c-6.221161 -2.1677399 -9.619995 -9.006241 -7.5914917 -15.2742z" fill-rule="evenodd"/><path fill="#194fc6" d="m380.6127 102.82164l0 0c2.0285034 -6.2679596 8.716187 -9.591835 14.937347 -7.4240875l82.950226 28.903778c2.9875183 1.0409927 5.4656982 3.235054 6.889374 6.099518c1.423706 2.8644714 1.6762695 6.1647034 0.70214844 9.174683l-14.691254 45.395203c-2.0285034 6.2679596 -8.716187 9.591827 -14.937378 7.4240723l-82.950226 -28.903778c-6.221161 -2.1677399 -9.619995 -9.006241 -7.5914917 -15.274185z" fill-rule="evenodd"/><path fill="#0c2969" d="m412.5875 41.016922l0 0c1.79776 -3.9979668 6.435425 -5.6535683 10.358582 -3.6978836l73.19003 36.48529c1.8839417 0.9391556 3.3478088 2.6025162 4.069519 4.6241684c0.7216797 2.0216446 0.6421509 4.235985 -0.22116089 6.155876l-13.02002 28.954987c-1.79776 3.9979706 -6.4354553 5.6535645 -10.358582 3.6978836l-73.19003 -36.48529l0 0c-3.9231262 -1.9556885 -5.6460876 -6.782074 -3.8483582 -10.780045z" fill-rule="evenodd"/><path fill="#0c2969" d="m415.00613 35.638195l0 0c1.7977295 -3.9979706 6.435425 -5.65357 10.358551 -3.6978874l73.19006 36.48529c1.8839417 0.9391556 3.3477783 2.6025162 4.0694885 4.6241684c0.7217102 2.0216522 0.6421509 4.235985 -0.22116089 6.155876l-13.02002 28.954987c-1.7977295 3.9979706 -6.435425 5.653572 -10.358551 3.6978836l-73.19006 -36.48529l0 0c-3.9231262 -1.9556808 -5.6460876 -6.782074 -3.8483276 -10.780045z" fill-rule="evenodd"/><path fill="#0c2969" d="m424.73053 45.1304l0 0c1.3273926 -2.951931 4.751648 -4.1743584 7.648346 -2.730362l54.046387 26.942177c1.3910522 0.69342804 2.4718933 1.9215851 3.0047607 3.4142838c0.53286743 1.4926987 0.4741211 3.1276703 -0.16329956 4.5452423l-9.613434 21.379135c-1.3273621 2.9519272 -4.751648 4.1743546 -7.6483154 2.730362l-54.046417 -26.942177l0 0c-2.8966675 -1.4439926 -4.1688232 -5.007599 -2.8414612 -7.959526z" fill-rule="evenodd"/><path fill="#0c2969" d="m346.05188 641.70667l0 0c-3.8795776 -17.49945 7.1612244 -34.831726 24.66037 -38.71277l150.26358 -33.325928c8.403381 -1.8637085 17.202637 -0.31280518 24.462097 4.3115234c7.2594604 4.6243286 12.38446 11.943359 14.247498 20.346863l28.097656 126.7384c3.8795776 17.49945 -7.161255 34.831726 -24.6604 38.712708l-150.26355 33.325928c-17.499146 3.8810425 -34.830017 -7.1588745 -38.709625 -24.658325z" fill-rule="evenodd"/><path fill="#2563eb" d="m340.83044 618.16284l0 0c-3.8796082 -17.49945 7.1612244 -34.831726 24.66034 -38.71277l150.26361 -33.325928c8.403381 -1.8637085 17.202637 -0.31280518 24.462097 4.3115234c7.2594604 4.6243286 12.38446 11.943298 14.247498 20.346863l28.097595 126.7384c3.8796387 17.49945 -7.161194 34.831726 -24.66034 38.712708l-150.26358 33.325928c-17.499115 3.8810425 -34.830017 -7.1588745 -38.709595 -24.658325z" fill-rule="evenodd"/><path fill="#0c2969" d="m360.11 624.49915l0 0c-3.2620544 -14.713684 6.0210876 -29.287231 20.734497 -32.550842l126.35281 -28.02649c7.0656433 -1.5671997 14.464142 -0.26342773 20.567963 3.6246338c6.103821 3.8880615 10.412964 10.04187 11.979431 17.107666l23.625183 106.56311c3.262024 14.713745 -6.021118 29.287231 -20.734497 32.550842l-126.352844 28.02649c-14.713379 3.2636108 -29.28534 -6.0185547 -32.547394 -20.7323z" fill-rule="evenodd"/><path fill="#ffffff" d="m379.3855 630.8197l0 0c-2.642273 -11.9192505 4.878235 -23.723755 16.797546 -26.366028l102.32556 -22.683472c5.723877 -1.2688599 11.717346 -0.2119751 16.661926 2.9381714c4.94458 3.1501465 8.435303 8.135498 9.704163 13.859375l19.136475 86.324646c2.642273 11.9192505 -4.878235 23.723755 -16.797546 26.366028l-102.32559 22.683472c-11.919312 2.642273 -23.723816 -4.878235 -26.366089 -16.797546z" fill-rule="evenodd"/><path fill="#5e8ef7" d="m344.43265 634.39435l16.939056 -3.7471313l20.921051 94.36188l-16.939056 3.7471313z" fill-rule="evenodd"/><path fill="#5e8ef7" d="m541.089 590.78076l16.939026 -3.7471313l20.92102 94.36188l-16.939026 3.7471313z" fill-rule="evenodd"/><path fill="#2563eb" d="m362.99435 637.49603l16.939056 -3.7471313l17.863892 80.54724l-16.939026 3.7471313z" fill-rule="evenodd"/><path fill="#2563eb" d="m525.5788 601.4387l16.939087 -3.7471313l17.863892 80.54724l-16.939026 3.7471313z" fill-rule="evenodd"/><defs><linearGradient id="g3b286219087_0_562.1" gradientUnits="userSpaceOnUse" gradientTransform="matrix(12.661728139449837 -2.807016587004424 2.807016587004424 12.661728139449837 0.0 0.0)" spreadMethod="pad" x1="18.031872906283077" y1="49.67688860125392" x2="18.031827054974674" y2="62.33861674062074"><stop offset="0.0" stop-color="#ffffff" stop-opacity="0.0"/><stop offset="1.0" stop-color="#ffffff"/></linearGradient></defs><path fill="url(#g3b286219087_0_562.1)" d="m373.1341 602.6272l0 0c-2.9702454 -13.391052 5.4777527 -26.65326 18.86911 -29.62207l96.9859 -21.501099l0 0c6.4307556 -1.4255981 13.164764 -0.23834229 18.720581 3.3007202c5.5558167 3.5390015 9.478363 9.139893 10.904694 15.570496l24.802917 111.82172c2.9702148 13.391052 -5.477783 26.65326 -18.86914 29.62207l-96.9859 21.501099c-13.391357 2.96875 -26.65506 -5.4801636 -29.625275 -18.871216z" fill-rule="evenodd"/><path fill="#f73d35" d="m390.98868 654.4631l0 0c-2.9520264 -3.2929688 -2.6756897 -8.35553 0.61727905 -11.307556l83.393585 -74.760315c1.5813293 -1.4176636 3.6610413 -2.1490479 5.781616 -2.0332642c2.1206055 0.115722656 4.1083374 1.0691528 5.5259705 2.6505127l21.379974 23.848938c2.952057 3.2929688 2.6757202 8.35553 -0.61724854 11.307556l-83.393585 74.760315l0 0c-3.2929688 2.9520874 -8.35553 2.6757202 -11.307587 -0.61724854z" fill-rule="evenodd"/><path fill="#e03027" d="m459.163 608.25l0 0c-1.1825867 -1.3190918 -1.0718689 -3.347168 0.24728394 -4.529724l19.9122 -17.85083c0.63345337 -0.5678711 1.4665833 -0.8609009 2.316101 -0.81451416c0.8494873 0.04638672 1.6457825 0.42834473 2.213684 1.0617676l8.564758 9.553833c1.1825867 1.3191528 1.0718689 3.347229 -0.24728394 4.529785l-19.9122 17.85083c-1.3191528 1.1825562 -3.3471985 1.0718384 -4.529785 -0.24731445z" fill-rule="evenodd"/><path fill="#e03027" d="m405.03848 650.0454l0 0c-0.5710144 -0.6369629 -0.5175476 -1.6162109 0.11941528 -2.1872559l26.376434 -23.645813c0.3058777 -0.27423096 0.7081604 -0.41571045 1.1183472 -0.39331055c0.41018677 0.022399902 0.79467773 0.20678711 1.0689087 0.5126953l4.1355896 4.613159c0.5710144 0.6369629 0.5175781 1.616272 -0.119384766 2.1872559l-26.376465 23.645874c-0.6369629 0.5709839 -1.6162109 0.5175171 -2.1872559 -0.1194458z" fill-rule="evenodd"/><path fill="#e03027" d="m416.4458 643.75464l0 0c-0.66796875 -0.74505615 -0.60543823 -1.890564 0.13964844 -2.5585327l5.3962708 -4.8375854l0 0c0.3578186 -0.32080078 0.82839966 -0.4862671 1.3082275 -0.460083c0.47979736 0.026184082 0.9295654 0.24194336 1.2503357 0.59973145l10.428375 11.632629c0.66796875 0.7451172 0.60543823 1.890625 -0.13964844 2.5585327l-5.3962708 4.8376465c-0.74508667 0.66796875 -1.8905945 0.6054077 -2.5585632 -0.13964844z" fill-rule="evenodd"/><path fill="#e03027" d="m447.32153 689.05676l0 0c-5.364807 -5.984314 -4.8625793 -15.184631 1.1217346 -20.549438l54.575043 -48.92517c2.8737793 -2.576233 6.6532593 -3.9053955 10.507019 -3.6950684c3.8537598 0.21038818 7.4661255 1.9430542 10.042419 4.8168335l38.854126 43.341003c5.364807 5.984314 4.86261 15.184631 -1.1217651 20.549438l-54.575012 48.92517c-5.9843445 5.364807 -15.184631 4.862549 -20.549408 -1.1217651z" fill-rule="evenodd"/><path fill="#fb5c4e" d="m391.2128 693.58966l0 0c-3.1459045 -3.5092163 -2.85141 -8.904236 0.6578064 -12.050171l124.129395 -111.27893c1.6851807 -1.5107422 3.9014893 -2.2901611 6.161316 -2.166809c2.2598267 0.12335205 4.378113 1.1394043 5.888855 2.824585l22.784058 25.415161c3.145935 3.5092163 2.8514404 8.904236 -0.6577759 12.050171l-124.129425 111.27893c-3.5092163 3.145935 -8.904266 2.8514404 -12.050171 -0.6577759z" fill-rule="evenodd"/><path fill="#fb5c4e" d="m412.83176 730.966l0 0c-3.8579407 -4.303467 -3.4967651 -10.919556 0.80667114 -14.777466l41.07724 -36.824768c2.0665894 -1.8526611 4.784485 -2.8084717 7.5558167 -2.6571655c2.7713013 0.15124512 5.3690186 1.3972778 7.2216797 3.4638672l27.940765 31.167358c3.8579407 4.303406 3.4967651 10.919556 -0.80667114 14.777466l-41.07724 36.824768c-4.3034363 3.8579102 -10.919556 3.4967651 -14.777466 -0.80670166z" fill-rule="evenodd"/><path fill="#f73d35" d="m453.69125 743.55286l0 0c-1.1543579 -1.2876587 -1.0462952 -3.267395 0.24139404 -4.421753l35.595703 -31.910645c0.6183777 -0.5543823 1.4316406 -0.84039307 2.2608643 -0.795105c0.82925415 0.04522705 1.6065369 0.41809082 2.1608887 1.036438l8.360535 9.325989c1.1543884 1.2877197 1.0463257 3.267395 -0.24136353 4.421814l-35.595703 31.910645c-1.2876892 1.154419 -3.267395 1.0463257 -4.4217834 -0.24133301z" fill-rule="evenodd"/><path fill="#f73d35" d="m459.11505 702.2122l0 0c-1.3782043 -1.5373535 -1.249176 -3.90094 0.2881775 -5.279114l11.134277 -9.981628l0 0c0.73825073 -0.6618042 1.709198 -1.0032959 2.6992188 -0.94921875c0.99005127 0.054016113 1.9180603 0.4991455 2.579895 1.2374268l26.08374 29.095886c1.3782349 1.5373535 1.2492065 3.90094 -0.2881775 5.279114l-11.134247 9.981567c-1.5373535 1.3782349 -3.9009094 1.2492065 -5.279114 -0.28814697z" fill-rule="evenodd"/><path fill="#fc8076" d="m413.77765 718.7603l0 0c-0.7402344 -0.8257446 -0.67092896 -2.0951538 0.15475464 -2.8353271l18.730469 -16.791443c0.3965149 -0.3554077 0.91796875 -0.53881836 1.449707 -0.50982666c0.5317383 0.029052734 1.0301514 0.26812744 1.3856201 0.6646118l5.360962 5.9800415c0.74020386 0.8256836 0.67089844 2.0951538 -0.15478516 2.8353271l-18.730438 16.791382c-0.8257141 0.7402344 -2.0951233 0.6709595 -2.8353577 -0.15472412z" fill-rule="evenodd"/><path fill="#f73d35" d="m477.199 652.2551l0 0c-1.1825867 -1.3191528 -1.0718689 -3.347168 0.24728394 -4.529785l41.63275 -37.322693c0.6334839 -0.5679321 1.4666138 -0.8609009 2.316101 -0.81451416c0.8494873 0.046325684 1.645752 0.4282837 2.213684 1.0617676l8.564758 9.553833c1.1825562 1.3191528 1.0718384 3.347168 -0.24725342 4.529785l-41.632782 37.322693c-1.3191528 1.1826172 -3.3471985 1.0718994 -4.529785 -0.24725342z" fill-rule="evenodd"/><path fill="#f73d35" d="m510.13168 595.6124l0 0c-0.66793823 -0.7451172 -0.6054077 -1.890625 0.13967896 -2.5585938l5.39624 -4.8375854l0 0c0.35784912 -0.32080078 0.82836914 -0.4862671 1.3082275 -0.460083c0.47979736 0.026184082 0.9295654 0.24194336 1.2503662 0.59973145l10.122009 11.290955c0.66796875 0.74505615 0.6054077 1.890564 -0.13964844 2.5585327l-5.3963013 4.8376465c-0.74505615 0.6679077 -1.890564 0.6054077 -2.5585327 -0.13970947z" fill-rule="evenodd"/><path fill="#f73d35" d="m408.38052 688.5028l0 0c-0.5710449 -0.6369629 -0.5175781 -1.6162109 0.119384766 -2.1872559l30.434357 -27.283691c0.3059082 -0.27416992 0.7081909 -0.4156494 1.1183777 -0.3932495c0.41018677 0.022399902 0.79467773 0.20678711 1.0688782 0.5126953l4.13562 4.613159c0.5710144 0.6369629 0.5175476 1.6162109 -0.11941528 2.1872559l-30.434357 27.28363l0 0c-0.6369629 0.5710449 -1.6162415 0.5175781 -2.1872559 -0.119384766z" fill-rule="evenodd"/><path fill="#fc8076" d="m446.50613 677.2864l0 0c-0.51815796 -0.5780029 -0.469635 -1.4666138 0.1083374 -1.9847412l19.627502 -17.595581c0.27755737 -0.2487793 0.6425781 -0.37719727 1.014801 -0.35687256c0.37219238 0.020324707 0.72109985 0.1876831 0.96990967 0.46520996l3.7526855 4.186035c0.51815796 0.5780029 0.469635 1.4666138 -0.1083374 1.9847412l-19.627502 17.595581c-0.5779724 0.51812744 -1.4665833 0.4696045 -1.9847107 -0.1083374z" fill-rule="evenodd"/><path fill="#f73d35" d="m486.22946 677.90485l0 0c-1.3782349 -1.5373535 -1.2492065 -3.90094 0.2881775 -5.279114l11.134247 -9.981628l0 0c0.73825073 -0.6618042 1.709198 -1.0032959 2.6992493 -0.94921875c0.99002075 0.054016113 1.9180298 0.4991455 2.5798645 1.2374268l19.746307 22.02655c1.3781738 1.5373535 1.2491455 3.90094 -0.288208 5.279114l-11.134247 9.981628c-1.537384 1.3781738 -3.9009094 1.2491455 -5.279114 -0.288208z" fill-rule="evenodd"/><path fill="#f73d35" d="m526.4672 690.18005l0 0c-0.9869385 -1.1008911 -0.89453125 -2.793457 0.2064209 -3.7804565l12.714722 -11.3984375c0.5286865 -0.473938 1.223999 -0.7184448 1.9329834 -0.67974854c0.70892334 0.03869629 1.3734741 0.35742188 1.8474731 0.8861084l7.147888 7.9733887c0.9869995 1.1009521 0.8945923 2.793518 -0.20635986 3.7804565l-12.714722 11.3984375c-1.1009521 0.9869385 -2.793457 0.8945923 -3.7804565 -0.20635986z" fill-rule="evenodd"/><path fill="#3c3c3c" d="m409.54303 25.441599l0 0c0.7972717 -2.4324207 3.4160767 -3.7598343 5.849243 -2.9648628l81.708374 26.695951c1.168457 0.38175964 2.136963 1.2119064 2.6924438 2.3078156c0.5555115 1.0959091 0.65249634 2.3678093 0.2696228 3.5359l-5.774231 17.616623c-0.7972717 2.4324188 -3.4160767 3.7598343 -5.849243 2.964859l-81.708374 -26.69595c-2.433197 -0.7949753 -3.7593384 -3.411293 -2.9620667 -5.8437157z" fill-rule="evenodd"/><path fill="#0c2969" d="m416.13397 735.859l119.95154 -26.603271l3.378662 15.226379l-119.95151 26.603271z" fill-rule="evenodd"/><path fill="#2563eb" d="m419.46643 751.08765l119.95154 -26.603271l3.378662 15.226379l-119.95154 26.603271z" fill-rule="evenodd"/><path fill="#0c2969" d="m422.82388 766.20135l119.95151 -26.603271l5.2334595 23.523987l-119.95154 26.603271z" fill-rule="evenodd"/></g></svg>