<svg version="1.1" viewBox="0.0 0.0 864.0 864.0" fill="none" stroke="none" stroke-linecap="square" stroke-miterlimit="10" xmlns:xlink="http://www.w3.org/1999/xlink" xmlns="http://www.w3.org/2000/svg"><clipPath id="g3b286219087_0_341.0"><path d="m0 0l864.0 0l0 864.0l-864.0 0l0 -864.0z" clip-rule="nonzero"/></clipPath><g clip-path="url(#g3b286219087_0_341.0)"><path fill="#9a4600" d="m243.68002 31.171547l0 0c0 -17.220984 13.960358 -31.181347 31.181335 -31.181347l124.72165 0l0 0c8.269836 0 16.200928 3.2851682 22.048553 9.132805c5.8476257 5.847637 9.1328125 13.778735 9.1328125 22.048542l0 801.6561c0 17.221008 -13.960358 31.181396 -31.181366 31.181396l-124.72165 0c-17.220978 0 -31.181335 -13.960388 -31.181335 -31.181396z" fill-rule="evenodd"/><path fill="#c16a22" d="m307.75693 20.488487l0 0c0 -11.320892 9.177399 -20.498287 20.498291 -20.498287l81.99069 0l0 0c5.4364624 0 10.650299 2.1596348 14.494476 6.0038095c3.8441772 3.8441749 6.0038147 9.057995 6.0038147 14.494478l0 823.02234c0 11.320862 -9.177399 20.498291 -20.498291 20.498291l-81.99069 0c-11.320892 0 -20.498291 -9.177429 -20.498291 -20.498291z" fill-rule="evenodd"/><path fill="#d1e8ff" d="m89.451485 117.94042l0 0c0 -45.614243 36.977654 -82.59189 82.591896 -82.59189l330.35767 0l0 0c21.904694 0 42.912262 8.701622 58.401276 24.190605c15.488953 15.488983 24.190613 36.49655 24.190613 58.401283l0 330.35764c0 45.614227 -36.97766 82.59189 -82.59189 82.59189l-330.35767 0c-45.614243 0 -82.591896 -36.97766 -82.591896 -82.59189z" fill-rule="evenodd"/><path fill="#e7f2ff" d="m153.52838 107.25736l0 0c0 -39.71415 32.19467 -71.90883 71.90883 -71.90883l287.6267 0l0 0c19.071411 0 37.361694 7.576088 50.84723 21.061607c13.485535 13.485527 21.061584 31.775818 21.061584 50.84722l0 351.72375c0 39.714172 -32.19464 71.908844 -71.90881 71.908844l-287.6267 0c-39.714157 0 -71.90883 -32.19467 -71.90883 -71.908844z" fill-rule="evenodd"/><path fill="#fb5c4e" d="m207.0906 150.91675l0 0c0 -29.853416 24.200974 -54.054398 54.054382 -54.054398l216.21112 0l0 0c14.336121 0 28.085052 5.6949997 38.2222 15.832169c10.137207 10.137161 15.832214 23.886108 15.832214 38.22223l0 264.405c0 29.853424 -24.200989 54.054382 -54.054413 54.054382l-216.21112 0c-29.853409 0 -54.054382 -24.200958 -54.054382 -54.054382z" fill-rule="evenodd"/><path fill="#f73d35" d="m229.50238 145.39139l0 0c0 -12.903656 10.460495 -23.364143 23.364151 -23.364143l93.45378 0l0 0c6.1965637 0 12.139313 2.4615784 16.520935 6.8432083c4.381653 4.3816223 6.8432007 10.324387 6.8432007 16.520935l0 114.36203c0 12.903656 -10.46048 23.364136 -23.364136 23.364136l-93.45378 0c-12.903656 0 -23.364151 -10.46048 -23.364151 -23.364136z" fill-rule="evenodd"/><path fill="#f73d35" d="m369.67606 306.48508l0 0c0 -12.903656 10.46048 -23.364136 23.364136 -23.364136l93.4538 0l0 0c6.1965637 0 12.139313 2.4615479 16.520935 6.84317c4.3816223 4.381653 6.8432007 10.324402 6.8432007 16.520966l0 114.36203c0 12.903656 -10.46048 23.364136 -23.364136 23.364136l-93.4538 0c-12.903656 0 -23.364136 -10.46048 -23.364136 -23.364136z" fill-rule="evenodd"/><path fill="#e7f2ff" d="m259.7245 193.81596l0 0c0 -20.163605 16.345825 -36.50943 36.5094 -36.50943l146.03333 0l0 0c9.682892 0 18.969208 3.846527 25.81607 10.693359c6.8468323 6.8468475 10.693359 16.133163 10.693359 25.81607l0 178.60655c0 20.163605 -16.345825 36.50943 -36.50943 36.50943l-146.03333 0c-20.163574 0 -36.5094 -16.345825 -36.5094 -36.50943z" fill-rule="evenodd"/><path fill="#f73d35" d="m308.18747 232.98158l0 0c0 -11.320892 9.177399 -20.498276 20.498291 -20.498276l81.99069 0l0 0c5.4364624 0 10.650299 2.1596222 14.494476 6.0037994c3.8441772 3.8441772 6.0038147 9.057999 6.0038147 14.494476l0 100.275314c0 11.320892 -9.177399 20.498291 -20.498291 20.498291l-81.99069 0c-11.320892 0 -20.498291 -9.177399 -20.498291 -20.498291z" fill-rule="evenodd"/><path fill="#f69b50" d="m359.856 561.3645l0 0c0 -4.904358 3.9757385 -8.880127 8.880096 -8.880127l35.51944 0l0 0c2.3551636 0 4.613861 0.9356079 6.2792053 2.6009521c1.6653442 1.6653442 2.6009216 3.9240112 2.6009216 6.279175l0 170.979c0 4.904358 -3.975769 8.880127 -8.880127 8.880127l-35.51944 0c-4.904358 0 -8.880096 -3.975769 -8.880096 -8.880127z" fill-rule="evenodd"/><path fill="#f69b50" d="m359.856 770.60834l0 0c0 -4.904358 3.9757385 -8.880127 8.880096 -8.880127l35.51944 0l0 0c2.3551636 0 4.613861 0.9356079 6.2792053 2.6009521c1.6653442 1.6653442 2.6009216 3.9240112 2.6009216 6.279175l0 55.136047c0 4.904358 -3.975769 8.880127 -8.880127 8.880127l-35.51944 0c-4.904358 0 -8.880096 -3.975769 -8.880096 -8.880127z" fill-rule="evenodd"/><path fill="#f3f3f3" d="m348.1326 260.751l0 0c0 -4.2137756 3.415924 -7.6296997 7.6296997 -7.6296997l30.517914 0l0 0c2.023529 0 3.9641724 0.80384827 5.3950195 2.2346954c1.4308472 1.4308319 2.2347107 3.3714752 2.2347107 5.3950043l0 30.871704c0 4.2137756 -3.4159546 7.6296997 -7.62973 7.6296997l-30.517914 0l0 0c-4.2137756 0 -7.6296997 -3.415924 -7.6296997 -7.6296997z" fill-rule="evenodd"/><path fill="#c16a22" d="m423.75616 266.9256l0 0c0 -2.5575256 2.0732727 -4.6307983 4.630768 -4.6307983l325.80093 0c1.2281494 0 2.4060059 0.48788452 3.274414 1.3563232c0.86846924 0.8684387 1.3563232 2.0462952 1.3563232 3.274475l0 18.522522c0 2.5575256 -2.0732422 4.6307983 -4.6307373 4.6307983l-325.80093 0c-2.557495 0 -4.630768 -2.0732727 -4.630768 -4.6307983z" fill-rule="evenodd"/><path fill="#f3f3f3" d="m370.28137 237.74443l0 0c0 -4.246338 3.4423523 -7.688675 7.68869 -7.688675l48.44214 0c2.039154 0 3.994812 0.8100586 5.4367065 2.2519684c1.4418945 1.4418945 2.2519531 3.3975372 2.2519531 5.4367065l0 30.753769c0 4.246338 -3.4423218 7.6886597 -7.6886597 7.6886597l-48.44214 0c-4.246338 0 -7.68869 -3.4423218 -7.68869 -7.6886597z" fill-rule="evenodd"/><path fill="#cfcfcf" d="m370.28137 283.87552l0 0c0 -4.246338 3.4423523 -7.6886597 7.68869 -7.6886597l48.44214 0c2.039154 0 3.994812 0.8100586 5.4367065 2.2519531c1.4418945 1.441925 2.2519531 3.3975525 2.2519531 5.4367065l0 30.753784c0 4.246338 -3.4423218 7.6886597 -7.6886597 7.6886597l-48.44214 0c-4.246338 0 -7.68869 -3.4423218 -7.68869 -7.6886597z" fill-rule="evenodd"/><path fill="#9a4600" d="m540.47345 266.9256l0 0c0 -2.5575256 2.0733032 -4.6307983 4.6307983 -4.6307983l209.07678 0c1.2282104 0 2.406067 0.48788452 3.274475 1.3563232c0.86846924 0.8684387 1.3563232 2.0462952 1.3563232 3.274475l0 18.522522c0 2.5575256 -2.0732422 4.6307983 -4.6307983 4.6307983l-209.07678 0c-2.557495 0 -4.6307983 -2.0732727 -4.6307983 -4.6307983z" fill-rule="evenodd"/><path fill="#f73d35" d="m640.6725 283.568l0 0c0 -4.076477 3.3046265 -7.381134 7.3811035 -7.381134l66.32556 0c1.9575806 0 3.835022 0.7776489 5.2192383 2.1618958c1.3842163 1.3842163 2.1618652 3.2616272 2.1618652 5.2192383l0 29.52359c0 4.0765076 -3.3046265 7.381134 -7.3811035 7.381134l-66.32556 0c-4.076477 0 -7.3811035 -3.3046265 -7.3811035 -7.381134z" fill-rule="evenodd"/><path fill="#f73d35" d="m728.77216 283.81656l0 0c0 -4.2137756 3.4159546 -7.6296997 7.6296997 -7.6296997l30.517944 0l0 0c2.0234985 0 3.9641724 0.803833 5.3950195 2.2346802c1.4308472 1.4308472 2.2346802 3.3714905 2.2346802 5.3950195l0 35.932922c0 4.2137756 -3.4159546 7.62973 -7.6296997 7.62973l-30.517944 0c-4.213745 0 -7.6296997 -3.4159546 -7.6296997 -7.62973z" fill-rule="evenodd"/><path fill="#fb5c4e" d="m640.6725 239.28212l0 0c0 -4.076477 3.3046265 -7.381119 7.3811035 -7.381119l66.32556 0c1.9575806 0 3.835022 0.7776489 5.2192383 2.1618805c1.3842163 1.3842316 2.1618652 3.2616425 2.1618652 5.2192383l0 29.523605c0 4.0765076 -3.3046265 7.381134 -7.3811035 7.381134l-66.32556 0c-4.076477 0 -7.3811035 -3.3046265 -7.3811035 -7.381134z" fill-rule="evenodd"/><path fill="#fb5c4e" d="m728.77216 232.61983l0 0c0 -4.2137604 3.4159546 -7.6296997 7.6296997 -7.6296997l30.517944 0l0 0c2.0234985 0 3.9641724 0.803833 5.3950195 2.2346802c1.4308472 1.4308472 2.2346802 3.3715057 2.2346802 5.3950195l0 35.932938c0 4.2137756 -3.4159546 7.6296997 -7.6296997 7.6296997l-30.517944 0c-4.213745 0 -7.6296997 -3.415924 -7.6296997 -7.6296997z" fill-rule="evenodd"/></g></svg>