<svg version="1.1" viewBox="0.0 0.0 864.0 864.0" fill="none" stroke="none" stroke-linecap="square" stroke-miterlimit="10" xmlns:xlink="http://www.w3.org/1999/xlink" xmlns="http://www.w3.org/2000/svg"><clipPath id="g3b286219087_0_501.0"><path d="m0 0l864.0 0l0 864.0l-864.0 0l0 -864.0z" clip-rule="nonzero"/></clipPath><g clip-path="url(#g3b286219087_0_501.0)"><path fill="#f3f3f3" d="m0.005512336 400.7294l0 0c0 -8.537781 6.921229 -15.459015 15.458997 -15.459015l61.834137 0l0 0c4.0999756 0 8.032036 1.6287231 10.93116 4.527832c2.8991241 2.8991394 4.527832 6.8312073 4.527832 10.931183l0 62.5513c0 8.53775 -6.9212265 15.458984 -15.458992 15.458984l-61.834137 0l0 0c-8.537767 0 -15.458997 -6.921234 -15.458997 -15.458984z" fill-rule="evenodd"/><path fill="#c16a22" d="m153.23082 413.24014l0 0c0 -5.1819153 4.2007904 -9.382721 9.382721 -9.382721l660.124 0c2.4884644 0 4.875 0.9885559 6.6345825 2.7481384c1.7595825 1.759613 2.748108 4.1461487 2.748108 6.6345825l0 37.529785c0 5.181946 -4.2007446 9.382721 -9.38269 9.382721l-660.124 0c-5.1819305 0 -9.382721 -4.200775 -9.382721 -9.382721z" fill-rule="evenodd"/><path fill="#f3f3f3" d="m44.88247 354.1143l0 0c0 -8.60379 6.974743 -15.578552 15.578526 -15.578552l98.15129 0c4.1316833 0 8.094147 1.6413269 11.015686 4.562866c2.9215393 2.9215393 4.5628357 6.8840027 4.5628357 11.015686l0 62.312225c0 8.60379 -6.9747467 15.578522 -15.578522 15.578522l-98.15129 0c-8.603783 0 -15.578526 -6.9747314 -15.578526 -15.578522z" fill-rule="evenodd"/><path fill="#cfcfcf" d="m44.88247 447.58356l0 0c0 -8.60376 6.974743 -15.578522 15.578526 -15.578522l98.15129 0c4.1316833 0 8.094147 1.6412964 11.015686 4.5628357c2.9215393 2.9215698 4.5628357 6.8840027 4.5628357 11.015686l0 62.312256c0 8.60376 -6.9747467 15.578491 -15.578522 15.578491l-98.15129 0c-8.603783 0 -15.578526 -6.9747314 -15.578526 -15.578491z" fill-rule="evenodd"/><path fill="#9a4600" d="m389.71848 413.24014l0 0c0 -5.1819153 4.2008057 -9.382721 9.382721 -9.382721l423.62262 0c2.4884033 0 4.874939 0.9885559 6.6345825 2.7481384c1.7595825 1.759613 2.748108 4.1461487 2.748108 6.6345825l0 37.529785c0 5.181946 -4.2008057 9.382721 -9.38269 9.382721l-423.62262 0c-5.1819153 0 -9.382721 -4.200775 -9.382721 -9.382721z" fill-rule="evenodd"/><path fill="#35ad05" d="m592.73755 446.96042l0 0c0 -8.259613 6.6957397 -14.955383 14.955383 -14.955383l134.38593 0c3.9663696 0 7.7703857 1.5756531 10.575012 4.3803406c2.8046875 2.8046875 4.380371 6.6086426 4.380371 10.575043l0 59.819763c0 8.259613 -6.6957397 14.955353 -14.955383 14.955353l-134.38593 0c-8.259644 0 -14.955383 -6.6957397 -14.955383 -14.955353z" fill-rule="evenodd"/><path fill="#35ad05" d="m771.2414 447.46405l0 0c0 -8.537781 6.9212036 -15.459015 15.458984 -15.459015l61.834106 0l0 0c4.0999756 0 8.032043 1.6287231 10.931152 4.527832c2.89917 2.8991394 4.527832 6.8311768 4.527832 10.931183l0 72.80621c0 8.537781 -6.9212036 15.458984 -15.458984 15.458984l-61.834106 0c-8.537781 0 -15.458984 -6.9212036 -15.458984 -15.458984z" fill-rule="evenodd"/><path fill="#51de18" d="m592.73755 357.22992l0 0c0 -8.259644 6.6957397 -14.955414 14.955383 -14.955414l134.38593 0c3.9663696 0 7.7703857 1.5756531 10.575012 4.3803406c2.8046875 2.8046875 4.380371 6.6086426 4.380371 10.575073l0 59.819733c0 8.259644 -6.6957397 14.955383 -14.955383 14.955383l-134.38593 0c-8.259644 0 -14.955383 -6.6957397 -14.955383 -14.955383z" fill-rule="evenodd"/><path fill="#51de18" d="m771.2414 343.73093l0 0c0 -8.537781 6.9212036 -15.458984 15.458984 -15.458984l61.834106 0l0 0c4.0999756 0 8.032043 1.6286926 10.931152 4.527832c2.89917 2.899109 4.527832 6.8311768 4.527832 10.931152l0 72.80621c0 8.537781 -6.9212036 15.458984 -15.458984 15.458984l-61.834106 0c-8.537781 0 -15.458984 -6.9212036 -15.458984 -15.458984z" fill-rule="evenodd"/></g></svg>