<svg version="1.1" viewBox="0.0 0.0 864.0 864.0" fill="none" stroke="none" stroke-linecap="square" stroke-miterlimit="10" xmlns:xlink="http://www.w3.org/1999/xlink" xmlns="http://www.w3.org/2000/svg"><clipPath id="g3ba5a0e47bc_0_0.0"><path d="m0 0l864.0 0l0 864.0l-864.0 0l0 -864.0z" clip-rule="nonzero"/></clipPath><g clip-path="url(#g3ba5a0e47bc_0_0.0)"><path fill="#fa5433" d="m335.10782 327.0273l0 0c0.41708374 -1.1443176 1.6828918 -1.7338562 2.8272095 -1.3167725l8.28775 3.0207825l0 0c0.54953 0.20031738 0.99697876 0.61068726 1.243927 1.1408997c0.24694824 0.5302124 0.27313232 1.1368103 0.07284546 1.6863403l-4.8069153 13.18808c-0.41711426 1.1443176 -1.6828918 1.7338562 -2.8272095 1.3167725l-8.28775 -3.020813c-1.1443481 -0.41708374 -1.7338867 -1.6828613 -1.3167725 -2.8272095z" fill-rule="evenodd"/><path fill="#fa5433" d="m351.815 333.1169l0 0c0.41711426 -1.1443176 1.6828918 -1.7338562 2.82724 -1.3167725l8.28772 3.0207825l0 0c0.54953 0.20031738 0.99697876 0.61068726 1.243927 1.1408997c0.24694824 0.5302124 0.27316284 1.1368103 0.07284546 1.6863403l-4.8069153 13.18808c-0.41708374 1.1443176 -1.6828613 1.7338562 -2.8272095 1.3167725l-8.28775 -3.020813c-1.1443176 -0.41708374 -1.7338562 -1.6828613 -1.3167725 -2.8272095z" fill-rule="evenodd"/><path fill="#55a1ea" d="m298.19193 341.8658l0 0c0.43917847 -1.204895 1.7719421 -1.8256226 2.9768066 -1.3864441l20.894897 7.615967c0.57858276 0.21087646 1.0497131 0.6430054 1.3097229 1.2012634c0.26000977 0.55825806 0.28759766 1.1969299 0.07672119 1.7755432l-3.1806335 8.726227c-0.43917847 1.204895 -1.7719421 1.8256226 -2.9768066 1.3864441l-20.894867 -7.6159363c-1.204895 -0.43917847 -1.8256226 -1.7719421 -1.3864441 -2.9768066z" fill-rule="evenodd"/><path fill="#fa5433" d="m319.60852 339.14066l0 0c1.8305969 -5.0223694 7.386017 -7.6097717 12.408356 -5.7792053l36.373962 13.257935l0 0c2.4118347 0.87908936 4.375641 2.6802673 5.4594727 5.0072937c1.0838013 2.3269958 1.198822 4.989258 0.31973267 7.401062l-17.968994 49.29904c-1.8305969 5.022339 -7.3859863 7.6097717 -12.408356 5.779175l-36.373962 -13.257935c-5.022339 -1.8305969 -7.6097717 -7.3859863 -5.779175 -12.408356z" fill-rule="evenodd"/><path fill="#55a1ea" d="m338.9043 348.7165l0 0c0.9677124 -2.6549988 3.90448 -4.0227966 6.5594482 -3.0550842l44.94699 16.38272c1.2749634 0.46472168 2.3131104 1.4168701 2.8860474 2.6470032c0.572937 1.230133 0.633728 2.6374817 0.16900635 3.912445l-7.008545 19.228424c-0.9677124 2.6549683 -3.90448 4.022766 -6.5594482 3.0550842l-44.94702 -16.38272c-2.6549683 -0.9677124 -4.022766 -3.90448 -3.0550537 -6.5594482z" fill-rule="evenodd"/><path fill="#55a1ea" d="m334.64575 360.4l0 0c0.93130493 -2.5550537 3.7575684 -3.871399 6.3126526 -2.940094l18.504883 6.7448425l0 0c1.2269897 0.4472351 2.2260742 1.3635559 2.7774353 2.5473938c0.5513916 1.1838379 0.6098938 2.5382385 0.16268921 3.7652283l-13.937286 38.237823c-0.93130493 2.5550537 -3.7575684 3.871399 -6.3126526 2.940094l-18.504883 -6.7448425c-2.5550842 -0.93130493 -3.871399 -3.7575378 -2.940094 -6.312622z" fill-rule="evenodd"/><path fill="#55a1ea" d="m292.90442 314.42035l0 0c0.7095337 -1.9465942 2.8627014 -2.9494324 4.809265 -2.2399292l14.097931 5.13855l0 0c0.93478394 0.34072876 1.6959229 1.0388184 2.1159973 1.9407349c0.42007446 0.9019165 0.46463013 1.9337463 0.123931885 2.8685303l-14.045197 38.533844c-0.7095032 1.9465942 -2.862671 2.9494324 -4.809265 2.2399292l-14.097931 -5.13855c-1.9465637 -0.7095032 -2.9494019 -2.8627014 -2.2398987 -4.809265z" fill-rule="evenodd"/><path fill="#fe6a3d" d="m262.75452 353.87463l0 0c1.7677002 -4.8497925 7.1322327 -7.348297 11.982025 -5.580597l35.124237 12.802399l0 0c2.328949 0.84887695 4.2253113 2.5881653 5.271881 4.8352356c1.0465698 2.2470703 1.1576233 4.8178406 0.30874634 7.1467896l-21.10968 57.91574c-1.7677002 4.8497925 -7.1322327 7.3483276 -11.982025 5.5806274l-35.124237 -12.802399c-4.8497925 -1.7677002 -7.3483276 -7.1322327 -5.5806274 -11.982025z" fill-rule="evenodd"/><path fill="#f73d35" d="m261.1291 389.5277l0 0c3.5596924 -9.766174 14.362427 -14.797546 24.128601 -11.2378845l86.51715 31.534607c4.6898804 1.7094116 8.508636 5.211853 10.61615 9.736847c2.1075134 4.524994 2.3311462 9.701843 0.6217346 14.391724l-25.78064 70.730835c-3.5596924 9.766174 -14.362427 14.797546 -24.128601 11.237854l-86.51715 -31.534576c-9.76619 -3.5596619 -14.797562 -14.362396 -11.2378845 -24.128601z" fill-rule="evenodd"/><path fill="#fb5c4e" d="m273.2969 395.85635l0 0c0.8783264 -2.4097595 3.5438538 -3.6512146 5.9536133 -2.7728882l17.452484 6.3612366l0 0c1.157196 0.42181396 2.0994568 1.2860107 2.6194763 2.4025269c0.52001953 1.1165161 0.5751953 2.3938904 0.15341187 3.551117l-10.448944 28.667358c-0.8783264 2.4097595 -3.5438538 3.6512146 -5.9536133 2.7728882l-17.452484 -6.361267c-2.4097595 -0.8783264 -3.651245 -3.5438538 -2.7729187 -5.9536133z" fill-rule="evenodd"/><path fill="#e03027" d="m333.64804 398.27487l0 0c0.41708374 -1.1443481 1.6828613 -1.7338867 2.8272095 -1.3167725l8.28775 3.0207825l0 0c0.54953 0.20028687 0.99697876 0.61068726 1.243927 1.1408997c0.24691772 0.5302124 0.27313232 1.1367798 0.07284546 1.6863098l-19.911041 54.627197c-0.41711426 1.1443481 -1.6828918 1.7338867 -2.82724 1.316803l-8.28772 -3.020813c-1.1443481 -0.41708374 -1.7338867 -1.6828918 -1.3167725 -2.8272095z" fill-rule="evenodd"/><path fill="#e03027" d="m333.05865 427.03082l0 0c0.36080933 -0.9899292 1.4558105 -1.499939 2.4457703 -1.1391296l17.562195 6.401245c0.47540283 0.17327881 0.8624878 0.5283203 1.0761108 0.986969c0.21362305 0.4586792 0.2362976 0.98342896 0.0630188 1.4588013l-2.6132202 7.1695557c-0.36083984 0.9899597 -1.4558411 1.499939 -2.4457703 1.1391296l-17.562225 -6.401245c-0.9899292 -0.36083984 -1.499939 -1.4558411 -1.1391296 -2.4457703z" fill-rule="evenodd"/><path fill="#e03027" d="m324.6461 474.1069l0 0c0.41711426 -1.1443481 1.6828918 -1.7338867 2.82724 -1.3167725l8.28772 3.0207825l0 0c0.54953 0.20028687 0.99697876 0.61068726 1.243927 1.1408997c0.24694824 0.5302124 0.27316284 1.1367798 0.07284546 1.6863098l-3.2605286 8.945526c-0.41708374 1.1443176 -1.6828918 1.7338562 -2.8272095 1.3167725l-8.28775 -3.020813l0 0c-1.1443176 -0.41708374 -1.7338867 -1.6828918 -1.3167725 -2.8272095z" fill-rule="evenodd"/><path fill="#1d69b2" d="m380.4825 369.07797l0 0c0.24609375 -0.67510986 0.99282837 -1.0229187 1.6679077 -0.77682495l4.8893433 1.7821045l0 0c0.32418823 0.11816406 0.5881653 0.36026 0.7338562 0.6730652c0.14569092 0.31277466 0.16113281 0.6706543 0.04296875 0.9948425l-3.8799133 10.644745c-0.24606323 0.67510986 -0.99279785 1.0228882 -1.6679077 0.77682495l-4.8893127 -1.7821045c-0.67510986 -0.24606323 -1.0228882 -0.99279785 -0.77682495 -1.6679077z" fill-rule="evenodd"/><path fill="#fb5c4e" d="m257.79294 438.39243l0 0c0.62786865 -1.7225647 2.5332336 -2.6099854 4.2557983 -1.9821472l19.94107 7.2683105c0.8272095 0.30151367 1.5007629 0.919281 1.872467 1.7173767c0.37173462 0.7981262 0.41119385 1.7112122 0.109680176 2.5384216l-4.54718 12.475464c-0.62786865 1.7225342 -2.5332336 2.6099854 -4.2557983 1.9821167l-19.94107 -7.2683105c-1.7225494 -0.62783813 -2.6099854 -2.5332336 -1.982132 -4.2557983z" fill-rule="evenodd"/><path fill="#f73d35" d="m351.11072 349.2645l0 0c-1.4442139 -4.52594 1.0540161 -9.365692 5.5799255 -10.809906l114.61856 -36.574646c2.1734314 -0.6935425 4.5333557 -0.49526978 6.5605774 0.551178c2.0272522 1.0464172 3.5557861 2.8553467 4.2493286 5.0287476l10.459625 32.778687c1.4442139 4.52594 -1.0539856 9.365692 -5.5799255 10.809906l-114.61856 36.574615l0 0c-4.5259094 1.4442139 -9.365662 -1.0539856 -10.8098755 -5.5799255z" fill-rule="evenodd"/><path fill="#e03027" d="m438.2543 333.97028l0 0c-0.57855225 -1.8130798 0.4222412 -3.7518616 2.235321 -4.330414l27.36789 -8.733063c0.8706665 -0.27783203 1.81604 -0.1984253 2.6281433 0.22079468c0.8121033 0.41918945 1.4244385 1.1438293 1.7022705 2.0144958l4.190094 13.1310425c0.57855225 1.8130798 -0.4222412 3.7518616 -2.235321 4.330414l-27.36789 8.733063c-1.8130798 0.57855225 -3.7518616 -0.4222412 -4.330414 -2.2352905z" fill-rule="evenodd"/><path fill="#e03027" d="m366.82324 351.11667l0 0c-0.2793579 -0.87545776 0.20388794 -1.811615 1.0793457 -2.090973l36.252533 -11.568146c0.42041016 -0.13415527 0.8768921 -0.09579468 1.269043 0.10662842c0.39212036 0.20239258 0.68777466 0.5523071 0.82192993 0.9727173l2.0232544 6.3404846c0.2793579 0.87545776 -0.20388794 1.811615 -1.0793457 2.090973l-36.252533 11.568146c-0.87545776 0.2793579 -1.8116455 -0.20388794 -2.0910034 -1.0793457z" fill-rule="evenodd"/><path fill="#e03027" d="m380.7702 349.9706l0 0c-0.32678223 -1.0240784 0.23849487 -2.1191711 1.2625732 -2.4459534l7.4167786 -2.3666687l0 0c0.49179077 -0.15692139 1.0257568 -0.112091064 1.4844666 0.124694824c0.45870972 0.23678589 0.8045654 0.64608765 0.9614868 1.1378479l5.101837 15.988251c0.32678223 1.0240784 -0.23849487 2.1191711 -1.2625732 2.4459534l-7.4167786 2.3666992c-1.0240784 0.32678223 -2.1191711 -0.23849487 -2.4459534 -1.2625732z" fill-rule="evenodd"/><path fill="#e03027" d="m391.09692 407.95132l0 0c-2.6246033 -8.225037 1.9154663 -17.020386 10.140472 -19.644989l75.00952 -23.935425c3.9497986 -1.260376 8.238495 -0.90008545 11.922638 1.0016174c3.684143 1.9017029 6.4619446 5.1890564 7.7223206 9.138855l19.008453 59.569122c2.6245728 8.225037 -1.9154663 17.020386 -10.140503 19.644989l-75.00949 23.935425c-8.225037 2.6246033 -17.020386 -1.9154358 -19.644989 -10.140472z" fill-rule="evenodd"/><path fill="#fb5c4e" d="m334.11575 387.70734l0 0c-1.5390625 -4.8231506 1.12323 -9.980743 5.9463806 -11.519806l170.60703 -54.44046c2.3161316 -0.7391052 4.831024 -0.5278015 6.9914246 0.5873413c2.1604004 1.1151733 3.7893066 3.0428772 4.5283813 5.359009l11.146545 34.931305c1.5390625 4.8231506 -1.12323 9.980743 -5.946411 11.519806l-170.607 54.44049c-4.8231506 1.5390625 -9.980743 -1.12323 -11.519806 -5.9463806z" fill-rule="evenodd"/><path fill="#fb5c4e" d="m338.8579 433.84805l0 0c-1.8873901 -5.914795 1.3774414 -12.239716 7.292206 -14.127106l56.457733 -18.015594c2.840393 -0.90634155 5.924469 -0.6472473 8.573822 0.7203064c2.649353 1.3675537 4.6469116 3.7315369 5.5532837 6.57193l13.669342 42.83731c1.8873901 5.914795 -1.3774414 12.239685 -7.2922363 14.127106l-56.457733 18.015564c-5.9147644 1.8874207 -12.239685 -1.3774109 -14.127075 -7.292206z" fill-rule="evenodd"/><path fill="#f73d35" d="m373.36255 464.16028l0 0c-0.5647583 -1.7698364 0.4121704 -3.6624146 2.1820068 -4.2271423l48.923767 -15.611511c0.84988403 -0.27120972 1.7727356 -0.19369507 2.5654602 0.21551514c0.7927551 0.4092102 1.3904724 1.1165771 1.6616821 1.9664612l4.0901794 12.817932c0.5647583 1.769867 -0.4121704 3.6624146 -2.1820068 4.227173l-48.923737 15.611511c-1.7698364 0.5647583 -3.6624146 -0.4121704 -4.227173 -2.1820068z" fill-rule="evenodd"/><path fill="#f73d35" d="m396.8666 426.03256l0 0c-0.6742554 -2.1130066 0.49209595 -4.372528 2.6051025 -5.0467834l15.303223 -4.8832397l0 0c1.0147095 -0.3237915 2.116455 -0.23123169 3.0629272 0.25732422c0.94644165 0.4885254 1.6600647 1.3330383 1.9838562 2.3477478l12.760834 39.990234c0.6742554 2.1130066 -0.49209595 4.3724976 -2.6051025 5.046753l-15.303223 4.8832703c-2.1130066 0.6742554 -4.372528 -0.49209595 -5.0467834 -2.6051025z" fill-rule="evenodd"/><path fill="#fc8076" d="m345.15503 422.30255l0 0c-0.36212158 -1.1348572 0.26431274 -2.3483887 1.3991699 -2.7105408l25.743652 -8.214752c0.5449829 -0.17391968 1.1367188 -0.12420654 1.64505 0.1381836c0.5083313 0.26239014 0.89160156 0.7159729 1.0654907 1.2609558l2.6227112 8.219116c0.3621521 1.1348572 -0.26428223 2.3484192 -1.3991394 2.7105408l-25.743652 8.214783c-1.1348877 0.36212158 -2.3484192 -0.26428223 -2.7105713 -1.3991394z" fill-rule="evenodd"/><path fill="#f73d35" d="m436.56866 385.03082l0 0c-0.57855225 -1.8130798 0.4222412 -3.7518616 2.2352905 -4.330414l57.221252 -18.259216c0.8706665 -0.27783203 1.81604 -0.1984253 2.6281433 0.22079468c0.8121338 0.41918945 1.4244385 1.1438293 1.7022705 2.0144958l4.190094 13.1310425c0.57855225 1.8130798 -0.4222107 3.7518616 -2.2352905 4.330414l-57.221252 18.259216c-1.8130798 0.57855225 -3.7518616 -0.4222107 -4.330414 -2.2352905z" fill-rule="evenodd"/><path fill="#f73d35" d="m493.76407 344.0101l0 0c-0.32678223 -1.0240479 0.23846436 -2.1191406 1.2625427 -2.4459229l7.4167786 -2.3666992l0 0c0.49179077 -0.15692139 1.0257568 -0.11206055 1.4844666 0.12472534c0.45870972 0.23675537 0.8045654 0.6460571 0.9614868 1.1378479l4.9519653 15.518585c0.32678223 1.0240784 -0.23849487 2.1191406 -1.2625732 2.4459229l-7.4167786 2.3666992c-1.0240784 0.32678223 -2.1191711 -0.23849487 -2.4459534 -1.2625732z" fill-rule="evenodd"/><path fill="#f73d35" d="m353.17828 390.2755l0 0c-0.2793579 -0.8754883 0.20388794 -1.8116455 1.0793457 -2.0910034l41.829834 -13.347839c0.42044067 -0.13415527 0.8769226 -0.095825195 1.269043 0.1065979c0.39215088 0.2024231 0.6878052 0.5523071 0.82196045 0.9727173l2.0232239 6.3404846c0.2793579 0.87545776 -0.20385742 1.8116455 -1.0793152 2.0910034l-41.829865 13.347839l0 0c-0.87545776 0.2793579 -1.8116455 -0.20388794 -2.0910034 -1.0793457z" fill-rule="evenodd"/><path fill="#fc8076" d="m395.4765 396.05753l0 0c-0.25350952 -0.7944031 0.18499756 -1.6438904 0.97940063 -1.8973694l26.976562 -8.608185c0.38146973 -0.12173462 0.7956848 -0.08694458 1.1515198 0.09674072c0.35583496 0.18365479 0.624115 0.50115967 0.7458496 0.8826599l1.835907 5.7533875c0.253479 0.7944031 -0.18499756 1.6438904 -0.97940063 1.8973694l-26.976562 8.608185c-0.7944031 0.25350952 -1.6438904 -0.18499756 -1.8973999 -0.97940063z" fill-rule="evenodd"/><path fill="#f73d35" d="m434.13342 414.14078l0 0c-0.6742554 -2.1130066 0.49206543 -4.372528 2.605072 -5.0467834l15.303223 -4.8832397l0 0c1.0147095 -0.3237915 2.116455 -0.23123169 3.0629272 0.25732422c0.94644165 0.4885254 1.6600647 1.3330383 1.9838562 2.3477478l9.66037 30.273956c0.6742554 2.112976 -0.49206543 4.3724976 -2.605072 5.046753l-15.303253 4.8832397c-2.112976 0.6742554 -4.3724976 -0.49206543 -5.046753 -2.605072z" fill-rule="evenodd"/><path fill="#f73d35" d="m468.1659 443.87405l0 0c-0.48284912 -1.5131531 0.35238647 -3.1312256 1.865509 -3.6140442l17.475525 -5.576416c0.72662354 -0.23187256 1.515625 -0.16558838 2.19339 0.18426514c0.6777649 0.34985352 1.1887817 0.95462036 1.4206543 1.6812439l3.4969482 10.958862c0.48284912 1.5131531 -0.35238647 3.131195 -1.8655396 3.6140442l-17.475494 5.576416c-1.5131531 0.48284912 -3.131195 -0.35238647 -3.6140442 -1.8655396z" fill-rule="evenodd"/><path fill="#fa5433" d="m727.62964 497.41138l0 0c0.3480835 -1.9823303 2.2372437 -3.3071594 4.2196045 -2.9590454l39.820312 6.9921875c0.9519043 0.1671753 1.7984619 0.70562744 2.3533936 1.4969482c0.55493164 0.7913208 0.7727661 1.7706909 0.60565186 2.7226257l-2.520996 14.356842c-0.3480835 1.9822998 -2.2372437 3.307129 -4.2195435 2.9590454l-39.820312 -6.9922485c-1.9823608 -0.3480835 -3.307129 -2.2372437 -2.9590454 -4.2195435z" fill-rule="evenodd"/><path fill="#f73d35" d="m599.62085 469.26157l0 0c0.26287842 -1.4970398 1.6895752 -2.4975586 3.1866455 -2.2346802l50.5708 8.879944c0.7189331 0.12625122 1.3582153 0.53289795 1.7773438 1.1304932c0.41906738 0.59762573 0.5835571 1.3372192 0.45733643 2.0561218l-1.9038086 10.842285c-0.26287842 1.4970398 -1.6895752 2.497528 -3.1866455 2.2346497l-50.5708 -8.879944c-1.4970703 -0.2628479 -2.4975586 -1.6895447 -2.2346802 -3.186615z" fill-rule="evenodd"/><path fill="#fdf0d9" d="m687.14685 346.24188l0 0c0.39263916 -2.2360535 2.5236206 -3.7304382 4.7597046 -3.337799l40.48645 7.109192c1.0737915 0.1885376 2.0286865 0.79592896 2.654663 1.6885376c0.62597656 0.89263916 0.8717041 1.997345 0.68310547 3.0711365l-2.843628 16.194489c-0.39263916 2.2360535 -2.5236206 3.7304382 -4.7597046 3.337799l-40.48645 -7.109192c-2.236023 -0.39263916 -3.7304077 -2.5236206 -3.3377686 -4.759674z" fill-rule="evenodd"/><path fill="#f1dfc6" d="m689.1144 354.85837l0 0c0.23779297 -1.3543091 1.5284424 -2.25943 2.8828125 -2.0216064l47.159607 8.280945c0.6503906 0.11419678 1.2287598 0.48208618 1.6078491 1.0227051c0.3791504 0.5406494 0.5279541 1.2097473 0.41375732 1.8601074l-1.72229 9.808563c-0.237854 1.3543396 -1.5285034 2.25943 -2.8828125 2.021637l-47.159668 -8.280975c-1.3543091 -0.23779297 -2.2593994 -1.5284729 -2.0216064 -2.8828125z" fill-rule="evenodd"/><path fill="#fdf0d9" d="m711.1774 285.29865l0 0c0.3670044 -2.0901794 2.3589478 -3.4870605 4.4490967 -3.1200256l15.137817 2.6581116l0 0c1.0037842 0.17623901 1.8963623 0.74398804 2.4815063 1.5783691c0.585083 0.8343811 0.81481934 1.8670044 0.6385498 2.8707275l-10.414734 59.31131c-0.3670044 2.0901794 -2.3589478 3.4870605 -4.4490967 3.1200256l-15.137817 -2.6581116c-2.090149 -0.3670349 -3.4870605 -2.3589478 -3.1200562 -4.449127z" fill-rule="evenodd"/><path fill="#fb5c4e" d="m644.51434 324.13507l0 0c0.84155273 -4.79245 5.4088135 -7.995331 10.201233 -7.1538086l34.709045 6.094696l0 0c2.3013916 0.4041443 4.3480225 1.7059326 5.689636 3.619049c1.3416138 1.9130859 1.8682861 4.280792 1.4641724 6.5822144l-6.7058105 38.189148c-0.84155273 4.79245 -5.4087524 7.995331 -10.201233 7.153778l-34.709045 -6.094696l0 0c-4.7924194 -0.8415222 -7.9953003 -5.408783 -7.1538086 -10.201233z" fill-rule="evenodd"/><path fill="#fb5c4e" d="m601.9423 372.8341l0 0c1.5192871 -8.652435 9.765137 -14.434967 18.417542 -12.915649l62.66461 11.00354l0 0c4.1550903 0.72961426 7.8500977 3.0799255 10.272278 6.5338745c2.4221191 3.4539795 3.3729858 7.728668 2.6434326 11.883728l-14.6640625 83.510895c-1.5192871 8.652435 -9.765137 14.434998 -18.417603 12.91568l-62.66461 -11.00354c-8.652405 -1.5193176 -14.434937 -9.765167 -12.915649 -18.417603z" fill-rule="evenodd"/><path fill="#fe6a3d" d="m731.06836 340.4362l0 0c0.67718506 -3.8568115 4.352783 -6.4343567 8.209595 -5.7571106l27.932617 4.904785l0 0c1.8520508 0.32522583 3.4991455 1.3728638 4.5787964 2.9124756c1.0796509 1.5395813 1.50354 3.4450378 1.1782837 5.297119l-6.8287964 38.889862c-0.6772461 3.8568115 -4.352783 6.4343567 -8.209595 5.7571106l-27.932617 -4.904785c-3.8568115 -0.6772461 -6.434387 -4.3528137 -5.757141 -8.209625z" fill-rule="evenodd"/><path fill="#fe6a3d" d="m712.82806 391.42618l0 0c1.5192871 -8.652435 9.765137 -14.434967 18.417542 -12.915649l62.66461 11.00354l0 0c4.1550903 0.72958374 7.8500977 3.079895 10.272278 6.5338745c2.4221191 3.453949 3.3729858 7.728668 2.6434326 11.8836975l-16.364197 93.19324c-1.5193481 8.652435 -9.765198 14.434998 -18.417603 12.915649l-62.66461 -11.00354c-8.652466 -1.5192871 -14.434998 -9.765137 -12.915649 -18.417572z" fill-rule="evenodd"/><path fill="#f1dfc6" d="m726.31445 285.4347l0 0c0.12976074 -0.7390137 0.8340454 -1.2329102 1.5730591 -1.1031494l5.352173 0.93981934l0 0c0.35491943 0.062316895 0.6704712 0.26306152 0.8773804 0.55807495c0.20684814 0.29501343 0.28808594 0.6600952 0.22576904 1.0149841l-9.283325 52.86801c-0.12976074 0.7390137 -0.8340454 1.2328796 -1.5730591 1.1031189l-5.352173 -0.93981934c-0.7390137 -0.12976074 -1.2329102 -0.8340454 -1.1031494 -1.5730591z" fill-rule="evenodd"/><path fill="#f73d35" d="m641.60645 405.49744l0 0c0.21276855 -1.2116089 1.3674316 -2.0213318 2.5790405 -1.8085632l38.958923 6.8409424c0.58184814 0.10217285 1.0992432 0.4312744 1.4384155 0.9149475c0.33917236 0.48364258 0.47229004 1.0822449 0.37017822 1.6640625l-1.5408325 8.774902c-0.21276855 1.2115784 -1.3674316 2.0213013 -2.5790405 1.8085632l-38.958923 -6.840973c-1.2116089 -0.21273804 -2.0213013 -1.3674011 -1.8085938 -2.57901z" fill-rule="evenodd"/><path fill="#f73d35" d="m645.16675 432.20316l0 0c0.15979004 -0.9102783 1.0273438 -1.5186157 1.9376221 -1.3587952l24.02771 4.2191467c0.4371338 0.07675171 0.8258667 0.32400513 1.0806885 0.68740845c0.25482178 0.3633728 0.3548584 0.81307983 0.2781372 1.2502136l-1.1576538 6.5926514c-0.15985107 0.9102783 -1.0273438 1.5186462 -1.9376221 1.3587952l-24.027771 -4.2191467l0 0c-0.9102783 -0.15982056 -1.5186157 -1.0273438 -1.3587646 -1.9376221z" fill-rule="evenodd"/><path fill="#f73d35" d="m606.2727 433.53674l0 0c0.26287842 -1.4970398 1.6895752 -2.497528 3.1866455 -2.2346497l13.047485 2.2910461c0.7189331 0.12625122 1.3582153 0.53289795 1.7772827 1.1304932c0.41912842 0.59762573 0.58361816 1.3372192 0.45739746 2.0561218l-1.9038696 10.842285c-0.26281738 1.4970398 -1.6895142 2.497528 -3.1865845 2.2346802l-13.047485 -2.2910767c-1.4970703 -0.26287842 -2.4975586 -1.6895752 -2.2346802 -3.186615z" fill-rule="evenodd"/><path fill="#fc8076" d="m608.8345 379.21625l0 0c0.36706543 -2.090149 2.3590088 -3.48703 4.4491577 -3.1200256l15.137817 2.6581116l0 0c1.0037231 0.17626953 1.8963013 0.74401855 2.4814453 1.5783997c0.585083 0.8343506 0.81481934 1.8670044 0.6385498 2.8707275l-4.2977295 24.475586c-0.36706543 2.090149 -2.3590088 3.48703 -4.4491577 3.1200256l-15.137817 -2.6581116c-2.090149 -0.3670349 -3.4870605 -2.3589783 -3.119995 -4.449127z" fill-rule="evenodd"/><path fill="#fa5433" d="m720.20984 410.0897l0 0c0.32354736 -1.8427734 2.079712 -3.0743103 3.9224854 -2.7507324l13.34613 2.3435059l0 0c0.8848877 0.15536499 1.671875 0.6559448 2.1877441 1.3915405c0.5158081 0.7356262 0.71832275 1.6460266 0.5629883 2.5309753l-5.713623 32.538452c-0.32354736 1.8427734 -2.079712 3.0743103 -3.9224854 2.7507324l-13.346069 -2.3434753c-1.8427734 -0.3236084 -3.0743408 -2.079773 -2.7507324 -3.9225159z" fill-rule="evenodd"/><path fill="#fa5433" d="m754.6065 426.68808l0 0c0.3236084 -1.8427734 2.079773 -3.0743103 3.9225464 -2.7507324l13.346069 2.3435059l0 0c0.88494873 0.15536499 1.671875 0.6559448 2.1877441 1.3915405c0.51586914 0.7356262 0.7183838 1.6460266 0.5629883 2.5309753l-5.713562 32.538452c-0.3236084 1.8427734 -2.079773 3.0743103 -3.9225464 2.7507324l-13.346069 -2.3434753c-1.8427734 -0.32357788 -3.0742798 -2.079773 -2.7507324 -3.9225159z" fill-rule="evenodd"/><path fill="#fa5433" d="m716.03827 462.94568l0 0c0.28515625 -1.6239319 1.8327637 -2.709198 3.456665 -2.4240723l14.138611 2.482666c0.7798462 0.13693237 1.4733276 0.57806396 1.9279175 1.2263184c0.45458984 0.6482239 0.63305664 1.450531 0.4961548 2.2303467l-2.0651855 11.761108c-0.28515625 1.6239319 -1.8327637 2.709198 -3.456665 2.4240723l-14.138611 -2.482666l0 0c-1.6239624 -0.28515625 -2.7092285 -1.8327637 -2.4240723 -3.456665z" fill-rule="evenodd"/><path fill="#fc8076" d="m650.74536 330.7035l0 0c0.25115967 -1.4304504 1.6143799 -2.3864136 3.0447998 -2.135254l10.359924 1.8191223l0 0c0.68688965 0.12063599 1.2977905 0.5091858 1.6981812 1.0802002c0.40045166 0.5710449 0.5576782 1.2777405 0.43701172 1.9646606l-3.355896 19.111877c-0.25115967 1.4304504 -1.6144409 2.3864136 -3.0448608 2.135254l-10.359863 -1.8191528c-1.4304199 -0.25115967 -2.3864136 -1.6143799 -2.135254 -3.0448303z" fill-rule="evenodd"/><path fill="#fa5433" d="m746.1608 362.70923l0 0c0.27233887 -1.5509644 1.7504272 -2.587494 3.3013916 -2.315155l11.232788 1.9724121l0 0c0.744812 0.13079834 1.4071655 0.5520935 1.8413086 1.1712036c0.4342041 0.6191406 0.60461426 1.3854065 0.47387695 2.130188l-3.642334 20.742828c-0.27233887 1.5509644 -1.7504272 2.587494 -3.3013916 2.315155l-11.232788 -1.9724121c-1.5509644 -0.27233887 -2.5875244 -1.7504272 -2.3151855 -3.3013916z" fill-rule="evenodd"/><path fill="#fa5433" d="m790.1489 417.25204l0 0c0.23614502 -1.3447876 1.5177612 -2.2435608 2.8625488 -2.0074158l9.739685 1.7102356l0 0c0.645813 0.11340332 1.2200928 0.47869873 1.5965576 1.0155334c0.37646484 0.5368347 0.52423096 1.2012329 0.41088867 1.8470154l-16.60028 94.53757c-0.23614502 1.3448486 -1.5177612 2.2435913 -2.8625488 2.0074463l-9.739685 -1.7102661c-1.3447876 -0.23608398 -2.2435303 -1.5177002 -2.0073853 -2.8625183z" fill-rule="evenodd"/><path fill="#f73d35" d="m678.6478 396.70114l0 0c0.2512207 -1.4304504 1.6144409 -2.386444 3.0448608 -2.135254l10.359863 1.8191223l0 0c0.6869507 0.12063599 1.2977905 0.5091858 1.6982422 1.0802002c0.40045166 0.5710144 0.5576172 1.27771 0.43701172 1.9646606l-15.190491 86.509155c-0.25115967 1.4304504 -1.6143799 2.3864136 -3.0448608 2.135254l-10.359863 -1.8191528c-1.4304199 -0.25115967 -2.3864136 -1.6143799 -2.135254 -3.0448303z" fill-rule="evenodd"/><path fill="#fa5433" d="m483.29404 495.0676l0 0c-1.1260681 -2.3041687 -0.17102051 -5.0849304 2.1331482 -6.2109985l16.883636 -8.25119l0 0c1.1065063 -0.5407715 2.3825073 -0.619812 3.5473022 -0.2197876c1.1647949 0.40005493 2.1229553 1.2464294 2.6637268 2.3529358l8.155457 16.687805c1.1260986 2.3041992 0.17102051 5.084961 -2.1331177 6.211029l-16.883667 8.25116c-2.3041687 1.1260986 -5.0849304 0.17102051 -6.2109985 -2.1331482z" fill-rule="evenodd"/><path fill="#e03027" d="m460.3151 510.31378l0 0c-1.4642334 -2.9961243 -0.22238159 -6.611969 2.7737427 -8.076202l22.928528 -11.205383l0 0c1.4388123 -0.7031555 3.097992 -0.8059387 4.6125793 -0.2857666c1.5145874 0.5201721 2.760498 1.6207275 3.463623 3.0595093l10.604614 21.69925c1.4642334 2.9960938 0.22238159 6.6119385 -2.7737427 8.076172l-22.928528 11.205383c-2.9961243 1.4642334 -6.611969 0.22241211 -8.076202 -2.7737427z" fill-rule="evenodd"/><path fill="#fe6a3d" d="m494.75333 404.93408l0 0c-0.7541504 -1.5431213 -0.11456299 -3.405426 1.4285889 -4.159546l11.175964 -5.4618225l0 0c0.74102783 -0.36212158 1.595581 -0.41506958 2.3756714 -0.14715576c0.7800598 0.26791382 1.4217529 0.8347168 1.783905 1.5757446l9.018555 18.453857c0.7541504 1.5431519 0.11456299 3.4054565 -1.4285889 4.1595764l-11.175964 5.461792c-1.5431519 0.7541504 -3.4054565 0.11456299 -4.1595764 -1.4285583z" fill-rule="evenodd"/><path fill="#55a1ea" d="m466.10754 411.05063l0 0c-0.83584595 -1.7103577 -0.12695312 -3.774475 1.5834045 -4.6103516l14.834869 -7.2499084c0.8213501 -0.4013977 1.7684937 -0.460083 2.6331177 -0.16314697c0.8645935 0.29696655 1.5758362 0.9252014 1.9772339 1.7465515l6.0536804 12.3871155c0.83587646 1.7103577 0.12695312 3.7745056 -1.5834045 4.6103516l-14.834839 7.249939c-1.7103577 0.83584595 -3.774475 0.12695312 -4.6103516 -1.5834045z" fill-rule="evenodd"/><path fill="#f73d35" d="m515.0062 424.59705l0 0c-1.9301147 -3.9494324 -0.29315186 -8.715759 3.656311 -10.645905l40.66803 -19.874817c1.8966064 -0.9268799 4.08374 -1.0624084 6.0802 -0.37670898c1.996521 0.68569946 3.638855 2.1364136 4.565735 4.0329895l13.978821 28.603546c1.9301147 3.949463 0.29315186 8.71579 -3.656311 10.645905l-40.66809 19.874847l0 0c-3.949463 1.9301147 -8.715759 0.29315186 -10.645874 -3.6562805z" fill-rule="evenodd"/><path fill="#fb5c4e" d="m430.66162 445.3668l0 0c-1.7519836 -3.5849304 -0.26608276 -7.911377 3.3188477 -9.663361l57.327087 -28.016235c1.7215271 -0.8413391 3.706787 -0.96435547 5.519043 -0.34194946c1.8122253 0.622406 3.3029785 1.9392395 4.1443176 3.660797l12.68869 25.963654c1.7519531 3.5849304 0.26605225 7.911377 -3.3188782 9.663361l-57.327057 28.016266c-3.584961 1.7519836 -7.911377 0.26608276 -9.663391 -3.3188477z" fill-rule="evenodd"/><path fill="#f73d35" d="m433.9008 477.10568l0 0c-2.4953613 -5.1060486 -0.3789978 -11.268188 4.7270203 -13.76355l60.73929 -29.683807c2.4519958 -1.1983337 5.279602 -1.3735046 7.860779 -0.4869995c2.5811462 0.8864746 4.7044373 2.762024 5.9027405 5.21402l18.07251 36.980103c2.4953613 5.1060486 0.37902832 11.268188 -4.727051 13.76355l-60.739227 29.683807c-5.1060486 2.4953613 -11.268219 0.37902832 -13.76358 -4.727051z" fill-rule="evenodd"/><path fill="#fb5c4e" d="m499.42636 416.4541l0 0c-0.545166 -1.1155396 -0.08279419 -2.461792 1.0327454 -3.0069885l8.079193 -3.9483643l0 0c0.53570557 -0.2618103 1.1534729 -0.30007935 1.7173767 -0.10638428c0.5639343 0.19366455 1.0278015 0.6034241 1.2896118 1.1391296l25.847168 52.888733c0.545166 1.115509 0.08282471 2.461792 -1.0327148 3.006958l-8.079224 3.9483948c-1.1155396 0.545166 -2.461792 0.08279419 -3.006958 -1.0327454z" fill-rule="evenodd"/><path fill="#e03027" d="m435.1235 479.60764l0 0c-0.4458313 -0.91226196 -0.067718506 -2.0131836 0.84454346 -2.459015l6.606964 -3.2288818l0 0c0.43807983 -0.21411133 0.9432678 -0.24539185 1.404419 -0.087005615c0.46115112 0.15838623 0.84051514 0.49346924 1.054596 0.9315491l20.560791 42.071655c0.4458313 0.91223145 0.067718506 2.0131836 -0.84454346 2.4590454l-6.606964 3.2288818c-0.91223145 0.44580078 -2.0131836 0.06768799 -2.459015 -0.84454346z" fill-rule="evenodd"/><path fill="#e03027" d="m466.8644 486.53476l0 0c-0.3944397 -0.8071289 -0.059906006 -1.7811584 0.7471924 -2.1756287l34.141052 -16.685028c0.38760376 -0.1894226 0.8345642 -0.21710205 1.2425537 -0.07696533c0.40802002 0.1401062 0.74365234 0.43658447 0.93307495 0.82418823l2.85672 5.8454285c0.3944397 0.8071289 0.059906006 1.781189 -0.7472229 2.1756287l-34.141052 16.685028c-0.8070984 0.3944397 -1.7811584 0.059906006 -2.1755981 -0.7472229z" fill-rule="evenodd"/><path fill="#e03027" d="m464.78506 468.271l0 0c-0.4458313 -0.91223145 -0.067718506 -2.0131836 0.84454346 -2.459015l6.606964 -3.2288818l0 0c0.43807983 -0.21408081 0.9432678 -0.24539185 1.404419 -0.087005615c0.46115112 0.15838623 0.84051514 0.49346924 1.054596 0.9315491l9.119598 18.660614c0.4458313 0.91226196 0.067718506 2.0131836 -0.84454346 2.459015l-6.606964 3.2288818c-0.91223145 0.4458313 -2.0131836 0.067718506 -2.459015 -0.84454346z" fill-rule="evenodd"/><path fill="#f73d35" d="m431.98816 448.06967l0 0c-0.4458313 -0.91226196 -0.067718506 -2.013214 0.84454346 -2.4590454l6.6069336 -3.2288818l0 0c0.43807983 -0.21408081 0.9432678 -0.24539185 1.4044495 -0.087005615c0.46115112 0.15838623 0.84051514 0.49346924 1.054596 0.9315491l9.119598 18.660614c0.4458313 0.91226196 0.067718506 2.013214 -0.84454346 2.4590454l-6.606964 3.2288513c-0.91226196 0.4458313 -2.0131836 0.067718506 -2.459015 -0.84454346z" fill-rule="evenodd"/><path fill="#fb5c4e" d="m547.2554 408.47598l0 0c-0.6268921 -1.2827759 -0.09515381 -2.8308716 1.187561 -3.4577637l9.290405 -4.540283l0 0c0.6159668 -0.3010559 1.326355 -0.34506226 1.9747925 -0.12234497c0.6484375 0.22271729 1.1818848 0.6939087 1.4829102 1.309906l9.963196 20.386658c0.6268921 1.2827759 0.095214844 2.8308716 -1.187561 3.4577637l-9.290344 4.540283c-1.2827759 0.6268921 -2.8308716 0.095214844 -3.4577637 -1.187561z" fill-rule="evenodd"/><path fill="#fb5c4e" d="m533.9954 414.12512l0 0c-0.44580078 -0.91223145 -0.06768799 -2.0131836 0.84454346 -2.459015l6.6069946 -3.2288818l0 0c0.43804932 -0.21408081 0.9432373 -0.24539185 1.404419 -0.087005615c0.4611206 0.15838623 0.84051514 0.49346924 1.0545654 0.9315491l5.05249 10.338379c0.44580078 0.91223145 0.06768799 2.0131836 -0.84454346 2.459015l-6.6069946 3.2288818c-0.91223145 0.4458313 -2.0131836 0.067718506 -2.4589844 -0.84454346z" fill-rule="evenodd"/><path fill="#f73d35" d="m452.33804 428.54236l0 0c-0.3944397 -0.8070984 -0.059906006 -1.7811584 0.7471924 -2.1755981l34.141052 -16.685028c0.38760376 -0.1894226 0.8345642 -0.21713257 1.2425537 -0.07699585c0.40802002 0.14013672 0.74365234 0.43658447 0.93307495 0.82418823l2.85672 5.845459c0.3944397 0.8070984 0.059906006 1.7811584 -0.7472229 2.1755981l-34.141052 16.685028c-0.8070984 0.3944397 -1.7811584 0.059906006 -2.1755981 -0.7471924z" fill-rule="evenodd"/><path fill="#f73d35" d="m478.40756 422.77066l0 0c-0.3107605 -0.63586426 -0.047210693 -1.4032593 0.5886841 -1.7140198l4.6052856 -2.2506409l0 0c0.3053589 -0.14923096 0.6575012 -0.17105103 0.9789429 -0.060668945c0.32144165 0.1104126 0.58584595 0.34399414 0.7350769 0.649353l3.15979 6.4655457c0.3107605 0.63586426 0.047180176 1.4032593 -0.5886841 1.7140198l-4.6052856 2.2506409c-0.6358948 0.3107605 -1.4032898 0.047210693 -1.7140503 -0.58865356z" fill-rule="evenodd"/><path fill="#fb5c4e" d="m484.72247 452.22922l0 0c-0.6269226 -1.2827759 -0.095214844 -2.8308716 1.1875305 -3.4577637l9.290375 -4.540283l0 0c0.6159973 -0.3010559 1.326355 -0.34506226 1.974823 -0.12234497c0.648468 0.22271729 1.1818848 0.6938782 1.4829407 1.309906l4.5402527 9.290344c0.6269226 1.2827759 0.095214844 2.8308716 -1.1875305 3.4577637l-9.290375 4.540283c-1.2827454 0.6268921 -2.830841 0.095214844 -3.4577637 -1.187561z" fill-rule="evenodd"/><path fill="#f73d35" d="m483.39078 507.23154l0 0c-0.6268921 -1.2827759 -0.095214844 -2.8308716 1.187561 -3.4577637l9.290344 -4.540283l0 0c0.6159973 -0.3010254 1.3263855 -0.34503174 1.974823 -0.12234497c0.648468 0.22271729 1.1818848 0.6939087 1.4829407 1.309906l6.0767517 12.434296c0.6268921 1.2827759 0.095214844 2.8308716 -1.187561 3.4577637l-9.290344 4.540283c-1.2827759 0.6268921 -2.8308716 0.095214844 -3.4577637 -1.187561z" fill-rule="evenodd"/><path fill="#fdf0d9" d="m142.31238 377.90982l0 0c2.2587738 2.0070496 2.4628448 5.4651794 0.45581055 7.723938l-14.535858 16.358978l0 0c-0.96380615 1.0847168 -2.319046 1.742096 -3.7675629 1.8275757c-1.4485168 0.08547974 -2.871666 -0.40795898 -3.9563675 -1.3717651l-31.853714 -28.303741c-2.2587738 -2.0070496 -2.4628372 -5.4651794 -0.4557953 -7.7239685l14.535843 -16.358978c2.007042 -2.2587585 5.465164 -2.4628296 7.723938 -0.45578003z" fill-rule="evenodd"/><path fill="#fdf0d9" d="m79.562416 332.98288l0 0c3.2016678 2.8448486 3.490921 7.746521 0.64606476 10.948212l-20.603645 23.187836l0 0c-1.3661499 1.5374756 -3.2871094 2.4692993 -5.3402977 2.590454c-2.0531845 0.1211853 -4.070408 -0.5782471 -5.6079025 -1.944397l-24.322384 -21.611755c-3.2016678 -2.8448486 -3.490921 -7.746521 -0.64606667 -10.948212l20.603647 -23.187836c2.8448563 -3.2016602 7.7465324 -3.4909058 10.9482 -0.6460571z" fill-rule="evenodd"/><path fill="#fdf0d9" d="m169.8767 395.7465l0 0c2.8525696 2.5346375 3.1102753 6.901825 0.57562256 9.754395l-18.357025 20.659424l0 0c-1.2171783 1.3698425 -2.9286804 2.2000732 -4.7579803 2.308014c-1.8293152 0.107940674 -3.6265717 -0.51519775 -4.9964294 -1.7323914l-90.677444 -80.57184c-2.8525581 -2.5346375 -3.1102715 -6.901825 -0.57561874 -9.754395l18.357025 -20.659424c2.5346527 -2.8525696 6.901848 -3.1102905 9.75441 -0.57562256z" fill-rule="evenodd"/><path fill="#fdf0d9" d="m100.2585 296.92294l0 0c3.2016678 2.8448792 3.490921 7.7465515 0.64606476 10.948212l-20.603645 23.187836l0 0c-1.3661499 1.5375061 -3.2871094 2.4693298 -5.340294 2.5904846c-2.0531845 0.121154785 -4.0704117 -0.5782776 -5.6079025 -1.9444275l-24.322384 -21.611755c-3.2016678 -2.8448486 -3.4909248 -7.746521 -0.6460686 -10.948181l20.603645 -23.187836c2.8448563 -3.2016907 7.7465363 -3.4909363 10.948204 -0.64608765z" fill-rule="evenodd"/><path fill="#f1dfc6" d="m73.04932 334.48718l0 0c0.5311279 0.47192383 0.5791092 1.2850647 0.107177734 1.8161926l-3.4179382 3.8466187l0 0c-0.22663116 0.25506592 -0.5452957 0.40963745 -0.8859024 0.42974854c-0.34059906 0.020111084 -0.67523956 -0.09591675 -0.93029785 -0.3225708l-26.24591 -23.320892c-0.5311241 -0.47195435 -0.5791092 -1.2850952 -0.10717392 -1.8162231l3.4179382 -3.8466187c0.47193527 -0.5311279 1.2850723 -0.57910156 1.8161964 -0.107177734z" fill-rule="evenodd"/><path fill="#fff8eb" d="m96.971016 302.18826l0 0c0.5520096 0.49047852 0.60188293 1.3356018 0.11138916 1.8876343l-12.510132 14.079193c-0.2355423 0.26507568 -0.56674194 0.42575073 -0.9207382 0.44662476c-0.35399628 0.020904541 -0.7017975 -0.09970093 -0.9668808 -0.3352356l-3.997902 -3.5523682c-0.5520096 -0.49047852 -0.60188293 -1.3356018 -0.11138916 -1.8876038l12.510132 -14.079193l0 0c0.49049377 -0.5520325 1.3356094 -0.6018982 1.887619 -0.11138916z" fill-rule="evenodd"/><path fill="#f1dfc6" d="m63.277832 333.14627l0 0c0.7638626 0.67871094 0.8328781 1.848175 0.15414047 2.61203l-6.1254196 6.8937073c-0.32593918 0.3668213 -0.78424835 0.58914185 -1.2741051 0.618042c-0.48985672 0.028900146 -0.9711342 -0.13796997 -1.3379555 -0.4638977l-5.5322304 -4.91568c-0.7638664 -0.67874146 -0.8328781 -1.8482056 -0.15414047 -2.6120605l6.1254196 -6.8937073c0.67873764 -0.763855 1.8481941 -0.83288574 2.6120605 -0.15414429z" fill-rule="evenodd"/><path fill="#fc8076" d="m262.06146 480.69025l0 0c2.6317444 2.33844 2.8695374 6.367584 0.5310669 8.999359l-16.93608 19.060242l0 0c-1.1229706 1.2638245 -2.7019806 2.0297852 -4.389694 2.129364c-1.6876984 0.099609375 -3.3458557 -0.47531128 -4.609665 -1.5982971l-27.293869 -24.252075c-2.6317596 -2.33844 -2.869522 -6.3676147 -0.5310669 -8.999359l16.93608 -19.060272c2.3384552 -2.6317444 6.3676147 -2.8695068 8.999359 -0.5310669z" fill-rule="evenodd"/><path fill="#fb5c4e" d="m240.43854 487.8663l0 0c1.2741089 1.1321106 1.3892212 3.0827332 0.2571106 4.356842l-8.199219 9.2276l0 0c-0.5436554 0.6118469 -1.3081055 0.982666 -2.1251678 1.0308838c-0.8170624 0.048217773 -1.619812 -0.23013306 -2.231659 -0.7738037l-32.210358 -28.620636c-1.2741089 -1.1321106 -1.3892059 -3.0827332 -0.25709534 -4.356842l8.1992035 -9.22757c1.1321106 -1.2741089 3.0827332 -1.3892212 4.356842 -0.2571106z" fill-rule="evenodd"/><path fill="#fb5c4e" d="m249.52864 419.52145l0 0c7.778885 6.911957 8.481674 18.821259 1.5697021 26.600159l-50.059372 56.337982l0 0c-3.3192444 3.7355652 -7.9864807 5.999542 -12.974976 6.2939453c-4.988495 0.29437256 -9.889618 -1.4049988 -13.625168 -4.724243l-101.42831 -90.12454c-7.7788925 -6.911957 -8.481674 -18.821259 -1.5697098 -26.600128l50.059372 -56.338013c6.911972 -7.7789 18.821259 -8.481689 26.600143 -1.5697021z" fill-rule="evenodd"/><path fill="#f73d35" d="m172.64993 475.35928l0 0c1.3964386 1.2408142 1.5225983 3.3787231 0.28178406 4.775177l-8.986496 10.113617l0 0c-0.5958557 0.67059326 -1.4337006 1.0769958 -2.3292236 1.1298523c-0.8955078 0.052856445 -1.7753448 -0.25222778 -2.445938 -0.8480835l-97.7658 -86.87021c-1.3964386 -1.2408142 -1.5225983 -3.3787231 -0.28178787 -4.775177l8.986492 -10.113586c1.2408142 -1.3964539 3.3787308 -1.5226135 4.7751694 -0.28179932z" fill-rule="evenodd"/><path fill="#f73d35" d="m222.33609 428.17313l0 0c1.0264435 0.91207886 1.1191711 2.4835205 0.2071228 3.5099792l-6.6054535 7.4339294l0 0c-0.43797302 0.49291992 -1.053833 0.7916565 -1.7120819 0.8305054c-0.65823364 0.03881836 -1.3049622 -0.18539429 -1.7978668 -0.62338257l-71.973694 -63.952515c-1.0264435 -0.91204834 -1.1191711 -2.4835205 -0.2071228 -3.5099792l6.6054535 -7.4339294c0.91204834 -1.0264282 2.4835052 -1.1191711 3.5099487 -0.2071228z" fill-rule="evenodd"/><path fill="#f73d35" d="m198.28543 455.24033l0 0c1.0264435 0.91204834 1.1191864 2.48349 0.20713806 3.5099487l-6.6054688 7.4339294l0 0c-0.43797302 0.49291992 -1.053833 0.7916565 -1.7120667 0.8305054c-0.6582489 0.038848877 -1.3049622 -0.18539429 -1.7978821 -0.62338257l-71.973694 -63.952515c-1.0264435 -0.91204834 -1.1191711 -2.4835205 -0.2071228 -3.5099487l6.6054535 -7.43396c0.91205597 -1.0264282 2.4835129 -1.1191711 3.5099564 -0.2071228z" fill-rule="evenodd"/><path fill="#fc8076" d="m244.92322 430.30856l0 0c1.3964386 1.2408142 1.5225983 3.3787231 0.28178406 4.775177l-8.986496 10.113617l0 0c-0.5958557 0.67059326 -1.4337006 1.0770264 -2.3292236 1.1298523c-0.8955078 0.052856445 -1.7753448 -0.25219727 -2.445938 -0.8480835l-31.767334 -28.22699c-1.3964386 -1.2408142 -1.5225983 -3.3787231 -0.28178406 -4.775177l8.986481 -10.113586c1.2408142 -1.3964539 3.3787384 -1.5226135 4.775177 -0.28179932z" fill-rule="evenodd"/><path fill="#3c3c3c" d="m52.31498 448.56232l0 0c0 -3.728363 3.0224304 -6.7507935 6.7507896 -6.7507935l511.6008 0c1.7904053 0 3.5075073 0.7112427 4.7734985 1.9772644c1.2660522 1.2660217 1.9772949 2.9831238 1.9772949 4.773529l0 27.00235c0 3.728363 -3.022461 6.7507935 -6.7507935 6.7507935l-511.6008 0c-3.7283592 0 -6.7507896 -3.0224304 -6.7507896 -6.7507935z" fill-rule="evenodd"/><path fill="#656565" d="m286.6285 448.56232l0 0c0 -3.728363 3.0224304 -6.7507935 6.7507935 -6.7507935l511.6008 0c1.7904053 0 3.5075073 0.7112427 4.7734985 1.9772644c1.2660522 1.2660217 1.9772949 2.9831238 1.9772949 4.773529l0 27.00235c0 3.728363 -3.022461 6.7507935 -6.7507935 6.7507935l-511.6008 0c-3.728363 0 -6.7507935 -3.0224304 -6.7507935 -6.7507935z" fill-rule="evenodd"/><path fill="#3c3c3c" d="m652.78784 455.62222l0 0c0 -1.7771912 1.4406738 -3.2178955 3.2178955 -3.2178955l69.37518 0c0.8534546 0 1.671936 0.33901978 2.2754517 0.9425049c0.6034546 0.6034546 0.9425049 1.4219666 0.9425049 2.2753906l0 12.871277c0 1.7771912 -1.4407349 3.2178955 -3.2179565 3.2178955l-69.37518 0c-1.7772217 0 -3.2178955 -1.4407043 -3.2178955 -3.2178955z" fill-rule="evenodd"/><path fill="#3c3c3c" d="m557.5295 455.62222l0 0c0 -1.7771912 1.4407349 -3.2178955 3.2178955 -3.2178955l69.375244 0c0.85339355 0 1.671936 0.33901978 2.2753906 0.9425049c0.6034546 0.6034546 0.9425049 1.4219666 0.9425049 2.2753906l0 12.871277c0 1.7771912 -1.4407349 3.2178955 -3.2178955 3.2178955l-69.375244 0c-1.7771606 0 -3.2178955 -1.4407043 -3.2178955 -3.2178955z" fill-rule="evenodd"/><path fill="#ffffff" d="m55.263096 482.3137l759.43304 0l0 117.13388l-759.43304 0z" fill-rule="evenodd"/></g></svg>