<svg version="1.1" viewBox="0.0 0.0 864.0 864.0" fill="none" stroke="none" stroke-linecap="square" stroke-miterlimit="10" xmlns:xlink="http://www.w3.org/1999/xlink" xmlns="http://www.w3.org/2000/svg"><clipPath id="g3b4e602337b_0_56.0"><path d="m0 0l864.0 0l0 864.0l-864.0 0l0 -864.0z" clip-rule="nonzero"/></clipPath><g clip-path="url(#g3b4e602337b_0_56.0)"><path fill="#653106" d="m540.26013 560.9811l0 0c0 -1.8398438 1.4915161 -3.331421 3.331421 -3.331421l93.31677 0c0.8835449 0 1.730896 0.35101318 2.3556519 0.97576904c0.62475586 0.62475586 0.97576904 1.4721069 0.97576904 2.3556519l0 13.325256c0 1.8399048 -1.4915161 3.331421 -3.331421 3.331421l-93.31677 0l0 0c-1.8399048 0 -3.331421 -1.4915161 -3.331421 -3.331421z" fill-rule="evenodd"/><path fill="#9a4600" d="m177.28624 310.5237l0 0c0 -30.59491 24.802078 -55.396988 55.396988 -55.396988l422.71863 0c14.6922 0 28.782593 5.836441 39.17157 16.225418c10.388977 10.388947 16.225403 24.47937 16.225403 39.17157l0 221.58133c0 30.59491 -24.802063 55.396973 -55.396973 55.396973l-422.71863 0c-30.59491 0 -55.396988 -24.802063 -55.396988 -55.396973z" fill-rule="evenodd"/><path fill="#c16a22" d="m177.28624 307.80753l0 0c0 -29.094788 23.585999 -52.6808 52.6808 -52.6808l210.71692 0l0 0c13.971802 0 27.371368 5.5502777 37.250946 15.429855c9.879578 9.879578 15.429871 23.279144 15.429871 37.250946l0 227.0137c0 29.094788 -23.58603 52.680786 -52.680817 52.680786l-210.71692 0l0 0c-29.094803 0 -52.6808 -23.585999 -52.6808 -52.680786z" fill-rule="evenodd"/><path fill="#3c3c3c" d="m199.48824 323.86594l0 0c0 -26.91153 21.816101 -48.72763 48.727615 -48.72763l391.64377 0c12.923401 0 25.317444 5.133789 34.455627 14.272003c9.138245 9.138214 14.272034 21.532257 14.272034 34.455627l0 194.90463c0 26.911499 -21.816101 48.7276 -48.72766 48.7276l-391.64377 0c-26.911514 0 -48.727615 -21.816101 -48.727615 -48.7276z" fill-rule="evenodd"/><path fill="#656565" d="m199.48824 319.79495l0 0c0 -24.663177 19.993439 -44.656647 44.656616 -44.656647l178.62114 0l0 0c11.843658 0 23.20224 4.704895 31.576996 13.07962c8.374725 8.374756 13.07962 19.733337 13.07962 31.577026l0 203.0466c0 24.663208 -19.993439 44.656616 -44.656616 44.656616l-178.62114 0l0 0c-24.663177 0 -44.656616 -19.993408 -44.656616 -44.656616z" fill-rule="evenodd"/><path fill="#9f9f9f" d="m232.60977 325.85068l0 0c0 -9.716339 7.876648 -17.592987 17.592987 -17.592987l70.36987 0l0 0c4.6659546 0 9.140808 1.8535156 12.4401245 5.1528625c3.2993164 3.2993164 5.1528625 7.77417 5.1528625 12.4401245l0 96.24832c0 9.716339 -7.876648 17.592987 -17.592987 17.592987l-70.36987 0c-9.716339 0 -17.592987 -7.876648 -17.592987 -17.592987z" fill-rule="evenodd"/><path fill="#9f9f9f" d="m232.60977 464.38126l0 0c0 -6.354645 5.151474 -11.506134 11.506134 -11.506134l82.54358 0c3.0516357 0 5.978241 1.2122498 8.136078 3.3700867c2.1578064 2.1578064 3.3700562 5.084442 3.3700562 8.136047l0 46.023163c0 6.3546753 -5.1514587 11.5061035 -11.506134 11.5061035l-82.54358 0c-6.35466 0 -11.506134 -5.151428 -11.506134 -11.5061035z" fill-rule="evenodd"/><path fill="#ffffff" d="m522.64197 549.7602l0 0c0 -1.9555664 1.5852661 -3.5408325 3.5408325 -3.5408325l92.89789 0c0.93914795 0 1.8397217 0.37304688 2.5037842 1.0371094c0.6640625 0.66400146 1.0371094 1.5646362 1.0371094 2.5037231l0 14.163025c0 1.9555054 -1.5853271 3.5408325 -3.5408936 3.5408325l-92.89789 0c-1.9555664 0 -3.5408325 -1.5853271 -3.5408325 -3.5408325z" fill-rule="evenodd"/><path fill="#d1e8ff" d="m605.9609 154.70859l0 0c7.6414795 -11.240646 22.948486 -14.158325 34.189148 -6.5168304l81.409485 55.34297l0 0c5.397949 3.669571 9.117065 9.333191 10.339233 15.744888c1.2221069 6.4117126 -0.15283203 13.04631 -3.8223877 18.44426l-75.979004 111.765076c-7.6414795 11.240631 -22.948486 14.158325 -34.189148 6.5168457l-81.409485 -55.342987c-11.240662 -7.6414795 -14.158325 -22.948486 -6.5168457 -34.189148z" fill-rule="evenodd"/><path stroke="#a6d3ff" stroke-width="14.388451443569554" stroke-linejoin="round" stroke-linecap="butt" d="m605.9609 154.70859l0 0c7.6414795 -11.240646 22.948486 -14.158325 34.189148 -6.5168304l81.409485 55.34297l0 0c5.397949 3.669571 9.117065 9.333191 10.339233 15.744888c1.2221069 6.4117126 -0.15283203 13.04631 -3.8223877 18.44426l-75.979004 111.765076c-7.6414795 11.240631 -22.948486 14.158325 -34.189148 6.5168457l-81.409485 -55.342987c-11.240662 -7.6414795 -14.158325 -22.948486 -6.5168457 -34.189148z" fill-rule="evenodd"/><path fill="#d1e8ff" d="m728.0569 237.71065l0 0c7.6414795 -11.240646 22.948486 -14.158325 34.189148 -6.5168304l81.409485 55.342957l0 0c5.397949 3.6695862 9.117065 9.333191 10.339233 15.744904c1.222168 6.4117126 -0.15283203 13.046295 -3.8223877 18.444244l-75.979004 111.76511c-7.6414795 11.240631 -22.948486 14.158325 -34.189148 6.516815l-81.409485 -55.342957c-11.240662 -7.64151 -14.158325 -22.948517 -6.5168457 -34.189148z" fill-rule="evenodd"/><path stroke="#a6d3ff" stroke-width="14.388451443569554" stroke-linejoin="round" stroke-linecap="butt" d="m728.0569 237.71065l0 0c7.6414795 -11.240646 22.948486 -14.158325 34.189148 -6.5168304l81.409485 55.342957l0 0c5.397949 3.6695862 9.117065 9.333191 10.339233 15.744904c1.222168 6.4117126 -0.15283203 13.046295 -3.8223877 18.444244l-75.979004 111.76511c-7.6414795 11.240631 -22.948486 14.158325 -34.189148 6.516815l-81.409485 -55.342957c-11.240662 -7.64151 -14.158325 -22.948517 -6.5168457 -34.189148z" fill-rule="evenodd"/><path fill="#f3f8fe" d="m620.3517 166.5459l0 0c6.6799316 -9.826263 20.060913 -12.376816 29.887146 -5.6968384l71.165955 48.379288l0 0c4.71875 3.20784 7.9699097 8.158813 9.038269 13.763748c1.0683594 5.6049347 -0.13360596 11.404709 -3.3414307 16.123444l-66.44318 97.737885c-6.6799927 9.826263 -20.060913 12.376831 -29.887207 5.6968384l-71.16589 -48.379272c-9.826294 -6.6799927 -12.376831 -20.060944 -5.6968384 -29.887207z" fill-rule="evenodd"/><path fill="#f3f8fe" d="m727.1044 239.11742l0 0c6.6799927 -9.826263 20.060913 -12.376816 29.887207 -5.6968384l71.16589 48.379288l0 0c4.71875 3.2078552 7.9699097 8.158813 9.038269 13.763733c1.0683594 5.60495 -0.13360596 11.404724 -3.3414307 16.123474l-66.44318 97.737885c-6.6799316 9.826263 -20.060913 12.376801 -29.887146 5.696808l-71.165955 -48.379272c-9.826233 -6.6799927 -12.376831 -20.060944 -5.6968384 -29.887207z" fill-rule="evenodd"/><path fill="#d1e8ff" d="m633.55725 188.75735l0 0c1.0826416 -1.592514 3.2512207 -2.0058746 4.84375 -0.92326355l65.746216 44.694916c0.7647705 0.51989746 1.291687 1.3222809 1.4648438 2.2306519c0.1730957 0.90838623 -0.02166748 1.8483276 -0.54156494 2.613083l-7.8406982 11.533661c-1.0825806 1.592514 -3.2512207 2.0058746 -4.84375 0.92326355l-65.746216 -44.694916l0 0c-1.5924683 -1.0826111 -2.0058594 -3.2512207 -0.9232788 -4.8437347z" fill-rule="evenodd"/><path fill="#d1e8ff" d="m611.98846 220.48508l0 0c1.0825806 -1.592514 3.2512207 -2.0058746 4.84375 -0.92326355l65.746216 44.69493c0.7647095 0.51986694 1.291626 1.3222656 1.4647827 2.2306519c0.17315674 0.9083557 -0.02166748 1.8483276 -0.5415039 2.6130676l-7.8406982 11.533661c-1.0826416 1.5924988 -3.2512207 2.0058594 -4.84375 0.9232483l-65.746216 -44.6949l0 0c-1.5925293 -1.0826111 -2.0058594 -3.2512207 -0.9232788 -4.8437347z" fill-rule="evenodd"/><path fill="#d1e8ff" d="m590.4197 252.2128l0 0c1.0825806 -1.592514 3.2511597 -2.0058746 4.843689 -0.92326355l65.746216 44.69493c0.7647705 0.51986694 1.291687 1.3222656 1.4648438 2.2306213c0.17315674 0.90838623 -0.02166748 1.8483582 -0.54156494 2.6130981l-7.8406982 11.533661c-1.0825806 1.5924988 -3.2512207 2.0058594 -4.843689 0.9232483l-65.74628 -44.694916l0 0c-1.5924683 -1.0826111 -2.0058594 -3.2512207 -0.9232178 -4.8437195z" fill-rule="evenodd"/><path fill="#d1e8ff" d="m736.8176 258.95477l0 0c1.0826416 -1.5925293 3.2512207 -2.00589 4.84375 -0.9232788l65.746216 44.694916c0.7647705 0.51989746 1.291687 1.3222656 1.4648438 2.2306519c0.1730957 0.90838623 -0.02166748 1.8483276 -0.54156494 2.6130981l-7.8406982 11.53363c-1.0825806 1.5925293 -3.2512207 2.00589 -4.84375 0.9232788l-65.746216 -44.694916l0 0c-1.5924683 -1.0826111 -2.0058594 -3.2512207 -0.9232788 -4.8437195z" fill-rule="evenodd"/><path fill="#d1e8ff" d="m715.24884 290.6825l0 0c1.0825806 -1.5925293 3.2512207 -2.00589 4.84375 -0.9232788l65.746216 44.694916c0.7647705 0.51989746 1.291626 1.3222656 1.4647827 2.2306519c0.17315674 0.90838623 -0.02166748 1.8483276 -0.5415039 2.6130676l-7.8406982 11.533661c-1.0826416 1.5925293 -3.2512207 2.00589 -4.84375 0.9232788l-65.746216 -44.694916l0 0c-1.5925293 -1.0826111 -2.0058594 -3.2512207 -0.9232788 -4.84375z" fill-rule="evenodd"/><path fill="#d1e8ff" d="m693.68005 322.41022l0 0c1.0825806 -1.5925293 3.2512207 -2.00589 4.843689 -0.9232788l65.746216 44.694916c0.7647705 0.51989746 1.291687 1.3222656 1.4648438 2.2306519c0.17315674 0.90838623 -0.02166748 1.8483276 -0.54156494 2.6130676l-7.8406982 11.533661c-1.0825806 1.5925293 -3.2512207 2.00589 -4.843689 0.9232788l-65.746216 -44.694916l0 0c-1.5925293 -1.0826111 -2.0059204 -3.2512207 -0.9232788 -4.84375z" fill-rule="evenodd"/><path fill="#3c3c3c" d="m464.63663 663.74835l0 0c3.3702698 1.4069214 4.9618835 5.279602 3.5549622 8.649902l-10.189636 24.408997l0 0c-0.67562866 1.6184692 -1.9665222 2.9022217 -3.5887146 3.5689087c-1.6221619 0.666687 -3.442749 0.6616821 -5.0611877 -0.013977051l-38.82892 -16.20929c-3.3702698 -1.4069214 -4.9618835 -5.279602 -3.5549316 -8.649902l10.189606 -24.408997c1.4069519 -3.3702393 5.2796326 -4.961853 8.649933 -3.5549316z" fill-rule="evenodd"/><path fill="#ffe7bc" d="m426.01324 623.98224l0 0c7.076935 2.9542847 10.418976 11.086182 7.464691 18.163086l-21.39618 51.253967l0 0c-1.4187012 3.3984375 -4.129303 6.094116 -7.535553 7.4940186c-3.40625 1.3999023 -7.229065 1.3893433 -10.627533 -0.02935791l-79.92212 -33.36383c-7.0769043 -2.9542847 -10.418976 -11.086182 -7.464691 -18.163086l21.39618 -51.253967c2.9542847 -7.0769043 11.086182 -10.418945 18.163086 -7.4646606z" fill-rule="evenodd"/><path fill="#fdf0d9" d="m432.48355 626.6833l0 0c3.5034485 1.4625244 5.157959 5.4882812 3.6954346 8.991699l-10.592316 25.373596l0 0c-0.70233154 1.6824341 -2.04422 3.0169678 -3.7304993 3.709961c-1.6862793 0.6930542 -3.5787964 0.6878052 -5.2612305 -0.014526367l-92.86273 -38.76593c-3.5034485 -1.4625244 -5.157959 -5.4882812 -3.695404 -8.991699l10.592285 -25.373596c1.4625244 -3.503479 5.4882812 -5.157959 8.99173 -3.6954346z" fill-rule="evenodd"/><path fill="#fc8076" d="m118.01432 495.40686l0 0c7.076912 2.9542847 10.418953 11.086151 7.464676 18.163086l-21.396172 51.253967l0 0c-1.4186935 3.3984375 -4.129318 6.094116 -7.535553 7.4940186c-3.4062347 1.3999023 -7.2290726 1.3893433 -10.627525 -0.02935791l-70.3579 -29.371216c-7.076908 -2.9542847 -10.418956 -11.086121 -7.464672 -18.163086l21.396168 -51.253937c2.9542828 -7.0769043 11.086172 -10.418945 18.16308 -7.4646606z" fill-rule="evenodd"/><path fill="#656565" d="m120.68575 496.52686l0 0c5.6005783 2.3379822 8.24543 8.7734375 5.907448 14.374023l-23.62799 56.60022c-1.1227417 2.6895142 -3.267891 4.822815 -5.9635468 5.930725c-2.6956558 1.1078491 -5.720993 1.0994873 -8.410484 -0.023254395l-40.561752 -16.932678c-5.6005745 -2.3379517 -8.24543 -8.7734375 -5.907448 -14.374023l23.62799 -56.60022l0 0c2.3379822 -5.600586 8.77346 -8.245453 14.374031 -5.9074707z" fill-rule="evenodd"/><path fill="#9f9f9f" d="m121.51138 509.3578l0 0c2.6930618 1.1242371 3.9648514 4.21875 2.840622 6.911804l-8.142151 19.504333l0 0c-0.5398712 1.2932129 -1.571373 2.3190308 -2.8675919 2.8518066c-1.2962189 0.53271484 -2.750969 0.5286865 -4.04422 -0.011230469l-51.090794 -21.328003c-2.6930618 -1.1242676 -3.9648514 -4.21875 -2.840622 -6.9118347l8.142147 -19.504303c1.1242294 -2.6930542 4.2187576 -3.9648438 6.9118195 -2.8406372z" fill-rule="evenodd"/><path fill="#fcb630" d="m366.75653 599.2492l0 0c7.0769043 2.9542847 10.418945 11.086182 7.4646606 18.163086l-21.39618 51.253967l0 0c-1.4186707 3.3984375 -4.129303 6.0941772 -7.535553 7.4940186c-3.4062195 1.3999023 -7.229065 1.3893433 -10.627502 -0.02935791l-229.34488 -95.740906c-7.076912 -2.9542847 -10.418953 -11.086182 -7.464676 -18.163086l21.396172 -51.253937c2.9542847 -7.076935 11.086174 -10.418976 18.163078 -7.464691z" fill-rule="evenodd"/><path fill="#e09300" d="m353.90414 654.06647l0 0c2.3589478 0.9847412 3.4729614 3.6953735 2.4882202 6.0543823l-7.1320496 17.084656l0 0c-0.4729004 1.1328125 -1.3764648 2.031372 -2.5118713 2.4979858c-1.1354065 0.46661377 -2.4096985 0.46313477 -3.542511 -0.009765625l-246.43002 -102.87323c-2.3589706 -0.9847412 -3.4729843 -3.6953735 -2.4882202 -6.0543213l7.1320496 -17.084656c0.9847641 -2.3590088 3.6953964 -3.4730225 6.0543594 -2.4882202z" fill-rule="evenodd"/><path fill="#fcb630" d="m364.60205 628.43994l0 0c2.3589478 0.9847412 3.4729614 3.6953735 2.4882202 6.0543213l-7.1320496 17.084656l0 0c-0.4729004 1.1328125 -1.3764648 2.031372 -2.5118713 2.4980469c-1.1354065 0.46661377 -2.4096985 0.46307373 -3.542511 -0.00982666l-246.43002 -102.87317c-2.3589706 -0.98480225 -3.4729843 -3.6954346 -2.4882202 -6.0543823l7.132057 -17.084656c0.98475647 -2.3589478 3.6953888 -3.4729614 6.0543594 -2.4882202z" fill-rule="evenodd"/><path fill="#ffc860" d="m375.3008 602.81134l0 0c2.3589478 0.9847412 3.4729614 3.6953735 2.4882202 6.0543213l-7.1320496 17.084656l0 0c-0.4729004 1.1328125 -1.3764648 2.031372 -2.5118713 2.4980469c-1.1354065 0.46661377 -2.4096985 0.46307373 -3.542511 -0.00982666l-246.43002 -102.87317c-2.3589706 -0.98480225 -3.4729843 -3.6954346 -2.4882202 -6.0543823l7.132057 -17.084656c0.98475647 -2.3589478 3.6953888 -3.472992 6.054352 -2.4882202z" fill-rule="evenodd"/><path fill="#9f9f9f" d="m130.0489 492.68906l0 0c1.9503784 0.81417847 2.8714447 3.0553284 2.057251 5.005707l-34.6539 83.01245c-0.39098358 0.9366455 -1.138031 1.6795654 -2.0767822 2.0653687c-0.9387512 0.38580322 -1.9923172 0.38287354 -2.9289246 -0.008117676l-14.125496 -5.8967285c-1.9503784 -0.814209 -2.8714447 -3.0552979 -2.0572433 -5.0056763l34.653893 -83.01251l0 0c0.8141937 -1.9503784 3.0553207 -2.8714294 5.005707 -2.057251z" fill-rule="evenodd"/><path fill="#cfcfcf" d="m124.84825 505.14706l0 0c1.9503784 0.814209 2.8714447 3.0553284 2.057251 5.005707l-11.363571 27.22113c-0.3909912 0.9366455 -1.138031 1.6795654 -2.0767899 2.0653687c-0.9387512 0.38580322 -1.9923172 0.38287354 -2.9289246 -0.008117676l-14.125488 -5.8967285c-1.950386 -0.814209 -2.8714447 -3.055359 -2.057251 -5.0057373l11.363571 -27.2211c0.8141937 -1.9504089 3.0553284 -2.87146 5.005707 -2.057251z" fill-rule="evenodd"/><path fill="#9f9f9f" d="m94.7015 477.92834l0 0c2.4244308 1.012085 3.5693665 3.7979126 2.5572739 6.222351l-33.937252 81.29584c-0.48602295 1.1642456 -1.4146385 2.0877075 -2.5815582 2.5673218c-1.1669235 0.47955322 -2.4765625 0.47595215 -3.6408157 -0.010070801l-17.558777 -7.329956c-2.4244308 -1.012146 -3.5693626 -3.7979736 -2.5572739 -6.222412l33.937252 -81.29578c1.0120926 -2.4244385 3.797943 -3.5693665 6.222374 -2.5572815z" fill-rule="evenodd"/><path fill="#cfcfcf" d="m89.50085 490.38635l0 0c2.4244308 1.012085 3.5693665 3.797943 2.5572739 6.2223816l-10.646927 25.504425c-0.48602295 1.1642456 -1.4146423 2.0877686 -2.5815582 2.5673218c-1.1669235 0.47961426 -2.4765625 0.47601318 -3.6408157 -0.010009766l-17.558777 -7.330017c-2.4244347 -1.012085 -3.5693665 -3.7979126 -2.5572739 -6.222351l10.646927 -25.504456l0 0c1.0120926 -2.4244385 3.797943 -3.5693665 6.222374 -2.5572815z" fill-rule="evenodd"/><path fill="#ffaaa7" d="m56.720905 479.3588l0 0c1.8126831 0.75671387 2.6687164 2.8396301 1.9120064 4.652313l-12.5443 30.0495c-0.36338806 0.8704834 -1.0576859 1.5609741 -1.9301605 1.9195557c-0.8724747 0.35858154 -1.8516579 0.35583496 -2.7221375 -0.007507324l-13.128208 -5.480438c-1.8126812 -0.75671387 -2.6687145 -2.8396301 -1.9120045 -4.652313l12.544302 -30.04953c0.75671005 -1.8126831 2.8396149 -2.6687012 4.652298 -1.9119873z" fill-rule="evenodd"/></g></svg>